<svg xmlns="http://www.w3.org/2000/svg" width="56.672" height="56.607" viewBox="0 0 56.672 56.607">
  <g id="f9Nz4j" transform="translate(-180.073 1113.389)">
    <g id="Grupo_947361" data-name="Grupo 947361" transform="translate(180.073 -1113.389)">
      <path id="Trazado_628550" data-name="Trazado 628550" d="M218.953-965.912c.256-.738.467-.893,1.246-.894,2.653,0,5.307.048,7.959-.014a4.723,4.723,0,0,1,4.988,5c-.07,7.59-.021,15.181-.03,22.771a1.461,1.461,0,0,0,.316.959c.91,1.181,1.8,2.38,2.688,3.574.214.287.417.582.625.873v3.538c-.179.084-.167.273-.209.419a4.534,4.534,0,0,1-1.732,2.411,7.058,7.058,0,0,1-1.929.818h-49.09a15.045,15.045,0,0,1-1.752-.847,4.615,4.615,0,0,1-1.894-3.625c0-.073.005-.148,0-.22a5.151,5.151,0,0,1,1.454-4.51,25.258,25.258,0,0,0,1.965-2.585,2.186,2.186,0,0,1,1.1-.937c.211.174.461.086.69.086q21.268.008,42.537,0c.221,0,.441-.012.662-.019.773.01,1.546.006,2.318.035.356.014.473-.095.472-.465q-.016-11.355-.013-22.71a2.64,2.64,0,0,0-1.926-2.6,4.108,4.108,0,0,0-1.961-.11c-.218-.016-.437-.044-.655-.045-2.2,0-4.4,0-6.607,0C219.363-965.01,219.2-965.138,218.953-965.912Zm10.385,28.639c-.221-.006-.441-.018-.662-.018H191.859q-3.151,0-6.3,0c-.175,0-.385-.082-.519.094-.716.943-1.424,1.89-2.183,2.9H231c.147,0,.294-.013.441-.019h2.573c-.723-.963-1.4-1.854-2.062-2.753a.5.5,0,0,0-.46-.228C230.773-937.279,230.055-937.279,229.338-937.273Zm1.754,8.982a3.947,3.947,0,0,0,1.2.029,2.717,2.717,0,0,0,2.651-2.7c.026-.383,0-.77.011-1.155.009-.246-.057-.378-.333-.37-.8.022-1.609.03-2.414.043a.521.521,0,0,0-.108-.023q-11.193,0-22.386-.011c-.337,0-.4.133-.385.424a9.1,9.1,0,0,1-.011,1.16.847.847,0,0,1-.884.806.852.852,0,0,1-.878-.813,4.041,4.041,0,0,1-.007-.883c.069-.537-.089-.7-.67-.7q-12.132.034-24.265.016l-.442,0c-.154,0-.241.07-.238.233a7.11,7.11,0,0,0,.152,2.083,2.733,2.733,0,0,0,2.852,1.9q22.856,0,45.711,0C230.8-928.256,230.946-928.279,231.092-928.291Z" transform="translate(-180.073 983.063)" fill="#030303"/>
      <path id="Trazado_628551" data-name="Trazado 628551" d="M255.718-958.657c.248.774.41.9,1.219.9,2.2,0,4.4,0,6.607,0,.218,0,.437.029.655.044a4.244,4.244,0,0,1,1.156,3.261c-.037,7.291-.018,14.583-.019,21.874,0,.239-.018.478-.028.716-.221.007-.441.019-.662.019q-21.268,0-42.537,0c-.229,0-.479.088-.69-.086q0-.862,0-1.724c.7-.175.887-.411.9-1.108,0-.2,0-.4,0-.607q0-9.688,0-19.376a2.873,2.873,0,0,1,1.158-2.493,3.133,3.133,0,0,1,1.935-.517q4,0,8,0c.871,0,1.019-.11,1.279-.9l1.763-.005c.005.773-.007,1.547.023,2.32.014.356-.12.43-.446.425-1.105-.017-2.211,0-3.317-.01a.916.916,0,0,0-.979.563.968.968,0,0,0,.307,1.095q6.2,6.189,12.395,12.386a.937.937,0,0,0,1.532,0q6.2-6.19,12.395-12.386a.967.967,0,0,0,.307-1.095.916.916,0,0,0-.979-.562c-1.105.012-2.211-.007-3.317.01-.326.005-.46-.069-.446-.425.03-.772.018-1.547.023-2.32Z" transform="translate(-216.838 975.808)" fill="#27abab"/>
      <path id="Trazado_628552" data-name="Trazado 628552" d="M336.219-1096.243c-.005.773.007,1.548-.023,2.32-.014.356.12.43.446.425,1.105-.017,2.211,0,3.317-.01a.916.916,0,0,1,.979.562.967.967,0,0,1-.307,1.095q-6.2,6.189-12.395,12.386a.937.937,0,0,1-1.532,0q-6.2-6.19-12.395-12.386a.968.968,0,0,1-.307-1.095.916.916,0,0,1,.979-.562c1.105.011,2.211-.007,3.317.01.326.005.46-.069.446-.425-.03-.772-.018-1.547-.023-2.32q.008-3.757.016-7.513c0-2.836,0-5.673,0-8.509,0-.783.332-1.119,1.106-1.12q7.625-.006,15.251,0c.789,0,1.106.344,1.106,1.175q0,7.68,0,15.361C336.2-1096.647,336.214-1096.445,336.219-1096.243Zm-4.979,11.161,0,.009a.3.3,0,0,0,.224-.228l0,0a1.661,1.661,0,0,0,.217-.157q3-3,6-6c.058-.058.155-.105.114-.241h-2.015c-1.021-.058-1.178-.161-1.386-.906.007-.092.02-.183.02-.275q0-9.112,0-18.224c0-.055,0-.111,0-.166.018-.228-.069-.337-.314-.332-.809.018-1.618.023-2.427.033-.183-.009-.367-.027-.55-.027-3.315,0-6.63.009-9.945-.012-.488,0-.649.1-.648.626.021,6,.014,12.008.012,18.012,0,.973-.279,1.249-1.245,1.251-.723,0-1.445,0-2.3,0,.922.916,1.734,1.717,2.541,2.523q3.791,3.788,7.582,7.576c.16.16.284.464.6.136,1.126-1.165,2.271-2.309,3.409-3.462Z" transform="translate(-299.102 1113.389)" fill="#010100"/>
      <path id="Trazado_628553" data-name="Trazado 628553" d="M227.47-965.828c-.26.793-.408.9-1.279.9q-4,0-8,0a3.133,3.133,0,0,0-1.935.517,2.873,2.873,0,0,0-1.158,2.493q.013,9.688,0,19.376c0,.2,0,.405,0,.607-.012.7-.2.933-.9,1.108-.7-.167-.892-.39-.893-1.1,0-6.719-.019-13.437.006-20.156A4.488,4.488,0,0,1,218-966.719c2.743-.015,5.485,0,8.228,0C227-966.721,227.215-966.564,227.47-965.828Z" transform="translate(-209.615 982.978)" fill="#010101"/>
      <path id="Trazado_628554" data-name="Trazado 628554" d="M246.025-652.794c-.146.012-.292.035-.438.035q-22.855,0-45.711,0a2.733,2.733,0,0,1-2.852-1.9,7.11,7.11,0,0,1-.152-2.083c0-.163.084-.232.238-.233l.442,0q12.133,0,24.265-.016c.582,0,.74.166.67.7a4.041,4.041,0,0,0,.007.883.852.852,0,0,0,.878.813.847.847,0,0,0,.884-.806,9.1,9.1,0,0,0,.011-1.16c-.013-.291.047-.425.385-.424q11.193.015,22.386.011a.529.529,0,0,1,.108.023C247.235-655.438,247.2-653.963,246.025-652.794Z" transform="translate(-195.006 707.566)" fill="#dbdbdb"/>
      <path id="Trazado_628555" data-name="Trazado 628555" d="M253.757-697.485c-.147.007-.294.019-.441.019H205.172c.759-1.01,1.467-1.957,2.183-2.9.134-.177.344-.094.519-.095q3.151-.008,6.3,0h36.817c.221,0,.441.012.662.018.139.19.287.375.417.571A22.207,22.207,0,0,1,253.757-697.485Z" transform="translate(-202.391 746.234)" fill="#fefefe"/>
      <path id="Trazado_628556" data-name="Trazado 628556" d="M608.574-924.757c.01-.239.027-.477.028-.716,0-7.291-.018-14.583.019-21.874a4.244,4.244,0,0,0-1.156-3.261,4.111,4.111,0,0,1,1.961.11,2.64,2.64,0,0,1,1.926,2.6q.014,11.355.013,22.71c0,.37-.116.479-.472.465C610.119-924.751,609.346-924.747,608.574-924.757Z" transform="translate(-560.104 968.711)" fill="#177272"/>
      <path id="Trazado_628557" data-name="Trazado 628557" d="M640.474-652.8c1.175-1.169,1.211-2.644,1.118-4.154.8-.014,1.61-.021,2.414-.043.276-.007.342.124.333.37-.014.385.015.771-.011,1.155a2.717,2.717,0,0,1-2.651,2.7A3.94,3.94,0,0,1,640.474-652.8Z" transform="translate(-589.456 707.574)" fill="#a9a9a9"/>
      <path id="Trazado_628558" data-name="Trazado 628558" d="M626.746-697.4a22.2,22.2,0,0,0-1.685-2.388c-.13-.2-.277-.381-.417-.571.718-.006,1.435-.006,2.153-.023a.5.5,0,0,1,.46.228c.664.9,1.339,1.79,2.062,2.753Z" transform="translate(-575.381 746.144)" fill="#d5f4f3"/>
      <path id="Trazado_628559" data-name="Trazado 628559" d="M358.86-1078.259c.208.746.365.848,1.386.906a2.3,2.3,0,0,1-.15.289c-1.084,1.527-2.183,3.042-3.248,4.581a3.728,3.728,0,0,0-.917,1.527l0,0c-.165-.014-.233.069-.224.228l0-.009-.121.143c-1.138,1.152-2.284,2.3-3.409,3.462-.318.329-.441.024-.6-.135q-3.795-3.784-7.582-7.576c-.807-.806-1.618-1.608-2.541-2.524.86,0,1.582,0,2.3,0,.966,0,1.244-.278,1.245-1.251,0-6,.008-12.008-.012-18.012,0-.527.16-.629.648-.626,3.315.02,6.63.01,9.945.012.183,0,.367.018.55.027q0,4.053,0,8.105a.887.887,0,0,0-.87.881.885.885,0,0,0,.87.935q0,4.168,0,8.336c0,.7,0,.7.726.7ZM347.755-1089.1a.881.881,0,0,0-.91.838.879.879,0,0,0,.86.941.9.9,0,0,0,.919-.891A.9.9,0,0,0,347.755-1089.1Zm4.177,0a.891.891,0,0,0-.876.931.884.884,0,0,0,.9.848.882.882,0,0,0,.876-.873A.889.889,0,0,0,351.932-1089.1Z" transform="translate(-323.577 1099.048)" fill="#f88440"/>
      <path id="Trazado_628560" data-name="Trazado 628560" d="M476.656-1078.216l-1.987,0c-.726,0-.726,0-.726-.7q0-4.168,0-8.336c.529-.075.893-.335.892-.908s-.362-.834-.892-.909q0-4.052,0-8.105c.809-.01,1.618-.016,2.427-.033.245-.005.333.1.314.332,0,.055,0,.11,0,.166q0,9.112,0,18.224C476.677-1078.4,476.663-1078.308,476.656-1078.216Z" transform="translate(-441.373 1099.005)" fill="#f26001"/>
      <path id="Trazado_628561" data-name="Trazado 628561" d="M472.045-911.21a3.726,3.726,0,0,1,.917-1.527c1.065-1.539,2.165-3.055,3.248-4.581a2.3,2.3,0,0,0,.15-.289h2.015c.041.136-.056.183-.114.241q-3,3-6,6A1.661,1.661,0,0,1,472.045-911.21Z" transform="translate(-439.691 939.302)" fill="#f76100"/>
      <path id="Trazado_628562" data-name="Trazado 628562" d="M470.046-859.7c-.009-.158.058-.241.224-.228A.3.3,0,0,1,470.046-859.7Z" transform="translate(-437.913 888.012)" fill="#f76100"/>
      <path id="Trazado_628563" data-name="Trazado 628563" d="M469-857.8l.121-.143Z" transform="translate(-436.985 886.248)" fill="#f76100"/>
      <path id="Trazado_628564" data-name="Trazado 628564" d="M390.953-1023.6a.9.9,0,0,1,.869.887.9.9,0,0,1-.919.891.879.879,0,0,1-.86-.941A.881.881,0,0,1,390.953-1023.6Z" transform="translate(-366.775 1033.55)" fill="#080402"/>
      <path id="Trazado_628565" data-name="Trazado 628565" d="M428.923-1023.606a.889.889,0,0,1,.9.905.882.882,0,0,1-.876.873.884.884,0,0,1-.9-.848A.891.891,0,0,1,428.923-1023.606Z" transform="translate(-400.568 1033.555)" fill="#080402"/>
      <path id="Trazado_628566" data-name="Trazado 628566" d="M466.987-1023.766c.53.074.892.337.892.909s-.363.833-.892.908a.885.885,0,0,1-.87-.935A.886.886,0,0,1,466.987-1023.766Z" transform="translate(-434.42 1033.697)" fill="#080402"/>
    </g>
  </g>
</svg>
