<svg id="Grupo_171257" data-name="Grupo 171257" xmlns="http://www.w3.org/2000/svg" xmlns:xlink="http://www.w3.org/1999/xlink" width="97.797" height="97.852" viewBox="0 0 97.797 97.852">
  <defs>
    <clipPath id="clip-path">
      <rect id="Rectángulo_52504" data-name="Rectángulo 52504" width="97.797" height="97.852" fill="#12263f"/>
    </clipPath>
  </defs>
  <g id="Grupo_171257-2" data-name="Grupo 171257" clip-path="url(#clip-path)">
    <path id="Trazado_212258" data-name="Trazado 212258" d="M89.672,81.568c1.969,0,3.819,0,5.67,0,1.8.006,2.546.734,2.447,2.546-.226,4.142-2.319,7.267-5.532,9.7a20.3,20.3,0,0,1-12.1,4c-3.277.073-6.558.018-9.837.018q-26.114,0-52.228-.015A19.851,19.851,0,0,1,4.251,92.737,12.1,12.1,0,0,1,0,83.96a2.018,2.018,0,0,1,2.3-2.388c1.888-.012,3.776,0,5.825,0V80.327q0-21.905,0-43.811A9.622,9.622,0,0,1,18.163,26.511c6.66,0,13.319-.021,19.978.026a1.509,1.509,0,0,0,1.683-1.15c1-2.577,2.092-5.12,3.193-7.657a.972.972,0,0,0-.357-1.346,9.289,9.289,0,1,1,11.935.164c1.187,2.376,2.552,4.679,3.505,7.14.885,2.285,2.175,3,4.639,2.9,5.636-.23,11.288-.07,16.933-.077a9.644,9.644,0,0,1,10,9.952q.012,21.905,0,43.811v1.3M37.577,30.711c-.166-.073-.225-.122-.285-.122-6.491-.008-12.983-.071-19.474.009-3.474.043-5.628,2.441-5.628,5.959q0,21.96,0,43.92c0,.327.03.654.047,1h73.31V77.478H30.323c-.507,0-1.015.019-1.521,0-1.481-.058-2.349-.87-2.3-2.129.051-1.218.923-1.932,2.361-1.932l55.381,0h1.364V71.657c0-11.563-.064-23.127.042-34.689.03-3.334-1.989-6.552-6.487-6.434-4.967.13-9.94.03-14.91.03H61.6c.974,1.946,1.857,3.756,2.8,5.533.1.195.558.292.846.286a9.345,9.345,0,1,1-8.753,7.787,9.731,9.731,0,0,1,4.191-6.342c-1.14-2.277-2.234-4.517-3.4-6.72a1.362,1.362,0,0,0-1.032-.523c-4.5-.034-8.994-.01-13.49-.036a.939.939,0,0,0-1.016.729Q40.6,34.143,39.361,36.97a.917.917,0,0,0,.362,1.322,9.224,9.224,0,1,1-5.23-1.91c.284,0,.741-.116.827-.308.789-1.771,1.514-3.572,2.258-5.362M4.148,85.664A24.116,24.116,0,0,0,5.961,88.6c3.095,3.664,7.255,5.125,11.875,5.139q31.03.1,62.06-.026a20.648,20.648,0,0,0,6.309-1.211A11.164,11.164,0,0,0,93.045,86.7a9.543,9.543,0,0,0,.353-1.033Zm61.5-34.7a5.281,5.281,0,0,0,5.306-5.256,5.37,5.37,0,0,0-5.229-5.262,5.289,5.289,0,0,0-5.273,5.191,5.2,5.2,0,0,0,5.2,5.327M48.7,4.082a5.273,5.273,0,0,0-5.26,5.293,5.263,5.263,0,1,0,10.526-.111A5.281,5.281,0,0,0,48.7,4.082M39.376,45.693a5.282,5.282,0,0,0-5.215-5.242,5.348,5.348,0,0,0-5.291,5.3,5.285,5.285,0,0,0,5.245,5.213,5.215,5.215,0,0,0,5.261-5.268M55.014,26.48c-.866-1.727-1.658-3.323-2.466-4.911-.487-.957-.776-2.267-1.564-2.75s-2.095-.115-3.17-.178a.977.977,0,0,0-1.121.733c-.8,2.037-1.659,4.052-2.5,6.075-.131.318-.27.633-.441,1.032Z" transform="translate(0 0)" fill="#12263f"/>
    <path id="Trazado_212259" data-name="Trazado 212259" d="M85.465,150.665c-.743,1.791-1.468,3.591-2.257,5.362-.085.192-.543.31-.827.308a9.369,9.369,0,1,0,5.23,1.91.916.916,0,0,1-.362-1.322q1.244-2.824,2.385-5.692a.939.939,0,0,1,1.016-.729c4.5.026,8.994,0,13.49.036a1.362,1.362,0,0,1,1.032.523c1.166,2.2,2.26,4.443,3.4,6.72a9.73,9.73,0,0,0-4.19,6.342,9.313,9.313,0,1,0,8.753-7.787c-.288.006-.743-.091-.846-.286-.943-1.777-1.826-3.586-2.8-5.533h2.656c4.97,0,9.943.1,14.91-.03,4.5-.118,6.517,3.1,6.487,6.434-.105,11.562-.041,23.126-.042,34.689v1.761h-1.364l-55.381,0c-1.438,0-2.31.714-2.361,1.932-.053,1.259.815,2.071,2.3,2.129.506.02,1.014,0,1.521,0h55.225v3.994H60.125c-.017-.342-.047-.669-.047-1q0-21.96,0-43.92c0-3.518,2.154-5.916,5.628-5.959,6.49-.08,12.982-.016,19.474-.009.059,0,.118.049.285.122m35.729,26.422h-3.951v3.951h3.951Zm-48.826,3.958h3.968v-3.984H72.368Zm-4.2-3.964H64.222v3.928h3.951Zm61.172.02h-3.9v3.956h3.9Z" transform="translate(-47.888 -119.954)" fill="#f6f6f6"/>
    <path id="Trazado_212260" data-name="Trazado 212260" d="M20.443,422.236h89.25a9.479,9.479,0,0,1-.353,1.033,11.163,11.163,0,0,1-6.839,5.808,20.651,20.651,0,0,1-6.31,1.212q-31.03.132-62.06.026c-4.62-.014-8.78-1.475-11.875-5.139a24.15,24.15,0,0,1-1.813-2.94" transform="translate(-16.296 -336.572)" fill="#eeac3a"/>
    <path id="Trazado_212261" data-name="Trazado 212261" d="M303.183,209.865a5.2,5.2,0,0,1-5.2-5.327,5.289,5.289,0,0,1,5.273-5.191,5.37,5.37,0,0,1,5.229,5.262,5.281,5.281,0,0,1-5.306,5.256" transform="translate(-237.531 -158.904)" fill="#b1daf6"/>
    <path id="Trazado_212262" data-name="Trazado 212262" d="M219.36,20.12a5.251,5.251,0,1,1-5.26,5.292,5.281,5.281,0,0,1,5.26-5.292" transform="translate(-170.662 -16.038)" fill="#7f4fc7"/>
    <path id="Trazado_212263" data-name="Trazado 212263" d="M152.806,204.62a5.216,5.216,0,0,1-5.261,5.268,5.285,5.285,0,0,1-5.245-5.213,5.349,5.349,0,0,1,5.292-5.3,5.283,5.283,0,0,1,5.215,5.243" transform="translate(-113.43 -158.928)" fill="#b1daf6"/>
    <rect id="Rectángulo_52500" data-name="Rectángulo 52500" width="3.951" height="3.95" transform="translate(69.355 57.133)" fill="#12263f"/>
    <rect id="Rectángulo_52501" data-name="Rectángulo 52501" width="3.968" height="3.984" transform="translate(24.48 57.107)" fill="#12263f"/>
    <rect id="Rectángulo_52502" data-name="Rectángulo 52502" width="3.951" height="3.928" transform="translate(16.334 57.127)" fill="#12263f"/>
    <rect id="Rectángulo_52503" data-name="Rectángulo 52503" width="3.902" height="3.956" transform="translate(77.554 57.147)" fill="#12263f"/>
  </g>
</svg>
