<svg xmlns="http://www.w3.org/2000/svg" width="1240" height="370.117" viewBox="0 0 1240 370.117">
  <g id="Grupo_947557" data-name="Grupo 947557" transform="translate(-180 -7058.729)">
    <g id="Grupo_947556" data-name="Grupo 947556">
      <rect id="Rectángulo_298561" data-name="Rectángulo 298561" width="1240" height="331.194" rx="12" transform="translate(180 7058.729)" fill="#f2f5fe"/>
      <g id="Grupo_947511" data-name="Grupo 947511" transform="translate(1336.606 7402.78) rotate(-45)">
        <path id="Trazado_597847" data-name="Trazado 597847" d="M0,6.088A6.088,6.088,0,1,0,6.088,0,6.088,6.088,0,0,0,0,6.088" transform="translate(68.897 0)" fill="#0f1e52"/>
        <path id="Trazado_599892" data-name="Trazado 599892" d="M0,6.088A6.088,6.088,0,1,0,6.088,0,6.088,6.088,0,0,0,0,6.088" transform="translate(54.958 24.688)" fill="#0f1e52"/>
        <path id="Trazado_597848" data-name="Trazado 597848" d="M0,6.088A6.088,6.088,0,1,0,6.088,0,6.088,6.088,0,0,0,0,6.088" transform="translate(41.418 0)" fill="#0f1e52"/>
        <path id="Trazado_599891" data-name="Trazado 599891" d="M0,6.088A6.088,6.088,0,1,0,6.088,0,6.088,6.088,0,0,0,0,6.088" transform="translate(27.478 24.688)" fill="#0f1e52"/>
        <path id="Trazado_599886" data-name="Trazado 599886" d="M0,6.088A6.088,6.088,0,1,0,6.088,0,6.088,6.088,0,0,0,0,6.088" transform="translate(13.94 0)" fill="#0f1e52"/>
        <path id="Trazado_599890" data-name="Trazado 599890" d="M0,6.088A6.088,6.088,0,1,0,6.088,0,6.088,6.088,0,0,0,0,6.088" transform="translate(0 24.689)" fill="#0f1e52"/>
      </g>
    </g>
    <g id="Grupo_947508" data-name="Grupo 947508" transform="translate(180 7116.055) rotate(-45)">
      <path id="Trazado_597847-2" data-name="Trazado 597847" d="M0,5.174A5.174,5.174,0,1,0,5.174,0,5.174,5.174,0,0,0,0,5.174" transform="translate(70.722 0)" fill="#0f1e52"/>
      <path id="Trazado_599892-2" data-name="Trazado 599892" d="M0,5.174A5.174,5.174,0,1,0,5.174,0,5.174,5.174,0,0,0,0,5.174" transform="translate(56.414 26.512)" fill="#0f1e52"/>
      <path id="Trazado_597848-2" data-name="Trazado 597848" d="M0,5.174A5.174,5.174,0,1,0,5.174,0,5.174,5.174,0,0,0,0,5.174" transform="translate(42.516 0)" fill="#0f1e52"/>
      <path id="Trazado_599891-2" data-name="Trazado 599891" d="M0,5.174A5.174,5.174,0,1,0,5.174,0,5.174,5.174,0,0,0,0,5.174" transform="translate(28.206 26.512)" fill="#0f1e52"/>
      <path id="Trazado_599886-2" data-name="Trazado 599886" d="M0,5.174A5.174,5.174,0,1,0,5.174,0,5.174,5.174,0,0,0,0,5.174" transform="translate(14.309 0)" fill="#0f1e52"/>
      <path id="Trazado_599890-2" data-name="Trazado 599890" d="M0,5.174A5.174,5.174,0,1,0,5.174,0,5.174,5.174,0,0,0,0,5.174" transform="translate(0 26.512)" fill="#0f1e52"/>
    </g>
  </g>
</svg>
