<svg xmlns="http://www.w3.org/2000/svg" width="420" height="415.229" viewBox="0 0 420 415.229">
  <g id="Grupo_947559" data-name="Grupo 947559" transform="translate(-285 -9766.284)">
    <rect id="Rectángulo_341929" data-name="Rectángulo 341929" width="420" height="415.228" transform="translate(285 9766.284)" fill="#f6f6f6"/>
    <path id="Trazado_629127" data-name="Trazado 629127" d="M94.307-52.616q0,26.4-10.925,40.38T51.393,1.748q-20.8,0-31.814-13.722T8.3-51.305V-74.729q0-26.658,11.056-40.467t31.858-13.81q20.8,0,31.814,13.678T94.307-76.04ZM69.048-78.37q0-15.836-4.326-23.054t-13.5-7.218q-8.915,0-13.154,6.868T33.563-80.3v30.97q0,15.573,4.239,23.14t13.591,7.568q9.265,0,13.373-7.261T69.048-48.1ZM186.08-47.9H200.5v20.365H186.08V0H160.82V-27.532H108.641L107.5-43.439l53.053-83.819H186.08Zm-53.4,0H160.82V-92.821l-1.661,2.884Z" transform="translate(495 9915.76)" fill="#12263f" opacity="0.089"/>
  </g>
</svg>
