<svg xmlns="http://www.w3.org/2000/svg" width="593.784" height="477.5" viewBox="0 0 593.784 477.5">
  <g id="Grupo_1" data-name="Grupo 1" transform="translate(-569.185 -168.5)">
    <g id="Grupo_1067376" data-name="Grupo 1067376" transform="translate(7013 7318)">
      <path id="Trazado_802358" data-name="Trazado 802358" d="M105.691,170.793a88.1,88.1,0,0,0,.577,10.065L1.769,192.87A192.6,192.6,0,0,1,56.613,34.91l77.069,71.8a87.139,87.139,0,0,0-27.991,64.083Z" transform="translate(-6320.5 -7039.429)" fill="#b5e295" stroke="#000" stroke-miterlimit="10" stroke-width="1"/>
      <path id="Trazado_802359" data-name="Trazado 802359" d="M132.387,107.587a87.3,87.3,0,0,0-20.758,14.284L34.56,50.074A192.689,192.689,0,0,1,89.437,11.49Z" transform="translate(-6298.447 -7054.592)" fill="#ef923a" stroke="#000" stroke-miterlimit="10" stroke-width="1"/>
      <path id="Trazado_802360" data-name="Trazado 802360" d="M133.505,105.4a85.834,85.834,0,0,0-22.686,7.529l-42.95-96.1A189.871,189.871,0,0,1,107.838,3.24Z" transform="translate(-6276.88 -7059.934)" fill="#f5c684" stroke="#000" stroke-miterlimit="10" stroke-width="1"/>
      <path id="Trazado_802361" data-name="Trazado 802361" d="M140.253.615V105.938c-2.142-.148-4.316-.231-6.508-.231a86.354,86.354,0,0,0-15.948,1.466L92.13,5.014A193.456,193.456,0,0,1,133.745.5C135.92.5,138.094.533,140.253.615Z" transform="translate(-6261.172 -7061.708)" fill="#63aa34" stroke="#000" stroke-miterlimit="10" stroke-width="1"/>
      <path id="Trazado_802362" data-name="Trazado 802362" d="M307.4,193.028A192.655,192.655,0,0,1,184.805,372.5l-37.534-98.326A87.39,87.39,0,0,0,121.34,105.893V.57C224.686,4,307.4,88.858,307.4,193.028Z" transform="translate(-6242.259 -7061.663)" fill="#487fc0" stroke="#000" stroke-miterlimit="10" stroke-width="1"/>
      <path id="Trazado_802363" data-name="Trazado 802363" d="M262.559,292.91a191.967,191.967,0,0,1-69.985,13.114c-98.9,0-180.365-74.548-191.3-170.513l104.5-12.01a87.425,87.425,0,0,0,119.244,71.088Z" transform="translate(-6320.001 -6982.069)" fill="#bccded" stroke="#000" stroke-miterlimit="10" stroke-width="1"/>
      <path id="_12.6_" data-name="12.6%" d="M7.348,0H4.377V-9.457L1.459-8.6v-2.25L7.075-12.8h.272ZM20.136,0h-8.93V-1.934l4.113-4.324A4.909,4.909,0,0,0,16.84-9.009a1.913,1.913,0,0,0-.36-1.257,1.287,1.287,0,0,0-1.046-.431,1.3,1.3,0,0,0-1.1.576,2.366,2.366,0,0,0-.422,1.437H10.942a4.2,4.2,0,0,1,.589-2.175,4.129,4.129,0,0,1,1.635-1.56,4.856,4.856,0,0,1,2.338-.562,4.777,4.777,0,0,1,3.195.958,3.42,3.42,0,0,1,1.121,2.751A4,4,0,0,1,19.538-7.8a6.456,6.456,0,0,1-.875,1.5,22.029,22.029,0,0,1-1.912,2.1L15.1-2.285h5.036Zm3.375-2.874a1.686,1.686,0,0,1,1.169.417,1.37,1.37,0,0,1,.466,1.068A1.37,1.37,0,0,1,24.68-.321,1.686,1.686,0,0,1,23.511.1a1.672,1.672,0,0,1-1.173-.422,1.379,1.379,0,0,1-.461-1.063,1.379,1.379,0,0,1,.461-1.063A1.672,1.672,0,0,1,23.511-2.874ZM34.225-12.981v2.329h-.132a4.447,4.447,0,0,0-2.729.8,3.358,3.358,0,0,0-1.314,2.21,3.464,3.464,0,0,1,2.531-.984,3.231,3.231,0,0,1,2.646,1.213,4.892,4.892,0,0,1,.984,3.182A4.48,4.48,0,0,1,35.635-2,4.108,4.108,0,0,1,34.027-.4a4.622,4.622,0,0,1-2.29.576A4.777,4.777,0,0,1,29.3-.444a4.26,4.26,0,0,1-1.67-1.771,5.832,5.832,0,0,1-.615-2.654V-6.056a7.387,7.387,0,0,1,.848-3.555,6.149,6.149,0,0,1,2.421-2.474,6.923,6.923,0,0,1,3.489-.9ZM31.553-6.363a1.7,1.7,0,0,0-.984.272,1.73,1.73,0,0,0-.589.668v.888q0,2.426,1.679,2.426a1.362,1.362,0,0,0,1.129-.606,2.472,2.472,0,0,0,.453-1.521,2.426,2.426,0,0,0-.461-1.534A1.476,1.476,0,0,0,31.553-6.363Zm5.95-3.973a2.512,2.512,0,0,1,.773-1.916,2.9,2.9,0,0,1,2.074-.729,2.9,2.9,0,0,1,2.083.725,2.578,2.578,0,0,1,.765,1.964v.633a2.5,2.5,0,0,1-.765,1.907,2.889,2.889,0,0,1-2.065.721,2.968,2.968,0,0,1-2.079-.716A2.524,2.524,0,0,1,37.5-9.712Zm1.907.677a1.074,1.074,0,0,0,.255.743.894.894,0,0,0,.7.286q.923,0,.923-1.178v-.527a1.132,1.132,0,0,0-.246-.751.855.855,0,0,0-.694-.294.873.873,0,0,0-.686.286,1.126,1.126,0,0,0-.255.778Zm4.175,6.521a2.487,2.487,0,0,1,.778-1.916,2.924,2.924,0,0,1,2.07-.721,2.956,2.956,0,0,1,2.083.712,2.565,2.565,0,0,1,.773,1.986v.615a2.509,2.509,0,0,1-.765,1.916A2.9,2.9,0,0,1,46.45.176a2.968,2.968,0,0,1-2.079-.716A2.524,2.524,0,0,1,43.585-2.5Zm1.9.677a1.05,1.05,0,0,0,.281.725.889.889,0,0,0,.686.312.81.81,0,0,0,.923-.809l.009-.905a1.086,1.086,0,0,0-.255-.751.883.883,0,0,0-.694-.286.89.89,0,0,0-.677.268,1.072,1.072,0,0,0-.272.725Zm-4.553,1.5-1.38-.694,6.249-10,1.38.694Z" transform="translate(-6384 -6958)" fill="#12263f"/>
      <path id="Otra" d="M10.07-5.32A7.037,7.037,0,0,1,9.508-2.4,4.261,4.261,0,0,1,7.914-.5,4.385,4.385,0,0,1,5.508.156,4.347,4.347,0,0,1,3.125-.5,4.363,4.363,0,0,1,1.512-2.387a6.752,6.752,0,0,1-.59-2.832v-.82a6.953,6.953,0,0,1,.57-2.9,4.347,4.347,0,0,1,1.613-1.926,4.329,4.329,0,0,1,2.387-.668,4.41,4.41,0,0,1,2.41.66A4.253,4.253,0,0,1,9.508-8.957a7.071,7.071,0,0,1,.563,2.918ZM8.578-6.055A5.1,5.1,0,0,0,7.766-9.16a2.68,2.68,0,0,0-2.273-1.082A2.651,2.651,0,0,0,3.254-9.16a5,5,0,0,0-.84,3v.836a5.107,5.107,0,0,0,.824,3.082,2.662,2.662,0,0,0,2.27,1.121,2.652,2.652,0,0,0,2.25-1.059,5.079,5.079,0,0,0,.82-3.035ZM14.055-10.5v2.047h1.578v1.117H14.055v5.242a1.171,1.171,0,0,0,.211.762.888.888,0,0,0,.719.254,3.5,3.5,0,0,0,.688-.094V0a4.19,4.19,0,0,1-1.109.156A1.8,1.8,0,0,1,13.1-.43a2.517,2.517,0,0,1-.492-1.664V-7.336H11.07V-8.453h1.539V-10.5Zm7.352,3.344a4.331,4.331,0,0,0-.711-.055A1.9,1.9,0,0,0,18.766-6V0H17.32V-8.453h1.406l.023.977a2.251,2.251,0,0,1,2.016-1.133,1.477,1.477,0,0,1,.641.109ZM27.641,0a3.036,3.036,0,0,1-.2-.891A3.225,3.225,0,0,1,25.031.156,2.984,2.984,0,0,1,22.98-.551a2.287,2.287,0,0,1-.8-1.793,2.39,2.39,0,0,1,1-2.051,4.733,4.733,0,0,1,2.824-.73h1.406v-.664A1.623,1.623,0,0,0,26.961-7a1.821,1.821,0,0,0-1.336-.449,2.108,2.108,0,0,0-1.3.391,1.151,1.151,0,0,0-.523.945H22.352A2,2,0,0,1,22.8-7.332a3.066,3.066,0,0,1,1.219-.934,4.1,4.1,0,0,1,1.691-.344A3.342,3.342,0,0,1,28-7.879a2.635,2.635,0,0,1,.859,2.012v3.891a4.757,4.757,0,0,0,.3,1.852V0Zm-2.4-1.1a2.54,2.54,0,0,0,1.289-.352,2.127,2.127,0,0,0,.883-.914V-4.1H26.281q-2.656,0-2.656,1.555a1.316,1.316,0,0,0,.453,1.063A1.742,1.742,0,0,0,25.242-1.1Z" transform="translate(-6372 -6937)" fill="#12263f"/>
      <path id="_5.6_" data-name="5.6%" d="M.958-6.258,1.74-12.8H9.22v2.3H4.148l-.29,2.54a3.5,3.5,0,0,1,.831-.325A3.805,3.805,0,0,1,5.7-8.42,3.754,3.754,0,0,1,8.626-7.291,4.549,4.549,0,0,1,9.65-4.122,4.541,4.541,0,0,1,9.1-1.894,3.776,3.776,0,0,1,7.559-.36,4.87,4.87,0,0,1,5.212.176a5.236,5.236,0,0,1-2.259-.5A4.053,4.053,0,0,1,1.3-1.683,3.312,3.312,0,0,1,.712-3.639H3.683a1.685,1.685,0,0,0,.448,1.116,1.421,1.421,0,0,0,1.063.413q1.494,0,1.494-2.215,0-2.048-1.828-2.048A1.823,1.823,0,0,0,3.313-5.7ZM13.087-2.874a1.686,1.686,0,0,1,1.169.417,1.37,1.37,0,0,1,.466,1.068,1.37,1.37,0,0,1-.466,1.068A1.686,1.686,0,0,1,13.087.1a1.672,1.672,0,0,1-1.173-.422,1.379,1.379,0,0,1-.461-1.063,1.379,1.379,0,0,1,.461-1.063A1.672,1.672,0,0,1,13.087-2.874ZM23.8-12.981v2.329h-.132a4.447,4.447,0,0,0-2.729.8,3.358,3.358,0,0,0-1.314,2.21,3.464,3.464,0,0,1,2.531-.984A3.231,3.231,0,0,1,24.8-7.418a4.892,4.892,0,0,1,.984,3.182A4.48,4.48,0,0,1,25.211-2,4.108,4.108,0,0,1,23.6-.4a4.622,4.622,0,0,1-2.29.576,4.777,4.777,0,0,1-2.435-.62,4.26,4.26,0,0,1-1.67-1.771,5.832,5.832,0,0,1-.615-2.654V-6.056a7.387,7.387,0,0,1,.848-3.555,6.149,6.149,0,0,1,2.421-2.474,6.923,6.923,0,0,1,3.489-.9ZM21.129-6.363a1.7,1.7,0,0,0-.984.272,1.73,1.73,0,0,0-.589.668v.888q0,2.426,1.679,2.426a1.362,1.362,0,0,0,1.129-.606,2.472,2.472,0,0,0,.453-1.521,2.426,2.426,0,0,0-.461-1.534A1.476,1.476,0,0,0,21.129-6.363Zm5.95-3.973a2.512,2.512,0,0,1,.773-1.916,2.9,2.9,0,0,1,2.074-.729,2.9,2.9,0,0,1,2.083.725,2.578,2.578,0,0,1,.765,1.964v.633a2.5,2.5,0,0,1-.765,1.907,2.889,2.889,0,0,1-2.065.721,2.968,2.968,0,0,1-2.079-.716,2.524,2.524,0,0,1-.787-1.964Zm1.907.677a1.074,1.074,0,0,0,.255.743.894.894,0,0,0,.7.286q.923,0,.923-1.178v-.527a1.132,1.132,0,0,0-.246-.751.855.855,0,0,0-.694-.294.873.873,0,0,0-.686.286,1.126,1.126,0,0,0-.255.778Zm4.175,6.521a2.487,2.487,0,0,1,.778-1.916,2.924,2.924,0,0,1,2.07-.721,2.956,2.956,0,0,1,2.083.712,2.565,2.565,0,0,1,.773,1.986v.615A2.509,2.509,0,0,1,38.1-.545a2.9,2.9,0,0,1-2.074.721,2.968,2.968,0,0,1-2.079-.716A2.524,2.524,0,0,1,33.161-2.5Zm1.9.677a1.05,1.05,0,0,0,.281.725.889.889,0,0,0,.686.312.81.81,0,0,0,.923-.809l.009-.905a1.086,1.086,0,0,0-.255-.751.883.883,0,0,0-.694-.286.89.89,0,0,0-.677.268,1.072,1.072,0,0,0-.272.725Zm-4.553,1.5-1.38-.694,6.249-10,1.38.694Z" transform="translate(-6293 -7075)" fill="#12263f"/>
      <path id="SSL" d="M4.672-5.07A7.053,7.053,0,0,1,1.863-6.434a2.6,2.6,0,0,1-.879-2,2.751,2.751,0,0,1,1.074-2.223,4.269,4.269,0,0,1,2.793-.879,4.66,4.66,0,0,1,2.09.453,3.436,3.436,0,0,1,1.422,1.25,3.2,3.2,0,0,1,.5,1.742H7.359A2.069,2.069,0,0,0,6.7-9.707a2.675,2.675,0,0,0-1.852-.59,2.736,2.736,0,0,0-1.73.488A1.628,1.628,0,0,0,2.5-8.453a1.465,1.465,0,0,0,.59,1.176A5.79,5.79,0,0,0,5.1-6.4a9.3,9.3,0,0,1,2.219.879A3.367,3.367,0,0,1,8.5-4.4a2.861,2.861,0,0,1,.387,1.508A2.658,2.658,0,0,1,7.813-.676,4.6,4.6,0,0,1,4.93.156,5.347,5.347,0,0,1,2.742-.293a3.681,3.681,0,0,1-1.566-1.23A3,3,0,0,1,.625-3.3H2.133a1.959,1.959,0,0,0,.762,1.629,3.207,3.207,0,0,0,2.035.6,2.948,2.948,0,0,0,1.82-.484,1.573,1.573,0,0,0,.633-1.32A1.545,1.545,0,0,0,6.8-4.168,6.755,6.755,0,0,0,4.672-5.07Zm9.492,0a7.053,7.053,0,0,1-2.809-1.363,2.6,2.6,0,0,1-.879-2,2.751,2.751,0,0,1,1.074-2.223,4.269,4.269,0,0,1,2.793-.879,4.66,4.66,0,0,1,2.09.453,3.436,3.436,0,0,1,1.422,1.25,3.2,3.2,0,0,1,.5,1.742H16.852A2.069,2.069,0,0,0,16.2-9.707a2.675,2.675,0,0,0-1.852-.59,2.736,2.736,0,0,0-1.73.488,1.628,1.628,0,0,0-.621,1.355,1.465,1.465,0,0,0,.59,1.176A5.79,5.79,0,0,0,14.59-6.4a9.3,9.3,0,0,1,2.219.879A3.367,3.367,0,0,1,18-4.4a2.861,2.861,0,0,1,.387,1.508A2.658,2.658,0,0,1,17.3-.676a4.6,4.6,0,0,1-2.883.832,5.347,5.347,0,0,1-2.187-.449,3.681,3.681,0,0,1-1.566-1.23A3,3,0,0,1,10.117-3.3h1.508a1.959,1.959,0,0,0,.762,1.629,3.207,3.207,0,0,0,2.035.6,2.948,2.948,0,0,0,1.82-.484,1.573,1.573,0,0,0,.633-1.32,1.545,1.545,0,0,0-.586-1.293A6.755,6.755,0,0,0,14.164-5.07Zm7.648,3.844H27.2V0H20.3V-11.375h1.508Z" transform="translate(-6287 -7054)" fill="#12263f"/>
      <path id="_4.0_" data-name="4.0%" d="M8.6-5h1.3v2.285H8.6V0H5.643V-2.716H.694L.519-4.526l5.124-8.244V-12.8H8.6ZM3.34-5h2.3V-8.938l-.185.3Zm9.747,2.127a1.686,1.686,0,0,1,1.169.417,1.37,1.37,0,0,1,.466,1.068,1.37,1.37,0,0,1-.466,1.068A1.686,1.686,0,0,1,13.087.1a1.672,1.672,0,0,1-1.173-.422,1.379,1.379,0,0,1-.461-1.063,1.379,1.379,0,0,1,.461-1.063A1.672,1.672,0,0,1,13.087-2.874ZM25.532-5.229a6.11,6.11,0,0,1-1.165,4A4.024,4.024,0,0,1,21.085.176a4.046,4.046,0,0,1-3.3-1.415,6.1,6.1,0,0,1-1.169-3.99V-7.567a6.11,6.11,0,0,1,1.165-4,4.034,4.034,0,0,1,3.292-1.406,4.036,4.036,0,0,1,3.3,1.415,6.116,6.116,0,0,1,1.169,4ZM22.57-7.945a4.564,4.564,0,0,0-.36-2.061,1.2,1.2,0,0,0-1.143-.681,1.176,1.176,0,0,0-1.112.633,4.3,4.3,0,0,0-.374,1.916v3.27a4.6,4.6,0,0,0,.36,2.1,1.209,1.209,0,0,0,1.143.664A1.193,1.193,0,0,0,22.2-2.755a4.39,4.39,0,0,0,.369-2.026Zm4.509-2.391a2.512,2.512,0,0,1,.773-1.916,2.9,2.9,0,0,1,2.074-.729,2.9,2.9,0,0,1,2.083.725,2.578,2.578,0,0,1,.765,1.964v.633a2.5,2.5,0,0,1-.765,1.907,2.889,2.889,0,0,1-2.065.721,2.968,2.968,0,0,1-2.079-.716,2.524,2.524,0,0,1-.787-1.964Zm1.907.677a1.074,1.074,0,0,0,.255.743.894.894,0,0,0,.7.286q.923,0,.923-1.178v-.527a1.132,1.132,0,0,0-.246-.751.855.855,0,0,0-.694-.294.873.873,0,0,0-.686.286,1.126,1.126,0,0,0-.255.778Zm4.175,6.521a2.487,2.487,0,0,1,.778-1.916,2.924,2.924,0,0,1,2.07-.721,2.956,2.956,0,0,1,2.083.712,2.565,2.565,0,0,1,.773,1.986v.615A2.509,2.509,0,0,1,38.1-.545a2.9,2.9,0,0,1-2.074.721,2.968,2.968,0,0,1-2.079-.716A2.524,2.524,0,0,1,33.161-2.5Zm1.9.677a1.05,1.05,0,0,0,.281.725.889.889,0,0,0,.686.312.81.81,0,0,0,.923-.809l.009-.905a1.086,1.086,0,0,0-.255-.751.883.883,0,0,0-.694-.286.89.89,0,0,0-.677.268,1.072,1.072,0,0,0-.272.725Zm-4.553,1.5-1.38-.694,6.249-10,1.38.694Z" transform="translate(-6209 -7115)" fill="#12263f"/>
      <path id="Facebook" d="M7.594-5.023H2.82V0H1.32V-11.375H8.367v1.234H2.82V-6.25H7.594ZM14.891,0a3.036,3.036,0,0,1-.2-.891A3.225,3.225,0,0,1,12.281.156,2.984,2.984,0,0,1,10.23-.551a2.287,2.287,0,0,1-.8-1.793,2.39,2.39,0,0,1,1-2.051,4.733,4.733,0,0,1,2.824-.73h1.406v-.664A1.623,1.623,0,0,0,14.211-7a1.821,1.821,0,0,0-1.336-.449,2.107,2.107,0,0,0-1.3.391,1.151,1.151,0,0,0-.523.945H9.6a2,2,0,0,1,.449-1.223,3.066,3.066,0,0,1,1.219-.934,4.1,4.1,0,0,1,1.691-.344,3.342,3.342,0,0,1,2.289.73,2.635,2.635,0,0,1,.859,2.012v3.891a4.757,4.757,0,0,0,.3,1.852V0Zm-2.4-1.1a2.54,2.54,0,0,0,1.289-.352,2.127,2.127,0,0,0,.883-.914V-4.1H13.531q-2.656,0-2.656,1.555a1.316,1.316,0,0,0,.453,1.063A1.742,1.742,0,0,0,12.492-1.1Zm9.273.078a2.082,2.082,0,0,0,1.352-.469,1.649,1.649,0,0,0,.641-1.172h1.367a2.621,2.621,0,0,1-.5,1.383,3.293,3.293,0,0,1-1.23,1.047,3.55,3.55,0,0,1-1.629.391A3.482,3.482,0,0,1,19.02-1,4.59,4.59,0,0,1,18-4.148v-.242a5.089,5.089,0,0,1,.453-2.2,3.451,3.451,0,0,1,1.3-1.492,3.7,3.7,0,0,1,2-.531,3.39,3.39,0,0,1,2.363.852,3.043,3.043,0,0,1,1,2.211H23.758a1.992,1.992,0,0,0-.621-1.348,1.932,1.932,0,0,0-1.379-.527,2.023,2.023,0,0,0-1.707.793,3.724,3.724,0,0,0-.605,2.293v.273a3.65,3.65,0,0,0,.6,2.25A2.033,2.033,0,0,0,21.766-1.023ZM30.258.156a3.693,3.693,0,0,1-2.8-1.129,4.19,4.19,0,0,1-1.078-3.02v-.266a5.073,5.073,0,0,1,.48-2.246,3.748,3.748,0,0,1,1.344-1.547,3.378,3.378,0,0,1,1.871-.559,3.166,3.166,0,0,1,2.563,1.086,4.7,4.7,0,0,1,.914,3.109v.6H27.828a3,3,0,0,0,.73,2.02,2.3,2.3,0,0,0,1.777.77,2.517,2.517,0,0,0,1.3-.312,3.259,3.259,0,0,0,.93-.828l.883.688A3.55,3.55,0,0,1,30.258.156Zm-.18-7.578a1.928,1.928,0,0,0-1.469.637A3.1,3.1,0,0,0,27.875-5h4.234v-.109a2.753,2.753,0,0,0-.594-1.707A1.815,1.815,0,0,0,30.078-7.422Zm12.3,3.289a5.026,5.026,0,0,1-.891,3.113A2.846,2.846,0,0,1,39.1.156,2.947,2.947,0,0,1,36.625-.977L36.555,0H35.227V-12h1.445v4.477a2.93,2.93,0,0,1,2.414-1.086A2.863,2.863,0,0,1,41.5-7.445a5.177,5.177,0,0,1,.879,3.188ZM40.938-4.3a3.906,3.906,0,0,0-.57-2.281,1.888,1.888,0,0,0-1.641-.8,2.122,2.122,0,0,0-2.055,1.328V-2.4a2.181,2.181,0,0,0,2.07,1.328,1.878,1.878,0,0,0,1.617-.8A4.153,4.153,0,0,0,40.938-4.3ZM43.82-4.3a4.993,4.993,0,0,1,.488-2.234A3.643,3.643,0,0,1,45.668-8.07a3.7,3.7,0,0,1,1.988-.539,3.565,3.565,0,0,1,2.793,1.2,4.6,4.6,0,0,1,1.066,3.18v.1a5.036,5.036,0,0,1-.473,2.215A3.589,3.589,0,0,1,49.691-.391a3.743,3.743,0,0,1-2.02.547,3.556,3.556,0,0,1-2.785-1.2A4.575,4.575,0,0,1,43.82-4.2Zm1.453.172a3.616,3.616,0,0,0,.652,2.258,2.088,2.088,0,0,0,1.746.852,2.075,2.075,0,0,0,1.75-.863A3.955,3.955,0,0,0,50.07-4.3a3.61,3.61,0,0,0-.66-2.254,2.1,2.1,0,0,0-1.754-.863,2.075,2.075,0,0,0-1.727.852A3.925,3.925,0,0,0,45.273-4.133ZM52.945-4.3a4.993,4.993,0,0,1,.488-2.234A3.643,3.643,0,0,1,54.793-8.07a3.7,3.7,0,0,1,1.988-.539,3.565,3.565,0,0,1,2.793,1.2,4.6,4.6,0,0,1,1.066,3.18v.1a5.036,5.036,0,0,1-.473,2.215A3.589,3.589,0,0,1,58.816-.391,3.743,3.743,0,0,1,56.8.156a3.556,3.556,0,0,1-2.785-1.2A4.575,4.575,0,0,1,52.945-4.2Zm1.453.172a3.616,3.616,0,0,0,.652,2.258,2.088,2.088,0,0,0,1.746.852,2.075,2.075,0,0,0,1.75-.863A3.955,3.955,0,0,0,59.2-4.3a3.61,3.61,0,0,0-.66-2.254,2.1,2.1,0,0,0-1.754-.863,2.075,2.075,0,0,0-1.727.852A3.925,3.925,0,0,0,54.4-4.133Zm10.414.219-.906.945V0H62.461V-12h1.445v7.258l.773-.93,2.633-2.781H69.07L65.781-4.922,69.453,0h-1.7Z" transform="translate(-6238 -7094)" fill="#12263f"/>
      <path id="_4.0_2" data-name="4.0%" d="M8.6-5h1.3v2.285H8.6V0H5.643V-2.716H.694L.519-4.526l5.124-8.244V-12.8H8.6ZM3.34-5h2.3V-8.938l-.185.3Zm9.747,2.127a1.686,1.686,0,0,1,1.169.417,1.37,1.37,0,0,1,.466,1.068,1.37,1.37,0,0,1-.466,1.068A1.686,1.686,0,0,1,13.087.1a1.672,1.672,0,0,1-1.173-.422,1.379,1.379,0,0,1-.461-1.063,1.379,1.379,0,0,1,.461-1.063A1.672,1.672,0,0,1,13.087-2.874ZM25.532-5.229a6.11,6.11,0,0,1-1.165,4A4.024,4.024,0,0,1,21.085.176a4.046,4.046,0,0,1-3.3-1.415,6.1,6.1,0,0,1-1.169-3.99V-7.567a6.11,6.11,0,0,1,1.165-4,4.034,4.034,0,0,1,3.292-1.406,4.036,4.036,0,0,1,3.3,1.415,6.116,6.116,0,0,1,1.169,4ZM22.57-7.945a4.564,4.564,0,0,0-.36-2.061,1.2,1.2,0,0,0-1.143-.681,1.176,1.176,0,0,0-1.112.633,4.3,4.3,0,0,0-.374,1.916v3.27a4.6,4.6,0,0,0,.36,2.1,1.209,1.209,0,0,0,1.143.664A1.193,1.193,0,0,0,22.2-2.755a4.39,4.39,0,0,0,.369-2.026Zm4.509-2.391a2.512,2.512,0,0,1,.773-1.916,2.9,2.9,0,0,1,2.074-.729,2.9,2.9,0,0,1,2.083.725,2.578,2.578,0,0,1,.765,1.964v.633a2.5,2.5,0,0,1-.765,1.907,2.889,2.889,0,0,1-2.065.721,2.968,2.968,0,0,1-2.079-.716,2.524,2.524,0,0,1-.787-1.964Zm1.907.677a1.074,1.074,0,0,0,.255.743.894.894,0,0,0,.7.286q.923,0,.923-1.178v-.527a1.132,1.132,0,0,0-.246-.751.855.855,0,0,0-.694-.294.873.873,0,0,0-.686.286,1.126,1.126,0,0,0-.255.778Zm4.175,6.521a2.487,2.487,0,0,1,.778-1.916,2.924,2.924,0,0,1,2.07-.721,2.956,2.956,0,0,1,2.083.712,2.565,2.565,0,0,1,.773,1.986v.615A2.509,2.509,0,0,1,38.1-.545a2.9,2.9,0,0,1-2.074.721,2.968,2.968,0,0,1-2.079-.716A2.524,2.524,0,0,1,33.161-2.5Zm1.9.677a1.05,1.05,0,0,0,.281.725.889.889,0,0,0,.686.312.81.81,0,0,0,.923-.809l.009-.905a1.086,1.086,0,0,0-.255-.751.883.883,0,0,0-.694-.286.89.89,0,0,0-.677.268,1.072,1.072,0,0,0-.272.725Zm-4.553,1.5-1.38-.694,6.249-10,1.38.694Z" transform="translate(-6131 -7117)" fill="#12263f"/>
      <path id="Google" d="M9.719-1.492A3.465,3.465,0,0,1,8.105-.254,6.517,6.517,0,0,1,5.7.156,4.674,4.674,0,0,1,3.227-.5,4.346,4.346,0,0,1,1.559-2.352,6.408,6.408,0,0,1,.953-5.141v-.992a5.982,5.982,0,0,1,1.2-3.984,4.179,4.179,0,0,1,3.371-1.414,4.316,4.316,0,0,1,2.867.91A3.965,3.965,0,0,1,9.719-8.039h-1.5A2.478,2.478,0,0,0,5.531-10.3,2.656,2.656,0,0,0,3.246-9.238a5.165,5.165,0,0,0-.785,3.066v.93A4.841,4.841,0,0,0,3.336-2.2,2.837,2.837,0,0,0,5.7-1.07,5.217,5.217,0,0,0,7.18-1.258a2.282,2.282,0,0,0,1.047-.633V-4.445H5.594V-5.664H9.719ZM11.609-4.3A4.993,4.993,0,0,1,12.1-6.539,3.643,3.643,0,0,1,13.457-8.07a3.7,3.7,0,0,1,1.988-.539,3.565,3.565,0,0,1,2.793,1.2A4.6,4.6,0,0,1,19.3-4.234v.1a5.036,5.036,0,0,1-.473,2.215A3.589,3.589,0,0,1,17.48-.391a3.743,3.743,0,0,1-2.02.547,3.556,3.556,0,0,1-2.785-1.2A4.575,4.575,0,0,1,11.609-4.2Zm1.453.172a3.616,3.616,0,0,0,.652,2.258,2.088,2.088,0,0,0,1.746.852,2.075,2.075,0,0,0,1.75-.863A3.955,3.955,0,0,0,17.859-4.3a3.61,3.61,0,0,0-.66-2.254,2.1,2.1,0,0,0-1.754-.863,2.075,2.075,0,0,0-1.727.852A3.925,3.925,0,0,0,13.063-4.133ZM20.734-4.3a4.993,4.993,0,0,1,.488-2.234A3.643,3.643,0,0,1,22.582-8.07a3.7,3.7,0,0,1,1.988-.539,3.565,3.565,0,0,1,2.793,1.2,4.6,4.6,0,0,1,1.066,3.18v.1a5.036,5.036,0,0,1-.473,2.215A3.589,3.589,0,0,1,26.605-.391a3.743,3.743,0,0,1-2.02.547,3.556,3.556,0,0,1-2.785-1.2A4.575,4.575,0,0,1,20.734-4.2Zm1.453.172a3.616,3.616,0,0,0,.652,2.258,2.088,2.088,0,0,0,1.746.852,2.075,2.075,0,0,0,1.75-.863A3.955,3.955,0,0,0,26.984-4.3a3.61,3.61,0,0,0-.66-2.254,2.1,2.1,0,0,0-1.754-.863,2.075,2.075,0,0,0-1.727.852A3.925,3.925,0,0,0,22.188-4.133ZM29.9-4.3a4.968,4.968,0,0,1,.914-3.145,2.923,2.923,0,0,1,2.422-1.168,2.908,2.908,0,0,1,2.414,1.094l.07-.937h1.32V-.2a3.439,3.439,0,0,1-.973,2.586,3.589,3.589,0,0,1-2.613.945,4.348,4.348,0,0,1-1.789-.391,3.08,3.08,0,0,1-1.336-1.07L31.078,1a2.826,2.826,0,0,0,2.273,1.148A2.214,2.214,0,0,0,35,1.555a2.269,2.269,0,0,0,.59-1.672V-.844a2.971,2.971,0,0,1-2.367,1,2.887,2.887,0,0,1-2.4-1.2A5.224,5.224,0,0,1,29.9-4.3Zm1.453.164a3.79,3.79,0,0,0,.586,2.246,1.9,1.9,0,0,0,1.641.816,2.117,2.117,0,0,0,2.008-1.242V-6.172a2.142,2.142,0,0,0-1.992-1.211,1.921,1.921,0,0,0-1.648.82A4.128,4.128,0,0,0,31.352-4.133ZM40.789,0H39.344V-12h1.445Zm5.82.156a3.693,3.693,0,0,1-2.8-1.129,4.19,4.19,0,0,1-1.078-3.02v-.266a5.073,5.073,0,0,1,.48-2.246,3.748,3.748,0,0,1,1.344-1.547,3.378,3.378,0,0,1,1.871-.559,3.166,3.166,0,0,1,2.563,1.086,4.7,4.7,0,0,1,.914,3.109v.6H44.18a3,3,0,0,0,.73,2.02,2.3,2.3,0,0,0,1.777.77,2.517,2.517,0,0,0,1.3-.312,3.259,3.259,0,0,0,.93-.828l.883.688A3.55,3.55,0,0,1,46.609.156Zm-.18-7.578a1.928,1.928,0,0,0-1.469.637A3.1,3.1,0,0,0,44.227-5h4.234v-.109a2.753,2.753,0,0,0-.594-1.707A1.815,1.815,0,0,0,46.43-7.422Z" transform="translate(-6131 -7096)" fill="#12263f"/>
      <path id="_43.5_" data-name="43.5%" d="M8.6-5h1.3v2.285H8.6V0H5.643V-2.716H.694L.519-4.526l5.124-8.244V-12.8H8.6ZM3.34-5h2.3V-8.938l-.185.3ZM13.913-7.638h1.4a1.453,1.453,0,0,0,1.661-1.626,1.406,1.406,0,0,0-.4-1.033,1.5,1.5,0,0,0-1.116-.4,1.606,1.606,0,0,0-1.024.343A1.046,1.046,0,0,0,14-9.5H11.039a3.032,3.032,0,0,1,.563-1.8,3.715,3.715,0,0,1,1.56-1.235,5.334,5.334,0,0,1,2.193-.444,5.241,5.241,0,0,1,3.357.976,3.243,3.243,0,0,1,1.222,2.681,2.7,2.7,0,0,1-.505,1.56,3.6,3.6,0,0,1-1.472,1.191,3.441,3.441,0,0,1,1.6,1.121,2.951,2.951,0,0,1,.58,1.859A3.3,3.3,0,0,1,18.817-.853,5.472,5.472,0,0,1,15.354.176,5.675,5.675,0,0,1,13.021-.3a3.656,3.656,0,0,1-1.63-1.327,3.45,3.45,0,0,1-.554-1.929h2.979a1.334,1.334,0,0,0,.475,1.02,1.676,1.676,0,0,0,1.169.431,1.755,1.755,0,0,0,1.248-.435,1.454,1.454,0,0,0,.466-1.112,1.7,1.7,0,0,0-.483-1.371,2.021,2.021,0,0,0-1.336-.4H13.913Zm9.6,4.764a1.686,1.686,0,0,1,1.169.417,1.37,1.37,0,0,1,.466,1.068A1.37,1.37,0,0,1,24.68-.321,1.686,1.686,0,0,1,23.511.1a1.672,1.672,0,0,1-1.173-.422,1.379,1.379,0,0,1-.461-1.063,1.379,1.379,0,0,1,.461-1.063A1.672,1.672,0,0,1,23.511-2.874Zm3.735-3.384.782-6.539h7.479v2.3H30.437l-.29,2.54a3.5,3.5,0,0,1,.831-.325,3.805,3.805,0,0,1,1.006-.141,3.754,3.754,0,0,1,2.931,1.129,4.549,4.549,0,0,1,1.024,3.168,4.541,4.541,0,0,1-.549,2.228A3.776,3.776,0,0,1,33.847-.36,4.87,4.87,0,0,1,31.5.176a5.236,5.236,0,0,1-2.259-.5,4.053,4.053,0,0,1-1.652-1.362A3.312,3.312,0,0,1,27-3.639h2.971a1.685,1.685,0,0,0,.448,1.116,1.421,1.421,0,0,0,1.063.413q1.494,0,1.494-2.215,0-2.048-1.828-2.048A1.823,1.823,0,0,0,29.6-5.7ZM37.5-10.336a2.512,2.512,0,0,1,.773-1.916,2.9,2.9,0,0,1,2.074-.729,2.9,2.9,0,0,1,2.083.725,2.578,2.578,0,0,1,.765,1.964v.633a2.5,2.5,0,0,1-.765,1.907,2.889,2.889,0,0,1-2.065.721,2.968,2.968,0,0,1-2.079-.716A2.524,2.524,0,0,1,37.5-9.712Zm1.907.677a1.074,1.074,0,0,0,.255.743.894.894,0,0,0,.7.286q.923,0,.923-1.178v-.527a1.132,1.132,0,0,0-.246-.751.855.855,0,0,0-.694-.294.873.873,0,0,0-.686.286,1.126,1.126,0,0,0-.255.778Zm4.175,6.521a2.487,2.487,0,0,1,.778-1.916,2.924,2.924,0,0,1,2.07-.721,2.956,2.956,0,0,1,2.083.712,2.565,2.565,0,0,1,.773,1.986v.615a2.509,2.509,0,0,1-.765,1.916A2.9,2.9,0,0,1,46.45.176a2.968,2.968,0,0,1-2.079-.716A2.524,2.524,0,0,1,43.585-2.5Zm1.9.677a1.05,1.05,0,0,0,.281.725.889.889,0,0,0,.686.312.81.81,0,0,0,.923-.809l.009-.905a1.086,1.086,0,0,0-.255-.751.883.883,0,0,0-.694-.286.89.89,0,0,0-.677.268,1.072,1.072,0,0,0-.272.725Zm-4.553,1.5-1.38-.694,6.249-10,1.38.694Z" transform="translate(-5908 -6925)" fill="#12263f"/>
      <path id="Youtube" d="M4.789-5.664l2.969-5.711h1.7L5.539-4.242V0h-1.5V-4.242L.117-11.375H1.836ZM9.813-4.3A4.993,4.993,0,0,1,10.3-6.539,3.643,3.643,0,0,1,11.66-8.07a3.7,3.7,0,0,1,1.988-.539,3.565,3.565,0,0,1,2.793,1.2,4.6,4.6,0,0,1,1.066,3.18v.1a5.036,5.036,0,0,1-.473,2.215A3.589,3.589,0,0,1,15.684-.391a3.743,3.743,0,0,1-2.02.547,3.556,3.556,0,0,1-2.785-1.2A4.575,4.575,0,0,1,9.813-4.2Zm1.453.172a3.616,3.616,0,0,0,.652,2.258,2.088,2.088,0,0,0,1.746.852,2.075,2.075,0,0,0,1.75-.863A3.955,3.955,0,0,0,16.063-4.3a3.61,3.61,0,0,0-.66-2.254,2.1,2.1,0,0,0-1.754-.863,2.075,2.075,0,0,0-1.727.852A3.925,3.925,0,0,0,11.266-4.133Zm13.273,3.3a3.07,3.07,0,0,1-2.477.992A2.628,2.628,0,0,1,20-.629a3.4,3.4,0,0,1-.715-2.324v-5.5h1.445v5.461q0,1.922,1.563,1.922A2.163,2.163,0,0,0,24.5-2.3V-8.453h1.445V0H24.57ZM30.1-10.5v2.047H31.68v1.117H30.1v5.242a1.171,1.171,0,0,0,.211.762.888.888,0,0,0,.719.254,3.5,3.5,0,0,0,.688-.094V0a4.19,4.19,0,0,1-1.109.156A1.8,1.8,0,0,1,29.148-.43a2.517,2.517,0,0,1-.492-1.664V-7.336H27.117V-8.453h1.539V-10.5ZM38.586-.836a3.07,3.07,0,0,1-2.477.992,2.628,2.628,0,0,1-2.059-.785,3.4,3.4,0,0,1-.715-2.324v-5.5h1.445v5.461q0,1.922,1.563,1.922a2.163,2.163,0,0,0,2.2-1.234V-8.453h1.445V0H38.617Zm10.758-3.3a5.026,5.026,0,0,1-.891,3.113A2.846,2.846,0,0,1,46.063.156,2.947,2.947,0,0,1,43.586-.977L43.516,0H42.188V-12h1.445v4.477a2.93,2.93,0,0,1,2.414-1.086,2.863,2.863,0,0,1,2.418,1.164,5.177,5.177,0,0,1,.879,3.188ZM47.9-4.3a3.906,3.906,0,0,0-.57-2.281,1.888,1.888,0,0,0-1.641-.8,2.122,2.122,0,0,0-2.055,1.328V-2.4A2.181,2.181,0,0,0,45.7-1.07a1.878,1.878,0,0,0,1.617-.8A4.153,4.153,0,0,0,47.9-4.3ZM54.672.156a3.693,3.693,0,0,1-2.8-1.129A4.19,4.19,0,0,1,50.8-3.992v-.266a5.073,5.073,0,0,1,.48-2.246,3.748,3.748,0,0,1,1.344-1.547,3.378,3.378,0,0,1,1.871-.559,3.166,3.166,0,0,1,2.563,1.086,4.7,4.7,0,0,1,.914,3.109v.6H52.242a3,3,0,0,0,.73,2.02,2.3,2.3,0,0,0,1.777.77,2.517,2.517,0,0,0,1.3-.312,3.259,3.259,0,0,0,.93-.828l.883.688A3.55,3.55,0,0,1,54.672.156Zm-.18-7.578a1.928,1.928,0,0,0-1.469.637A3.1,3.1,0,0,0,52.289-5h4.234v-.109a2.753,2.753,0,0,0-.594-1.707A1.815,1.815,0,0,0,54.492-7.422Z" transform="translate(-5908 -6904)" fill="#12263f"/>
      <path id="_30.3_" data-name="30.3%" d="M3.489-7.638h1.4A1.453,1.453,0,0,0,6.548-9.264a1.406,1.406,0,0,0-.4-1.033,1.5,1.5,0,0,0-1.116-.4,1.606,1.606,0,0,0-1.024.343,1.046,1.046,0,0,0-.435.853H.615a3.032,3.032,0,0,1,.563-1.8,3.715,3.715,0,0,1,1.56-1.235,5.334,5.334,0,0,1,2.193-.444,5.241,5.241,0,0,1,3.357.976A3.243,3.243,0,0,1,9.51-9.325,2.7,2.7,0,0,1,9-7.765,3.6,3.6,0,0,1,7.532-6.574a3.441,3.441,0,0,1,1.6,1.121,2.951,2.951,0,0,1,.58,1.859A3.3,3.3,0,0,1,8.394-.853,5.472,5.472,0,0,1,4.931.176,5.675,5.675,0,0,1,2.6-.3,3.656,3.656,0,0,1,.967-1.63,3.45,3.45,0,0,1,.413-3.56H3.393a1.334,1.334,0,0,0,.475,1.02,1.676,1.676,0,0,0,1.169.431,1.755,1.755,0,0,0,1.248-.435A1.454,1.454,0,0,0,6.75-3.656a1.7,1.7,0,0,0-.483-1.371,2.021,2.021,0,0,0-1.336-.4H3.489Zm16.6,2.408a6.11,6.11,0,0,1-1.165,4A4.024,4.024,0,0,1,15.645.176a4.046,4.046,0,0,1-3.3-1.415,6.1,6.1,0,0,1-1.169-3.99V-7.567a6.11,6.11,0,0,1,1.165-4,4.034,4.034,0,0,1,3.292-1.406,4.036,4.036,0,0,1,3.3,1.415,6.116,6.116,0,0,1,1.169,4ZM17.13-7.945a4.564,4.564,0,0,0-.36-2.061,1.2,1.2,0,0,0-1.143-.681,1.176,1.176,0,0,0-1.112.633,4.3,4.3,0,0,0-.374,1.916v3.27a4.6,4.6,0,0,0,.36,2.1,1.209,1.209,0,0,0,1.143.664,1.193,1.193,0,0,0,1.116-.646,4.39,4.39,0,0,0,.369-2.026Zm6.381,5.071a1.686,1.686,0,0,1,1.169.417,1.37,1.37,0,0,1,.466,1.068A1.37,1.37,0,0,1,24.68-.321,1.686,1.686,0,0,1,23.511.1a1.672,1.672,0,0,1-1.173-.422,1.379,1.379,0,0,1-.461-1.063,1.379,1.379,0,0,1,.461-1.063A1.672,1.672,0,0,1,23.511-2.874Zm6.267-4.764h1.4a1.453,1.453,0,0,0,1.661-1.626,1.406,1.406,0,0,0-.4-1.033,1.5,1.5,0,0,0-1.116-.4,1.606,1.606,0,0,0-1.024.343,1.046,1.046,0,0,0-.435.853H26.9a3.032,3.032,0,0,1,.563-1.8,3.715,3.715,0,0,1,1.56-1.235,5.334,5.334,0,0,1,2.193-.444,5.241,5.241,0,0,1,3.357.976A3.243,3.243,0,0,1,35.8-9.325a2.7,2.7,0,0,1-.505,1.56A3.6,3.6,0,0,1,33.82-6.574a3.441,3.441,0,0,1,1.6,1.121A2.951,2.951,0,0,1,36-3.595,3.3,3.3,0,0,1,34.682-.853,5.472,5.472,0,0,1,31.219.176,5.675,5.675,0,0,1,28.885-.3a3.656,3.656,0,0,1-1.63-1.327A3.45,3.45,0,0,1,26.7-3.56h2.979a1.334,1.334,0,0,0,.475,1.02,1.676,1.676,0,0,0,1.169.431,1.755,1.755,0,0,0,1.248-.435,1.454,1.454,0,0,0,.466-1.112,1.7,1.7,0,0,0-.483-1.371,2.021,2.021,0,0,0-1.336-.4H29.777Zm7.726-2.7a2.512,2.512,0,0,1,.773-1.916,2.9,2.9,0,0,1,2.074-.729,2.9,2.9,0,0,1,2.083.725,2.578,2.578,0,0,1,.765,1.964v.633a2.5,2.5,0,0,1-.765,1.907,2.889,2.889,0,0,1-2.065.721,2.968,2.968,0,0,1-2.079-.716A2.524,2.524,0,0,1,37.5-9.712Zm1.907.677a1.074,1.074,0,0,0,.255.743.894.894,0,0,0,.7.286q.923,0,.923-1.178v-.527a1.132,1.132,0,0,0-.246-.751.855.855,0,0,0-.694-.294.873.873,0,0,0-.686.286,1.126,1.126,0,0,0-.255.778Zm4.175,6.521a2.487,2.487,0,0,1,.778-1.916,2.924,2.924,0,0,1,2.07-.721,2.956,2.956,0,0,1,2.083.712,2.565,2.565,0,0,1,.773,1.986v.615a2.509,2.509,0,0,1-.765,1.916A2.9,2.9,0,0,1,46.45.176a2.968,2.968,0,0,1-2.079-.716A2.524,2.524,0,0,1,43.585-2.5Zm1.9.677a1.05,1.05,0,0,0,.281.725.889.889,0,0,0,.686.312.81.81,0,0,0,.923-.809l.009-.905a1.086,1.086,0,0,0-.255-.751.883.883,0,0,0-.694-.286.89.89,0,0,0-.677.268,1.072,1.072,0,0,0-.272.725Zm-4.553,1.5-1.38-.694,6.249-10,1.38.694Z" transform="translate(-6323 -6693)" fill="#12263f"/>
      <path id="RTMP" d="M5.492-4.6H2.82V0H1.313V-11.375H5.078a4.457,4.457,0,0,1,2.957.875A3.148,3.148,0,0,1,9.07-7.953,3.062,3.062,0,0,1,8.5-6.1a3.428,3.428,0,0,1-1.6,1.18L9.57-.094V0H7.961ZM2.82-5.828h2.3A2.6,2.6,0,0,0,6.9-6.406a1.953,1.953,0,0,0,.66-1.547A2.057,2.057,0,0,0,6.934-9.57a2.666,2.666,0,0,0-1.816-.57H2.82Zm15.586-4.312H14.75V0H13.258V-10.141H9.609v-1.234h8.8Zm3.625-1.234L25.75-2.094l3.719-9.281h1.945V0h-1.5V-4.43l.141-4.781L26.32,0H25.172L21.445-9.187l.148,4.758V0h-1.5V-11.375ZM35.563-4.453V0h-1.5V-11.375h4.2a4.215,4.215,0,0,1,2.926.953A3.231,3.231,0,0,1,42.242-7.9a3.189,3.189,0,0,1-1.035,2.551,4.4,4.4,0,0,1-2.965.895Zm0-1.227h2.7A2.7,2.7,0,0,0,40.1-6.246a2.069,2.069,0,0,0,.641-1.637A2.138,2.138,0,0,0,40.1-9.508a2.528,2.528,0,0,0-1.758-.633H35.563Z" transform="translate(-6316 -6672)" fill="#12263f"/>
      <path id="Trazado_802364" data-name="Trazado 802364" d="M-6357-6925.539v31.449h38.688" fill="none" stroke="#707070" stroke-width="1"/>
      <path id="Trazado_802365" data-name="Trazado 802365" d="M-6266-7043.1v21.2h20.617" fill="none" stroke="#707070" stroke-width="1"/>
      <path id="Trazado_802366" data-name="Trazado 802366" d="M-6189-7081.5v29.2" fill="none" stroke="#707070" stroke-width="1"/>
      <path id="Trazado_802367" data-name="Trazado 802367" d="M-6136.367-7101.5h-12.277v41.348" fill="none" stroke="#707070" stroke-width="1"/>
      <path id="Trazado_802368" data-name="Trazado 802368" d="M-5892-6894.09v28.355h-41.277" fill="none" stroke="#707070" stroke-width="1"/>
      <path id="Trazado_802369" data-name="Trazado 802369" d="M-6259-6677.5h29.9v-25.828" transform="translate(0 -1)" fill="none" stroke="#707070" stroke-width="1"/>
      <path id="Protocol_Overview" data-name="Protocol Overview" d="M3.551-4.509,2.76,0H.185L2.408-12.8l4.482.009a4.484,4.484,0,0,1,3.261,1.151,3.57,3.57,0,0,1,1.037,3.006A4.041,4.041,0,0,1,9.62-5.625,5.709,5.709,0,0,1,5.977-4.5Zm.36-2.136,2.145.018a2.711,2.711,0,0,0,1.723-.536A2.157,2.157,0,0,0,8.6-8.613,1.852,1.852,0,0,0,8.3-10.072a1.6,1.6,0,0,0-1.261-.58l-2.426-.009Zm13.975-.483a5.117,5.117,0,0,0-.835-.088,2.4,2.4,0,0,0-2.1.993L13.852,0H11.373l1.652-9.51,2.329-.009-.229,1.16A2.615,2.615,0,0,1,17.341-9.7a3.615,3.615,0,0,1,.861.123Zm5.071-2.558a3.814,3.814,0,0,1,2.167.646,3.638,3.638,0,0,1,1.336,1.731,5.357,5.357,0,0,1,.3,2.448,5.786,5.786,0,0,1-1.578,3.669,4.455,4.455,0,0,1-3.4,1.367,3.8,3.8,0,0,1-2.145-.637A3.624,3.624,0,0,1,18.308-2.18,5.239,5.239,0,0,1,18-4.605,5.957,5.957,0,0,1,19.6-8.35,4.363,4.363,0,0,1,22.957-9.686ZM20.452-3.7a2.2,2.2,0,0,0,.4,1.332,1.314,1.314,0,0,0,1.063.505A1.926,1.926,0,0,0,23.7-2.914a5.242,5.242,0,0,0,.606-2.852A2.393,2.393,0,0,0,23.9-7.115a1.292,1.292,0,0,0-1.068-.523A1.929,1.929,0,0,0,21.063-6.6,5.188,5.188,0,0,0,20.452-3.7ZM32.5-11.848,32.089-9.51h1.582l-.325,1.863H31.764l-.809,4.764a1.211,1.211,0,0,0,.07.686q.123.237.6.255.141.009.756-.044L32.2-.044a4.169,4.169,0,0,1-1.424.2A2.234,2.234,0,0,1,28.96-.606a2.763,2.763,0,0,1-.492-2.021l.817-5.019H27.94l.325-1.863H29.61l.4-2.338Zm6.135,2.162A3.814,3.814,0,0,1,40.8-9.04a3.638,3.638,0,0,1,1.336,1.731,5.357,5.357,0,0,1,.3,2.448,5.786,5.786,0,0,1-1.578,3.669,4.455,4.455,0,0,1-3.4,1.367,3.8,3.8,0,0,1-2.145-.637A3.624,3.624,0,0,1,33.987-2.18a5.239,5.239,0,0,1-.308-2.426,5.957,5.957,0,0,1,1.6-3.744A4.363,4.363,0,0,1,38.637-9.686ZM36.132-3.7a2.2,2.2,0,0,0,.4,1.332,1.314,1.314,0,0,0,1.063.505,1.926,1.926,0,0,0,1.793-1.05,5.242,5.242,0,0,0,.606-2.852,2.393,2.393,0,0,0-.409-1.349,1.292,1.292,0,0,0-1.068-.523A1.929,1.929,0,0,0,36.743-6.6,5.188,5.188,0,0,0,36.132-3.7ZM47.32-1.863a1.628,1.628,0,0,0,1.143-.374,1.836,1.836,0,0,0,.6-1.042l2.329-.009a3.416,3.416,0,0,1-.628,1.8A3.818,3.818,0,0,1,49.25-.237a4.327,4.327,0,0,1-1.991.422,3.514,3.514,0,0,1-2.742-1.2,4.461,4.461,0,0,1-.976-3.111l.026-.483.009-.1A5.945,5.945,0,0,1,45.141-8.38a4.231,4.231,0,0,1,3.278-1.305,3.428,3.428,0,0,1,2.553,1.05A3.71,3.71,0,0,1,51.9-5.959H49.588a1.947,1.947,0,0,0-.334-1.2,1.269,1.269,0,0,0-1-.475Q46.477-7.69,46.1-5.045A8.755,8.755,0,0,0,46-3.428Q46.09-1.89,47.32-1.863ZM57.788-9.686a3.814,3.814,0,0,1,2.167.646,3.638,3.638,0,0,1,1.336,1.731,5.357,5.357,0,0,1,.3,2.448,5.786,5.786,0,0,1-1.578,3.669,4.455,4.455,0,0,1-3.4,1.367,3.8,3.8,0,0,1-2.145-.637A3.624,3.624,0,0,1,53.139-2.18a5.239,5.239,0,0,1-.308-2.426,5.957,5.957,0,0,1,1.6-3.744A4.363,4.363,0,0,1,57.788-9.686ZM55.283-3.7a2.2,2.2,0,0,0,.4,1.332,1.314,1.314,0,0,0,1.063.505,1.926,1.926,0,0,0,1.793-1.05,5.242,5.242,0,0,0,.606-2.852,2.393,2.393,0,0,0-.409-1.349,1.292,1.292,0,0,0-1.068-.523A1.929,1.929,0,0,0,55.894-6.6,5.188,5.188,0,0,0,55.283-3.7ZM64.925,0h-2.5l2.347-13.5h2.487ZM76.764.176a4.509,4.509,0,0,1-2.246-.6A4.064,4.064,0,0,1,72.98-2.087a6.152,6.152,0,0,1-.655-2.492,10.016,10.016,0,0,1,.308-3.076,8.209,8.209,0,0,1,1.3-2.874,5.913,5.913,0,0,1,2.1-1.854,5.449,5.449,0,0,1,2.615-.589,4.462,4.462,0,0,1,2.259.611,4.035,4.035,0,0,1,1.521,1.679A6.223,6.223,0,0,1,83.065-8.2a10.337,10.337,0,0,1-.334,3.182,8.074,8.074,0,0,1-1.31,2.83A5.868,5.868,0,0,1,79.343-.4,5.434,5.434,0,0,1,76.764.176ZM80.411-6.75l.07-.835a4.079,4.079,0,0,0-.417-2.373A1.763,1.763,0,0,0,78.53-10.8a2.782,2.782,0,0,0-2.553,1.424,8.387,8.387,0,0,0-1.068,4.131,4.232,4.232,0,0,0,.413,2.4,1.758,1.758,0,0,0,1.556.875,2.638,2.638,0,0,0,2.285-1.077A6.514,6.514,0,0,0,80.35-6.275Zm7.2,3.612L90.316-9.51h2.672L88.392,0H86.019L84.393-9.51h2.514ZM97.04.176a4.137,4.137,0,0,1-2.21-.611,3.7,3.7,0,0,1-1.437-1.652A4.605,4.605,0,0,1,93.023-4.4l.026-.352A6.148,6.148,0,0,1,93.858-7.3,4.884,4.884,0,0,1,95.6-9.092a4.306,4.306,0,0,1,2.355-.593,3.292,3.292,0,0,1,2.782,1.349,4.619,4.619,0,0,1,.716,3.327l-.141,1.081H95.484a2.041,2.041,0,0,0,.448,1.477,1.711,1.711,0,0,0,1.318.571,3.051,3.051,0,0,0,2.373-1.046l1.134,1.406A3.527,3.527,0,0,1,99.211-.259,5.059,5.059,0,0,1,97.04.176Zm.791-7.813a1.761,1.761,0,0,0-1.217.431,3.784,3.784,0,0,0-.954,1.556h3.41l.053-.229a2.33,2.33,0,0,0,.009-.668,1.276,1.276,0,0,0-.431-.8A1.35,1.35,0,0,0,97.831-7.638Zm10.731.51a5.117,5.117,0,0,0-.835-.088,2.4,2.4,0,0,0-2.1.993L104.528,0H102.05L103.7-9.51l2.329-.009-.229,1.16A2.615,2.615,0,0,1,108.018-9.7a3.615,3.615,0,0,1,.861.123Zm4.1,3.99,2.707-6.372h2.672L113.449,0h-2.373L109.45-9.51h2.514ZM120.2,0h-2.5l1.652-9.51h2.5Zm-.554-11.927a1.238,1.238,0,0,1,.387-.976,1.36,1.36,0,0,1,.976-.387,1.367,1.367,0,0,1,.976.343,1.233,1.233,0,0,1,.431.932,1.273,1.273,0,0,1-.365.949,1.367,1.367,0,0,1-1,.422,1.39,1.39,0,0,1-.971-.334A1.227,1.227,0,0,1,119.646-11.927Zm7.172,12.1a4.137,4.137,0,0,1-2.21-.611,3.7,3.7,0,0,1-1.437-1.652A4.605,4.605,0,0,1,122.8-4.4l.026-.352a6.148,6.148,0,0,1,.809-2.549,4.884,4.884,0,0,1,1.74-1.789,4.306,4.306,0,0,1,2.355-.593,3.292,3.292,0,0,1,2.782,1.349,4.619,4.619,0,0,1,.716,3.327l-.141,1.081h-5.827a2.041,2.041,0,0,0,.448,1.477,1.711,1.711,0,0,0,1.318.571A3.051,3.051,0,0,0,129.4-2.927l1.134,1.406a3.527,3.527,0,0,1-1.547,1.261A5.059,5.059,0,0,1,126.817.176Zm.791-7.813a1.761,1.761,0,0,0-1.217.431,3.784,3.784,0,0,0-.954,1.556h3.41l.053-.229a2.33,2.33,0,0,0,.009-.668,1.276,1.276,0,0,0-.431-.8A1.35,1.35,0,0,0,127.608-7.638Zm12.806,4.175,2.259-6.047h2.47l-4,9.51h-2.074l-.7-5.95L135.589,0h-2.074l-.7-9.51h2.32l.149,5.985L138-9.51h1.793Z" transform="translate(-6444 -7136)" fill="#12263f"/>
    </g>
  </g>
</svg>
