<svg xmlns="http://www.w3.org/2000/svg" width="420" height="415.229" viewBox="0 0 420 415.229">
  <g id="Grupo_947556" data-name="Grupo 947556" transform="translate(-895 -8528.284)">
    <rect id="Rectángulo_298496" data-name="Rectángulo 298496" width="420" height="415.228" transform="translate(895 8528.284)" fill="#f6f6f6"/>
    <path id="Trazado_629124" data-name="Trazado 629124" d="M94.307-52.616q0,26.4-10.925,40.38T51.393,1.748q-20.8,0-31.814-13.722T8.3-51.305V-74.729q0-26.658,11.056-40.467t31.858-13.81q20.8,0,31.814,13.678T94.307-76.04ZM69.048-78.37q0-15.836-4.326-23.054t-13.5-7.218q-8.915,0-13.154,6.868T33.563-80.3v30.97q0,15.573,4.239,23.14t13.591,7.568q9.265,0,13.373-7.261T69.048-48.1ZM172.707,0H147.448V-97.366l-30.154,9.352v-20.54L170-127.433h2.709Z" transform="translate(1110 8678.861)" fill="#12263f" opacity="0.089"/>
  </g>
</svg>
