<svg xmlns="http://www.w3.org/2000/svg" width="1240" height="295.99" viewBox="0 0 1240 295.99">
  <g id="Grupo_947556" data-name="Grupo 947556" transform="translate(-180 -11278.01)">
    <rect id="Rectángulo_341935" data-name="Rectángulo 341935" width="1240" height="274.194" rx="12" transform="translate(180 11278.01)" fill="#f2f5fe"/>
    <g id="Grupo_947530" data-name="Grupo 947530" transform="translate(1335 11547.934) rotate(-45)">
      <path id="Trazado_597847" data-name="Trazado 597847" d="M0,6.088A6.088,6.088,0,1,0,6.088,0,6.088,6.088,0,0,0,0,6.088" transform="translate(68.897 0)" fill="#0f1e52"/>
      <path id="Trazado_599892" data-name="Trazado 599892" d="M0,6.088A6.088,6.088,0,1,0,6.088,0,6.088,6.088,0,0,0,0,6.088" transform="translate(54.958 24.688)" fill="#0f1e52"/>
      <path id="Trazado_597848" data-name="Trazado 597848" d="M0,6.088A6.088,6.088,0,1,0,6.088,0,6.088,6.088,0,0,0,0,6.088" transform="translate(41.418 0)" fill="#0f1e52"/>
      <path id="Trazado_599891" data-name="Trazado 599891" d="M0,6.088A6.088,6.088,0,1,0,6.088,0,6.088,6.088,0,0,0,0,6.088" transform="translate(27.478 24.688)" fill="#0f1e52"/>
      <path id="Trazado_599886" data-name="Trazado 599886" d="M0,6.088A6.088,6.088,0,1,0,6.088,0,6.088,6.088,0,0,0,0,6.088" transform="translate(13.94 0)" fill="#0f1e52"/>
      <path id="Trazado_599890" data-name="Trazado 599890" d="M0,6.088A6.088,6.088,0,1,0,6.088,0,6.088,6.088,0,0,0,0,6.088" transform="translate(0 24.689)" fill="#0f1e52"/>
    </g>
  </g>
</svg>
