<svg xmlns="http://www.w3.org/2000/svg" xmlns:xlink="http://www.w3.org/1999/xlink" width="103" height="103" viewBox="0 0 103 103">
  <defs>
    <filter id="Trazado_626345" x="0" y="0" width="103" height="103" filterUnits="userSpaceOnUse">
      <feOffset dy="3" input="SourceAlpha"/>
      <feGaussianBlur stdDeviation="3" result="blur"/>
      <feFlood flood-opacity="0.161"/>
      <feComposite operator="in" in2="blur"/>
      <feComposite in="SourceGraphic"/>
    </filter>
  </defs>
  <g id="Grupo_946571" data-name="Grupo 946571" transform="translate(-257.349 -2246.997)">
    <g transform="matrix(1, 0, 0, 1, 257.35, 2247)" filter="url(#Trazado_626345)">
      <path id="Trazado_626345-2" data-name="Trazado 626345" d="M42.5,0A42.5,42.5,0,1,1,0,42.5,42.5,42.5,0,0,1,42.5,0Z" transform="translate(9 6)" fill="#f3c035"/>
    </g>
    <g id="GQFWoP" transform="translate(214.084 2108.919)">
      <g id="Grupo_946596" data-name="Grupo 946596" transform="translate(50.916 141.095)">
        <path id="Trazado_626404" data-name="Trazado 626404" d="M121.112,232.062H51.82a2,2,0,0,1-.9-1.857q.028-43.611.016-87.221c0-1.474.415-1.888,1.891-1.888h60.664c1.531,0,1.939.406,1.939,1.934q0,13.812-.014,27.623c0,.661.118.9.846.883,2.427-.053,4.855-.035,7.283-.015a3.413,3.413,0,0,1,3.6,3.628q.011,3.153,0,6.306c0,1.21-.525,1.726-1.714,1.749-.676.013-1.6-.214-1.963.135-.43.412-.056,1.342-.145,2.037-.092.716.171.987.878,1.177q13.314,3.581,17.02,16.884c.278,1,.456,2.027.68,3.041v5.152c-.352.374-.237.876-.327,1.312-1.926,9.261-7.4,15.312-16.381,18.238C123.857,231.615,122.453,231.683,121.112,232.062ZM118.8,183.231c-1.6-.083-1.6-.083-1.6,1.2,0,1.527,0,1.527,1.6,1.417,1.63.1,1.63.1,1.63-1.426C120.426,183.148,120.426,183.148,118.8,183.231Zm.017-8.762c-1.591-.15-3.186-.034-4.779-.063-.48-.009-.69.264-.69.726,0,1.568.014,3.136-.01,4.7-.007.462.194.532.585.527,1.626-.025,3.252-.027,4.878-.037,1.649.009,3.3.007,4.948.036.425.007.557-.134.551-.555-.02-1.532-.018-3.064,0-4.6.005-.566-.248-.8-.8-.79C121.933,174.444,120.373,174.454,118.813,174.469Zm-.747,14.3a.9.9,0,0,0-.716.082,13.38,13.38,0,0,0-1.848.18A20.211,20.211,0,0,0,98.593,208.2a20.265,20.265,0,0,0,20.21,20.988,15.434,15.434,0,0,0,4.643-.513,20.239,20.239,0,0,0,15.383-22.794,20.281,20.281,0,0,0-20.05-17.128Zm-34.8-44.8c-.266-.011-.531-.032-.8-.032-9.267,0-18.535.009-27.8-.02-.743,0-.906.179-.906.912q.032,41.747,0,83.494c0,.733.162.916.906.913,7.165-.032,14.33-.017,21.5-.021,2.368,0,4.736-.021,7.1-.032.177.011.353.032.53.032q11.635,0,23.27,0c.124,0,.295.085.39-.132-.149-.091-.293-.181-.438-.269a23.07,23.07,0,0,1,6.293-42.225c.778-.188,1.2-.412,1.055-1.3-.109-.661.27-1.544-.146-1.961s-1.289-.108-1.961-.125c-1.2-.031-1.756-.536-1.766-1.721q-.028-3.2,0-6.395a3.293,3.293,0,0,1,1.583-2.991.964.964,0,0,0,.519-.986q-.016-13.189.01-26.379c0-.681-.184-.815-.831-.812-6.868.025-13.737.012-20.605.017C88.53,143.941,85.9,143.96,83.262,143.972Z" transform="translate(-50.916 -141.095)" fill="#070808"/>
        <path id="Trazado_626406" data-name="Trazado 626406" d="M232.547,157.024c2.634-.011,5.268-.03,7.9-.032,6.869,0,13.737.008,20.606-.017.648,0,.833.132.831.812q-.04,13.189-.01,26.379a.964.964,0,0,1-.519.986,3.293,3.293,0,0,0-1.583,2.991q-.025,3.2,0,6.395c.01,1.185.568,1.69,1.766,1.721.672.017,1.546-.292,1.961.125s.037,1.3.146,1.961c.146.885-.277,1.109-1.055,1.3a23.07,23.07,0,0,0-6.293,42.225c.145.088.29.177.438.269-.1.217-.266.132-.39.132q-11.635.007-23.27,0c-.177,0-.354-.021-.53-.032Zm12.824,13.469q-4.44,0-8.88,0c-1.2,0-1.825.51-1.806,1.452.018.9.637,1.389,1.778,1.39q8.88,0,17.76,0c1.123,0,1.766-.515,1.776-1.406s-.642-1.434-1.749-1.435Q249.811,170.488,245.371,170.492Zm-.026,22.926c2.989,0,5.979-.007,8.968.006a1.533,1.533,0,0,0,1.452-.662,1.313,1.313,0,0,0,.055-1.427,1.589,1.589,0,0,0-1.572-.77q-8.88.015-17.759.007c-1.191,0-1.825.519-1.8,1.46.02.9.631,1.384,1.78,1.386Q240.906,193.423,245.346,193.419Zm-.091-27.717c3.019,0,6.038-.007,9.057.006a1.533,1.533,0,0,0,1.454-.659,1.315,1.315,0,0,0,.057-1.427,1.587,1.587,0,0,0-1.571-.773q-8.88.014-17.759.007c-1.193,0-1.826.518-1.807,1.459.018.9.629,1.386,1.778,1.387Q240.86,165.707,245.255,165.7Zm-2.826,35.35c2.013,0,4.025,0,6.038,0,1.037,0,1.671-.554,1.67-1.423s-.635-1.415-1.675-1.417q-6.037-.007-12.075,0c-1.07,0-1.677.5-1.7,1.377-.025.918.6,1.46,1.706,1.463C238.4,201.056,240.416,201.052,242.429,201.052Zm-3.893,20.081c.768,0,1.536.012,2.3,0a1.422,1.422,0,1,0,.04-2.838q-2.348-.028-4.7,0a1.423,1.423,0,1,0,.049,2.838C237,221.147,237.768,221.134,238.536,221.133Zm.082,4.792c-.8,0-1.6-.011-2.393,0a1.421,1.421,0,1,0-.035,2.835q2.348.027,4.7,0a1.421,1.421,0,1,0-.053-2.836C240.1,225.915,239.356,225.926,238.618,225.926Z" transform="translate(-200.201 -154.147)" fill="#b7c0c4"/>
        <path id="Trazado_626407" data-name="Trazado 626407" d="M96.375,157.007v85.214c-2.368.011-4.736.03-7.1.032-7.165,0-14.33-.011-21.5.021-.744,0-.906-.18-.906-.913q.032-41.747,0-83.494c0-.733.163-.915.906-.912,9.267.029,18.535.019,27.8.02C95.843,156.975,96.109,157,96.375,157.007ZM90.714,223.99q-.006-1.423-.012-2.846c1.014-.256,1.5-.817,1.407-1.611-.1-.81-.71-1.26-1.743-1.26q-7.951,0-15.9,0c-1.187,0-1.71.537-1.711,1.746q-.007,7.329,0,14.657c0,1.152.536,1.709,1.662,1.71q8.039.011,16.079,0a1.455,1.455,0,0,0,1.619-1.657,49.534,49.534,0,0,0-.032-5.149c-.208-2.095.289-3.746,2.156-4.857a.736.736,0,0,0,.133-.117,1.444,1.444,0,0,0,.209-2.124,1.425,1.425,0,0,0-2.13,0C91.866,222.977,91.292,223.487,90.714,223.99Zm-.021-58.277c1.017-.248,1.51-.805,1.416-1.6-.1-.814-.706-1.271-1.735-1.272q-7.95-.005-15.9,0c-1.158,0-1.717.532-1.719,1.651q-.012,7.417,0,14.834a1.458,1.458,0,0,0,1.65,1.629q8.039.01,16.078,0a1.454,1.454,0,0,0,1.63-1.645,49.925,49.925,0,0,0-.031-5.149c-.2-2.09.27-3.751,2.149-4.858a1,1,0,0,0,.195-.181,1.434,1.434,0,1,0-1.967-2.078c-.585.5-1.158,1-1.736,1.508Zm.012,30.567-.007-2.851c1.014-.253,1.505-.812,1.411-1.605-.1-.812-.707-1.267-1.736-1.268q-7.943,0-15.886,0c-1.2,0-1.733.53-1.734,1.722q-.007,7.322,0,14.643c0,1.206.527,1.749,1.708,1.75q7.987.008,15.974,0a1.474,1.474,0,0,0,1.678-1.685,51.357,51.357,0,0,0-.033-5.232c-.2-2.037.288-3.628,2.107-4.694a1.049,1.049,0,0,0,.2-.179,1.439,1.439,0,1,0-1.943-2.105C91.859,195.271,91.284,195.778,90.706,196.28Z" transform="translate(-64.029 -154.13)" fill="#e7eaed"/>
        <path id="Trazado_626408" data-name="Trazado 626408" d="M431.944,408.727a20.281,20.281,0,0,1,20.05,17.128,20.239,20.239,0,0,1-15.383,22.794,15.434,15.434,0,0,1-4.643.513q-.017-1.557-.033-3.114a25.312,25.312,0,0,0,3.341-.329,17.109,17.109,0,0,0,13.616-14.458,16.622,16.622,0,0,0-4-13.465,16.841,16.841,0,0,0-12.926-5.949Z" transform="translate(-364.081 -361.065)" fill="#448cca"/>
        <path id="Trazado_626409" data-name="Trazado 626409" d="M338.759,408.727q.01,1.561.019,3.121a18.08,18.08,0,0,0-4.29.564,17.106,17.106,0,0,0-8.889,27.378,16.837,16.837,0,0,0,13.151,6.259q.017,1.557.033,3.114a20.265,20.265,0,0,1-20.21-20.988A20.211,20.211,0,0,1,335.482,409a13.381,13.381,0,0,1,1.848-.18.8.8,0,0,0,.717-.082Z" transform="translate(-270.897 -361.066)" fill="#73cae8"/>
        <path id="Trazado_626410" data-name="Trazado 626410" d="M406.87,334c-1.626.01-3.252.013-4.878.037-.391.006-.593-.065-.585-.527.025-1.567.011-3.135.01-4.7,0-.462.21-.735.69-.726,1.593.029,3.188-.087,4.779.063Z" transform="translate(-338.99 -294.765)" fill="#dfe2e4"/>
        <path id="Trazado_626411" data-name="Trazado 626411" d="M432.086,334.131l.017-5.856c1.56-.016,3.12-.025,4.679-.049.551-.008.8.224.8.79-.014,1.532-.017,3.064,0,4.6.006.421-.126.562-.551.555C435.385,334.138,433.735,334.14,432.086,334.131Z" transform="translate(-364.205 -294.901)" fill="#b7c0c4"/>
        <path id="Trazado_626412" data-name="Trazado 626412" d="M432.082,377.563c1.631-.082,1.631-.082,1.631,1.189,0,1.529,0,1.529-1.63,1.426Q432.082,378.871,432.082,377.563Z" transform="translate(-364.202 -335.427)" fill="#7e94a0"/>
        <path id="Trazado_626413" data-name="Trazado 626413" d="M424.693,377.562q0,1.308,0,2.615c-1.6.11-1.6.11-1.6-1.417C423.092,377.479,423.092,377.479,424.693,377.562Z" transform="translate(-356.813 -335.426)" fill="#b7c0c4"/>
        <path id="Trazado_626414" data-name="Trazado 626414" d="M424.677,408.637a.8.8,0,0,1-.717.082A.9.9,0,0,1,424.677,408.637Z" transform="translate(-357.526 -360.962)" fill="#448cca"/>
        <path id="Trazado_626415" data-name="Trazado 626415" d="M255.241,232.877q4.44,0,8.88,0c1.107,0,1.759.543,1.749,1.435s-.653,1.406-1.776,1.406q-8.88,0-17.76,0c-1.141,0-1.76-.489-1.778-1.39-.019-.943.608-1.452,1.806-1.452Q250.8,232.874,255.241,232.877Z" transform="translate(-210.07 -216.531)" fill="#070808"/>
        <path id="Trazado_626416" data-name="Trazado 626416" d="M255.214,348.447q-4.44,0-8.88,0c-1.149,0-1.761-.484-1.78-1.386-.02-.941.613-1.46,1.8-1.46q8.88,0,17.759-.007a1.589,1.589,0,0,1,1.572.77,1.313,1.313,0,0,1-.055,1.427,1.533,1.533,0,0,1-1.452.662C261.193,348.44,258.2,348.447,255.214,348.447Z" transform="translate(-210.069 -309.175)" fill="#070808"/>
        <path id="Trazado_626417" data-name="Trazado 626417" d="M255.124,192.811q-4.4,0-8.791,0c-1.149,0-1.76-.485-1.778-1.387-.019-.941.614-1.459,1.807-1.459q8.88,0,17.759-.007a1.587,1.587,0,0,1,1.571.773,1.315,1.315,0,0,1-.057,1.427,1.533,1.533,0,0,1-1.454.659C261.162,192.8,258.143,192.811,255.124,192.811Z" transform="translate(-210.071 -181.255)" fill="#070808"/>
        <path id="Trazado_626418" data-name="Trazado 626418" d="M252.3,391.353c-2.013,0-4.025,0-6.038,0-1.106,0-1.73-.545-1.706-1.463.023-.876.631-1.376,1.7-1.377q6.038-.006,12.075,0c1.041,0,1.674.548,1.675,1.417s-.633,1.419-1.67,1.423C256.322,391.358,254.309,391.353,252.3,391.353Z" transform="translate(-210.069 -344.448)" fill="#070808"/>
        <path id="Trazado_626419" data-name="Trazado 626419" d="M248.406,504.067c-.768,0-1.537.013-2.3,0a1.423,1.423,0,1,1-.049-2.838q2.348-.03,4.7,0a1.422,1.422,0,1,1-.04,2.838C249.943,504.079,249.175,504.067,248.406,504.067Z" transform="translate(-210.072 -437.08)" fill="#070808"/>
        <path id="Trazado_626420" data-name="Trazado 626420" d="M248.488,544.134c.739,0,1.477-.01,2.216,0a1.421,1.421,0,1,1,.053,2.836q-2.348.027-4.7,0a1.421,1.421,0,1,1,.035-2.835C246.892,544.123,247.69,544.134,248.488,544.134Z" transform="translate(-210.071 -472.355)" fill="#070808"/>
        <path id="Trazado_626421" data-name="Trazado 626421" d="M117.847,351.347c.579-.5,1.153-1.009,1.737-1.5a1.439,1.439,0,1,1,1.943,2.105,1.049,1.049,0,0,1-.2.179c-1.819,1.066-2.307,2.657-2.107,4.694a51.354,51.354,0,0,1,.033,5.232,1.474,1.474,0,0,1-1.678,1.685q-7.987.009-15.974,0c-1.181,0-1.707-.543-1.708-1.75q-.006-7.321,0-14.643c0-1.192.535-1.721,1.734-1.722q7.943-.007,15.886,0c1.029,0,1.64.456,1.736,1.268.094.794-.4,1.352-1.411,1.605l-8.179.007-6.752,0q-.178-.042-.138.137v12.088q-.041.178.137.137l6.752,0c2.068.011,4.137.019,6.205.036.321,0,.565,0,.556-.446-.024-1.229-.008-2.458-.008-3.667-.105-.025-.145-.046-.156-.036q-1.089.976-2.173,1.958c-.968.877-1.6.871-2.523-.024q-.952-.923-1.906-1.842c-.3-.321-.576-.662-.9-.959a1.491,1.491,0,0,1-.512-1.657,1.452,1.452,0,0,1,1.413-.992,1.952,1.952,0,0,1,1.127.645c.579.59,1.175,1.163,1.746,1.761.226.236.383.285.647.036C114.728,354.222,116.29,352.787,117.847,351.347Z" transform="translate(-91.17 -309.198)" fill="#070808"/>
        <path id="Trazado_626422" data-name="Trazado 626422" d="M117.861,195.7c.578-.5,1.151-1.012,1.736-1.508a1.434,1.434,0,1,1,1.967,2.078,1,1,0,0,1-.195.181c-1.88,1.108-2.354,2.768-2.149,4.858a49.922,49.922,0,0,1,.031,5.149,1.454,1.454,0,0,1-1.63,1.645q-8.039.011-16.078,0a1.458,1.458,0,0,1-1.65-1.629q-.013-7.417,0-14.834c0-1.119.561-1.65,1.719-1.651q7.95-.007,15.9,0c1.029,0,1.64.458,1.735,1.272.093.8-.4,1.354-1.416,1.6l-8.216,0c-2.127-.011-4.253-.014-6.38-.04-.385,0-.508.115-.506.5q.018,5.718,0,11.435c0,.39.125.506.508.5,2.127-.025,4.253-.028,6.38-.039q3.141.016,6.282.033c.279,0,.523.015.518-.394-.016-1.25-.006-2.5-.006-3.91-.922.836-1.693,1.555-2.486,2.25a1.462,1.462,0,0,1-2.26-.055,19.425,19.425,0,0,0-2.039-1.93c-.286-.324-.55-.67-.862-.967a1.511,1.511,0,0,1-.525-1.641,1.454,1.454,0,0,1,1.382-1.016,1.885,1.885,0,0,1,1.136.62c.577.588,1.173,1.158,1.74,1.755.246.259.414.323.712.042C114.747,198.561,116.308,197.134,117.861,195.7Z" transform="translate(-91.166 -181.278)" fill="#070808"/>
        <path id="Trazado_626423" data-name="Trazado 626423" d="M117.855,506.977c.578-.5,1.152-1.013,1.737-1.508a1.425,1.425,0,0,1,2.13,0,1.444,1.444,0,0,1-.209,2.124.738.738,0,0,1-.133.117c-1.867,1.111-2.364,2.762-2.156,4.857a49.532,49.532,0,0,1,.032,5.149,1.455,1.455,0,0,1-1.619,1.657q-8.039.013-16.079,0c-1.126,0-1.66-.558-1.662-1.71q-.008-7.329,0-14.657c0-1.209.524-1.745,1.711-1.746q7.951-.007,15.9,0c1.034,0,1.644.45,1.743,1.26.1.793-.393,1.355-1.407,1.611h-8.36c-2.069-.009-4.138-.008-6.207-.036-.426-.006-.549.122-.547.547q.022,5.677,0,11.353c0,.425.121.553.547.547,2.069-.029,4.138-.027,6.207-.036,2.123.009,4.247.021,6.37.024.238,0,.564.115.562-.332-.005-1.279,0-2.559,0-3.986-.893.81-1.647,1.5-2.412,2.185a1.477,1.477,0,0,1-2.382-.041q-.984-.947-1.965-1.9c-.277-.3-.534-.615-.834-.887a1.543,1.543,0,0,1-.568-1.714,1.453,1.453,0,0,1,1.4-.991,2.015,2.015,0,0,1,1.126.654c.58.592,1.179,1.165,1.751,1.763.228.239.384.279.647.031C114.731,509.86,116.3,508.421,117.855,506.977Z" transform="translate(-91.17 -437.118)" fill="#070808"/>
        <path id="Trazado_626424" data-name="Trazado 626424" d="M154.511,206.139l8.216,0q.015,1.419.03,2.838c-1.553,1.436-3.114,2.863-4.653,4.313-.3.281-.467.216-.712-.042-.568-.6-1.163-1.167-1.74-1.755a1.885,1.885,0,0,0-1.135-.62Q154.514,208.5,154.511,206.139Z" transform="translate(-136.062 -194.551)" fill="#f7cd00"/>
        <path id="Trazado_626425" data-name="Trazado 626425" d="M162.122,520.239c-1.559,1.444-3.124,2.883-4.673,4.338-.263.247-.419.207-.647-.031-.572-.6-1.172-1.171-1.751-1.763a2.015,2.015,0,0,0-1.126-.654c0-.677.035-1.357,0-2.032a7.9,7.9,0,0,0-.169-2.7h8.36Q162.116,518.815,162.122,520.239Z" transform="translate(-135.437 -450.379)" fill="#9dbde2"/>
        <path id="Trazado_626426" data-name="Trazado 626426" d="M162.935,364.619c-1.557,1.44-3.119,2.875-4.666,4.326-.265.248-.422.2-.647-.036-.571-.6-1.167-1.17-1.746-1.761a1.952,1.952,0,0,0-1.127-.645q0-2.364,0-4.727l8.179-.007Q162.931,363.193,162.935,364.619Z" transform="translate(-136.258 -322.469)" fill="#eabeab"/>
        <path id="Trazado_626427" data-name="Trazado 626427" d="M353.264,460.454a16.837,16.837,0,0,1-13.151-6.259A17.106,17.106,0,0,1,349,426.817a18.08,18.08,0,0,1,4.29-.564,16.841,16.841,0,0,1,12.926,5.949,16.621,16.621,0,0,1,4,13.465A17.109,17.109,0,0,1,356.6,460.125,25.312,25.312,0,0,1,353.264,460.454Zm-14.1-15.63a14.283,14.283,0,0,0,12.058,12.627c.5.071.641.055.691-.494a1.289,1.289,0,0,1,1.286-1.232c.712-.055,1.378.288,1.413.931.059,1.085.632.849,1.256.72.346-.072.7-.133,1.038-.222a14.4,14.4,0,0,0,10.533-11.872c.038-.283.12-.512-.321-.522a1.324,1.324,0,0,1-1.437-1.356c-.052-.815.391-1.278,1.427-1.468.3-.055.4-.107.352-.427a14.321,14.321,0,0,0-12.214-12.258c-.5-.062-.5.105-.538.488a1.331,1.331,0,0,1-1.347,1.279,1.2,1.2,0,0,1-1.374-1.01c-.078-1.017-.674-.736-1.226-.677a6.526,6.526,0,0,0-.69.154,14.349,14.349,0,0,0-10.836,11.769c-.05.432-.112.676.481.7a1.283,1.283,0,0,1,1.189,1.029C341.179,443.973,340.551,444.669,339.163,444.824Z" transform="translate(-285.41 -375.471)" fill="#080a0a"/>
        <path id="Trazado_626428" data-name="Trazado 626428" d="M122.954,361.794q0,2.364,0,4.727a1.452,1.452,0,0,0-1.413.992,1.491,1.491,0,0,0,.512,1.657c.32.3.6.638.9.959q0,2.011.005,4.021l-6.752,0-.137-.137V361.929l.138-.137Z" transform="translate(-104.462 -322.489)" fill="#f2d3be"/>
        <path id="Trazado_626429" data-name="Trazado 626429" d="M154.725,412.2q0-2.01-.005-4.021.953.921,1.906,1.842c.923.9,1.555.9,2.523.024q1.084-.982,2.173-1.958c.011-.01.051.011.156.036,0,1.208-.016,2.438.008,3.667.009.449-.235.449-.556.446C158.862,412.219,156.794,412.211,154.725,412.2Z" transform="translate(-136.234 -360.537)" fill="#eabeab"/>
        <path id="Trazado_626430" data-name="Trazado 626430" d="M116.168,361.756l-.138.137Q115.99,361.714,116.168,361.756Z" transform="translate(-104.428 -322.453)" fill="#eabeab"/>
        <path id="Trazado_626431" data-name="Trazado 626431" d="M116.028,430.436l.137.137Q115.987,430.614,116.028,430.436Z" transform="translate(-104.426 -378.909)" fill="#eabeab"/>
        <path id="Trazado_626432" data-name="Trazado 626432" d="M122.728,205.977q0,2.365.005,4.729a1.454,1.454,0,0,0-1.382,1.016,1.511,1.511,0,0,0,.525,1.641c.311.3.576.643.862.968q0,2-.009,4.006c-2.127.011-4.254.014-6.38.039-.383,0-.509-.112-.508-.5q.018-5.718,0-11.435c0-.388.122-.507.506-.5C118.474,205.963,120.6,205.966,122.728,205.977Z" transform="translate(-104.279 -194.39)" fill="#fde271"/>
        <path id="Trazado_626433" data-name="Trazado 626433" d="M154.518,255.857q0-2,.009-4.006a19.434,19.434,0,0,1,2.039,1.93,1.462,1.462,0,0,0,2.26.055c.793-.695,1.564-1.413,2.486-2.25,0,1.41-.01,2.66.006,3.91.005.409-.239.4-.518.394Q157.659,255.871,154.518,255.857Z" transform="translate(-136.068 -231.909)" fill="#f7cd00"/>
        <path id="Trazado_626434" data-name="Trazado 626434" d="M122.578,517.225a7.9,7.9,0,0,1,.169,2.7c.04.675.006,1.354,0,2.032a1.453,1.453,0,0,0-1.4.991,1.543,1.543,0,0,0,.568,1.714c.3.271.558.589.834.886-.084,1.348.208,2.712-.172,4.048-2.069.009-4.138.008-6.207.036-.426.006-.549-.122-.547-.547q.022-5.677,0-11.353c0-.425.121-.553.547-.547C118.44,517.217,120.509,517.215,122.578,517.225Z" transform="translate(-104.265 -450.211)" fill="#ccdef2"/>
        <path id="Trazado_626435" data-name="Trazado 626435" d="M153.75,567.062c.38-1.335.088-2.7.172-4.048q.982.949,1.965,1.9a1.477,1.477,0,0,0,2.382.041c.765-.682,1.519-1.375,2.412-2.185,0,1.428,0,2.707,0,3.986,0,.447-.325.332-.562.332C158,567.083,155.873,567.071,153.75,567.062Z" transform="translate(-135.437 -487.674)" fill="#9dbde2"/>
        <path id="Trazado_626436" data-name="Trazado 626436" d="M416.985,462.9c0,.533.02,1.067,0,1.6-.049,1.087-.115,2.08,1.1,2.757a2.407,2.407,0,0,1,1.026,2.245.976.976,0,0,0,.631,1.012c.884.472,1.74.995,2.607,1.5,1.015.589,1.363,1.383.945,2.149-.451.827-1.278.938-2.388.307-.9-.51-1.791-1.023-2.676-1.554a.875.875,0,0,0-.966-.041,3.557,3.557,0,0,1-3.544-6.168.855.855,0,0,0,.422-.857q-.014-2.887,0-5.774c0-1.1.568-1.746,1.468-1.722.87.023,1.367.634,1.374,1.706C416.99,461.008,416.985,461.956,416.985,462.9Zm-1.428,6.1c-.432.065-.714.287-.7.743a.651.651,0,0,0,.727.7.634.634,0,0,0,.7-.717C416.273,469.265,415.992,469.058,415.557,469.006Z" transform="translate(-347.671 -401.855)" fill="#080a0a"/>
        <path id="Trazado_626437" data-name="Trazado 626437" d="M428.869,518.168c.435.052.716.259.721.722a.634.634,0,0,1-.7.717.651.651,0,0,1-.727-.7C428.155,518.455,428.437,518.233,428.869,518.168Z" transform="translate(-360.983 -451.017)" fill="#fcfcfb"/>
      </g>
    </g>
  </g>
</svg>
