<svg xmlns="http://www.w3.org/2000/svg" xmlns:xlink="http://www.w3.org/1999/xlink" width="103" height="103" viewBox="0 0 103 103">
  <defs>
    <filter id="Elipse_7544" x="0" y="0" width="103" height="103" filterUnits="userSpaceOnUse">
      <feOffset dy="3" input="SourceAlpha"/>
      <feGaussianBlur stdDeviation="3" result="blur"/>
      <feFlood flood-opacity="0.161"/>
      <feComposite operator="in" in2="blur"/>
      <feComposite in="SourceGraphic"/>
    </filter>
  </defs>
  <g id="Grupo_947547" data-name="Grupo 947547" transform="translate(-802.349 -2803.349)">
    <g transform="matrix(1, 0, 0, 1, 802.35, 2803.35)" filter="url(#Elipse_7544)">
      <circle id="Elipse_7544-2" data-name="Elipse 7544" cx="42.5" cy="42.5" r="42.5" transform="translate(9 6)" fill="#f3c035"/>
    </g>
    <g id="Qxl44M" transform="translate(813.113 1638.829)">
      <g id="Grupo_946597" data-name="Grupo 946597" transform="translate(-1.562 1172.076)">
        <path id="Trazado_626438" data-name="Trazado 626438" d="M31.793,1255.518H5.677a6.945,6.945,0,0,1-7.239-7.257q0-3.188.008-6.376c0-1.17.52-1.673,1.709-1.678,1.091-.005,1.092-.005,1.092-1.094q-.013-26.252-.039-52.5a2.632,2.632,0,0,1,.84-2.035q5.9-5.846,11.751-11.746a2.325,2.325,0,0,1,1.8-.725c5.72.017,11.44-.011,17.16-.016q13.974-.011,27.947-.011a4.231,4.231,0,0,1,4.5,4.5c0,1.085.041,2.173-.015,3.255-.03.579.2.712.709.776a18.068,18.068,0,0,1,9.9,4.47,17.7,17.7,0,0,1,3.188,23.06,59.8,59.8,0,0,1-4.963,6.261c-.481.567-.911,1.178-1.359,1.773-.173.23-.3.427.11.6a1.227,1.227,0,0,1,.751,1.32,1.26,1.26,0,0,1-1,1.215c-.312.074-.381.242-.368.529.019.429.019.86,0,1.288-.024.568-.081,1.066.7,1.266a1.1,1.1,0,0,1,.677,1.216,1.2,1.2,0,0,1-.84,1.195c-.5.131-.556.4-.532.823a4.3,4.3,0,0,1-2.533,4.527c-.273.13-.241.332-.252.56a10.12,10.12,0,0,1-.145,2.225,4.1,4.1,0,0,1-3.436,3.046c-.53.062-.6.282-.6.73q.019,5.766,0,11.532a6.934,6.934,0,0,1-5.277,7.07,7.212,7.212,0,0,1-1.813.208q-6.58-.007-13.16,0Zm27.823-49.447-.131-.13h0l-1.116-1.213a2.475,2.475,0,0,1-.092-1.089,2.574,2.574,0,0,1,.775-.871l0,0,.66-.122.4.077.374.186-.005-.007.154.128-.007,0a3.374,3.374,0,0,0,.954.949l0,0,.14.141h0a3.246,3.246,0,0,0,.95.947v0l.138.143,0,0c.893,1.181.895,1.183,1.892.174.217-.219.414-.457.621-.687l.008-.009a1.8,1.8,0,0,0,.6-.594l.015-.012a5.253,5.253,0,0,0,1.027-1.031.061.061,0,0,0,.061-.052c1.118-.5,1.624-.365,2.29.6a.077.077,0,0,0,.028.092l.011.688-.005.031-.035.025.026.023-.134.324c-1.172,1.231-2.449,2.359-3.564,3.646l-.125.112a.565.565,0,0,0-.354.524q.026,1.645.048,3.291.007.207.014.415c-.123,1.148-.015,2.3-.056,3.449-.013.377.229.371.493.37,1.084,0,2.168-.011,3.253,0a.524.524,0,0,0,.6-.394,9.778,9.778,0,0,1,1.673-2.769c1.5-1.891,3.179-3.634,4.631-5.569a15.049,15.049,0,0,0-3.548-21.99,13.873,13.873,0,0,0-6.192-2.38,14.129,14.129,0,0,1-1.578-.24,15.305,15.305,0,0,0-7.525,1.4,4.584,4.584,0,0,0-1.348.718,3.172,3.172,0,0,0-.3.15,15.4,15.4,0,0,0-5.742,18.568,28.155,28.155,0,0,0,4.532,7.1,18.839,18.839,0,0,1,3.126,4.555c.291.722.64.989,1.361.855a1.822,1.822,0,0,1,.2-.015c1.036,0,2.073-.006,3.109.019.384.009.5-.119.5-.5-.012-2.3-.007-4.6,0-6.9a.635.635,0,0,0-.356-.663l-.011-.007-.137-.13-.035,0,.034-.009a17.4,17.4,0,0,0-2.168-2.166l-.036.016.032-.022-.125-.132-.031.021Zm-43.086,15.513-.107-.1a.536.536,0,0,1-.274-.333.113.113,0,0,0-.073-.086l-.079-.149a2.165,2.165,0,0,0-.956-1.609.453.453,0,0,1-.088-.1,12.636,12.636,0,0,1,4.794-16.186,1.936,1.936,0,0,1,1.081-.318c1.129,0,2.26-.032,3.388,0,.519.014.67-.182.655-.668-.028-.9-.046-1.808-.01-2.71.022-.57-.15-.767-.732-.671a14.731,14.731,0,0,0-4.739,1.512c-.077.008-.158.013-.135.127l.01-.016a6.65,6.65,0,0,0-2.2,1.35l-.137.1a.7.7,0,0,0-.382.315c-.144.106-.3.2-.431.32a15.31,15.31,0,0,0,1.219,23.848,4.7,4.7,0,0,0,1.664.965l-.011-.012c-.029.133.083.116.153.143a.46.46,0,0,0,.381.223,14.877,14.877,0,0,0,12.717.354,14.724,14.724,0,0,0,7.7-7.273,15.129,15.129,0,0,0,1.013-11.055,6.059,6.059,0,0,0-1.027-2.4l-.06-.2a.676.676,0,0,0-.251-.536,2.945,2.945,0,0,0-.821-1.169c0,2.626-.055,5.153.012,7.677a12.633,12.633,0,0,1-4.37,10.34,11.269,11.269,0,0,1-4.839,2.561,4.73,4.73,0,0,0-1.142.036,11.088,11.088,0,0,1-3.946.117c-.687-.056-1.315-.5-2.033-.278l-.221-.063c-.064-.421-.458-.447-.737-.59a4.893,4.893,0,0,1-1.077-.485,1.4,1.4,0,0,0-1.144-.384l-.027-.021c-.016-.191-.126-.253-.3-.223l-.247-.172-.124-.111-.017-.014a2.972,2.972,0,0,0-1.734-1.625.079.079,0,0,1-.054-.08c.039-.187-.006-.313-.227-.31Zm44.582,8.971a3.831,3.831,0,0,0-.044,1.35,1.257,1.257,0,0,0,1.29,1.339q1.419.04,2.841,0a1.377,1.377,0,0,0,1.4-1.43c.011-.27-.013-.542.007-.811.041-.54-.223-.624-.663-.47l-.238-.007a.12.12,0,0,0-.194,0H65.3a.694.694,0,0,0-.606,0h-.608a2.7,2.7,0,0,0-1.3,0h-.34A2.483,2.483,0,0,0,61.113,1230.554Zm-30.69-18.164c.273-.14.476.164.736.155.084-.387.1-.7-.289-.906a.4.4,0,0,1-.166-.533,3.1,3.1,0,0,0,.095-1.139c.05-2.549-.228-5.092-.135-7.642a8.963,8.963,0,0,0-.026-2.027c-.117-.594.336-1.259-.23-1.78-.08-.167.193-.609-.405-.345a2.458,2.458,0,0,1-1.79.012c-.557-.219-.659.015-.692.4-.072.816-.4,1.58-.39,2.416.026,2.935.009,5.871.008,8.807,0,.18,0,.361-.012.541a.236.236,0,0,1-.27.236.24.24,0,0,1-.254-.254c-.01-.18-.008-.361-.008-.542q0-4.573,0-9.146c0-.225.066-.475-.168-.668-.183,3.878.036,7.757-.213,11.812.074-.26.1-.343.121-.428.1-.493.551-.281.829-.415.123-.06.215.013.238.149a.531.531,0,0,1-.36.633c-.3.148-.215.509-.13.726.124.314.26-.092.417-.069a2.432,2.432,0,0,0,.336,0c.041.153.081.327.284.307a8.33,8.33,0,0,1,2.246.023C30.428,1212.756,30.372,1212.52,30.423,1212.391Zm-5.61-2.063c.012-1.469.015-2.939.044-4.407.007-.362-.118-.472-.468-.459-.61.023-1.221.023-1.831,0-.348-.012-.472.1-.466.46.025,1.6.024,3.209.032,4.814-.009.405-.009.811-.028,1.215-.014.293.052.464.4.453.653-.02,1.307-.013,1.961,0,.283,0,.41-.088.4-.39C24.826,1211.453,24.825,1210.89,24.813,1210.328Zm11.129.693v-.431l.054-4.854c.161.2.091.434.092.652.006,1.353,0,2.707,0,4.06v1.735c.1-.129.125-.147.125-.165q.008-8.626.013-17.253c0-.209.009-.423-.289-.432s-.586.006-.879.013c-.582.014-1.351-.19-1.7.1-.406.344-.133,1.14-.133,1.738q0,7.2.03,14.4a6.908,6.908,0,0,0,0,1.508c-.057.278.125.287.319.287.362,0,.723,0,1.085,0C36.013,1212.389,36.013,1212.389,35.943,1211.021Zm27.014,13.964c-1.422-.01-2.844-.01-4.265-.034-.347-.006-.5.1-.466.458.023.224,0,.451.005.677.019,1.155.572,1.66,1.742,1.593,2.658.009,5.317.029,7.976.019a1.321,1.321,0,0,0,1.4-1.405c.009-.293-.018-.588.007-.879.03-.347-.083-.47-.449-.466C66.921,1224.974,64.939,1224.975,62.957,1224.985Zm3.391-2.869c.854.009,1.709.01,2.563.033.3.008.452-.063.441-.406-.021-.652-.024-1.306,0-1.957.015-.353-.139-.418-.439-.405-.539.023-1.078.024-1.617.034-2.886-.011-5.773-.019-8.66-.04-.334,0-.423.121-.413.438.021.631.017,1.263,0,1.894-.009.309.072.445.41.443C61.206,1222.131,63.777,1222.126,66.348,1222.116ZM36.967,1228.8a.463.463,0,0,0,.05.125q5.139,6.4,10.289,12.8a3.063,3.063,0,0,0,2.335,1.2,3.812,3.812,0,0,0,3.974-2.08,3.51,3.51,0,0,0-.667-4.285q-2.823-2.686-5.65-5.367-3.172-3.008-6.349-6.009c-.158-.149-.291-.447-.571-.1a17.537,17.537,0,0,1-3.419,3.267C36.739,1228.514,36.691,1228.657,36.967,1228.8Zm-18.931-9.889a5.387,5.387,0,0,0,.374.635,9.354,9.354,0,0,0,9.8,3.75c4.04-.835,6.526-3.445,7.575-7.433.148-.561-.041-.662-.573-.66-4.743.019-9.486.014-14.23.01-1.185,0-1.677-.507-1.687-1.7-.005-.609-.018-1.218-.028-1.828v-4.6a7.278,7.278,0,0,0-2.068,3.156A9.422,9.422,0,0,0,18.035,1218.912Zm-13.97,33.615a4.944,4.944,0,0,0,1.722.233q22.479,0,44.957,0c.407,0,.813.007,1.22.026.523.025.684-.133.356-.61a5.777,5.777,0,0,1-.955-2.651,28.74,28.74,0,0,1-.068-3.182c0-.414-.093-.618-.574-.584a7.074,7.074,0,0,1-3.918-.821,6.029,6.029,0,0,1-1.362-1.1,2.062,2.062,0,0,0-1.988-.823q-19.293.023-38.586.018c-.723,0-1.445.025-2.167.038-.268-.016-.539-.013-.8-.053-.514-.076-.7.086-.684.643.04,1.644,0,3.29.016,4.936A4.132,4.132,0,0,0,4.066,1252.527ZM46.149,1226.2c.09.1.173.207.27.3,2.749,2.615,5.436,5.3,8.268,7.823a6.561,6.561,0,0,1-.277,9.941c-.177.148-.351.268-.346.538.024,1.423-.034,2.852.077,4.267a3.779,3.779,0,0,0,2.443,3.315,4.14,4.14,0,0,0,5.821-3.893c.025-3.729.005-7.458.005-11.187,0-1.1,0-1.1-1.063-1.4a4.192,4.192,0,0,1-3.116-4.313c0-.764.127-1.542-.89-1.8a1.271,1.271,0,0,1-.43-.322,4.341,4.341,0,0,1-1.441-3.838c.029-.413-.017-.7-.53-.825a1.214,1.214,0,0,1-.862-1.187c-.036-.494.124-1.063.6-1.185.951-.241.789-.911.784-1.562,0-.294-.017-.589,0-.881.026-.372-.031-.592-.473-.726a1.262,1.262,0,0,1-.705-1.962c.447-.557.237-.906-.052-1.338a4.99,4.99,0,0,0-.752-1.032c-.744-1.162-1.679-2.175-2.528-3.254-2.753-3.5-4.873-7.292-5.159-11.844-.429-6.824,2.017-12.353,7.637-16.369a18.364,18.364,0,0,1,6.149-2.675c.827-.108,1.653-.229,2.483-.316.257-.027.356-.11.354-.366-.009-1.332.017-2.665-.023-4a1.2,1.2,0,0,0-1.276-1.217c-.518-.022-1.037,0-1.556.01-.224-.015-.449-.042-.673-.042q-20.851.025-41.7.043c-.531,0-.673.134-.669.67.025,3.322.011,6.645.011,9.968,0,1.4-.451,1.853-1.875,1.853-3.323,0-6.645.016-9.968-.014-.584-.005-.709.174-.7.721.04,1.988.037,3.977.038,5.966q.012,22.037.021,44.075c0,.225.018.451.027.676-.01.135-.027.269-.029.4-.012.975-.011.975.945.975H42.488l-5.213-6.4c-.893-1.135-1.8-2.258-2.67-3.412-.261-.346-.464-.344-.832-.178a17.6,17.6,0,0,1-11.51,1.212,18.071,18.071,0,0,1,2.561-35.638c1.7-.115,3.389-.032,5.084-.047.413,0,.548-.108.524-.532-.038-.676-.014-1.356-.009-2.034a1.4,1.4,0,0,1,1.572-1.6c1.7-.01,3.391-.008,5.087-.007,1.211,0,1.708.509,1.71,1.747,0,2.261.014,4.522-.007,6.782a1.456,1.456,0,0,0,.444,1.125,17.761,17.761,0,0,1,5.1,12.746,17.579,17.579,0,0,1-1.958,8.018c-.123.244-.266.438.024.7C43.655,1223.844,44.9,1225.026,46.149,1226.2Zm-32.427-49.208a4.446,4.446,0,0,0-.373.271q-3.448,3.434-6.893,6.873c-.091.091-.242.18-.176.33.082.186.279.106.422.107,2.167.007,4.333-.006,6.5.016.5.005.529-.245.526-.63-.013-1.535-.006-3.069-.006-4.6C13.722,1178.618,13.722,1177.883,13.722,1176.991ZM31.03,1198.5c-.108.375-.172.642.02.9.015.019.14-.005.171-.044C31.451,1199.067,31.328,1198.823,31.03,1198.5Z" transform="translate(1.562 -1172.076)" fill="#282829"/>
        <path id="Trazado_626439" data-name="Trazado 626439" d="M39.458,1256.6c-.01-.225-.027-.45-.027-.676q-.011-22.038-.021-44.075c0-1.989,0-3.978-.038-5.966-.011-.547.115-.726.7-.721,3.322.03,6.645.014,9.968.014,1.424,0,1.875-.448,1.875-1.853,0-3.323.014-6.645-.011-9.968,0-.535.138-.669.669-.67q20.851-.006,41.7-.043c.224,0,.449.027.673.042q.009,2.943.018,5.885a18.366,18.366,0,0,0-6.149,2.675c-5.62,4.016-8.065,9.545-7.637,16.369.286,4.552,2.406,8.343,5.159,11.844.849,1.08,1.785,2.093,2.528,3.254-.321,0-.325.289-.391.479a17.521,17.521,0,0,1-1.351,2.7,39.52,39.52,0,0,1-4.449,6.717c-.388.451-.614,1.039-1.148,1.366-1.251-1.173-2.494-2.355-3.76-3.513-.289-.265-.147-.46-.024-.7a17.58,17.58,0,0,0,1.958-8.018,17.761,17.761,0,0,0-5.1-12.746,1.455,1.455,0,0,1-.444-1.125c.02-2.261.01-4.521.007-6.782,0-1.239-.5-1.746-1.71-1.747-1.7,0-3.391,0-5.087.007a1.4,1.4,0,0,0-1.572,1.6c-.005.678-.03,1.358.009,2.034.024.424-.11.528-.524.532-1.694.015-3.389-.068-5.084.047a18.071,18.071,0,0,0-2.561,35.638,17.6,17.6,0,0,0,11.51-1.212c.368-.166.571-.168.832.178.869,1.153,1.777,2.277,2.671,3.412a2.165,2.165,0,0,0-1.338.392,28.6,28.6,0,0,1-5.818,2.469,42.7,42.7,0,0,1-6.4,1.53,48.033,48.033,0,0,1-6.22.613C48.4,1256.647,43.93,1256.6,39.458,1256.6Zm30.529-58.387v0H67.343q-4.879,0-9.759,0a1.407,1.407,0,0,0-1.521,1.3c-.062.858.606,1.46,1.639,1.46q11.961,0,23.922,0c.316,0,.633.013.949-.006a1.385,1.385,0,1,0-.253-2.757Q76.153,1198.2,69.986,1198.211Zm-2.035,8.348v0c3.388,0,6.777-.005,10.165,0a1.465,1.465,0,0,0,1.386-.669,1.309,1.309,0,0,0,.031-1.413,1.444,1.444,0,0,0-1.369-.7q-10.233.014-20.465,0a3.409,3.409,0,0,0-.406.014,1.365,1.365,0,0,0-1.175,1.719c.179.707.685,1.044,1.6,1.045Q62.835,1206.562,67.951,1206.559Z" transform="translate(-33.816 -1189.851)" fill="#dee9f5"/>
        <path id="Trazado_626440" data-name="Trazado 626440" d="M384.9,1255.571a15.3,15.3,0,0,1,7.528-1.4,14.13,14.13,0,0,0,1.578.24,23.774,23.774,0,0,0,2.328,1.549,16.422,16.422,0,0,1,6.385,11.263,21.139,21.139,0,0,1-.247,6.173,11.5,11.5,0,0,1-3.239,5.588,19.838,19.838,0,0,1-6.082,4.707q-.007-.207-.014-.415c.406-1.247.008-2.559.306-3.815l.125-.112c.972-.041,1.216-1.224,2.129-1.359.012,0,.023-.038.027-.059.114-.574.567-.887.936-1.279.234-.249.764-.416.472-.949l.134-.324.009-.048.005-.031c.389-.235.408-.465-.011-.688a.078.078,0,0,1-.028-.092c.073-.816-.581-.943-1.118-1.087a1,1,0,0,0-1.172.488.061.061,0,0,1-.061.052c-.7-.014-.953.42-1.027,1.031l-.014.012c-.391.005-.754.039-.6.594l-.008.009c-.347-.14-.511.138-.745.3-.411.282-.764,1.079-1.38.224-.045-.063-.254-.008-.387-.009l0,0-.138-.143v0c-.112-.521-.333-.933-.95-.947h0l-.14-.141,0,0c.041-.995.041-.995-.954-.949l.007,0-.154-.128.005.007c-.059-.195-.11-.4-.374-.186l-.4-.077c-.283-.3-.5-.239-.66.122l0,0c-.622-.033-.8.326-.775.872a2.475,2.475,0,0,0,.092,1.089c.007.737.251,1,1.116,1.213h0q-.013.145.131.13l-.026.027.031-.021c-.01.094.031.139.126.132l-.032.022.036-.016c.069.4-.086.944.616.954.062,0,.1.242.185.333.387.4.607,1.061,1.367.879l-.034.009.034,0c0,.1.041.14.137.129l.011.007c-.017.111-.025.224-.052.333-.177.7.282,1.385.109,2.063a3.2,3.2,0,0,0,.076,1.788,3.942,3.942,0,0,1,.084.869.552.552,0,0,1-.475.637,27.908,27.908,0,0,1-3.675.752,22.7,22.7,0,0,1-1.487-1.921,42.725,42.725,0,0,1-4.85-6.811,4.375,4.375,0,0,0-.87-1.988l-.09-.2a2.1,2.1,0,0,0-.406-1.416l-.074-.3a.25.25,0,0,0-.091-.415l-.065-.425a4.454,4.454,0,0,0-.253-1.69q-.009-.181-.019-.362a8.86,8.86,0,0,0,.013-2.248l.048-.709c.316-.289.19-.629.109-.963l.089-.3.044,0-.038-.05.059-.452a.688.688,0,0,0,.213-.783l.082-.439a2.979,2.979,0,0,0,.488-1.086,7.7,7.7,0,0,0,.754-1.99l.07-.2q.247-.007.178-.244l.1-.143a3.485,3.485,0,0,0,.969-1.482l.113-.17c.223-.026.354-.125.3-.374l.105-.163c.378-.222.779-.421.842-.929a.457.457,0,0,0,.064-.083c.186-.027.368-.059.358-.312l.347-.355.052,0,0-.052.213-.206c.144.025.252,0,.251-.179l.044-.047C384.139,1256.173,384.65,1256.056,384.9,1255.571Zm8.223,2.75a1.4,1.4,0,0,0-1.566-1.407,12.462,12.462,0,0,0-10.5,5.969,1.427,1.427,0,1,0,2.378,1.495,9.95,9.95,0,0,1,2.022-2.354,9.835,9.835,0,0,1,6.157-2.315A1.379,1.379,0,0,0,393.123,1258.321Zm-11.113,11.106a1.4,1.4,0,1,0-2.8.02,1.378,1.378,0,0,0,1.441,1.385A1.407,1.407,0,0,0,382.011,1269.427Z" transform="translate(-326.363 -1243.011)" fill="#febe00"/>
        <path id="Trazado_626441" data-name="Trazado 626441" d="M29.769,1694.816c.723-.013,1.445-.037,2.167-.038q19.293-.007,38.586-.018a2.062,2.062,0,0,1,1.988.823,6.023,6.023,0,0,0,1.362,1.1.7.7,0,0,1-.076.253c-2.346,2.8-5.53,4.054-8.974,4.746a48.672,48.672,0,0,1-5.785.882c-2.283.179-4.57.391-6.854.464-5.416.175-10.839-.1-16.259.143a24.089,24.089,0,0,1-4.933-.1.4.4,0,0,0-.422.151,4.245,4.245,0,0,1-.8-2.393C29.741,1698.823,29.765,1696.819,29.769,1694.816Z" transform="translate(-25.504 -1623.825)" fill="#3f88c7"/>
        <path id="Trazado_626442" data-name="Trazado 626442" d="M350,1499.158c.534-.328.76-.915,1.148-1.366a39.524,39.524,0,0,0,4.449-6.717,17.529,17.529,0,0,0,1.351-2.7c.066-.19.069-.478.391-.479a4.988,4.988,0,0,1,.752,1.032c.289.432.5.781.052,1.338a1.262,1.262,0,0,0,.705,1.962c.441.135.5.355.473.726-.02.292-.006.587,0,.881.006.65.167,1.321-.784,1.562-.481.122-.641.69-.6,1.185a1.214,1.214,0,0,0,.862,1.187c.513.127.559.411.53.825a4.341,4.341,0,0,0,1.441,3.838,1.272,1.272,0,0,0,.43.322c1.017.254.895,1.032.89,1.8a4.193,4.193,0,0,0,3.116,4.314c1.063.295,1.063.295,1.063,1.4,0,3.729.019,7.459-.005,11.188a4.14,4.14,0,0,1-5.821,3.893,3.779,3.779,0,0,1-2.443-3.315c-.111-1.416-.053-2.844-.077-4.267,0-.269.169-.389.346-.538a6.561,6.561,0,0,0,.277-9.942c-2.832-2.523-5.519-5.208-8.268-7.823C350.169,1499.365,350.086,1499.258,350,1499.158Z" transform="translate(-302.285 -1445.035)" fill="#b6d2ea"/>
        <path id="Trazado_626443" data-name="Trazado 626443" d="M490.181,1285.377a19.838,19.838,0,0,0,6.082-4.707,11.5,11.5,0,0,0,3.239-5.588,21.139,21.139,0,0,0,.247-6.173,16.422,16.422,0,0,0-6.385-11.263,23.755,23.755,0,0,1-2.328-1.549,13.877,13.877,0,0,1,6.192,2.38,15.05,15.05,0,0,1,3.548,21.99c-1.453,1.936-3.129,3.678-4.631,5.569a9.778,9.778,0,0,0-1.673,2.769.523.523,0,0,1-.6.394c-1.084-.013-2.168-.007-3.253,0-.264,0-.506.007-.493-.37C490.166,1287.677,490.058,1286.525,490.181,1285.377Z" transform="translate(-423.392 -1244.694)" fill="#e1a30f"/>
        <path id="Trazado_626444" data-name="Trazado 626444" d="M35.763,1715.46a.4.4,0,0,1,.422-.151,24.089,24.089,0,0,0,4.933.1c5.42-.24,10.842.032,16.259-.143,2.284-.074,4.571-.285,6.854-.465a48.647,48.647,0,0,0,5.785-.882c3.444-.692,6.627-1.948,8.974-4.746a.7.7,0,0,0,.076-.253,7.072,7.072,0,0,0,3.918.821c.481-.034.574.17.574.584a28.738,28.738,0,0,0,.068,3.182,5.777,5.777,0,0,0,.955,2.651c.328.477.167.635-.356.61-.406-.02-.813-.026-1.22-.026q-22.479,0-44.957,0a4.948,4.948,0,0,1-1.722-.233C36.414,1716.017,35.767,1715.91,35.763,1715.46Z" transform="translate(-30.697 -1636.065)" fill="#2571b3"/>
        <path id="Trazado_626445" data-name="Trazado 626445" d="M143.15,1463.965c.009.609.022,1.218.028,1.827.01,1.191.5,1.7,1.687,1.7,4.743,0,9.487.009,14.23-.01.531,0,.72.1.573.66-1.049,3.989-3.535,6.6-7.575,7.433a9.354,9.354,0,0,1-9.8-3.75,5.387,5.387,0,0,1-.374-.635,4.351,4.351,0,0,0,0-.873,9.881,9.881,0,0,1,.321-4.5C142.407,1465.164,142.442,1464.377,143.15,1463.965Z" transform="translate(-122.324 -1424.352)" fill="#dee9f5"/>
        <path id="Trazado_626446" data-name="Trazado 626446" d="M105.554,1391.024a.079.079,0,0,0,.054.08,6.293,6.293,0,0,0,1.734,1.625l.017.013.124.111.247.172a.45.45,0,0,0,.3.223l.027.021a8.967,8.967,0,0,0,2.959,1.459l.221.063a11.036,11.036,0,0,0,7.12.125,11.269,11.269,0,0,0,4.839-2.561,12.633,12.633,0,0,0,4.37-10.34c-.067-2.524-.012-5.051-.012-7.677a2.95,2.95,0,0,1,.821,1.169c.026.206-.079.473.251.537l.06.2a5.219,5.219,0,0,0-.014,1.014,16.5,16.5,0,0,1-.011,5.766,14.113,14.113,0,0,1-1.533,4.638,20.818,20.818,0,0,1-1.97,3.023,17.06,17.06,0,0,1-5.262,4.216,16.323,16.323,0,0,1-5.226,1.687,16.839,16.839,0,0,1-5.027-.008c-.42-.062-.929-.4-1.361.044a.46.46,0,0,1-.381-.223l-.153-.143.011.012c-.6-.543-1.237-1.047-1.787-1.634a16.7,16.7,0,0,1-.386-23.084l2.445-2.177-.011.016.135-.127a14.734,14.734,0,0,1,4.739-1.511c.582-.1.754.1.732.671-.035.9-.018,1.807.01,2.71.015.486-.136.682-.655.668-1.129-.031-2.259.005-3.388,0a1.936,1.936,0,0,0-1.081.318,12.636,12.636,0,0,0-4.794,16.186.45.45,0,0,0,.088.1,4.861,4.861,0,0,0,.956,1.609l.078.149.073.086a.535.535,0,0,0,.273.333l.107.1.029.032A.3.3,0,0,0,105.554,1391.024Z" transform="translate(-87.205 -1341.175)" fill="#3f88c7"/>
        <path id="Trazado_626447" data-name="Trazado 626447" d="M39.808,1631.843c4.472,0,8.945.048,13.417-.02a48.054,48.054,0,0,0,6.22-.613,42.7,42.7,0,0,0,6.4-1.53,28.6,28.6,0,0,0,5.818-2.469,2.164,2.164,0,0,1,1.338-.392l5.213,6.4H40.725c-.956,0-.957,0-.945-.975C39.781,1632.112,39.8,1631.978,39.808,1631.843Z" transform="translate(-34.167 -1565.096)" fill="#b6d2ea"/>
        <path id="Trazado_626448" data-name="Trazado 626448" d="M295.008,1593.939a3.063,3.063,0,0,1-2.335-1.2q-5.168-6.381-10.289-12.8a.462.462,0,0,1-.05-.125,1.044,1.044,0,0,0,.909-.022c.762-.466,1.56-.875,2.3-1.376a.715.715,0,0,1,1.1.106c1.154,1.235,2.467,2.307,3.66,3.507,1.572,1.581,3.211,3.1,4.86,4.6a4.753,4.753,0,0,1,1.474,3.705A5.74,5.74,0,0,1,295.008,1593.939Z" transform="translate(-243.805 -1523.092)" fill="#fac6a1"/>
        <path id="Trazado_626449" data-name="Trazado 626449" d="M153.767,1450.863c.432-.445.941-.106,1.361-.044a16.843,16.843,0,0,0,5.027.008,16.314,16.314,0,0,0,5.226-1.687,17.058,17.058,0,0,0,5.262-4.216,20.818,20.818,0,0,0,1.97-3.023,14.116,14.116,0,0,0,1.533-4.638,16.5,16.5,0,0,0,.011-5.765,5.22,5.22,0,0,1,.014-1.014,6.056,6.056,0,0,1,1.027,2.4,15.129,15.129,0,0,1-1.013,11.055,14.724,14.724,0,0,1-7.7,7.273A14.878,14.878,0,0,1,153.767,1450.863Z" transform="translate(-132.687 -1395.414)" fill="#2571b3"/>
        <path id="Trazado_626450" data-name="Trazado 626450" d="M293.8,1579.465a5.741,5.741,0,0,0,1.628-3.6,4.753,4.753,0,0,0-1.474-3.705c-1.649-1.5-3.289-3.018-4.86-4.6-1.193-1.2-2.505-2.272-3.66-3.507a.715.715,0,0,0-1.1-.106c-.737.5-1.535.91-2.3,1.376a1.044,1.044,0,0,1-.909.022c-.276-.144-.228-.288-.009-.448a17.537,17.537,0,0,0,3.419-3.267c.28-.352.412-.054.571.1q3.178,3,6.349,6.009,2.827,2.681,5.65,5.367a3.51,3.51,0,0,1,.667,4.285A3.811,3.811,0,0,1,293.8,1579.465Z" transform="translate(-242.593 -1508.618)" fill="#f2a974"/>
        <path id="Trazado_626451" data-name="Trazado 626451" d="M369.13,1286.882l.073.3a2.955,2.955,0,0,0,.406,1.417l.089.195a5.584,5.584,0,0,0,.87,1.989,42.73,42.73,0,0,0,4.85,6.811,22.649,22.649,0,0,0,1.487,1.921c.131.572.632.988.675,1.6a1.822,1.822,0,0,0-.2.015c-.72.134-1.07-.134-1.361-.855a18.84,18.84,0,0,0-3.126-4.555,28.155,28.155,0,0,1-4.532-7.1,15.4,15.4,0,0,1,5.742-18.568,3.13,3.13,0,0,1,.3-.149l.16.128-.044.047a.3.3,0,0,0-.251.179l-.212.206c-.033,0-.05.014-.049.048l-.346.355a.3.3,0,0,0-.359.312.464.464,0,0,1-.064.083,1.67,1.67,0,0,0-.842.929l-.1.162c-.187.054-.316.157-.3.374l-.113.17a2.713,2.713,0,0,0-.97,1.483l-.095.142a.2.2,0,0,0-.178.245l-.07.2a8.052,8.052,0,0,0-1.242,3.077l-.082.439a.944.944,0,0,0-.213.784l-.059.452-.006.053-.088.3a1.1,1.1,0,0,0-.109.963l-.048.709a4.468,4.468,0,0,0-.013,2.248l.019.361a2.936,2.936,0,0,0,.253,1.691l.064.424C368.991,1286.622,368.967,1286.773,369.13,1286.882Z" transform="translate(-317.21 -1256.626)" fill="#e4e3e3"/>
        <path id="Trazado_626452" data-name="Trazado 626452" d="M96.713,1393.26a16.7,16.7,0,0,0,.386,23.084c.55.588,1.189,1.092,1.787,1.634a4.7,4.7,0,0,1-1.664-.965A15.31,15.31,0,0,1,96,1393.166c.135-.117.287-.214.431-.32C96.7,1392.87,96.731,1393.048,96.713,1393.26Z" transform="translate(-78.328 -1362.885)" fill="#dee9f5"/>
        <path id="Trazado_626453" data-name="Trazado 626453" d="M63.564,1208.293c0,.892,0,1.627,0,2.363,0,1.535-.007,3.069.006,4.6,0,.385-.025.635-.526.63-2.166-.022-4.333-.009-6.5-.016-.143,0-.34.079-.422-.107-.066-.15.086-.239.176-.329q3.444-3.439,6.893-6.873A4.387,4.387,0,0,1,63.564,1208.293Z" transform="translate(-48.28 -1203.378)" fill="#3f88c7"/>
        <path id="Trazado_626454" data-name="Trazado 626454" d="M254.27,1352.069q-.018-7.2-.03-14.4c0-.6-.272-1.393.133-1.738.346-.294,1.115-.09,1.7-.1.293-.007.586-.009.879-.013l.066.267,0,.251q0,3.948,0,7.9,0,1,0,2,0,.493,0,.987l-.054,4.853c-.205-.209-.115-.472-.115-.709-.007-2.078,0-4.156-.008-6.234,0-.19.109-.471-.108-.554-.255-.1-.478.114-.611.319a4.044,4.044,0,0,1-1.1,1.085,1.432,1.432,0,0,0-.643,1.319c.049,1.376.02,2.755.014,4.133C254.384,1351.643,254.46,1351.882,254.27,1352.069Z" transform="translate(-219.447 -1313.552)" fill="#fac6a1"/>
        <path id="Trazado_626455" data-name="Trazado 626455" d="M447.1,1523.339c-2.571.01-5.142.015-7.713.034-.338,0-.419-.133-.41-.443.019-.631.023-1.264,0-1.895-.01-.317.078-.441.413-.438,2.886.021,5.773.028,8.66.04a2.13,2.13,0,0,1-.158.855C447.732,1522.153,447.2,1522.653,447.1,1523.339Z" transform="translate(-379.188 -1473.299)" fill="#dee9f5"/>
        <path id="Trazado_626456" data-name="Trazado 626456" d="M453.169,1561.7c1.982-.01,3.965-.011,5.947-.037.365,0,.478.118.449.466-.025.291,0,.586-.007.879a1.321,1.321,0,0,1-1.4,1.405c-2.659.01-5.317-.01-7.976-.019-.455-1.739-.434-1.415,1.017-1.784a1.427,1.427,0,0,0,.319-.095C452.062,1562.226,452.748,1562.229,453.169,1561.7Z" transform="translate(-388.65 -1508.791)" fill="#b6d2ea"/>
        <path id="Trazado_626457" data-name="Trazado 626457" d="M254.761,1407.964c.19-.187.114-.426.115-.643.006-1.378.036-2.757-.014-4.133a1.432,1.432,0,0,1,.643-1.319,4.045,4.045,0,0,0,1.1-1.085c.133-.205.355-.418.611-.319.217.083.107.363.108.554.007,2.078,0,4.156.008,6.234,0,.238-.09.5.115.709v.431c-.194.183-.12.422-.112.635.012.334-.153.55-.45.55a5.64,5.64,0,0,1-2.122-.1A6.91,6.91,0,0,1,254.761,1407.964Z" transform="translate(-219.938 -1369.447)" fill="#f2a974"/>
        <path id="Trazado_626458" data-name="Trazado 626458" d="M134.417,1434.66c-.709.412-.743,1.2-.911,1.847a9.881,9.881,0,0,0-.321,4.5,4.354,4.354,0,0,1,0,.873,9.422,9.422,0,0,1-.839-8.669,7.277,7.277,0,0,1,2.068-3.156Z" transform="translate(-113.591 -1395.046)" fill="#b6d2ea"/>
        <path id="Trazado_626459" data-name="Trazado 626459" d="M448.881,1198.717q-.009-2.943-.018-5.885c.519-.005,1.038-.032,1.556-.01a1.2,1.2,0,0,1,1.276,1.217c.04,1.331.014,2.664.023,4,0,.256-.1.339-.354.366C450.534,1198.488,449.708,1198.609,448.881,1198.717Z" transform="translate(-387.734 -1189.999)" fill="#b6d2ea"/>
        <path id="Trazado_626460" data-name="Trazado 626460" d="M172.76,1423.344c-.008-1.6-.007-3.21-.032-4.814-.006-.363.118-.472.466-.46.61.021,1.222.021,1.831,0,.35-.013.475.1.468.459-.029,1.469-.031,2.938-.044,4.407-.206-.106-.38-.4-.651-.182A4.533,4.533,0,0,1,172.76,1423.344Z" transform="translate(-149.074 -1384.682)" fill="#fac6a1"/>
        <path id="Trazado_626461" data-name="Trazado 626461" d="M21.178,1703.129c0,.45.651.557.562,1.056a4.132,4.132,0,0,1-2.836-3.933c-.012-1.645.024-3.291-.016-4.936-.013-.557.17-.72.684-.643.265.039.536.036.8.052,0,2-.028,4.007,0,6.01A4.245,4.245,0,0,0,21.178,1703.129Z" transform="translate(-16.113 -1623.734)" fill="#dee9f5"/>
        <path id="Trazado_626462" data-name="Trazado 626462" d="M204.517,1378.065a2.467,2.467,0,0,1-.336,0c-.157-.022-.293.383-.417.069-.085-.217-.174-.578.13-.726a.531.531,0,0,0,.36-.633c-.023-.135-.114-.208-.238-.149-.278.134-.731-.078-.829.415-.017.085-.047.168-.121.428.249-4.055.03-7.934.213-11.812.234.193.168.443.168.668q.007,4.573,0,9.146c0,.181,0,.362.008.542a.24.24,0,0,0,.254.254.236.236,0,0,0,.27-.236c.013-.18.012-.361.012-.541,0-2.936.018-5.871-.008-8.807-.007-.837.319-1.6.39-2.416.034-.384.136-.617.692-.4a2.457,2.457,0,0,0,1.79-.012c.6-.263.325.178.405.345l-.028.024c-.72,0-1.441.013-2.16-.016-.4-.016-.557.093-.554.521.022,3.172.022,6.344.03,9.517q0,1.9-.009,3.8Z" transform="translate(-175.295 -1337.754)" fill="#342e19"/>
        <path id="Trazado_626463" data-name="Trazado 626463" d="M464.8,1602.4c.441-.153.7-.07.663.47-.02.269,0,.541-.007.812a1.376,1.376,0,0,1-1.4,1.43q-1.42.037-2.841,0a1.257,1.257,0,0,1-1.29-1.339,3.406,3.406,0,0,0,1.258-.146A9.742,9.742,0,0,0,464.8,1602.4Z" transform="translate(-397.297 -1543.941)" fill="#e1a30f"/>
        <path id="Trazado_626464" data-name="Trazado 626464" d="M438.984,1448.677c-.042-.609-.544-1.025-.675-1.6a27.913,27.913,0,0,0,3.674-.752.552.552,0,0,0,.475-.637,3.944,3.944,0,0,0-.084-.869,3.2,3.2,0,0,1-.076-1.788c.173-.678-.287-1.36-.109-2.063.027-.108.035-.222.052-.333a.635.635,0,0,1,.356.663c-.009,2.3-.015,4.6,0,6.895,0,.383-.118.511-.5.5C441.057,1448.671,440.02,1448.681,438.984,1448.677Z" transform="translate(-378.612 -1404.19)" fill="#e1a30f"/>
        <path id="Trazado_626465" data-name="Trazado 626465" d="M498.831,1523.367c.1-.686.634-1.186.794-1.847a2.129,2.129,0,0,0,.158-.855c.539-.01,1.079-.011,1.617-.034.3-.013.454.052.439.405-.028.651-.025,1.305,0,1.957.011.343-.138.414-.441.406C500.54,1523.377,499.685,1523.376,498.831,1523.367Z" transform="translate(-430.921 -1473.327)" fill="#b6d2ea"/>
        <path id="Trazado_626466" data-name="Trazado 626466" d="M443.675,1561.714c-.421.53-1.107.526-1.648.815a1.421,1.421,0,0,1-.319.095c-1.451.369-1.472.045-1.017,1.784-1.17.067-1.723-.437-1.742-1.592,0-.226.017-.453-.005-.677-.037-.363.119-.464.466-.458C440.832,1561.7,442.254,1561.7,443.675,1561.714Z" transform="translate(-379.156 -1508.805)" fill="#dee9f5"/>
        <path id="Trazado_626467" data-name="Trazado 626467" d="M172.775,1452.693a4.534,4.534,0,0,0,2.038-.592c.271-.215.446.076.651.182.012.563.013,1.126.04,1.687.015.3-.112.395-.4.39-.653-.011-1.308-.019-1.961,0-.351.011-.416-.16-.4-.453C172.765,1453.5,172.766,1453.1,172.775,1452.693Z" transform="translate(-149.089 -1414.031)" fill="#f2a974"/>
        <path id="Trazado_626468" data-name="Trazado 626468" d="M233.826,1366.917c.566.521.113,1.186.23,1.78a8.963,8.963,0,0,1,.026,2.027c-.093,2.55.185,5.093.135,7.642a3.1,3.1,0,0,1-.095,1.139.4.4,0,0,0,.166.533c.388.2.372.518.289.905-.259.008-.462-.295-.736-.155l-.024-.02q-.009-2.513-.018-5.026v-8.8Z" transform="translate(-201.856 -1340.474)" fill="#342e19"/>
        <path id="Trazado_626469" data-name="Trazado 626469" d="M464.558,1602.779a9.746,9.746,0,0,1-3.615,1.223,3.411,3.411,0,0,1-1.258.145,3.827,3.827,0,0,1,.044-1.35l1.334-.023h2.244l.606,0h.213l.194,0Z" transform="translate(-397.055 -1544.319)" fill="#febe00"/>
        <path id="Trazado_626470" data-name="Trazado 626470" d="M274.828,1344.5q0-3.948,0-7.9a.144.144,0,0,0,0-.251l-.066-.267c.3.008.29.223.289.431q-.006,8.626-.013,17.253c0,.018-.026.036-.125.165V1352.2c0-1.353,0-2.706,0-4.06,0-.219.069-.454-.092-.652v-.986A4.422,4.422,0,0,0,274.828,1344.5Z" transform="translate(-237.267 -1313.827)" fill="#342e19"/>
        <path id="Trazado_626471" data-name="Trazado 626471" d="M497.211,1412.987c.293.533-.238.7-.472.949-.369.393-.821.705-.936,1.279,0,.021-.016.058-.027.059-.913.135-1.157,1.318-2.129,1.359C494.762,1415.346,496.039,1414.219,497.211,1412.987Z" transform="translate(-426.44 -1380.292)" fill="#e1a30f"/>
        <path id="Trazado_626472" data-name="Trazado 626472" d="M182.67,1566.882a11.036,11.036,0,0,1-7.12-.125c.718-.221,1.346.222,2.033.278a11.086,11.086,0,0,0,3.946-.117A4.737,4.737,0,0,1,182.67,1566.882Z" transform="translate(-151.513 -1513.14)" fill="#373737"/>
        <path id="Trazado_626473" data-name="Trazado 626473" d="M472.684,1412.629c.133,0,.341-.054.387.009.617.855.969.058,1.38-.224.234-.161.4-.439.745-.3-.206.23-.4.468-.621.687C473.579,1413.811,473.577,1413.809,472.684,1412.629Z" transform="translate(-408.322 -1379.505)" fill="#e1a30f"/>
        <path id="Trazado_626474" data-name="Trazado 626474" d="M452.382,1425.791c-.759.182-.979-.484-1.367-.879-.088-.09-.123-.332-.186-.333-.7-.011-.547-.552-.616-.955A17.384,17.384,0,0,1,452.382,1425.791Z" transform="translate(-388.902 -1389.486)" fill="#e1a30f"/>
        <path id="Trazado_626475" data-name="Trazado 626475" d="M132.132,1382.034c.019-.213-.016-.39-.278-.415a.7.7,0,0,1,.382-.315c.058.089.118.225.237.1.07-.073-.023-.152-.1-.2a6.645,6.645,0,0,1,2.2-1.35Z" transform="translate(-113.748 -1351.658)" fill="#b6d2ea"/>
        <path id="Trazado_626476" data-name="Trazado 626476" d="M490.471,1440.682c-.3,1.256.1,2.567-.306,3.814q-.023-1.645-.048-3.291A.564.564,0,0,1,490.471,1440.682Z" transform="translate(-423.39 -1404.229)" fill="#e1a30f"/>
        <path id="Trazado_626477" data-name="Trazado 626477" d="M155.073,1557.349a8.965,8.965,0,0,1-2.959-1.459,1.4,1.4,0,0,1,1.145.384,4.887,4.887,0,0,0,1.077.485C154.615,1556.9,155.009,1556.928,155.073,1557.349Z" transform="translate(-131.258 -1503.795)" fill="#373737"/>
        <path id="Trazado_626478" data-name="Trazado 626478" d="M216.52,1468.95c-.051.129,0,.366-.233.325a8.331,8.331,0,0,0-2.246-.023c-.2.02-.243-.154-.284-.306l.026-.024,2.713.008Z" transform="translate(-184.535 -1428.636)" fill="#342e19"/>
        <path id="Trazado_626479" data-name="Trazado 626479" d="M135.772,1541.6a6.294,6.294,0,0,1-1.734-1.625A2.973,2.973,0,0,1,135.772,1541.6Z" transform="translate(-115.635 -1490.049)" fill="#373737"/>
        <path id="Trazado_626480" data-name="Trazado 626480" d="M503.838,1396.487a1,1,0,0,1,1.172-.488c.537.145,1.191.271,1.118,1.087C505.462,1396.122,504.956,1395.989,503.838,1396.487Z" transform="translate(-435.248 -1365.575)" fill="#e1a30f"/>
        <path id="Trazado_626481" data-name="Trazado 626481" d="M456.677,1400.05c1-.045,1-.045.954.949A3.368,3.368,0,0,1,456.677,1400.05Z" transform="translate(-394.488 -1369.098)" fill="#e1a30f"/>
        <path id="Trazado_626482" data-name="Trazado 626482" d="M254.947,1460.12a5.643,5.643,0,0,0,2.122.105c.3,0,.462-.216.45-.55-.008-.213-.082-.452.112-.635.071,1.368.071,1.368-1.28,1.37-.362,0-.723,0-1.085,0C255.072,1460.407,254.889,1460.4,254.947,1460.12Z" transform="translate(-220.126 -1420.095)" fill="#fac6a1"/>
        <path id="Trazado_626483" data-name="Trazado 626483" d="M441.15,1413.873c-.864-.211-1.108-.476-1.116-1.213Z" transform="translate(-380.103 -1380.009)" fill="#e1a30f"/>
        <path id="Trazado_626484" data-name="Trazado 626484" d="M121.746,1521.687a4.862,4.862,0,0,1-.956-1.609A2.166,2.166,0,0,1,121.746,1521.687Z" transform="translate(-104.185 -1472.849)" fill="#373737"/>
        <path id="Trazado_626485" data-name="Trazado 626485" d="M420.022,1265.462l-.16-.128a4.558,4.558,0,0,1,1.346-.717C420.957,1265.1,420.445,1265.221,420.022,1265.462Z" transform="translate(-362.669 -1252.058)" fill="#f2a974"/>
        <path id="Trazado_626486" data-name="Trazado 626486" d="M495.817,1401.261c.074-.611.326-1.045,1.027-1.031A5.251,5.251,0,0,1,495.817,1401.261Z" transform="translate(-428.316 -1369.266)" fill="#e1a30f"/>
        <path id="Trazado_626487" data-name="Trazado 626487" d="M464.7,1408.144c.617.014.838.426.95.947A3.247,3.247,0,0,1,464.7,1408.144Z" transform="translate(-401.426 -1376.106)" fill="#e1a30f"/>
        <path id="Trazado_626488" data-name="Trazado 626488" d="M237.935,1366.8c.3.32.421.564.191.854-.031.039-.157.063-.171.044C237.762,1367.443,237.826,1367.176,237.935,1366.8Z" transform="translate(-205.342 -1340.374)" fill="#342e19"/>
        <path id="Trazado_626489" data-name="Trazado 626489" d="M439.338,1399.071c-.028-.545.153-.9.775-.872A2.577,2.577,0,0,0,439.338,1399.071Z" transform="translate(-379.5 -1367.51)" fill="#e1a30f"/>
        <path id="Trazado_626490" data-name="Trazado 626490" d="M491.039,1408.51c-.15-.555.214-.589.6-.594A1.8,1.8,0,0,1,491.039,1408.51Z" transform="translate(-424.156 -1375.909)" fill="#e1a30f"/>
        <path id="Trazado_626491" data-name="Trazado 626491" d="M461.589,1602.287l-1.334.023A2.483,2.483,0,0,1,461.589,1602.287Z" transform="translate(-397.58 -1543.832)" fill="#e1a30f"/>
        <path id="Trazado_626492" data-name="Trazado 626492" d="M520.919,1404.945c.418.223.4.453.011.688Q520.924,1405.289,520.919,1404.945Z" transform="translate(-450.011 -1373.342)" fill="#e1a30f"/>
        <path id="Trazado_626493" data-name="Trazado 626493" d="M445.055,1396.24c.161-.361.377-.424.66-.122Z" transform="translate(-384.443 -1365.546)" fill="#e1a30f"/>
        <path id="Trazado_626494" data-name="Trazado 626494" d="M473.887,1602.294h-1.295A2.7,2.7,0,0,1,473.887,1602.294Z" transform="translate(-408.243 -1543.839)" fill="#e1a30f"/>
        <path id="Trazado_626495" data-name="Trazado 626495" d="M302.08,1425.59c-.33-.064-.224-.331-.251-.537A.676.676,0,0,1,302.08,1425.59Z" transform="translate(-260.655 -1390.721)" fill="#2571b3"/>
        <path id="Trazado_626496" data-name="Trazado 626496" d="M452.877,1397.318c.264-.218.316-.009.374.186Z" transform="translate(-391.203 -1366.67)" fill="#e1a30f"/>
        <path id="Trazado_626497" data-name="Trazado 626497" d="M487.224,1602.347l-.606,0A.694.694,0,0,1,487.224,1602.347Z" transform="translate(-420.365 -1543.895)" fill="#e1a30f"/>
        <path id="Trazado_626498" data-name="Trazado 626498" d="M132.193,1537.413a.3.3,0,0,1-.227-.31C132.188,1537.1,132.232,1537.227,132.193,1537.413Z" transform="translate(-113.845 -1487.564)" fill="#373737"/>
        <path id="Trazado_626499" data-name="Trazado 626499" d="M134.807,1389.808c.078.046.171.124.1.2-.119.125-.179-.012-.237-.1Z" transform="translate(-116.181 -1360.259)" fill="#dee9f5"/>
        <path id="Trazado_626500" data-name="Trazado 626500" d="M149.974,1554.309a.45.45,0,0,1-.3-.223C149.847,1554.055,149.957,1554.118,149.974,1554.309Z" transform="translate(-129.145 -1502.235)" fill="#373737"/>
        <path id="Trazado_626501" data-name="Trazado 626501" d="M147.061,1552.161l-.124-.111Z" transform="translate(-126.784 -1500.482)" fill="#373737"/>
        <path id="Trazado_626502" data-name="Trazado 626502" d="M131.07,1536.228l-.107-.1Z" transform="translate(-112.978 -1486.721)" fill="#373737"/>
        <path id="Trazado_626503" data-name="Trazado 626503" d="M128.485,1533.122l-.073-.087A.114.114,0,0,1,128.485,1533.122Z" transform="translate(-110.773 -1484.049)" fill="#373737"/>
        <path id="Trazado_626504" data-name="Trazado 626504" d="M466.331,1439.758c-.1.01-.14-.034-.137-.13Z" transform="translate(-402.713 -1403.318)" fill="#e1a30f"/>
        <path id="Trazado_626505" data-name="Trazado 626505" d="M492.846,1602.467l-.194,0A.12.12,0,0,1,492.846,1602.467Z" transform="translate(-425.58 -1544.014)" fill="#e1a30f"/>
        <path id="Trazado_626506" data-name="Trazado 626506" d="M449.381,1422.738c-.095.007-.136-.038-.126-.132Z" transform="translate(-388.072 -1388.605)" fill="#e1a30f"/>
        <path id="Trazado_626507" data-name="Trazado 626507" d="M448.386,1421.731q-.145.015-.131-.13Z" transform="translate(-387.207 -1387.737)" fill="#e1a30f"/>
        <path id="Trazado_626508" data-name="Trazado 626508" d="M471.7,1415.106l.138.143Z" transform="translate(-407.474 -1382.123)" fill="#e1a30f"/>
        <path id="Trazado_626509" data-name="Trazado 626509" d="M520.736,1410.247l-.009.048-.026-.022Z" transform="translate(-449.823 -1377.924)" fill="#e1a30f"/>
        <path id="Trazado_626510" data-name="Trazado 626510" d="M463.69,1407.1l.14.141Z" transform="translate(-400.549 -1375.208)" fill="#e1a30f"/>
        <path id="Trazado_626511" data-name="Trazado 626511" d="M455.6,1399.227l.154.128Z" transform="translate(-393.553 -1368.4)" fill="#e1a30f"/>
        <path id="Trazado_626512" data-name="Trazado 626512" d="M149.8,1577.947l.153.143C149.886,1578.063,149.774,1578.08,149.8,1577.947Z" transform="translate(-129.256 -1522.865)" fill="#dee9f5"/>
        <path id="Trazado_626513" data-name="Trazado 626513" d="M151.949,1379.037l-.135.127C151.791,1379.05,151.872,1379.045,151.949,1379.037Z" transform="translate(-130.995 -1350.95)" fill="#b6d2ea"/>
        <path id="Trazado_626514" data-name="Trazado 626514" d="M176.265,1233.649q6.167,0,12.334,0a1.385,1.385,0,1,1,.253,2.757c-.315.019-.632.006-.949.006q-11.961,0-23.922,0c-1.033,0-1.7-.6-1.639-1.46a1.407,1.407,0,0,1,1.521-1.3q4.879-.01,9.759,0h2.643Z" transform="translate(-140.095 -1225.289)" fill="#282829"/>
        <path id="Trazado_626515" data-name="Trazado 626515" d="M174.306,1277.467q-5.116,0-10.233,0c-.916,0-1.423-.338-1.6-1.045a1.365,1.365,0,0,1,1.175-1.719,3.435,3.435,0,0,1,.406-.014q10.232,0,20.465,0a1.444,1.444,0,0,1,1.369.7,1.308,1.308,0,0,1-.031,1.413,1.465,1.465,0,0,1-1.386.669c-3.388-.009-6.776,0-10.165,0Z" transform="translate(-140.171 -1260.759)" fill="#282829"/>
        <path id="Trazado_626516" data-name="Trazado 626516" d="M411.282,1275.913a1.379,1.379,0,0,1-1.512,1.387,9.835,9.835,0,0,0-6.157,2.315,9.944,9.944,0,0,0-2.022,2.354,1.427,1.427,0,1,1-2.378-1.495,12.462,12.462,0,0,1,10.5-5.969A1.4,1.4,0,0,1,411.282,1275.913Z" transform="translate(-344.522 -1260.603)" fill="#282829"/>
        <path id="Trazado_626517" data-name="Trazado 626517" d="M390.615,1357.829a1.407,1.407,0,0,1-1.363,1.4,1.378,1.378,0,0,1-1.441-1.384,1.4,1.4,0,1,1,2.8-.02Zm-2.522.049a1.344,1.344,0,0,0,1.206,1.069,2.878,2.878,0,0,0,1.1-1.037,1.783,1.783,0,0,0-1.306-1.25A1.37,1.37,0,0,0,388.092,1357.878Z" transform="translate(-334.967 -1331.413)" fill="#342e19"/>
        <path id="Trazado_626518" data-name="Trazado 626518" d="M382.413,1310.311a8.052,8.052,0,0,1,1.242-3.077,7.7,7.7,0,0,1-.754,1.99A2.979,2.979,0,0,1,382.413,1310.311Z" transform="translate(-330.302 -1288.891)" fill="#f2a974"/>
        <path id="Trazado_626519" data-name="Trazado 626519" d="M376.98,1359.4a4.468,4.468,0,0,1,.013-2.248A8.868,8.868,0,0,1,376.98,1359.4Z" transform="translate(-325.488 -1332.034)" fill="#f2a974"/>
        <path id="Trazado_626520" data-name="Trazado 626520" d="M386.071,1411.1a5.582,5.582,0,0,1-.87-1.988A4.377,4.377,0,0,1,386.071,1411.1Z" transform="translate(-332.712 -1376.946)" fill="#f2a974"/>
        <path id="Trazado_626521" data-name="Trazado 626521" d="M394.093,1293.446a2.713,2.713,0,0,1,.97-1.483A3.491,3.491,0,0,1,394.093,1293.446Z" transform="translate(-340.397 -1275.693)" fill="#f2a974"/>
        <path id="Trazado_626522" data-name="Trazado 626522" d="M378.116,1378.065a2.935,2.935,0,0,1-.253-1.691A4.46,4.46,0,0,1,378.116,1378.065Z" transform="translate(-326.351 -1348.648)" fill="#f2a974"/>
        <path id="Trazado_626523" data-name="Trazado 626523" d="M381.957,1398.658a2.955,2.955,0,0,1-.406-1.417A2.1,2.1,0,0,1,381.957,1398.658Z" transform="translate(-329.557 -1366.683)" fill="#f2a974"/>
        <path id="Trazado_626524" data-name="Trazado 626524" d="M405.072,1280.841a1.669,1.669,0,0,1,.842-.929C405.851,1280.42,405.45,1280.619,405.072,1280.841Z" transform="translate(-349.886 -1265.277)" fill="#f2a974"/>
        <path id="Trazado_626525" data-name="Trazado 626525" d="M377.94,1345.8a1.1,1.1,0,0,1,.109-.963C378.129,1345.167,378.255,1345.506,377.94,1345.8Z" transform="translate(-326.387 -1321.387)" fill="#f2a974"/>
        <path id="Trazado_626526" data-name="Trazado 626526" d="M380.109,1333.924a.944.944,0,0,1,.213-.784A.688.688,0,0,1,380.109,1333.924Z" transform="translate(-328.293 -1311.281)" fill="#f2a974"/>
        <path id="Trazado_626527" data-name="Trazado 626527" d="M402.066,1288.328c-.013-.217.115-.32.3-.374C402.42,1288.2,402.289,1288.3,402.066,1288.328Z" transform="translate(-347.287 -1272.228)" fill="#f2a974"/>
        <path id="Trazado_626528" data-name="Trazado 626528" d="M411.747,1277.3a.3.3,0,0,1,.359-.312C412.115,1277.242,411.933,1277.274,411.747,1277.3Z" transform="translate(-355.655 -1262.749)" fill="#f2a974"/>
        <path id="Trazado_626529" data-name="Trazado 626529" d="M380.2,1392.374c-.163-.109-.139-.26-.092-.415A.251.251,0,0,1,380.2,1392.374Z" transform="translate(-328.281 -1362.118)" fill="#f2a974"/>
        <path id="Trazado_626530" data-name="Trazado 626530" d="M392.058,1304.183a.2.2,0,0,1,.178-.245Q392.305,1304.175,392.058,1304.183Z" transform="translate(-338.635 -1286.042)" fill="#f2a974"/>
        <path id="Trazado_626531" data-name="Trazado 626531" d="M418.864,1271.37a.3.3,0,0,1,.251-.179C419.116,1271.37,419.008,1271.4,418.864,1271.37Z" transform="translate(-361.806 -1257.74)" fill="#f2a974"/>
        <path id="Trazado_626532" data-name="Trazado 626532" d="M379.76,1342.3l.006-.053.038.05Z" transform="translate(-328.009 -1319.151)" fill="#f2a974"/>
        <path id="Trazado_626533" data-name="Trazado 626533" d="M416.94,1274.08c0-.034.015-.05.049-.048,0,0,0,.053,0,.053Z" transform="translate(-360.143 -1260.195)" fill="#f2a974"/>
        <path id="Trazado_626534" data-name="Trazado 626534" d="M275.195,1398.08a4.423,4.423,0,0,1,0,2Q275.194,1399.081,275.195,1398.08Z" transform="translate(-237.634 -1367.408)" fill="#282829"/>
        <path id="Trazado_626535" data-name="Trazado 626535" d="M275.236,1338.053a.144.144,0,0,1,0,.251Z" transform="translate(-237.668 -1315.528)" fill="#282829"/>
        <path id="Trazado_626536" data-name="Trazado 626536" d="M216.513,1366.984q0,4.4,0,8.8c-.948.292-1.706,1-2.686,1.221-.007-3.172-.008-6.344-.03-9.517,0-.428.156-.537.554-.521C215.072,1367,215.793,1366.98,216.513,1366.984Z" transform="translate(-184.571 -1340.517)" fill="#febe00"/>
        <path id="Trazado_626537" data-name="Trazado 626537" d="M213.96,1433.167c.979-.221,1.738-.929,2.686-1.221q.009,2.513.018,5.026l-2.713-.008Q213.955,1435.066,213.96,1433.167Z" transform="translate(-184.703 -1396.678)" fill="#e1a30f"/>
        <path id="Trazado_626538" data-name="Trazado 626538" d="M389.889,1359.33a1.37,1.37,0,0,1,.995-1.217,1.783,1.783,0,0,1,1.306,1.25,2.879,2.879,0,0,1-1.1,1.037A1.345,1.345,0,0,1,389.889,1359.33Z" transform="translate(-336.764 -1332.865)" fill="#282829"/>
      </g>
    </g>
  </g>
</svg>
