<svg xmlns="http://www.w3.org/2000/svg" xmlns:xlink="http://www.w3.org/1999/xlink" width="103" height="103" viewBox="0 0 103 103">
  <defs>
    <filter id="Elipse_7545" x="0" y="0" width="103" height="103" filterUnits="userSpaceOnUse">
      <feOffset dy="3" input="SourceAlpha"/>
      <feGaussianBlur stdDeviation="3" result="blur"/>
      <feFlood flood-opacity="0.161"/>
      <feComposite operator="in" in2="blur"/>
      <feComposite in="SourceGraphic"/>
    </filter>
  </defs>
  <g id="Grupo_947549" data-name="Grupo 947549" transform="translate(-802.349 -2935.406)">
    <g transform="matrix(1, 0, 0, 1, 802.35, 2935.41)" filter="url(#Elipse_7545)">
      <circle id="Elipse_7545-2" data-name="Elipse 7545" cx="42.5" cy="42.5" r="42.5" transform="translate(9 6)" fill="#f3c035"/>
    </g>
    <g id="BrV1BL" transform="translate(-59.604 1674.2)">
      <g id="Grupo_946598" data-name="Grupo 946598" transform="translate(872.605 1272.41)">
        <path id="Trazado_626539" data-name="Trazado 626539" d="M946.666,1442.1a1.3,1.3,0,0,1,1.189,1.457c0,7.435.036,14.871-.017,22.306a6.842,6.842,0,0,1-4.932,6.689c-.3.093-.674-.043-.916.255H878.44c-.028-.12-.125-.137-.227-.168a6.913,6.913,0,0,1-5.327-7.181q-.005-17.984,0-35.969,0-6.267,0-12.534c0-1.036.214-1.313,1.187-1.633,1.023.329,1.216.605,1.216,1.767q0,24.123,0,48.245a6.5,6.5,0,0,0,.116,1.7c.627,2.358,2.544,3.575,5.374,3.4.129.01.258.029.387.029l59.714,0a4.664,4.664,0,0,0,1.522-.259,4.459,4.459,0,0,0,3.046-4.555q.01-10.938,0-21.876C945.457,1442.671,945.677,1442.374,946.666,1442.1Z" transform="translate(-872.841 -1393.009)" fill="#0e0e0e"/>
        <path id="Trazado_626540" data-name="Trazado 626540" d="M978.377,1334.389c-.989.276-1.209.572-1.209,1.679q0,10.938,0,21.876a4.46,4.46,0,0,1-3.046,4.555,4.665,4.665,0,0,1-1.522.259l-59.714,0c-.129,0-.258-.019-.387-.029-.022-.293-.251-.447-.436-.62a5.131,5.131,0,0,1-1.585-3.912q-.023-32.97-.008-65.939a6.939,6.939,0,0,1,.559-2.475c.318-.836,1.106-1.291,1.47-2.065.155-.01.31-.029.465-.029q29.808,0,59.615,0a4.749,4.749,0,0,1,1.524.25,4.485,4.485,0,0,1,3.067,4.618q.007,14.9,0,29.807,0,4.086,0,8.171c0,1.042.261,1.367,1.209,1.58Q978.377,1333.25,978.377,1334.389ZM943.6,1344.85a13.97,13.97,0,1,0,13.977-14A14,14,0,0,0,943.6,1344.85Zm0-30.807c0,3.4-.02,6.8.007,10.2a3.346,3.346,0,0,0,3.541,3.49c1.713.009,3.426.013,5.139,0a3.346,3.346,0,0,0,3.394-2.906,4.929,4.929,0,0,0,.078-.849c0-6.644-.015-13.288.013-19.932a3.585,3.585,0,0,0-3.792-3.781,35.635,35.635,0,0,1-4.591,0,3.576,3.576,0,0,0-3.813,3.818C943.661,1307.4,943.594,1310.721,943.6,1314.043Zm-3.692,1.514c0-2.88,0-5.76,0-8.641a3.373,3.373,0,0,0-3.413-3.551q-2.645-.062-5.293,0a3.389,3.389,0,0,0-3.44,3.536q-.011,8.64,0,17.281a3.4,3.4,0,0,0,3.5,3.549q2.569.02,5.138,0a3.381,3.381,0,0,0,3.506-3.533C939.91,1321.317,939.9,1318.437,939.9,1315.557Zm31.636,1.879c0-2.283.012-4.567,0-6.85a3.411,3.411,0,0,0-3.433-3.551c-1.737-.049-3.477-.045-5.215,0a3.451,3.451,0,0,0-3.5,3.514q-.036,6.849,0,13.7a3.411,3.411,0,0,0,3.5,3.484c1.686.014,3.373.009,5.059,0a3.378,3.378,0,0,0,3.589-3.6C971.549,1321.9,971.54,1319.668,971.54,1317.436Zm-47.44.778c0-2,.026-3.993-.007-5.989a3.477,3.477,0,0,0-3.739-3.655c-1.478,0-2.956,0-4.434,0-2.636,0-4,1.37-4,4.031q0,3.734,0,7.467c0,1.426-.049,2.854.02,4.277a3.371,3.371,0,0,0,3.575,3.389c1.582.008,3.169-.081,4.744.023a3.573,3.573,0,0,0,3.851-3.864C924.057,1322,924.1,1320.107,924.1,1318.215Zm-.55,25.477q-4.9,0-9.807,0a5.881,5.881,0,0,0-.853.04,1.027,1.027,0,0,0-.926,1,1.09,1.09,0,0,0,.746,1.22,2.448,2.448,0,0,0,.92.112q9.846,0,19.692,0a2.49,2.49,0,0,0,.92-.112A1.094,1.094,0,0,0,935,1344.8a1.055,1.055,0,0,0-.944-1.071,6.007,6.007,0,0,0-.853-.039Q928.376,1343.69,923.55,1343.692Zm-.032-6.789q-5.06,0-10.119,0c-.923,0-1.437.408-1.452,1.14-.016.755.523,1.2,1.482,1.2q10.041,0,20.083,0c.078,0,.156,0,.234,0a1.2,1.2,0,0,0,1.27-1.187,1.18,1.18,0,0,0-1.3-1.146Q928.617,1336.9,923.518,1336.9Zm-.079,15.907q2.8,0,5.6,0c1.609,0,3.217,0,4.825-.01a1.059,1.059,0,0,0,1.122-1.057,1.136,1.136,0,0,0-.939-1.246,2.294,2.294,0,0,0-.619-.033q-9.963,0-19.925,0c-1.008,0-1.574.444-1.559,1.21s.512,1.135,1.528,1.136Q918.458,1352.813,923.44,1352.81Zm18.643-55.5a6.237,6.237,0,0,0,4.433-1.927,1.207,1.207,0,0,0,.143-1.79,1.229,1.229,0,0,0-1.79.108,3.728,3.728,0,0,1-5.579,0,1.229,1.229,0,0,0-1.791-.1,1.182,1.182,0,0,0,.1,1.73A6.218,6.218,0,0,0,942.083,1297.314Zm13.045-4.2h0c0,.517-.036,1.037.009,1.55a1.141,1.141,0,0,0,2.229.153,9.781,9.781,0,0,0-.009-3.388,1.142,1.142,0,0,0-2.226.212C955.1,1292.126,955.128,1292.62,955.128,1293.111Zm-26.09.017h.008c0-.466.022-.933-.005-1.4a1.056,1.056,0,0,0-1.063-1.1,1.034,1.034,0,0,0-1.22.93,11.986,11.986,0,0,0,0,3.168,1.148,1.148,0,0,0,2.269-.124C929.068,1294.112,929.038,1293.619,929.038,1293.128Z" transform="translate(-904.552 -1285.299)" fill="#d3d2d1"/>
        <path id="Trazado_626541" data-name="Trazado 626541" d="M946.431,1319.221c-.948-.213-1.207-.538-1.209-1.58q-.008-4.086,0-8.172,0-14.9,0-29.807a4.485,4.485,0,0,0-3.067-4.618,4.75,4.75,0,0,0-1.524-.25q-29.807,0-59.615,0c-.155,0-.31.019-.465.029a4.72,4.72,0,0,0-5.523,5.1c.138,3.651.035,7.312.029,10.969,0,1.017-.269,1.344-1.23,1.571a1.187,1.187,0,0,1-1.158-1.235c.015-4.229-.195-8.464.09-12.684a6.679,6.679,0,0,1,6.7-6.089q23.045-.012,46.091,0c4.853,0,9.711.136,14.557-.042a7.2,7.2,0,0,1,7.544,7.6c-.1,9.887-.029,19.775-.029,29.662,0,2.673.006,5.346,0,8.019C947.613,1318.683,947.342,1319.009,946.431,1319.221Z" transform="translate(-872.605 -1272.41)" fill="#0e0e0e"/>
        <path id="Trazado_626542" data-name="Trazado 626542" d="M880.408,1305.281c.961-.228,1.229-.554,1.23-1.571.005-3.657.109-7.318-.03-10.969a4.72,4.72,0,0,1,5.523-5.1c-.364.774-1.152,1.229-1.47,2.065a6.94,6.94,0,0,0-.559,2.474q0,32.97.008,65.939a5.13,5.13,0,0,0,1.585,3.912c.185.173.414.327.436.62-2.83.171-4.746-1.046-5.374-3.4a6.5,6.5,0,0,1-.116-1.7q0-24.122,0-48.245c0-1.162-.194-1.439-1.216-1.767Q880.416,1306.407,880.408,1305.281Z" transform="translate(-879.19 -1285.221)" fill="#aba9b4"/>
        <path id="Trazado_626543" data-name="Trazado 626543" d="M1122.711,1578.193A13.97,13.97,0,1,1,1136.6,1592.2,14,14,0,0,1,1122.711,1578.193Zm4.946,7.3a1.14,1.14,0,0,0,.185-.125q3.689-3.683,7.381-7.363a1.123,1.123,0,0,0,.3-.909c-.005-3.242-.026-6.484.015-9.725.009-.75-.269-.76-.858-.648a12.351,12.351,0,0,0-5.89,2.921A11.651,11.651,0,0,0,1127.656,1585.494Zm10.2-13.672c0,1.531.013,3.063-.008,4.594-.006.44.06.646.581.642,3.089-.024,6.177-.019,9.266,0,.462,0,.54-.124.477-.586a11.677,11.677,0,0,0-9.787-9.791c-.39-.06-.546.036-.539.474C1137.875,1568.708,1137.859,1570.265,1137.859,1571.823Zm-1.2,18.035a11.946,11.946,0,0,0,6.884-2.257c.375-.271.485-.412.1-.794q-3.327-3.271-6.6-6.6c-.295-.3-.441-.26-.712.013q-3.283,3.315-6.6,6.6c-.324.321-.323.466.059.745A11.958,11.958,0,0,0,1136.654,1589.857Zm3.073-10.45,6,6.035a11.17,11.17,0,0,0,2.442-5.476c.051-.451-.032-.579-.491-.569-1.269.028-2.539.01-3.809.01Z" transform="translate(-1083.664 -1518.642)" fill="#0b0a0a"/>
        <path id="Trazado_626544" data-name="Trazado 626544" d="M1122.554,1381.976c0-3.322.066-6.646-.024-9.966a3.576,3.576,0,0,1,3.813-3.817,35.657,35.657,0,0,0,4.591,0,3.585,3.585,0,0,1,3.792,3.781c-.028,6.644-.009,13.288-.013,19.932a4.94,4.94,0,0,1-.078.849,3.346,3.346,0,0,1-3.394,2.906c-1.713.015-3.426.011-5.139,0a3.346,3.346,0,0,1-3.541-3.49C1122.534,1388.776,1122.554,1385.375,1122.554,1381.976Zm6.109,11.317c.647.009,1.294.024,1.942.025,1.5,0,1.762-.262,1.762-1.75q0-9.64,0-19.28a4.3,4.3,0,0,0-.041-.773,1.034,1.034,0,0,0-1.121-.954l-2.641.034c-.673-.011-1.346-.03-2.018-.032-1.417,0-1.636.222-1.636,1.671q0,4.936,0,9.872t0,9.872c0,1.022.326,1.338,1.344,1.34C1127.057,1393.318,1127.86,1393.3,1128.663,1393.293Z" transform="translate(-1083.51 -1353.232)" fill="#0b0a0a"/>
        <path id="Trazado_626545" data-name="Trazado 626545" d="M1033.357,1400.159c0,2.88.006,5.76,0,8.641a3.38,3.38,0,0,1-3.506,3.533q-2.569.018-5.138,0a3.4,3.4,0,0,1-3.5-3.549q-.01-8.64,0-17.281a3.389,3.389,0,0,1,3.439-3.536q2.646-.058,5.293,0a3.373,3.373,0,0,1,3.413,3.551Q1033.364,1395.839,1033.357,1400.159Zm-6.068-9.8c-.725-.011-1.449-.031-2.173-.033-1.241,0-1.567.321-1.568,1.546q0,4.509,0,9.018c0,2.566,0,5.131,0,7.7,0,1.02.391,1.4,1.408,1.4.777,0,1.553-.017,2.33-.026.751.01,1.5.027,2.254.028,1.131,0,1.476-.343,1.476-1.473q0-5.8,0-11.591c0-1.789.007-3.578,0-5.368,0-.815-.378-1.215-1.162-1.228C1029,1390.315,1028.143,1390.347,1027.289,1390.359Z" transform="translate(-998.005 -1369.901)" fill="#080808"/>
        <path id="Trazado_626546" data-name="Trazado 626546" d="M1235.923,1421.846c0,2.231.009,4.463,0,6.694a3.378,3.378,0,0,1-3.589,3.6c-1.687.008-3.373.012-5.06,0a3.411,3.411,0,0,1-3.5-3.484q-.035-6.849,0-13.7a3.452,3.452,0,0,1,3.5-3.514c1.737-.043,3.478-.048,5.215,0a3.411,3.411,0,0,1,3.433,3.552C1235.935,1417.28,1235.923,1419.563,1235.923,1421.846Zm-6.087,7.921c.881.01,1.763.038,2.643.023a1.016,1.016,0,0,0,1.091-1.13q.014-6.847,0-13.694a.952.952,0,0,0-.792-1.072c-.249-.2-.546-.127-.823-.127-1.424,0-2.848.016-4.272.029-1.211.011-1.564.366-1.565,1.592q0,5.089,0,10.178c0,.984-.018,1.969.006,2.952.021.886.423,1.269,1.3,1.273C1228.231,1429.8,1229.033,1429.776,1229.835,1429.767Z" transform="translate(-1168.935 -1389.709)" fill="#080808"/>
        <path id="Trazado_626547" data-name="Trazado 626547" d="M931.9,1431.1c0,1.893-.044,3.787.011,5.678a3.573,3.573,0,0,1-3.851,3.864c-1.575-.1-3.162-.015-4.744-.023a3.371,3.371,0,0,1-3.575-3.389c-.069-1.423-.019-2.851-.02-4.277q0-3.734,0-7.467c0-2.661,1.362-4.03,4-4.031,1.478,0,2.956,0,4.434,0a3.477,3.477,0,0,1,3.739,3.655C931.93,1427.106,931.9,1429.1,931.9,1431.1Zm-3.311-7.211a49.622,49.622,0,0,0-5.434-.053,1.018,1.018,0,0,0-1.039,1.127q0,.506,0,1.012,0,5.45,0,10.9c0,1.071.329,1.391,1.391,1.391.752,0,1.5-.017,2.256-.027.855.01,1.709.033,2.564.024a1.042,1.042,0,0,0,1.182-1.2q.016-6.025,0-12.05A.979.979,0,0,0,928.594,1423.889Z" transform="translate(-912.356 -1398.184)" fill="#130f0d"/>
        <path id="Trazado_626548" data-name="Trazado 626548" d="M931.621,1646.432q4.826,0,9.651,0a6.008,6.008,0,0,1,.853.039,1.055,1.055,0,0,1,.944,1.071,1.094,1.094,0,0,1-.758,1.145,2.492,2.492,0,0,1-.92.112q-9.846,0-19.692,0a2.448,2.448,0,0,1-.92-.112,1.09,1.09,0,0,1-.746-1.22,1.026,1.026,0,0,1,.926-1,5.882,5.882,0,0,1,.853-.04Q926.717,1646.43,931.621,1646.432Z" transform="translate(-912.622 -1588.039)" fill="#0e0e0e"/>
        <path id="Trazado_626549" data-name="Trazado 626549" d="M931.541,1602.944q5.1,0,10.2,0a1.18,1.18,0,0,1,1.3,1.146,1.2,1.2,0,0,1-1.27,1.187c-.078,0-.156,0-.234,0q-10.042,0-20.083,0c-.959,0-1.5-.441-1.482-1.2.016-.732.529-1.139,1.452-1.14Q926.481,1602.942,931.541,1602.944Z" transform="translate(-912.574 -1551.34)" fill="#080808"/>
        <path id="Trazado_626550" data-name="Trazado 626550" d="M931.478,1692.136q-4.981,0-9.962,0c-1.016,0-1.513-.375-1.528-1.135s.551-1.209,1.559-1.21q9.963,0,19.925,0a2.294,2.294,0,0,1,.619.033,1.136,1.136,0,0,1,.939,1.246,1.059,1.059,0,0,1-1.122,1.057c-1.608.014-3.217.009-4.825.01Z" transform="translate(-912.59 -1624.625)" fill="#080808"/>
        <path id="Trazado_626551" data-name="Trazado 626551" d="M1086.435,1327.451a6.218,6.218,0,0,1-4.485-1.983,1.182,1.182,0,0,1-.1-1.73,1.229,1.229,0,0,1,1.791.1,3.728,3.728,0,0,0,5.579,0,1.229,1.229,0,0,1,1.79-.108,1.207,1.207,0,0,1-.143,1.79A6.237,6.237,0,0,1,1086.435,1327.451Z" transform="translate(-1048.904 -1315.436)" fill="#0e0e0e"/>
        <path id="Trazado_626552" data-name="Trazado 626552" d="M1196.5,1308.99c0-.491-.03-.985.008-1.473a1.142,1.142,0,0,1,2.226-.212,9.785,9.785,0,0,1,.009,3.388,1.141,1.141,0,0,1-2.229-.153c-.046-.513-.009-1.033-.009-1.55Z" transform="translate(-1145.924 -1301.179)" fill="#0e0e0e"/>
        <path id="Trazado_626553" data-name="Trazado 626553" d="M1016.561,1309.012c0,.491.03.985-.008,1.473a1.148,1.148,0,0,1-2.269.124,11.991,11.991,0,0,1,0-3.168,1.035,1.035,0,0,1,1.22-.93,1.056,1.056,0,0,1,1.063,1.1c.028.464.005.931.005,1.4Z" transform="translate(-992.075 -1301.184)" fill="#0e0e0e"/>
        <path id="Trazado_626554" data-name="Trazado 626554" d="M1140.411,1598.881a11.651,11.651,0,0,1,1.133-15.849,12.353,12.353,0,0,1,5.89-2.921c.589-.112.867-.1.858.648-.041,3.241-.02,6.483-.015,9.725a1.123,1.123,0,0,1-.3.909q-3.7,3.668-7.381,7.363A1.14,1.14,0,0,1,1140.411,1598.881Z" transform="translate(-1096.418 -1532.029)" fill="#a188be"/>
        <path id="Trazado_626555" data-name="Trazado 626555" d="M1219.684,1585.145c0-1.557.016-3.115-.01-4.672-.007-.438.149-.534.539-.474a11.677,11.677,0,0,1,9.787,9.791c.062.462-.016.588-.477.586-3.089-.014-6.178-.02-9.266,0-.521,0-.587-.2-.581-.642C1219.7,1588.208,1219.684,1586.677,1219.684,1585.145Z" transform="translate(-1165.489 -1531.965)" fill="#4db39e"/>
        <path id="Trazado_626556" data-name="Trazado 626556" d="M1173.3,1675.288a11.964,11.964,0,0,1-6.87-2.292c-.381-.28-.383-.424-.059-.745q3.317-3.281,6.6-6.6c.271-.273.417-.311.712-.013q3.277,3.321,6.6,6.6c.389.382.279.522-.1.794A11.952,11.952,0,0,1,1173.3,1675.288Z" transform="translate(-1120.312 -1604.072)" fill="#f3c035"/>
        <path id="Trazado_626557" data-name="Trazado 626557" d="M1231.708,1661.575h4.143c1.27,0,2.54.018,3.809-.01.46-.01.542.117.492.569a11.169,11.169,0,0,1-2.442,5.476Z" transform="translate(-1175.644 -1600.809)" fill="#f1683f"/>
        <path id="Trazado_626558" data-name="Trazado 626558" d="M1160.085,1383.441l2.641-.034a1.034,1.034,0,0,1,1.121.954,4.314,4.314,0,0,1,.041.773q0,9.64,0,19.28c0,1.489-.266,1.754-1.762,1.75-.647,0-1.294-.016-1.942-.025a2.479,2.479,0,0,1-.3-1.341q.012-9.836,0-19.673A5.458,5.458,0,0,1,1160.085,1383.441Z" transform="translate(-1115.031 -1366.078)" fill="#9f86ba"/>
        <path id="Trazado_626559" data-name="Trazado 626559" d="M1141.422,1383.452a5.465,5.465,0,0,0-.2,1.684q.012,9.836,0,19.673a2.48,2.48,0,0,0,.3,1.341c-.8.008-1.605.025-2.408.023-1.018,0-1.342-.318-1.344-1.339q-.01-4.936,0-9.872t0-9.872c0-1.449.22-1.676,1.636-1.671C1140.077,1383.422,1140.749,1383.441,1141.422,1383.452Z" transform="translate(-1096.369 -1366.089)" fill="#614a98"/>
        <path id="Trazado_626560" data-name="Trazado 626560" d="M1059.2,1403.262c.854-.013,1.709-.045,2.563-.032.784.013,1.157.412,1.162,1.228.011,1.789,0,3.578,0,5.368q0,5.8,0,11.591c0,1.129-.345,1.475-1.477,1.473-.751,0-1.5-.018-2.254-.028a3.553,3.553,0,0,1-.179-1.218q.009-8.582,0-17.164A3.573,3.573,0,0,1,1059.2,1403.262Z" transform="translate(-1029.918 -1382.804)" fill="#f3c035"/>
        <path id="Trazado_626561" data-name="Trazado 626561" d="M1039.943,1403.272a3.581,3.581,0,0,0-.181,1.218q.009,8.582,0,17.164a3.555,3.555,0,0,0,.179,1.218c-.776.009-1.553.026-2.33.026-1.017,0-1.405-.379-1.408-1.4-.007-2.565,0-5.131,0-7.7q0-4.509,0-9.018c0-1.225.328-1.548,1.568-1.546C1038.494,1403.24,1039.219,1403.26,1039.943,1403.272Z" transform="translate(-1010.659 -1382.814)" fill="#fff4d6"/>
        <path id="Trazado_626562" data-name="Trazado 626562" d="M1264.707,1427.3a.952.952,0,0,1,.791,1.072q0,6.847,0,13.694a1.016,1.016,0,0,1-1.091,1.13c-.881.015-1.762-.013-2.643-.023a3.5,3.5,0,0,1-.173-1.22c.008-2.724,0-5.448,0-8.172,0-1.868.007-3.736,0-5.6,0-.6.19-.916.862-.877C1263.2,1427.347,1263.955,1427.307,1264.707,1427.3Z" transform="translate(-1200.859 -1403.119)" fill="#4db39e"/>
        <path id="Trazado_626563" data-name="Trazado 626563" d="M1245.532,1426.554c-.752,0-1.507.044-2.256,0-.672-.039-.865.279-.862.877.01,1.868,0,3.736,0,5.6,0,2.724,0,5.448,0,8.172a3.5,3.5,0,0,0,.173,1.22c-.8.01-1.6.029-2.406.025-.878,0-1.281-.387-1.3-1.273-.024-.984-.006-1.968-.006-2.952q0-5.089,0-10.178c0-1.226.354-1.581,1.565-1.592,1.424-.013,2.848-.026,4.272-.029C1244.987,1426.427,1245.283,1426.35,1245.532,1426.554Z" transform="translate(-1181.684 -1402.37)" fill="#2e9d76"/>
        <path id="Trazado_626564" data-name="Trazado 626564" d="M960.338,1437.056a.979.979,0,0,1,.921,1.125q0,6.025,0,12.05a1.041,1.041,0,0,1-1.182,1.2c-.854.009-1.709-.015-2.564-.024a5.739,5.739,0,0,1-.18-1.839q.006-5.2,0-10.4c0-.414-.015-.829.008-1.241.031-.557.229-.9.906-.85S959.64,1437.067,960.338,1437.056Z" transform="translate(-944.099 -1411.351)" fill="#f1683f"/>
        <path id="Trazado_626565" data-name="Trazado 626565" d="M941.6,1436.5c-.7.011-1.4.075-2.093.019s-.875.293-.906.85c-.023.413-.008.828-.008,1.241q0,5.2,0,10.4a5.736,5.736,0,0,0,.18,1.839c-.752.01-1.5.027-2.256.027-1.062,0-1.389-.319-1.391-1.391q-.009-5.45,0-10.9,0-.506,0-1.012a1.018,1.018,0,0,1,1.039-1.127A49.652,49.652,0,0,1,941.6,1436.5Z" transform="translate(-925.358 -1410.8)" fill="#ea4816"/>
      </g>
    </g>
  </g>
</svg>
