<svg xmlns="http://www.w3.org/2000/svg" xmlns:xlink="http://www.w3.org/1999/xlink" width="59.415" height="65.055" viewBox="0 0 59.415 65.055">
  <defs>
    <clipPath id="clip-path">
      <rect id="Rect치ngulo_303195" data-name="Rect치ngulo 303195" width="59.415" height="65.055" fill="#12263f"/>
    </clipPath>
  </defs>
  <g id="Grupo_892555" data-name="Grupo 892555" clip-path="url(#clip-path)">
    <path id="Trazado_612130" data-name="Trazado 612130" d="M42.653,92.67a1.731,1.731,0,0,0-.271-.134,4.5,4.5,0,0,1-3.373-4.269c-.046-1.227-.029-2.457-.006-3.684A1.349,1.349,0,0,1,40.48,83.13c.7-.013,1.392,0,2.137,0V67.133c-.2-.013-.4-.023-.607-.042a1.673,1.673,0,0,1-1.635-1.56c-.083-.607-.2-1.212-.246-1.822-.03-.373-.2-.456-.527-.453a6.629,6.629,0,0,1-1.138-.06A1.467,1.467,0,0,1,37.2,61.749c-.023-1.418-.018-2.838,0-4.256a1.646,1.646,0,0,1,1.272-1.539,9.241,9.241,0,0,0-2.245-2.882,12.117,12.117,0,0,1-4.077-7.606A12.3,12.3,0,0,1,41.53,31.96a12.08,12.08,0,0,1,8.152.952.98.98,0,0,1,.671,1.094.882.882,0,0,1-.872.786,2.285,2.285,0,0,1-.892-.273,10.123,10.123,0,0,0-8.193-.174,10.275,10.275,0,0,0-3.281,16.9A14.76,14.76,0,0,1,40.5,55.644a.672.672,0,0,0,.469.3,10.914,10.914,0,0,0,1.228.014c-.252-1.19-.486-2.316-.73-3.441-.309-1.424-.637-2.843-.936-4.27a2.229,2.229,0,0,1,2.315-2.867c.932-.013,1.864-.015,2.8,0A2.215,2.215,0,0,1,47.9,48.226q-.766,3.529-1.533,7.058c-.044.2-.064.412-.1.672a12.974,12.974,0,0,0,1.354-.016.671.671,0,0,0,.448-.336,13.953,13.953,0,0,1,3.263-4.249,10.278,10.278,0,0,0,1.094-13.778c-.065-.084-.138-.162-.2-.247a.953.953,0,0,1,.112-1.452.925.925,0,0,1,1.384.258,32.423,32.423,0,0,1,1.811,3.04.885.885,0,0,0,.928.608q12.961-.025,25.921,0a5.843,5.843,0,0,1,2.108.323A4.331,4.331,0,0,1,87.34,44.3c.05,1.65.022,3.3.008,4.955a1.412,1.412,0,0,1-1.585,1.564c-1.588.013-3.177,0-4.765,0h-.742V52.4c0,1.631,0,3.261,0,4.892a1.014,1.014,0,0,1-.938,1.141.962.962,0,0,1-.974-1.087c0-4.426-.025-8.853.029-13.278a11.183,11.183,0,0,1,.529-2.326H56.428v4.169h.629q5.5,0,10.991,0c.729,0,1.162.376,1.153.973-.008.571-.422.932-1.121.935-1.8.009-3.6,0-5.4,0-2.1,0-4.193.009-6.29-.008a.71.71,0,0,0-.751.486c-.619,1.238-1.309,2.44-1.993,3.695.926,0,1.93-.016,2.933.006a.923.923,0,0,1,.931.924.966.966,0,0,1-.9.969,4.2,4.2,0,0,1-.444.006c-1.355,0-2.711.024-4.066-.012a1.066,1.066,0,0,0-1.052.524c-.31.494-.648.972-1.07,1.6.482.055.8.123,1.122.124q6.48.011,12.961.005c.978,0,1.437.3,1.454.936q.027,1-1.461,1H51.437v2.2h.728q9.975,0,19.949,0a3.251,3.251,0,0,1,.755.054.946.946,0,0,1-.073,1.865,5.017,5.017,0,0,1-.76.032q-10.006,0-20.013,0a1.091,1.091,0,0,0-1.076.453,1.712,1.712,0,0,1-1.729.557c-.607-.059-.822.186-.856.758a13.092,13.092,0,0,1-.218,1.569,1.638,1.638,0,0,1-1.788,1.517c-.548.013-1.1,0-1.7,0V83.126H61.6c.212,0,.424-.006.635.009a.945.945,0,0,1,.95.916,1,1,0,0,1-.9.979,4.909,4.909,0,0,1-.571.009H41c0,1.273-.083,2.482.023,3.673a2.487,2.487,0,0,0,2.607,2.05c1.567.014,3.134,0,4.7,0H71.781c-1.23-1.787-.626-3.761-.831-5.727H67.936c-.445,0-.891.021-1.334-.01a.934.934,0,0,1-.891-.974.883.883,0,0,1,.885-.907c1.715-.023,3.431-.031,5.145.007a1.24,1.24,0,0,1,1.149,1.352c.012,1.228-.014,2.457.012,3.685a2.6,2.6,0,0,0,1.68,2.4,2.859,2.859,0,0,0,3.091-.708,3,3,0,0,0,.665-2.125q-.006-12.579,0-25.159a7.366,7.366,0,0,1,.018-.761.887.887,0,0,1,.92-.869.917.917,0,0,1,.964.834,3.5,3.5,0,0,1,.016.634q0,12.611,0,25.222c0,2.67-1.047,4.109-3.583,4.931-.036.012-.062.054-.093.081Zm-3.543-31.4H49.4V57.93H39.11ZM85.383,48.828c0-1.593.03-3.153-.009-4.712a2.494,2.494,0,0,0-2.332-2.408,2.452,2.452,0,0,0-2.726,2.11c-.126,1.654-.03,3.326-.03,5.01ZM44.169,55.847l.12-.027c.564-2.62,1.116-5.242,1.7-7.857.121-.54-.043-.685-.551-.672-.8.022-1.609.026-2.413,0-.551-.019-.711.16-.579.715.309,1.293.564,2.6.847,3.9.287,1.315.581,2.629.873,3.943m-1.884,9.289c1.267,0,2.467.008,3.666-.012a.459.459,0,0,0,.352-.255c.093-.506.135-1.022.2-1.549H42.01l.274,1.816" transform="translate(-27.954 -27.615)" fill="#12263f"/>
    <path id="Trazado_612131" data-name="Trazado 612131" d="M1.931,16.093A14.448,14.448,0,0,0,6.6,26.933c.108.1.221.2.321.307a.982.982,0,0,1,.065,1.37.883.883,0,0,1-1.354.032,26.984,26.984,0,0,1-2.806-3.176A16.328,16.328,0,1,1,30.75,8.617,4.587,4.587,0,0,1,31,9.129a.877.877,0,0,1-.444,1.18.887.887,0,0,1-1.191-.251,3.894,3.894,0,0,1-.323-.544,14.2,14.2,0,0,0-12.57-7.595A14.4,14.4,0,0,0,2.1,14.248c-.09.691-.129,1.388-.17,1.846" transform="translate(0 0)" fill="#12263f"/>
    <path id="Trazado_612132" data-name="Trazado 612132" d="M180.128,296.218c-3.617,0-7.235,0-10.852-.009a1.352,1.352,0,0,1-.88-.22,1.141,1.141,0,0,1-.31-.929c.092-.3.468-.531.764-.728.134-.089.371-.026.561-.027h21.514c.127,0,.254,0,.381,0a1,1,0,0,1,1.046.965.965.965,0,0,1-1.054.941c-1.967.01-3.935,0-5.9,0h-5.267" transform="translate(-146.668 -256.817)" fill="#12263f"/>
    <path id="Trazado_612133" data-name="Trazado 612133" d="M179.976,361.79q-5.394,0-10.788,0c-.249,0-.579.034-.73-.1a1.73,1.73,0,0,1-.606-.928.8.8,0,0,1,.761-.862,4.728,4.728,0,0,1,.7-.041q10.693,0,21.386,0c.984,0,1.49.348,1.466,1-.023.633-.5.943-1.459.943H179.976" transform="translate(-146.477 -314.035)" fill="#12263f"/>
    <path id="Trazado_612134" data-name="Trazado 612134" d="M245.03,193.407c-2.2,0-4.4.006-6.6,0-.884,0-1.424-.771-.969-1.414a1.258,1.258,0,0,1,.883-.472c4.464-.03,8.929-.024,13.394-.016a.955.955,0,0,1,1.03.965.984.984,0,0,1-1.07.936c-2.222.009-4.443,0-6.665,0" transform="translate(-207.083 -167.115)" fill="#12263f"/>
    <path id="Trazado_612135" data-name="Trazado 612135" d="M175.665,329.192c-2.18,0-4.361.023-6.54-.024a1.425,1.425,0,0,1-.968-.53.967.967,0,0,1,.055-.914,1.287,1.287,0,0,1,.907-.421c4.339-.026,8.678-.02,13.017-.015a.957.957,0,1,1,.006,1.9c-2.159.008-4.318,0-6.477,0" transform="translate(-146.668 -285.615)" fill="#12263f"/>
    <path id="Trazado_612136" data-name="Trazado 612136" d="M266.132,394.413c-1.63,0-3.26,0-4.89,0-.251,0-.575.039-.737-.1a1.576,1.576,0,0,1-.635-.9c-.015-.28.34-.616.6-.857.126-.118.4-.1.609-.1q5.081-.008,10.161,0a2.036,2.036,0,0,1,.317.014.992.992,0,0,1,.905.978.968.968,0,0,1-.931.951,4.252,4.252,0,0,1-.571.015h-4.827" transform="translate(-226.785 -342.488)" fill="#12263f"/>
    <path id="Trazado_612137" data-name="Trazado 612137" d="M173.072,394.39c-1.459,0-2.918.016-4.377-.005-.924-.013-1.465-.818-.973-1.462a1.314,1.314,0,0,1,.9-.468c2.96-.035,5.92-.03,8.881-.015a.949.949,0,0,1,1.063,1c-.014.581-.406.939-1.117.946-1.459.016-2.918,0-4.377,0" transform="translate(-146.206 -342.465)" fill="#12263f"/>
    <path id="Trazado_612138" data-name="Trazado 612138" d="M154.762,100.147c-.1.778.144,1.732-1.008,1.834-.664.059-.89-.367-1.037-1.831-.739-.1-1.775.163-1.825-1.07-.026-.629.418-.84,1.841-.968.092-.742-.165-1.772,1.061-1.831.632-.03.847.417.969,1.822.741.141,1.9-.163,1.8,1.14-.077,1.053-1.042.816-1.8.9" transform="translate(-131.681 -84.022)" fill="#12263f"/>
    <path id="Trazado_612139" data-name="Trazado 612139" d="M48,291.438c-.775-.068-1.727.2-1.84-.962-.064-.661.343-.873,1.813-1.012.167-.725-.186-1.9,1.12-1.824,1.1.064.834,1.066.936,1.846.741.085,1.784-.221,1.834,1.029.025.631-.385.819-1.822.94-.139.74.176,1.9-1.109,1.831-1.092-.058-.846-1.06-.931-1.848" transform="translate(-40.276 -251.016)" fill="#12263f"/>
    <path id="Trazado_612140" data-name="Trazado 612140" d="M296.521,327.281c1.036,0,2.073-.006,3.109,0,.673.006,1.11.4,1.1.96a1,1,0,0,1-1.126.942q-3.109.009-6.218,0c-.68,0-1.116-.375-1.13-.936-.014-.581.433-.962,1.156-.967,1.036-.006,2.073,0,3.109,0" transform="translate(-255.047 -285.611)" fill="#12263f"/>
    <path id="Trazado_612141" data-name="Trazado 612141" d="M304.793,226.027c-.823,0-1.646.01-2.469,0-.72-.011-1.154-.4-1.146-.991.008-.568.419-.936,1.118-.941q2.564-.019,5.128,0a.991.991,0,0,1,1.092.974,1.024,1.024,0,0,1-1.127.956c-.865.015-1.73,0-2.6,0" transform="translate(-262.833 -195.553)" fill="#12263f"/>
    <rect id="Rect치ngulo_303194" data-name="Rect치ngulo 303194" width="10.286" height="3.339" transform="translate(11.157 30.315)" fill="#b2ebf2"/>
    <path id="Trazado_612142" data-name="Trazado 612142" d="M415.9,117.78h-5.1c0-1.684-.1-3.355.03-5.01a2.452,2.452,0,0,1,2.726-2.11,2.494,2.494,0,0,1,2.332,2.408c.04,1.558.009,3.118.009,4.711" transform="translate(-358.468 -96.567)" fill="#26aab7"/>
    <path id="Trazado_612143" data-name="Trazado 612143" d="M115.277,163.088c-.291-1.314-.586-2.628-.873-3.943-.283-1.3-.538-2.605-.847-3.9-.133-.555.028-.734.579-.715.8.027,1.609.023,2.413,0,.508-.014.672.132.551.672-.587,2.615-1.138,5.237-1.7,7.857l-.12.027" transform="translate(-99.061 -134.857)" fill="#fb8c00"/>
    <path id="Trazado_612144" data-name="Trazado 612144" d="M110.683,282.259l-.274-1.816H114.9c-.061.527-.1,1.043-.2,1.549a.459.459,0,0,1-.352.255c-1.2.019-2.4.012-3.666.012" transform="translate(-96.352 -244.738)" fill="#e8e8e8"/>
  </g>
</svg>
