<svg xmlns="http://www.w3.org/2000/svg" xmlns:xlink="http://www.w3.org/1999/xlink" width="302.806" height="263.588" viewBox="0 0 302.806 263.588">
  <defs>
    <clipPath id="clip-path">
      <rect id="Rectángulo_305296" data-name="Rectángulo 305296" width="164.105" height="82.925" fill="#fff4d6"/>
    </clipPath>
    <clipPath id="clip-path-2">
      <rect id="Rectángulo_305297" data-name="Rectángulo 305297" width="123.774" height="62.545" fill="#fff"/>
    </clipPath>
    <linearGradient id="linear-gradient" x1="0.5" x2="0.5" y2="1" gradientUnits="objectBoundingBox">
      <stop offset="0" stop-color="#f5f5f5"/>
      <stop offset="0.25" stop-color="#f5f5f5"/>
      <stop offset="1" stop-color="#a7b3cf"/>
    </linearGradient>
  </defs>
  <g id="Grupo_947030" data-name="Grupo 947030" transform="translate(-1043.194 -1239)">
    <g id="Grupo_922881" data-name="Grupo 922881" transform="translate(1346 1453.113) rotate(180)" clip-path="url(#clip-path)">
      <path id="Trazado_607560" data-name="Trazado 607560" d="M82.053,82.925A82.052,82.052,0,0,1,0,.873C0,.581.008.291.011,0H164.094c0,.291.011.581.011.873A82.052,82.052,0,0,1,82.053,82.925" transform="translate(0 0)" fill="#fff4d6"/>
    </g>
    <g id="Grupo_922885" data-name="Grupo 922885" transform="translate(1107.89 1329.358) rotate(91)" clip-path="url(#clip-path-2)">
      <path id="Trazado_607561" data-name="Trazado 607561" d="M61.887,62.545A61.887,61.887,0,0,1,0,.658C0,.438.006.22.009,0H123.766c0,.22.009.438.009.658A61.887,61.887,0,0,1,61.887,62.545" transform="translate(0 0)" fill="#fff"/>
    </g>
    <g id="Project_delivery" data-name="Project delivery" transform="translate(1060.932 1239)">
      <g id="Grupo_946608" data-name="Grupo 946608" transform="translate(53.841 76.74)">
        <path id="Trazado_626566" data-name="Trazado 626566" d="M1021.743,995.416l-4.314-9.857-4.686,2.051a20.2,20.2,0,0,0-3.656-3.513l1.864-4.764-10.021-3.919-1.863,4.764a20.21,20.21,0,0,0-5.069.1l-2.051-4.685-9.857,4.314,2.051,4.685a20.2,20.2,0,0,0-3.513,3.656l-4.764-1.863L971.944,996.4l4.764,1.863a20.2,20.2,0,0,0,.1,5.069l-4.686,2.051,4.314,9.857,4.685-2.051a20.2,20.2,0,0,0,3.656,3.513l-1.863,4.764,10.021,3.919,1.863-4.764a20.219,20.219,0,0,0,5.069-.1l2.051,4.685,9.857-4.314-2.051-4.685a20.209,20.209,0,0,0,3.513-3.656l4.764,1.863,3.919-10.021-4.764-1.864a20.2,20.2,0,0,0-.1-5.069Zm-20.32,15.245a11.2,11.2,0,1,1,5.769-14.749A11.2,11.2,0,0,1,1001.423,1010.661Z" transform="translate(-940.478 -959.855)" fill="#f3f9ff"/>
        <path id="Trazado_626567" data-name="Trazado 626567" d="M777.169,1228.74a.144.144,0,0,1-.054-.01l-7.768-3.038a.149.149,0,0,1-.085-.193l1.4-3.587a15.821,15.821,0,0,1-2.7-2.593l-3.528,1.544a.149.149,0,0,1-.2-.077l-3.344-7.641a.148.148,0,0,1,0-.114.15.15,0,0,1,.079-.082l3.528-1.544a15.838,15.838,0,0,1-.074-3.741l-3.587-1.4a.149.149,0,0,1-.085-.193l3.038-7.768a.151.151,0,0,1,.079-.082.149.149,0,0,1,.114,0l3.587,1.4a15.837,15.837,0,0,1,2.592-2.7l-1.544-3.528a.149.149,0,0,1,.077-.2l7.641-3.344a.148.148,0,0,1,.2.077l1.544,3.528a15.817,15.817,0,0,1,3.741-.073l1.4-3.588a.148.148,0,0,1,.193-.084l7.768,3.038a.149.149,0,0,1,.084.193l-1.4,3.588a15.821,15.821,0,0,1,2.7,2.592l3.528-1.544a.148.148,0,0,1,.2.077l3.344,7.641a.149.149,0,0,1-.077.2l-3.528,1.544a15.828,15.828,0,0,1,.074,3.741l3.588,1.4a.149.149,0,0,1,.084.193l-3.038,7.768a.149.149,0,0,1-.193.084l-3.587-1.4a15.83,15.83,0,0,1-2.592,2.7l1.544,3.528a.149.149,0,0,1-.077.2l-7.641,3.344a.149.149,0,0,1-.2-.077l-1.544-3.528a15.839,15.839,0,0,1-3.741.074l-1.4,3.587A.149.149,0,0,1,777.169,1228.74Zm-7.575-3.272,7.49,2.93,1.39-3.554a.15.15,0,0,1,.155-.094,15.549,15.549,0,0,0,3.892-.077.149.149,0,0,1,.158.088l1.53,3.5,7.368-3.225-1.53-3.5a.149.149,0,0,1,.043-.176,15.54,15.54,0,0,0,2.7-2.807.15.15,0,0,1,.174-.05l3.554,1.39,2.93-7.49-3.554-1.39a.149.149,0,0,1-.094-.154,15.537,15.537,0,0,0-.077-3.893.149.149,0,0,1,.088-.158l3.5-1.53-3.225-7.368-3.5,1.53a.148.148,0,0,1-.176-.043,15.521,15.521,0,0,0-2.807-2.7.149.149,0,0,1-.05-.174l1.39-3.554-7.49-2.93-1.39,3.554a.151.151,0,0,1-.154.094,15.536,15.536,0,0,0-3.892.077.15.15,0,0,1-.158-.088l-1.53-3.5-7.368,3.225,1.53,3.5a.149.149,0,0,1-.043.175,15.537,15.537,0,0,0-2.7,2.807.149.149,0,0,1-.174.05l-3.554-1.39-2.93,7.49,3.554,1.39a.149.149,0,0,1,.094.154,15.537,15.537,0,0,0,.077,3.892.149.149,0,0,1-.088.158l-3.5,1.53,3.225,7.368,3.5-1.53a.149.149,0,0,1,.175.043,15.517,15.517,0,0,0,2.807,2.7.149.149,0,0,1,.05.174Zm10.676-7.413a8.84,8.84,0,1,1,3.538-.746A8.826,8.826,0,0,1,780.27,1218.055Zm0-17.372a8.554,8.554,0,1,0,3.11.591A8.512,8.512,0,0,0,780.266,1200.683Zm3.483,16.49h0Z" transform="translate(-760.748 -1142.215)" fill="#12263f"/>
        <g id="Grupo_946607" data-name="Grupo 946607" transform="translate(7.6 0)">
          <rect id="Rectángulo_341185" data-name="Rectángulo 341185" width="159.294" height="10.04" transform="translate(0.149 0.149)" fill="#12263f"/>
          <path id="Trazado_626568" data-name="Trazado 626568" d="M971.35,984.423H811.758V870.984H971.35Zm-159.294-.3h159V871.282h-159Z" transform="translate(-811.758 -870.984)" fill="#d3bba3"/>
          <circle id="Elipse_8199" data-name="Elipse 8199" cx="2.284" cy="2.284" r="2.284" transform="translate(4.078 6.937) rotate(-76.717)" fill="#fff"/>
          <circle id="Elipse_8200" data-name="Elipse 8200" cx="2.284" cy="2.284" r="2.284" transform="translate(10.974 5.239) rotate(-45)" fill="#fff"/>
          <circle id="Elipse_8201" data-name="Elipse 8201" cx="2.284" cy="2.284" r="2.284" transform="translate(18.352 5.239) rotate(-45)" fill="#fff"/>
        </g>
      </g>
      <g id="Grupo_946617" data-name="Grupo 946617" transform="translate(116.555)">
        <g id="Grupo_946609" data-name="Grupo 946609" transform="translate(0 17.756)">
          <rect id="Rectángulo_341186" data-name="Rectángulo 341186" width="117.277" height="162.306" fill="url(#linear-gradient)"/>
          <path id="Trazado_626569" data-name="Trazado 626569" d="M1321.267,659.841H1203.99a.149.149,0,0,1-.149-.149V497.386a.149.149,0,0,1,.149-.149h117.277a.149.149,0,0,1,.149.149V659.692A.149.149,0,0,1,1321.267,659.841Zm-117.128-.3h116.979V497.535H1204.139Z" transform="translate(-1200.54 -493.936)" fill="#12263f"/>
        </g>
        <g id="Grupo_946610" data-name="Grupo 946610" transform="translate(46.67 42.514)">
          <rect id="Rectángulo_341187" data-name="Rectángulo 341187" width="40.32" height="3.945" transform="translate(13.585)" fill="#f2e6dc"/>
          <rect id="Rectángulo_341188" data-name="Rectángulo 341188" width="41.989" height="3.945" transform="translate(0 9.855)" fill="#f2e6dc"/>
          <rect id="Rectángulo_341189" data-name="Rectángulo 341189" width="53.905" height="3.945" transform="translate(0 19.709)" fill="#f2e6dc"/>
        </g>
        <g id="Grupo_946611" data-name="Grupo 946611" transform="translate(46.67 88.503)">
          <rect id="Rectángulo_341190" data-name="Rectángulo 341190" width="40.32" height="3.945" transform="translate(13.585)" fill="#f2e6dc"/>
          <rect id="Rectángulo_341191" data-name="Rectángulo 341191" width="41.989" height="3.945" transform="translate(0 9.855)" fill="#f2e6dc"/>
          <rect id="Rectángulo_341192" data-name="Rectángulo 341192" width="53.905" height="3.945" transform="translate(0 19.709)" fill="#f2e6dc"/>
        </g>
        <g id="Grupo_946612" data-name="Grupo 946612" transform="translate(46.67 134.491)">
          <rect id="Rectángulo_341193" data-name="Rectángulo 341193" width="31.987" height="3.945" transform="translate(13.585)" fill="#f2e6dc"/>
          <rect id="Rectángulo_341194" data-name="Rectángulo 341194" width="63.097" height="3.945" transform="translate(0 9.855)" fill="#f2e6dc"/>
          <rect id="Rectángulo_341195" data-name="Rectángulo 341195" width="53.905" height="3.945" transform="translate(0 19.709)" fill="#f2e6dc"/>
        </g>
        <g id="Grupo_946613" data-name="Grupo 946613" transform="translate(9.857 134.491)">
          <rect id="Rectángulo_341196" data-name="Rectángulo 341196" width="29.587" height="29.587" fill="#fff"/>
          <path id="Trazado_626570" data-name="Trazado 626570" d="M1283.578,1309.27l-9.263-8.426,2.862-3.529,5.873,4.7,9.216-13.382,3.749,2.582Z" transform="translate(-1270.372 -1284.156)" fill="#12263f"/>
        </g>
        <g id="Grupo_946614" data-name="Grupo 946614" transform="translate(9.857 86.4)">
          <rect id="Rectángulo_341197" data-name="Rectángulo 341197" width="29.587" height="29.587" fill="#fff"/>
          <path id="Trazado_626571" data-name="Trazado 626571" d="M1283.578,986.48l-9.263-8.426,2.862-3.529,5.873,4.7,9.216-13.382,3.749,2.582Z" transform="translate(-1270.372 -961.366)" fill="#12263f"/>
        </g>
        <g id="Grupo_946615" data-name="Grupo 946615" transform="translate(9.857 39.548)">
          <rect id="Rectángulo_341198" data-name="Rectángulo 341198" width="29.587" height="29.587" fill="#fff"/>
          <path id="Trazado_626572" data-name="Trazado 626572" d="M1283.578,672.01l-9.263-8.426,2.862-3.529,5.873,4.7,9.216-13.382,3.749,2.582Z" transform="translate(-1270.372 -646.896)" fill="#12263f"/>
        </g>
        <g id="Grupo_946616" data-name="Grupo 946616" transform="translate(39.894 0)">
          <rect id="Rectángulo_341199" data-name="Rectángulo 341199" width="48.765" height="18.986" transform="translate(0 12.729)" fill="#12263f"/>
          <path id="Trazado_626573" data-name="Trazado 626573" d="M1555.169,376.191a10.143,10.143,0,1,1,10.143-10.143A10.155,10.155,0,0,1,1555.169,376.191Zm0-19.988a9.845,9.845,0,1,0,9.845,9.845A9.856,9.856,0,0,0,1555.169,356.2Z" transform="translate(-1530.787 -355.905)" fill="#12263f"/>
          <path id="Trazado_626574" data-name="Trazado 626574" d="M1572.358,390.37a7.134,7.134,0,1,1,7.134-7.134A7.142,7.142,0,0,1,1572.358,390.37Zm0-13.97a6.836,6.836,0,1,0,6.836,6.836A6.844,6.844,0,0,0,1572.358,376.4Z" transform="translate(-1547.975 -373.093)" fill="#12263f"/>
        </g>
      </g>
      <g id="Grupo_946629" data-name="Grupo 946629" transform="translate(141.219 64.55)">
        <g id="Grupo_946618" data-name="Grupo 946618" transform="translate(49.459 0)">
          <path id="Trazado_626575" data-name="Trazado 626575" d="M1680.69,863.746a1.309,1.309,0,0,1-.444-.076c-.944-.338-1.322-1.7-.843-3.046s1.639-2.159,2.584-1.821,1.322,1.7.843,3.046A2.585,2.585,0,0,1,1680.69,863.746Zm-1.006-3.022c-.424,1.187-.127,2.383.662,2.665s1.777-.454,2.2-1.641.127-2.383-.663-2.666S1680.109,859.536,1679.684,860.724Z" transform="translate(-1679.196 -848.361)" fill="#363e44"/>
          <path id="Trazado_626576" data-name="Trazado 626576" d="M1688.4,833.825c1.276-3.578,2.335-5.551,4.433-6.534,2.82-1.321,5.842.3,6.154.472a6.744,6.744,0,0,1,3.624,4.757,9,9,0,0,1-3.3,8.476v10.6a4.154,4.154,0,0,1-4.154,4.154h-.52a4.154,4.154,0,0,1-4.154-4.154v-8.223c-1.455-.122-2.607-.544-3.068-1.281C1686.584,840.767,1686.894,838.038,1688.4,833.825Z" transform="translate(-1685.806 -821.172)" fill="#84524d"/>
          <path id="Trazado_626577" data-name="Trazado 626577" d="M1687.851,789.16l2.548.417a4.307,4.307,0,0,0,.458,2.455,4.039,4.039,0,0,1,.992-2.217l9.317,1.526a3.783,3.783,0,0,0-.7,2.227,3.957,3.957,0,0,0,1.438,2.877,8.069,8.069,0,0,1,1.809,8.119,8.214,8.214,0,0,1-4.686,4.732q-1-.142-2.041-.325c-1.331-.234-2.6-.5-3.8-.789a2.888,2.888,0,0,0,1.9-2.505,2.3,2.3,0,0,0-1.981-2.575c-.788-.029-1.438.383-2.018,1.682-.464-.247-1.012-.576-1.476-.823l1.856-3.665c-.193-.095-4.605-2.346-4.825-6.774A7.526,7.526,0,0,1,1687.851,789.16Z" transform="translate(-1685.528 -789.16)" fill="#363e44"/>
          <path id="Trazado_626578" data-name="Trazado 626578" d="M1687.979,869.529a.15.15,0,0,1-.077-.021l-4.741-2.836a.149.149,0,1,1,.153-.256l4.741,2.836a.149.149,0,0,1-.077.277Z" transform="translate(-1682.508 -854.888)" fill="#363e44"/>
          <path id="Trazado_626579" data-name="Trazado 626579" d="M1709.275,926.694h0a.149.149,0,0,1-.145-.153l.047-1.748a.149.149,0,0,1,.149-.145h0a.149.149,0,0,1,.145.153l-.047,1.747A.149.149,0,0,1,1709.275,926.694Z" transform="translate(-1704.666 -904.463)" fill="#363e44"/>
          <path id="Trazado_626580" data-name="Trazado 626580" d="M1725.265,894.932a.149.149,0,0,1-.11-.25c.2-.216.373-.415.555-.621.152-.172.309-.35.486-.546a.149.149,0,0,1,.221.2c-.177.2-.332.372-.484.544-.184.208-.36.408-.559.625A.149.149,0,0,1,1725.265,894.932Z" transform="translate(-1718.275 -877.926)" fill="#363e44"/>
        </g>
        <g id="Grupo_946624" data-name="Grupo 946624" transform="translate(0 61.276)">
          <g id="Grupo_946620" data-name="Grupo 946620" transform="translate(44.845 103.812)">
            <path id="Trazado_626581" data-name="Trazado 626581" d="M1786.01,1918.464l16.642.636-2.085-21.875-16.779,1.931Z" transform="translate(-1763.591 -1897.226)" fill="#84524d"/>
            <g id="Grupo_946619" data-name="Grupo 946619" transform="translate(0 15.715)">
              <path id="Trazado_626582" data-name="Trazado 626582" d="M1648.224,2019.085l42.3.207-3.814-16.5-16.705-.082-11.87,3.668A13.209,13.209,0,0,0,1648.224,2019.085Z" transform="translate(-1648.224 -2002.706)" fill="#12263f"/>
            </g>
          </g>
          <g id="Grupo_946622" data-name="Grupo 946622" transform="translate(0 103.277)">
            <path id="Trazado_626583" data-name="Trazado 626583" d="M1488.424,1912.7l15.657,5.678,4.681-21.47-16.57-3.275Z" transform="translate(-1467.387 -1893.633)" fill="#84524d"/>
            <g id="Grupo_946621" data-name="Grupo 946621" transform="translate(0 16.25)">
              <path id="Trazado_626584" data-name="Trazado 626584" d="M1347.228,2019.079l42.3.207-3.815-16.5-16.9-.083-11.68,3.669A13.209,13.209,0,0,0,1347.228,2019.079Z" transform="translate(-1347.228 -2002.7)" fill="#12263f"/>
            </g>
          </g>
          <g id="Grupo_946623" data-name="Grupo 946623" transform="translate(20.896)">
            <path id="Trazado_626585" data-name="Trazado 626585" d="M1505.143,1202.391c-1.7,4.334-15.991,105.359-17.662,111.261H1511.7c1.025-1.67,10.422-63.607,11.031-67.018.512,1.979,6.573,64.97,7.085,66.949h22.708c-.411-6.514-9.179-109.288-10.536-113.14C1530.855,1201.091,1516.274,1201.741,1505.143,1202.391Z" transform="translate(-1487.481 -1200.442)" fill="#12263f"/>
          </g>
        </g>
        <g id="Grupo_946626" data-name="Grupo 946626" transform="translate(8.925 27.548)">
          <path id="Trazado_626586" data-name="Trazado 626586" d="M1430.124,999.6c-16.218,3.435-24.554,7.368-22.752,13.4,1.045,3.5,10.776,5.223,23.716,3.191C1430.8,1010.961,1430.61,1005.922,1430.124,999.6Z" transform="translate(-1407.13 -995.796)" fill="#84524d"/>
          <path id="Trazado_626587" data-name="Trazado 626587" d="M1898.341,1013.71c19.621,5.807,28.658,10.581,25.977,16.826-1.555,3.623-12.972,5.088-28.683,1.215C1896.395,1026.169,1897.251,1020.437,1898.341,1013.71Z" transform="translate(-1822.854 -1007.803)" fill="#84524d"/>
          <g id="Grupo_946625" data-name="Grupo 946625" transform="translate(18.794)">
            <path id="Trazado_626588" data-name="Trazado 626588" d="M1601.105,982.1s-18.651-7.434-34.1-7.991c-13.168-.474-33.52,3-33.52,3l-.209,22.288,7.98-.8-2.36,33.5,47.509,2.412,1.618-29.916,3.471,1.705Z" transform="translate(-1533.275 -974.064)" fill="#fff"/>
          </g>
        </g>
        <g id="Grupo_946627" data-name="Grupo 946627" transform="translate(8.685 0.077)">
          <path id="Trazado_626589" data-name="Trazado 626589" d="M1420.843,828.328c.25-4.071.418-13.362.139-20.46-.292-7.455-1.809-18.419-3.34-18.187-.872.132-.974,1.67-.974,5.8a1.82,1.82,0,0,0-1.717-.441,1.747,1.747,0,0,0-1.229,1.508,2.084,2.084,0,0,0-1.613-.761,1.924,1.924,0,0,0-1.639,1.472,2,2,0,0,0-1.643-.665,1.792,1.792,0,0,0-1.508,1.74c.085,1.575.427,6.249.317,8.544-.218,4.517-3.143,20.453-1.732,27.064C1410.9,830.9,1415.847,831.375,1420.843,828.328Z" transform="translate(-1405.52 -789.678)" fill="#84524d"/>
          <path id="Trazado_626590" data-name="Trazado 626590" d="M1446.32,1015.365a.149.149,0,0,1-.066-.283,53.451,53.451,0,0,1,9.437-3.344.149.149,0,0,1,.078.287,53.192,53.192,0,0,0-9.383,3.324A.15.15,0,0,1,1446.32,1015.365Z" transform="translate(-1440.114 -978.65)" fill="#363e44"/>
          <path id="Trazado_626591" data-name="Trazado 626591" d="M1489.013,842.208a.149.149,0,0,1-.03-.295l1.224-.25a.149.149,0,1,1,.06.292l-1.224.25A.161.161,0,0,1,1489.013,842.208Z" transform="translate(-1476.447 -833.916)" fill="#363e44"/>
          <path id="Trazado_626592" data-name="Trazado 626592" d="M1468.16,846.427a.149.149,0,0,1-.03-.295l1.224-.249a.149.149,0,1,1,.06.292l-1.224.249A.139.139,0,0,1,1468.16,846.427Z" transform="translate(-1458.7 -837.506)" fill="#363e44"/>
          <path id="Trazado_626593" data-name="Trazado 626593" d="M1446.878,850.489a.149.149,0,0,1-.03-.295l1.224-.249a.149.149,0,1,1,.06.292l-1.224.25A.152.152,0,0,1,1446.878,850.489Z" transform="translate(-1440.589 -840.963)" fill="#363e44"/>
          <path id="Trazado_626594" data-name="Trazado 626594" d="M1427.654,854.571a.149.149,0,0,1-.029-.295l1.224-.249a.149.149,0,0,1,.059.292l-1.224.249Z" transform="translate(-1424.229 -844.437)" fill="#363e44"/>
        </g>
        <g id="Grupo_946628" data-name="Grupo 946628" transform="translate(89.618 1.313)">
          <path id="Trazado_626595" data-name="Trazado 626595" d="M1958.33,842.135h0c-2.115-14.853-3.9-25.351-4.324-28.613a6.069,6.069,0,0,1-.015-1.727c.411-2.9,2.8-3.623,4.621-6.475,2.069-3.236,1.4-6.229,2.373-6.358.677-.089,1.246.969,1.527,3.375h0c0-1.852.1-4.365,1.125-4.364,1.182.064,1.405,3.031,1.453,4.832-.058-2.18.564-3.356,1.135-3.214.9.225,1.336,1.9,1.3,4.789h0c.581-1.984,1.018-2.379,1.491-2.13.865.455.791,2.826.4,4.911a12.245,12.245,0,0,1-2.339,5.054h0c2.56,10.249,8.205,28.055,7.278,33.227C1974.3,845.8,1963.918,842.232,1958.33,842.135Z" transform="translate(-1953.161 -797.973)" fill="#84524d"/>
          <path id="Trazado_626596" data-name="Trazado 626596" d="M1949.586,847.339c-1.149-5.752-1-9.206-.308-9.545,1.326-.653,2.329,2.687,3.351,5.853C1951.505,844.734,1950.709,846.251,1949.586,847.339Z" transform="translate(-1948.742 -831.791)" fill="#84524d"/>
          <path id="Trazado_626597" data-name="Trazado 626597" d="M1975.209,1037.942a.149.149,0,0,1-.147-.128c-.359-2.5-.736-5.057-1.121-7.612a.149.149,0,0,1,.295-.044c.384,2.556.761,5.118,1.121,7.614a.15.15,0,0,1-.126.169Z" transform="translate(-1970.186 -995.457)" fill="#363e44"/>
          <path id="Trazado_626598" data-name="Trazado 626598" d="M2004.886,829.931a.149.149,0,0,1-.127-.227,5.628,5.628,0,0,0,.834-2.789.156.156,0,0,1,.153-.145.149.149,0,0,1,.145.153,5.927,5.927,0,0,1-.878,2.937A.149.149,0,0,1,2004.886,829.931Z" transform="translate(-1996.395 -822.48)" fill="#363e44"/>
          <path id="Trazado_626599" data-name="Trazado 626599" d="M2022.989,832.745a.145.145,0,0,1-.065-.015.148.148,0,0,1-.069-.2,6.485,6.485,0,0,0,.623-3.318.149.149,0,1,1,.3-.023,6.817,6.817,0,0,1-.1,1.81,6.746,6.746,0,0,1-.55,1.661A.149.149,0,0,1,2022.989,832.745Z" transform="translate(-2011.8 -824.423)" fill="#363e44"/>
          <path id="Trazado_626600" data-name="Trazado 626600" d="M2036.119,844.081a.149.149,0,0,1-.124-.231,6.955,6.955,0,0,0,1.146-3.423.153.153,0,0,1,.158-.14.149.149,0,0,1,.14.158,7.252,7.252,0,0,1-1.194,3.57A.149.149,0,0,1,2036.119,844.081Z" transform="translate(-2022.974 -833.982)" fill="#363e44"/>
        </g>
      </g>
      <g id="Grupo_946644" data-name="Grupo 946644" transform="translate(66.124 5.38)">
        <path id="Trazado_626601" data-name="Trazado 626601" d="M942.506,401.4s-1.221,2.1-.322,3.793a3.632,3.632,0,0,0,1.441,1.335c.591.389,4.456,2.933,5.241,6.254a4.077,4.077,0,0,1-.076,2.8c-1.07,2.119-4.8,2.045-9.3,2.116-11.5.181-12.87,1.07-20.069.153-5.243-.668-7.441-1.494-8.614-3.369a7.339,7.339,0,0,1-.709-5.452c1.489-7.708,10.216-7.371,13.519-10.46s5.63-6.292,11.312-6.541,12.041,2.794,11.423,7.683a2.168,2.168,0,0,1-.535,1.235C944.814,402.017,942.814,401.489,942.506,401.4Z" transform="translate(-899.96 -392.015)" fill="#84524d"/>
        <g id="Grupo_946630" data-name="Grupo 946630" transform="translate(0 20.962)">
          <path id="Trazado_626602" data-name="Trazado 626602" d="M878.984,642.778a98.643,98.643,0,0,0-.766,33.8h44.277V660.145s-1.716-7.439-1.715-10.277Z" transform="translate(-872.076 -626.38)" fill="#fff"/>
          <path id="Trazado_626603" data-name="Trazado 626603" d="M859.177,679.529S857.71,696.9,868.653,698.7s9.237-18.233,9.237-18.233Z" transform="translate(-856.739 -657.655)" fill="#e2a18d"/>
          <path id="Trazado_626604" data-name="Trazado 626604" d="M843.192,556.726s13.457.849,22.636,5.276,36.155.24,43.273-6.53c0,0-7.988-22.8-33.524-22.759S845.2,545.4,843.192,556.726Z" transform="translate(-843.192 -532.713)" fill="#fff"/>
          <path id="Trazado_626605" data-name="Trazado 626605" d="M1167.052,642.778s8.371,14.335-.975,18.583a13.333,13.333,0,0,1-13.9-1.216,19.75,19.75,0,0,1-5.151-5.4Z" transform="translate(-1101.759 -626.38)" fill="#e2a18d"/>
        </g>
        <g id="Grupo_946636" data-name="Grupo 946636" transform="translate(24.054 4.064)">
          <g id="Grupo_946631" data-name="Grupo 946631" transform="translate(0.284 6.395)">
            <path id="Trazado_626606" data-name="Trazado 626606" d="M1013,474.807l4.926-12.591,7.042,2.128-1.87,10.332Z" transform="translate(-1012.043 -462.215)" fill="#e2a18d"/>
            <path id="Trazado_626607" data-name="Trazado 626607" d="M1019.011,535.665c0,.889-2.79,1.609-6.232,1.609s-6.232-.72-6.232-1.609,2.79-1.843,6.232-1.843S1019.011,534.776,1019.011,535.665Z" transform="translate(-1006.547 -523.154)" fill="#e2a18d"/>
          </g>
          <path id="Trazado_626608" data-name="Trazado 626608" d="M1068.51,434.57s-1.012,9.862-5.181,10.177c-2.522.191-4.833-2.709-5.394-4.07a7.153,7.153,0,0,1,0-3.587s.847.793,1.527.269-.105-3.818,2.887-3.683S1065.667,435.076,1068.51,434.57Z" transform="translate(-1049.784 -431.53)" fill="#e2a18d"/>
          <path id="Trazado_626609" data-name="Trazado 626609" d="M1068.627,493.188a.149.149,0,0,1-.039-.005,7.988,7.988,0,0,1-3.757-2.883.149.149,0,1,1,.247-.166,7.763,7.763,0,0,0,3.589,2.762.149.149,0,0,1-.039.293Z" transform="translate(-1055.842 -479.522)" fill="#363e44"/>
          <path id="Trazado_626610" data-name="Trazado 626610" d="M1004.644,436.723s5.931.73,7.289-7.568c.819-5.008,3.374-7.4,4.31-9.471S1007.055,423.759,1004.644,436.723Z" transform="translate(-1004.644 -419.291)" fill="#84524d"/>
          <path id="Trazado_626611" data-name="Trazado 626611" d="M1051.876,457.339c.255.8.008,2.245-.788,2.5s-1.839-.78-2.094-1.576a1.513,1.513,0,0,1,2.882-.924Z" transform="translate(-1042.324 -450.775)" fill="#e2a18d"/>
          <g id="Grupo_946634" data-name="Grupo 946634" transform="translate(10.603 5.244)">
            <g id="Grupo_946632" data-name="Grupo 946632" transform="translate(5.102 1.179)">
              <path id="Trazado_626612" data-name="Trazado 626612" d="M1128.454,462.427c-.009.018,0,.038-.01.056v0a4.772,4.772,0,0,0-.056.86,2.636,2.636,0,0,0,.081.33c.015.086.029.168.047.252a4,4,0,0,0,1.342-1.155A4.209,4.209,0,0,0,1128.454,462.427Z" transform="translate(-1125.652 -462.423)" fill="#fff"/>
              <path id="Trazado_626613" data-name="Trazado 626613" d="M1111.937,462.488a3.734,3.734,0,0,0-1.879,1.343l.019.042a3.729,3.729,0,0,0,2.287.242,2.8,2.8,0,0,0,.55-.212,1.55,1.55,0,0,0-.056-1.5A2.967,2.967,0,0,0,1111.937,462.488Z" transform="translate(-1110.058 -462.398)" fill="#363e44"/>
            </g>
            <g id="Grupo_946633" data-name="Grupo 946633">
              <path id="Trazado_626614" data-name="Trazado 626614" d="M1090.554,459.717a1.338,1.338,0,0,0-.038.883,4.062,4.062,0,0,0,1.464.092,4.051,4.051,0,0,0-1.118-1.662A2.273,2.273,0,0,0,1090.554,459.717Z" transform="translate(-1088.276 -458.354)" fill="#fff"/>
              <path id="Trazado_626615" data-name="Trazado 626615" d="M1078.036,456.729a1.576,1.576,0,0,0,.36-1.563,2.682,2.682,0,0,0-.287-.209,3.763,3.763,0,0,0-2.3-.441,3.764,3.764,0,0,0,1.406,1.869A2.961,2.961,0,0,0,1078.036,456.729Z" transform="translate(-1075.813 -454.487)" fill="#363e44"/>
            </g>
          </g>
          <g id="Grupo_946635" data-name="Grupo 946635" transform="translate(7.283 6.421)">
            <path id="Trazado_626616" data-name="Trazado 626616" d="M1053.715,463.674a.149.149,0,0,1-.142-.1,1.073,1.073,0,0,1-.038-.174.976.976,0,0,1,.139-.656.736.736,0,0,1,.526-.346.693.693,0,0,1,.323.034.149.149,0,0,1-.1.281.412.412,0,0,0-.187-.02.444.444,0,0,0-.314.212.679.679,0,0,0-.094.456.742.742,0,0,0,.027.125.149.149,0,0,1-.142.193Z" transform="translate(-1053.525 -462.387)" fill="#363e44"/>
          </g>
          <path id="Trazado_626617" data-name="Trazado 626617" d="M1105.608,470.912a.149.149,0,0,1-.093-.266.4.4,0,0,0,.171-.25c.01-.08-.023-.142-.093-.264a1.721,1.721,0,0,1-.168-.364,1.481,1.481,0,0,1-.046-.636.149.149,0,1,1,.3.04,1.183,1.183,0,0,0,.036.509,1.418,1.418,0,0,0,.141.3.608.608,0,0,1-.151.9A.148.148,0,0,1,1105.608,470.912Z" transform="translate(-1090.359 -461.597)" fill="#363e44"/>
          <path id="Trazado_626618" data-name="Trazado 626618" d="M1094.3,484.53a.722.722,0,0,1-.4-.113,1.079,1.079,0,0,1-.413-.712.149.149,0,0,1,.3-.038.787.787,0,0,0,.279.5.548.548,0,0,0,.47.026.149.149,0,1,1,.089.285A1.087,1.087,0,0,1,1094.3,484.53Z" transform="translate(-1080.247 -473.965)" fill="#363e44"/>
        </g>
        <g id="Grupo_946639" data-name="Grupo 946639" transform="translate(33.648 25.503)">
          <g id="Grupo_946637" data-name="Grupo 946637" transform="translate(0.76 1.074)">
            <path id="Trazado_626619" data-name="Trazado 626619" d="M1096.43,596.35h-22.3L1085.4,570.4h22.3Z" transform="translate(-1074.132 -570.403)" fill="#f38e1e"/>
          </g>
          <g id="Grupo_946638" data-name="Grupo 946638">
            <path id="Trazado_626620" data-name="Trazado 626620" d="M1069.183,588.87a.147.147,0,0,1-.059-.012.149.149,0,0,1-.077-.2l11.019-25.381a.149.149,0,0,1,.137-.09h21.763a.149.149,0,1,1,0,.3H1080.3l-10.98,25.291A.149.149,0,0,1,1069.183,588.87Z" transform="translate(-1069.034 -563.191)" fill="#efbc73"/>
          </g>
        </g>
        <path id="Trazado_626621" data-name="Trazado 626621" d="M901.139,438.118a.148.148,0,0,1-.078-.022c-2.933-1.8-4.163-4.327-3.462-7.123.958-3.822,5.409-7.265,9.72-7.518,6.938-.407,9.146-3.443,9.167-3.474a.149.149,0,0,1,.244.17c-.09.13-2.3,3.184-9.394,3.6-4.193.246-8.519,3.586-9.449,7.293-.666,2.659.516,5.072,3.329,6.8a.149.149,0,0,1-.078.276Z" transform="translate(-889.329 -415.761)" fill="#84524d"/>
        <g id="Grupo_946640" data-name="Grupo 946640" transform="translate(55.258 31.484)">
          <path id="Trazado_626622" data-name="Trazado 626622" d="M1221.308,604.792c.18-1.321,3.187-1.5,6.1-1.448,2.142.037,4.578.237,4.578,1.958,0,2-3.018,2-4.982,1.832C1224.094,606.887,1221.133,606.083,1221.308,604.792Z" transform="translate(-1220.226 -603.337)" fill="#e2a18d"/>
          <path id="Trazado_626623" data-name="Trazado 626623" d="M1214.819,624.529c.2-1.394,3.475-1.581,6.656-1.529,2.336.039,4.993.25,4.993,2.068,0,2.112-3.291,2.11-5.433,1.934C1217.856,626.741,1214.627,625.893,1214.819,624.529Z" transform="translate(-1214.702 -620.065)" fill="#e2a18d"/>
          <path id="Trazado_626624" data-name="Trazado 626624" d="M1214.088,647.048c.111-1.451,3-1.768,5.8-1.833,2.062-.048,4.414.072,4.494,1.953.093,2.187-2.809,2.308-4.706,2.206C1216.864,649.224,1213.979,648.466,1214.088,647.048Z" transform="translate(-1214.085 -638.969)" fill="#e2a18d"/>
          <path id="Trazado_626625" data-name="Trazado 626625" d="M1218.942,669.247c.084-1.2,2.348-1.459,4.552-1.507,1.618-.036,3.465.068,3.531,1.626.077,1.812-2.2,1.907-3.69,1.819C1221.125,671.055,1218.86,670.422,1218.942,669.247Z" transform="translate(-1218.217 -658.14)" fill="#e2a18d"/>
          <path id="Trazado_626626" data-name="Trazado 626626" d="M1247.018,653.7q-.354,0-.745-.023a.149.149,0,0,1,.017-.3c1.661.1,2.825-.131,3.364-.661a1.372,1.372,0,0,0-.01-1.873l-.2-.19.267-.063c1.251-.293,1.838-.912,1.8-1.891a1.471,1.471,0,0,0-.636-1.206l-.288-.206.349-.062a4.754,4.754,0,0,0,.823-.217.149.149,0,1,1,.1.279,4.559,4.559,0,0,1-.57.169,1.781,1.781,0,0,1,.516,1.23c.045,1.063-.556,1.78-1.788,2.132a1.589,1.589,0,0,1,.3.895,1.54,1.54,0,0,1-.452,1.215A4.065,4.065,0,0,1,1247.018,653.7Z" transform="translate(-1241.358 -640.495)" fill="#363e44"/>
          <path id="Trazado_626627" data-name="Trazado 626627" d="M1249.365,624.25h-.008l-6.194-.317a.149.149,0,0,1-.141-.156.151.151,0,0,1,.156-.141l6.194.317a.149.149,0,0,1-.007.3Z" transform="translate(-1238.71 -620.61)" fill="#363e44"/>
          <path id="Trazado_626628" data-name="Trazado 626628" d="M1244.46,646.488h-.01l-6.02-.381a.149.149,0,0,1,.019-.3l6.02.382a.149.149,0,0,1-.009.3Z" transform="translate(-1234.685 -639.481)" fill="#363e44"/>
          <path id="Trazado_626629" data-name="Trazado 626629" d="M1234.908,669.673h-.007l-6.144-.28a.149.149,0,1,1,.014-.3l6.144.28a.149.149,0,0,1-.007.3Z" transform="translate(-1226.45 -659.298)" fill="#363e44"/>
        </g>
        <g id="Grupo_946643" data-name="Grupo 946643" transform="translate(5.058 26.743)">
          <g id="Grupo_946641" data-name="Grupo 946641">
            <path id="Trazado_626630" data-name="Trazado 626630" d="M900.614,572.66c-7.286,5.529-23.475,28.318-23.475,28.318l4.477,5.124,1.726.729a11.54,11.54,0,0,0,14.819-5.487l8.141-16.814s1.491.369,2.111-.205a3.791,3.791,0,0,0,.874-2.11,1.99,1.99,0,0,0,1.289-1.271,1.724,1.724,0,0,0-.344-1.641,2.41,2.41,0,0,0,.256-2.226c-.782-1.671-4-2.263-4-2.263s7.736.674,7.64-1.359C914.04,571.581,903.31,570.614,900.614,572.66Z" transform="translate(-877.138 -571.516)" fill="#e2a18d"/>
          </g>
          <g id="Grupo_946642" data-name="Grupo 946642" transform="translate(1.512 19.874)">
            <path id="Trazado_626631" data-name="Trazado 626631" d="M887.434,712.343a.149.149,0,0,1-.12-.237c1.206-1.657,3.107-4.241,5.313-7.139a.149.149,0,1,1,.237.18c-2.2,2.9-4.1,5.478-5.309,7.134A.148.148,0,0,1,887.434,712.343Z" transform="translate(-887.285 -704.908)" fill="#363e44"/>
          </g>
          <path id="Trazado_626632" data-name="Trazado 626632" d="M1069.161,610.365a.149.149,0,0,1-.122-.064,5.071,5.071,0,0,0-2.5-1.9,4.994,4.994,0,0,0-2.455-.185.149.149,0,0,1-.051-.294,5.3,5.3,0,0,1,2.6.2,5.37,5.37,0,0,1,2.651,2.012.149.149,0,0,1-.122.234Z" transform="translate(-1036.081 -602.431)" fill="#363e44"/>
          <path id="Trazado_626633" data-name="Trazado 626633" d="M1069.472,631.389a.148.148,0,0,1-.116-.056,4.918,4.918,0,0,0-1.507-1.263,5,5,0,0,0-2.389-.593h0a.149.149,0,0,1,0-.3,5.308,5.308,0,0,1,2.532.629,5.218,5.218,0,0,1,1.6,1.339.149.149,0,0,1-.116.242Z" transform="translate(-1037.275 -620.588)" fill="#363e44"/>
          <path id="Trazado_626634" data-name="Trazado 626634" d="M1071.76,651.348a.149.149,0,0,1-.138-.2l.453-1.145a.149.149,0,0,1,.277.11l-.453,1.145A.148.148,0,0,1,1071.76,651.348Z" transform="translate(-1042.637 -638.226)" fill="#363e44"/>
        </g>
      </g>
      <g id="Grupo_946662" data-name="Grupo 946662" transform="translate(0 67.821)">
        <rect id="Rectángulo_341200" data-name="Rectángulo 341200" width="23.116" height="30.256" transform="translate(38.557 99.949)" fill="#776e42"/>
        <g id="Grupo_946650" data-name="Grupo 946650" transform="translate(11.881 59.924)">
          <g id="Grupo_946646" data-name="Grupo 946646" transform="translate(0 102.806)">
            <path id="Trazado_626635" data-name="Trazado 626635" d="M450.3,1925.337l-16.653-.25,3.247-21.733,16.653,2.822Z" transform="translate(-430.443 -1903.354)" fill="#e2a18d"/>
            <g id="Grupo_946645" data-name="Grupo 946645" transform="translate(0 16.552)">
              <path id="Trazado_626636" data-name="Trazado 626636" d="M455.265,2030.939H412.142l3.971-16.485h16.894l12.217,3.727A13.254,13.254,0,0,1,455.265,2030.939Z" transform="translate(-412.142 -2014.454)" fill="#12263f"/>
            </g>
            <path id="Trazado_626637" data-name="Trazado 626637" d="M537.908,2018.4a.149.149,0,0,1-.107-.252l3.318-3.425a.149.149,0,1,1,.214.208l-3.317,3.424A.149.149,0,0,1,537.908,2018.4Z" transform="translate(-519.043 -1998.091)" fill="#fff"/>
            <path id="Trazado_626638" data-name="Trazado 626638" d="M559.956,2022.808a.149.149,0,0,1-.107-.253l3.318-3.425a.149.149,0,1,1,.214.207l-3.318,3.425A.149.149,0,0,1,559.956,2022.808Z" transform="translate(-537.806 -2001.843)" fill="#fff"/>
            <path id="Trazado_626639" data-name="Trazado 626639" d="M582,2029.422a.149.149,0,0,1-.107-.253l3.318-3.425a.149.149,0,0,1,.214.207l-3.318,3.425A.147.147,0,0,1,582,2029.422Z" transform="translate(-556.57 -2007.472)" fill="#fff"/>
            <path id="Trazado_626640" data-name="Trazado 626640" d="M457.641,2108.355h-42a.149.149,0,0,1,0-.3h42a.149.149,0,0,1,0,.3Z" transform="translate(-414.996 -2077.559)" fill="#fff"/>
          </g>
          <g id="Grupo_946648" data-name="Grupo 946648" transform="translate(38.569 102.806)">
            <path id="Trazado_626641" data-name="Trazado 626641" d="M709.173,1925.337l-16.653-.25,3.247-21.733,16.653,2.822Z" transform="translate(-689.317 -1903.354)" fill="#e2a18d"/>
            <g id="Grupo_946647" data-name="Grupo 946647" transform="translate(0 16.552)">
              <path id="Trazado_626642" data-name="Trazado 626642" d="M714.139,2030.939H671.016l3.971-16.485h16.894l12.217,3.727A13.254,13.254,0,0,1,714.139,2030.939Z" transform="translate(-671.016 -2014.454)" fill="#12263f"/>
            </g>
            <path id="Trazado_626643" data-name="Trazado 626643" d="M795.872,2018.4a.149.149,0,0,1-.107-.252l3.317-3.425a.149.149,0,0,1,.214.208l-3.318,3.424A.148.148,0,0,1,795.872,2018.4Z" transform="translate(-777.143 -1998.091)" fill="#fff"/>
            <path id="Trazado_626644" data-name="Trazado 626644" d="M817.92,2022.808a.149.149,0,0,1-.107-.253l3.317-3.425a.149.149,0,1,1,.214.207l-3.318,3.425A.149.149,0,0,1,817.92,2022.808Z" transform="translate(-795.906 -2001.843)" fill="#fff"/>
            <path id="Trazado_626645" data-name="Trazado 626645" d="M839.967,2029.422a.147.147,0,0,1-.1-.042.149.149,0,0,1,0-.211l3.318-3.425a.149.149,0,0,1,.214.207l-3.318,3.425A.147.147,0,0,1,839.967,2029.422Z" transform="translate(-814.669 -2007.472)" fill="#fff"/>
            <path id="Trazado_626646" data-name="Trazado 626646" d="M715.605,2108.355h-42a.149.149,0,0,1,0-.3h42a.149.149,0,0,1,0,.3Z" transform="translate(-673.096 -2077.559)" fill="#fff"/>
          </g>
          <g id="Grupo_946649" data-name="Grupo 946649" transform="translate(2.99)">
            <path id="Trazado_626647" data-name="Trazado 626647" d="M494.269,1217.008c12.354,51.217-3.271,112.254-3.271,112.254l-21.118-.571s1.889-42.583,2.39-67.85c-3.268,19.412-14.3,59-17.979,67.743-8.478-.265-13.6-.341-22.082-.606,5.85-32.819,15.018-80.621,20.476-114.653C463.283,1215.267,483.672,1215.065,494.269,1217.008Z" transform="translate(-432.209 -1213.324)" fill="#12263f"/>
          </g>
        </g>
        <g id="Grupo_946653" data-name="Grupo 946653" transform="translate(0 22.871)">
          <g id="Grupo_946651" data-name="Grupo 946651" transform="translate(29.14)">
            <path id="Trazado_626648" data-name="Trazado 626648" d="M540.362,967.217c6.036-1.566,14.483-3.674,20.525-1.945,16.057,4.6,46.184,18.533,48.324,29.235-2.139,2.661-15.568.786-18.872,5.025l-10.552-6.54c1.268,8.833.352,38.825,1.706,45.714-17.123,2.569-53.51-.856-53.51-.856s3.218-38.634,4.056-46.426C533.335,985.838,537.782,967.886,540.362,967.217Z" transform="translate(-527.984 -964.624)" fill="#fff"/>
          </g>
          <g id="Grupo_946652" data-name="Grupo 946652" transform="translate(0 1.879)">
            <path id="Trazado_626649" data-name="Trazado 626649" d="M371.17,983.823c-12.786,3.23-44.092,21.457-37.992,31.624,5.27,8.784,28.123-8.183,35.678-12.257C371.6,998.752,373.706,988.681,371.17,983.823Z" transform="translate(-332.399 -982.842)" fill="#6aceae"/>
            <path id="Trazado_626650" data-name="Trazado 626650" d="M793.28,977.239c6.43.9,12.615,2.484,24.4,10.274,9.279,6.133,16.267,11.273,17.3,17.729-2.139,2.661-15.568.786-18.872,5.025l-10.552-6.54C799.257,994.487,799.58,986.479,793.28,977.239Z" transform="translate(-724.614 -977.239)" fill="#6aceae"/>
          </g>
          <path id="Trazado_626651" data-name="Trazado 626651" d="M780.35,973.408c1.173,4.069,4,9.515,5.208,17.033,2.694,16.748-.516,29.192-.963,39.329-.5,11.319,1.555,27.454,3.1,47.751l14.555.765c-4.155-20.475-6.9-37.381-6.1-48.8.717-10.286-.107-24.019-2.033-37.224a47.684,47.684,0,0,0-6.167-17.193A63.078,63.078,0,0,0,780.35,973.408Z" transform="translate(-713.611 -972.099)" fill="#6aceae"/>
          <path id="Trazado_626652" data-name="Trazado 626652" d="M862.47,1068.83a.149.149,0,0,1-.148-.133c-.223-2.053-.471-4.127-.737-6.166-.289-2.217-1.171-6.678-1.78-9.007a.149.149,0,1,1,.288-.075c.612,2.338,1.5,6.818,1.787,9.044.266,2.041.514,4.117.737,6.172a.149.149,0,0,1-.132.164Z" transform="translate(-781.224 -1040.121)" fill="#363e44"/>
          <path id="Trazado_626653" data-name="Trazado 626653" d="M428.567,967.661a138.7,138.7,0,0,0-3.639,35.026c.314,17.184,3.549,24.2,2.247,38.367a85.729,85.729,0,0,1-10.595,33.5l-30.822.558c10.342-16.829,14.829-31.106,17.016-41.034,2.964-13.458,2.667-23.314,7.706-43.825,2.211-9,4.357-15.462,5.939-20.136A100.31,100.31,0,0,1,428.567,967.661Z" transform="translate(-377.809 -967.208)" fill="#6aceae"/>
          <path id="Trazado_626654" data-name="Trazado 626654" d="M777.968,970.453l5.833,7.563-5.565,4.727L772.688,969.1Z" transform="translate(-707.091 -968.431)" fill="#e5fdf3"/>
          <path id="Trazado_626655" data-name="Trazado 626655" d="M616.957,967.56l-4.293,9.4,6.612,3.509,2.818-13.77Z" transform="translate(-570.908 -966.394)" fill="#e5fdf3"/>
          <path id="Trazado_626656" data-name="Trazado 626656" d="M504.551,1402.958a39.449,39.449,0,0,1-19.3,1.784l-2.283,7.991a48.211,48.211,0,0,0,20.691-.571Z" transform="translate(-460.536 -1337.651)" fill="#e5fdf3"/>
        </g>
        <g id="Grupo_946656" data-name="Grupo 946656" transform="translate(55.396 44.957)">
          <g id="Grupo_946654" data-name="Grupo 946654" transform="translate(0 0.149)">
            <path id="Trazado_626657" data-name="Trazado 626657" d="M728.661,1181.666c-4.43,1.995-7.85,3.533-8.419,3.781-2.893,1.26-16.871,7.522-15.987,9.565.565,1.3,7.609-1.694,8.877-2.12-1.349.879-8.928,4.274-8.534,5.511.427,1.342,10.462-2.129,10.547-2.133-1.03.506-8.659,4.062-8.1,5.158.646,1.271,8.895-1.725,10.209-2.287-.033.2-5.75,2.475-5.288,3.8.411,1.178,7.037-1.151,8-1.339,2.495-.562,6.864-2.2,11.919-3.815,1.785-.569,3.418-1.1,4.922-1.607Z" transform="translate(-704.215 -1171.565)" fill="#e2a18d"/>
            <path id="Trazado_626658" data-name="Trazado 626658" d="M876.438,1138.478a105.4,105.4,0,0,0,17.491-7.233,10.07,10.07,0,0,0,5.073-9.539c-2-4.793-3.245-6.476-8.25-7.839-4.23,1.891-14.836,6.671-22.455,10.1Z" transform="translate(-843.851 -1113.867)" fill="#6aceae"/>
          </g>
          <path id="Trazado_626659" data-name="Trazado 626659" d="M897.927,1170.325l-7.326,2.321-7-15.637,6.827-3.117Z" transform="translate(-856.872 -1147.78)" fill="#e5fdf3"/>
          <g id="Grupo_946655" data-name="Grupo 946655" transform="translate(24.297)">
            <path id="Trazado_626660" data-name="Trazado 626660" d="M867.446,1123.266a.149.149,0,0,1-.061-.285l5.239-2.359c6.513-2.933,13.9-6.258,17.216-7.742a.149.149,0,1,1,.122.272c-3.32,1.484-10.7,4.808-17.215,7.742l-5.239,2.359A.15.15,0,0,1,867.446,1123.266Z" transform="translate(-867.297 -1112.866)" fill="#363e44"/>
          </g>
          <path id="Trazado_626661" data-name="Trazado 626661" d="M769.908,1235.393a.149.149,0,0,1-.139-.1l-.506-1.349a.149.149,0,1,1,.279-.1l.506,1.349a.149.149,0,0,1-.14.2Z" transform="translate(-759.563 -1215.737)" fill="#363e44"/>
          <path id="Trazado_626662" data-name="Trazado 626662" d="M779.016,1257.87a.149.149,0,0,1-.14-.1l-.562-1.573a.149.149,0,0,1,.281-.1l.562,1.573a.149.149,0,0,1-.14.2Z" transform="translate(-767.267 -1234.673)" fill="#363e44"/>
          <path id="Trazado_626663" data-name="Trazado 626663" d="M788.124,1281.141a.148.148,0,0,1-.137-.091l-.618-1.461a.149.149,0,0,1,.274-.116l.618,1.461a.149.149,0,0,1-.079.2A.151.151,0,0,1,788.124,1281.141Z" transform="translate(-774.97 -1254.573)" fill="#363e44"/>
          <path id="Trazado_626664" data-name="Trazado 626664" d="M799.118,1300.764a.149.149,0,0,1-.136-.087l-.674-1.471a.149.149,0,0,1,.271-.124l.674,1.471a.149.149,0,0,1-.135.211Z" transform="translate(-784.278 -1271.265)" fill="#363e44"/>
        </g>
        <g id="Grupo_946657" data-name="Grupo 946657" transform="translate(0.181 31.057)">
          <path id="Trazado_626665" data-name="Trazado 626665" d="M355.935,1034.773c5.74-1.68,21.077-6.914,21.077-6.914s3.341-8.671,4.862-8.274c2.5.652.812,6.451.812,6.451s8.993-2.54,9.536-.367a1.7,1.7,0,0,1-1.078,1.947,1.793,1.793,0,0,1,1.867,1.541,2.579,2.579,0,0,1-1.211,2.335,1.633,1.633,0,0,1,1.611,1.482,1.869,1.869,0,0,1-1.355,2.069c.319.056,1.664.066,1.813,1.344.181,1.559-1.115,1.973-2.283,2.283-2.682.816-6.655,2.771-11.549,4.82-11.5,4.812-16.188,6.672-22.3,6.977-3.9.195-7.492-.151-11.164-3.1C349.5,1043.085,353.007,1039.055,355.935,1034.773Z" transform="translate(-344.644 -1019.572)" fill="#e2a18d"/>
          <path id="Trazado_626666" data-name="Trazado 626666" d="M361.29,1075.887a42.8,42.8,0,0,0,1.5,7.42,41.539,41.539,0,0,0,3.924,9.846c-22.117,10.131-31.723,4.648-32.962.285C332.94,1090.588,335.034,1085.3,361.29,1075.887Z" transform="translate(-333.615 -1067.497)" fill="#6aceae"/>
          <rect id="Rectángulo_341201" data-name="Rectángulo 341201" width="7.277" height="18.079" transform="matrix(0.93, -0.367, 0.367, 0.93, 20.916, 11.235)" fill="#e5fdf3"/>
          <path id="Trazado_626667" data-name="Trazado 626667" d="M390.175,1083.8a.149.149,0,0,1-.067-.282c2.02-1.01,17.444-7.666,19-8.143a.149.149,0,1,1,.087.285c-1.552.475-16.938,7.116-18.955,8.124A.15.15,0,0,1,390.175,1083.8Z" transform="translate(-381.622 -1067.051)" fill="#363e44"/>
          <path id="Trazado_626668" data-name="Trazado 626668" d="M617.771,1065.372a.149.149,0,0,1-.145-.115l-.315-1.352a.149.149,0,0,1,.29-.068l.315,1.352a.149.149,0,0,1-.111.179A.14.14,0,0,1,617.771,1065.372Z" transform="translate(-575.041 -1057.144)" fill="#363e44"/>
          <path id="Trazado_626669" data-name="Trazado 626669" d="M623.171,1088.392a.149.149,0,0,1-.145-.115l-.315-1.352a.149.149,0,0,1,.29-.068l.315,1.352a.149.149,0,0,1-.111.179A.14.14,0,0,1,623.171,1088.392Z" transform="translate(-579.636 -1076.734)" fill="#363e44"/>
          <path id="Trazado_626670" data-name="Trazado 626670" d="M628.927,1111.777a.149.149,0,0,1-.145-.115l-.315-1.352a.149.149,0,1,1,.29-.068l.315,1.352a.149.149,0,0,1-.145.183Z" transform="translate(-584.535 -1096.635)" fill="#363e44"/>
          <path id="Trazado_626671" data-name="Trazado 626671" d="M633.71,1133.092a.149.149,0,0,1-.145-.115l-.315-1.352a.149.149,0,0,1,.29-.068l.315,1.352a.15.15,0,0,1-.145.183Z" transform="translate(-588.605 -1114.775)" fill="#363e44"/>
        </g>
        <g id="Grupo_946658" data-name="Grupo 946658" transform="translate(76.723 53.4)">
          <rect id="Rectángulo_341202" data-name="Rectángulo 341202" width="5.279" height="18.403" transform="matrix(0.866, -0.5, 0.5, 0.866, 0.306, 2.639)" fill="#363e44"/>
          <circle id="Elipse_8202" data-name="Elipse 8202" cx="4.608" cy="4.608" r="4.608" transform="translate(0 4.81) rotate(-22.5)" fill="#fff"/>
          <path id="Trazado_626672" data-name="Trazado 626672" d="M887.271,1218.135a.149.149,0,0,1-.147-.126l-.545-3.511,2.453.31a.149.149,0,0,1-.037.3l-2.061-.26.485,3.12a.149.149,0,0,1-.124.17Z" transform="translate(-880.735 -1207.799)" fill="#363e44"/>
        </g>
        <g id="Grupo_946661" data-name="Grupo 946661" transform="translate(51.025 0)">
          <path id="Trazado_626673" data-name="Trazado 626673" d="M728.855,845.121c-2.6.222-7.955-3.865-7.955-3.865l-.539-11.074c1.345-3.415,5.28-4.482,8.7-3.137h.161c3.415,1.345,4.432,4.237,3.555,8.914C732.772,835.958,731.736,844.874,728.855,845.121Z" transform="translate(-713.585 -824.191)" fill="#e2a18d"/>
          <path id="Trazado_626674" data-name="Trazado 626674" d="M698.747,874.57a4.889,4.889,0,0,0,5.793-3.774l3.607-17.086a.4.4,0,0,0-.312-.479l-9.172-1.936-3.69,17.481A4.889,4.889,0,0,0,698.747,874.57Z" transform="translate(-691.889 -845.31)" fill="#e2a18d"/>
          <g id="Grupo_946659" data-name="Grupo 946659" transform="translate(11.943 9.895)">
            <path id="Trazado_626675" data-name="Trazado 626675" d="M755.041,877.555a6.322,6.322,0,0,1,2.743.375c.291.115-1.175,2.227-1.4,1.986A6.337,6.337,0,0,1,755.041,877.555Z" transform="translate(-755.041 -877.531)" fill="#fff"/>
            <path id="Trazado_626676" data-name="Trazado 626676" d="M766.311,880.668a4.44,4.44,0,0,0-.857-.445,2.486,2.486,0,0,0-1.4,1.982,4.485,4.485,0,0,0,.775.667,1.979,1.979,0,1,0,1.484-2.2Z" transform="translate(-762.709 -879.822)" fill="#363e44"/>
          </g>
          <path id="Trazado_626677" data-name="Trazado 626677" d="M739.683,935.54a.147.147,0,0,1-.055-.011,25.5,25.5,0,0,1-4.49-2.48.149.149,0,0,1,.173-.243,25.16,25.16,0,0,0,4.428,2.446.149.149,0,0,1-.055.287Z" transform="translate(-726.107 -914.653)" fill="#363e44"/>
          <path id="Trazado_626678" data-name="Trazado 626678" d="M771.635,917.685a.854.854,0,0,1-.68-.327.874.874,0,0,1-.064-.947.149.149,0,1,1,.263.14.577.577,0,0,0,.037.624.592.592,0,0,0,.733.141.149.149,0,0,1,.136.265A.929.929,0,0,1,771.635,917.685Z" transform="translate(-756.493 -900.657)" fill="#363e44"/>
          <path id="Trazado_626679" data-name="Trazado 626679" d="M796.576,906.591c.085-.433-.282-.853-.509-1.317a1.333,1.333,0,0,1-.144-.7l-.913,2.318a4.4,4.4,0,0,0,.585.15C796.018,907.1,796.5,906.962,796.576,906.591Z" transform="translate(-777.113 -890.646)" fill="#e2a18d"/>
          <path id="Trazado_626680" data-name="Trazado 626680" d="M704.742,840.891a18.274,18.274,0,0,1,.838,3.585c.071,1.5-.348,1.873-.553,1.873-.412,0-1.14-1.077-1.391-1.5-.165.428-.471.784-.821.821-.515.053-1.2-.58-1.213-1.605a1.548,1.548,0,0,1-1,.5A1.7,1.7,0,0,1,699,843.424q-2.183,4.357-3.139,4.1-.468-.125-.642-1.355-.387.755-.642.714c-.341-.056-.507-.576-.5-2.756-1.28,4.056-2.363,5.444-3.246,5.36q-.486-.047-.892-.927c-.793.707-1.615.86-1.855.607a1.528,1.528,0,0,1,.321-1.748c-.91.053-1.455-.124-1.57-.464-.223-.66.74-1.275,1.7-1.784,1.151-.607,2.186-1.587,2.809-4.388C698.112,838.76,703.891,838.972,704.742,840.891Z" transform="translate(-685.025 -835.149)" fill="#84524d"/>
          <path id="Trazado_626681" data-name="Trazado 626681" d="M715.333,817.429c1.07-4.905,4.992-6.906,8.909-6.163,3.76.713,6.18,4.307,5.832,8.731Z" transform="translate(-709.306 -811.116)" fill="#12263f"/>
          <path id="Trazado_626682" data-name="Trazado 626682" d="M779.33,861.956l-.028,0-15.464-2.943a.149.149,0,1,1,.056-.293l15.464,2.943a.149.149,0,0,1-.027.3Z" transform="translate(-750.48 -851.623)" fill="#363e44"/>
          <g id="Grupo_946660" data-name="Grupo 946660" transform="translate(5.82 8.77)">
            <path id="Trazado_626683" data-name="Trazado 626683" d="M717.021,876.39a2.7,2.7,0,0,1-1.786-1.478,2.377,2.377,0,0,1,.808-3.239,3.159,3.159,0,0,1,1.864.13Z" transform="translate(-714.784 -871.336)" fill="#e2a18d"/>
            <path id="Trazado_626684" data-name="Trazado 626684" d="M716.177,875.186a.15.15,0,0,1-.032,0,2.853,2.853,0,0,1-1.887-1.557,2.528,2.528,0,0,1,.876-3.438,2.321,2.321,0,0,1,2.579.491.149.149,0,0,1-.2.22,2.025,2.025,0,0,0-2.246-.443,2.232,2.232,0,0,0-.74,3.039,2.553,2.553,0,0,0,1.684,1.4.149.149,0,0,1-.032.294Z" transform="translate(-713.94 -869.983)" fill="#363e44"/>
            <path id="Trazado_626685" data-name="Trazado 626685" d="M721.761,880.417a.148.148,0,0,1-.121-.062,1.68,1.68,0,0,1-.148-.246,1.357,1.357,0,0,1,.479-1.846,1.1,1.1,0,0,1,.494-.112.149.149,0,0,1,0,.3h-.007a.8.8,0,0,0-.355.082,1.062,1.062,0,0,0-.343,1.446,1.4,1.4,0,0,0,.122.2.149.149,0,0,1-.12.237Z" transform="translate(-720.223 -876.935)" fill="#363e44"/>
          </g>
          <path id="Trazado_626686" data-name="Trazado 626686" d="M678.41,953.834c.106.343-.289,3.123,2.649,4.147,2.639.92,5.169-.035,7.01-2.542a13.675,13.675,0,0,0,2.533,1.347c-.979,4-5.164,5.876-9.034,5.449a7.343,7.343,0,0,1-6.689-6.359A16.467,16.467,0,0,0,678.41,953.834Z" transform="translate(-674.878 -932.571)" fill="#f7f1eb"/>
          <path id="Trazado_626687" data-name="Trazado 626687" d="M766.792,912.781c.213-.187-.176-1.2-.91-1.766-1.277-.985-3.352-.428-3.371-.107-.009.147.405.38,2.354.749C766.355,912.879,766.694,912.867,766.792,912.781Z" transform="translate(-749.455 -895.657)" fill="#84524d"/>
        </g>
      </g>
    </g>
  </g>
</svg>
