<svg xmlns="http://www.w3.org/2000/svg" xmlns:xlink="http://www.w3.org/1999/xlink" width="359" height="281.314" viewBox="0 0 359 281.314">
  <defs>
    <clipPath id="clip-path">
      <rect id="Rectángulo_341203" data-name="Rectángulo 341203" width="197.359" height="99.729" fill="#f6f6f6"/>
    </clipPath>
    <clipPath id="clip-path-2">
      <rect id="Rectángulo_341204" data-name="Rectángulo 341204" width="148.855" height="75.219" fill="#fff"/>
    </clipPath>
    <linearGradient id="linear-gradient" x1="-0.313" y1="0.077" x2="0.994" y2="0.757" gradientUnits="objectBoundingBox">
      <stop offset="0" stop-color="#f5f5f5"/>
      <stop offset="0.25" stop-color="#f5f5f5"/>
      <stop offset="1" stop-color="#a7b3cf"/>
    </linearGradient>
    <clipPath id="clip-path-3">
      <rect id="Rectángulo_341209" data-name="Rectángulo 341209" width="132.415" height="229.564" rx="29.249" fill="none"/>
    </clipPath>
    <linearGradient id="linear-gradient-2" x1="0.463" y1="0.375" x2="0.764" y2="1.476" gradientUnits="objectBoundingBox">
      <stop offset="0" stop-color="#4f52ff"/>
      <stop offset="1" stop-color="#4042e2"/>
    </linearGradient>
    <linearGradient id="linear-gradient-3" x1="5.254" y1="3.932" x2="5.418" y2="0.146" xlink:href="#linear-gradient-2"/>
    <linearGradient id="linear-gradient-4" x1="8.578" y1="-25.423" x2="8.477" y2="-24.956" xlink:href="#linear-gradient-2"/>
    <linearGradient id="linear-gradient-5" x1="8.645" y1="-25.183" x2="8.545" y2="-24.716" xlink:href="#linear-gradient-2"/>
    <linearGradient id="linear-gradient-6" x1="0.591" y1="0.81" x2="0.785" y2="1.48" gradientUnits="objectBoundingBox">
      <stop offset="0" stop-color="#09005d"/>
      <stop offset="1" stop-color="#1a0f91"/>
    </linearGradient>
    <linearGradient id="linear-gradient-7" x1="0.472" y1="1.291" x2="0.454" y2="1.819" xlink:href="#linear-gradient-6"/>
    <linearGradient id="linear-gradient-8" x1="31.48" y1="0.5" x2="32.48" y2="0.5" gradientUnits="objectBoundingBox">
      <stop offset="0" stop-color="#febbba"/>
      <stop offset="1" stop-color="#ff928e"/>
    </linearGradient>
    <linearGradient id="linear-gradient-9" x1="0.912" y1="-0.484" x2="0.438" y2="1.105" xlink:href="#linear-gradient-8"/>
    <linearGradient id="linear-gradient-10" x1="-3.288" y1="25.55" x2="-3.61" y2="24.484" xlink:href="#linear-gradient-8"/>
    <linearGradient id="linear-gradient-11" x1="-2.997" y1="18.515" x2="-2.781" y2="19.698" xlink:href="#linear-gradient-6"/>
    <linearGradient id="linear-gradient-12" x1="-13.894" y1="121.396" x2="-14.837" y2="116.749" xlink:href="#linear-gradient-8"/>
    <linearGradient id="linear-gradient-13" x1="0" y1="0.5" x2="1" y2="0.5" xlink:href="#linear-gradient-8"/>
    <linearGradient id="linear-gradient-14" x1="44.165" y1="0.5" x2="45.165" y2="0.5" xlink:href="#linear-gradient-6"/>
    <linearGradient id="linear-gradient-15" x1="33.217" y1="0.5" x2="34.217" y2="0.5" xlink:href="#linear-gradient-6"/>
    <linearGradient id="linear-gradient-16" x1="80.251" y1="-0.866" x2="79.329" y2="0.839" xlink:href="#linear-gradient-6"/>
    <linearGradient id="linear-gradient-17" x1="3.19" y1="-7.122" x2="1.532" y2="-2.425" xlink:href="#linear-gradient-2"/>
    <linearGradient id="linear-gradient-19" x1="2.348" y1="-9.752" x2="1.652" y2="-5.887" gradientUnits="objectBoundingBox">
      <stop offset="0" stop-color="#53d8ff"/>
      <stop offset="1" stop-color="#3840f7"/>
    </linearGradient>
  </defs>
  <g id="Grupo_947558" data-name="Grupo 947558" transform="translate(370 10562.398)">
    <g id="Grupo_947557" data-name="Grupo 947557">
      <g id="Grupo_947556" data-name="Grupo 947556">
        <g id="Grupo_946663" data-name="Grupo 946663" transform="translate(-11 -10300.5) rotate(180)" clip-path="url(#clip-path)">
          <path id="Trazado_626688" data-name="Trazado 626688" d="M98.679,99.729A98.679,98.679,0,0,1,0,1.05C0,.7.01.351.014,0H197.345c0,.351.014.7.014,1.05A98.679,98.679,0,0,1,98.679,99.729" transform="translate(0 0)" fill="#f6f6f6"/>
        </g>
        <g id="Grupo_946664" data-name="Grupo 946664" transform="translate(-292.194 -10507.989) rotate(91)" clip-path="url(#clip-path-2)">
          <path id="Trazado_626689" data-name="Trazado 626689" d="M74.428,75.219A74.427,74.427,0,0,1,0,.792C0,.527.007.264.01,0H148.845c0,.264.01.527.01.792A74.427,74.427,0,0,1,74.428,75.219" transform="translate(0 0)" fill="#fff"/>
        </g>
        <g id="Grupo_946689" data-name="Grupo 946689" transform="translate(-999.36 -11023.811)">
          <g id="Grupo_946668" data-name="Grupo 946668" transform="translate(707.146 473.257)">
            <g id="Grupo_946665" data-name="Grupo 946665">
              <rect id="Rectángulo_341205" data-name="Rectángulo 341205" width="149.07" height="257.504" rx="29.249" fill="#12263f"/>
              <rect id="Rectángulo_341206" data-name="Rectángulo 341206" width="135.43" height="241.628" rx="29.249" transform="translate(6.816 8.003)" fill="url(#linear-gradient)"/>
              <path id="Rectángulo_341207" data-name="Rectángulo 341207" d="M0,0H82.058a0,0,0,0,1,0,0V0a7.806,7.806,0,0,1-7.806,7.806H7.806A7.806,7.806,0,0,1,0,0V0A0,0,0,0,1,0,0Z" transform="translate(33.943 7.653)" fill="#12263f"/>
              <rect id="Rectángulo_341208" data-name="Rectángulo 341208" width="50.025" height="2.853" rx="1.427" transform="translate(50.915 8.703)" fill="#7d97f4"/>
            </g>
            <g id="Grupo_946667" data-name="Grupo 946667" transform="translate(8.237 14.687)">
              <g id="Grupo_946666" data-name="Grupo 946666" clip-path="url(#clip-path-3)">
                <path id="Trazado_626690" data-name="Trazado 626690" d="M1246,800.567l-184.86-44.608,3.77-14.752,184.86,44.608Z" transform="translate(-1078.349 -733.417)" fill="#fff" opacity="0.21" style="mix-blend-mode: overlay;isolation: isolate"/>
                <path id="Trazado_626691" data-name="Trazado 626691" d="M1088.868,1917.247l-184.86-44.608,11.692-45.75,184.86,44.608Z" transform="translate(-936.75 -1711.787)" fill="#fff" opacity="0.21" style="mix-blend-mode: overlay;isolation: isolate"/>
                <path id="Trazado_626692" data-name="Trazado 626692" d="M1190.909,1687.853l-184.86-44.608,3.036-11.88,184.86,44.608Z" transform="translate(-1028.706 -1535.588)" fill="#fff" opacity="0.21" style="mix-blend-mode: overlay;isolation: isolate"/>
                <path id="Trazado_626693" data-name="Trazado 626693" d="M1197.955,1126.2l-184.86-44.608,1.767-6.916,184.86,44.608Z" transform="translate(-1035.055 -1033.922)" fill="#fff" opacity="0.21" style="mix-blend-mode: overlay;isolation: isolate"/>
              </g>
            </g>
          </g>
          <g id="Grupo_946673" data-name="Grupo 946673" transform="translate(658.36 468.811)">
            <circle id="Elipse_8203" data-name="Elipse 8203" cx="51.304" cy="51.304" r="51.304" fill="#12263f"/>
            <circle id="Elipse_8204" data-name="Elipse 8204" cx="46.18" cy="46.18" r="46.18" transform="translate(5.395 5.363)" fill="#fff"/>
            <g id="Grupo_946671" data-name="Grupo 946671" transform="translate(22.26 19.896)">
              <path id="Trazado_626694" data-name="Trazado 626694" d="M893.653,673.059l-5.75-2.816a1.427,1.427,0,0,0-1.583.221l-.625.563-1.01.91-.647.582a1.428,1.428,0,0,0-.385,1.552l2.2,6.012a2.817,2.817,0,0,0,2.043,1.809l3.886.85,25.234,28.02,1.454-1.31,1.01-.91,1.373-1.236-25.235-28.02-.41-3.98A2.826,2.826,0,0,0,893.653,673.059Z" transform="translate(-883.565 -670.097)" fill="#91b3fa"/>
              <path id="Trazado_626695" data-name="Trazado 626695" d="M898.466,678.742l-5.211-2.572a1.331,1.331,0,0,0-1.458.164l-.563.507-.91.819-.583.525a1.331,1.331,0,0,0-.315,1.433l2,5.433a2.563,2.563,0,0,0,1.857,1.63l3.517.766,22.756,25.268,1.292-1.163.91-.819,1.422-1.281-22.756-25.268-.462-3.5A2.523,2.523,0,0,0,898.466,678.742Z" transform="translate(-888.77 -675.441)" fill="#7d97f4"/>
              <g id="Grupo_946670" data-name="Grupo 946670" transform="translate(25.24 29.02)">
                <path id="Trazado_626696" data-name="Trazado 626696" d="M1184.5,996.378l-17.94-16.012-9.06,8.188,13.806,19.072a12.087,12.087,0,0,0,5.127,4.063l5.5,2.346a2.7,2.7,0,0,0,2.818-.4l3.767-3.392a2.7,2.7,0,0,0,.752-2.511l-.926-4.618A12.229,12.229,0,0,0,1184.5,996.378Z" transform="translate(-1155.66 -978.718)" fill="url(#linear-gradient-2)"/>
                <path id="Trazado_626697" data-name="Trazado 626697" d="M1150.707,964.31a1.5,1.5,0,0,1-.11,2.112l-9.075,8.173a1.5,1.5,0,0,1-2.112-.11l-.11-.122a1.5,1.5,0,0,1,.11-2.112l9.075-8.173a1.5,1.5,0,0,1,2.112.11Z" transform="translate(-1138.916 -963.693)" fill="url(#linear-gradient-3)"/>
                <g id="Grupo_946669" data-name="Grupo 946669" transform="translate(5.924 5.859)">
                  <path id="Trazado_626698" data-name="Trazado 626698" d="M1218.195,1083.164a1.278,1.278,0,0,1-.094,1.8l-.019.017a1.278,1.278,0,0,1-1.8-.094l-17.1-18.99a1.278,1.278,0,0,1,.094-1.805l.019-.017a1.278,1.278,0,0,1,1.805.094Z" transform="translate(-1198.846 -1059.72)" fill="url(#linear-gradient-4)"/>
                  <path id="Trazado_626699" data-name="Trazado 626699" d="M1263.481,1042.379a1.278,1.278,0,0,1-.094,1.805l-.019.017a1.278,1.278,0,0,1-1.805-.094l-17.1-18.99a1.278,1.278,0,0,1,.094-1.8l.019-.017a1.278,1.278,0,0,1,1.805.094Z" transform="translate(-1239.656 -1022.967)" fill="url(#linear-gradient-5)"/>
                </g>
              </g>
            </g>
            <g id="Grupo_946672" data-name="Grupo 946672" transform="translate(16.841 17.292)">
              <path id="Trazado_626700" data-name="Trazado 626700" d="M832.031,840.2l-1.21,1.128c-2.077,1.936-2.7,4.641-1.4,6.041l1.552,1.665c1.305,1.4,4.047.966,6.124-.969l1.211-1.128q.12-.112.236-.229l34.44-35-3.381-3.627-37.328,31.9Q832.152,840.086,832.031,840.2Zm1.666,1.6c1.564-1.457,3.533-1.886,4.4-.957s.3,2.864-1.263,4.321-3.533,1.886-4.4.957S832.134,843.253,833.7,841.8Z" transform="translate(-828.742 -791.841)" fill="url(#linear-gradient-6)"/>
              <path id="Trazado_626701" data-name="Trazado 626701" d="M1215.961,646.742l-7.023,6.546a2.2,2.2,0,0,0-.691,1.819l.329,3.489a2.2,2.2,0,0,0,1.833,1.967l3.457.573a2.2,2.2,0,0,0,1.862-.562l7.023-6.546a1.693,1.693,0,0,1,2.85,1.17,12.672,12.672,0,0,1-4.076,9.6c-5.051,4.708-12.2,4.008-16.724-.85s-4.724-12.035.326-16.743a12.672,12.672,0,0,1,9.867-3.391A1.693,1.693,0,0,1,1215.961,646.742Z" transform="translate(-1164.54 -643.759)" fill="url(#linear-gradient-7)"/>
              <path id="Trazado_626702" data-name="Trazado 626702" d="M1222.2,653.438l-7.023,6.546a2.2,2.2,0,0,0-.691,1.818l.329,3.489a2.2,2.2,0,0,0,1.833,1.967l3.457.573a2.2,2.2,0,0,0,1.862-.562l7.023-6.546a1.693,1.693,0,0,1,2.85,1.17,12.673,12.673,0,0,1-4.076,9.6c-5.051,4.708-12.2,4.008-16.724-.851s-4.724-12.035.326-16.742a12.672,12.672,0,0,1,9.867-3.391A1.693,1.693,0,0,1,1222.2,653.438Z" transform="translate(-1170.165 -649.793)" fill="#f38e1e"/>
              <path id="Trazado_626703" data-name="Trazado 626703" d="M837.01,845.54l-1.21,1.128c-2.077,1.936-2.7,4.641-1.4,6.041l1.552,1.665c1.305,1.4,4.047.966,6.124-.969l1.211-1.128q.12-.112.235-.229l34.44-35-3.381-3.627-37.328,31.9Q837.13,845.427,837.01,845.54Zm1.666,1.6c1.564-1.458,3.534-1.886,4.4-.957s.3,2.864-1.263,4.321-3.533,1.886-4.4.957S837.112,848.594,838.676,847.137Z" transform="translate(-833.228 -796.654)" fill="#f38e1e"/>
            </g>
          </g>
          <g id="Grupo_946674" data-name="Grupo 946674" transform="translate(774.535 492.99)">
            <path id="Trazado_626704" data-name="Trazado 626704" d="M1962.682,749.246c13.589,2.382,27.635,3.011,41.214.216a83.058,83.058,0,0,0,17.854-5.841c8.837-4.051,19.272-8.693,20.6-19.644.743-6.12-3.653-9.111-9.03-10.167a11.489,11.489,0,0,0-5.461-.066c-1.695.49-1.4,1.152-1.274,2.765q.2,2.516.393,5.032c.229,2.934-4.149,4.327-6.247,5.545a77.146,77.146,0,0,1-15.69,6.97c-13.1,4.093-27.036,4.242-40.567,2.682a6.321,6.321,0,0,0-1.8,12.509Z" transform="translate(-1945.21 -713.438)" fill="#b0c0d2"/>
            <path id="Trazado_626705" data-name="Trazado 626705" d="M1862.242,875.141l-27.951-19.649a1.376,1.376,0,0,1,.174-2.356l29.375-14.75a1.6,1.6,0,0,1,2.309,1.507c-3.534,12.246-3.933,23.591-1.748,34.195A1.372,1.372,0,0,1,1862.242,875.141Z" transform="translate(-1833.707 -825.882)" fill="#b0c0d2"/>
          </g>
          <g id="Grupo_946675" data-name="Grupo 946675" transform="translate(692.883 681.355)">
            <path id="Trazado_626706" data-name="Trazado 626706" d="M1091.507,2639.707c-12.73,5.318-26.293,9.026-40.153,9.291a83.047,83.047,0,0,1-18.7-1.764c-9.512-2-20.714-4.234-24.424-14.622-2.073-5.806,1.555-9.692,6.567-11.906,2.349-1.038,4.93-1.947,7.441-1.411-.785,2.342-1.609,6.969.249,8.914,1.326,1.387,5.672,2.095,7.514,2.672a77.147,77.147,0,0,0,16.84,3.342c13.679,1.106,27.306-1.819,40.161-6.322a6.321,6.321,0,0,1,4.507,11.806Z" transform="translate(-1007.632 -2619.136)" fill="#dee4f0"/>
            <path id="Trazado_626707" data-name="Trazado 626707" d="M1662.038,2660.045l22.935-25.324a1.376,1.376,0,0,0-.689-2.259l-31.9-7.916a1.6,1.6,0,0,0-1.92,1.979c6.146,11.167,9.034,22.145,9.239,32.969A1.372,1.372,0,0,0,1662.038,2660.045Z" transform="translate(-1586.867 -2623.968)" fill="#dee4f0"/>
          </g>
          <g id="Grupo_946679" data-name="Grupo 946679" transform="translate(749.333 548.675)">
            <g id="Grupo_946676" data-name="Grupo 946676" transform="translate(38.935 14.333)">
              <path id="Trazado_626708" data-name="Trazado 626708" d="M2372.078,1423.332a.306.306,0,0,1-.229-.1q-.4-.457-.82-.9a.307.307,0,0,1,.448-.419q.422.45.832.913a.307.307,0,0,1-.23.51Z" transform="translate(-2331.576 -1421.811)" fill="#fff"/>
              <path id="Trazado_626709" data-name="Trazado 626709" d="M2027.529,1535.646q-.528,0-1.055-.012a.307.307,0,0,1,.007-.613h.007c.823.02,1.655.016,2.482-.01a.306.306,0,0,1,.019.613C2028.5,1535.638,2028.013,1535.646,2027.529,1535.646Zm5.5-.338a.307.307,0,0,1-.037-.611c.817-.1,1.642-.226,2.453-.372a.307.307,0,1,1,.109.6c-.822.148-1.658.275-2.487.378Zm6.427-1.274a.307.307,0,0,1-.081-.6c.791-.217,1.59-.461,2.374-.724a.307.307,0,0,1,.195.582c-.795.266-1.6.513-2.406.733A.314.314,0,0,1,2039.454,1534.034Zm6.178-2.187a.307.307,0,0,1-.123-.588c.757-.331,1.512-.686,2.246-1.055a.307.307,0,0,1,.276.548c-.743.374-1.509.733-2.276,1.069A.307.307,0,0,1,2045.632,1531.846Zm5.8-3.047a.307.307,0,0,1-.162-.567c.7-.434,1.4-.895,2.07-1.366a.307.307,0,0,1,.352.5c-.683.478-1.389.944-2.1,1.385A.307.307,0,0,1,2051.432,1528.8Zm5.3-3.852a.307.307,0,0,1-.2-.541c.63-.532,1.252-1.088,1.848-1.652a.307.307,0,1,1,.421.446c-.6.571-1.234,1.135-1.873,1.674A.307.307,0,0,1,2056.731,1524.948Zm4.68-4.579a.307.307,0,0,1-.23-.51c.545-.617,1.08-1.258,1.589-1.9a.306.306,0,1,1,.481.38c-.516.654-1.058,1.3-1.61,1.929A.307.307,0,0,1,2061.41,1520.369Zm3.968-5.211a.307.307,0,0,1-.256-.474c.449-.688.886-1.4,1.3-2.114a.307.307,0,0,1,.532.306c-.418.724-.861,1.445-1.316,2.143A.306.306,0,0,1,2065.378,1515.158Zm3.176-5.729a.307.307,0,0,1-.278-.436c.347-.75.678-1.517.982-2.279a.306.306,0,1,1,.569.227c-.308.772-.643,1.55-.994,2.31A.307.307,0,0,1,2068.554,1509.429Zm2.321-6.128a.307.307,0,0,1-.293-.394c.235-.79.452-1.6.644-2.4a.307.307,0,1,1,.6.143c-.195.811-.414,1.628-.653,2.429A.308.308,0,0,1,2070.875,1503.3Zm1.417-6.4a.33.33,0,0,1-.045,0,.307.307,0,0,1-.259-.348c.12-.814.218-1.644.292-2.465a.3.3,0,0,1,.333-.278.307.307,0,0,1,.278.333c-.075.832-.175,1.672-.3,2.5A.306.306,0,0,1,2072.292,1496.9Zm.476-6.537a.306.306,0,0,1-.306-.307c0-.827-.024-1.662-.07-2.48a.307.307,0,0,1,.289-.323.312.312,0,0,1,.323.289c.046.83.07,1.676.07,2.514A.307.307,0,0,1,2072.768,1490.366Zm-.478-6.536a.307.307,0,0,1-.3-.262c-.12-.816-.264-1.639-.429-2.444a.307.307,0,1,1,.6-.122c.167.816.313,1.65.435,2.477a.308.308,0,0,1-.259.349A.336.336,0,0,1,2072.29,1483.83Zm-1.422-6.4a.307.307,0,0,1-.294-.218c-.238-.792-.5-1.585-.778-2.357a.307.307,0,0,1,.577-.208c.282.783.548,1.586.789,2.388a.307.307,0,0,1-.205.382A.314.314,0,0,1,2070.868,1477.434Zm-2.328-6.125a.308.308,0,0,1-.279-.178c-.346-.747-.719-1.495-1.105-2.221a.307.307,0,0,1,.541-.288c.392.737.769,1.494,1.121,2.252a.306.306,0,0,1-.278.436Zm-3.179-5.73a.306.306,0,0,1-.257-.139c-.448-.687-.925-1.373-1.415-2.038a.307.307,0,0,1,.494-.364c.5.675.979,1.37,1.434,2.067a.307.307,0,0,1-.256.475Z" transform="translate(-2020.883 -1458.85)" fill="#fff"/>
              <path id="Trazado_626710" data-name="Trazado 626710" d="M1974.169,2188.784l-.035,0q-.614-.07-1.224-.157a.306.306,0,1,1,.086-.606q.6.084,1.208.154a.307.307,0,0,1-.035.611Z" transform="translate(-1972.646 -2112.281)" fill="#fff"/>
            </g>
            <g id="Grupo_946677" data-name="Grupo 946677" transform="translate(0)">
              <path id="Trazado_626711" data-name="Trazado 626711" d="M1670.46,2009.837a.306.306,0,0,1-.241-.117q-.381-.484-.751-.98a.307.307,0,0,1,.492-.366q.364.49.74.968a.307.307,0,0,1-.241.5Z" transform="translate(-1660.446 -1935.951)" fill="#fff"/>
              <path id="Trazado_626712" data-name="Trazado 626712" d="M1585.769,1346.412a.307.307,0,0,1-.262-.146c-.428-.7-.844-1.418-1.238-2.144a.307.307,0,0,1,.539-.292c.388.716.8,1.427,1.221,2.115a.307.307,0,0,1-.261.467Zm-2.977-5.721a.306.306,0,0,1-.281-.184q-.108-.248-.213-.5c-.247-.589-.487-1.194-.712-1.8a.307.307,0,1,1,.575-.214c.222.6.458,1.194.7,1.775q.1.246.21.491a.307.307,0,0,1-.281.429Zm-2.145-6.082a.307.307,0,0,1-.3-.226c-.218-.794-.417-1.6-.591-2.4a.307.307,0,1,1,.6-.13c.172.791.368,1.589.583,2.372a.308.308,0,0,1-.3.388Zm-1.26-6.326a.306.306,0,0,1-.3-.269c-.1-.817-.183-1.646-.241-2.464a.308.308,0,0,1,.285-.328.313.313,0,0,1,.328.285c.056.806.136,1.624.237,2.43a.307.307,0,0,1-.266.343Zm-.341-6.441h-.006a.307.307,0,0,1-.3-.313c.016-.821.054-1.654.115-2.474a.307.307,0,1,1,.611.045c-.06.809-.1,1.63-.113,2.44A.307.307,0,0,1,1579.046,1321.842Zm.583-6.424a.3.3,0,0,1-.05,0,.306.306,0,0,1-.253-.352c.132-.811.289-1.629.465-2.432a.307.307,0,1,1,.6.132c-.174.792-.328,1.6-.459,2.4A.306.306,0,0,1,1579.63,1315.418Zm1.49-6.274a.307.307,0,0,1-.292-.4c.245-.783.516-1.57.8-2.34a.306.306,0,1,1,.574.215c-.285.76-.552,1.537-.794,2.309A.307.307,0,0,1,1581.12,1309.144Zm2.362-6a.307.307,0,0,1-.276-.439c.356-.745.735-1.486,1.128-2.2a.307.307,0,0,1,.538.294c-.387.707-.761,1.438-1.112,2.173A.306.306,0,0,1,1583.481,1303.144Zm3.186-5.6a.307.307,0,0,1-.255-.477c.456-.684.936-1.363,1.428-2.02a.307.307,0,1,1,.491.368c-.485.648-.958,1.318-1.408,1.992A.306.306,0,0,1,1586.668,1297.539Zm3.948-5.094a.307.307,0,0,1-.228-.511c.546-.61,1.119-1.214,1.7-1.8a.307.307,0,1,1,.433.433c-.574.574-1.138,1.17-1.677,1.772A.307.307,0,0,1,1590.616,1292.444Zm4.633-4.478a.307.307,0,0,1-.2-.542c.631-.528,1.283-1.044,1.939-1.534a.307.307,0,0,1,.367.492c-.647.483-1.29.992-1.912,1.512A.306.306,0,0,1,1595.249,1287.967Zm5.227-3.769a.307.307,0,0,1-.161-.568c.7-.431,1.418-.849,2.14-1.242a.307.307,0,1,1,.293.539c-.712.388-1.422.8-2.111,1.226A.306.306,0,0,1,1600.476,1284.2Zm5.712-2.988a.307.307,0,0,1-.123-.588q.294-.128.592-.254c.564-.237,1.136-.464,1.7-.676a.307.307,0,0,1,.215.575c-.559.209-1.124.433-1.679.667q-.294.124-.585.25A.306.306,0,0,1,1606.188,1281.209Zm6.078-2.159a.307.307,0,0,1-.082-.6c.794-.22,1.6-.421,2.4-.6a.307.307,0,1,1,.131.6c-.789.173-1.587.371-2.37.588A.3.3,0,0,1,1612.266,1279.05Zm6.322-1.274a.307.307,0,0,1-.038-.611c.813-.1,1.642-.187,2.463-.246a.3.3,0,0,1,.328.283.307.307,0,0,1-.283.328c-.81.059-1.628.141-2.43.243Zm8.9-.248h-.022c-.809-.058-1.629-.094-2.439-.107a.307.307,0,0,1,.005-.613h.005c.821.014,1.653.05,2.473.109a.307.307,0,0,1-.022.613Z" transform="translate(-1578.74 -1276.807)" fill="#fff"/>
              <path id="Trazado_626713" data-name="Trazado 626713" d="M2110.711,1283.43a.289.289,0,0,1-.058-.005q-.6-.113-1.2-.21a.307.307,0,0,1,.1-.606q.61.1,1.216.213a.307.307,0,0,1-.056.608Z" transform="translate(-2056.765 -1282.032)" fill="#fff"/>
            </g>
            <g id="Grupo_946678" data-name="Grupo 946678" transform="translate(11.73 11.93)">
              <path id="Trazado_626714" data-name="Trazado 626714" d="M1741.938,1398.064a.543.543,0,0,0-.618.125l-4.514,4.828a28.792,28.792,0,0,0-9.325-.254l-4.244-5.062a.543.543,0,0,0-.61-.158l-7.4,2.836a.544.544,0,0,0-.348.526l.222,6.6a28.792,28.792,0,0,0-6.769,6.418l-6.585-.578a.543.543,0,0,0-.543.32l-3.23,7.24a.543.543,0,0,0,.125.618l4.829,4.514a28.792,28.792,0,0,0-.254,9.325l-5.062,4.245a.543.543,0,0,0-.158.61l2.836,7.4a.543.543,0,0,0,.526.348l6.6-.222a28.794,28.794,0,0,0,6.418,6.769l-.578,6.585a.543.543,0,0,0,.32.543l7.24,3.23a.543.543,0,0,0,.618-.125l4.514-4.829a28.786,28.786,0,0,0,9.325.255l4.244,5.062a.543.543,0,0,0,.61.158l7.4-2.836a.543.543,0,0,0,.349-.525l-.223-6.6a28.793,28.793,0,0,0,6.77-6.419l6.584.578a.543.543,0,0,0,.543-.32l3.23-7.241a.543.543,0,0,0-.125-.618l-4.829-4.514a28.791,28.791,0,0,0,.255-9.325l5.062-4.245a.542.542,0,0,0,.158-.61l-2.835-7.4a.544.544,0,0,0-.526-.349l-6.6.223a28.789,28.789,0,0,0-6.418-6.769l.578-6.584a.543.543,0,0,0-.32-.544Z" transform="translate(-1697.411 -1397.507)" fill="#b0c0d2"/>
              <path id="Trazado_626715" data-name="Trazado 626715" d="M1972.634,1680.257a7.578,7.578,0,0,1-1.3-.113,7.5,7.5,0,0,1-3.029-13.523h0a7.5,7.5,0,1,1,4.332,13.637Zm-.025-14.08a6.542,6.542,0,0,0-3.777,1.2h0a6.586,6.586,0,1,0,3.777-1.2Zm-4.042.819h0Z" transform="translate(-1938.655 -1638.792)" fill="#fff" opacity="0.7"/>
              <path id="Trazado_626716" data-name="Trazado 626716" d="M1861.852,1585.734a19.592,19.592,0,0,1-7.029-37.887q.405-.155.816-.292a19.687,19.687,0,0,1,2.838-.718c.125-.022.251-.042.376-.062l.141.91a18.754,18.754,0,0,0-3.842,1.022h0a18.664,18.664,0,1,0,18.214,2.752l.568-.724a19.594,19.594,0,0,1-12.082,35Z" transform="translate(-1827.922 -1532.02)" fill="#fff" opacity="0.7"/>
            </g>
          </g>
          <g id="Grupo_946683" data-name="Grupo 946683" transform="translate(717.021 615.017)">
            <g id="Grupo_946680" data-name="Grupo 946680" transform="translate(22.365 7.86)">
              <path id="Trazado_626717" data-name="Trazado 626717" d="M1698.865,2029.02a.305.305,0,0,1-.231-.105c-.265-.3-.54-.6-.818-.893a.307.307,0,0,1,.443-.425c.285.3.567.6.838.915a.307.307,0,0,1-.231.508Z" transform="translate(-1676.022 -2027.502)" fill="#fff"/>
              <path id="Trazado_626718" data-name="Trazado 626718" d="M1530.3,2108.127a.307.307,0,0,1-.023-.613c.788-.059,1.579-.156,2.353-.287a.307.307,0,0,1,.1.6c-.793.135-1.6.234-2.41.294Zm6.162-1.235a.307.307,0,0,1-.1-.6c.721-.24,1.444-.516,2.147-.823l.065-.029a.307.307,0,0,1,.248.561l-.068.03c-.72.313-1.46.6-2.2.842A.311.311,0,0,1,1536.466,2106.892Zm5.679-2.691a.307.307,0,0,1-.165-.566c.665-.422,1.318-.88,1.94-1.361a.307.307,0,0,1,.375.485c-.637.493-1.306.962-1.987,1.394A.309.309,0,0,1,1542.145,2104.2Zm4.852-3.992a.307.307,0,0,1-.223-.518c.541-.572,1.062-1.175,1.546-1.794a.307.307,0,0,1,.483.378c-.5.634-1.029,1.252-1.584,1.838A.306.306,0,0,1,1547,2100.209Zm3.726-5.056a.307.307,0,0,1-.267-.457c.386-.687.744-1.4,1.064-2.118a.307.307,0,0,1,.561.25c-.328.736-.695,1.466-1.09,2.168A.307.307,0,0,1,1550.723,2095.153Zm2.388-5.812a.307.307,0,0,1-.3-.388c.208-.758.383-1.536.519-2.313a.31.31,0,0,1,.355-.249.307.307,0,0,1,.249.355c-.14.795-.319,1.592-.532,2.369A.307.307,0,0,1,1553.111,2089.341Zm.906-6.218h-.006a.307.307,0,0,1-.3-.313c0-.18.006-.361.006-.541,0-.609-.022-1.225-.067-1.83a.307.307,0,1,1,.612-.044c.045.62.069,1.25.069,1.875q0,.277-.006.554A.307.307,0,0,1,1554.017,2083.124Zm-.642-6.251a.306.306,0,0,1-.3-.238c-.178-.769-.393-1.537-.641-2.283a.307.307,0,0,1,.583-.193c.253.764.474,1.55.655,2.337a.306.306,0,0,1-.23.368A.291.291,0,0,1,1553.375,2076.872Zm-2.148-5.906a.307.307,0,0,1-.274-.168c-.358-.7-.752-1.4-1.172-2.061a.307.307,0,0,1,.519-.328c.43.68.834,1.391,1.2,2.11a.307.307,0,0,1-.273.446Z" transform="translate(-1524.869 -2064.238)" fill="#fff"/>
              <path id="Trazado_626719" data-name="Trazado 626719" d="M1479.632,2464.65h-.025c-.413-.033-.828-.076-1.234-.129a.307.307,0,1,1,.079-.608c.4.051.8.093,1.2.125a.307.307,0,0,1-.024.613Z" transform="translate(-1478.105 -2420.774)" fill="#fff"/>
            </g>
            <g id="Grupo_946681" data-name="Grupo 946681">
              <path id="Trazado_626720" data-name="Trazado 626720" d="M1303.055,2361.744a.307.307,0,0,1-.239-.115c-.262-.324-.517-.655-.757-.983a.307.307,0,0,1,.495-.363c.234.32.483.643.739.961a.307.307,0,0,1-.238.5Z" transform="translate(-1297.041 -2319.418)" fill="#fff"/>
              <path id="Trazado_626721" data-name="Trazado 626721" d="M1255.076,1986.084a.307.307,0,0,1-.272-.165c-.288-.551-.559-1.118-.806-1.685q-.1-.24-.2-.481a.307.307,0,1,1,.568-.233q.1.235.2.468c.241.554.506,1.107.787,1.646a.307.307,0,0,1-.271.449Zm-2.192-5.782a.307.307,0,0,1-.3-.233c-.19-.77-.346-1.558-.464-2.343a.307.307,0,0,1,.606-.092c.115.767.268,1.536.453,2.288a.307.307,0,0,1-.224.371A.3.3,0,0,1,1252.884,1980.3Zm-.741-6.139h0a.307.307,0,0,1-.306-.308c0-.794.04-1.6.115-2.386a.3.3,0,0,1,.334-.276.307.307,0,0,1,.276.334c-.073.77-.111,1.554-.112,2.33A.307.307,0,0,1,1252.143,1974.163Zm.76-6.136a.314.314,0,0,1-.075-.009.307.307,0,0,1-.223-.372c.192-.768.421-1.538.683-2.289a.307.307,0,0,1,.579.2c-.256.732-.48,1.484-.667,2.234A.307.307,0,0,1,1252.9,1968.027Zm2.2-5.776a.307.307,0,0,1-.271-.45c.371-.7.778-1.4,1.209-2.06a.307.307,0,0,1,.514.335c-.421.646-.818,1.323-1.181,2.01A.307.307,0,0,1,1255.106,1962.251Zm3.519-5.082a.306.306,0,0,1-.229-.51c.527-.593,1.088-1.168,1.667-1.709a.307.307,0,1,1,.419.448c-.565.528-1.112,1.089-1.627,1.668A.306.306,0,0,1,1258.625,1957.169Zm4.638-4.085a.307.307,0,0,1-.173-.56c.653-.447,1.336-.87,2.031-1.256a.307.307,0,1,1,.3.536c-.678.377-1.345.79-1.983,1.227A.306.306,0,0,1,1263.263,1953.084Zm5.484-2.853a.307.307,0,0,1-.108-.594c.743-.28,1.507-.528,2.272-.739a.307.307,0,0,1,.162.592c-.746.205-1.493.448-2.218.721A.31.31,0,0,1,1268.747,1950.231Zm6.007-1.465a.307.307,0,0,1-.036-.611c.787-.093,1.589-.15,2.384-.17a.313.313,0,0,1,.314.3.307.307,0,0,1-.3.314c-.776.019-1.558.075-2.326.166Z" transform="translate(-1251.836 -1947.985)" fill="#fff"/>
              <path id="Trazado_626722" data-name="Trazado 626722" d="M1544.807,1950.762a.306.306,0,0,1-.053,0c-.391-.069-.794-.13-1.2-.181a.307.307,0,1,1,.077-.608c.413.052.826.115,1.226.186a.307.307,0,0,1-.053.608Z" transform="translate(-1514.48 -1949.77)" fill="#fff"/>
            </g>
            <g id="Grupo_946682" data-name="Grupo 946682" transform="translate(6.841 6.942)">
              <path id="Trazado_626723" data-name="Trazado 626723" d="M1345.928,2018.394a.307.307,0,0,0-.349.075l-2.518,2.765a16.282,16.282,0,0,0-5.277-.074l-2.439-2.832a.307.307,0,0,0-.346-.085l-4.168,1.659a.308.308,0,0,0-.193.3l.175,3.733a16.288,16.288,0,0,0-3.782,3.681l-3.729-.278a.308.308,0,0,0-.305.185l-1.774,4.12a.308.308,0,0,0,.075.349l2.765,2.517a16.285,16.285,0,0,0-.075,5.277l-2.832,2.439a.308.308,0,0,0-.085.346l1.659,4.167a.307.307,0,0,0,.3.193l3.733-.175a16.29,16.29,0,0,0,3.681,3.782l-.278,3.729a.306.306,0,0,0,.185.3l4.12,1.774a.307.307,0,0,0,.349-.076l2.518-2.765a16.268,16.268,0,0,0,5.277.075l2.439,2.832a.308.308,0,0,0,.346.085l4.167-1.659a.308.308,0,0,0,.193-.3l-.175-3.733a16.3,16.3,0,0,0,3.782-3.682l3.729.278a.308.308,0,0,0,.305-.185l1.774-4.12a.307.307,0,0,0-.075-.349l-2.765-2.518a16.285,16.285,0,0,0,.074-5.277l2.832-2.439a.307.307,0,0,0,.085-.347l-1.659-4.167a.307.307,0,0,0-.3-.193l-3.733.175a16.291,16.291,0,0,0-3.681-3.782l.278-3.729a.307.307,0,0,0-.185-.305Z" transform="translate(-1321.051 -2018.221)" fill="#b0c0d2"/>
              <path id="Trazado_626724" data-name="Trazado 626724" d="M1474.275,2175.881a4.438,4.438,0,1,1,2.6-.841A4.439,4.439,0,0,1,1474.275,2175.881Zm-.013-7.965a3.541,3.541,0,1,0,.566.046A3.5,3.5,0,0,0,1474.262,2167.916Z" transform="translate(-1455.12 -2152.29)" fill="#fff" opacity="0.7"/>
              <path id="Trazado_626725" data-name="Trazado 626725" d="M1411.6,2122.676a11.287,11.287,0,0,1-4.172-21.773h0a11.391,11.391,0,0,1,2.164-.622l.148-.026.153.907a10.484,10.484,0,0,0-2.126.6h0a10.36,10.36,0,1,0,10.129,1.395l.558-.731a11.293,11.293,0,0,1-6.856,20.256Z" transform="translate(-1392.485 -2092.146)" fill="#fff" opacity="0.7"/>
            </g>
          </g>
          <g id="Grupo_946688" data-name="Grupo 946688" transform="translate(804.118 546.085)">
            <path id="Trazado_626726" data-name="Trazado 626726" d="M3014.77,2257.236a24.773,24.773,0,0,0,5.762,4.212,47.857,47.857,0,0,1-10.531,9.365l-1.3,2.923-4.174-5S3012.013,2265.006,3014.77,2257.236Z" transform="translate(-2918.381 -2157.737)" fill="url(#linear-gradient-8)"/>
            <path id="Trazado_626727" data-name="Trazado 626727" d="M2720.629,1857.94a34.535,34.535,0,0,0,3.511-5.358c1.377-2.6,6.474-4.782,6.851-7.72,9.313,1.62,18.721,2.136,25.489,3.548a8.915,8.915,0,0,1,5.07,2.721c5.148,5.957,16.444,22.268,3.148,38.7a24.77,24.77,0,0,1-5.761-4.212c1.471-4.147,1.591-9.446-1.492-15.944a15.131,15.131,0,0,1-.394,1.527,94.569,94.569,0,0,0-4.466,27.245.853.853,0,0,1-.535.8c-5.592,2.241-16.357.907-19.97.369a1.215,1.215,0,0,1-1.017-1.379c1.774-12.848-7.328-33.985-9.732-39.279A3.524,3.524,0,0,0,2720.629,1857.94Z" transform="translate(-2662.547 -1786.123)" fill="#e8e8e8"/>
            <path id="Trazado_626728" data-name="Trazado 626728" d="M2896.791,1752.873l1.078,11.011s-6.307,2.182-10.813-1l3.28-10.324Z" transform="translate(-2812.524 -1702.948)" fill="url(#linear-gradient-9)"/>
            <path id="Trazado_626729" data-name="Trazado 626729" d="M3094.328,1960.933a34.784,34.784,0,0,0,1.351-13.074.311.311,0,0,0-.347-.281h0a.311.311,0,0,0-.276.335,34.1,34.1,0,0,1-1.32,12.816.309.309,0,0,0,.185.394h0A.316.316,0,0,0,3094.328,1960.933Z" transform="translate(-2998.759 -1878.684)" fill="#12263f"/>
            <g id="Grupo_946684" data-name="Grupo 946684" transform="translate(22.9 58.537)">
              <path id="Trazado_626730" data-name="Trazado 626730" d="M2456.57,1856.626c10.631,5.327,19.269-5.61,24.934-10.075,7.48-5.9,13.3-3.027,13.3-3.027l-7.977,15.224c-14.178,17.158-25,9.727-31.827,5.1A14.848,14.848,0,0,1,2456.57,1856.626Z" transform="translate(-2446.064 -1842.827)" fill="#e8e8e8"/>
              <path id="Trazado_626731" data-name="Trazado 626731" d="M2366.687,1952.9h0c5.406,1.834,4.776,2.14,8.512,2.7a14.844,14.844,0,0,0-1.57,7.22,35.7,35.7,0,0,1-7.975-5.1c-1.461-.7-.954-2.99-.449-4.452A.911.911,0,0,1,2366.687,1952.9Z" transform="translate(-2364.693 -1941.797)" fill="#e8e8e8"/>
            </g>
            <g id="Grupo_946685" data-name="Grupo 946685" transform="translate(71.319 33.822)">
              <path id="Trazado_626732" data-name="Trazado 626732" d="M2858.682,1656.967s-4.685,8.818-4.084,12.38,6.406,3.306,11.476.413l3.542-9.521Z" transform="translate(-2854.545 -1650.623)" fill="url(#linear-gradient-10)"/>
              <path id="Trazado_626733" data-name="Trazado 626733" d="M2882.457,1607.245a.363.363,0,0,1-.159-.532,9.49,9.49,0,0,0,1.3-2.767s.842-.539-2.143-1.254-7.438-1.824-8.373-4.365c-.912-2.478,3.981-5.693,7.806-.729.145.189-2.066-2.821-1.92-3.01.627-.816,2.275-2.51,4.563-1.483a3.436,3.436,0,0,1,2.354,3.321.361.361,0,0,0,.428.37,4.191,4.191,0,0,1,4.894,2.281c1,2.2.35,3.438-.241,4.046a.362.362,0,0,0,.155.6c.712.218.472-.13.38,1.538-.127,2.3-1.546,3.052-2.28,2.947a.363.363,0,0,0-.323.114c-.629.7-3.464,3.652-6.531,4.008a.367.367,0,0,1-.385-.484l1.328-3.859a.365.365,0,0,0-.2-.453Z" transform="translate(-2871.152 -1592.784)" fill="url(#linear-gradient-11)"/>
              <path id="Trazado_626734" data-name="Trazado 626734" d="M2954.1,1734.3s3.335-2.288,3.579-.361-3,2.791-4.612,2.073Z" transform="translate(-2943.327 -1719.289)" fill="url(#linear-gradient-12)"/>
            </g>
            <g id="Grupo_946687" data-name="Grupo 946687">
              <path id="Trazado_626735" data-name="Trazado 626735" d="M2354.839,1874.219l.069,4.351c.118,7.465,4.294,13.453,9.328,13.373l5.985-.095c5.034-.08,9.019-6.2,8.9-13.662l-.069-4.351q-.007-.432-.032-.864l-7.614-128.894-13.038.207-3.525,129.07Q2354.832,1873.786,2354.839,1874.219Zm6.054-.438c-.089-5.621,2.546-10.22,5.886-10.273s6.12,4.461,6.209,10.082-2.546,10.22-5.886,10.273S2360.981,1879.4,2360.893,1873.781Z" transform="translate(-2332.91 -1695.302)" fill="#12263f"/>
              <path id="Trazado_626736" data-name="Trazado 626736" d="M2151.194,1255.956l.4,25.244a5.794,5.794,0,0,0,2.331,4.554l7.388,5.507a5.8,5.8,0,0,0,7.07-.112l7.21-5.738a5.794,5.794,0,0,0,2.186-4.625l-.4-25.245a4.453,4.453,0,0,1,7.306-3.5,33.325,33.325,0,0,1,11.563,24.882c.288,18.155-13.67,30.868-31.133,31.144s-31.816-11.988-32.1-30.142a33.326,33.326,0,0,1,10.769-25.236A4.453,4.453,0,0,1,2151.194,1255.956Z" transform="translate(-2133.008 -1250.946)" fill="#0f1e52"/>
              <path id="Trazado_626737" data-name="Trazado 626737" d="M2175.264,1255.574l.4,25.245a5.8,5.8,0,0,0,2.331,4.554l7.389,5.507a5.794,5.794,0,0,0,7.07-.112l7.21-5.738a5.794,5.794,0,0,0,2.185-4.626l-.4-25.245a4.453,4.453,0,0,1,7.306-3.5,33.324,33.324,0,0,1,11.563,24.882c.288,18.154-13.67,30.867-31.132,31.144s-31.816-11.988-32.1-30.142a33.326,33.326,0,0,1,10.769-25.236A4.453,4.453,0,0,1,2175.264,1255.574Z" transform="translate(-2154.699 -1250.603)" fill="#f38e1e"/>
              <g id="Grupo_946686" data-name="Grupo 946686" transform="translate(23.824 48.746)">
                <path id="Trazado_626738" data-name="Trazado 626738" d="M2374.039,1873.914l.069,4.351c.118,7.466,4.295,13.453,9.329,13.373l5.985-.095c5.034-.08,9.018-6.2,8.9-13.662l-.069-4.351q-.007-.432-.032-.864l-7.613-128.894-13.038.207-3.525,129.07Q2374.032,1873.482,2374.039,1873.914Zm6.054-.438c-.089-5.62,2.546-10.22,5.886-10.273s6.12,4.461,6.209,10.082-2.547,10.22-5.886,10.273S2380.182,1879.1,2380.093,1873.476Z" transform="translate(-2374.036 -1743.773)" fill="#f38e1e"/>
              </g>
            </g>
            <path id="Trazado_626739" data-name="Trazado 626739" d="M2363.166,1953.141l.595,1.254a.635.635,0,0,0,.5.362,11.776,11.776,0,0,0,5.212-.613.989.989,0,0,0,.548-1.4,20.643,20.643,0,0,0-2.473-3.555,2.479,2.479,0,0,0-1.214-.773l-1.31-.36a1.2,1.2,0,0,0-1.392.6,6.938,6.938,0,0,0-.617,3.975A1.6,1.6,0,0,0,2363.166,1953.141Z" transform="translate(-2340.233 -1879.074)" fill="url(#linear-gradient-13)"/>
            <path id="Trazado_626740" data-name="Trazado 626740" d="M2892.226,3135.344a1.034,1.034,0,0,1,.027-.271c1.352-5.36,8.062-8.7,8.062-8.7l2.659.208c1.528,4.724,1.332,7.621,1.087,8.911-.007.036-.018.07-.028.105A63.094,63.094,0,0,1,2892.226,3135.344Z" transform="translate(-2817.182 -2940.968)" fill="url(#linear-gradient-14)"/>
            <path id="Trazado_626741" data-name="Trazado 626741" d="M2904.034,3217.373a1.153,1.153,0,0,1-.844.852c-3.12.656-8.079.128-10.161-.144a.968.968,0,0,1-.8-.964A63.072,63.072,0,0,0,2904.034,3217.373Z" transform="translate(-2817.184 -3022.74)" fill="#91b3fa"/>
            <path id="Trazado_626742" data-name="Trazado 626742" d="M2655.279,3212.332a15.874,15.874,0,0,0,5.241-.749c0,.292,0,.589-.01.9a.579.579,0,0,1-.553.589l-16.123-.1a.736.736,0,0,1-.592-1.072C2645.356,3212.068,2650.74,3212.459,2655.279,3212.332Z" transform="translate(-2592.741 -3017.754)" fill="#91b3fa"/>
            <path id="Trazado_626743" data-name="Trazado 626743" d="M2643.921,3142.7a.737.737,0,0,1,.064-.122c1.424-1.989,5.051-5.951,12.217-7.67l3.438-.108a16.494,16.494,0,0,1,1.56,7.589,15.856,15.856,0,0,1-5.24.749C2651.419,3143.267,2646.035,3142.877,2643.921,3142.7Z" transform="translate(-2593.421 -2948.563)" fill="url(#linear-gradient-15)"/>
            <path id="Trazado_626744" data-name="Trazado 626744" d="M2754.219,2363.012a327,327,0,0,0-9.111,77.053c0,.775,1.479.641,2.187.8a16.774,16.774,0,0,0,3.844.477,1.461,1.461,0,0,0,1.357-1.274c1.163-7.305,7.835-48.459,11.636-55.141,0,0,1.459,36.408.659,55.424-.02.473,1.346,1.129,1.784,1.183a13.189,13.189,0,0,0,3.086-.009c.515-.059,1.916.613,1.989.065.828-6.183,4.608-44.073,4.406-70.583-.011-1.5-3.69-8-3.69-8Z" transform="translate(-2684.605 -2253.058)" fill="#12263f"/>
            <path id="Trazado_626745" data-name="Trazado 626745" d="M2937.821,2503.33a.313.313,0,0,0,.3-.234c.688-2.652,5.837-5.566,5.889-5.6a.313.313,0,1,0-.306-.545c-.221.125-5.434,3.075-6.187,5.984a.313.313,0,0,0,.3.391Z" transform="translate(-2857.989 -2373.725)" fill="url(#linear-gradient-16)"/>
            <path id="Trazado_626746" data-name="Trazado 626746" d="M2807.212,2056.377h12.93c.771,0,2.628.531,2.8,1.283l4.789,12.6,1.023,8.239.649,16.177-23.506-.915-1.594-23.5,2.189-13.281A.724.724,0,0,1,2807.212,2056.377Z" transform="translate(-2737.955 -1976.732)" fill="#12263f"/>
            <path id="Trazado_626747" data-name="Trazado 626747" d="M2826.729,1865.191l-.441-23.428a.322.322,0,0,1,.373-.324l3.012.485a.694.694,0,0,1,.583.716l-.487,22.526a.335.335,0,0,1-.335.328h-2.4A.309.309,0,0,1,2826.729,1865.191Z" transform="translate(-2757.762 -1783.036)" fill="#12263f"/>
            <path id="Trazado_626748" data-name="Trazado 626748" d="M2958.193,1889.665a.554.554,0,0,1-.42-.662l4.567-20.363a.7.7,0,0,1,.742-.513l3.053.291a.682.682,0,0,1,.578.908l-6.232,20.386a.488.488,0,0,1-.573.334Z" transform="translate(-2876.238 -1807.086)" fill="#12263f"/>
            <circle id="Elipse_8205" data-name="Elipse 8205" cx="0.797" cy="0.797" r="0.797" transform="translate(69.579 81.048) rotate(-45)" fill="url(#linear-gradient-17)"/>
            <circle id="Elipse_8206" data-name="Elipse 8206" cx="0.797" cy="0.797" r="0.797" transform="translate(81.799 81.211) rotate(-45)" fill="url(#linear-gradient-17)"/>
            <path id="Trazado_626749" data-name="Trazado 626749" d="M2847.517,2123.837v13.285a.633.633,0,0,0,.614.633l11.284.346a.633.633,0,0,0,.652-.633v-13.631a.633.633,0,0,0-.633-.633H2848.15A.633.633,0,0,0,2847.517,2123.837Z" transform="translate(-2776.893 -2036.954)" opacity="0.34" fill="url(#linear-gradient-19)"/>
          </g>
        </g>
        <g id="Grupo_946690" data-name="Grupo 946690" transform="translate(-173.463 -10562.398)">
          <g id="Grupo_922758" data-name="Grupo 922758" transform="translate(5.39)">
            <path id="Trazado_607469" data-name="Trazado 607469" d="M592.929-104.421H549.7a3.32,3.32,0,0,1-3.317-3.317v-63.343A3.32,3.32,0,0,1,549.7-174.4h43.228a3.321,3.321,0,0,1,3.318,3.317v63.343A3.321,3.321,0,0,1,592.929-104.421ZM549.7-173.756a2.678,2.678,0,0,0-2.675,2.675v63.343a2.678,2.678,0,0,0,2.675,2.675h43.228a2.677,2.677,0,0,0,2.674-2.675v-63.343a2.677,2.677,0,0,0-2.674-2.675Z" transform="translate(-546.384 174.398)" fill="#fff"/>
          </g>
          <g id="Grupo_922759" data-name="Grupo 922759" transform="translate(0 5.462)">
            <rect id="Rectángulo_305281" data-name="Rectángulo 305281" width="49.219" height="69.335" rx="3.405" transform="translate(49.219 69.335) rotate(180)" fill="#f3c035"/>
          </g>
          <g id="Grupo_922760" data-name="Grupo 922760" transform="translate(8.824 19.45)">
            <path id="Trazado_607470" data-name="Trazado 607470" d="M577.839-135.287a13.914,13.914,0,0,0,.337-3.059,13.932,13.932,0,0,0-.375-3.226l-1.97-.021-1.172-2.8,1.4-1.335a13.994,13.994,0,0,0-4.371-4.4l-1.533,1.454-2.786-1.189.086-2.051a13.925,13.925,0,0,0-3.225-.376,13.893,13.893,0,0,0-2.946.313v2.222l-2.781,1.2-1.6-1.657a13.972,13.972,0,0,0-4.394,4.311l1.564,1.49-1.172,2.8-2.237.025a13.969,13.969,0,0,0-.377,3.232,13.931,13.931,0,0,0,.34,3.067l2.274.023,1.172,2.8-1.63,1.554a14,14,0,0,0,4.357,4.352l1.706-1.761,2.781,1.2v2.39a13.893,13.893,0,0,0,2.946.313,13.979,13.979,0,0,0,3.232-.377L567.372-127l2.786-1.188,1.637,1.554a13.974,13.974,0,0,0,4.33-4.436l-1.467-1.394,1.172-2.806Zm-13.606,3.712a6.77,6.77,0,0,1-6.771-6.771,6.77,6.77,0,0,1,6.771-6.769A6.769,6.769,0,0,1,571-138.346,6.77,6.77,0,0,1,564.233-131.575Z" transform="translate(-550.287 152.29)" fill="#fff"/>
          </g>
          <g id="Grupo_922761" data-name="Grupo 922761" transform="translate(23.578 44.398)">
            <path id="Trazado_607471" data-name="Trazado 607471" d="M582.45-111.744a8.231,8.231,0,0,0,.7-1.674,8.192,8.192,0,0,0,.324-1.887l-1.11-.34-.2-1.78,1.014-.523a8.24,8.24,0,0,0-1.741-3.212l-1.109.567-1.379-1.135.39-1.146a8.166,8.166,0,0,0-1.762-.748,8.179,8.179,0,0,0-1.718-.312l-.37,1.257-1.772.217-.632-1.2a8.216,8.216,0,0,0-3.2,1.708l.638,1.1-1.129,1.391-1.27-.357a8.226,8.226,0,0,0-.75,1.766,8.238,8.238,0,0,0-.318,1.791l1.283.391.2,1.781-1.181.608A8.266,8.266,0,0,0,569.1-110.3l1.257-.713,1.373,1.142-.4,1.351a8.211,8.211,0,0,0,1.614.667,8.266,8.266,0,0,0,1.892.324l.316-1.27,1.773-.209.668,1.151a8.241,8.241,0,0,0,3.187-1.79l-.6-1.033,1.129-1.392Zm-8.312-.161a3.991,3.991,0,0,1-2.7-4.955,3.99,3.99,0,0,1,4.953-2.7,3.99,3.99,0,0,1,2.7,4.953A3.992,3.992,0,0,1,574.138-111.905Z" transform="translate(-567.057 123.934)" fill="#0f1e52"/>
          </g>
        </g>
        <g id="Grupo_946691" data-name="Grupo 946691" transform="translate(-346.782 -10426.5)">
          <g id="Grupo_922763" data-name="Grupo 922763" transform="translate(0 0)">
            <path id="Trazado_607472" data-name="Trazado 607472" d="M556.468-256.214v59.67a3.083,3.083,0,0,1-2.811,3.294h-89.39a3.082,3.082,0,0,1-2.8-3.294v-59.67a3.082,3.082,0,0,1,2.8-3.294h89.39A3.083,3.083,0,0,1,556.468-256.214Z" transform="translate(-461.467 259.508)" fill="#fff4d6"/>
          </g>
          <g id="Grupo_922764" data-name="Grupo 922764" transform="translate(0 0)">
            <path id="Trazado_607473" data-name="Trazado 607473" d="M556.468-256.214v3.492h-95v-3.492a3.082,3.082,0,0,1,2.8-3.294h89.39A3.083,3.083,0,0,1,556.468-256.214Z" transform="translate(-461.467 259.508)" fill="#f3c035"/>
          </g>
          <g id="Grupo_922765" data-name="Grupo 922765" transform="translate(13.975 1.78)">
            <path id="Trazado_607474" data-name="Trazado 607474" d="M480.578-255.871a1.613,1.613,0,0,1-1.614,1.613,1.613,1.613,0,0,1-1.613-1.613,1.613,1.613,0,0,1,1.613-1.614A1.613,1.613,0,0,1,480.578-255.871Z" transform="translate(-477.352 257.485)" fill="#0f1e52"/>
          </g>
          <g id="Grupo_922766" data-name="Grupo 922766" transform="translate(8.807 1.78)">
            <path id="Trazado_607475" data-name="Trazado 607475" d="M474.7-255.871a1.613,1.613,0,0,1-1.613,1.613,1.613,1.613,0,0,1-1.614-1.613,1.613,1.613,0,0,1,1.614-1.614A1.613,1.613,0,0,1,474.7-255.871Z" transform="translate(-471.477 257.485)" fill="#f38e1e"/>
          </g>
          <g id="Grupo_922767" data-name="Grupo 922767" transform="translate(3.638 1.78)">
            <path id="Trazado_607476" data-name="Trazado 607476" d="M468.828-255.871a1.613,1.613,0,0,1-1.613,1.613,1.613,1.613,0,0,1-1.614-1.613,1.613,1.613,0,0,1,1.614-1.614A1.613,1.613,0,0,1,468.828-255.871Z" transform="translate(-465.602 257.485)" fill="#fff4d6"/>
          </g>
          <g id="Grupo_922883" data-name="Grupo 922883">
            <g id="Grupo_922768" data-name="Grupo 922768" transform="translate(8.826 26.442)">
              <rect id="Rectángulo_305282" data-name="Rectángulo 305282" width="77.348" height="4.021" fill="#f3c035"/>
            </g>
            <g id="Grupo_922769" data-name="Grupo 922769" transform="translate(8.826 17.948)">
              <rect id="Rectángulo_305283" data-name="Rectángulo 305283" width="77.348" height="4.021" fill="#f3c035"/>
            </g>
            <g id="Grupo_922882" data-name="Grupo 922882">
              <g id="Grupo_922770" data-name="Grupo 922770" transform="translate(8.826 51.142)">
                <rect id="Rectángulo_305284" data-name="Rectángulo 305284" width="77.348" height="4.021" fill="#f3c035"/>
              </g>
              <rect id="Rectángulo_305285" data-name="Rectángulo 305285" width="77.348" height="4.021" transform="translate(8.826 34.675)" fill="#f3c035"/>
              <g id="Grupo_922772" data-name="Grupo 922772" transform="translate(8.826 42.908)">
                <rect id="Rectángulo_305286" data-name="Rectángulo 305286" width="77.348" height="4.021" fill="#f3c035"/>
              </g>
            </g>
          </g>
        </g>
      </g>
    </g>
  </g>
</svg>
