<svg xmlns="http://www.w3.org/2000/svg" xmlns:xlink="http://www.w3.org/1999/xlink" width="54.544" height="54.547" viewBox="0 0 54.544 54.547">
  <defs>
    <clipPath id="clip-path">
      <rect id="Rectángulo_303189" data-name="Rectángulo 303189" width="54.544" height="54.547" fill="none"/>
    </clipPath>
  </defs>
  <g id="Grupo_946601" data-name="Grupo 946601" transform="translate(0)">
    <g id="Grupo_892551" data-name="Grupo 892551" transform="translate(0)" clip-path="url(#clip-path)">
      <path id="Trazado_612098" data-name="Trazado 612098" d="M39.653,35.5v2.639H37.848V35.5c-6.336-1-9.976-4.628-10.968-10.968H24.221V22.752h2.67c.155-.762.257-1.489.453-2.19a11.55,11.55,0,0,1,6.334-7.59.789.789,0,0,0,.525-.85c-.022-2.519-.013-5.037-.01-7.556A4.515,4.515,0,0,1,38.774,0q9.969,0,19.939,0a4.575,4.575,0,0,1,3.034,1.135l-1.2,1.377c-.922-.832-2.056-.693-3.161-.693-6,0-12.006.047-18.007-.026-2.226-.027-3.618,1.3-3.339,3.64H50.514V7.258H36.048V12.1l1.769-.273V9.139h1.8v2.633c6.3,1,9.934,4.627,10.974,10.956h2.64v1.8H50.593c-.991,6.335-4.618,9.978-10.94,10.968M28.8,24.557a10.063,10.063,0,0,0,3.557,6.767,6.511,6.511,0,0,1,3.354-6.038c-2.009-2.819-2-5.132.01-6.9a4.556,4.556,0,0,1,6.1.065c1.952,1.808,1.932,4.2-.075,6.842a6.524,6.524,0,0,1,2.516,2.464,6.663,6.663,0,0,1,.84,3.591,10.107,10.107,0,0,0,3.564-6.815H46.951V22.723h1.657c-.195-4.865-4.755-8.9-8.972-8.939v1.631H37.811V13.749c-5.212.29-8.956,5.142-8.912,9h1.61v1.811Zm10.857,9.13c.987-.274,1.9-.487,2.787-.785.853-.287.84-.325.837-1.246,0-.284.006-.568-.005-.852a4.544,4.544,0,0,0-8.24-2.516,6.2,6.2,0,0,0-.836,4.081.36.36,0,0,0,.185.249,8.6,8.6,0,0,0,3.451.927V31.859h1.821Zm-.938-14.595a2.725,2.725,0,1,0,2.74,2.7,2.768,2.768,0,0,0-2.74-2.7" transform="translate(-21.464 0)" fill="#12263f"/>
      <path id="Trazado_612099" data-name="Trazado 612099" d="M252.33,168.9v-9.222h1.764v7.661c.9-.8,1.709-1.5,2.511-2.208,1.79-1.577,3.57-3.166,5.371-4.73a2.845,2.845,0,0,1,3.514-.312,2.885,2.885,0,0,1,.532,4.438c-1.5,1.736-3.027,3.44-4.543,5.158q-3.984,4.514-7.96,9.036a1.8,1.8,0,0,0-.379.843,6.367,6.367,0,0,1-6.575,5.526c-1.988,0-3.977-.009-5.965,0a.929.929,0,0,1-.487-1.775,2.47,2.47,0,0,0,1.262-2.26,13.926,13.926,0,0,1,.2-2.929,6.209,6.209,0,0,1,5.4-4.827,1.493,1.493,0,0,0,.7-.3c1.573-1.365,3.128-2.749,4.657-4.1m-.077,8.44c.114-.119.222-.225.321-.337l9.651-10.938c.814-.922,1.641-1.833,2.436-2.771a1.037,1.037,0,0,0-.6-1.792,1.765,1.765,0,0,0-1.085.477c-3.208,2.8-6.394,5.621-9.586,8.437q-2.147,1.9-4.28,3.782l3.145,3.141m-9.581,5.929c1.525,0,2.926.045,4.322-.01a4.459,4.459,0,0,0,4.268-3.768.93.93,0,0,0-.223-.676c-1.05-1.089-2.151-2.129-3.187-3.231a1.134,1.134,0,0,0-1.3-.326,4.582,4.582,0,0,0-3.368,4.4,7.07,7.07,0,0,1-.515,3.612" transform="translate(-212.281 -141.454)" fill="#12263f"/>
      <path id="Trazado_612100" data-name="Trazado 612100" d="M282.462,44.7h-9.65c-.986,0-1.252-.264-1.252-1.229q0-5.138,0-10.276c0-.953.261-1.219,1.2-1.22h19.47c.831,0,1.14.3,1.141,1.112q0,5.251,0,10.5c0,.813-.307,1.108-1.144,1.108q-4.882,0-9.764,0m9.054-10.864H273.4v9.024h18.112Z" transform="translate(-240.652 -28.335)" fill="#12263f"/>
      <path id="Trazado_612101" data-name="Trazado 612101" d="M12.729,324.4v-4.5h1.807v4.5h.671c1.855,0,3.71,0,5.565,0,.716,0,1.038.322,1.04,1.039q.007,3.521,0,7.042a.888.888,0,0,1-1.019,1q-9.881.005-19.761,0a.892.892,0,0,1-1.026-1q-.011-3.549,0-7.1c0-.681.352-.99,1.09-.99q5.366,0,10.733,0h.9M1.843,331.636H19.954v-5.387H1.843Z" transform="translate(0 -283.493)" fill="#12263f"/>
      <path id="Trazado_612102" data-name="Trazado 612102" d="M127.379,373.155v-1.808h16.33v-3.635h1.83c0,.174,0,.354,0,.534q0,3.75,0,7.5a4.521,4.521,0,0,1-4.659,4.659q-9.97,0-19.94-.007a4.464,4.464,0,0,1-3.891-2.254l1.581-.93c.768,1.235,1.954,1.393,3.264,1.388,6.268-.026,12.536-.012,18.8-.013a2.779,2.779,0,0,0,3.026-3.042c0-.775,0-1.55,0-2.39Z" transform="translate(-103.728 -325.859)" fill="#12263f"/>
      <path id="Trazado_612103" data-name="Trazado 612103" d="M5.476,31.975q2.156,0,4.311,0c.835,0,1.137.294,1.138,1.111q0,3.432,0,6.865c0,.793-.308,1.108-1.085,1.109q-4.368,0-8.736,0c-.777,0-1.08-.315-1.081-1.111q0-3.433,0-6.865c0-.816.3-1.107,1.14-1.108q2.156,0,4.311,0M1.877,39.2H9.082V33.816H1.877Z" transform="translate(-0.019 -28.335)" fill="#12263f"/>
      <rect id="Rectángulo_303182" data-name="Rectángulo 303182" width="1.755" height="1.745" transform="translate(26.388 49.133)" fill="#12263f"/>
      <path id="Trazado_612104" data-name="Trazado 612104" d="M64.445,131.609h1.71V129.8h-1.61c-.045-3.856,3.7-8.708,8.912-9v1.666h1.825v-1.631c4.218.042,8.778,4.074,8.972,8.939H82.6v1.805h1.719a10.107,10.107,0,0,1-3.564,6.815,6.664,6.664,0,0,0-.841-3.591,6.524,6.524,0,0,0-2.516-2.464c2.007-2.641,2.027-5.034.075-6.842a4.556,4.556,0,0,0-6.1-.065c-2.014,1.773-2.019,4.086-.01,6.9A6.511,6.511,0,0,0,68,138.376a10.063,10.063,0,0,1-3.557-6.767" transform="translate(-57.11 -107.052)" fill="#26aab7"/>
      <path id="Trazado_612105" data-name="Trazado 612105" d="M117.225,239.092v-1.829H115.4v1.687a8.6,8.6,0,0,1-3.451-.927.359.359,0,0,1-.184-.249,6.2,6.2,0,0,1,.836-4.081,4.544,4.544,0,0,1,8.24,2.516c.012.284,0,.568.005.852,0,.921.016.96-.837,1.246-.886.3-1.8.511-2.787.785" transform="translate(-99.032 -205.405)" fill="#636363"/>
      <path id="Trazado_612106" data-name="Trazado 612106" d="M130.509,167.748a2.725,2.725,0,1,1-2.709,2.728,2.762,2.762,0,0,1,2.709-2.728" transform="translate(-113.254 -148.656)" fill="#b2ebf2"/>
      <path id="Trazado_612107" data-name="Trazado 612107" d="M326.716,191.962l-3.145-3.141q2.128-1.881,4.28-3.782c3.191-2.817,6.378-5.64,9.586-8.437a1.765,1.765,0,0,1,1.085-.477,1.037,1.037,0,0,1,.6,1.792c-.795.938-1.622,1.849-2.436,2.771l-9.652,10.938c-.1.113-.207.218-.321.337" transform="translate(-286.743 -156.078)" fill="#fb8c00"/>
      <path id="Trazado_612108" data-name="Trazado 612108" d="M267.026,304.412a7.07,7.07,0,0,0,.515-3.612,4.582,4.582,0,0,1,3.368-4.4,1.134,1.134,0,0,1,1.3.326c1.036,1.1,2.137,2.142,3.187,3.231a.929.929,0,0,1,.223.676,4.459,4.459,0,0,1-4.268,3.768c-1.4.056-2.8.01-4.322.01" transform="translate(-236.634 -262.598)" fill="#e8e8e8"/>
      <path id="Trazado_612109" data-name="Trazado 612109" d="M305.88,57.34H287.768V48.316H305.88ZM289.585,55.5h14.467V53.757H289.585Zm14.476-5.373H295.04V51.88h9.022Zm-10.91,0h-3.563v1.747h3.563Z" transform="translate(-255.015 -42.817)" fill="#fffae7"/>
      <path id="Trazado_612110" data-name="Trazado 612110" d="M16.188,375.66H34.3v5.387H16.188Zm8.184,3.567H32.5v-1.745H24.372Zm-1.891-1.747H18.019v1.767h4.462Z" transform="translate(-14.346 -332.904)" fill="#b0c0d2"/>
      <path id="Trazado_612111" data-name="Trazado 612111" d="M16.317,48.157h7.205v5.387H16.317ZM21.7,49.984H18.138v1.759H21.7Z" transform="translate(-14.46 -42.676)" fill="#b2ebf2"/>
      <rect id="Rectángulo_303183" data-name="Rectángulo 303183" width="14.467" height="1.748" transform="translate(34.57 10.94)" fill="#12263f"/>
      <rect id="Rectángulo_303184" data-name="Rectángulo 303184" width="9.022" height="1.748" transform="translate(40.025 7.315)" fill="#12263f"/>
      <rect id="Rectángulo_303185" data-name="Rectángulo 303185" width="3.563" height="1.747" transform="translate(34.574 7.318)" fill="#12263f"/>
      <rect id="Rectángulo_303186" data-name="Rectángulo 303186" width="8.125" height="1.745" transform="translate(10.027 44.578)" fill="#12263f"/>
      <rect id="Rectángulo_303187" data-name="Rectángulo 303187" width="4.462" height="1.767" transform="translate(3.674 44.575)" fill="#12263f"/>
      <rect id="Rectángulo_303188" data-name="Rectángulo 303188" width="3.564" height="1.759" transform="translate(3.678 7.309)" fill="#12263f"/>
    </g>
  </g>
</svg>
