<svg xmlns="http://www.w3.org/2000/svg" xmlns:xlink="http://www.w3.org/1999/xlink" width="505" height="544.923" viewBox="0 0 505 544.923">
  <defs>
    <clipPath id="clip-path">
      <rect id="Rectángulo_297811" data-name="Rectángulo 297811" width="321.943" height="151.655" fill="#e5fdf3"/>
    </clipPath>
    <clipPath id="clip-path-2">
      <rect id="Rectángulo_297811-2" data-name="Rectángulo 297811" width="237.92" height="120.225" fill="#fff4d6"/>
    </clipPath>
    <linearGradient id="linear-gradient" x1="1.022" y1="-0.172" x2="-0.371" y2="1.561" gradientUnits="objectBoundingBox">
      <stop offset="0" stop-color="#f5f5f5"/>
      <stop offset="0.25" stop-color="#f5f5f5"/>
      <stop offset="1" stop-color="#afafaf"/>
    </linearGradient>
    <linearGradient id="linear-gradient-2" x1="0.402" y1="-3.524" x2="0.634" y2="6.387" gradientUnits="objectBoundingBox">
      <stop offset="0" stop-color="#444b8c"/>
      <stop offset="0.996" stop-color="#26264f"/>
    </linearGradient>
    <linearGradient id="linear-gradient-3" x1="0.436" y1="1.245" x2="0.834" y2="-4.763" gradientUnits="objectBoundingBox">
      <stop offset="0" stop-color="#ffc444"/>
      <stop offset="0.996" stop-color="#f36f56"/>
    </linearGradient>
    <linearGradient id="linear-gradient-4" x1="0.365" y1="-1.189" x2="0.664" y2="2.684" xlink:href="#linear-gradient-2"/>
    <linearGradient id="linear-gradient-5" x1="0.45" y1="1.19" x2="0.65" y2="-1.628" xlink:href="#linear-gradient-3"/>
    <linearGradient id="linear-gradient-6" x1="0.61" y1="0.683" x2="0.394" y2="0.44" xlink:href="#linear-gradient-2"/>
    <linearGradient id="linear-gradient-7" x1="0.315" y1="-0.146" x2="0.528" y2="0.812" xlink:href="#linear-gradient-3"/>
    <linearGradient id="linear-gradient-8" x1="0.5" x2="0.5" y2="1" gradientUnits="objectBoundingBox">
      <stop offset="0" stop-color="#f5f5f5"/>
      <stop offset="0.25" stop-color="#f5f5f5"/>
      <stop offset="1" stop-color="#a7b3cf"/>
    </linearGradient>
    <linearGradient id="linear-gradient-9" x1="0.306" y1="1.262" x2="1.688" y2="-1.5" xlink:href="#linear-gradient-3"/>
    <linearGradient id="linear-gradient-10" x1="40.647" y1="34.301" x2="45.522" y2="37.904" xlink:href="#linear-gradient-3"/>
    <linearGradient id="linear-gradient-11" x1="2.743" y1="1.401" x2="8.009" y2="3.717" xlink:href="#linear-gradient-3"/>
    <linearGradient id="linear-gradient-12" y1="0.5" x2="1" y2="0.5" gradientUnits="objectBoundingBox">
      <stop offset="0" stop-color="#311944"/>
      <stop offset="1" stop-color="#893976"/>
    </linearGradient>
    <linearGradient id="linear-gradient-14" x1="0.531" y1="0.127" x2="0.328" y2="1.542" gradientUnits="objectBoundingBox">
      <stop offset="0" stop-color="#2b3582"/>
      <stop offset="1" stop-color="#150e42"/>
    </linearGradient>
    <linearGradient id="linear-gradient-15" x1="0.457" y1="1.875" x2="-0.174" y2="23.66" gradientUnits="objectBoundingBox">
      <stop offset="0" stop-color="#53d8ff"/>
      <stop offset="1" stop-color="#3840f7"/>
    </linearGradient>
    <linearGradient id="linear-gradient-16" x1="0.416" y1="2.737" x2="-0.105" y2="17.472" xlink:href="#linear-gradient-15"/>
    <linearGradient id="linear-gradient-17" x1="0.379" y1="3.815" x2="-0.133" y2="18.536" xlink:href="#linear-gradient-15"/>
    <linearGradient id="linear-gradient-18" x1="0.332" y1="5.008" x2="-0.21" y2="19.869" xlink:href="#linear-gradient-15"/>
  </defs>
  <g id="Grupo_947541" data-name="Grupo 947541" transform="translate(-180 -5807.693)">
    <g id="Grupo_946987" data-name="Grupo 946987" transform="translate(685 6030.672) rotate(90)">
      <g id="Grupo_877996" data-name="Grupo 877996" transform="translate(0 0)" clip-path="url(#clip-path)">
        <path id="Trazado_599836" data-name="Trazado 599836" d="M160.972,151.655C72.069,151.655,0,84.472,0,1.6,0,1.063.016.533.022,0h321.9c.006.533.022,1.063.022,1.6,0,82.875-72.069,150.059-160.972,150.059" transform="translate(0 0)" fill="#e5fdf3"/>
      </g>
    </g>
    <g id="Grupo_946991" data-name="Grupo 946991" transform="translate(300.225 5807.693) rotate(90)">
      <g id="Grupo_877996-2" data-name="Grupo 877996" clip-path="url(#clip-path-2)">
        <path id="Trazado_599836-2" data-name="Trazado 599836" d="M118.96,0A118.96,118.96,0,0,0,0,118.96c0,.423.012.843.016,1.265H237.9c0-.423.016-.843.016-1.265A118.96,118.96,0,0,0,118.96,0" fill="#fff4d6"/>
      </g>
    </g>
    <g id="Grupo_947306" data-name="Grupo 947306" transform="translate(-263.998 5547.01)">
      <g id="Grupo_947289" data-name="Grupo 947289" transform="translate(470.578 262.723)">
        <path id="Trazado_628344" data-name="Trazado 628344" d="M501.84,456.285l187.4,5.138c10.339.283,18.611,7.638,18.815,16.726L713.411,717.3c.159,7.112-6.414,12.927-14.507,12.835L484,727.681c-7.605-.087-13.65-5.64-13.413-12.32l8.531-240.313C479.5,464.352,489.669,455.952,501.84,456.285Z" transform="translate(-470.578 -422.676)" fill="#12263f"/>
        <path id="Trazado_628345" data-name="Trazado 628345" d="M547.444,1778.981h0l-24.023-.932c-8.087-.314-14.46-6.354-14.208-13.464l1.132-31.89a.617.617,0,0,1,1.224.034l-1.132,31.889c-.232,6.525,5.617,12.067,13.038,12.355l24.023.932a.571.571,0,0,1,.585.561A.586.586,0,0,1,547.444,1778.981Z" transform="translate(-502.498 -1477.088)" fill="#bdd0fb"/>
        <path id="Trazado_628346" data-name="Trazado 628346" d="M518.374,1651.763a.573.573,0,0,1-.587-.555l.183-5.164a.585.585,0,0,1,.631-.521h0a.573.573,0,0,1,.589.554l-.183,5.164a.585.585,0,0,1-.631.521Z" transform="translate(-509.591 -1405.478)" fill="#bdd0fb"/>
        <g id="Grupo_947287" data-name="Grupo 947287" transform="translate(17.189 31.611)">
          <path id="Trazado_628347" data-name="Trazado 628347" d="M584.316,444.9c25.483,3.751,113.15,15.6,186.082,12.683,3.326-.133,6.127,2.156,6.2,5.081l5.99,240.237c.082,3.294-2.875,6.028-6.623,6.12-30.657.753-156.9,3.45-201.7-1.92a4.974,4.974,0,0,1-4.662-4.826l7.256-251.963C576.955,446.888,580.474,444.333,584.316,444.9Z" transform="translate(-569.599 -444.82)" fill="#f6f6f6"/>
          <path id="Trazado_628348" data-name="Trazado 628348" d="M601.471,481.185c24.523,3.61,108.889,15.01,179.075,12.206,3.2-.128,5.9,2.074,5.967,4.89l5.765,231.191c.079,3.17-2.767,5.8-6.373,5.889-29.5.724-150.992,3.32-194.108-1.848a4.787,4.787,0,0,1-4.487-4.644l6.983-242.475C594.388,483.1,597.774,480.641,601.471,481.185Z" transform="translate(-584.234 -474.81)" fill="#727997"/>
          <g id="Grupo_947280" data-name="Grupo 947280" transform="translate(33.052 29.975)" opacity="0.6">
            <path id="Trazado_628349" data-name="Trazado 628349" d="M921.321,626.345a.915.915,0,0,0,1.009-.89l-.059-1.489a1.084,1.084,0,0,0-1.082-.955l-160.6-5.517c-.575-.02-.764.3-.42.7l2.62,3.084a2.585,2.585,0,0,0,1.671.765Z" transform="translate(-759.996 -617.493)" fill="#fff"/>
          </g>
          <g id="Grupo_947281" data-name="Grupo 947281" transform="translate(32.724 39.2)" opacity="0.6">
            <path id="Trazado_628350" data-name="Trazado 628350" d="M758.7,670.634c-.575-.02-.764.3-.42.7l2.62,3.084a2.586,2.586,0,0,0,1.671.765l156.861,4.3a.915.915,0,0,0,1.009-.89l-.059-1.49a1.084,1.084,0,0,0-1.081-.955Z" transform="translate(-758.11 -670.633)" fill="#fff"/>
          </g>
          <path id="Trazado_628351" data-name="Trazado 628351" d="M769.308,1036.759h-.058l-21.1-.156c-3.041-.023-5.553-1.86-5.844-4.273l-1.876-15.558a3.156,3.156,0,0,1,.918-2.577,4.938,4.938,0,0,1,3.262-1.419h0c1.78-.108,4.231-.295,6.928-.5,5.873-.446,12.528-.951,16.439-1h.086c2.8,0,5.206,1.494,5.876,3.66,1.106,3.577,1.019,10.341.819,17.547C774.691,1034.848,772.253,1036.756,769.308,1036.759Zm-24.58-22.473a3.117,3.117,0,0,0-2.062.881,1.774,1.774,0,0,0-.524,1.445l1.876,15.557c.2,1.649,1.981,2.9,4.146,2.92l21.1.156h.042c2.017,0,3.686-1.251,3.729-2.8.2-7.089.286-13.733-.76-17.114a4.279,4.279,0,0,0-4.277-2.542c-3.848.046-10.76.571-16.315.992-2.708.206-5.169.393-6.956.5Z" transform="translate(-710.756 -912.945)" fill="#fff"/>
          <path id="Trazado_628352" data-name="Trazado 628352" d="M765.431,1031.894c4.432-.271,14.065-1.141,18.635-1.2a4.091,4.091,0,0,1,4.092,2.478c.886,2.865.776,8.577.631,13.849-.044,1.579-1.692,2.841-3.707,2.826l-16.862-.125c-2.074-.015-3.8-1.256-3.992-2.874l-1.5-12.432C762.572,1033.134,763.787,1031.994,765.431,1031.894Z" transform="translate(-729.191 -928.993)" fill="#fff" opacity="0.6"/>
          <g id="Grupo_947282" data-name="Grupo 947282" transform="translate(75.555 107.635)" opacity="0.6">
            <path id="Trazado_628353" data-name="Trazado 628353" d="M1005.653,1064.865c-.575-.011-.925.379-.778.868l2.258,7.487a1.418,1.418,0,0,0,1.314.887l107.617-.112a.962.962,0,0,0,1.022-.92l-.133-5.079a1.048,1.048,0,0,0-1.07-.94Z" transform="translate(-1004.842 -1064.865)" fill="#fff"/>
          </g>
          <path id="Trazado_628354" data-name="Trazado 628354" d="M780.28,797.03h-.058l-21.1-.156c-3.041-.023-5.553-1.86-5.844-4.273L751.4,777.043a3.158,3.158,0,0,1,.918-2.577,4.938,4.938,0,0,1,3.262-1.419h0c1.78-.108,4.231-.295,6.928-.5,5.872-.446,12.528-.951,16.439-1h.086c2.8,0,5.207,1.494,5.877,3.66,1.106,3.577,1.018,10.341.819,17.547C785.662,795.119,783.224,797.027,780.28,797.03ZM755.7,774.557a3.117,3.117,0,0,0-2.062.882,1.774,1.774,0,0,0-.524,1.445l1.876,15.558c.2,1.649,1.981,2.9,4.146,2.92l21.1.156h.042c2.018,0,3.686-1.251,3.729-2.8.2-7.089.286-13.733-.759-17.114a4.279,4.279,0,0,0-4.278-2.542c-3.848.046-10.76.571-16.314.992-2.708.206-5.169.393-6.956.5Z" transform="translate(-719.823 -714.831)" fill="#fff"/>
          <path id="Trazado_628355" data-name="Trazado 628355" d="M776.4,792.164c4.432-.271,14.065-1.141,18.635-1.2a4.09,4.09,0,0,1,4.092,2.478c.886,2.865.777,8.577.631,13.849-.044,1.579-1.692,2.841-3.707,2.826L779.19,810c-2.074-.015-3.8-1.256-3.992-2.874l-1.5-12.432C773.543,793.405,774.759,792.265,776.4,792.164Z" transform="translate(-738.257 -730.88)" fill="#fff" opacity="0.6"/>
          <g id="Grupo_947283" data-name="Grupo 947283" transform="translate(77.46 66.02)" opacity="0.6">
            <path id="Trazado_628356" data-name="Trazado 628356" d="M1016.625,825.135c-.575-.011-.925.379-.778.868l2.258,7.487a1.419,1.419,0,0,0,1.314.888l107.617-.112a.962.962,0,0,0,1.022-.92l-.133-5.079a1.048,1.048,0,0,0-1.07-.94Z" transform="translate(-1015.813 -825.135)" fill="#fff"/>
          </g>
          <path id="Trazado_628357" data-name="Trazado 628357" d="M769.618,1265.709h-.058l-21.1-.156c-3.041-.023-5.553-1.86-5.844-4.273l-1.876-15.557a3.158,3.158,0,0,1,.917-2.578,4.937,4.937,0,0,1,3.262-1.419h0c1.78-.108,4.231-.295,6.928-.5,5.872-.446,12.528-.951,16.439-1h.086c2.8,0,5.207,1.494,5.877,3.661,1.106,3.576,1.019,10.341.819,17.546C775,1263.8,772.562,1265.706,769.618,1265.709Zm-24.58-22.473a3.118,3.118,0,0,0-2.062.881,1.776,1.776,0,0,0-.524,1.446l1.877,15.557c.2,1.649,1.981,2.9,4.146,2.92l21.1.156h.041c2.017,0,3.686-1.251,3.729-2.8.2-7.089.286-13.733-.759-17.113-.464-1.5-2.3-2.589-4.277-2.543-3.848.046-10.76.571-16.315.992-2.708.206-5.169.393-6.956.5Z" transform="translate(-711.012 -1102.151)" fill="#fff"/>
          <path id="Trazado_628358" data-name="Trazado 628358" d="M765.739,1260.845c4.432-.271,14.066-1.141,18.635-1.2a4.09,4.09,0,0,1,4.092,2.478c.886,2.865.777,8.577.631,13.849-.044,1.579-1.692,2.841-3.707,2.826l-16.862-.125c-2.074-.015-3.8-1.256-3.992-2.874l-1.5-12.432C762.88,1262.086,764.1,1260.946,765.739,1260.845Z" transform="translate(-729.445 -1118.201)" fill="#fff" opacity="0.6"/>
          <g id="Grupo_947284" data-name="Grupo 947284" transform="translate(75.609 147.38)" opacity="0.6">
            <path id="Trazado_628359" data-name="Trazado 628359" d="M1005.963,1293.817c-.575-.011-.925.379-.778.868l2.258,7.486a1.419,1.419,0,0,0,1.314.888l107.618-.112a.962.962,0,0,0,1.022-.92l-.133-5.079a1.049,1.049,0,0,0-1.07-.94Z" transform="translate(-1005.151 -1293.817)" fill="#fff"/>
          </g>
          <path id="Trazado_628360" data-name="Trazado 628360" d="M758.539,1485.575h-.056l-21.1-.157c-3.04-.022-5.553-1.859-5.844-4.273l-1.876-15.557a3.158,3.158,0,0,1,.917-2.577,4.942,4.942,0,0,1,3.262-1.42h0c1.778-.108,4.227-.294,6.921-.5,5.584-.424,12.534-.951,16.446-1,2.776-.015,5.285,1.47,5.963,3.659,1.106,3.577,1.018,10.341.819,17.546C763.923,1483.663,761.483,1485.572,758.539,1485.575ZM733.96,1463.1a3.121,3.121,0,0,0-2.063.882,1.776,1.776,0,0,0-.524,1.445l1.876,15.557c.2,1.649,1.981,2.9,4.146,2.92l21.1.157c1.989-.033,3.727-1.241,3.771-2.8.2-7.089.286-13.732-.76-17.113-.464-1.5-2.3-2.569-4.277-2.542-3.85.045-10.765.57-16.321.992-2.705.205-5.164.392-6.95.5Z" transform="translate(-701.858 -1283.85)" fill="#fff"/>
          <path id="Trazado_628361" data-name="Trazado 628361" d="M754.663,1480.705c4.432-.271,14.065-1.14,18.635-1.2a4.09,4.09,0,0,1,4.092,2.478c.886,2.865.777,8.577.631,13.849-.044,1.579-1.692,2.841-3.707,2.826l-16.862-.125c-2.073-.015-3.8-1.256-3.992-2.874l-1.5-12.432C751.8,1481.946,753.02,1480.806,754.663,1480.705Z" transform="translate(-720.292 -1299.895)" fill="#fff" opacity="0.6"/>
          <g id="Grupo_947285" data-name="Grupo 947285" transform="translate(73.686 185.546)" opacity="0.6">
            <path id="Trazado_628362" data-name="Trazado 628362" d="M994.885,1513.676c-.575-.011-.925.379-.778.868l2.258,7.486a1.419,1.419,0,0,0,1.314.887l107.618-.112a.962.962,0,0,0,1.022-.92l-.133-5.08a1.048,1.048,0,0,0-1.07-.94Z" transform="translate(-994.074 -1513.675)" fill="#fff"/>
          </g>
          <path id="Trazado_628363" data-name="Trazado 628363" d="M745.039,1712.306h-.058l-21.1-.156c-3.041-.022-5.553-1.859-5.844-4.273l-1.876-15.558a3.158,3.158,0,0,1,.917-2.577,4.938,4.938,0,0,1,3.262-1.419h0c1.78-.108,4.231-.295,6.928-.5,5.872-.446,12.528-.951,16.439-1,2.866.03,5.286,1.47,5.963,3.659,1.106,3.577,1.019,10.342.819,17.547C750.422,1710.4,747.984,1712.3,745.039,1712.306Zm-24.581-22.473a3.115,3.115,0,0,0-2.062.881,1.775,1.775,0,0,0-.525,1.445l1.877,15.558c.2,1.649,1.981,2.9,4.146,2.92l21.1.156h.042c2.017,0,3.686-1.251,3.729-2.8.2-7.089.286-13.733-.76-17.114-.464-1.5-2.3-2.55-4.277-2.542-3.848.046-10.76.571-16.315.992-2.708.206-5.169.393-6.957.5Z" transform="translate(-690.7 -1471.222)" fill="#fff"/>
          <path id="Trazado_628364" data-name="Trazado 628364" d="M741.161,1707.438c4.433-.271,14.066-1.141,18.635-1.2a4.091,4.091,0,0,1,4.092,2.478c.886,2.865.776,8.577.631,13.849-.044,1.579-1.692,2.841-3.707,2.826l-16.862-.125c-2.074-.015-3.8-1.256-3.992-2.875l-1.5-12.432C738.3,1708.678,739.518,1707.538,741.161,1707.438Z" transform="translate(-709.134 -1487.268)" fill="#fff" opacity="0.6"/>
          <g id="Grupo_947286" data-name="Grupo 947286" transform="translate(71.342 224.905)" opacity="0.6">
            <path id="Trazado_628365" data-name="Trazado 628365" d="M981.384,1740.408c-.575-.011-.925.379-.778.868l2.258,7.486a1.418,1.418,0,0,0,1.314.888l107.617-.112a.962.962,0,0,0,1.022-.92l-.133-5.08a1.048,1.048,0,0,0-1.07-.94Z" transform="translate(-980.573 -1740.407)" fill="#fff"/>
          </g>
        </g>
        <path id="Trazado_628366" data-name="Trazado 628366" d="M1155.27,266.664c-6.622-4.324-12.511-4.4-16.693-3.443-3.814.876-6.378,4.016-6.141,7.475l1.178,17.189,21.2,2.241S1168.257,275.145,1155.27,266.664Zm-9.842,13.572c-2.928-.08-5.228-2.231-5.136-4.8s2.539-4.594,5.467-4.514,5.228,2.232,5.137,4.8S1148.357,280.316,1145.429,280.236Z" transform="translate(-1017.53 -262.723)" fill="#12263f"/>
        <g id="Grupo_947288" data-name="Grupo 947288" transform="translate(116.904 2.089)">
          <path id="Trazado_628367" data-name="Trazado 628367" d="M1145.2,291.088a.944.944,0,0,1-.659-.8l-.187-2.738a.977.977,0,0,1,.988-.98,1.014,1.014,0,0,1,1.115.869l.188,2.738a.977.977,0,0,1-.988.979A1.183,1.183,0,0,1,1145.2,291.088Zm-.368-5.365a.944.944,0,0,1-.659-.8l-.143-2.079c-.241-3.521,2.389-6.72,6.254-7.609a18.651,18.651,0,0,1,8.043-.07.936.936,0,0,1,.781,1.115,1.068,1.068,0,0,1-1.269.687,16.271,16.271,0,0,0-7.022.06,5.676,5.676,0,0,0-4.684,5.706l.143,2.079a.977.977,0,0,1-.988.979A1.185,1.185,0,0,1,1144.833,285.723Z" transform="translate(-1144.016 -274.758)" fill="#bdd0fb"/>
        </g>
        <path id="Trazado_628368" data-name="Trazado 628368" d="M969.859,401.611l.306-8.618c.105-2.975,3-5.281,6.375-5.086l67.534,3.889c3,.172,5.353,2.321,5.44,4.959l.271,8.3Z" transform="translate(-883.187 -366.167)" fill="#12263f"/>
        <path id="Trazado_628369" data-name="Trazado 628369" d="M1097.654,404.59a.573.573,0,0,1-.588-.554.585.585,0,0,1,.631-.521l2.907.08a.566.566,0,0,1,.593.555.585.585,0,0,1-.631.521l-2.907-.08Z" transform="translate(-988.312 -379.074)" fill="#bdd0fb"/>
        <path id="Trazado_628370" data-name="Trazado 628370" d="M986.177,408.686a.931.931,0,0,1-.66-.888l.124-3.486a5.066,5.066,0,0,1,1.92-3.74,6.559,6.559,0,0,1,4.368-1.452l10.689.294a.989.989,0,0,1,1.02.955,1.007,1.007,0,0,1-1.086.9l-10.689-.294a3.816,3.816,0,0,0-4.116,3.4l-.124,3.486a1.006,1.006,0,0,1-1.086.9A1.187,1.187,0,0,1,986.177,408.686Z" transform="translate(-896.127 -375.439)" fill="#bdd0fb"/>
        <path id="Trazado_628371" data-name="Trazado 628371" d="M815.158,445.374l118.222,3.239c4.251.116,7.79,2.9,8.385,6.605l.082.511c.651,4.054-3.012,7.645-7.668,7.517L812.889,459.92c-2.787-.076-4.935-2.185-4.714-4.627l.431-4.764C808.874,447.55,811.758,445.281,815.158,445.374Z" transform="translate(-749.557 -413.665)" fill="#12263f"/>
      </g>
      <path id="Trazado_628372" data-name="Trazado 628372" d="M1615.6,1080.595l-6.605-14.055a116.849,116.849,0,0,0,15.4-13.9l12.456,8.811a7.23,7.23,0,0,0,10.307-2.044l14.389-22.12a8.006,8.006,0,0,0-1.971-10.8l-12.578-8.972a127.178,127.178,0,0,0,6.647-20.163l15.213,1.227a7.551,7.551,0,0,0,7.978-7.2l1.923-27.015a7.791,7.791,0,0,0-6.893-8.466l-15.292-1.27a129.972,129.972,0,0,0-3.905-21.21l13.892-7a8.1,8.1,0,0,0,3.494-10.571L1658.755,891a7.4,7.4,0,0,0-10.067-3.8l-13.956,7.031a125.61,125.61,0,0,0-13.492-16.7l8.671-13.521a8.408,8.408,0,0,0-2.044-11.194l-21.759-15.9a7.279,7.279,0,0,0-10.559,2.023l-8.664,13.578a118.274,118.274,0,0,0-19.724-7.51l.994-16.483a8.181,8.181,0,0,0-7.146-8.777l-26.415-2.38a7.606,7.606,0,0,0-8.121,7.42l-.924,16.361a112.442,112.442,0,0,0-20.633,3.935l-6.979-14.851a7.673,7.673,0,0,0-10.338-3.906l-23.744,11.962a8.154,8.154,0,0,0-3.379,10.818l6.987,14.7a116.841,116.841,0,0,0-15.84,14.349l-12.865-9.177a7.374,7.374,0,0,0-10.662,2.043l-14.438,22.962a8.421,8.421,0,0,0,2.3,11.217l12.809,9.061a127.445,127.445,0,0,0-6.548,20.9l-15.167-1.26a7.508,7.508,0,0,0-8.042,7.349l-1.25,27.493a8.149,8.149,0,0,0,7.289,8.552l15,1.21a130.057,130.057,0,0,0,4.5,21.615l-13.346,6.724a7.866,7.866,0,0,0-3.291,10.534l12.02,24.487a7.623,7.623,0,0,0,10.22,3.662l13.285-6.693a125.222,125.222,0,0,0,14.039,16.485l-8.082,12.666a8.017,8.017,0,0,0,2.222,10.82l21.808,15.059a7.323,7.323,0,0,0,10.405-2.064l8.14-12.692a117.926,117.926,0,0,0,19.742,7.017l-.864,15.294a7.762,7.762,0,0,0,7.032,8.251l25.742,1.9a7.455,7.455,0,0,0,7.9-7.13l.924-15.326a112.413,112.413,0,0,0,20.158-4.1l6.613,13.914a7.36,7.36,0,0,0,9.957,3.567l23.021-11.6A7.821,7.821,0,0,0,1615.6,1080.595Zm13.99-159.365c24.429,52.785,3.831,115.489-45.8,140.5s-110.183,3.185-135.452-49.177c-25.5-52.851-5.436-116.676,45.041-142.107S1604.929,867.952,1629.587,921.23Z" transform="translate(-766.226 -458.332)" fill="#dcd7d7" opacity="0.3"/>
      <g id="Grupo_947298" data-name="Grupo 947298" transform="translate(550.274 403.298)">
        <g id="Grupo_947293" data-name="Grupo 947293" transform="translate(0 0)">
          <g id="Grupo_947291" data-name="Grupo 947291">
            <path id="Trazado_628373" data-name="Trazado 628373" d="M1141.93,1098.407v267.986a25.377,25.377,0,0,1-8.805,19.475,21.127,21.127,0,0,1-11.822,5.187l-167.69,14.856c-13.16,1.166-23.937-8.916-23.937-22.323V1096.819c0-.208,0-.607.006-.815.333-13.114,11.033-23.679,23.987-23.485l167.642,2.516c11.181.168,20.01,9.718,20.837,21.44C1142.187,1097.054,1141.93,1097.818,1141.93,1098.407Z" transform="translate(-929.675 -1072.517)" fill="#1c3a5f"/>
            <path id="Trazado_628374" data-name="Trazado 628374" d="M1141.93,1098.448v13.461l-212.255-.645v-14.4c0-.208,0-.607.006-.815a24.425,24.425,0,0,1,24.552-23.476l167.585,2.515c11.178.168,19.548,9.711,20.329,21.432C1142.187,1097.094,1141.93,1097.859,1141.93,1098.448Z" transform="translate(-929.675 -1072.557)" fill="#1c3a5f"/>
            <path id="Trazado_628375" data-name="Trazado 628375" d="M1517.708,1157.532a6.213,6.213,0,0,1-6.021,6.466l-108.718-.68a6.626,6.626,0,0,1-6.44-6.8v-1.873a6.507,6.507,0,0,1,6.458-6.694l108.735,1.212a6.316,6.316,0,0,1,5.986,6.571Z" transform="translate(-1315.487 -1134.853)" fill="#1c3a5f"/>
            <g id="Grupo_947290" data-name="Grupo 947290" transform="translate(12.926 12.888)">
              <path id="Trazado_628376" data-name="Trazado 628376" d="M1019.074,1154.4a7.447,7.447,0,0,1-7.453,7.512,7.6,7.6,0,0,1-7.487-7.641,7.445,7.445,0,0,1,7.487-7.512A7.6,7.6,0,0,1,1019.074,1154.4Z" transform="translate(-1004.134 -1146.759)" fill="#1c3a5f"/>
              <path id="Trazado_628377" data-name="Trazado 628377" d="M1132.913,1155.6a7.38,7.38,0,0,1-7.362,7.467,7.533,7.533,0,0,1-7.4-7.594,7.377,7.377,0,0,1,7.4-7.466A7.535,7.535,0,0,1,1132.913,1155.6Z" transform="translate(-1098.363 -1147.79)" fill="#1c3a5f"/>
              <path id="Trazado_628378" data-name="Trazado 628378" d="M1245.368,1156.785a7.314,7.314,0,0,1-7.272,7.422,7.465,7.465,0,0,1-7.306-7.547,7.311,7.311,0,0,1,7.306-7.421A7.468,7.468,0,0,1,1245.368,1156.785Z" transform="translate(-1191.443 -1148.807)" fill="#1c3a5f"/>
            </g>
          </g>
          <path id="Trazado_628379" data-name="Trazado 628379" d="M1208.874,1634.466l-181.382,14.821V1393.756l181.382-.437Z" transform="translate(-1010.512 -1337.63)" fill="#1c3a5f" opacity="0.3" style="mix-blend-mode: multiply;isolation: isolate"/>
          <g id="Grupo_947292" data-name="Grupo 947292" transform="translate(30.102 72.177)" style="mix-blend-mode: soft-light;isolation: isolate">
            <path id="Trazado_628380" data-name="Trazado 628380" d="M1179.49,1565.91l-76.412,2.4V1492.52l76.412-.591Z" transform="translate(-1103.078 -1491.298)" fill="#1c3a5f"/>
            <path id="Trazado_628381" data-name="Trazado 628381" d="M1649.248,1499.266l-74.868.849V1488.88l74.868-.582Z" transform="translate(-1492.565 -1488.298)" fill="#1c3a5f"/>
            <path id="Trazado_628382" data-name="Trazado 628382" d="M1649.248,1616.611l-74.868,1.345V1606.72l74.868-1.078Z" transform="translate(-1492.565 -1585.272)" fill="#1c3a5f"/>
            <path id="Trazado_628383" data-name="Trazado 628383" d="M1649.248,1738.47l-74.868,1.859v-11.235l74.868-1.593Z" transform="translate(-1492.565 -1685.977)" fill="#1c3a5f"/>
            <path id="Trazado_628384" data-name="Trazado 628384" d="M1649.248,1851.3l-74.868,2.336V1842.4l74.868-2.069Z" transform="translate(-1492.565 -1779.222)" fill="#1c3a5f"/>
            <path id="Trazado_628385" data-name="Trazado 628385" d="M1263.435,2009.266l-155.911,6.313v-11.531l155.911-5.751Z" transform="translate(-1106.752 -1909.765)" fill="#1c3a5f"/>
            <path id="Trazado_628386" data-name="Trazado 628386" d="M1263.435,2126.611l-155.911,7.356v-11.531l155.911-6.794Z" transform="translate(-1106.752 -2006.74)" fill="#1c3a5f"/>
            <path id="Trazado_628387" data-name="Trazado 628387" d="M1263.435,2243.956l-155.911,8.4v-11.53l155.911-7.838Z" transform="translate(-1106.752 -2103.714)" fill="#1c3a5f"/>
            <path id="Trazado_628388" data-name="Trazado 628388" d="M1263.435,2361.3l-155.911,9.444v-11.531l155.911-8.882Z" transform="translate(-1106.752 -2200.69)" fill="#1c3a5f"/>
            <path id="Trazado_628389" data-name="Trazado 628389" d="M1263.435,2550.859l-155.911,11.129v-11.53l155.911-10.568Z" transform="translate(-1106.752 -2357.341)" fill="#1c3a5f"/>
            <path id="Trazado_628390" data-name="Trazado 628390" d="M1263.435,2668.2l-155.911,12.173v-11.53l155.911-11.611Z" transform="translate(-1106.752 -2454.316)" fill="#1c3a5f"/>
          </g>
        </g>
        <g id="Grupo_947297" data-name="Grupo 947297" transform="translate(10.034 0.152)">
          <g id="Grupo_947295" data-name="Grupo 947295">
            <path id="Trazado_628391" data-name="Trazado 628391" d="M1198.959,1099.2v267.141a25.5,25.5,0,0,1-8.887,19.439,21.678,21.678,0,0,1-11.981,5.2l-166.949,14.765c-13.077,1.159-23.665-8.929-23.665-22.292V1097.625c0-.208.129-.607.135-.814.331-13.072,10.928-23.606,23.8-23.413l166.7,2.5c11.115.167,20.068,9.688,20.89,21.374C1199.038,1097.849,1198.959,1098.609,1198.959,1099.2Z" transform="translate(-987.476 -1073.395)" fill="url(#linear-gradient)"/>
            <path id="Trazado_628392" data-name="Trazado 628392" d="M1198.959,1099.237v13.419l-211.483-.634v-14.357c0-.208.129-.607.135-.814a24.278,24.278,0,0,1,24.362-23.4l166.64,2.5c11.111.167,19.609,9.681,20.385,21.367C1199.038,1097.89,1198.959,1098.65,1198.959,1099.237Z" transform="translate(-987.476 -1073.435)" fill="#12263f"/>
            <path id="Trazado_628393" data-name="Trazado 628393" d="M1570.292,1158.07c0,3.583-2.562,6.468-5.894,6.447l-108.105-.684a6.608,6.608,0,0,1-6.407-6.79v-1.868a6.522,6.522,0,0,1,6.479-6.668l108.039,1.209c3.333.037,5.888,2.974,5.888,6.557Z" transform="translate(-1369.614 -1135.469)" fill="#fff"/>
            <g id="Grupo_947294" data-name="Grupo 947294" transform="translate(13.102 12.847)">
              <path id="Trazado_628394" data-name="Trazado 628394" d="M1077.795,1155.02a7.412,7.412,0,0,1-7.406,7.489,7.566,7.566,0,0,1-7.44-7.617,7.41,7.41,0,0,1,7.44-7.489A7.569,7.569,0,0,1,1077.795,1155.02Z" transform="translate(-1062.949 -1147.402)" fill="#fff"/>
              <path id="Trazado_628395" data-name="Trazado 628395" d="M1190.919,1156.211a7.346,7.346,0,0,1-7.316,7.444,7.5,7.5,0,0,1-7.349-7.57,7.343,7.343,0,0,1,7.349-7.443A7.5,7.5,0,0,1,1190.919,1156.211Z" transform="translate(-1156.585 -1148.426)" fill="#fff"/>
              <path id="Trazado_628396" data-name="Trazado 628396" d="M1302.671,1157.388a7.28,7.28,0,0,1-7.228,7.4,7.43,7.43,0,0,1-7.26-7.524,7.277,7.277,0,0,1,7.26-7.4A7.434,7.434,0,0,1,1302.671,1157.388Z" transform="translate(-1249.084 -1149.437)" fill="#fff"/>
            </g>
          </g>
          <path id="Trazado_628397" data-name="Trazado 628397" d="M1262.228,1633.527l-181.382,14.814V1393.587l181.382-.445Z" transform="translate(-1064.638 -1337.636)" fill="#b9a9a9" opacity="0.3" style="mix-blend-mode: multiply;isolation: isolate"/>
          <g id="Grupo_947296" data-name="Grupo 947296" transform="translate(28.558 71.941)" style="mix-blend-mode: soft-light;isolation: isolate">
            <path id="Trazado_628398" data-name="Trazado 628398" d="M1227.627,1565.331l-75.64,2.4v-75.576l75.64-.6Z" transform="translate(-1151.987 -1490.904)" fill="#fff"/>
            <path id="Trazado_628399" data-name="Trazado 628399" d="M1709.951,1498.75l-73.325.857v-11.2l73.325-.592Z" transform="translate(-1552.497 -1487.816)" fill="#fff"/>
            <path id="Trazado_628400" data-name="Trazado 628400" d="M1709.951,1615.724l-73.325,1.349v-11.2l73.325-1.084Z" transform="translate(-1552.497 -1584.484)" fill="#fff"/>
            <path id="Trazado_628401" data-name="Trazado 628401" d="M1709.951,1737.2l-73.325,1.861v-11.2l73.325-1.6Z" transform="translate(-1552.497 -1684.87)" fill="#fff"/>
            <path id="Trazado_628402" data-name="Trazado 628402" d="M1709.951,1849.672l-73.325,2.334v-11.2l73.325-2.069Z" transform="translate(-1552.497 -1777.82)" fill="#fff"/>
            <path id="Trazado_628403" data-name="Trazado 628403" d="M1316.79,2007.136l-155.911,6.328v-11.5l155.911-5.767Z" transform="translate(-1159.335 -1907.95)" fill="#fff"/>
            <path id="Trazado_628404" data-name="Trazado 628404" d="M1316.79,2124.11l-155.911,7.37v-11.495l155.911-6.809Z" transform="translate(-1159.335 -2004.618)" fill="#fff"/>
            <path id="Trazado_628405" data-name="Trazado 628405" d="M1316.79,2241.084l-155.911,8.411V2238l155.911-7.851Z" transform="translate(-1159.335 -2101.286)" fill="#fff"/>
            <path id="Trazado_628406" data-name="Trazado 628406" d="M1316.79,2358.058l-155.911,9.453v-11.495l155.911-8.892Z" transform="translate(-1159.335 -2197.954)" fill="#fff"/>
            <path id="Trazado_628407" data-name="Trazado 628407" d="M1316.79,2547.015l-155.911,11.136v-11.495l155.911-10.575Z" transform="translate(-1159.335 -2354.109)" fill="#fff"/>
            <path id="Trazado_628408" data-name="Trazado 628408" d="M1316.79,2663.989l-155.911,12.178v-11.495l155.911-11.617Z" transform="translate(-1159.335 -2450.778)" fill="#fff"/>
          </g>
        </g>
      </g>
      <g id="Grupo_947300" data-name="Grupo 947300" transform="translate(782.737 484.752)">
        <path id="Trazado_628410" data-name="Trazado 628410" d="M2566.677,3181.6a21.8,21.8,0,0,1,.148,4.783c-.3,1.2-10.72,2.068-14.256,1.651s2.106-4.029,4.359-4.707S2566.677,3181.6,2566.677,3181.6Z" transform="translate(-2502.369 -2896.931)" fill="url(#linear-gradient-2)"/>
        <path id="Trazado_628411" data-name="Trazado 628411" d="M2609.04,3145.636l1.1,7.189s2.8,1.259,4.146.015l.148-7.525Z" transform="translate(-2549.977 -2866.946)" fill="url(#linear-gradient-3)"/>
        <path id="Trazado_628412" data-name="Trazado 628412" d="M2939.152,3143.051s-2.21,1.64-1.621,3.6,5.747,9.835,9.423,12.07,2.523-2.42,1.453-5.319-3.8-9.285-4.87-10.355S2939.152,3143.051,2939.152,3143.051Z" transform="translate(-2821.362 -2864.682)" fill="url(#linear-gradient-4)"/>
        <path id="Trazado_628413" data-name="Trazado 628413" d="M2924.441,3099.82c1.068,2.978,2.1,5.427,2.9,7.233,1.778,4,2.75,5.5,3.851,6.8.96,1.132,3.233,3.548,3.844,3.146s-1.042-3.345-4.247-11.947c-.466-1.249-1.936-5.227-1.936-5.227h-4.413Z" transform="translate(-2810.626 -2829.349)" fill="url(#linear-gradient-5)"/>
        <path id="Trazado_628414" data-name="Trazado 628414" d="M2478.814,2381.89a186.087,186.087,0,0,0-.4,33.208c1.425,18.373,5.1,30,9.707,49.59,2.816,11.972,6.61,29.593,10.043,51.631a9.689,9.689,0,0,0,6.158,1.207,9.349,9.349,0,0,0,3.7-1.405c9.008-27.527,6.348-44.585,2-55.213-1.853-4.531-4.1-8.1-5.3-15.068-1.589-9.213.376-14.364,3.178-35.7,2-15.211,1.652-17.562.323-19.844C2502.909,2381.172,2486.663,2381.35,2478.814,2381.89Z" transform="translate(-2441.567 -2235.873)" fill="#12263f"/>
        <path id="Trazado_628415" data-name="Trazado 628415" d="M2661.984,2401.329c5.519,28.5,10.935,43.468,15.034,51.934a142.263,142.263,0,0,1,7.572,18.482,150.591,150.591,0,0,1,4.6,17.6c1.9,8.736,6.6,21.491,19.258,38.221a4.808,4.808,0,0,0,4.378.225,4.235,4.235,0,0,0,1.771-1.838c-1.654-16-3.553-29.437-5.2-39.81-.346-2.176-1.869-11.695-4.257-24.271-.935-4.922-2.3-12.133-3.945-19.539-2.042-9.224-5.175-21.772-10-36.808Z" transform="translate(-2593.73 -2252.111)" fill="#12263f"/>
        <path id="Trazado_628416" data-name="Trazado 628416" d="M2568.152,1578.234c-3.129-2.893-9.117-6.228-12.12-13.98-.9-2.334-4.106-10.6.618-16.927,2.8-3.755,8.012-6.3,12.6-5.4,3.923.771,4.537,3.5,11.2,9,2.595,2.141,6.766,5.581,11.407,7.493,7.953,3.278,12.731.194,20.715.545,9.808.433,21.2,5.906,26.692,13.867,9.744,14.128-4.371,28.46,6.3,45.011,3.5,5.422,5.22,4.207,13.5,14.7s12.441,15.765,11.7,22.205c-1.024,8.937-10.651,17.475-19.716,18.056-8.856.568-14.485-6.4-18.993-3.352-3.209,2.168-1.374,6.387-4.782,11.456-4.393,6.536-13.028,7.838-14.423,8.048-12.944,1.953-30.4-13.226-37.809-31.207C2561.688,1625.327,2585.167,1593.962,2568.152,1578.234Z" transform="translate(-2504.6 -1541.744)" fill="url(#linear-gradient-6)"/>
        <path id="Trazado_628417" data-name="Trazado 628417" d="M2328.94,1705.642c-.088-9.051,20.473-16.285,29.881-18.615a66.581,66.581,0,0,1,29.2-.747,65.219,65.219,0,0,1,33.9,19.422,45.737,45.737,0,0,0-17.958,22.445c-1.49,4.108-5.89,18.153.4,31.308,3.626,7.58,10.042,13.271,14.914,17.594,7.308,6.483,11.092,7.479,13.542,13.287,2.668,6.325-.021,9.409,3.293,13.739,3.558,4.65,7.728,2.488,13.759,7.191,6.178,4.816,3.98,8.781,9.6,14.1,8.17,7.734,19,5.222,19.5,8.7.434,2.994-7.263,7.055-13.8,8.7-12.951,3.262-24.247-2.213-27.606-3.9-9.3-4.672-7.694-7.7-14.784-11.259-11.873-5.964-19.988.673-47.03,1.356-14.645.37-22.049.453-26.106-4.5-3.7-4.526-1.757-9.49.466-30.884,1.058-10.183,1.44-20.425,2.22-30.632,2.206-28.874,2.273-31.415.315-35.407C2345.63,1713.247,2329.019,1713.765,2328.94,1705.642Z" transform="translate(-2318.5 -1660.149)" fill="#294ddc"/>
        <g id="Grupo_947299" data-name="Grupo 947299" transform="translate(62.781 44.34)" opacity="0.3" style="mix-blend-mode: multiply;isolation: isolate">
          <path id="Trazado_628418" data-name="Trazado 628418" d="M2708.646,1918.048c-5.622-5.323-3.424-9.287-9.6-14.1-6.031-4.7-10.2-2.541-13.759-7.191-3.313-4.33-.625-7.414-3.293-13.739-2.45-5.808-6.234-6.8-13.542-13.287-4.872-4.323-11.287-10.014-14.914-17.594-6.294-13.155-1.893-27.2-.4-31.308a45.735,45.735,0,0,1,17.958-22.445c-.337-.364-.735-.777-1.161-1.214-23.081,3.172-36.538,16.509-38.2,20.458-3.847,9.128,2.243,12.482,2.4,38.81.075,12.584-1.282,17.553,2.8,22.805,4.67,6.007,10.051,4.148,16.8,12,5.189,6.034,4.358,9.86,9.2,12.4,5.209,2.733,8.528-.453,14.4.8,9.816,2.094,11.915,13.412,18.4,19.6,4.907,4.682,13.98,7.956,31.874,4.442a2.49,2.49,0,0,0,.534-1.742C2727.646,1923.27,2716.816,1925.782,2708.646,1918.048Z" transform="translate(-2630.456 -1797.166)" fill="url(#linear-gradient-7)"/>
        </g>
        <path id="Trazado_628419" data-name="Trazado 628419" d="M2676.506,1756.079c-2.453,5.21,8.821,17.346,21.352,23.108,2.553,1.174,20.888,9.6,29.06,1.5,6.752-6.7,2.394-20.55.838-25.5-7.639-24.282-31.1-36.635-40.933-41.09-7.338,18.348-3.016,26.523-1.315,29.077,1.777,2.667,6.736,8.268,12,13.2,3.7,3.471,6.011,5.16,5.7,5.7-.386.674-4.729-.6-21.6-8.809C2679.661,1753.589,2677.344,1754.3,2676.506,1756.079Z" transform="translate(-2605.452 -1684.18)" fill="#294ddc"/>
        <path id="Trazado_628420" data-name="Trazado 628420" d="M2271.235,1764.2l8.276,41.216a3.382,3.382,0,0,0,2.606,2.641l61.71,13.244a3.382,3.382,0,0,0,4.081-3.568l-3.257-41.917a3.379,3.379,0,0,0-2.56-3.021c-9.789-2.416-47.467-11.464-67.339-12.639A3.381,3.381,0,0,0,2271.235,1764.2Z" transform="translate(-2270.756 -1722.231)" fill="url(#linear-gradient-8)"/>
        <path id="Trazado_628421" data-name="Trazado 628421" d="M2540.782,1610.087s1.164,9.306,4.6,11.438,8.987,4.916,9.6,5.672-21.277,3.109-32.124-2.365h0c3.574-.745,4.547-1.02,4.547-1.02a20.1,20.1,0,0,0,4.594-1.818,15.619,15.619,0,0,0,5.051-4.671l-.04-5.153Z" transform="translate(-2478.754 -1598.223)" fill="url(#linear-gradient-9)"/>
        <path id="Trazado_628422" data-name="Trazado 628422" d="M2593.893,1588.32a5.151,5.151,0,0,1-5.751,1.793c-3.144-1.147-1.268-9.268,1.227-10.195a4.411,4.411,0,0,1,3.381.465,4.892,4.892,0,0,1,1.537,5.5c.794-.23,1.494-.021,1.669.372.222.5-.45,1.179-.6,1.332A2.666,2.666,0,0,1,2593.893,1588.32Z" transform="translate(-2531.341 -1573.161)" fill="url(#linear-gradient-10)"/>
        <path id="Trazado_628423" data-name="Trazado 628423" d="M2326.807,1799.83c-6.628-1.869-12.124,2.772-17.4-.9-5.408-3.762-1.879-10.186-7.5-16.5-6.012-6.755-13.64-3.446-19.2-9.6-2.065-2.286-3.924-6.01-3.953-12.359-1.394-.135-2.73-.241-3.992-.317a3.381,3.381,0,0,0-3.517,4.046l8.276,41.215a3.381,3.381,0,0,0,2.606,2.641l59.306,12.727C2337.235,1806.087,2331.647,1801.194,2326.807,1799.83Z" transform="translate(-2270.756 -1722.229)" fill="#e8e8e8" opacity="0.3" style="mix-blend-mode: multiply;isolation: isolate"/>
        <path id="Trazado_628424" data-name="Trazado 628424" d="M2273.208,1830.812s-3.937-3.639-4.365-7.865a8.158,8.158,0,0,1,5.42-8.471c2.878-.862,4.414.409,2.482,4.571S2271.749,1825.911,2273.208,1830.812Z" transform="translate(-2268.802 -1766.921)" fill="url(#linear-gradient-11)"/>
      </g>
      <g id="Grupo_947303" data-name="Grupo 947303" transform="translate(675.454 333.062)">
        <g id="Grupo_947301" data-name="Grupo 947301" transform="translate(0 0)">
          <path id="Trazado_628425" data-name="Trazado 628425" d="M1818.878,684.766l-.068,56.541-.012,9.079c-.006,5.324-3.721,4.124-8.775,4.161l-18.652.7-2.439.094-16.9.639-2.787.108-107.3,4.051-.711.028a10.374,10.374,0,0,1-10.433-10.31l-.013-70.23a10.077,10.077,0,0,1,10.113-10.1l.327,0,4.139.152,144.351,5.14C1814.766,674.957,1818.885,679.436,1818.878,684.766Z" transform="translate(-1650.783 -669.25)" fill="url(#linear-gradient-12)"/>
          <path id="Trazado_628426" data-name="Trazado 628426" d="M2355.363,1139.243l-2.545,3.563-3.489,4.877-13.431,18.783-2.712-1.172-.043-17.6-.013-4.139-.012-5.17,2.806.106Z" transform="translate(-2214.668 -1056.713)" fill="url(#linear-gradient-12)"/>
          <path id="Trazado_628427" data-name="Trazado 628427" d="M1833.158,683.183l-.074,56.65-.012,9.281a9.56,9.56,0,0,1-9.216,9.761l-25.222.01-1.879,0-13.412.008h-2.775l-105.625.047a9.621,9.621,0,0,1-1.692-.134,10.393,10.393,0,0,1-8.769-10.216l-.013-70.537a10.125,10.125,0,0,1,7.737-9.842,10.261,10.261,0,0,1,2.73-.292l1.742.064,147.282,5.223C1829.03,673.339,1833.164,677.831,1833.158,683.183Z" transform="translate(-1662.094 -667.916)" fill="#f38e1e"/>
          <path id="Trazado_628428" data-name="Trazado 628428" d="M2371.452,1138.193l-2.983,3.659-4.047,4.969-15.313,18.787.016-18.773v-9.494Z" transform="translate(-2227.885 -1055.852)" fill="#f38e1e"/>
        </g>
        <g id="Grupo_947302" data-name="Grupo 947302" transform="translate(47.602 24.06)">
          <path id="Trazado_628429" data-name="Trazado 628429" d="M1952.016,864.642,1925,850.648v-4.437l27.018-14.083v7.245l-18.452,9,18.452,9.057Z" transform="translate(-1924.998 -827.682)" fill="#fff"/>
          <path id="Trazado_628430" data-name="Trazado 628430" d="M2132.695,806.894l-13.857,42.821-7.2-.063,14.063-43.135Z" transform="translate(-2079.239 -806.517)" fill="#fff"/>
          <path id="Trazado_628431" data-name="Trazado 628431" d="M2261.718,865.358l16.662-7.692-16.662-9.78v-7.012l24,15.283v4.072l-24,12.112Z" transform="translate(-2203.266 -834.91)" fill="#fff"/>
        </g>
      </g>
      <g id="Grupo_947305" data-name="Grupo 947305" transform="translate(521.529 641.138)">
        <g id="Grupo_947304" data-name="Grupo 947304" transform="translate(0 0)">
          <path id="Trazado_628433" data-name="Trazado 628433" d="M889.589,2527.605c0,33.955-26.551,60.666-60.486,59.624-35.316-1.085-65.018-31.585-65.018-68.085s29.7-63,65.018-59.318C863.038,2463.359,889.589,2493.65,889.589,2527.605Z" transform="translate(-764.085 -2456.557)" fill="#12263f"/>
          <path id="Trazado_628434" data-name="Trazado 628434" d="M942.412,2510.739c0,33.955-26.551,60.666-60.486,59.624-35.316-1.084-65.018-31.585-65.018-68.085s29.7-63,65.018-59.318C915.862,2446.494,942.412,2476.784,942.412,2510.739Z" transform="translate(-807.738 -2442.619)" fill="#e5fdf3"/>
          <path id="Trazado_628435" data-name="Trazado 628435" d="M954.353,2524.5c0,32.46-25.4,57.951-57.822,56.9-33.676-1.09-61.951-30.2-61.951-64.976s28.274-60.074,61.951-56.623C928.949,2463.122,954.353,2492.038,954.353,2524.5Z" transform="translate(-822.343 -2456.558)" fill="#12263f"/>
          <path id="Trazado_628436" data-name="Trazado 628436" d="M966.244,2538.631c0,28.5-20.6,51.338-47.993,53.9a55.442,55.442,0,0,1-7.05.208c-32-1.074-58.836-28.752-58.836-61.78,0-28.72,20.291-50.656,46.63-53.76a55.83,55.83,0,0,1,12.207-.088C942.04,2480.228,966.244,2507.729,966.244,2538.631Z" transform="translate(-837.04 -2470.88)" fill="#6aceae"/>
          <path id="Trazado_628437" data-name="Trazado 628437" d="M918.251,2594.336a55.442,55.442,0,0,1-7.05.208c-32-1.075-58.836-28.752-58.836-61.78,0-28.72,20.291-50.656,46.63-53.76,8.895,6.946,16.859,15.832,18.23,26.363,2.238,17.163-14.909,25.063-16.8,43.718C898.866,2564.476,906.237,2581.624,918.251,2594.336Z" transform="translate(-837.04 -2472.688)" fill="#e5fdf3" opacity="0.4" style="mix-blend-mode: multiply;isolation: isolate"/>
        </g>
        <path id="Trazado_628438" data-name="Trazado 628438" d="M1008.366,2700.115a7.343,7.343,0,0,1-6.31-3.616l-22.375-37.721a7.51,7.51,0,0,1,2.52-10.232,7.309,7.309,0,0,1,10.1,2.552l15.532,26.185,20.533-40.846a7.319,7.319,0,0,1,9.9-3.262,7.5,7.5,0,0,1,3.221,10.028l-26.562,52.839a7.357,7.357,0,0,1-6.3,4.069C1008.539,2700.113,1008.453,2700.115,1008.366,2700.115Z" transform="translate(-941.385 -2599.423)" fill="#fff"/>
      </g>
    </g>
    <g id="Grupo_947357" data-name="Grupo 947357" transform="translate(272.168 5912.19)">
      <path id="Trazado_627986" data-name="Trazado 627986" d="M582.7,508.149c-.042-.521-.575-.973-1.477-1.335.98-.541,1.523-1.12,1.477-1.688-.139-1.719-5.584-2.683-12.163-2.153s-11.8,2.354-11.661,4.074c.042.522.575.973,1.477,1.335-.98.541-1.523,1.12-1.477,1.688.042.522.575.973,1.477,1.335-.98.541-1.523,1.12-1.477,1.688.042.522.575.973,1.477,1.335-.98.541-1.523,1.12-1.477,1.688.062.76,1.162,1.373,2.938,1.774a15.286,15.286,0,0,0,.045,1.858c.257,3.169,3.821,5.653,8.535,5.653s8.794-3.388,8.84-6.566a16.04,16.04,0,0,0-.092-2.074c2.255-.753,3.629-1.673,3.557-2.566-.042-.521-.575-.973-1.477-1.335.98-.541,1.523-1.12,1.477-1.688-.042-.521-.575-.973-1.477-1.335C582.205,509.3,582.748,508.717,582.7,508.149Z" transform="translate(-539.333 -427.762)" fill="url(#linear-gradient-14)"/>
      <g id="Grupo_947210" data-name="Grupo 947210" transform="translate(21.299 79.211)">
        <path id="Trazado_627987" data-name="Trazado 627987" d="M576.668,557.879a28.43,28.43,0,0,1-5.219-.427.158.158,0,0,1,.059-.31,34.033,34.033,0,0,0,8.693.274,37.386,37.386,0,0,0,7.29-1.257.158.158,0,1,1,.089.3,37.711,37.711,0,0,1-7.353,1.269C579,557.83,577.808,557.879,576.668,557.879Z" transform="translate(-569.806 -546.277)" fill="url(#linear-gradient-15)"/>
        <path id="Trazado_627988" data-name="Trazado 627988" d="M573.5,544.055a24.836,24.836,0,0,1-6.408-.694.158.158,0,1,1,.087-.3,36.553,36.553,0,0,0,19.371-1.539.158.158,0,0,1,.133.287,31.2,31.2,0,0,1-9.657,2.106C575.82,544.008,574.632,544.055,573.5,544.055Z" transform="translate(-566.604 -535.479)" fill="url(#linear-gradient-16)"/>
        <path id="Trazado_627989" data-name="Trazado 627989" d="M572.421,532.559a23.079,23.079,0,0,1-6.754-.813.158.158,0,1,1,.1-.3c2.246.741,6.055.984,10.188.651a30.863,30.863,0,0,0,9.55-2.078.158.158,0,1,1,.132.287,31.177,31.177,0,0,1-9.657,2.106C574.756,532.511,573.559,532.559,572.421,532.559Z" transform="translate(-565.559 -527.004)" fill="url(#linear-gradient-17)"/>
        <path id="Trazado_627990" data-name="Trazado 627990" d="M575.444,521.123a27.254,27.254,0,0,1-5.689-.517.158.158,0,1,1,.068-.308,32.966,32.966,0,0,0,9.133.365,31.106,31.106,0,0,0,9.5-2.056.158.158,0,0,1,.131.288,31.407,31.407,0,0,1-9.606,2.083C577.772,521.075,576.581,521.123,575.444,521.123Z" transform="translate(-568.56 -518.593)" fill="url(#linear-gradient-18)"/>
      </g>
      <path id="Trazado_627991" data-name="Trazado 627991" d="M499.682,282.467a22.251,22.251,0,0,0-3.984-7.779,51.491,51.491,0,0,1-11.092-28.675c-1.144-19.928,16.53-29.905,32.658-28.551s32.042,13.363,30.3,31.9c-1.072,11.407-7.457,20.06-12.211,25.029a26.4,26.4,0,0,0-6.338,11.228c-1.427,5.151-4.822,11.57-12.892,11.961C505.682,298.089,501.345,288.356,499.682,282.467Z" transform="translate(-484.553 -217.34)" fill="#f3c035"/>
      <path id="Trazado_627992" data-name="Trazado 627992" d="M614.732,401.272l5.643-36.7c.116-.758.49-1.268.833-1.137s.528.85.411,1.609c0,.02-.007.045-.011.065l-6.428,36.362c-.049.273-.187.446-.31.385S614.691,401.536,614.732,401.272Z" transform="translate(-580.494 -325.003)" fill="#12263f"/>
      <path id="Trazado_627993" data-name="Trazado 627993" d="M573.083,402.381l-5.643-36.7c-.116-.758-.49-1.267-.833-1.137s-.528.85-.411,1.608l.011.065,6.428,36.362c.048.273.187.446.31.386S573.123,402.646,573.083,402.381Z" transform="translate(-544.702 -325.821)" fill="#12263f"/>
      <path id="Trazado_627994" data-name="Trazado 627994" d="M589.659,343.384a.592.592,0,0,0-.741-.193l-3.143,1.468-1.091-3.108a.667.667,0,0,0-.382-.385.777.777,0,0,0-.966.3l-.006.01-2.584,4.712-2.4-6.707,0-.011a.766.766,0,0,0-.363-.409.941.941,0,0,0-1.186.234l-3.613,4.973a.436.436,0,0,0,.128.628.6.6,0,0,0,.768-.083l3.181-3.548,2.864,6.38,0,.005a.506.506,0,0,0,.252.247.6.6,0,0,0,.749-.194l2.764-4.435,1.04,2.243.009.02a.432.432,0,0,0,.026.048.591.591,0,0,0,.74.192l3.73-1.743A.444.444,0,0,0,589.659,343.384Z" transform="translate(-549.818 -306.97)" fill="#fff" opacity="0.83"/>
      <path id="Trazado_627995" data-name="Trazado 627995" d="M677.089,401.535a.4.4,0,0,1-.241-.08.4.4,0,0,1-.084-.565,41.976,41.976,0,0,0,2.638-4.006.4.4,0,1,1,.7.4,42.765,42.765,0,0,1-2.688,4.084A.4.4,0,0,1,677.089,401.535Z" transform="translate(-626.167 -349.525)" fill="#fff" opacity="0.83"/>
      <path id="Trazado_627996" data-name="Trazado 627996" d="M694.745,309.809a.4.4,0,0,1-.371-.566,33.775,33.775,0,0,0,.765-25.628.4.4,0,0,1,.735-.337,34.657,34.657,0,0,1-.758,26.288A.4.4,0,0,1,694.745,309.809Z" transform="translate(-639.18 -265.766)" fill="#fff" opacity="0.83"/>
    </g>
    <g id="Window_1" data-name="Window 1" transform="translate(221.402 6096.267)">
      <g id="Grupo_892931" data-name="Grupo 892931" transform="translate(238.594 115.517)">
        <g id="Grupo_892922" data-name="Grupo 892922">
          <g id="Grupo_892919" data-name="Grupo 892919" transform="translate(0.254 0.254)">
            <rect id="Rectángulo_303250" data-name="Rectángulo 303250" width="65.537" height="56.309" rx="3.922" fill="#fff"/>
          </g>
          <g id="Grupo_892921" data-name="Grupo 892921">
            <g id="Grupo_892920" data-name="Grupo 892920">
              <path id="Trazado_612438" data-name="Trazado 612438" d="M350.73,205.957c0-.018.209-.006.6-.079a3.787,3.787,0,0,0,1.615-.7,3.716,3.716,0,0,0,1.458-2.392,13.8,13.8,0,0,0,.047-1.848q-.006-1-.012-2.123c-.019-6.018-.047-14.695-.081-25.411-.01-5.365-.019-11.241-.031-17.548-.078-1.563.3-3.278-.708-4.522a3.6,3.6,0,0,0-1.866-1.313,9.252,9.252,0,0,0-2.424-.148l-10.365.011-46.147.019a3.549,3.549,0,0,0-2.561,1.085,3.6,3.6,0,0,0-1,2.585q0,3.032,0,6.023,0,5.981,0,11.775c0,7.72-.01,15.166-.015,22.26l0,5.252,0,2.574a4.418,4.418,0,0,0,.412,2.363,3.605,3.605,0,0,0,1.68,1.591,3.717,3.717,0,0,0,1.118.31c.377.03.8.018,1.2.021l4.81.007,17.549.031,25.41.081,6.908.047,1.8.025c.4.009.612.026.612.026s-.208.017-.612.026l-1.8.024-6.908.048-25.41.081-17.549.031-4.81.007c-.411,0-.807.013-1.25-.021a4.173,4.173,0,0,1-1.255-.344,4.049,4.049,0,0,1-1.891-1.782,4.882,4.882,0,0,1-.469-2.571l0-2.574,0-5.252c0-7.094-.01-14.54-.015-22.26q0-5.79,0-11.775,0-2.99,0-6.023a4.11,4.11,0,0,1,1.145-2.937,4.053,4.053,0,0,1,2.925-1.24l46.147.02,10.365.011h1.255a4.386,4.386,0,0,1,1.293.171,4.04,4.04,0,0,1,2.872,3.87q0,1.2,0,2.385c-.011,6.307-.021,12.183-.031,17.548-.034,10.716-.061,19.393-.08,25.411q-.007,1.125-.012,2.123a13.409,13.409,0,0,1-.073,1.874,3.809,3.809,0,0,1-1.545,2.45,3.722,3.722,0,0,1-1.667.671A2.476,2.476,0,0,1,350.73,205.957Z" transform="translate(-288.75 -149.395)" fill="#263238"/>
            </g>
          </g>
        </g>
        <g id="Grupo_892923" data-name="Grupo 892923" transform="translate(10.626 11.619)">
          <path id="Trazado_612439" data-name="Trazado 612439" d="M329.872,167.593H302.819a3.108,3.108,0,0,1-3.109-3.108h0a3.108,3.108,0,0,1,3.109-3.109h27.053a3.108,3.108,0,0,1,3.109,3.109h0A3.108,3.108,0,0,1,329.872,167.593Z" transform="translate(-299.686 -161.353)" fill="#fb8c00"/>
          <path id="Trazado_612440" data-name="Trazado 612440" d="M329.871,167.617H302.818a3.132,3.132,0,1,1,0-6.265h27.053a3.132,3.132,0,0,1,0,6.265ZM302.818,161.4a3.084,3.084,0,1,0,0,6.168h27.053a3.084,3.084,0,0,0,0-6.168Z" transform="translate(-299.685 -161.352)" fill="#fff"/>
        </g>
        <g id="Grupo_892924" data-name="Grupo 892924" transform="translate(10.626 26.236)">
          <path id="Trazado_612441" data-name="Trazado 612441" d="M345.036,182.635H302.819a3.108,3.108,0,0,1-3.109-3.109h0a3.108,3.108,0,0,1,3.109-3.108h42.217a3.108,3.108,0,0,1,3.109,3.108h0A3.108,3.108,0,0,1,345.036,182.635Z" transform="translate(-299.686 -176.395)" fill="#263238"/>
          <path id="Trazado_612442" data-name="Trazado 612442" d="M345.036,182.659H302.818a3.132,3.132,0,1,1,0-6.265h42.218a3.132,3.132,0,0,1,0,6.265Zm-42.218-6.216a3.084,3.084,0,1,0,0,6.168h42.218a3.084,3.084,0,0,0,0-6.168Z" transform="translate(-299.685 -176.394)" fill="#fff"/>
        </g>
        <g id="Grupo_892928" data-name="Grupo 892928" transform="translate(56.03 7.411)">
          <g id="Grupo_892925" data-name="Grupo 892925">
            <path id="Trazado_612443" data-name="Trazado 612443" d="M349.625,158.642a1.6,1.6,0,1,1-1.6-1.6A1.6,1.6,0,0,1,349.625,158.642Z" transform="translate(-346.41 -157.022)" fill="#263238"/>
            <path id="Trazado_612444" data-name="Trazado 612444" d="M348.029,160.261a1.62,1.62,0,1,1,1.619-1.62A1.621,1.621,0,0,1,348.029,160.261Zm0-3.191a1.571,1.571,0,1,0,1.571,1.571A1.573,1.573,0,0,0,348.029,157.07Z" transform="translate(-346.409 -157.021)" fill="#fff"/>
          </g>
          <g id="Grupo_892926" data-name="Grupo 892926" transform="translate(0 4.068)">
            <circle id="Elipse_8181" data-name="Elipse 8181" cx="1.596" cy="1.596" r="1.596" transform="translate(0.024 0.024)" fill="#263238"/>
            <path id="Trazado_612445" data-name="Trazado 612445" d="M348.029,164.446a1.619,1.619,0,1,1,1.619-1.619A1.621,1.621,0,0,1,348.029,164.446Zm0-3.19a1.571,1.571,0,1,0,1.571,1.571A1.573,1.573,0,0,0,348.029,161.256Z" transform="translate(-346.409 -161.207)" fill="#fff"/>
          </g>
          <g id="Grupo_892927" data-name="Grupo 892927" transform="translate(0 8.134)">
            <path id="Trazado_612446" data-name="Trazado 612446" d="M349.625,167.013a1.6,1.6,0,1,1-1.6-1.6A1.6,1.6,0,0,1,349.625,167.013Z" transform="translate(-346.41 -165.393)" fill="#263238"/>
            <path id="Trazado_612447" data-name="Trazado 612447" d="M348.029,168.632a1.62,1.62,0,1,1,1.619-1.62A1.621,1.621,0,0,1,348.029,168.632Zm0-3.191a1.571,1.571,0,1,0,1.571,1.571A1.573,1.573,0,0,0,348.029,165.441Z" transform="translate(-346.409 -165.392)" fill="#fff"/>
          </g>
        </g>
        <g id="Grupo_892929" data-name="Grupo 892929" transform="translate(10.626 39.365)">
          <circle id="Elipse_8182" data-name="Elipse 8182" cx="4.558" cy="4.558" r="4.558" transform="translate(0.025 0.024)" fill="#1565c0"/>
          <path id="Trazado_612448" data-name="Trazado 612448" d="M304.268,199.068a4.582,4.582,0,1,1,4.581-4.582A4.587,4.587,0,0,1,304.268,199.068Zm0-9.115a4.533,4.533,0,1,0,4.533,4.533A4.539,4.539,0,0,0,304.268,189.953Z" transform="translate(-299.685 -189.904)" fill="#fff"/>
        </g>
        <g id="Grupo_892930" data-name="Grupo 892930" transform="translate(22.277 39.365)">
          <circle id="Elipse_8183" data-name="Elipse 8183" cx="4.558" cy="4.558" r="4.558" transform="translate(0.024 0.024)" fill="#455a64"/>
          <path id="Trazado_612449" data-name="Trazado 612449" d="M316.256,199.068a4.582,4.582,0,1,1,4.582-4.582A4.587,4.587,0,0,1,316.256,199.068Zm0-9.115a4.533,4.533,0,1,0,4.533,4.533A4.539,4.539,0,0,0,316.256,189.953Z" transform="translate(-311.674 -189.904)" fill="#fff"/>
        </g>
      </g>
    </g>
    <g id="Grupo_947358" data-name="Grupo 947358" transform="translate(206.58 6175.768) rotate(-65)">
      <path id="Trazado_628476" data-name="Trazado 628476" d="M272.221,141.468v-5.5l-5.122-.842a15.123,15.123,0,0,0-1.815-4.374l3.03-4.22-3.889-3.889-4.218,3.03a15.154,15.154,0,0,0-4.376-1.815l-.842-5.122h-5.5l-.842,5.122a15.122,15.122,0,0,0-4.374,1.815l-4.22-3.03-3.887,3.889,3.028,4.22a15.226,15.226,0,0,0-1.815,4.374l-5.122.842v5.5l5.122.842a15.226,15.226,0,0,0,1.815,4.374l-3.028,4.22,3.887,3.887,4.22-3.028a15.124,15.124,0,0,0,4.374,1.815l.842,5.122h5.5l.842-5.122a15.156,15.156,0,0,0,4.376-1.815l4.218,3.028,3.889-3.887-3.03-4.22a15.123,15.123,0,0,0,1.815-4.374Zm-19.98,3.659a6.407,6.407,0,1,1,6.408-6.407A6.407,6.407,0,0,1,252.241,145.126Z" transform="translate(-232.261 -72.938)" fill="#727997"/>
      <path id="Trazado_628477" data-name="Trazado 628477" d="M293.6,123.106v-7.082L287,114.94a19.516,19.516,0,0,0-2.337-5.637l3.9-5.433-5.008-5.008-5.433,3.9a19.539,19.539,0,0,0-5.637-2.337l-1.083-6.6h-7.082l-1.083,6.6a19.517,19.517,0,0,0-5.637,2.337l-5.433-3.9-5.008,5.008,3.9,5.433a19.519,19.519,0,0,0-2.337,5.637l-6.6,1.083v7.082l6.6,1.083a19.54,19.54,0,0,0,2.337,5.637l-3.9,5.433,5.008,5.008,5.433-3.9a19.518,19.518,0,0,0,5.637,2.337l1.083,6.6h7.082l1.083-6.6a19.539,19.539,0,0,0,5.637-2.337l5.433,3.9,5.008-5.008-3.9-5.433A19.537,19.537,0,0,0,287,124.189Zm-25.737,4.712a8.254,8.254,0,1,1,8.253-8.253A8.254,8.254,0,0,1,267.865,127.818Z" transform="translate(-223.987 -93.828)" fill="#727997"/>
    </g>
  </g>
</svg>
