<svg xmlns="http://www.w3.org/2000/svg" xmlns:xlink="http://www.w3.org/1999/xlink" width="253.517" height="139.31" viewBox="0 0 253.517 139.31">
  <defs>
    <clipPath id="clip-path">
      <rect id="Rectángulo_305296" data-name="Rectángulo 305296" width="120.709" height="60.996" fill="#b8ebd6"/>
    </clipPath>
    <clipPath id="clip-path-2">
      <rect id="Rectángulo_305297" data-name="Rectángulo 305297" width="91.043" height="46.006" fill="#e8e8e8"/>
    </clipPath>
  </defs>
  <g id="Grupo_946726" data-name="Grupo 946726" transform="translate(-248.5 -1738.114)">
    <g id="Grupo_922881" data-name="Grupo 922881" transform="translate(502.017 1848.442) rotate(180)" clip-path="url(#clip-path)">
      <path id="Trazado_607560" data-name="Trazado 607560" d="M60.354,61A60.354,60.354,0,0,1,0,.642C0,.428.006.214.008,0H120.7c0,.214.008.428.008.642A60.354,60.354,0,0,1,60.354,61" transform="translate(0 0)" fill="#b8ebd6"/>
    </g>
    <g id="Grupo_922885" data-name="Grupo 922885" transform="translate(248.5 1802.436)" clip-path="url(#clip-path-2)">
      <path id="Trazado_607561" data-name="Trazado 607561" d="M45.521,46.006A45.521,45.521,0,0,1,0,.484C0,.322,0,.162.006,0h91.03c0,.162.006.322.006.484A45.521,45.521,0,0,1,45.521,46.006" transform="translate(0 0)" fill="#e8e8e8"/>
    </g>
    <g id="Grupo_922880" data-name="Grupo 922880" transform="translate(270.824 1738.114)">
      <g id="Grupo_922762" data-name="Grupo 922762" transform="translate(111.643 55.617)">
        <g id="Grupo_922758" data-name="Grupo 922758" transform="translate(3.297)">
          <path id="Trazado_607469" data-name="Trazado 607469" d="M574.852-131.6H548.413a2.031,2.031,0,0,1-2.029-2.029v-38.742a2.031,2.031,0,0,1,2.029-2.029h26.439a2.031,2.031,0,0,1,2.029,2.029v38.742A2.031,2.031,0,0,1,574.852-131.6Zm-26.439-42.406a1.638,1.638,0,0,0-1.636,1.636v38.742a1.638,1.638,0,0,0,1.636,1.636h26.439a1.637,1.637,0,0,0,1.636-1.636v-38.742a1.637,1.637,0,0,0-1.636-1.636Z" transform="translate(-546.384 174.398)" fill="#fff"/>
        </g>
        <g id="Grupo_922759" data-name="Grupo 922759" transform="translate(0 3.34)">
          <rect id="Rectángulo_305281" data-name="Rectángulo 305281" width="30.103" height="42.407" rx="3.405" transform="translate(30.103 42.407) rotate(180)" fill="#f3c035"/>
        </g>
        <g id="Grupo_922760" data-name="Grupo 922760" transform="translate(5.397 11.896)">
          <path id="Trazado_607470" data-name="Trazado 607470" d="M567.138-141.891a8.508,8.508,0,0,0,.206-1.871,8.52,8.52,0,0,0-.229-1.973l-1.2-.013-.717-1.715.858-.816a8.559,8.559,0,0,0-2.673-2.689l-.937.889-1.7-.728.053-1.254a8.516,8.516,0,0,0-1.973-.23,8.5,8.5,0,0,0-1.8.192v1.359l-1.7.735-.98-1.013a8.547,8.547,0,0,0-2.687,2.637l.957.912-.717,1.715-1.368.015a8.545,8.545,0,0,0-.23,1.977,8.522,8.522,0,0,0,.208,1.876l1.391.014.717,1.715-1,.95a8.559,8.559,0,0,0,2.665,2.662l1.043-1.077,1.7.736v1.461a8.5,8.5,0,0,0,1.8.192,8.55,8.55,0,0,0,1.977-.23l-.057-1.357,1.7-.726,1,.95a8.547,8.547,0,0,0,2.649-2.713l-.9-.853.717-1.716Zm-8.322,2.27a4.141,4.141,0,0,1-4.141-4.141,4.141,4.141,0,0,1,4.141-4.14,4.14,4.14,0,0,1,4.14,4.14A4.141,4.141,0,0,1,558.816-139.62Z" transform="translate(-550.287 152.29)" fill="#fff"/>
        </g>
        <g id="Grupo_922761" data-name="Grupo 922761" transform="translate(14.421 27.155)">
          <path id="Trazado_607471" data-name="Trazado 607471" d="M576.472-116.479a5.032,5.032,0,0,0,.427-1.024,5.013,5.013,0,0,0,.2-1.154l-.679-.208-.121-1.089.62-.32a5.04,5.04,0,0,0-1.065-1.965l-.678.347-.843-.694.238-.7a5,5,0,0,0-1.078-.457,5,5,0,0,0-1.051-.191l-.226.769-1.084.133-.386-.736a5.026,5.026,0,0,0-1.958,1.044l.39.675-.69.851-.776-.218a5.024,5.024,0,0,0-.459,1.08,5.038,5.038,0,0,0-.194,1.1l.785.239.12,1.089-.722.372a5.056,5.056,0,0,0,1.065,1.948l.769-.436.84.7-.243.827a5.019,5.019,0,0,0,.987.408,5.057,5.057,0,0,0,1.157.2l.193-.777,1.084-.128.408.7a5.04,5.04,0,0,0,1.949-1.095l-.366-.632.69-.851Zm-5.084-.1a2.441,2.441,0,0,1-1.654-3.031,2.44,2.44,0,0,1,3.03-1.654,2.441,2.441,0,0,1,1.654,3.029A2.441,2.441,0,0,1,571.388-116.577Z" transform="translate(-567.057 123.934)" fill="#0f1e52"/>
        </g>
      </g>
      <g id="Grupo_922773" data-name="Grupo 922773" transform="translate(69.246 9.82)">
        <g id="Grupo_922763" data-name="Grupo 922763" transform="translate(0 0)">
          <path id="Trazado_607472" data-name="Trazado 607472" d="M519.571-257.493V-221a1.885,1.885,0,0,1-1.719,2.015H463.18A1.885,1.885,0,0,1,461.467-221v-36.5a1.885,1.885,0,0,1,1.713-2.015h54.672A1.885,1.885,0,0,1,519.571-257.493Z" transform="translate(-461.467 259.508)" fill="#fff4d6"/>
        </g>
        <g id="Grupo_922764" data-name="Grupo 922764" transform="translate(0 0)">
          <path id="Trazado_607473" data-name="Trazado 607473" d="M519.571-257.493v2.136h-58.1v-2.136a1.885,1.885,0,0,1,1.713-2.015h54.672A1.885,1.885,0,0,1,519.571-257.493Z" transform="translate(-461.467 259.508)" fill="#f3c035"/>
        </g>
        <g id="Grupo_922765" data-name="Grupo 922765" transform="translate(8.548 1.089)">
          <path id="Trazado_607474" data-name="Trazado 607474" d="M479.325-256.5a.987.987,0,0,1-.987.986.987.987,0,0,1-.986-.986.987.987,0,0,1,.986-.987A.987.987,0,0,1,479.325-256.5Z" transform="translate(-477.352 257.485)" fill="#0f1e52"/>
        </g>
        <g id="Grupo_922766" data-name="Grupo 922766" transform="translate(5.386 1.089)">
          <path id="Trazado_607475" data-name="Trazado 607475" d="M473.45-256.5a.987.987,0,0,1-.986.986.987.987,0,0,1-.987-.986.987.987,0,0,1,.987-.987A.987.987,0,0,1,473.45-256.5Z" transform="translate(-471.477 257.485)" fill="#f38e1e"/>
        </g>
        <g id="Grupo_922767" data-name="Grupo 922767" transform="translate(2.225 1.089)">
          <path id="Trazado_607476" data-name="Trazado 607476" d="M467.575-256.5a.987.987,0,0,1-.986.986.987.987,0,0,1-.987-.986.987.987,0,0,1,.987-.987A.987.987,0,0,1,467.575-256.5Z" transform="translate(-465.602 257.485)" fill="#fff4d6"/>
        </g>
        <g id="Grupo_922883" data-name="Grupo 922883" transform="translate(5.398 10.978)">
          <g id="Grupo_922768" data-name="Grupo 922768" transform="translate(0 5.195)">
            <rect id="Rectángulo_305282" data-name="Rectángulo 305282" width="47.308" height="2.46" fill="#f3c035"/>
          </g>
          <g id="Grupo_922769" data-name="Grupo 922769">
            <rect id="Rectángulo_305283" data-name="Rectángulo 305283" width="47.308" height="2.46" fill="#f3c035"/>
          </g>
          <g id="Grupo_922882" data-name="Grupo 922882" transform="translate(0 10.23)">
            <g id="Grupo_922770" data-name="Grupo 922770" transform="translate(0 10.071)">
              <rect id="Rectángulo_305284" data-name="Rectángulo 305284" width="47.308" height="2.46" fill="#f3c035"/>
            </g>
            <rect id="Rectángulo_305285" data-name="Rectángulo 305285" width="47.308" height="2.46" fill="#f3c035"/>
            <g id="Grupo_922772" data-name="Grupo 922772" transform="translate(0 5.036)">
              <rect id="Rectángulo_305286" data-name="Rectángulo 305286" width="47.308" height="2.46" fill="#f3c035"/>
            </g>
          </g>
        </g>
      </g>
      <g id="Grupo_922777" data-name="Grupo 922777" transform="translate(105.212 0)">
        <g id="Grupo_922774" data-name="Grupo 922774">
          <rect id="Rectángulo_305287" data-name="Rectángulo 305287" width="23.632" height="27.2" rx="1.937" fill="#b8ebd6"/>
        </g>
        <g id="Grupo_922775" data-name="Grupo 922775" transform="translate(4.241 4.842)">
          <rect id="Rectángulo_305288" data-name="Rectángulo 305288" width="8.975" height="10.568" fill="#ffb700"/>
        </g>
        <g id="Grupo_922776" data-name="Grupo 922776" transform="translate(9.454 12.421)">
          <rect id="Rectángulo_305289" data-name="Rectángulo 305289" width="9.937" height="9.937" fill="#111f4f"/>
        </g>
      </g>
      <g id="Grupo_922823" data-name="Grupo 922823" transform="translate(115.447 14.384)">
        <g id="Grupo_922778" data-name="Grupo 922778" transform="translate(0 0.011)">
          <path id="Trazado_607477" data-name="Trazado 607477" d="M549.221-251.006l-1.9.123,1.474,1.136A.739.739,0,0,0,549.221-251.006Z" transform="translate(-547.325 251.006)" fill="#fff"/>
        </g>
        <g id="Grupo_922779" data-name="Grupo 922779" transform="translate(53.323 101.632)">
          <path id="Trazado_607478" data-name="Trazado 607478" d="M646.42-60.4l.612,9.718,8.548.95,2.525-5.079-.552-7.34Z" transform="translate(-646.42 62.155)" fill="#fd8753"/>
        </g>
        <g id="Grupo_922780" data-name="Grupo 922780" transform="translate(69.881 90.576)">
          <path id="Trazado_607479" data-name="Trazado 607479" d="M677.192-73.63l7.266,6.482,6.748-5.332-1.773-5.387L683.88-82.7Z" transform="translate(-677.192 82.7)" fill="#fd8753"/>
        </g>
        <g id="Grupo_922781" data-name="Grupo 922781" transform="translate(55.468 18.245)">
          <path id="Trazado_607480" data-name="Trazado 607480" d="M671.956-201.984s-9.582-4.5-14.514-3.32-7.035-9.03-7.035-9.03,14.1-9.76,25.513,7.259c8.256,12.308-3.334,4.3-3.334,4.3Z" transform="translate(-650.407 217.12)" fill="#fd8753"/>
        </g>
        <g id="Grupo_922782" data-name="Grupo 922782" transform="translate(55.468 49.017)">
          <path id="Trazado_607481" data-name="Trazado 607481" d="M658.126-159.934l18.765,42.813-11.2,11.552s-5.648-4.658-11.3-20.309a73.033,73.033,0,0,1-3.638-30.837Z" transform="translate(-650.407 159.934)" fill="#4cba97"/>
        </g>
        <g id="Grupo_922783" data-name="Grupo 922783" transform="translate(46.896 0.292)">
          <path id="Trazado_607482" data-name="Trazado 607482" d="M635.407-242.831s7.851-4.191,5.223-6.958-6.153,3.625-6.153,3.625Z" transform="translate(-634.477 250.483)" fill="#0f1e52"/>
        </g>
        <g id="Grupo_922785" data-name="Grupo 922785" transform="translate(41.713 1.651)">
          <g id="Grupo_922784" data-name="Grupo 922784">
            <path id="Trazado_607483" data-name="Trazado 607483" d="M624.844-247.248s4.785-2.268,7.257,1.3c2.4,3.469-.6,6.845-.6,6.845l-5.668-4.768Z" transform="translate(-624.844 247.958)" fill="#0f1e52"/>
          </g>
        </g>
        <g id="Grupo_922787" data-name="Grupo 922787" transform="translate(41.216 12.556)">
          <g id="Grupo_922786" data-name="Grupo 922786">
            <path id="Trazado_607484" data-name="Trazado 607484" d="M629.319-227.692l.034,4.018s-.715,1.161-3.064,1.372a4.163,4.163,0,0,1-2.368-.234l.227-2.037.224-1.986,4.237-.97Z" transform="translate(-623.921 227.692)" fill="#fd8753"/>
          </g>
        </g>
        <g id="Grupo_922789" data-name="Grupo 922789" transform="translate(41.443 12.72)">
          <g id="Grupo_922788" data-name="Grupo 922788">
            <path id="Trazado_607485" data-name="Trazado 607485" d="M628.8-227.388a1.323,1.323,0,0,1-.114.389c-.882,2.015-3.336,2.468-4.347,2.567l.224-1.986Z" transform="translate(-624.343 227.388)"/>
          </g>
        </g>
        <g id="Grupo_922791" data-name="Grupo 922791" transform="translate(39.268 2.838)">
          <g id="Grupo_922790" data-name="Grupo 922790">
            <path id="Trazado_607486" data-name="Trazado 607486" d="M622.269-244.377s-2.519,5.034-1.859,7.97,3.321,2.618,4.928,2.141a5.227,5.227,0,0,0,2.389-1.407,2.227,2.227,0,0,0,2.5-.743,2.237,2.237,0,0,0-.291-3.329,2.318,2.318,0,0,0-1.855.151l.862-1.456S626.045-248.829,622.269-244.377Z" transform="translate(-620.3 245.752)" fill="#fd8753"/>
          </g>
        </g>
        <g id="Grupo_922792" data-name="Grupo 922792" transform="translate(40.093 7.997)">
          <path id="Trazado_607487" data-name="Trazado 607487" d="M622.044-233.238a.2.2,0,0,1-.2-.182,3.668,3.668,0,0,1,.68-2.681.2.2,0,0,1,.277-.012.2.2,0,0,1,.014.277,3.358,3.358,0,0,0-.578,2.39.2.2,0,0,1-.182.209Z" transform="translate(-621.833 236.165)"/>
        </g>
        <g id="Grupo_922793" data-name="Grupo 922793" transform="translate(46.792 9.851)">
          <path id="Trazado_607488" data-name="Trazado 607488" d="M634.48-231.444a.2.2,0,0,1-.181-.121.2.2,0,0,1,.105-.257l2.107-.882a.2.2,0,0,1,.257.105.2.2,0,0,1-.105.257l-2.107.882A.189.189,0,0,1,634.48-231.444Z" transform="translate(-634.284 232.719)"/>
        </g>
        <g id="Grupo_922794" data-name="Grupo 922794" transform="translate(47.741 10.336)">
          <path id="Trazado_607489" data-name="Trazado 607489" d="M637.132-230.492a.2.2,0,0,1-.143-.061l-.888-.933a.2.2,0,0,1,.006-.278.2.2,0,0,1,.278.007l.888.933a.2.2,0,0,1-.006.278A.2.2,0,0,1,637.132-230.492Z" transform="translate(-636.047 231.818)"/>
        </g>
        <g id="Grupo_922795" data-name="Grupo 922795" transform="translate(40.638 10.928)">
          <path id="Trazado_607490" data-name="Trazado 607490" d="M623.712-229.137a.865.865,0,0,1-.86-.627.2.2,0,0,1,.026-.156.2.2,0,0,1,.133-.086,1.816,1.816,0,0,0,1.073-.63.2.2,0,0,1,.217-.072.2.2,0,0,1,.138.183,2.01,2.01,0,0,1-.327,1.216.548.548,0,0,1-.4.172Zm-.377-.545a.464.464,0,0,0,.381.152.155.155,0,0,0,.117-.053.876.876,0,0,0,.172-.428A2.351,2.351,0,0,1,623.334-229.682Z" transform="translate(-622.846 230.717)"/>
        </g>
        <g id="Grupo_922796" data-name="Grupo 922796" transform="translate(42.128 7.13)">
          <path id="Trazado_607491" data-name="Trazado 607491" d="M625.811-235.993a.2.2,0,0,1-.061-.01.2.2,0,0,1-.125-.247l.268-.821-.215-.419a.2.2,0,0,1,.086-.264.2.2,0,0,1,.264.086l.251.492a.2.2,0,0,1,.011.15l-.293.9A.2.2,0,0,1,625.811-235.993Z" transform="translate(-625.615 237.776)"/>
        </g>
        <g id="Grupo_922797" data-name="Grupo 922797" transform="translate(39.563 6.87)">
          <path id="Trazado_607492" data-name="Trazado 607492" d="M621.046-236.476a.2.2,0,0,1-.061-.01.2.2,0,0,1-.126-.248l.268-.821-.214-.419a.2.2,0,0,1,.086-.264.2.2,0,0,1,.264.085l.251.492a.2.2,0,0,1,.012.15l-.293.9A.2.2,0,0,1,621.046-236.476Z" transform="translate(-620.849 238.259)"/>
        </g>
        <g id="Grupo_922798" data-name="Grupo 922798" transform="translate(40.219 5.849)">
          <path id="Trazado_607493" data-name="Trazado 607493" d="M622.264-239.694a.2.2,0,0,1-.2-.173.2.2,0,0,1,.172-.218l.581-.068a.192.192,0,0,1,.218.172.2.2,0,0,1-.172.218l-.581.068Z" transform="translate(-622.068 240.156)"/>
        </g>
        <g id="Grupo_922799" data-name="Grupo 922799" transform="translate(9.127 5.448)">
          <path id="Trazado_607494" data-name="Trazado 607494" d="M571.533-235.108s5.1,7.018,10,8.342,1.853,11.3,1.853,11.3-17.049,1.818-18.923-18.589c-1.355-14.759,5.6-1.049,5.6-1.049Z" transform="translate(-564.287 240.902)" fill="#fd8753"/>
        </g>
        <g id="Grupo_922800" data-name="Grupo 922800" transform="translate(41.972 5.896)">
          <path id="Trazado_607495" data-name="Trazado 607495" d="M626.68-239.148a.2.2,0,0,1-.082-.018l-1.157-.528a.2.2,0,0,1-.1-.26.2.2,0,0,1,.26-.1l1.157.528a.2.2,0,0,1,.1.26A.2.2,0,0,1,626.68-239.148Z" transform="translate(-625.326 240.069)"/>
        </g>
        <g id="Grupo_922801" data-name="Grupo 922801" transform="translate(38.925 35.623)">
          <path id="Trazado_607496" data-name="Trazado 607496" d="M641.052-184.368s4.022,12.989,3.735,14.2-3.063,7.919-3.255,8.478,4.979,46.022,4.979,46.022l-16.818,4.192s-11.284-48.516-9.914-62.583S641.052-184.368,641.052-184.368Z" transform="translate(-619.663 184.824)" fill="#6aceae"/>
        </g>
        <g id="Grupo_922802" data-name="Grupo 922802" transform="translate(1.474 0)">
          <rect id="Rectángulo_305290" data-name="Rectángulo 305290" width="1.327" height="20.028" transform="translate(19.411 6.366) rotate(108.533)" fill="#fff"/>
        </g>
        <g id="Grupo_922804" data-name="Grupo 922804" transform="translate(40.063 2.346)">
          <g id="Grupo_922803" data-name="Grupo 922803">
            <path id="Trazado_607497" data-name="Trazado 607497" d="M628.288-239.12a7.659,7.659,0,0,1-3.61-2.991c-1.574-2.343-1.516-2.923-1.516-2.923l-1.077,2.255s-.673-1.844-.024-2.959,1.367-.913,1.367-.913l4.782,1.026,1.754,3.783Z" transform="translate(-621.778 246.666)" fill="#12263f"/>
          </g>
        </g>
        <g id="Grupo_922805" data-name="Grupo 922805" transform="translate(22.323 15.89)">
          <path id="Trazado_607498" data-name="Trazado 607498" d="M589.56-219.988s8.909.985,11.535.328a103.858,103.858,0,0,1,14.214-1.735,91.37,91.37,0,0,1,15.749.61,47.834,47.834,0,0,1,4.83.985,71.375,71.375,0,0,1-1.032,8.862c-.75,3.516-.891,4.173-.891,4.173l-7.362-.562,2.613,11.17s-3.692,2.428-11.992,4.538-12.773.469-12.773.469L601.8-204.232a63.617,63.617,0,0,1-9.378-.8c-3.142-.7-3.611-.8-3.611-.8Z" transform="translate(-588.81 221.497)" fill="#f3c035"/>
        </g>
        <g id="Grupo_922806" data-name="Grupo 922806" transform="translate(7.65 0.64)">
          <path id="Trazado_607499" data-name="Trazado 607499" d="M569.786-238.186s1.9-4,1.788-4.92-2.1-1.552-2.1-1.552-.407-3.692-1.176-3.972-1.176.851-1.176.851-.453-2.308-1.4-2.036-1.131,1.656-1.131,1.656-.181-1.821-1.312-1.376-2.118,4.9-1.575,8.712a7.275,7.275,0,0,0,3.927,5.33Z" transform="translate(-561.542 249.836)" fill="#fd8753"/>
        </g>
        <g id="Grupo_922807" data-name="Grupo 922807" transform="translate(15.381 5.622)">
          <path id="Trazado_607500" data-name="Trazado 607500" d="M576.376-237.612a.2.2,0,0,1-.2-.176l-.271-2.572a.2.2,0,0,1,.175-.216.2.2,0,0,1,.216.175l.271,2.572a.2.2,0,0,1-.175.216Z" transform="translate(-575.908 240.578)"/>
        </g>
        <g id="Grupo_922808" data-name="Grupo 922808" transform="translate(76.274 29.124)">
          <path id="Trazado_607501" data-name="Trazado 607501" d="M689.073-194.031a22.491,22.491,0,0,0,.789,4.7c.534,1.225,1.5,2.668,2.247,2.457s-.437-3.469-.437-3.469a36.928,36.928,0,0,1,3.766,2.758c1.609,1.395,2.15,2.53,2.969,2.507s.676-1.578.676-1.578.654.872,1.315.564.166-1.984.166-1.984,1.149.373,1.247-.8-2.78-4.775-5.358-6.533a8.09,8.09,0,0,0-5.053-1.471Z" transform="translate(-689.073 196.902)" fill="#fd8753"/>
        </g>
        <g id="Grupo_922809" data-name="Grupo 922809" transform="translate(80.226 33.102)">
          <path id="Trazado_607502" data-name="Trazado 607502" d="M696.614-186.8a.2.2,0,0,1-.174-.105.2.2,0,0,1,.083-.265l4.415-2.311a.2.2,0,0,1,.265.083.2.2,0,0,1-.083.265l-4.415,2.311A.194.194,0,0,1,696.614-186.8Z" transform="translate(-696.417 189.509)"/>
        </g>
        <g id="Grupo_922810" data-name="Grupo 922810" transform="translate(84.263 33.301)">
          <path id="Trazado_607503" data-name="Trazado 607503" d="M707.42-184.3a.2.2,0,0,1-.166-.092,37.235,37.235,0,0,0-3.284-4.422.2.2,0,0,1,.012-.278.2.2,0,0,1,.277.012,37.493,37.493,0,0,1,3.327,4.478.2.2,0,0,1-.061.271A.2.2,0,0,1,707.42-184.3Z" transform="translate(-703.918 189.141)"/>
        </g>
        <g id="Grupo_922811" data-name="Grupo 922811" transform="translate(82.417 34.461)">
          <path id="Trazado_607504" data-name="Trazado 607504" d="M704.355-181.882a.2.2,0,0,1-.155-.076l-3.671-4.709a.2.2,0,0,1,.034-.276.2.2,0,0,1,.276.034l3.671,4.709a.2.2,0,0,1-.034.276A.2.2,0,0,1,704.355-181.882Z" transform="translate(-700.488 186.984)"/>
        </g>
        <g id="Grupo_922812" data-name="Grupo 922812" transform="translate(78.299 30.213)">
          <path id="Trazado_607505" data-name="Trazado 607505" d="M694.862-190.837a.186.186,0,0,1-.034,0,.2.2,0,0,1-.16-.227c.324-1.87-1.733-3.442-1.754-3.458a.2.2,0,0,1-.04-.275.2.2,0,0,1,.275-.039c.093.069,2.271,1.731,1.905,3.839A.2.2,0,0,1,694.862-190.837Z" transform="translate(-692.836 194.878)"/>
        </g>
        <g id="Grupo_922813" data-name="Grupo 922813" transform="translate(40.569 105.643)">
          <path id="Trazado_607506" data-name="Trazado 607506" d="M639.624-49.265s-3.076-2.533-4.434-1.719-5.067,8.325-5.067,8.325-5.095,1.316-6.633,2.854-.362,4.162,0,4.343a124.407,124.407,0,0,0,12.877-.5c.543-.272,14.659-9.32,14.931-9.682s-3.619-9.32-4.344-9.049S639.624-49.265,639.624-49.265Z" transform="translate(-622.719 54.7)" fill="#12263f"/>
        </g>
        <g id="Grupo_922814" data-name="Grupo 922814" transform="translate(73.763 93.759)">
          <path id="Trazado_607507" data-name="Trazado 607507" d="M684.405-66.448s3.258,9.411,2.715,9.954a16.8,16.8,0,0,0-1.99,6.515c0,1.9,2.353,3.619,2.805,3.619s8.707-9.5,9.014-10.044,3.473-18.55,3.112-18.64-9.205-2.138-9.644-1.673-1.3,9.726-1.3,9.726S686.125-68.891,684.405-66.448Z" transform="translate(-684.405 76.786)" fill="#12263f"/>
        </g>
        <g id="Grupo_922815" data-name="Grupo 922815" transform="translate(76.281 111.954)">
          <path id="Trazado_607508" data-name="Trazado 607508" d="M689.282-40.679a.2.2,0,0,1-.139-.058.2.2,0,0,1,0-.278l1.9-1.9a.2.2,0,0,1,.277,0,.2.2,0,0,1,0,.278l-1.9,1.9A.2.2,0,0,1,689.282-40.679Z" transform="translate(-689.086 42.972)" fill="#fff"/>
        </g>
        <g id="Grupo_922816" data-name="Grupo 922816" transform="translate(47.778 116.944)">
          <path id="Trazado_607509" data-name="Trazado 607509" d="M636.311-32.762a.2.2,0,0,1-.191-.149.2.2,0,0,1,.143-.238l2.171-.543a.193.193,0,0,1,.238.142.2.2,0,0,1-.142.238l-2.172.543A.207.207,0,0,1,636.311-32.762Z" transform="translate(-636.115 33.698)" fill="#fff"/>
        </g>
        <g id="Grupo_922817" data-name="Grupo 922817" transform="translate(60.12 50.503)">
          <path id="Trazado_607510" data-name="Trazado 607510" d="M663.582-112.624a.2.2,0,0,1-.2-.174c-.454-3.888-4.431-38.005-4.334-38.664s3.053-4.805,3.644-5.628a.2.2,0,0,1,.274-.045.2.2,0,0,1,.045.274,47.218,47.218,0,0,0-3.574,5.456c-.046.724,2.816,25.541,4.336,38.562a.2.2,0,0,1-.172.218Z" transform="translate(-659.051 157.172)" fill="#fff"/>
        </g>
        <g id="Grupo_922818" data-name="Grupo 922818" transform="translate(40.971 51.667)">
          <path id="Trazado_607511" data-name="Trazado 607511" d="M626.918-150.051a.194.194,0,0,1-.046-.005c-3.564-.867-3.406-4.727-3.4-4.766a.2.2,0,0,1,.206-.186.2.2,0,0,1,.186.206c-.007.146-.139,3.575,3.1,4.365a.2.2,0,0,1,.144.237A.2.2,0,0,1,626.918-150.051Z" transform="translate(-623.466 155.008)" fill="#fff"/>
        </g>
        <g id="Grupo_922819" data-name="Grupo 922819" transform="translate(67.456 86.661)">
          <path id="Trazado_607512" data-name="Trazado 607512" d="M672.882-76.721a.2.2,0,0,1-.135-.054.2.2,0,0,1-.009-.278l12.121-12.862a.2.2,0,0,1,.277-.009.2.2,0,0,1,.009.278L673.024-76.783A.194.194,0,0,1,672.882-76.721Z" transform="translate(-672.685 89.975)" fill="#fff"/>
        </g>
        <g id="Grupo_922820" data-name="Grupo 922820" transform="translate(47.747 100.393)">
          <path id="Trazado_607513" data-name="Trazado 607513" d="M636.254-60.153a.2.2,0,0,1-.192-.152.2.2,0,0,1,.147-.235l17.024-3.909a.191.191,0,0,1,.235.147.2.2,0,0,1-.147.236L636.3-60.158A.183.183,0,0,1,636.254-60.153Z" transform="translate(-636.058 64.456)" fill="#fff"/>
        </g>
        <g id="Grupo_922821" data-name="Grupo 922821" transform="translate(33.895 30.37)">
          <path id="Trazado_607514" data-name="Trazado 607514" d="M611.732-191.606a.2.2,0,0,1-.178-.112l-1.22-2.588a.2.2,0,0,1,.094-.262.2.2,0,0,1,.262.094l1.22,2.588a.2.2,0,0,1-.094.262A.2.2,0,0,1,611.732-191.606Z" transform="translate(-610.316 194.586)" fill="#fff"/>
        </g>
        <g id="Grupo_922822" data-name="Grupo 922822" transform="translate(59.921 27.369)">
          <path id="Trazado_607515" data-name="Trazado 607515" d="M658.878-197.277a.2.2,0,0,1-.2-.2v-2.495a.2.2,0,0,1,.2-.2.2.2,0,0,1,.2.2v2.495A.2.2,0,0,1,658.878-197.277Z" transform="translate(-658.682 200.164)" fill="#fff"/>
        </g>
      </g>
      <g id="Grupo_922879" data-name="Grupo 922879" transform="translate(0 18.111)">
        <g id="Grupo_922871" data-name="Grupo 922871">
          <g id="Grupo_922824" data-name="Grupo 922824" transform="translate(12.277 97.9)">
            <path id="Trazado_607516" data-name="Trazado 607516" d="M367.168-59.312v9.1H355.6V-62.162Z" transform="translate(-355.596 62.162)" fill="#fd8753"/>
          </g>
          <g id="Grupo_922825" data-name="Grupo 922825" transform="translate(42.049 97.347)">
            <path id="Trazado_607517" data-name="Trazado 607517" d="M422.847-63.189l2.426,8.774L414.11-51.328,410.924-62.85Z" transform="translate(-410.924 63.189)" fill="#fd8753"/>
          </g>
          <g id="Grupo_922826" data-name="Grupo 922826">
            <path id="Trazado_607518" data-name="Trazado 607518" d="M353.464-240.869s-2.968-4.993-7.71-2.562-4.222,7.459-7.822,8.612-6.547,4.258-4.455,8.261c1.75,3.349,6.49,2.284,6.49,2.284s2.947,5.019,8.156,3.3,7.585-4.422,7.04-8.74S353.464-240.869,353.464-240.869Z" transform="translate(-332.78 244.099)" fill="#12263f"/>
          </g>
          <g id="Grupo_922827" data-name="Grupo 922827" transform="translate(16.369 1.989)">
            <path id="Trazado_607519" data-name="Trazado 607519" d="M375.986-231.907s2.815-4.112-2.884-7.353-9.853,1.2-9.9,3.591a4.455,4.455,0,0,0,1.312,3.495s-.531,5.174,4.44,4.819A8.852,8.852,0,0,0,375.986-231.907Z" transform="translate(-363.2 240.402)" fill="#12263f"/>
          </g>
          <g id="Grupo_922829" data-name="Grupo 922829" transform="translate(21.541 14.205)">
            <g id="Grupo_922828" data-name="Grupo 922828">
              <path id="Trazado_607520" data-name="Trazado 607520" d="M372.917-217.7l-.1,4.181s.724,1.22,3.165,1.48a4.33,4.33,0,0,0,2.468-.2l-.2-2.123-.2-2.071-4.392-1.082Z" transform="translate(-372.812 217.7)" fill="#fd8753"/>
            </g>
          </g>
          <g id="Grupo_922831" data-name="Grupo 922831" transform="translate(21.659 14.006)">
            <g id="Grupo_922830" data-name="Grupo 922830">
              <path id="Trazado_607521" data-name="Trazado 607521" d="M373.03-218.07a1.386,1.386,0,0,0,.111.406c.883,2.112,4.154,3.007,5.2,3.129l-.2-2.071Z" transform="translate(-373.03 218.07)"/>
            </g>
          </g>
          <g id="Grupo_922833" data-name="Grupo 922833" transform="translate(18.743 4.351)">
            <g id="Grupo_922832" data-name="Grupo 922832">
              <path id="Trazado_607522" data-name="Trazado 607522" d="M376.814-234.4s2.063,5.3,1.125,8.187-3.583,2.322-5.154,1.692a5.277,5.277,0,0,1-2.271-1.637,2.25,2.25,0,0,1-2.449-.981,2.257,2.257,0,0,1,.6-3.319,2.339,2.339,0,0,1,1.851.324l-.731-1.544S373.434-239.228,376.814-234.4Z" transform="translate(-367.612 236.013)" fill="#fd8753"/>
            </g>
          </g>
          <g id="Grupo_922834" data-name="Grupo 922834" transform="translate(27.685 9.798)">
            <path id="Trazado_607523" data-name="Trazado 607523" d="M384.821-222.892l-.032,0a.2.2,0,0,1-.161-.226,3.394,3.394,0,0,0-.358-2.457.2.2,0,0,1,.039-.275.2.2,0,0,1,.274.038,3.7,3.7,0,0,1,.432,2.758A.2.2,0,0,1,384.821-222.892Z" transform="translate(-384.23 225.891)"/>
          </g>
          <g id="Grupo_922835" data-name="Grupo 922835" transform="translate(19.303 10.9)">
            <path id="Trazado_607524" data-name="Trazado 607524" d="M370.886-222.366a.2.2,0,0,1-.093-.023l-2.036-1.083a.2.2,0,0,1-.081-.266.2.2,0,0,1,.266-.081l2.036,1.084a.2.2,0,0,1,.081.265A.2.2,0,0,1,370.886-222.366Z" transform="translate(-368.653 223.842)"/>
          </g>
          <g id="Grupo_922836" data-name="Grupo 922836" transform="translate(19.442 11.496)">
            <path id="Trazado_607525" data-name="Trazado 607525" d="M369.108-221.487a.2.2,0,0,1-.148-.067.2.2,0,0,1,.019-.277l.98-.855a.2.2,0,0,1,.278.019.2.2,0,0,1-.019.277l-.98.855A.2.2,0,0,1,369.108-221.487Z" transform="translate(-368.912 222.736)"/>
          </g>
          <g id="Grupo_922837" data-name="Grupo 922837" transform="translate(18.999 3.291)">
            <path id="Trazado_607526" data-name="Trazado 607526" d="M377.852-232.687a4.47,4.47,0,0,0-1.082-2.395c-1.049-1.175-1.936-.98-1.936-.98s1.547,3.388-1.057,4.582a4.373,4.373,0,0,1-3.039.436l-2.652-2.632,5.276-4.284S378.172-238.634,377.852-232.687Z" transform="translate(-368.087 237.982)" fill="#12263f"/>
          </g>
          <g id="Grupo_922838" data-name="Grupo 922838" transform="translate(25.814 12.642)">
            <path id="Trazado_607527" data-name="Trazado 607527" d="M381.907-219.377a.2.2,0,0,1-.064-.011,2.179,2.179,0,0,1-1.064-.921.2.2,0,0,1,.069-.269.2.2,0,0,1,.269.069,1.79,1.79,0,0,0,.854.75.2.2,0,0,1,.122.249A.2.2,0,0,1,381.907-219.377Z" transform="translate(-380.752 220.605)"/>
          </g>
          <g id="Grupo_922839" data-name="Grupo 922839" transform="translate(26.025 8.792)">
            <path id="Trazado_607528" data-name="Trazado 607528" d="M381.552-225.965a.2.2,0,0,1-.191-.153l-.211-.931a.2.2,0,0,1,.025-.149l.3-.471a.2.2,0,0,1,.271-.06.2.2,0,0,1,.061.271l-.255.4.193.851a.2.2,0,0,1-.148.235A.2.2,0,0,1,381.552-225.965Z" transform="translate(-381.145 227.759)"/>
          </g>
          <g id="Grupo_922840" data-name="Grupo 922840" transform="translate(28.628 8.77)">
            <path id="Trazado_607529" data-name="Trazado 607529" d="M386.388-226.005a.2.2,0,0,1-.191-.153l-.211-.93a.2.2,0,0,1,.025-.149l.3-.471a.2.2,0,0,1,.271-.061.2.2,0,0,1,.061.271l-.255.4.193.851a.2.2,0,0,1-.148.235A.2.2,0,0,1,386.388-226.005Z" transform="translate(-385.981 227.8)"/>
          </g>
          <g id="Grupo_922841" data-name="Grupo 922841" transform="translate(27.82 7.633)">
            <path id="Trazado_607530" data-name="Trazado 607530" d="M385.255-229.4a.176.176,0,0,1-.041,0l-.578-.123a.2.2,0,0,1-.151-.233.2.2,0,0,1,.233-.151l.577.123a.2.2,0,0,1,.151.233A.2.2,0,0,1,385.255-229.4Z" transform="translate(-384.481 229.913)"/>
          </g>
          <g id="Grupo_922848" data-name="Grupo 922848" transform="translate(47.807 1.831)">
            <g id="Grupo_922842" data-name="Grupo 922842" transform="translate(1.217 0.673)">
              <path id="Trazado_607531" data-name="Trazado 607531" d="M423.886-225.333l9.408,5.771,10.543-14.112-9.408-5.771Z" transform="translate(-423.886 239.446)" fill="#0f1e52"/>
            </g>
            <g id="Grupo_922843" data-name="Grupo 922843">
              <path id="Trazado_607532" data-name="Trazado 607532" d="M421.625-226.584l9.408,5.771,10.543-14.112-9.408-5.771Z" transform="translate(-421.625 240.696)" fill="#fff"/>
            </g>
            <g id="Grupo_922884" data-name="Grupo 922884" transform="translate(6.9 2.291)">
              <g id="Grupo_922844" data-name="Grupo 922844" transform="translate(3.308)">
                <path id="Trazado_607533" data-name="Trazado 607533" d="M447.7-231.811a.2.2,0,0,1-.1-.029l-6.9-4.236a.2.2,0,0,1-.065-.27.2.2,0,0,1,.27-.065l6.9,4.236a.2.2,0,0,1,.065.27A.2.2,0,0,1,447.7-231.811Z" transform="translate(-440.595 236.44)" fill="#0f1e52"/>
              </g>
              <g id="Grupo_922845" data-name="Grupo 922845" transform="translate(2.189 1.457)">
                <path id="Trazado_607534" data-name="Trazado 607534" d="M445.617-229.1a.193.193,0,0,1-.1-.029l-6.905-4.235a.2.2,0,0,1-.065-.27.2.2,0,0,1,.27-.065l6.905,4.235a.2.2,0,0,1,.065.27A.2.2,0,0,1,445.617-229.1Z" transform="translate(-438.515 233.731)" fill="#0f1e52"/>
              </g>
              <g id="Grupo_922846" data-name="Grupo 922846" transform="translate(1.096 2.931)">
                <path id="Trazado_607535" data-name="Trazado 607535" d="M443.585-226.365a.2.2,0,0,1-.1-.029l-6.9-4.236a.2.2,0,0,1-.065-.27.2.2,0,0,1,.27-.065l6.9,4.235a.2.2,0,0,1,.065.27A.194.194,0,0,1,443.585-226.365Z" transform="translate(-436.484 230.993)" fill="#0f1e52"/>
              </g>
              <g id="Grupo_922847" data-name="Grupo 922847" transform="translate(0 4.402)">
                <path id="Trazado_607536" data-name="Trazado 607536" d="M441.549-223.63a.193.193,0,0,1-.1-.029l-6.9-4.235a.2.2,0,0,1-.065-.27.2.2,0,0,1,.27-.065l6.9,4.235a.2.2,0,0,1,.065.27A.194.194,0,0,1,441.549-223.63Z" transform="translate(-434.448 228.259)" fill="#0f1e52"/>
              </g>
            </g>
          </g>
          <g id="Grupo_922849" data-name="Grupo 922849" transform="translate(27.566 9.287)">
            <path id="Trazado_607537" data-name="Trazado 607537" d="M394.207-226.84l-10.2,13.586,9.794,5.723,6.339-16.79Z" transform="translate(-384.008 226.84)" fill="#fd8753"/>
          </g>
          <g id="Grupo_922850" data-name="Grupo 922850" transform="translate(25.424 7.571)">
            <path id="Trazado_607538" data-name="Trazado 607538" d="M380.225-229.214a.2.2,0,0,1-.185-.132.2.2,0,0,1,.121-.25l1.212-.422a.2.2,0,0,1,.25.121.2.2,0,0,1-.121.25l-1.212.422A.209.209,0,0,1,380.225-229.214Z" transform="translate(-380.028 230.029)"/>
          </g>
          <g id="Grupo_922851" data-name="Grupo 922851" transform="translate(33.821 14.376)">
            <path id="Trazado_607539" data-name="Trazado 607539" d="M414.345-209s.22-3.874,1.389-5.409,3.216-2.727,3.655-1.839-.95,2.174-.731,2.7,1.682.262,3.874-.519a8.308,8.308,0,0,0,3.654-3.318,4.013,4.013,0,0,1,.293,1.919,4.269,4.269,0,0,1-.439,1.4s.465-1.053.468.874a2.37,2.37,0,0,1-.834,1.644s.658.794-.731,2.548-5.263,3.362-5.263,3.362-4.312,10.525-11.4,13.3a14.414,14.414,0,0,1-12.645-.95l2.193-11.549S405.427-202.127,414.345-209Z" transform="translate(-395.633 217.382)" fill="#fd8753"/>
          </g>
          <g id="Grupo_922852" data-name="Grupo 922852" transform="translate(60.569 17.14)">
            <path id="Trazado_607540" data-name="Trazado 607540" d="M445.537-209.49a.2.2,0,0,1-.192-.156.2.2,0,0,1,.152-.232,9.164,9.164,0,0,0,3.527-2.308.2.2,0,0,1,.277-.006.2.2,0,0,1,.005.278,9.338,9.338,0,0,1-3.729,2.42A.174.174,0,0,1,445.537-209.49Z" transform="translate(-445.34 212.246)"/>
          </g>
          <g id="Grupo_922853" data-name="Grupo 922853" transform="translate(60.898 20.016)">
            <path id="Trazado_607541" data-name="Trazado 607541" d="M446.148-205.111a.2.2,0,0,1-.193-.164.2.2,0,0,1,.161-.226,4.394,4.394,0,0,0,2.646-1.324.2.2,0,0,1,.274-.034.2.2,0,0,1,.036.274,4.684,4.684,0,0,1-2.892,1.471A.174.174,0,0,1,446.148-205.111Z" transform="translate(-445.952 206.901)"/>
          </g>
          <g id="Grupo_922854" data-name="Grupo 922854" transform="translate(7.319 37.537)">
            <path id="Trazado_607542" data-name="Trazado 607542" d="M368.928-167.774a266.592,266.592,0,0,1,17.165,26.8c7.741,14.1,12.045,31.744,12.045,31.744L378.314-108,363.9-142.849l4.238,34.385-19.17-.671s-4.149-31.921-1.937-46.978,4.806-18.228,4.806-18.228Z" transform="translate(-346.381 174.341)" fill="#727997"/>
          </g>
          <g id="Grupo_922855" data-name="Grupo 922855" transform="translate(17.066 2.769)">
            <path id="Trazado_607543" data-name="Trazado 607543" d="M365.885-230.83a.2.2,0,0,1-.154-.074c-3.344-4.21,1.155-7.968,1.2-8.006a.2.2,0,0,1,.276.028.2.2,0,0,1-.027.276c-.175.143-4.245,3.553-1.142,7.458a.2.2,0,0,1-.032.276A.193.193,0,0,1,365.885-230.83Z" transform="translate(-364.496 238.953)" fill="#fff"/>
          </g>
          <g id="Grupo_922856" data-name="Grupo 922856" transform="translate(10.607 18.036)">
            <path id="Trazado_607544" data-name="Trazado 607544" d="M382.614-201.544s-7.546-8.442-16.655-8.991-12.18,3.838-12.618,5.921-1.206,16.994-.658,17.981,4.287,2.741,10.366,3.18,9.259-.329,9.7-.658.987-4.934.987-4.934l5.153,1.316Z" transform="translate(-352.492 210.581)" fill="#6aceae"/>
          </g>
          <g id="Grupo_922857" data-name="Grupo 922857" transform="translate(7.187 14.206)">
            <path id="Trazado_607545" data-name="Trazado 607545" d="M360.595-217.7s2.565,5.772-.1,8.06-6.641.808-6.641.808-1.339.858-3.9-.009a7.423,7.423,0,0,1-3.813-3.241Z" transform="translate(-346.136 217.698)" fill="#12263f"/>
          </g>
          <g id="Grupo_922858" data-name="Grupo 922858" transform="translate(37.764 1.261)">
            <path id="Trazado_607546" data-name="Trazado 607546" d="M402.961-233.729s2.562-4.019,3.85-4.9,8.465-3.706,9.173-3.017-3.487,3.568-3.487,3.568a1.272,1.272,0,0,1,.9.737,1.332,1.332,0,0,1-.141,1.054s.895-.03,1.146.577a1.572,1.572,0,0,1-.162,1.273s-1.649,3.011-2.587,3.075-.814-1.6-.814-1.6a5.748,5.748,0,0,1-1.159,2.356c-.818.837-2.494.924-4.228.011A6.181,6.181,0,0,1,402.961-233.729Z" transform="translate(-402.961 241.755)" fill="#fd8753"/>
          </g>
          <g id="Grupo_922859" data-name="Grupo 922859" transform="translate(39.57 5.957)">
            <path id="Trazado_607547" data-name="Trazado 607547" d="M406.513-227.065a.2.2,0,0,1-.2-.176.2.2,0,0,1,.175-.216c1.977-.208,2.458-2.758,2.463-2.784a.2.2,0,0,1,.085-.129.208.208,0,0,1,.151-.029c.935.206,2.058.28,2.244.042.037-.048,0-.142-.031-.211-.516-1.028-2.9-2.077-2.922-2.087a.2.2,0,0,1-.1-.258.2.2,0,0,1,.258-.1c.1.045,2.538,1.117,3.117,2.271a.553.553,0,0,1-.011.628c-.375.484-1.789.271-2.445.14-.161.656-.818,2.7-2.765,2.907Z" transform="translate(-406.316 233.029)"/>
          </g>
          <g id="Grupo_922860" data-name="Grupo 922860" transform="translate(44.413 4.74)">
            <path id="Trazado_607548" data-name="Trazado 607548" d="M415.512-231.833a.2.2,0,0,1-.187-.135.2.2,0,0,1,.125-.248c1.128-.37,2.567-2.948,2.581-2.974a.2.2,0,0,1,.267-.076.2.2,0,0,1,.077.267c-.062.111-1.529,2.739-2.8,3.156A.2.2,0,0,1,415.512-231.833Z" transform="translate(-415.316 235.29)"/>
          </g>
          <g id="Grupo_922861" data-name="Grupo 922861" transform="translate(43.963 6.53)">
            <path id="Trazado_607549" data-name="Trazado 607549" d="M415.6-228.1h-.035a1.091,1.091,0,0,1-.86-.4,1.43,1.43,0,0,1-.192-1.069.2.2,0,0,1,.234-.149.2.2,0,0,1,.15.234,1.045,1.045,0,0,0,.122.748.724.724,0,0,0,.566.246c.726.031,2.118-2.045,2.82-3.368a.2.2,0,0,1,.265-.081.2.2,0,0,1,.081.265C418.553-231.305,416.818-228.1,415.6-228.1Z" transform="translate(-414.48 231.963)"/>
          </g>
          <g id="Grupo_922862" data-name="Grupo 922862" transform="translate(30.79 35.305)">
            <path id="Trazado_607550" data-name="Trazado 607550" d="M391.057-174.025a.2.2,0,0,1-.181-.119c-.255-.6-1.477-3.618-.513-4.26a.4.4,0,0,1,.441-.033c.641.37.5,3.331.448,4.229a.2.2,0,0,1-.163.181A.168.168,0,0,1,391.057-174.025Zm-.449-4.073c-.433.29-.139,1.685.294,2.929A6.5,6.5,0,0,0,390.609-178.1Z" transform="translate(-389.999 178.489)" fill="#fff"/>
          </g>
          <g id="Grupo_922863" data-name="Grupo 922863" transform="translate(10.8 43.453)">
            <path id="Trazado_607551" data-name="Trazado 607551" d="M365.722-159.125c-4.069,0-9.528-.684-12.811-3.883a.2.2,0,0,1,0-.278.2.2,0,0,1,.278,0c5.474,5.335,17.642,3.417,17.764,3.4a.2.2,0,0,1,.225.162.2.2,0,0,1-.163.225A35.7,35.7,0,0,1,365.722-159.125Z" transform="translate(-352.851 163.345)" fill="#fff"/>
          </g>
          <g id="Grupo_922864" data-name="Grupo 922864" transform="translate(14.683 61.349)">
            <path id="Trazado_607552" data-name="Trazado 607552" d="M370.309-122.212a.2.2,0,0,1-.17-.1c-.027-.047-2.788-4.676-9.946-7.4a.2.2,0,0,1-.114-.253.194.194,0,0,1,.253-.114c7.3,2.775,10.118,7.52,10.146,7.568a.2.2,0,0,1-.071.269A.2.2,0,0,1,370.309-122.212Z" transform="translate(-360.066 130.089)" fill="#fff"/>
          </g>
          <g id="Grupo_922865" data-name="Grupo 922865" transform="translate(7.469 50.067)">
            <path id="Trazado_607553" data-name="Trazado 607553" d="M347.4-142.563c-.181,0-.364-.005-.553-.018a.2.2,0,0,1-.183-.209.2.2,0,0,1,.209-.183,5.123,5.123,0,0,0,4.049-1.252,6.992,6.992,0,0,0,1.8-4.581L348-150.677a.2.2,0,0,1-.11-.255.2.2,0,0,1,.255-.11l4.836,1.922a.2.2,0,0,1,.124.179,7.393,7.393,0,0,1-1.917,5A5.3,5.3,0,0,1,347.4-142.563Z" transform="translate(-346.659 151.055)" fill="#fff"/>
          </g>
          <g id="Grupo_922866" data-name="Grupo 922866" transform="translate(22.724 51.169)">
            <path id="Trazado_607554" data-name="Trazado 607554" d="M380.586-139.817c-4.146,0-5.556-6.616-5.571-6.686a.2.2,0,0,1,.135-.227L382.468-149a.2.2,0,0,1,.241.115c.084.208,2.027,5.122.606,7.636a2.748,2.748,0,0,1-2.067,1.378A4.163,4.163,0,0,1,380.586-139.817Zm-5.146-6.592c.262,1.077,1.849,6.785,5.745,6.15a2.373,2.373,0,0,0,1.788-1.183c1.189-2.1-.236-6.242-.564-7.128Z" transform="translate(-375.01 149.007)" fill="#fff"/>
          </g>
          <g id="Grupo_922867" data-name="Grupo 922867" transform="translate(43.451 103.319)">
            <path id="Trazado_607555" data-name="Trazado 607555" d="M415.009-37.821s-2.809-13.172-.686-13.213a18.95,18.95,0,0,1,5.552,1.329s4.369-3.242,6.664-2.167a11.1,11.1,0,0,1,3.963,3.959l12.743,5.749s1.744,2.016,1.513,3.194c-.181.919-17.875,3.142-25.644,4.074a3.625,3.625,0,0,1-4.1-2.925Z" transform="translate(-413.529 52.091)" fill="#6aceae"/>
          </g>
          <g id="Grupo_922869" data-name="Grupo 922869" transform="translate(10.445 103.278)">
            <path id="Trazado_607557" data-name="Trazado 607557" d="M366.824-49.548s7.561,12.349,6.256,13.874-10.516,1.736-14.721,1.063-5.816-1.178-6.134-2.2S353.9-50.531,353.9-50.531a4.99,4.99,0,0,1,4.39-1.549,36.853,36.853,0,0,1,6.515,2.5S365.8-51.274,366.824-49.548Z" transform="translate(-352.191 52.168)" fill="#6aceae"/>
          </g>
          <g id="Grupo_922870" data-name="Grupo 922870" transform="translate(22.866 105.672)">
            <path id="Trazado_607558" data-name="Trazado 607558" d="M377.193-46.307a.192.192,0,0,1-.1-.027l-1.723-1.019a.2.2,0,0,1-.069-.269.2.2,0,0,1,.269-.069l1.723,1.019a.2.2,0,0,1,.069.269A.2.2,0,0,1,377.193-46.307Z" transform="translate(-375.273 47.719)" fill="#5e1dbb"/>
          </g>
        </g>
        <g id="Grupo_922878" data-name="Grupo 922878" transform="translate(51.149 36.225)">
          <g id="Grupo_922872" data-name="Grupo 922872" transform="translate(0 4.239)">
            <path id="Rectángulo_305291" data-name="Rectángulo 305291" d="M2.852,0H19.806a2.852,2.852,0,0,1,2.852,2.852V9.135a2.852,2.852,0,0,1-2.852,2.852H2.853A2.853,2.853,0,0,1,0,9.135V2.852A2.852,2.852,0,0,1,2.852,0Z" transform="translate(22.659 11.987) rotate(180)" fill="#b8ebd6"/>
          </g>
          <g id="Grupo_922873" data-name="Grupo 922873" transform="translate(2.924)">
            <path id="Trazado_607559" data-name="Trazado 607559" d="M440.431-171.663l-7.163-5.116,1.754,5.116Z" transform="translate(-433.268 176.779)" fill="#b8ebd6"/>
          </g>
          <g id="Grupo_922874" data-name="Grupo 922874" transform="translate(16.062 6.578)">
            <rect id="Rectángulo_305292" data-name="Rectángulo 305292" width="2.485" height="7.309" transform="translate(2.485 7.309) rotate(180)" fill="#294ddc"/>
          </g>
          <g id="Grupo_922875" data-name="Grupo 922875" transform="translate(12.079 7.894)">
            <rect id="Rectángulo_305293" data-name="Rectángulo 305293" width="2.485" height="5.994" transform="translate(2.485 5.994) rotate(180)" fill="#f3c035"/>
          </g>
          <g id="Grupo_922876" data-name="Grupo 922876" transform="translate(4.111 7.894)">
            <rect id="Rectángulo_305294" data-name="Rectángulo 305294" width="2.485" height="5.994" transform="translate(2.485 5.994) rotate(180)" fill="#6aceae"/>
          </g>
          <g id="Grupo_922877" data-name="Grupo 922877" transform="translate(8.095 10.233)">
            <rect id="Rectángulo_305295" data-name="Rectángulo 305295" width="2.485" height="3.655" transform="translate(2.485 3.655) rotate(180)" fill="#0f1e52"/>
          </g>
        </g>
      </g>
    </g>
  </g>
</svg>
