<svg xmlns="http://www.w3.org/2000/svg" xmlns:xlink="http://www.w3.org/1999/xlink" width="360.164" height="200.713" viewBox="0 0 360.164 200.713">
  <defs>
    <clipPath id="clip-path">
      <rect id="Rectángulo_341783" data-name="Rectángulo 341783" width="197.359" height="99.729" fill="#fff4d6"/>
    </clipPath>
    <clipPath id="clip-path-2">
      <rect id="Rectángulo_341784" data-name="Rectángulo 341784" width="148.855" height="75.219" fill="#fff"/>
    </clipPath>
    <linearGradient id="linear-gradient" x1="38.577" y1="0.5" x2="39.577" y2="0.5" gradientUnits="objectBoundingBox">
      <stop offset="0" stop-color="#ff928e"/>
      <stop offset="1" stop-color="#feb3b1"/>
    </linearGradient>
    <linearGradient id="linear-gradient-2" x1="54.232" y1="-3.851" x2="54.249" y2="-1.37" gradientUnits="objectBoundingBox">
      <stop offset="0" stop-color="#09005d"/>
      <stop offset="1" stop-color="#1a0f91"/>
    </linearGradient>
    <linearGradient id="linear-gradient-3" x1="1.419" y1="-0.263" x2="1.1" y2="0.019" xlink:href="#linear-gradient"/>
    <linearGradient id="linear-gradient-4" x1="39.235" y1="-11.951" x2="39.248" y2="-5.405" xlink:href="#linear-gradient-2"/>
    <linearGradient id="linear-gradient-5" x1="0.788" y1="-0.976" x2="0.253" y2="1.757" xlink:href="#linear-gradient"/>
    <linearGradient id="linear-gradient-6" x1="16.252" y1="-51.253" x2="17.431" y2="-49.677" xlink:href="#linear-gradient"/>
    <linearGradient id="linear-gradient-7" x1="51.855" y1="-0.703" x2="49.905" y2="0.922" xlink:href="#linear-gradient-2"/>
    <linearGradient id="linear-gradient-8" x1="60.202" y1="-167.163" x2="64.494" y2="-162.086" xlink:href="#linear-gradient"/>
    <linearGradient id="linear-gradient-9" x1="21.151" y1="0.5" x2="22.151" y2="0.5" xlink:href="#linear-gradient"/>
    <linearGradient id="linear-gradient-10" x1="37.864" y1="-0.179" x2="36.498" y2="0.949" xlink:href="#linear-gradient-2"/>
    <linearGradient id="linear-gradient-11" x1="-40.561" y1="0.5" x2="-39.561" y2="0.5" xlink:href="#linear-gradient"/>
    <linearGradient id="linear-gradient-12" x1="-51.617" y1="5.314" x2="-51.44" y2="3.174" xlink:href="#linear-gradient-2"/>
    <linearGradient id="linear-gradient-13" x1="-52.297" y1="-22.07" x2="-52.834" y2="-77.83" xlink:href="#linear-gradient-2"/>
    <linearGradient id="linear-gradient-14" x1="-138.076" y1="-0.843" x2="-138.582" y2="2.39" xlink:href="#linear-gradient"/>
    <linearGradient id="linear-gradient-15" x1="-33.029" y1="-21.886" x2="-33.394" y2="-75.302" xlink:href="#linear-gradient-2"/>
    <linearGradient id="linear-gradient-16" x1="-35.312" y1="15.32" x2="-34.986" y2="13.24" xlink:href="#linear-gradient-2"/>
    <linearGradient id="linear-gradient-17" x1="-131.858" y1="-0.224" x2="-132.372" y2="2.539" xlink:href="#linear-gradient"/>
    <linearGradient id="linear-gradient-18" x1="-57.314" y1="-0.222" x2="-58.132" y2="2.966" xlink:href="#linear-gradient"/>
    <linearGradient id="linear-gradient-19" x1="2.783" y1="0.276" x2="1.388" y2="0.413" xlink:href="#linear-gradient"/>
    <linearGradient id="linear-gradient-20" x1="-40.938" y1="-29.654" x2="-39.884" y2="-30.768" gradientUnits="objectBoundingBox">
      <stop offset="0" stop-color="#e1473d"/>
      <stop offset="1" stop-color="#e9605a"/>
    </linearGradient>
    <linearGradient id="linear-gradient-21" x1="-192.2" y1="-121.936" x2="-189.743" y2="-124.584" xlink:href="#linear-gradient"/>
    <linearGradient id="linear-gradient-22" x1="-7.987" y1="0.205" x2="-15.627" y2="-0.061" xlink:href="#linear-gradient-2"/>
    <linearGradient id="linear-gradient-23" x1="-51.233" y1="7.685" x2="-49.852" y2="6.586" xlink:href="#linear-gradient"/>
    <linearGradient id="linear-gradient-24" x1="-49.984" y1="10.585" x2="-48.612" y2="9.177" xlink:href="#linear-gradient"/>
    <linearGradient id="linear-gradient-25" y1="0.5" x2="1" y2="0.5" gradientUnits="objectBoundingBox">
      <stop offset="0" stop-color="#dae3fe"/>
      <stop offset="1" stop-color="#e9effd"/>
    </linearGradient>
    <linearGradient id="linear-gradient-26" x1="43.087" y1="28.919" x2="43.656" y2="24.966" xlink:href="#linear-gradient-2"/>
    <linearGradient id="linear-gradient-27" x1="185.299" y1="0.5" x2="186.299" y2="0.5" xlink:href="#linear-gradient"/>
    <linearGradient id="linear-gradient-28" x1="106.242" y1="32.826" x2="107.651" y2="28.196" xlink:href="#linear-gradient-2"/>
    <linearGradient id="linear-gradient-29" x1="214.608" y1="0.5" x2="215.608" y2="0.5" xlink:href="#linear-gradient"/>
    <linearGradient id="linear-gradient-30" x1="-11.11" y1="0.21" x2="-8.123" y2="1.765" xlink:href="#linear-gradient"/>
    <linearGradient id="linear-gradient-31" x1="-35.827" y1="0.04" x2="-34.798" y2="1.767" xlink:href="#linear-gradient"/>
    <linearGradient id="linear-gradient-32" x1="-85.219" y1="1.716" x2="-87.094" y2="-0.451" xlink:href="#linear-gradient"/>
    <linearGradient id="linear-gradient-33" x1="1.757" y1="-2.955" x2="1.407" y2="-2.052" xlink:href="#linear-gradient"/>
    <linearGradient id="linear-gradient-34" x1="27.136" y1="-0.062" x2="27.65" y2="2.428" xlink:href="#linear-gradient-2"/>
    <linearGradient id="linear-gradient-35" x1="1.723" y1="-0.818" x2="0.549" y2="0.318" xlink:href="#linear-gradient"/>
    <linearGradient id="linear-gradient-36" x1="1.006" y1="-0.619" x2="-0.06" y2="2.103" xlink:href="#linear-gradient"/>
    <linearGradient id="linear-gradient-37" x1="10.827" y1="87.352" x2="9.927" y2="86.135" xlink:href="#linear-gradient"/>
    <linearGradient id="linear-gradient-38" x1="-42.245" y1="-2.766" x2="-42.04" y2="-1.587" xlink:href="#linear-gradient-2"/>
    <linearGradient id="linear-gradient-39" x1="34.59" y1="421.631" x2="31.657" y2="415.732" xlink:href="#linear-gradient"/>
    <linearGradient id="linear-gradient-40" x1="0.531" y1="0.127" x2="0.328" y2="1.542" gradientUnits="objectBoundingBox">
      <stop offset="0" stop-color="#2b3582"/>
      <stop offset="1" stop-color="#150e42"/>
    </linearGradient>
    <linearGradient id="linear-gradient-41" x1="0.457" y1="1.875" x2="-0.174" y2="23.66" gradientUnits="objectBoundingBox">
      <stop offset="0" stop-color="#53d8ff"/>
      <stop offset="1" stop-color="#3840f7"/>
    </linearGradient>
    <linearGradient id="linear-gradient-42" x1="0.416" y1="2.737" x2="-0.105" y2="17.472" xlink:href="#linear-gradient-41"/>
    <linearGradient id="linear-gradient-43" x1="0.379" y1="3.815" x2="-0.133" y2="18.536" xlink:href="#linear-gradient-41"/>
    <linearGradient id="linear-gradient-44" x1="0.332" y1="5.008" x2="-0.21" y2="19.869" xlink:href="#linear-gradient-41"/>
  </defs>
  <g id="Grupo_947545" data-name="Grupo 947545" transform="translate(-1047.194 -5336.367)">
    <g id="Grupo_946980" data-name="Grupo 946980" transform="translate(1407.359 5522.623) rotate(180)" clip-path="url(#clip-path)">
      <path id="Trazado_627331" data-name="Trazado 627331" d="M98.679,99.729A98.679,98.679,0,0,1,0,1.05C0,.7.01.351.014,0H197.345c0,.351.014.7.014,1.05A98.679,98.679,0,0,1,98.679,99.729" transform="translate(0 0)" fill="#fff4d6"/>
    </g>
    <g id="Grupo_946981" data-name="Grupo 946981" transform="translate(1125 5356.167) rotate(91)" clip-path="url(#clip-path-2)">
      <path id="Trazado_627332" data-name="Trazado 627332" d="M74.428,75.219A74.427,74.427,0,0,1,0,.792C0,.527.007.264.01,0H148.845c0,.264.01.527.01.792A74.427,74.427,0,0,1,74.428,75.219" transform="translate(0 0)" fill="#fff"/>
    </g>
    <g id="Grupo_947212" data-name="Grupo 947212" transform="translate(727.671 5119.027)">
      <g id="Grupo_947155" data-name="Grupo 947155" transform="translate(589.834 347.485)">
        <g id="Grupo_947148" data-name="Grupo 947148" transform="translate(0 29.525)">
          <g id="Grupo_947145" data-name="Grupo 947145">
            <path id="Trazado_627714" data-name="Trazado 627714" d="M1916.475,1370.678a.345.345,0,0,1-.295-.165c-.245-.4-.471-.819-.674-1.241a.345.345,0,0,1,.622-.3c.193.4.409.8.642,1.181a.345.345,0,0,1-.294.524Z" transform="translate(-1914.088 -1348.747)" fill="#91b3fa"/>
            <path id="Trazado_627715" data-name="Trazado 627715" d="M1907.1,1257.106a.344.344,0,0,1-.341-.294,14.4,14.4,0,0,1-.153-2.087q0-.292.012-.582a.334.334,0,0,1,.358-.33.344.344,0,0,1,.33.358c-.008.184-.011.369-.011.554a13.705,13.705,0,0,0,.146,1.987.344.344,0,0,1-.291.391A.3.3,0,0,1,1907.1,1257.106Zm.677-6.755a.344.344,0,0,1-.324-.461,14.374,14.374,0,0,1,1.137-2.419.345.345,0,1,1,.594.35,13.712,13.712,0,0,0-1.082,2.3A.344.344,0,0,1,1907.775,1250.352Zm3.78-5.64a.345.345,0,0,1-.232-.6,14.326,14.326,0,0,1,2.139-1.6.345.345,0,1,1,.359.589,13.587,13.587,0,0,0-2.036,1.524A.345.345,0,0,1,1911.555,1244.711Zm5.988-3.193a.345.345,0,0,1-.083-.679q.361-.09.731-.162a14.5,14.5,0,0,1,1.91-.243.345.345,0,1,1,.041.688,13.8,13.8,0,0,0-1.819.231q-.352.069-.7.155A.365.365,0,0,1,1917.542,1241.518Z" transform="translate(-1906.605 -1240.433)" fill="#91b3fa"/>
            <path id="Trazado_627716" data-name="Trazado 627716" d="M2019.745,1244.067a.338.338,0,0,1-.117-.021c-.418-.15-.851-.283-1.285-.392a.345.345,0,0,1,.169-.669c.456.115.91.254,1.35.413a.345.345,0,0,1-.117.669Z" transform="translate(-2000.685 -1242.578)" fill="#91b3fa"/>
          </g>
          <g id="Grupo_947146" data-name="Grupo 947146" transform="translate(8.654 7.718)">
            <path id="Trazado_627717" data-name="Trazado 627717" d="M2077.329,1291.841a.344.344,0,0,1-.322-.222c-.159-.418-.34-.833-.539-1.232a.345.345,0,1,1,.617-.307c.209.419.4.855.566,1.294a.345.345,0,0,1-.2.445A.337.337,0,0,1,2077.329,1291.841Z" transform="translate(-2058.582 -1289.888)" fill="#91b3fa"/>
            <path id="Trazado_627718" data-name="Trazado 627718" d="M1997.163,1339.624a.345.345,0,0,1,0-.69,13.736,13.736,0,0,0,2.49-.249.345.345,0,1,1,.131.677,14.423,14.423,0,0,1-2.615.261Zm6.474-1.635a.345.345,0,0,1-.162-.649,13.6,13.6,0,0,0,2.091-1.372.345.345,0,0,1,.43.539,14.271,14.271,0,0,1-2.2,1.442A.341.341,0,0,1,2003.638,1337.989Zm4.973-4.453a.345.345,0,0,1-.284-.539,13.738,13.738,0,0,0,1.219-2.185.345.345,0,0,1,.63.28,14.417,14.417,0,0,1-1.28,2.295A.344.344,0,0,1,2008.611,1333.536Zm2.351-6.25-.041,0a.345.345,0,0,1-.3-.383,13.558,13.558,0,0,0,.094-1.593c0-.3-.01-.607-.031-.908a.345.345,0,1,1,.688-.046c.021.316.032.637.032.954a14.313,14.313,0,0,1-.1,1.675A.345.345,0,0,1,2010.962,1327.286Z" transform="translate(-1991.393 -1318.703)" fill="#91b3fa"/>
            <path id="Trazado_627719" data-name="Trazado 627719" d="M1963.7,1413.893a.344.344,0,0,1-.1-.015c-.447-.135-.894-.294-1.33-.475a.344.344,0,1,1,.263-.637c.415.171.841.323,1.266.452a.345.345,0,0,1-.1.675Z" transform="translate(-1962.053 -1393.567)" fill="#91b3fa"/>
          </g>
          <g id="Grupo_947147" data-name="Grupo 947147" transform="translate(3.494 3.38)">
            <path id="Trazado_627720" data-name="Trazado 627720" d="M1934.516,1282.352a.167.167,0,0,0,.195,0l1.669-1.177a8.9,8.9,0,0,0,2.806.663l.966,1.8a.167.167,0,0,0,.175.086l2.419-.393a.168.168,0,0,0,.139-.137l.348-2.012a8.9,8.9,0,0,0,2.452-1.517l1.956.589a.168.168,0,0,0,.184-.063l1.433-1.988a.167.167,0,0,0,0-.195l-1.177-1.669a8.9,8.9,0,0,0,.663-2.806l1.8-.966a.168.168,0,0,0,.086-.175l-.393-2.419a.168.168,0,0,0-.137-.138l-2.012-.348a8.9,8.9,0,0,0-1.517-2.452l.589-1.956a.168.168,0,0,0-.062-.185l-1.988-1.433a.168.168,0,0,0-.195,0l-1.669,1.177a8.894,8.894,0,0,0-2.806-.663l-.966-1.8a.168.168,0,0,0-.175-.086l-2.419.393a.168.168,0,0,0-.138.137l-.348,2.011a8.9,8.9,0,0,0-2.452,1.517l-1.956-.589a.168.168,0,0,0-.185.063l-1.433,1.988a.168.168,0,0,0,0,.195l1.177,1.669a8.9,8.9,0,0,0-.663,2.806l-1.8.966a.167.167,0,0,0-.086.175l.392,2.419a.168.168,0,0,0,.137.139l2.012.348a8.9,8.9,0,0,0,1.517,2.452l-.589,1.956a.168.168,0,0,0,.063.185Z" transform="translate(-1928.994 -1262.089)" fill="#91b3fa"/>
            <path id="Trazado_627721" data-name="Trazado 627721" d="M1983.746,1319.531a2.693,2.693,0,1,1,1.065-.221h0A2.678,2.678,0,0,1,1983.746,1319.531Zm.86-.7h0Zm-.864-3.656a1.661,1.661,0,1,0,.611.117A1.652,1.652,0,0,0,1983.742,1315.178Z" transform="translate(-1972.924 -1306.019)" fill="#91b3fa"/>
            <path id="Trazado_627722" data-name="Trazado 627722" d="M1963.7,1302.776h-.11c-.073,0-.145,0-.217-.007l.053-1.033a5.418,5.418,0,0,0,1.147-.064,5.361,5.361,0,0,0,3.438-2.069l.075-.1a5.355,5.355,0,0,0,1.02-3.141,5.475,5.475,0,0,0-.071-.878,5.4,5.4,0,0,0-10.723.851,5.473,5.473,0,0,0,.071.878,5.389,5.389,0,0,0,1.2,2.612l-.79.667a6.42,6.42,0,0,1-1.429-3.113,6.532,6.532,0,0,1-.085-1.043,6.431,6.431,0,0,1,12.778-1.017,6.525,6.525,0,0,1,.085,1.043,6.433,6.433,0,0,1-5.4,6.334A6.494,6.494,0,0,1,1963.7,1302.776Z" transform="translate(-1952.861 -1285.572)" fill="#91b3fa"/>
          </g>
        </g>
        <g id="Grupo_947154" data-name="Grupo 947154" transform="translate(17.052 0)">
          <g id="Grupo_947149" data-name="Grupo 947149">
            <path id="Trazado_627723" data-name="Trazado 627723" d="M2034.425,1273.621a.344.344,0,0,1-.295-.165c-.241-.4-.474-.8-.692-1.215a.345.345,0,0,1,.609-.323c.212.4.438.8.672,1.18a.345.345,0,0,1-.115.474A.34.34,0,0,1,2034.425,1273.621Z" transform="translate(-2030.662 -1237.324)" fill="#91b3fa"/>
            <path id="Trazado_627724" data-name="Trazado 627724" d="M2017.244,1082.235a.345.345,0,0,1-.33-.244,24.188,24.188,0,0,1-.6-2.421l-.053-.284a.345.345,0,1,1,.678-.125l.052.276a23.408,23.408,0,0,0,.587,2.351.345.345,0,0,1-.229.43A.338.338,0,0,1,2017.244,1082.235Zm-1.033-7.1h0a.345.345,0,0,1-.342-.348,23.7,23.7,0,0,1,.189-2.78.345.345,0,1,1,.684.087,22.958,22.958,0,0,0-.184,2.7A.345.345,0,0,1,2016.211,1075.13Zm1.171-7.083a.338.338,0,0,1-.108-.017.344.344,0,0,1-.219-.435,23.949,23.949,0,0,1,1.025-2.589.345.345,0,0,1,.625.291,23.294,23.294,0,0,0-1,2.514A.345.345,0,0,1,2017.383,1068.047Zm3.264-6.394a.345.345,0,0,1-.28-.546,24.066,24.066,0,0,1,1.758-2.159.345.345,0,0,1,.508.466,23.307,23.307,0,0,0-1.707,2.1A.344.344,0,0,1,2020.647,1061.654Zm5.039-5.109a.345.345,0,0,1-.206-.621,23.558,23.558,0,0,1,2.328-1.523.344.344,0,1,1,.343.6,23.052,23.052,0,0,0-2.26,1.479A.344.344,0,0,1,2025.686,1056.545Zm6.352-3.336a.345.345,0,0,1-.111-.671,24.152,24.152,0,0,1,2.682-.745.345.345,0,0,1,.146.674,23.534,23.534,0,0,0-2.605.723A.338.338,0,0,1,2032.038,1053.208Zm9.81-1.163-.033,0a22.962,22.962,0,0,0-2.7-.095.35.35,0,0,1-.353-.337.345.345,0,0,1,.336-.353,23.7,23.7,0,0,1,2.783.1.345.345,0,0,1-.032.688Z" transform="translate(-2015.867 -1051.252)" fill="#91b3fa"/>
            <path id="Trazado_627725" data-name="Trazado 627725" d="M2209.922,1058.463a.345.345,0,0,1-.117-.021c-.42-.152-.854-.294-1.29-.422a.345.345,0,1,1,.2-.661c.449.132.9.279,1.329.435a.345.345,0,0,1-.117.669Z" transform="translate(-2178.241 -1056.394)" fill="#91b3fa"/>
          </g>
          <g id="Grupo_947150" data-name="Grupo 947150" transform="translate(14.489 12.965)">
            <path id="Trazado_627726" data-name="Trazado 627726" d="M2301.141,1136.269a.345.345,0,0,1-.317-.209c-.178-.417-.369-.832-.569-1.233a.345.345,0,0,1,.617-.308c.206.413.4.84.586,1.27a.345.345,0,0,1-.317.48Z" transform="translate(-2270.33 -1134.328)" fill="#91b3fa"/>
            <path id="Trazado_627727" data-name="Trazado 627727" d="M2147.379,1198.231h-.01a23.748,23.748,0,0,1-2.729-.236.344.344,0,0,1-.292-.391.341.341,0,0,1,.391-.292,22.993,22.993,0,0,0,2.649.229.345.345,0,0,1-.01.69Zm4.373-.288a.345.345,0,0,1-.054-.685q.39-.063.781-.139c.61-.12,1.222-.265,1.817-.431a.345.345,0,0,1,.186.664c-.613.171-1.242.32-1.87.444q-.4.078-.8.143A.347.347,0,0,1,2151.751,1197.943Zm6.727-2.147a.345.345,0,0,1-.154-.654,23.14,23.14,0,0,0,2.309-1.318.345.345,0,1,1,.376.578,23.771,23.771,0,0,1-2.378,1.358A.344.344,0,0,1,2158.479,1195.8Zm5.775-4.061a.345.345,0,0,1-.239-.593,23.261,23.261,0,0,0,1.81-1.947.345.345,0,0,1,.531.44,23.992,23.992,0,0,1-1.864,2.005A.344.344,0,0,1,2164.254,1191.734Zm4.3-5.6a.345.345,0,0,1-.3-.512,23.206,23.206,0,0,0,1.151-2.4.345.345,0,1,1,.638.262,24.016,24.016,0,0,1-1.185,2.469A.346.346,0,0,1,2168.557,1186.137Zm2.448-6.625a.356.356,0,0,1-.07-.007.345.345,0,0,1-.269-.407,22.919,22.919,0,0,0,.382-2.632.34.34,0,0,1,.373-.314.344.344,0,0,1,.314.373,23.66,23.66,0,0,1-.394,2.712A.344.344,0,0,1,2171,1179.512Zm.35-7.054a.345.345,0,0,1-.343-.31c-.071-.7-.176-1.4-.311-2.094q-.052-.268-.11-.533a.344.344,0,1,1,.673-.148c.041.182.078.365.114.549.139.714.247,1.439.32,2.156a.345.345,0,0,1-.308.378Z" transform="translate(-2138.782 -1163.676)" fill="#91b3fa"/>
            <path id="Trazado_627728" data-name="Trazado 627728" d="M2110.338,1341.208a.345.345,0,0,1-.113-.019c-.435-.151-.875-.318-1.307-.5a.345.345,0,1,1,.263-.637c.42.173.847.335,1.27.482a.345.345,0,0,1-.113.671Z" transform="translate(-2108.705 -1307.926)" fill="#91b3fa"/>
          </g>
          <g id="Grupo_947153" data-name="Grupo 947153" transform="translate(5.617 5.468)">
            <path id="Trazado_627729" data-name="Trazado 627729" d="M2061.1,1120.217a.281.281,0,0,0,.326,0l2.8-1.972a14.9,14.9,0,0,0,4.7,1.111l1.618,3.011a.28.28,0,0,0,.292.144l4.05-.657a.281.281,0,0,0,.232-.23l.582-3.368a14.917,14.917,0,0,0,4.105-2.54l3.275.986a.281.281,0,0,0,.309-.1l2.4-3.329a.281.281,0,0,0,0-.326l-1.971-2.8a14.907,14.907,0,0,0,1.111-4.7l3.011-1.618a.281.281,0,0,0,.145-.292l-.657-4.05a.281.281,0,0,0-.23-.232l-3.368-.582a14.9,14.9,0,0,0-2.54-4.106l.986-3.275a.281.281,0,0,0-.1-.309l-3.328-2.4a.281.281,0,0,0-.326,0l-2.8,1.972a14.894,14.894,0,0,0-4.7-1.111l-1.618-3.011a.281.281,0,0,0-.293-.145l-4.05.657a.281.281,0,0,0-.232.23l-.582,3.368a14.891,14.891,0,0,0-4.105,2.539l-3.275-.986a.28.28,0,0,0-.309.1l-2.4,3.329a.281.281,0,0,0,0,.326l1.971,2.8a14.9,14.9,0,0,0-1.11,4.7l-3.012,1.618a.281.281,0,0,0-.144.293l.657,4.05a.281.281,0,0,0,.23.232l3.368.582a14.9,14.9,0,0,0,2.54,4.105l-.986,3.275a.281.281,0,0,0,.1.309Z" transform="translate(-2051.858 -1086.289)" fill="#b0c0d2"/>
            <g id="Grupo_947151" data-name="Grupo 947151" transform="translate(13.952 13.954)">
              <path id="Trazado_627730" data-name="Trazado 627730" d="M2145.417,1184.024a4.17,4.17,0,1,1,1.65-.344h0A4.154,4.154,0,0,1,2145.417,1184.024Zm-.005-7.288a3.126,3.126,0,1,0,1.245,6h0a3.126,3.126,0,0,0-1.246-6Z" transform="translate(-2141.254 -1175.702)" fill="#bdd0fb"/>
            </g>
            <g id="Grupo_947152" data-name="Grupo 947152" transform="translate(7.739 7.62)">
              <path id="Trazado_627731" data-name="Trazado 627731" d="M2111.855,1155.951l-.191,0q-.149,0-.3-.01l-.04,0h0l.053-1.033a9.541,9.541,0,0,0,2-.11h0a9.4,9.4,0,0,0,7.846-10.049q-.03-.357-.088-.716a9.384,9.384,0,0,0-18.646,1.5,9.4,9.4,0,0,0,2.206,6.049l-.79.667a10.4,10.4,0,0,1-2.315-5.043,10.529,10.529,0,0,1-.137-1.691,10.418,10.418,0,0,1,20.7-1.648,10.409,10.409,0,0,1-8.614,11.952h0A10.507,10.507,0,0,1,2111.855,1155.951Z" transform="translate(-2101.449 -1135.112)" fill="#bdd0fb"/>
            </g>
          </g>
        </g>
      </g>
      <g id="Grupo_947163" data-name="Grupo 947163" transform="translate(373.585 233)">
        <g id="Grupo_947161" data-name="Grupo 947161" transform="translate(0 0)">
          <g id="Grupo_947160" data-name="Grupo 947160" transform="translate(66.903 117.552)">
            <g id="Grupo_947156" data-name="Grupo 947156" transform="translate(31.477 30.528)">
              <path id="Trazado_627732" data-name="Trazado 627732" d="M1166.727,1278.02l-11.606-11.507-3.774,4,15.38,10.292Z" transform="translate(-1151.347 -1266.513)" fill="#b0c0d2"/>
              <path id="Trazado_627733" data-name="Trazado 627733" d="M1294.071,1278.02l11.958-11.507,3.6,4-15.556,10.292Z" transform="translate(-1271.797 -1266.513)" fill="#b0c0d2"/>
            </g>
            <g id="Grupo_947159" data-name="Grupo 947159" transform="translate(0 16.373)">
              <g id="Grupo_947157" data-name="Grupo 947157">
                <path id="Trazado_627734" data-name="Trazado 627734" d="M1011.581,1182.8l-38.754,38.346h-7.358l46.113-45.333Z" transform="translate(-963.001 -1175.814)" fill="#b0c0d2"/>
                <path id="Trazado_627735" data-name="Trazado 627735" d="M961.341,1464.665l-.041-.243a1.45,1.45,0,0,0-1.27-1.2l-7.268-.806a2.833,2.833,0,0,0-3.066,2.149,1.554,1.554,0,0,0,.27,1.286,1.5,1.5,0,0,0,1.14.6h8.8a1.5,1.5,0,0,0,1.108-.562A1.558,1.558,0,0,0,961.341,1464.665Z" transform="translate(-949.655 -1417.673)" fill="#b0c0d2"/>
              </g>
              <g id="Grupo_947158" data-name="Grupo 947158" transform="translate(52.717)">
                <path id="Trazado_627736" data-name="Trazado 627736" d="M1287.445,1182.8l38.949,38.346h7.358l-46.307-45.333Z" transform="translate(-1287.445 -1175.814)" fill="#b0c0d2"/>
                <path id="Trazado_627737" data-name="Trazado 627737" d="M1524.988,1464.665l.041-.243a1.451,1.451,0,0,1,1.271-1.2l7.267-.806a2.833,2.833,0,0,1,3.066,2.149,1.554,1.554,0,0,1-.27,1.286,1.5,1.5,0,0,1-1.14.6h-8.8a1.5,1.5,0,0,1-1.108-.562A1.558,1.558,0,0,1,1524.988,1464.665Z" transform="translate(-1487.898 -1417.673)" fill="#b0c0d2"/>
              </g>
            </g>
            <path id="Trazado_627738" data-name="Trazado 627738" d="M1249.894,1070.9v44.9c0,.8,1.166,1.289,1.967,1.289h3.537a1.27,1.27,0,0,0,1.39-1.289v-44.9Z" transform="translate(-1203.037 -1070.904)" fill="#b0c0d2"/>
          </g>
          <rect id="Rectángulo_341856" data-name="Rectángulo 341856" width="222.693" height="115.483" transform="translate(6.205 6.55)" fill="#727997"/>
          <path id="Trazado_627997" data-name="Trazado 627997" d="M0,0H218.9V112.381H0Z" transform="translate(7.929 6.55)" fill="#727997"/>
          <path id="Trazado_627739" data-name="Trazado 627739" d="M753.214,317.684H524.027a2.929,2.929,0,0,0-3.055,2.71v3.4A3.03,3.03,0,0,0,524,326.628l229.055-2.16a2.725,2.725,0,0,0,2.676-2.834v-1.24A2.475,2.475,0,0,0,753.214,317.684Z" transform="translate(-520.972 -317.684)" fill="#12263f"/>
          <path id="Trazado_627740" data-name="Trazado 627740" d="M753.214,1070.9H524.027a3.081,3.081,0,0,0-3.055,2.893v3.4a3.03,3.03,0,0,0,3.027,2.834l229.055-2.16a2.725,2.725,0,0,0,2.676-2.835v-1.24A2.631,2.631,0,0,0,753.214,1070.9Z" transform="translate(-520.972 -953.352)" fill="#12263f"/>
        </g>
        <g id="Grupo_947162" data-name="Grupo 947162" transform="translate(11.187 11.851)" opacity="0.33">
          <path id="Trazado_627741" data-name="Trazado 627741" d="M800.054,394.811,596.13,393.622a3.5,3.5,0,0,0-2.405.934,3.34,3.34,0,0,0-1.07,2.277v97.19a3.43,3.43,0,0,0,3.438,3.231H800a3.291,3.291,0,0,0,3.284-3.231v-96A3.242,3.242,0,0,0,800.054,394.811Z" transform="translate(-592.655 -393.622)" fill="#7d97f4"/>
        </g>
      </g>
      <g id="Grupo_947172" data-name="Grupo 947172" transform="translate(443.909 250.237)">
        <g id="Grupo_947165" data-name="Grupo 947165" transform="translate(34.732 46.193)">
          <path id="Trazado_627742" data-name="Trazado 627742" d="M1209.956,728.531v21.023c-.689-.409-1.96-1.365-1.96-1.365-7.648-5.426-10.875,3.726-8.979,9.936s7.258,1.438,9.089.784a5.2,5.2,0,0,1,1.851-.284v16.443h46.538V728.531Z" transform="translate(-1197.805 -727.842)" fill="#d2e1f1"/>
          <g id="Grupo_947164" data-name="Grupo 947164">
            <path id="Trazado_627743" data-name="Trazado 627743" d="M1252.816,772.031h-46.538a.69.69,0,0,1-.689-.69V755.617a4.455,4.455,0,0,0-.929.214,10.236,10.236,0,0,0-1.256.658c-1.705.977-4.041,2.315-6.1,1.5a4.854,4.854,0,0,1-2.621-3.39c-1.172-3.841-.54-9.357,2.527-11.57,1.421-1.026,3.878-1.708,7.51.87.016.011.412.31.872.637V724.8a.689.689,0,0,1,.689-.689h46.538a.69.69,0,0,1,.69.689v46.538A.69.69,0,0,1,1252.816,772.031Zm-45.849-1.379h45.159V725.493h-45.159v20.334a.69.69,0,0,1-1.041.593c-.714-.423-1.97-1.368-2.024-1.408-1.622-1.15-3.976-2.245-5.89-.865-2.258,1.629-3.181,6.231-2.015,10.049a3.594,3.594,0,0,0,1.81,2.51c1.445.572,3.447-.576,4.91-1.413a10.521,10.521,0,0,1,1.478-.76,5.838,5.838,0,0,1,2.134-.322.689.689,0,0,1,.638.687Z" transform="translate(-1194.127 -724.114)" fill="#bdd0fb"/>
          </g>
        </g>
        <g id="Grupo_947167" data-name="Grupo 947167" transform="translate(46.193 0)">
          <path id="Trazado_627744" data-name="Trazado 627744" d="M1318.521,478.738V432.545h-46.538v46.193h17.172a6.541,6.541,0,0,1-1.224,1.8c-5.426,7.648,3.726,10.944,9.937,9.048s1.438-7.362.784-9.192a5.887,5.887,0,0,1-.289-1.653Z" transform="translate(-1271.293 -431.855)" fill="#6aceae"/>
          <g id="Grupo_947166" data-name="Grupo 947166">
            <path id="Trazado_627745" data-name="Trazado 627745" d="M1290.5,487.059c-3.048,0-6.175-.966-7.719-3.106-1.033-1.432-1.723-3.9.861-7.545a.707.707,0,0,1,.077-.091,5.656,5.656,0,0,0,.513-.618h-15.976a.69.69,0,0,1-.689-.69V428.816a.69.69,0,0,1,.689-.69h46.538a.69.69,0,0,1,.69.69V475.01a.69.69,0,0,1-.69.69h-19.4a4.319,4.319,0,0,0,.179.732,10.475,10.475,0,0,0,.649,1.25c.93,1.64,2.335,4.119,1.5,6.211a4.853,4.853,0,0,1-3.382,2.622A13.351,13.351,0,0,1,1290.5,487.059Zm-5.764-9.81c-1.154,1.641-2.219,3.981-.837,5.9,1.639,2.271,6.237,3.211,10.04,2.049a3.592,3.592,0,0,0,2.5-1.813c.589-1.478-.572-3.525-1.42-5.02a10.744,10.744,0,0,1-.748-1.467,6.585,6.585,0,0,1-.33-1.873.69.69,0,0,1,.689-.7H1314.1V429.506h-45.159V474.32h16.482a.689.689,0,0,1,.632.966A7.261,7.261,0,0,1,1284.734,477.249Z" transform="translate(-1267.565 -428.127)" fill="#bdd0fb"/>
          </g>
        </g>
        <g id="Grupo_947169" data-name="Grupo 947169" transform="translate(0 0)">
          <path id="Trazado_627746" data-name="Trazado 627746" d="M1033.274,450.082c-1.9-6.21-7.405-1.438-9.236-.785a6.04,6.04,0,0,1-1.849.288V432.545H976v46.193h46.193V458.72a8.167,8.167,0,0,1,1.98,1.3C1031.817,465.444,1035.17,456.292,1033.274,450.082Z" transform="translate(-975.306 -431.855)" fill="#d2e1f1"/>
          <g id="Grupo_947168" data-name="Grupo 947168">
            <path id="Trazado_627747" data-name="Trazado 627747" d="M1018.461,475.7H972.267a.69.69,0,0,1-.689-.69V428.816a.69.69,0,0,1,.689-.69h46.193a.689.689,0,0,1,.689.69v16.307a4.615,4.615,0,0,0,.928-.2,10.552,10.552,0,0,0,1.248-.645c1.653-.933,4.151-2.345,6.257-1.5a4.853,4.853,0,0,1,2.623,3.379h0c1.165,3.817.506,9.319-2.589,11.553-1.441,1.04-3.925,1.736-7.575-.853a.709.709,0,0,1-.065-.052,8.321,8.321,0,0,0-.826-.638V475.01A.689.689,0,0,1,1018.461,475.7Zm-45.5-1.379h44.814V454.991a.689.689,0,0,1,.958-.635,8.779,8.779,0,0,1,2.142,1.394c1.646,1.16,4,2.235,5.938.838,2.283-1.647,3.234-6.242,2.077-10.032h0a3.59,3.59,0,0,0-1.815-2.5c-1.492-.6-3.643.618-5.067,1.422a10.859,10.859,0,0,1-1.462.743,6.761,6.761,0,0,1-2.1.328.689.689,0,0,1-.671-.689V429.506H972.957Z" transform="translate(-971.578 -428.127)" fill="#bdd0fb"/>
          </g>
        </g>
        <g id="Grupo_947171" data-name="Grupo 947171" transform="translate(0 35.337)">
          <path id="Trazado_627748" data-name="Trazado 627748" d="M1011.292,699.379c1.895,6.209,7.235,1.44,9.067.785a5.02,5.02,0,0,1,1.83-.283v16.441H976V669.784h16.823c-.074,0-.165-.433-.29-.684-.855-1.745-6.2-6.578-.243-9.155s15.418-.4,10.884,7.808c0,0-.769,1.341-1.094,2.031h20.114v21.024c-.689-.408-1.96-1.365-1.96-1.365C1012.581,684.016,1009.394,693.17,1011.292,699.379Z" transform="translate(-975.306 -658.239)" fill="#6aceae"/>
          <g id="Grupo_947170" data-name="Grupo 947170">
            <path id="Trazado_627749" data-name="Trazado 627749" d="M1018.461,713.324H972.267a.69.69,0,0,1-.689-.69V666.1a.689.689,0,0,1,.689-.689H988c-.161-.249-.381-.55-.61-.864-1.1-1.507-2.765-3.784-2.179-5.936a4.85,4.85,0,0,1,3.072-2.983c3.686-1.6,9.239-1.586,11.784,1.216,1.178,1.3,2.131,3.662-.022,7.558-.007.013-.279.488-.563,1.008h18.979a.689.689,0,0,1,.689.689v21.025a.689.689,0,0,1-1.04.593c-.714-.422-1.97-1.367-2.023-1.408-1.62-1.15-3.969-2.245-5.87-.872-2.25,1.624-3.163,6.228-1.993,10.054h0a3.6,3.6,0,0,0,1.808,2.511c1.438.566,3.431-.576,4.887-1.413a10.49,10.49,0,0,1,1.48-.762,5.713,5.713,0,0,1,2.117-.321.69.69,0,0,1,.635.688v16.441A.689.689,0,0,1,1018.461,713.324Zm-45.5-1.379h44.814V696.912a4.388,4.388,0,0,0-.908.212,10.179,10.179,0,0,0-1.258.66c-1.7.976-4.025,2.312-6.081,1.5a4.85,4.85,0,0,1-2.62-3.391c-1.176-3.849-.553-9.368,2.505-11.576,1.415-1.02,3.863-1.7,7.491.877.016.012.412.31.871.637V666.786H998.347a.689.689,0,0,1-.624-.984c.333-.706,1.088-2.024,1.12-2.079.965-1.748,1.79-4.208.2-5.955-1.874-2.063-6.552-2.464-10.215-.878a3.59,3.59,0,0,0-2.289,2.079c-.412,1.512.96,3.39,1.962,4.76a10.606,10.606,0,0,1,.916,1.38,3.584,3.584,0,0,1,.177.456c.012.037.024.072.034.1a.69.69,0,0,1-.541,1.117H972.957Zm16.14-46.538h0Zm0,0h0Zm0,0h0Zm0,0h0Z" transform="translate(-971.578 -654.55)" fill="#bdd0fb"/>
          </g>
        </g>
      </g>
      <g id="Grupo_947173" data-name="Grupo 947173" transform="translate(461.484 265.067)" opacity="0.8">
        <path id="Trazado_627750" data-name="Trazado 627750" d="M1091.078,526.437a2.345,2.345,0,0,0-2.5-1.555,2.913,2.913,0,0,0-2.218.926,1.6,1.6,0,0,0-.3,1.135c.087,1.258,1.467,1.415,2.777,1.537,1.677.21,3.755.646,4.227,2.6a4.35,4.35,0,0,1,.087.8c0,2.358-2.34,3.72-4.541,3.72-1.886,0-4.174-1.118-4.4-3.3l-.017-.332,1.782-.035.017.262v-.07c.122,1.135,1.5,1.729,2.638,1.729,1.31,0,2.742-.733,2.742-1.991a1.951,1.951,0,0,0-.052-.419c-.21-.926-1.467-1.083-2.69-1.2-1.9-.192-4.14-.612-4.332-3.162v.018a3.307,3.307,0,0,1,.664-2.323,4.713,4.713,0,0,1,3.7-1.624c1.886,0,3.843.978,4.157,3.214Z" transform="translate(-1084.196 -523.153)" fill="#fff"/>
      </g>
      <g id="Grupo_947175" data-name="Grupo 947175" transform="translate(508.835 263.728)">
        <g id="Grupo_947174" data-name="Grupo 947174">
          <path id="Trazado_627751" data-name="Trazado 627751" d="M1395.059,520.965c-.7,1.991-1.45,4.07-2.079,5.921h-1.31l-4.07-12.314h1.834l2.917,8.821,2.009-5.712h1.415l1.991,5.694c.961-2.917,2.026-6.026,2.934-8.8h1.851l-4.07,12.314h-1.31Z" transform="translate(-1387.601 -514.572)" fill="#bdd0fb"/>
        </g>
      </g>
      <g id="Grupo_947177" data-name="Grupo 947177" transform="translate(459.738 314.442)">
        <g id="Grupo_947176" data-name="Grupo 947176" transform="translate(0 0)">
          <path id="Trazado_627752" data-name="Trazado 627752" d="M1074.821,841.38a6.179,6.179,0,0,1,8.821,0,6.283,6.283,0,0,1,0,8.838,6.179,6.179,0,0,1-8.821,0,6.283,6.283,0,0,1,0-8.838Zm7.563,1.258a4.5,4.5,0,0,0-3.161-1.327,4.385,4.385,0,0,0-3.126,1.327,4.47,4.47,0,0,0,0,6.323,4.385,4.385,0,0,0,3.126,1.327,4.5,4.5,0,0,0,3.161-7.651Z" transform="translate(-1073.004 -839.529)" fill="#bdd0fb"/>
        </g>
      </g>
      <g id="Grupo_947178" data-name="Grupo 947178" transform="translate(509.39 315.814)" opacity="0.84">
        <path id="Trazado_627753" data-name="Trazado 627753" d="M1394.86,860.594V850.1h-3.7v-1.782h9.152V850.1h-3.686v10.5Z" transform="translate(-1391.157 -848.315)" fill="#fff"/>
      </g>
      <g id="Grupo_947179" data-name="Grupo 947179" transform="translate(404.397 307.204)">
        <path id="Trazado_627754" data-name="Trazado 627754" d="M738.885,817.309l-5.9-2.548a1.518,1.518,0,0,0-1.409.108l-5.443,3.415a1.518,1.518,0,0,1-2.318-1.428l.6-6.4a1.518,1.518,0,0,0-.538-1.307l-4.929-4.121a1.518,1.518,0,0,1,.642-2.646l6.269-1.406a1.518,1.518,0,0,0,1.077-.915l2.4-5.962a1.518,1.518,0,0,1,2.715-.207l3.274,5.528a1.518,1.518,0,0,0,1.2.741l6.41.437a1.518,1.518,0,0,1,1.036,2.518l-4.246,4.822a1.518,1.518,0,0,0-.333,1.373l1.565,6.232A1.518,1.518,0,0,1,738.885,817.309Z" transform="translate(-718.405 -793.15)" fill="#b0c0d2"/>
        <path id="Trazado_627755" data-name="Trazado 627755" d="M740.525,824.177a2.971,2.971,0,0,0-.648-.759l-3.219-2.692a1.15,1.15,0,0,1,.486-2l4.095-.918a2.986,2.986,0,0,0,2.117-1.8l1.565-3.893a1.15,1.15,0,0,1,2.057-.157l1.093,1.845-.281.166-1.093-1.845a.824.824,0,0,0-1.473.113l-1.565,3.894a3.313,3.313,0,0,1-2.349,2l-4.094.918a.824.824,0,0,0-.348,1.436l3.219,2.691a3.307,3.307,0,0,1,.719.842Z" transform="translate(-733.46 -808.542)" fill="#fff" opacity="0.66"/>
        <path id="Trazado_627756" data-name="Trazado 627756" d="M764.9,860.254a1.153,1.153,0,0,1-1.145-1.259l.3-3.2.325.031-.3,3.2a.824.824,0,0,0,1.258.775l3.554-2.23a3.345,3.345,0,0,1,3.074-.235L775.819,859a.824.824,0,0,0,1.126-.957l-1.022-4.07a3.311,3.311,0,0,1,.727-3l2.773-3.15a.823.823,0,0,0-.562-1.366l-4.187-.285a3.3,3.3,0,0,1-1.239-.334l.144-.293a2.967,2.967,0,0,0,1.117.3l4.187.285a1.15,1.15,0,0,1,.785,1.907l-2.773,3.15a2.985,2.985,0,0,0-.655,2.7l1.022,4.07a1.15,1.15,0,0,1-1.571,1.336l-3.852-1.664a3.013,3.013,0,0,0-2.771.212l-3.554,2.23A1.15,1.15,0,0,1,764.9,860.254Z" transform="translate(-756.673 -837.371)" fill="#fff" opacity="0.66"/>
        <rect id="Rectángulo_341858" data-name="Rectángulo 341858" width="0.326" height="1.27" transform="translate(14.329 5.422) rotate(-30.636)" fill="#fff" opacity="0.66"/>
      </g>
      <g id="Grupo_947186" data-name="Grupo 947186" transform="translate(385.569 339.095)">
        <g id="Grupo_947180" data-name="Grupo 947180" transform="translate(17.964 51.193)">
          <rect id="Rectángulo_341859" data-name="Rectángulo 341859" width="1.793" height="19.389" transform="translate(9.52 4.579)" fill="#7d97f4"/>
          <path id="Trazado_627757" data-name="Trazado 627757" d="M727.8,1473.675h15.7v-.661a.506.506,0,0,0-.506-.506H728.311a.506.506,0,0,0-.506.506Z" transform="translate(-725.474 -1449.568)" fill="#7d97f4"/>
          <path id="Trazado_627758" data-name="Trazado 627758" d="M712.871,1329.187a2.349,2.349,0,0,0,2.162,2.162h15.888a2.383,2.383,0,0,0,1.694-2.162v-1.743a1.934,1.934,0,0,0-1.928-1.928H714.8a1.934,1.934,0,0,0-1.928,1.928Z" transform="translate(-712.871 -1325.516)" fill="#7d97f4"/>
        </g>
        <g id="Grupo_947181" data-name="Grupo 947181" transform="translate(15.945 38.968)">
          <path id="Trazado_627759" data-name="Trazado 627759" d="M828.219,1270.515a15.608,15.608,0,0,1,5.66,2.416,1.493,1.493,0,0,1,.659,1.427,63.305,63.305,0,0,1-6.7,21.019,2.261,2.261,0,0,0-.217,1.551l.845,3.932,1.567,1.469H826l-2.687-7.272,1.149-.363a2.174,2.174,0,0,0,1.518-2.035l.135-7.8a8.874,8.874,0,0,1,2.131-5.873l-6.445-.314Z" transform="translate(-802.782 -1266.874)" fill="url(#linear-gradient)"/>
          <path id="Trazado_627760" data-name="Trazado 627760" d="M835.089,1433.683c.368.481-3.956,1.116-6.14.064,0,0-3.028-5.268-3.028-7.98,0,0,.24-.553,2.018-.428,0,0,1.017,6.238,2.09,6.936s3,.071,3,.071A6.322,6.322,0,0,1,835.089,1433.683Z" transform="translate(-806.259 -1397.519)" fill="url(#linear-gradient-2)"/>
          <path id="Trazado_627761" data-name="Trazado 627761" d="M827.027,1284.513c.034-.059,6.939-.83,6.939-.83a15.961,15.961,0,0,0,.48,4.99c.706,2.89,10.844,15.411,10.844,15.411l-1.063,3.37a17.1,17.1,0,0,0,9.7.584l-6.588-3.953s-6.165-21.01-9.942-24.759l-6.921-2.395Z" transform="translate(-807.192 -1272.288)" fill="url(#linear-gradient-3)"/>
          <path id="Trazado_627762" data-name="Trazado 627762" d="M704.283,1247.183s-3.978,5.917-4.3,8.616,1.09,3.8,5.264,3.977,15.318.178,15.318.178l9.511-8.128s-6.931-2.473-8.733-3.172S704.283,1247.183,704.283,1247.183Z" transform="translate(-699.933 -1247.183)" fill="#12263f"/>
          <path id="Trazado_627763" data-name="Trazado 627763" d="M936.355,1465.236a1.946,1.946,0,0,0-.371,2.342s9.066,1.607,11.527.878c0,0-.511-1.167-3.283-2.495l.2.157a.331.331,0,0,1-.219.594C942.388,1466.608,938.608,1466.273,936.355,1465.236Z" transform="translate(-898.919 -1431.205)" fill="url(#linear-gradient-4)"/>
        </g>
        <g id="Grupo_947182" data-name="Grupo 947182" transform="translate(13.359 0)">
          <path id="Trazado_627764" data-name="Trazado 627764" d="M716.774,1126.178a90.787,90.787,0,0,0,6.913-7.333,6.2,6.2,0,0,0,1.049-5.579,77.04,77.04,0,0,0-3.06-7.706c-.259-.867-5.453-.831-5.453-.831S706,1111.364,701.986,1122.6l4.51,1.4a52.709,52.709,0,0,1,5.306-7.324s-4.563,6.028-4.724,8.5Z" transform="translate(-699.08 -1087.993)" fill="#294ddc"/>
          <path id="Trazado_627765" data-name="Trazado 627765" d="M800.606,1075.233c-.054.18-1.41,4.675-1.516,4.768a7.59,7.59,0,0,1-4.323-.675l2.29-4.793Z" transform="translate(-777.381 -1062.51)" fill="url(#linear-gradient-5)"/>
          <path id="Trazado_627766" data-name="Trazado 627766" d="M794.342,1017.738a9.157,9.157,0,0,1,4.112,4.57c1.664,3.537.422,5.17-1.14,5.394a7.307,7.307,0,0,1-6.365-2.095C788.48,1023.323,791.16,1016.513,794.342,1017.738Z" transform="translate(-773.344 -1014.455)" fill="url(#linear-gradient-6)"/>
          <path id="Trazado_627767" data-name="Trazado 627767" d="M774.921,1006.757s-1.846-5.174,2.741-5.236l1.08.755s1.683-2.869-1.08-4.238a5.876,5.876,0,0,0-8.061,3.572c-1.176,3.722-.488,6.126,1.469,7.906s2.762-.238,2.762-.238-1.065-1.666-.632-2.557,1.434.184,1.434.184Z" transform="translate(-755.656 -997.492)" fill="url(#linear-gradient-7)"/>
          <path id="Trazado_627768" data-name="Trazado 627768" d="M789.745,1050.523s-.934-2.666-2.179-1.6,1.012,2.462,1.9,2.916Z" transform="translate(-770.994 -1040.682)" fill="url(#linear-gradient-8)"/>
          <path id="Trazado_627769" data-name="Trazado 627769" d="M720.563,1223.147l-3.4-3.281-4.708,1.989s-4.687.726-7.369,0l-2.682-.726-6.062-1.887-.952,2.691a1.62,1.62,0,0,0,.592,1.861,10.674,10.674,0,0,0,1.531.954c.8.349,19.678-.242,19.678-.242Z" transform="translate(-693.431 -1184.634)" fill="url(#linear-gradient-9)"/>
          <path id="Trazado_627770" data-name="Trazado 627770" d="M697.669,1017.5a1.05,1.05,0,0,0-.627-1.75c-2.689-.419-6.79.009-8.512,5.766-1.94,6.485-3.2,9.728-4.5,10.3a1.054,1.054,0,0,0-.058,1.936,4.474,4.474,0,0,0,2.809.1C696.693,1031.669,694.21,1021.038,697.669,1017.5Z" transform="translate(-683.365 -1012.803)" fill="url(#linear-gradient-10)"/>
        </g>
        <g id="Grupo_947183" data-name="Grupo 947183" transform="translate(26.771 22.133)">
          <path id="Trazado_627771" data-name="Trazado 627771" d="M770.141,1244.5h.045l19.744-.022a.884.884,0,1,0,0-1.767l-19.744.021a.884.884,0,0,0-.043,1.766Z" transform="translate(-769.302 -1226.577)" fill="#12263f"/>
          <path id="Trazado_627772" data-name="Trazado 627772" d="M869.861,1139.308H853.418a3.134,3.134,0,0,0-2.834,1.8l-7.6,16.119h20.434a1.9,1.9,0,0,0,1.771-1.2l5.895-14.916A1.313,1.313,0,0,0,869.861,1139.308Z" transform="translate(-831.483 -1139.308)" fill="#12263f"/>
          <path id="Trazado_627773" data-name="Trazado 627773" d="M940.126,1183.358c-.356,1.107-.093,2.182.588,2.4s1.522-.5,1.879-1.608.093-2.182-.588-2.4S940.482,1182.251,940.126,1183.358Z" transform="translate(-913.332 -1175.093)" fill="#f6f6f6"/>
        </g>
        <g id="Grupo_947185" data-name="Grupo 947185" transform="translate(0 39.871)">
          <g id="Grupo_947184" data-name="Grupo 947184" transform="translate(1.068 1.539)">
            <path id="Trazado_627774" data-name="Trazado 627774" d="M1015.409,1300.38a.708.708,0,0,0,.285-.06.746.746,0,0,0,.378-.972l-15.164-36.068a.717.717,0,0,0-.95-.387.746.746,0,0,0-.378.972l15.164,36.068A.723.723,0,0,0,1015.409,1300.38Z" transform="translate(-937.889 -1262.832)" fill="#b0c0d2"/>
            <path id="Trazado_627775" data-name="Trazado 627775" d="M987.954,1300.379a.723.723,0,0,0,.665-.448l15.164-36.068a.746.746,0,0,0-.379-.972.717.717,0,0,0-.95.387l-15.164,36.068a.746.746,0,0,0,.379.972A.708.708,0,0,0,987.954,1300.379Z" transform="translate(-927.516 -1262.831)" fill="#b0c0d2"/>
            <path id="Trazado_627776" data-name="Trazado 627776" d="M632.785,1300.38a.708.708,0,0,0,.285-.06.747.747,0,0,0,.379-.972l-15.164-36.068a.717.717,0,0,0-.95-.387.746.746,0,0,0-.378.972l15.164,36.068A.723.723,0,0,0,632.785,1300.38Z" transform="translate(-614.979 -1262.832)" fill="#b0c0d2"/>
            <path id="Trazado_627777" data-name="Trazado 627777" d="M605.33,1300.379a.723.723,0,0,0,.665-.448l15.164-36.068a.746.746,0,0,0-.378-.972.717.717,0,0,0-.95.387l-15.164,36.068a.746.746,0,0,0,.379.972A.708.708,0,0,0,605.33,1300.379Z" transform="translate(-604.607 -1262.831)" fill="#b0c0d2"/>
          </g>
          <path id="Trazado_627778" data-name="Trazado 627778" d="M597.778,1253.879a.73.73,0,0,1,.171-.631.838.838,0,0,1,.629-.278h82.391a.954.954,0,0,1,.79.405.832.832,0,0,1,.061.842l-.893,1.811a1.258,1.258,0,0,1-1.135.68h-80.65a.933.933,0,0,1-.929-.719Z" transform="translate(-597.763 -1252.97)" fill="#727997"/>
        </g>
      </g>
      <g id="Grupo_947191" data-name="Grupo 947191" transform="translate(551.809 309.29)">
        <g id="Grupo_947189" data-name="Grupo 947189" transform="translate(0 0)">
          <path id="Trazado_627779" data-name="Trazado 627779" d="M1689.369,826.981l-11.193-19.387a2.156,2.156,0,0,0-3.734,0l-11.193,19.387a2.142,2.142,0,0,0,1.867,3.216H1687.5a2.142,2.142,0,0,0,1.867-3.216Z" transform="translate(-1662.959 -806.516)" fill="#f3c035"/>
          <g id="Grupo_947187" data-name="Grupo 947187" transform="translate(2.405 2.755)" opacity="0.55">
            <path id="Trazado_627780" data-name="Trazado 627780" d="M1685.52,843.37h-6.16a.981.981,0,0,1-.859-1.477l10.231-17.64a.171.171,0,0,1,.236-.061.173.173,0,0,1,.063.236L1678.8,842.07a.633.633,0,0,0,0,.639.64.64,0,0,0,.561.315h6.16a.172.172,0,1,1,0,.345Z" transform="translate(-1678.368 -824.167)" fill="#fff"/>
          </g>
          <g id="Grupo_947188" data-name="Grupo 947188" transform="translate(13.177 8.444)" opacity="0.55">
            <path id="Trazado_627781" data-name="Trazado 627781" d="M1757.23,874.133h-9.667a.172.172,0,0,1,0-.345h9.667a.637.637,0,0,0,.555-.968L1750.6,860.88a.171.171,0,0,1,.059-.236.173.173,0,0,1,.237.059l7.181,11.943a.98.98,0,0,1-.851,1.486Z" transform="translate(-1747.39 -860.62)" fill="#fff"/>
          </g>
        </g>
        <g id="Grupo_947190" data-name="Grupo 947190" transform="translate(12.064 9.547)" opacity="0.86">
          <path id="Trazado_627782" data-name="Trazado 627782" d="M1740.382,874.584h1.313a.208.208,0,0,0,.214-.185l.646-6.459a.231.231,0,0,0-.055-.173.221.221,0,0,0-.16-.077h-1.959c-.119,0-.122.114-.122.233v6.464C1740.26,874.506,1740.263,874.584,1740.382,874.584Z" transform="translate(-1740.26 -867.69)" fill="#fff"/>
          <path id="Trazado_627783" data-name="Trazado 627783" d="M1741.7,916.284h-1.314c-.119,0-.122.115-.122.234v.948c0,.119,0,.2.122.2h1.413a.208.208,0,0,0,.16-.062.206.206,0,0,0,.054-.162l-.1-.955A.222.222,0,0,0,1741.7,916.284Z" transform="translate(-1740.26 -908.7)" fill="#fff"/>
        </g>
      </g>
      <g id="Grupo_947194" data-name="Grupo 947194" transform="translate(554.484 312.761)">
        <path id="Trazado_627784" data-name="Trazado 627784" d="M2003.709,1099.874a15.869,15.869,0,0,0,3.692,2.7,30.664,30.664,0,0,1-6.748,6l-.835,1.873-2.674-3.205A14.518,14.518,0,0,0,2003.709,1099.874Z" transform="translate(-1947.664 -1057.562)" fill="url(#linear-gradient-11)"/>
        <path id="Trazado_627785" data-name="Trazado 627785" d="M1947.505,1458.322a.672.672,0,0,1,.018-.174c.866-3.434,5.165-5.573,5.165-5.573l1.7.133a11.81,11.81,0,0,1,.7,5.71c0,.023-.011.045-.017.068A40.441,40.441,0,0,1,1947.505,1458.322Z" transform="translate(-1905.772 -1355.218)" fill="url(#linear-gradient-12)"/>
        <path id="Trazado_627786" data-name="Trazado 627786" d="M1955.071,1489.562a.738.738,0,0,1-.541.546,23.37,23.37,0,0,1-6.51-.092.62.62,0,0,1-.514-.618A40.43,40.43,0,0,0,1955.071,1489.562Z" transform="translate(-1905.773 -1386.295)" fill="url(#linear-gradient-13)"/>
        <path id="Trazado_627787" data-name="Trazado 627787" d="M1980.337,1437.172l-.721,3.473a.568.568,0,0,1-.486.467,4.8,4.8,0,0,1-1.118-.018.714.714,0,0,1-.565-.839l.5-3.084Z" transform="translate(-1931.033 -1342.219)" fill="url(#linear-gradient-14)"/>
        <path id="Trazado_627788" data-name="Trazado 627788" d="M1858.264,1487.632a10.17,10.17,0,0,0,3.358-.48c0,.187,0,.378-.006.575a.371.371,0,0,1-.355.378l-10.331-.067a.472.472,0,0,1-.379-.687C1851.906,1487.463,1855.356,1487.713,1858.264,1487.632Z" transform="translate(-1823.909 -1384.399)" fill="url(#linear-gradient-15)"/>
        <path id="Trazado_627789" data-name="Trazado 627789" d="M1850.81,1461.056a.5.5,0,0,1,.041-.078,13.167,13.167,0,0,1,7.828-4.914l2.2-.07a10.57,10.57,0,0,1,1,4.863,10.17,10.17,0,0,1-3.358.48C1855.614,1461.418,1852.164,1461.168,1850.81,1461.056Z" transform="translate(-1824.168 -1358.104)" fill="url(#linear-gradient-16)"/>
        <path id="Trazado_627790" data-name="Trazado 627790" d="M1902.524,1431.716c-.024.164-.326,2.66-.443,3.627a.479.479,0,0,1-.4.433,5.047,5.047,0,0,1-1.513-.023.651.651,0,0,1-.494-.654v-3.917Z" transform="translate(-1865.402 -1337.164)" fill="url(#linear-gradient-17)"/>
        <path id="Trazado_627791" data-name="Trazado 627791" d="M1901.066,1142.8a196.123,196.123,0,0,0-5.217,45.6.984.984,0,0,0,.781.958,11.454,11.454,0,0,0,2.463.285.913.913,0,0,0,.87-.762c.745-4.369,5.02-28.979,7.456-32.975,0,0,1.6,21.919,1.09,33.291a.539.539,0,0,0,.476.56,9.05,9.05,0,0,0,1.977-.005.721.721,0,0,0,.642-.612c.531-3.7,3.585-25.7,3.455-41.558-.007-.894-2.364-4.781-2.364-4.781Z" transform="translate(-1862.177 -1093.787)" fill="#294ddc"/>
        <path id="Trazado_627792" data-name="Trazado 627792" d="M1881.938,947.576a22.092,22.092,0,0,0,2.25-3.433c.883-1.667.071,1.079.312-.8,6.609-4.769,16.56-2.355,20.409-1.87a5.14,5.14,0,0,1,3.248,1.744c3.3,3.817,10.536,14.268,2.017,24.8a15.869,15.869,0,0,1-3.692-2.7c.942-2.657,1.02-6.052-.956-10.216a9.671,9.671,0,0,1-.252.978,60.588,60.588,0,0,0-2.862,17.457.546.546,0,0,1-.343.51c-3.583,1.436-10.48.581-12.8.236a.779.779,0,0,1-.652-.884c1.136-8.232-4.7-21.775-6.236-25.167A2.261,2.261,0,0,0,1881.938,947.576Z" transform="translate(-1850.438 -923.001)" fill="#0f1e52"/>
        <path id="Trazado_627793" data-name="Trazado 627793" d="M1956.1,901.6l.69,7.055s-3.969,1.2-6.856-.841l2.03-6.412Z" transform="translate(-1907.825 -890.068)" fill="url(#linear-gradient-18)"/>
        <g id="Grupo_947192" data-name="Grupo 947192" transform="translate(38.401 0)">
          <path id="Trazado_627794" data-name="Trazado 627794" d="M1938.132,849.544c-.1.09-4.032,7.819-4.032,7.819l4.461,2.154,4.819-6.772S1939.731,848.038,1938.132,849.544Z" transform="translate(-1932.861 -846.049)" fill="url(#linear-gradient-19)"/>
          <path id="Trazado_627795" data-name="Trazado 627795" d="M1934.7,835.64a.714.714,0,0,1-.054.625l-2.225,3.709a.7.7,0,0,1-.122.152,1.168,1.168,0,0,1-1.872-.013,6.277,6.277,0,0,0-1.758-1.9.711.711,0,0,0-.96.316,26.579,26.579,0,0,0-1.523,3.612.708.708,0,0,0,.412.869,19.736,19.736,0,0,0,4.273,1.246.711.711,0,0,0,.673-.286c.681-.934,2.6-3.543,3.258-4.2.609-.607,1.733-.378,2.24-.232a.716.716,0,0,0,.569-.075,1.568,1.568,0,0,0,.59-2.386.712.712,0,0,1,.22-.967,1.574,1.574,0,0,0,.6-2.233,2.22,2.22,0,0,0-2.4-1.177.739.739,0,0,1-.775-.431.471.471,0,0,0-.367-.289.691.691,0,0,1-.559-.811,1.823,1.823,0,0,0-1.018-2.088c-1.925-1.058-3.611.666-4.04,2.122s1.723,2.484,3.077,2.656C1933.94,833.987,1934.485,835.073,1934.7,835.64Z" transform="translate(-1926.159 -828.756)" fill="url(#linear-gradient-20)"/>
          <path id="Trazado_627796" data-name="Trazado 627796" d="M1976.226,895.018s.856-2.5,1.951-2.412,1.958,1.183.6,2.41C1977.089,896.542,1976.226,895.018,1976.226,895.018Z" transform="translate(-1968.412 -882.639)" fill="url(#linear-gradient-21)"/>
        </g>
        <path id="Trazado_627797" data-name="Trazado 627797" d="M2033.366,982.844a22.3,22.3,0,0,0,.915-8.772l-.4.045a21.875,21.875,0,0,1-.893,8.589Z" transform="translate(-1977.916 -951.393)" fill="#f6f6f6"/>
        <path id="Trazado_627798" data-name="Trazado 627798" d="M1970.149,1201.247a.2.2,0,0,0,.193-.15c.441-1.7,3.74-3.567,3.773-3.585a.2.2,0,0,0-.2-.349c-.142.08-3.481,1.97-3.965,3.834a.2.2,0,0,0,.194.251Z" transform="translate(-1924.713 -1139.645)" fill="url(#linear-gradient-22)"/>
        <g id="Grupo_947193" data-name="Grupo 947193" transform="translate(7.467 17.952)">
          <path id="Trazado_627799" data-name="Trazado 627799" d="M1790.505,952.628c7.474,1.121,12.346-3.595,15.976-6.455,4.793-3.777,8.522-1.94,8.522-1.94l-5.111,9.755c-7.633,7.2-15.459,5.6-20.393,3.266A9.517,9.517,0,0,1,1790.505,952.628Z" transform="translate(-1779.887 -943.786)" fill="#0f1e52"/>
          <path id="Trazado_627800" data-name="Trazado 627800" d="M1728.06,971.869l2.479,1.334a21.693,21.693,0,0,0,8.027,3.125,9.517,9.517,0,0,0-1.005,4.626,22.882,22.882,0,0,1-5.11-3.266C1726.834,974.34,1728.06,971.869,1728.06,971.869Z" transform="translate(-1727.947 -967.486)" fill="url(#linear-gradient-23)"/>
        </g>
        <path id="Trazado_627801" data-name="Trazado 627801" d="M1680.377,961.859a1.828,1.828,0,0,1,1.069-1.17l5.03-2.023s.076-.645-1.063-1.084a1.513,1.513,0,0,1-.873-1.714s1.556.71,3.833,1.835a5.331,5.331,0,0,1,2.421,2.636l-1.295,1.7a23.017,23.017,0,0,1-9.4.74Z" transform="translate(-1680.099 -936.031)" fill="url(#linear-gradient-24)"/>
      </g>
      <g id="Grupo_947196" data-name="Grupo 947196" transform="translate(404.266 264.026)">
        <path id="Trazado_627802" data-name="Trazado 627802" d="M744.221,555.889l-3.095,6.536a.453.453,0,0,1-.792.046l-1.052-1.681L732.8,566.2a2.291,2.291,0,0,1-3.367-.478l-2.77-4.107a.223.223,0,0,0-.31-.059l-7.422,5.071a.452.452,0,0,1-.629-.118l-.656-.961a.452.452,0,0,1,.118-.629l7.423-5.071a2.291,2.291,0,0,1,3.191.611l2.77,4.107a.224.224,0,0,0,.153.1.219.219,0,0,0,.174-.049l6.7-5.593-.71-1.134a.452.452,0,0,1,.243-.67l5.963-1.951a.452.452,0,0,1,.55.624Z" transform="translate(-717.565 -549.194)" fill="#fff"/>
        <g id="Grupo_947195" data-name="Grupo 947195" transform="translate(2.412 0)">
          <path id="Trazado_627803" data-name="Trazado 627803" d="M734.4,517.13v10.6l-1.379.941V517.13c0-.348.189-.649.537-.649h.117A.733.733,0,0,1,734.4,517.13Z" transform="translate(-733.022 -516.481)" fill="#fff"/>
          <path id="Trazado_627804" data-name="Trazado 627804" d="M733.039,632.277l1.362-.931v1.8a.7.7,0,0,1-.725.613h-.117a.542.542,0,0,1-.537-.613v-.858S733.032,632.28,733.039,632.277Z" transform="translate(-733.022 -613.419)" fill="#fff"/>
          <path id="Trazado_627805" data-name="Trazado 627805" d="M767.534,517.13v7.884a2.942,2.942,0,0,0-1.379.262V517.13c0-.348.189-.649.537-.649h.117A.733.733,0,0,1,767.534,517.13Z" transform="translate(-760.984 -516.481)" fill="#fff"/>
          <path id="Trazado_627806" data-name="Trazado 627806" d="M767.179,610.3l.355.528v4.557a.7.7,0,0,1-.725.613h-.117a.542.542,0,0,1-.537-.613V611Z" transform="translate(-760.984 -595.655)" fill="#fff"/>
          <path id="Trazado_627807" data-name="Trazado 627807" d="M800.667,517.13V529.45l-1.379-2.041V517.13c0-.348.189-.649.537-.649h.117A.733.733,0,0,1,800.667,517.13Z" transform="translate(-788.946 -516.481)" fill="#fff"/>
          <path id="Trazado_627808" data-name="Trazado 627808" d="M800.344,639.059c.093,0-.022,0,.323-.01v.472a.7.7,0,0,1-.725.613h-.117a.542.542,0,0,1-.537-.613V638.9c0,.052.332.09.518.117A3.54,3.54,0,0,0,800.344,639.059Z" transform="translate(-788.946 -619.795)" fill="#fff"/>
          <path id="Trazado_627809" data-name="Trazado 627809" d="M833.8,517.13v5.916a1.533,1.533,0,0,0-1.019,1.148,2.173,2.173,0,0,0,.141,1.751l-.5.438V517.13c0-.348.189-.649.537-.649h.117A.733.733,0,0,1,833.8,517.13Z" transform="translate(-816.907 -516.481)" fill="#fff"/>
          <path id="Trazado_627810" data-name="Trazado 627810" d="M832.42,619.712l1.379-1.155v3.8a.7.7,0,0,1-.724.613h-.117a.542.542,0,0,1-.537-.613Z" transform="translate(-816.907 -602.626)" fill="#fff"/>
          <path id="Trazado_627811" data-name="Trazado 627811" d="M866.932,517.13V521.3l-1.379.452V517.13c0-.348.189-.649.537-.649h.117A.733.733,0,0,1,866.932,517.13Z" transform="translate(-844.869 -516.481)" fill="#fff"/>
          <path id="Trazado_627812" data-name="Trazado 627812" d="M865.785,611.886a2.429,2.429,0,0,0,1.147-.353v4.892a.7.7,0,0,1-.725.613h-.117a.542.542,0,0,1-.537-.613v-4.53s.006-.028.058-.028h.076Z" transform="translate(-844.869 -596.699)" fill="#fff"/>
        </g>
      </g>
      <g id="Grupo_947198" data-name="Grupo 947198" transform="translate(550.447 264.37)">
        <g id="Grupo_947197" data-name="Grupo 947197" transform="translate(1.706 0)">
          <path id="Trazado_627813" data-name="Trazado 627813" d="M1666.538,519.339v4.53l-.655-.448c-.221-.152-.724-.259-.724-.321v-3.761c0-.348.189-.649.537-.649h.117A.733.733,0,0,1,1666.538,519.339Z" transform="translate(-1665.159 -518.69)" fill="#bdd0fb"/>
          <path id="Trazado_627814" data-name="Trazado 627814" d="M1665.159,588.627l1.379.941v7.87a.7.7,0,0,1-.725.613h-.117a.542.542,0,0,1-.537-.613Z" transform="translate(-1665.159 -577.712)" fill="#bdd0fb"/>
          <path id="Trazado_627815" data-name="Trazado 627815" d="M1699.671,519.339v8.06l-1.379-.941v-7.119c0-.348.189-.649.537-.649h.117A.733.733,0,0,1,1699.671,519.339Z" transform="translate(-1693.121 -518.69)" fill="#bdd0fb"/>
          <path id="Trazado_627816" data-name="Trazado 627816" d="M1698.292,611.223a2.512,2.512,0,0,0,1.379.541v4.743a.7.7,0,0,1-.724.613h-.117a.542.542,0,0,1-.537-.613Z" transform="translate(-1693.121 -596.782)" fill="#bdd0fb"/>
          <path id="Trazado_627817" data-name="Trazado 627817" d="M1732.8,519.339v3.7s-.09.007-.134.014a3.6,3.6,0,0,0-1.245.4v-4.112c0-.348.189-.649.537-.649h.117A.733.733,0,0,1,1732.8,519.339Z" transform="translate(-1721.083 -518.69)" fill="#bdd0fb"/>
          <path id="Trazado_627818" data-name="Trazado 627818" d="M1731.711,595.062l1.093-1.62v8.06a.7.7,0,0,1-.725.613h-.117a.542.542,0,0,1-.537-.613v-6.067C1731.425,595.317,1731.625,595.193,1731.711,595.062Z" transform="translate(-1721.083 -581.776)" fill="#bdd0fb"/>
          <path id="Trazado_627819" data-name="Trazado 627819" d="M1765.937,519.339v6.415l-1.379-1.151v-5.264c0-.348.189-.649.537-.649h.117A.733.733,0,0,1,1765.937,519.339Z" transform="translate(-1749.045 -518.69)" fill="#bdd0fb"/>
          <path id="Trazado_627820" data-name="Trazado 627820" d="M1765.886,605.916l.051,0v3.337a.7.7,0,0,1-.725.613h-.117a.542.542,0,0,1-.537-.613v-6.626l1.184,1.027a2.161,2.161,0,0,0-.121,1.748A2.1,2.1,0,0,0,1765.886,605.916Z" transform="translate(-1749.045 -589.531)" fill="#bdd0fb"/>
          <path id="Trazado_627821" data-name="Trazado 627821" d="M1799.07,519.339v7.749c-.345-.035-.305-.064-.44-.071l-.126-.054h-.052c-.3,0-.761.087-.761.207v-7.832c0-.348.189-.649.537-.649h.117A.733.733,0,0,1,1799.07,519.339Z" transform="translate(-1777.007 -518.69)" fill="#bdd0fb"/>
          <path id="Trazado_627822" data-name="Trazado 627822" d="M1799.028,635.06l.042.014v1.176a.7.7,0,0,1-.725.613h-.117a.542.542,0,0,1-.537-.613v-1.634Z" transform="translate(-1777.007 -616.524)" fill="#bdd0fb"/>
        </g>
        <path id="Trazado_627823" data-name="Trazado 627823" d="M1680.884,568.3l-3.095-6.536a.453.453,0,0,0-.793-.047l-1.051,1.68-6.484-5.411a2.291,2.291,0,0,0-3.367.478l-2.77,4.107a.223.223,0,0,1-.31.059l-7.422-5.071a.453.453,0,0,0-.629.118l-.656.961a.452.452,0,0,0,.118.629l7.422,5.071a2.291,2.291,0,0,0,3.191-.611l2.77-4.107a.223.223,0,0,1,.152-.1.218.218,0,0,1,.174.049l6.7,5.593-.709,1.134a.452.452,0,0,0,.243.67l5.963,1.951a.452.452,0,0,0,.55-.623Z" transform="translate(-1654.229 -551.403)" fill="#bdd0fb"/>
      </g>
      <g id="Grupo_947201" data-name="Grupo 947201" transform="translate(375.86 238.947)">
        <g id="Grupo_947199" data-name="Grupo 947199" transform="translate(0 13.845)">
          <path id="Trazado_627824" data-name="Trazado 627824" d="M705.423,1073.041l-.8-.481a.35.35,0,1,1,.363-.6l0,0,.006,0,.776.49,0,0a.341.341,0,0,1-.359.581Z" transform="translate(-678.098 -973.993)" fill="#bdd0fb"/>
          <path id="Trazado_627825" data-name="Trazado 627825" d="M688.8,1061.983l-.768-.523a.38.38,0,1,1,.427-.627l0,0,.006,0,.749.531,0,0a.371.371,0,0,1-.423.609Z" transform="translate(-664.092 -964.589)" fill="#bdd0fb"/>
          <path id="Trazado_627826" data-name="Trazado 627826" d="M672.774,1050.064l-.74-.563a.409.409,0,0,1,.5-.651l0,0,.007.005.719.569.005,0a.4.4,0,0,1-.491.632Z" transform="translate(-650.597 -954.462)" fill="#bdd0fb"/>
          <path id="Trazado_627827" data-name="Trazado 627827" d="M657.418,1037.363l-.708-.6a.433.433,0,0,1,.561-.659l0,0,.007.006.69.6.005,0a.427.427,0,0,1-.557.646Z" transform="translate(-637.672 -943.685)" fill="#bdd0fb"/>
          <path id="Trazado_627828" data-name="Trazado 627828" d="M642.743,1023.9l-.677-.639a.454.454,0,0,1,.624-.661l0,0,.007.006.658.639.005,0a.448.448,0,0,1-.619.647Z" transform="translate(-625.322 -932.276)" fill="#bdd0fb"/>
          <path id="Trazado_627829" data-name="Trazado 627829" d="M628.771,1009.71l-.643-.673a.476.476,0,0,1,.688-.658l0,0,.007.007.624.671,0,.005a.469.469,0,0,1-.683.644Z" transform="translate(-613.568 -920.253)" fill="#bdd0fb"/>
          <path id="Trazado_627830" data-name="Trazado 627830" d="M615.541,994.823l-.608-.705a.5.5,0,0,1,.753-.649l0,0,.007.008.589.7,0,.006a.491.491,0,0,1-.748.635Z" transform="translate(-602.442 -907.648)" fill="#bdd0fb"/>
          <path id="Trazado_627831" data-name="Trazado 627831" d="M603.094,979.273l-.571-.737a.519.519,0,1,1,.82-.635l0,0,.007.009.551.731,0,.007a.512.512,0,0,1-.814.622Z" transform="translate(-591.979 -894.486)" fill="#bdd0fb"/>
          <path id="Trazado_627832" data-name="Trazado 627832" d="M591.48,963.091l-.531-.766a.54.54,0,0,1,.888-.615l0,0,.007.01.51.759,0,.007a.533.533,0,0,1-.881.6Z" transform="translate(-582.222 -880.795)" fill="#bdd0fb"/>
          <path id="Trazado_627833" data-name="Trazado 627833" d="M580.751,946.308l-.488-.795a.561.561,0,0,1,.956-.588l0,0,.006.011.468.786,0,.008a.555.555,0,0,1-.95.574Z" transform="translate(-573.214 -866.601)" fill="#bdd0fb"/>
          <path id="Trazado_627834" data-name="Trazado 627834" d="M570.969,928.957l-.443-.822a.583.583,0,1,1,1.026-.553l0,0,.006.012.422.81,0,.009a.576.576,0,0,1-1.018.54Z" transform="translate(-565.008 -851.931)" fill="#bdd0fb"/>
          <path id="Trazado_627835" data-name="Trazado 627835" d="M562.246,911.12l-.392-.848a.6.6,0,1,1,1.083-.5l0,0,0,.01.376.832,0,.01a.593.593,0,0,1-1.078.493Z" transform="translate(-557.702 -836.866)" fill="#bdd0fb"/>
          <path id="Trazado_627836" data-name="Trazado 627836" d="M554.617,892.792l-.34-.871a.609.609,0,0,1,1.135-.442l0,0,0,.011.324.853,0,.011a.605.605,0,0,1-1.13.435Z" transform="translate(-551.32 -821.393)" fill="#bdd0fb"/>
          <path id="Trazado_627837" data-name="Trazado 627837" d="M548.152,874.022l-.283-.892a.621.621,0,1,1,1.185-.376v0l0,.012.269.871,0,.012a.618.618,0,0,1-1.179.369Z" transform="translate(-545.921 -805.553)" fill="#bdd0fb"/>
          <path id="Trazado_627838" data-name="Trazado 627838" d="M542.932,854.871l-.223-.909a.634.634,0,0,1,1.231-.3v.005l0,.013.209.886,0,.013a.63.63,0,0,1-1.225.295Z" transform="translate(-541.577 -789.397)" fill="#bdd0fb"/>
          <path id="Trazado_627839" data-name="Trazado 627839" d="M539.042,835.406l-.159-.924a.646.646,0,0,1,1.274-.218v.005l0,.014.147.9,0,.014a.642.642,0,0,1-1.267.212Z" transform="translate(-538.355 -772.982)" fill="#bdd0fb"/>
          <path id="Trazado_627840" data-name="Trazado 627840" d="M536.563,815.713l-.09-.934a.659.659,0,0,1,1.311-.127v.02l.08.905v.015a.655.655,0,0,1-1.3.121Z" transform="translate(-536.326 -756.382)" fill="#bdd0fb"/>
          <path id="Trazado_627841" data-name="Trazado 627841" d="M535.568,795.892l-.019-.939a.671.671,0,0,1,1.342-.026v.021l.011.908v.016a.667.667,0,0,1-1.334.021Z" transform="translate(-535.549 -739.683)" fill="#bdd0fb"/>
          <path id="Trazado_627842" data-name="Trazado 627842" d="M535.816,776.057l.056-.938a.683.683,0,1,1,1.364.081v.022l-.061.905v.016a.68.68,0,0,1-1.356-.086Z" transform="translate(-535.774 -722.978)" fill="#bdd0fb"/>
          <path id="Trazado_627843" data-name="Trazado 627843" d="M537.541,756.332l.132-.931a.7.7,0,1,1,1.378.194v.006l0,.017-.134.9,0,.017a.692.692,0,0,1-1.369-.2Z" transform="translate(-537.224 -706.375)" fill="#bdd0fb"/>
          <path id="Trazado_627844" data-name="Trazado 627844" d="M540.863,736.851l.208-.918a.708.708,0,0,1,1.381.312v.006l0,.017-.207.882,0,.017a.7.7,0,0,1-1.373-.316Z" transform="translate(-540.019 -689.985)" fill="#bdd0fb"/>
          <path id="Trazado_627845" data-name="Trazado 627845" d="M545.764,717.744l.28-.9a.72.72,0,1,1,1.376.429l0,.005-.005.016-.277.864-.005.016a.717.717,0,0,1-1.367-.432Z" transform="translate(-544.142 -673.915)" fill="#bdd0fb"/>
          <path id="Trazado_627846" data-name="Trazado 627846" d="M552.154,699.114l.348-.873a.733.733,0,0,1,1.362.542l0,.005-.006.015-.343.84-.006.015a.729.729,0,0,1-1.352-.545Z" transform="translate(-549.519 -658.251)" fill="#bdd0fb"/>
          <path id="Trazado_627847" data-name="Trazado 627847" d="M559.944,681.052l.411-.845a.745.745,0,1,1,1.34.652l0,.005-.007.014-.4.813-.007.014a.741.741,0,0,1-1.331-.654Z" transform="translate(-556.074 -643.068)" fill="#bdd0fb"/>
          <path id="Trazado_627848" data-name="Trazado 627848" d="M569.057,663.688l.471-.812a.748.748,0,1,1,1.294.751h0l-.008.013-.457.785-.008.013a.747.747,0,0,1-1.292-.751Z" transform="translate(-563.741 -628.481)" fill="#bdd0fb"/>
          <path id="Trazado_627849" data-name="Trazado 627849" d="M579.374,646.994l.523-.779a.751.751,0,1,1,1.247.838h0l-.008.012-.509.754-.008.012a.75.75,0,0,1-1.244-.838Z" transform="translate(-572.427 -614.454)" fill="#bdd0fb"/>
          <path id="Trazado_627850" data-name="Trazado 627850" d="M590.756,631.007l.57-.744a.754.754,0,1,1,1.2.917h0l-.008.011-.555.721-.008.011a.753.753,0,0,1-1.195-.917Z" transform="translate(-582.009 -601.023)" fill="#bdd0fb"/>
          <path id="Trazado_627851" data-name="Trazado 627851" d="M603.092,615.741l.611-.709a.757.757,0,1,1,1.146.988h0l-.008.009-.6.689-.008.01a.756.756,0,0,1-1.144-.988Z" transform="translate(-592.396 -588.196)" fill="#bdd0fb"/>
          <path id="Trazado_627852" data-name="Trazado 627852" d="M616.281,601.2l.648-.675a.76.76,0,0,1,1.1,1.053h0l-.008.009-.633.656-.008.009a.759.759,0,0,1-1.093-1.053Z" transform="translate(-603.502 -575.978)" fill="#bdd0fb"/>
          <path id="Trazado_627853" data-name="Trazado 627853" d="M630.23,587.381l.681-.64a.763.763,0,1,1,1.044,1.112h0l-.008.008-.666.623-.008.008a.762.762,0,0,1-1.042-1.111Z" transform="translate(-615.251 -564.368)" fill="#bdd0fb"/>
          <path id="Trazado_627854" data-name="Trazado 627854" d="M644.86,574.264l.712-.607a.766.766,0,1,1,.994,1.165h0l-.008.007-.7.592-.008.007a.765.765,0,0,1-.991-1.164Z" transform="translate(-627.574 -553.346)" fill="#bdd0fb"/>
          <path id="Trazado_627855" data-name="Trazado 627855" d="M660.1,561.858l.737-.573a.768.768,0,0,1,.943,1.214h0l-.008.006-.722.559-.008.006a.768.768,0,0,1-.941-1.213Z" transform="translate(-640.415 -542.922)" fill="#bdd0fb"/>
          <path id="Trazado_627856" data-name="Trazado 627856" d="M675.886,550.144l.761-.54a.771.771,0,0,1,.893,1.258h0l-.008.006-.746.528-.008.006a.77.77,0,0,1-.891-1.257Z" transform="translate(-653.71 -533.081)" fill="#bdd0fb"/>
          <path id="Trazado_627857" data-name="Trazado 627857" d="M692.159,539.115l.783-.508a.774.774,0,0,1,.843,1.3h0l-.008.005-.768.5-.008.005a.773.773,0,0,1-.841-1.3Z" transform="translate(-667.42 -523.815)" fill="#bdd0fb"/>
          <path id="Trazado_627858" data-name="Trazado 627858" d="M708.877,528.76l.8-.476a.777.777,0,1,1,.793,1.337h0l-.008,0-.788.465-.008,0a.776.776,0,0,1-.791-1.336Z" transform="translate(-681.505 -515.116)" fill="#bdd0fb"/>
          <path id="Trazado_627859" data-name="Trazado 627859" d="M726,519.066l.819-.445a.78.78,0,0,1,.746,1.371h0l-.007,0-.805.436-.008,0a.779.779,0,0,1-.743-1.37Z" transform="translate(-695.937 -506.973)" fill="#bdd0fb"/>
          <path id="Trazado_627860" data-name="Trazado 627860" d="M743.472,510l.834-.416a.783.783,0,0,1,.7,1.4h0l-.007,0-.82.407-.008,0a.782.782,0,0,1-.7-1.4Z" transform="translate(-710.656 -499.36)" fill="#bdd0fb"/>
          <path id="Trazado_627861" data-name="Trazado 627861" d="M761.251,501.572l.848-.386a.786.786,0,0,1,.651,1.431h0l-.008,0-.834.377-.007,0a.785.785,0,0,1-.649-1.43Z" transform="translate(-725.639 -492.28)" fill="#bdd0fb"/>
          <path id="Trazado_627862" data-name="Trazado 627862" d="M779.32,493.776l.861-.356a.789.789,0,1,1,.6,1.458h0l-.008,0-.846.348-.008,0a.788.788,0,0,1-.6-1.457Z" transform="translate(-740.864 -485.735)" fill="#bdd0fb"/>
          <path id="Trazado_627863" data-name="Trazado 627863" d="M797.653,486.619l.873-.326a.792.792,0,0,1,.553,1.484h0l-.008,0-.858.318-.008,0a.791.791,0,0,1-.551-1.482Z" transform="translate(-756.313 -479.728)" fill="#bdd0fb"/>
          <path id="Trazado_627864" data-name="Trazado 627864" d="M816.229,480.1l.884-.3a.795.795,0,1,1,.5,1.507h0l-.008,0-.869.289-.008,0a.794.794,0,0,1-.5-1.506Z" transform="translate(-771.967 -474.262)" fill="#bdd0fb"/>
          <path id="Trazado_627865" data-name="Trazado 627865" d="M835.02,474.246l.894-.263a.8.8,0,1,1,.449,1.525l-.006,0-.878.261-.008,0a.8.8,0,0,1-.453-1.526Z" transform="translate(-787.801 -469.355)" fill="#bdd0fb"/>
          <path id="Trazado_627866" data-name="Trazado 627866" d="M854.052,469.062l.9-.232a.791.791,0,1,1,.395,1.532l-.006,0-.886.231-.008,0a.792.792,0,0,1-.4-1.533Z" transform="translate(-803.842 -465.012)" fill="#bdd0fb"/>
          <path id="Trazado_627867" data-name="Trazado 627867" d="M873.256,464.527l.91-.2a.787.787,0,1,1,.341,1.537H874.5l-.894.2-.008,0a.788.788,0,0,1-.345-1.539Z" transform="translate(-820.03 -461.215)" fill="#bdd0fb"/>
          <path id="Trazado_627868" data-name="Trazado 627868" d="M892.611,460.643l.916-.171a.783.783,0,1,1,.287,1.54h-.006l-.9.17H892.9a.785.785,0,0,1-.292-1.542Z" transform="translate(-836.345 -457.968)" fill="#bdd0fb"/>
          <path id="Trazado_627869" data-name="Trazado 627869" d="M912.1,457.413l.921-.14a.779.779,0,0,1,.234,1.541h-.006l-.905.14h-.008a.781.781,0,1,1-.239-1.543Z" transform="translate(-852.77 -455.272)" fill="#bdd0fb"/>
          <path id="Trazado_627870" data-name="Trazado 627870" d="M931.686,454.84l.925-.109a.775.775,0,1,1,.181,1.54h-.006l-.91.11h-.008a.777.777,0,0,1-.186-1.542Z" transform="translate(-869.284 -453.13)" fill="#bdd0fb"/>
          <path id="Trazado_627871" data-name="Trazado 627871" d="M951.357,452.925l.928-.078a.772.772,0,1,1,.129,1.538h-.006l-.913.079h-.008a.773.773,0,1,1-.133-1.54Z" transform="translate(-885.866 -451.542)" fill="#bdd0fb"/>
          <path id="Trazado_627872" data-name="Trazado 627872" d="M971.087,451.673l.931-.047a.768.768,0,1,1,.077,1.534h-.006l-.915.048h-.008a.769.769,0,0,1-.081-1.536Z" transform="translate(-902.499 -450.514)" fill="#bdd0fb"/>
          <path id="Trazado_627873" data-name="Trazado 627873" d="M990.855,451.087l.932-.015a.764.764,0,0,1,.025,1.527h-.006l-.916.017h-.008a.765.765,0,1,1-.029-1.53Z" transform="translate(-919.162 -450.046)" fill="#bdd0fb"/>
          <path id="Trazado_627874" data-name="Trazado 627874" d="M1010.635,451.079l.932.016a.76.76,0,1,1-.027,1.519h-.006l-.916-.014h-.008a.761.761,0,1,1,.023-1.522Z" transform="translate(-935.837 -450.053)" fill="#bdd0fb"/>
          <path id="Trazado_627875" data-name="Trazado 627875" d="M1030.4,451.66l.93.048a.756.756,0,1,1-.078,1.51h-.006l-.915-.045h-.008a.757.757,0,0,1,.074-1.512Z" transform="translate(-952.503 -450.542)" fill="#bdd0fb"/>
          <path id="Trazado_627876" data-name="Trazado 627876" d="M1050.144,452.913l.928.08a.752.752,0,0,1-.129,1.5h-.006l-.913-.076h-.008a.753.753,0,1,1,.125-1.5Z" transform="translate(-969.143 -451.598)" fill="#bdd0fb"/>
          <path id="Trazado_627877" data-name="Trazado 627877" d="M1069.826,454.841l.925.112a.748.748,0,0,1-.179,1.486h-.006l-.91-.108h-.008a.749.749,0,0,1,.176-1.488Z" transform="translate(-985.735 -453.223)" fill="#bdd0fb"/>
          <path id="Trazado_627878" data-name="Trazado 627878" d="M1089.427,457.446l.92.144a.744.744,0,0,1-.23,1.471h-.006l-.905-.139h-.008a.746.746,0,0,1,.226-1.474Z" transform="translate(-1002.26 -455.418)" fill="#bdd0fb"/>
          <path id="Trazado_627879" data-name="Trazado 627879" d="M1108.926,460.732l.915.176a.74.74,0,1,1-.28,1.454h-.006l-.9-.171h-.008a.742.742,0,0,1,.276-1.457Z" transform="translate(-1018.697 -458.188)" fill="#bdd0fb"/>
          <path id="Trazado_627880" data-name="Trazado 627880" d="M1128.3,464.7l.908.208a.737.737,0,1,1-.329,1.436h-.006l-.893-.2-.008,0a.738.738,0,0,1,.326-1.439Z" transform="translate(-1035.028 -461.533)" fill="#bdd0fb"/>
          <path id="Trazado_627881" data-name="Trazado 627881" d="M1147.52,469.356l.9.24a.733.733,0,0,1-.378,1.416l-.006,0-.885-.234-.008,0a.734.734,0,1,1,.376-1.419Z" transform="translate(-1051.233 -465.456)" fill="#bdd0fb"/>
          <path id="Trazado_627882" data-name="Trazado 627882" d="M1166.565,474.7l.89.272a.729.729,0,0,1-.426,1.394l-.005,0-.876-.266-.007,0a.73.73,0,1,1,.423-1.4Z" transform="translate(-1067.289 -469.958)" fill="#bdd0fb"/>
          <path id="Trazado_627883" data-name="Trazado 627883" d="M1185.411,480.689l.881.3a.725.725,0,1,1-.469,1.372l0,0-.868-.294-.007,0a.726.726,0,1,1,.466-1.375Z" transform="translate(-1083.179 -475.008)" fill="#bdd0fb"/>
          <path id="Trazado_627884" data-name="Trazado 627884" d="M1204.059,487.282l.871.328a.721.721,0,0,1-.508,1.349l0,0-.859-.321-.006,0a.722.722,0,0,1,.505-1.353Z" transform="translate(-1098.903 -480.566)" fill="#bdd0fb"/>
          <path id="Trazado_627885" data-name="Trazado 627885" d="M1222.5,494.43l.86.353a.717.717,0,0,1-.543,1.327l0,0-.85-.346-.005,0a.718.718,0,0,1,.541-1.33Z" transform="translate(-1114.454 -486.593)" fill="#bdd0fb"/>
          <path id="Trazado_627886" data-name="Trazado 627886" d="M1240.731,502.092l.85.375a.713.713,0,0,1-.576,1.3h0l-.841-.368-.005,0a.714.714,0,0,1,.573-1.308Z" transform="translate(-1129.83 -493.053)" fill="#bdd0fb"/>
          <path id="Trazado_627887" data-name="Trazado 627887" d="M1258.758,510.221l.839.395a.709.709,0,0,1-.6,1.283h0l-.831-.388,0,0a.71.71,0,0,1,.6-1.287Z" transform="translate(-1145.036 -499.907)" fill="#bdd0fb"/>
          <path id="Trazado_627888" data-name="Trazado 627888" d="M1276.578,518.77l.831.414a.705.705,0,1,1-.629,1.263h0l-.824-.408,0,0a.706.706,0,0,1,.627-1.266Z" transform="translate(-1160.067 -507.116)" fill="#bdd0fb"/>
          <path id="Trazado_627889" data-name="Trazado 627889" d="M1294.218,527.7l.822.43a.7.7,0,1,1-.651,1.243h0l-.816-.425,0,0a.7.7,0,1,1,.649-1.246Z" transform="translate(-1174.948 -514.651)" fill="#bdd0fb"/>
          <path id="Trazado_627890" data-name="Trazado 627890" d="M1311.679,536.977l.814.445a.7.7,0,1,1-.669,1.224h0l-.808-.439,0,0a.7.7,0,0,1,.667-1.228Z" transform="translate(-1189.68 -522.472)" fill="#bdd0fb"/>
          <path id="Trazado_627891" data-name="Trazado 627891" d="M1328.978,546.548l.806.458a.694.694,0,1,1-.685,1.207h0l-.8-.452h0a.695.695,0,1,1,.683-1.21Z" transform="translate(-1204.275 -530.546)" fill="#bdd0fb"/>
          <path id="Trazado_627892" data-name="Trazado 627892" d="M1346.128,556.38l.8.468a.69.69,0,0,1-.7,1.19h0l-.8-.464h0a.691.691,0,1,1,.7-1.194Z" transform="translate(-1218.747 -538.84)" fill="#bdd0fb"/>
          <path id="Trazado_627893" data-name="Trazado 627893" d="M1363.147,566.433l.793.477a.686.686,0,1,1-.707,1.175h0l-.791-.473h0a.687.687,0,0,1,.705-1.179Z" transform="translate(-1233.109 -547.321)" fill="#bdd0fb"/>
          <path id="Trazado_627894" data-name="Trazado 627894" d="M1380.053,576.674l.788.485a.682.682,0,1,1-.714,1.161h0l-.787-.481h0a.683.683,0,1,1,.713-1.165Z" transform="translate(-1247.376 -555.961)" fill="#bdd0fb"/>
          <path id="Trazado_627895" data-name="Trazado 627895" d="M1396.864,587.066l.784.491a.678.678,0,0,1-.719,1.15l-.783-.487a.679.679,0,0,1,.715-1.155Z" transform="translate(-1261.566 -564.729)" fill="#bdd0fb"/>
          <path id="Trazado_627896" data-name="Trazado 627896" d="M1413.6,597.575l.781.5a.674.674,0,0,1-.721,1.139l-.781-.492a.675.675,0,0,1,.719-1.143Z" transform="translate(-1275.693 -573.597)" fill="#bdd0fb"/>
          <path id="Trazado_627897" data-name="Trazado 627897" d="M1430.284,608.169l.779.5a.67.67,0,0,1-.721,1.13l-.779-.5a.671.671,0,0,1,.719-1.134Z" transform="translate(-1289.775 -582.537)" fill="#bdd0fb"/>
          <path id="Trazado_627898" data-name="Trazado 627898" d="M1446.931,618.815l.777.5a.666.666,0,0,1-.719,1.122l-.778-.5a.667.667,0,0,1,.718-1.125Z" transform="translate(-1303.828 -591.521)" fill="#bdd0fb"/>
          <path id="Trazado_627899" data-name="Trazado 627899" d="M1463.563,629.479l.777.5a.662.662,0,0,1-.714,1.116l-.779-.5a.664.664,0,1,1,.714-1.119Z" transform="translate(-1317.87 -600.522)" fill="#bdd0fb"/>
          <path id="Trazado_627900" data-name="Trazado 627900" d="M1480.2,640.131l.778.5a.659.659,0,0,1-.708,1.111l-.78-.5a.66.66,0,1,1,.708-1.113Z" transform="translate(-1331.917 -609.512)" fill="#bdd0fb"/>
          <path id="Trazado_627901" data-name="Trazado 627901" d="M1496.867,650.738l.779.494a.655.655,0,0,1-.7,1.107l-.782-.493a.656.656,0,1,1,.7-1.11Z" transform="translate(-1345.988 -618.465)" fill="#bdd0fb"/>
          <path id="Trazado_627902" data-name="Trazado 627902" d="M1513.58,661.267l.782.489a.651.651,0,0,1-.687,1.1l-.786-.489a.652.652,0,1,1,.689-1.107Z" transform="translate(-1360.1 -627.353)" fill="#bdd0fb"/>
          <path id="Trazado_627903" data-name="Trazado 627903" d="M1530.361,671.685l.785.483h0a.647.647,0,0,1-.676,1.1l-.79-.483a.648.648,0,1,1,.676-1.106h0Z" transform="translate(-1374.27 -636.148)" fill="#bdd0fb"/>
          <path id="Trazado_627904" data-name="Trazado 627904" d="M1547.232,681.965l.789.476h0a.64.64,0,0,1-.658,1.1l-.8-.474a.643.643,0,0,1,.657-1.1l0,0Z" transform="translate(-1388.52 -644.827)" fill="#bdd0fb"/>
          <path id="Trazado_627905" data-name="Trazado 627905" d="M1564.23,692.085l.795.466h0a.632.632,0,0,1-.636,1.092l-.8-.464a.634.634,0,1,1,.636-1.1l0,0Z" transform="translate(-1402.88 -653.371)" fill="#bdd0fb"/>
          <path id="Trazado_627906" data-name="Trazado 627906" d="M1581.353,701.986l.8.455h0a.624.624,0,0,1-.613,1.086l-.808-.453a.626.626,0,1,1,.612-1.092l0,0Z" transform="translate(-1417.347 -661.731)" fill="#bdd0fb"/>
          <path id="Trazado_627907" data-name="Trazado 627907" d="M1598.62,711.63l.808.441,0,0a.615.615,0,0,1-.587,1.082l-.816-.44a.618.618,0,1,1,.587-1.088l0,0Z" transform="translate(-1431.937 -669.876)" fill="#bdd0fb"/>
          <path id="Trazado_627908" data-name="Trazado 627908" d="M1616.048,720.979l.815.426,0,0a.607.607,0,0,1-.559,1.078l-.824-.425a.61.61,0,1,1,.559-1.084l0,0Z" transform="translate(-1446.664 -677.77)" fill="#bdd0fb"/>
          <path id="Trazado_627909" data-name="Trazado 627909" d="M1633.65,729.989l.824.409,0,0a.6.6,0,0,1-.53,1.075l-.833-.408a.6.6,0,1,1,.529-1.08h0Z" transform="translate(-1461.538 -685.38)" fill="#bdd0fb"/>
          <path id="Trazado_627910" data-name="Trazado 627910" d="M1651.441,738.617l.833.39,0,0a.591.591,0,0,1-.5,1.072l-.843-.389a.593.593,0,0,1,.5-1.078h0Z" transform="translate(-1476.573 -692.667)" fill="#bdd0fb"/>
          <path id="Trazado_627911" data-name="Trazado 627911" d="M1669.435,746.819l.841.368,0,0a.583.583,0,0,1-.464,1.069l-.852-.367a.585.585,0,0,1,.463-1.075h0Z" transform="translate(-1491.779 -699.595)" fill="#bdd0fb"/>
          <path id="Trazado_627912" data-name="Trazado 627912" d="M1687.625,754.544l.852.345,0,0a.574.574,0,0,1-.428,1.066l-.863-.344a.577.577,0,0,1,.427-1.072h0Z" transform="translate(-1507.153 -706.12)" fill="#bdd0fb"/>
          <path id="Trazado_627913" data-name="Trazado 627913" d="M1706.032,761.75l.862.319,0,0a.566.566,0,0,1-.39,1.063l-.873-.318a.569.569,0,1,1,.389-1.068h0Z" transform="translate(-1522.709 -712.207)" fill="#bdd0fb"/>
          <path id="Trazado_627914" data-name="Trazado 627914" d="M1724.649,768.388l.871.291.005,0a.558.558,0,0,1-.351,1.059l-.883-.289a.561.561,0,1,1,.349-1.065h0Z" transform="translate(-1538.444 -717.815)" fill="#bdd0fb"/>
          <path id="Trazado_627915" data-name="Trazado 627915" d="M1743.474,774.411l.88.261.006,0a.55.55,0,0,1-.31,1.055l-.893-.259a.552.552,0,0,1,.308-1.061h0Z" transform="translate(-1554.355 -722.903)" fill="#bdd0fb"/>
          <path id="Trazado_627916" data-name="Trazado 627916" d="M1762.494,779.773l.888.229.006,0a.542.542,0,0,1-.267,1.05l-.9-.227a.544.544,0,0,1,.265-1.055h.009Z" transform="translate(-1570.432 -727.433)" fill="#bdd0fb"/>
          <path id="Trazado_627917" data-name="Trazado 627917" d="M1781.7,784.433l.9.195h.006a.533.533,0,0,1-.224,1.043l-.91-.192a.536.536,0,1,1,.222-1.048h.009Z" transform="translate(-1586.663 -731.37)" fill="#bdd0fb"/>
          <path id="Trazado_627918" data-name="Trazado 627918" d="M1801.066,788.35l.9.159h.006a.525.525,0,0,1-.179,1.035l-.916-.156a.528.528,0,0,1,.178-1.04h.009Z" transform="translate(-1603.035 -734.68)" fill="#bdd0fb"/>
          <path id="Trazado_627919" data-name="Trazado 627919" d="M1820.565,791.484l.91.12h.007a.517.517,0,0,1-.132,1.025l-.925-.117a.519.519,0,0,1,.13-1.031h.01Z" transform="translate(-1619.516 -737.327)" fill="#bdd0fb"/>
          <path id="Trazado_627920" data-name="Trazado 627920" d="M1840.2,793.753l.913.079h.007a.509.509,0,0,1-.085,1.014l-.927-.075a.511.511,0,1,1,.083-1.019h.01Z" transform="translate(-1636.118 -739.245)" fill="#bdd0fb"/>
          <path id="Trazado_627921" data-name="Trazado 627921" d="M1859.9,795.145l.915.039h.007a.5.5,0,0,1-.039,1l-.929-.034a.5.5,0,0,1,.037-1.005h.01Z" transform="translate(-1652.768 -740.421)" fill="#bdd0fb"/>
          <path id="Trazado_627922" data-name="Trazado 627922" d="M1879.642,795.667h.923a.492.492,0,0,1,0,.985l-.929.006a.495.495,0,1,1-.006-.989h.009Z" transform="translate(-1669.453 -740.861)" fill="#bdd0fb"/>
          <path id="Trazado_627923" data-name="Trazado 627923" d="M1899.383,795.131l.916-.041h.006a.484.484,0,0,1,.045.967l-.927.046a.487.487,0,1,1-.048-.972h.009Z" transform="translate(-1686.138 -740.375)" fill="#bdd0fb"/>
          <path id="Trazado_627924" data-name="Trazado 627924" d="M1919.092,793.761l.913-.079h.006a.476.476,0,0,1,.084.948l-.925.085a.478.478,0,0,1-.087-.953h.009Z" transform="translate(-1702.795 -739.185)" fill="#bdd0fb"/>
          <path id="Trazado_627925" data-name="Trazado 627925" d="M1938.733,791.569l.909-.117h.006a.468.468,0,0,1,.122.927l-.92.123a.47.47,0,1,1-.125-.932h.008Z" transform="translate(-1719.394 -737.301)" fill="#bdd0fb"/>
          <path id="Trazado_627926" data-name="Trazado 627926" d="M1958.276,788.571l.9-.154h.006a.459.459,0,0,1,.157.906l-.915.161a.462.462,0,0,1-.16-.91h.008Z" transform="translate(-1735.909 -734.737)" fill="#bdd0fb"/>
          <path id="Trazado_627927" data-name="Trazado 627927" d="M1977.683,784.782l.9-.191h.006a.451.451,0,0,1,.19.882l-.907.2a.454.454,0,1,1-.194-.887h.008Z" transform="translate(-1752.308 -731.505)" fill="#bdd0fb"/>
          <path id="Trazado_627928" data-name="Trazado 627928" d="M1996.937,780.213l.89-.227h.005a.443.443,0,0,1,.221.858l-.9.234a.446.446,0,0,1-.225-.862h.007Z" transform="translate(-1768.577 -727.616)" fill="#bdd0fb"/>
          <path id="Trazado_627929" data-name="Trazado 627929" d="M2016.006,774.879l.881-.263h.005a.435.435,0,0,1,.25.833l-.889.27a.437.437,0,0,1-.254-.837h.007Z" transform="translate(-1784.69 -723.08)" fill="#bdd0fb"/>
          <path id="Trazado_627930" data-name="Trazado 627930" d="M2034.85,768.8l.87-.3,0,0a.427.427,0,0,1,.278.807l-.878.305a.429.429,0,1,1-.282-.81h0Z" transform="translate(-1800.612 -717.912)" fill="#bdd0fb"/>
          <path id="Trazado_627931" data-name="Trazado 627931" d="M2053.446,761.975l.858-.332,0,0a.418.418,0,0,1,.3.78l-.865.34a.421.421,0,0,1-.308-.784h0Z" transform="translate(-1816.323 -712.123)" fill="#bdd0fb"/>
          <path id="Trazado_627932" data-name="Trazado 627932" d="M2071.767,754.444l.845-.364,0,0a.408.408,0,0,1,.326.748l-.851.375a.412.412,0,0,1-.332-.754h0Z" transform="translate(-1831.803 -705.736)" fill="#bdd0fb"/>
          <path id="Trazado_627933" data-name="Trazado 627933" d="M2089.812,746.218l.83-.4,0,0a.395.395,0,0,1,.344.711l-.835.408a.4.4,0,0,1-.35-.716h0Z" transform="translate(-1847.051 -698.761)" fill="#bdd0fb"/>
          <path id="Trazado_627934" data-name="Trazado 627934" d="M2107.522,737.292l.814-.43,0,0a.381.381,0,0,1,.359.673l-.818.441a.385.385,0,0,1-.366-.678l0,0Z" transform="translate(-1862.015 -691.196)" fill="#bdd0fb"/>
          <path id="Trazado_627935" data-name="Trazado 627935" d="M2124.871,727.679l.8-.462,0,0a.368.368,0,0,1,.372.636l-.8.473a.372.372,0,0,1-.379-.641l0,0Z" transform="translate(-1876.673 -683.051)" fill="#bdd0fb"/>
          <path id="Trazado_627936" data-name="Trazado 627936" d="M2141.827,717.391l.777-.493,0,0a.355.355,0,0,1,.383.6l-.78.5a.359.359,0,1,1-.39-.6l0,0Z" transform="translate(-1890.999 -674.337)" fill="#bdd0fb"/>
          <path id="Trazado_627937" data-name="Trazado 627937" d="M2158.361,706.439l.756-.524,0,0a.342.342,0,0,1,.391.56l-.759.535a.346.346,0,0,1-.4-.565l0,0Z" transform="translate(-1904.968 -665.065)" fill="#bdd0fb"/>
          <path id="Trazado_627938" data-name="Trazado 627938" d="M2174.448,694.833l.734-.554,0,0a.329.329,0,0,1,.4.523l-.736.565a.332.332,0,1,1-.405-.527l0,0Z" transform="translate(-1918.558 -655.24)" fill="#bdd0fb"/>
          <path id="Trazado_627939" data-name="Trazado 627939" d="M2190.046,682.593l.711-.583,0,0a.315.315,0,0,1,.4.486l-.712.595a.319.319,0,0,1-.409-.49l0,0Z" transform="translate(-1931.735 -644.881)" fill="#bdd0fb"/>
          <path id="Trazado_627940" data-name="Trazado 627940" d="M2205.126,669.733l.686-.612,0,0a.3.3,0,0,1,.4.449l-.686.623a.306.306,0,0,1-.411-.453l0,0Z" transform="translate(-1944.474 -633.999)" fill="#bdd0fb"/>
          <path id="Trazado_627941" data-name="Trazado 627941" d="M2219.655,656.266l.66-.641,0,0a.289.289,0,0,1,.4.413l-.659.651a.293.293,0,0,1-.412-.417l0,0Z" transform="translate(-1956.747 -622.605)" fill="#bdd0fb"/>
          <path id="Trazado_627942" data-name="Trazado 627942" d="M2233.611,642.2l.632-.668,0,0a.276.276,0,0,1,.4.377l-.631.678a.28.28,0,0,1-.41-.381l0,0Z" transform="translate(-1968.535 -610.705)" fill="#bdd0fb"/>
          <path id="Trazado_627943" data-name="Trazado 627943" d="M2246.953,627.551l.6-.695,0,0a.262.262,0,0,1,.4.342l-.6.705a.266.266,0,1,1-.406-.346v0Z" transform="translate(-1979.805 -598.319)" fill="#bdd0fb"/>
          <path id="Trazado_627944" data-name="Trazado 627944" d="M2259.649,612.346l.571-.721,0,0a.249.249,0,0,1,.392.308l-.569.731a.253.253,0,0,1-.4-.311v0Z" transform="translate(-1990.528 -585.461)" fill="#bdd0fb"/>
          <path id="Trazado_627945" data-name="Trazado 627945" d="M2271.658,596.607l.539-.746,0,0a.236.236,0,0,1,.384.275l-.536.756a.24.24,0,1,1-.392-.278v0Z" transform="translate(-2000.672 -572.154)" fill="#bdd0fb"/>
          <path id="Trazado_627946" data-name="Trazado 627946" d="M2282.959,580.336l.5-.77,0,0a.223.223,0,0,1,.374.242l-.5.781a.227.227,0,1,1-.382-.245v0Z" transform="translate(-2010.216 -558.398)" fill="#bdd0fb"/>
          <path id="Trazado_627947" data-name="Trazado 627947" d="M2293.352,563.421l.443-.8,0-.005a.21.21,0,0,1,.368.2l-.442.818a.214.214,0,0,1-.376-.2v0Z" transform="translate(-2018.994 -544.088)" fill="#bdd0fb"/>
          <path id="Trazado_627948" data-name="Trazado 627948" d="M2302.252,545.635l.35-.846,0-.007a.2.2,0,0,1,.363.149l-.349.864a.2.2,0,1,1-.371-.15v0Z" transform="translate(-2026.515 -529.029)" fill="#bdd0fb"/>
          <path id="Trazado_627949" data-name="Trazado 627949" d="M2308.857,526.9l.214-.887,0-.01a.183.183,0,0,1,.356.084l-.211.908a.187.187,0,0,1-.365-.085v0Z" transform="translate(-2032.099 -513.164)" fill="#bdd0fb"/>
          <path id="Trazado_627950" data-name="Trazado 627950" d="M2312.167,507.447l.031-.911v-.011a.17.17,0,0,1,.34.01l-.023.934a.174.174,0,0,1-.348-.009v-.013Z" transform="translate(-2034.898 -496.706)" fill="#bdd0fb"/>
          <path id="Trazado_627951" data-name="Trazado 627951" d="M2309.855,488.067l-.215-.885,0-.013a.157.157,0,0,1,.3-.075l.228.908a.16.16,0,1,1-.311.078h0Z" transform="translate(-2032.76 -480.347)" fill="#bdd0fb"/>
          <path id="Trazado_627952" data-name="Trazado 627952" d="M2302.192,470.1l-.444-.8-.006-.01a.143.143,0,0,1,.25-.141l.463.814a.147.147,0,0,1-.256.146h0Z" transform="translate(-2026.085 -465.246)" fill="#bdd0fb"/>
          <path id="Trazado_627953" data-name="Trazado 627953" d="M2289.791,455.035l-.658-.629-.01-.009a.13.13,0,0,1,.179-.189l.683.642a.134.134,0,0,1-.184.2h0Z" transform="translate(-2015.417 -452.663)" fill="#bdd0fb"/>
          <path id="Trazado_627954" data-name="Trazado 627954" d="M2273.074,445.075l-.842-.343-.014-.006a.117.117,0,0,1,.087-.217l.872.347a.121.121,0,1,1-.089.225h0Z" transform="translate(-2001.124 -444.502)" fill="#bdd0fb"/>
        </g>
        <g id="Grupo_947200" data-name="Grupo 947200" transform="translate(244.95 0)">
          <path id="Trazado_627955" data-name="Trazado 627955" d="M2233.755,402.514l-.937,5.368-3.232-2.942Z" transform="translate(-2210.156 -395.222)" fill="#b0c0d2"/>
          <path id="Trazado_627956" data-name="Trazado 627956" d="M2105.083,355.79l12.277,15.244a1.379,1.379,0,0,0,1.979.176l8.309-7.225,6.531-5.679a.553.553,0,0,0-.333-.969Z" transform="translate(-2105.083 -355.79)" fill="#0f1e52"/>
          <path id="Trazado_627957" data-name="Trazado 627957" d="M2128.681,363.083l-23.6-7.292,21.209,9.382-.2,1.5Z" transform="translate(-2105.083 -355.79)" fill="#f3f9ff"/>
          <path id="Trazado_627958" data-name="Trazado 627958" d="M2231.848,417.135l2.88,2.049-1.454-3.277Z" transform="translate(-2212.064 -406.525)" fill="#fff"/>
        </g>
      </g>
      <g id="Grupo_947209" data-name="Grupo 947209" transform="translate(346.329 281.097)">
        <g id="Grupo_947203" data-name="Grupo 947203" transform="translate(22.979 0)">
          <path id="Trazado_627959" data-name="Trazado 627959" d="M504.123,663.988s35.714-17.646,24.034-30.638-33.455-7.8-34.558,5.875S519,649.691,504.123,663.988Z" transform="translate(-493.565 -625.867)" fill="url(#linear-gradient-25)"/>
          <g id="Grupo_947202" data-name="Grupo 947202" transform="translate(6.107 10.494)">
            <path id="Trazado_627960" data-name="Trazado 627960" d="M608.758,693.8H593a.345.345,0,0,1,0-.689h15.762a.345.345,0,1,1,0,.689Z" transform="translate(-583.295 -693.106)" fill="#bdd0fb"/>
            <path id="Trazado_627961" data-name="Trazado 627961" d="M537.718,693.8h-4.677a.345.345,0,1,1,0-.689h4.677a.345.345,0,0,1,0,.689Z" transform="translate(-532.696 -693.106)" fill="#bdd0fb"/>
            <path id="Trazado_627962" data-name="Trazado 627962" d="M665.39,714.242h-5.918a.345.345,0,1,1,0-.689h5.918a.345.345,0,1,1,0,.689Z" transform="translate(-639.395 -710.362)" fill="#bdd0fb"/>
            <path id="Trazado_627963" data-name="Trazado 627963" d="M546.959,714.242H536.443a.345.345,0,1,1,0-.689h10.516a.345.345,0,1,1,0,.689Z" transform="translate(-535.567 -710.362)" fill="#bdd0fb"/>
            <path id="Trazado_627964" data-name="Trazado 627964" d="M615.72,734.689H599.988a.345.345,0,0,1,0-.689H615.72a.345.345,0,1,1,0,.689Z" transform="translate(-589.195 -727.618)" fill="#bdd0fb"/>
            <path id="Trazado_627965" data-name="Trazado 627965" d="M545.292,734.689h-5.446a.345.345,0,1,1,0-.689h5.446a.345.345,0,1,1,0,.689Z" transform="translate(-538.439 -727.618)" fill="#bdd0fb"/>
          </g>
        </g>
        <g id="Grupo_947208" data-name="Grupo 947208" transform="translate(0 34.975)">
          <path id="Trazado_627966" data-name="Trazado 627966" d="M482.74,1465.4s-.354,2-.528,3.988a1.367,1.367,0,0,0,1.308,1.481c2.642.11,8.293.324,10.321.234a.445.445,0,0,0,.391-.609h0a.994.994,0,0,0-.509-.537l-9.335-4.29Z" transform="translate(-461.001 -1369.354)" fill="url(#linear-gradient-26)"/>
          <path id="Trazado_627967" data-name="Trazado 627967" d="M483.763,1455.855l.285,2.4a2.974,2.974,0,0,0,2.752-.1l-.677-2.672Z" transform="translate(-462.314 -1360.985)" fill="url(#linear-gradient-27)"/>
          <path id="Trazado_627968" data-name="Trazado 627968" d="M445.044,1169.079c-.123.626-.659,31.239,2.613,44.958a.465.465,0,0,1-.273.542,8.1,8.1,0,0,1-2.665.542.8.8,0,0,1-.8-.576c-.935-3.183-5.418-19.13-6-34.365-.653-17.023,0-.58,0-.58l.383-10.522Z" transform="translate(-423.381 -1119.276)" fill="#12263f"/>
          <path id="Trazado_627969" data-name="Trazado 627969" d="M410.729,1472.1a14.429,14.429,0,0,0-1.109,3.7.834.834,0,0,0,.734,1c.872.086,2.215.2,3.291.189a.831.831,0,0,0,.823-.928,7.013,7.013,0,0,0-1.637-3.846Z" transform="translate(-399.728 -1375.008)" fill="url(#linear-gradient-28)"/>
          <path id="Trazado_627970" data-name="Trazado 627970" d="M413.647,1451.584l.665,3.625a2.344,2.344,0,0,0,1.957.134l-.317-3.9Z" transform="translate(-403.141 -1357.573)" fill="url(#linear-gradient-29)"/>
          <path id="Trazado_627971" data-name="Trazado 627971" d="M396.572,1165.943c-2.676,16.152.58,39.92,1.679,44.572a.726.726,0,0,0,.586.551,4.874,4.874,0,0,0,2.093-.084.665.665,0,0,0,.478-.612c.147-3.761-.118-26.85,2.376-35.975a2.072,2.072,0,0,1,.8-1.143l4.84-3.441.371-5.562Z" transform="translate(-387.862 -1115.201)" fill="#12263f"/>
          <g id="Grupo_947204" data-name="Grupo 947204" transform="translate(7.711 7.717)">
            <path id="Trazado_627972" data-name="Trazado 627972" d="M413.793,971.917a75.4,75.4,0,0,0-16.87,2.106c-2.391,13.95-.418,30.04-.418,30.04,6.209,1.628,13.213-1,13.213-1,1.032-5.831,5.847-22.24,5.847-22.24a26.418,26.418,0,0,0,9.805-3.112,17.2,17.2,0,0,1-3.4-7.109A26.911,26.911,0,0,1,413.793,971.917Z" transform="translate(-395.74 -959.496)" fill="#6aceae"/>
            <path id="Trazado_627973" data-name="Trazado 627973" d="M579.333,900.024a1.534,1.534,0,0,0-1.785-.5c-1.18,4.985-7.369,9.028-13.727,11a17.2,17.2,0,0,0,3.4,7.109C577.771,911.7,579.333,900.024,579.333,900.024Z" transform="translate(-537.589 -899.416)" fill="url(#linear-gradient-30)"/>
          </g>
          <g id="Grupo_947205" data-name="Grupo 947205" transform="translate(47.67)">
            <path id="Trazado_627974" data-name="Trazado 627974" d="M653.37,858.536c.082.262-.872.661-1.434-.411-.02-.514-.332-2.715-.025-3.133a41,41,0,0,1,4.8-5.023.754.754,0,0,1,.094,1.048l-1.538,1.6a7.438,7.438,0,0,1,.9,1.775,2.155,2.155,0,0,1-.215,1.586c-.27.486-.638,1.118-.986,1.613A2.128,2.128,0,0,1,653.37,858.536Z" transform="translate(-651.777 -849.969)" fill="url(#linear-gradient-31)"/>
            <path id="Trazado_627975" data-name="Trazado 627975" d="M659.909,873.607l-1.4,1.188-.44,1.182,1.249,1.386a16.114,16.114,0,0,1,.732-2.854C660.362,874,660.2,873.755,659.909,873.607Z" transform="translate(-657.086 -869.918)" fill="url(#linear-gradient-32)"/>
          </g>
          <path id="Trazado_627976" data-name="Trazado 627976" d="M359.223,1000.267l-3.076-7.766s-7.491,5.09-8.723,11.544a17.726,17.726,0,0,1,6.512,1.745C354.489,1002.743,359.223,1000.267,359.223,1000.267Z" transform="translate(-347.252 -970.257)" fill="#6aceae"/>
          <path id="Trazado_627977" data-name="Trazado 627977" d="M364.846,1070s-8.411,4.754-11.249.695a3.191,3.191,0,0,1-.585-2.479,17.726,17.726,0,0,0-6.512-1.745,8.907,8.907,0,0,0,.968,6.106c4.971,9.094,18.491-.5,18.491-.5Z" transform="translate(-346.329 -1032.681)" fill="url(#linear-gradient-33)"/>
          <g id="Grupo_947206" data-name="Grupo 947206" transform="translate(17.488 24.412)">
            <path id="Trazado_627978" data-name="Trazado 627978" d="M458.4,1033.729l4.59-16.031a.468.468,0,0,1,.4-.337c.832-.1,3.241-.369,6.024-.6a68.329,68.329,0,0,1,9.57-.318.469.469,0,0,1,.383.675c-1.323,2.676-6.763,13.561-9.488,17.126a.47.47,0,0,1-.378.186l-10.651-.1A.469.469,0,0,1,458.4,1033.729Z" transform="translate(-458.386 -1014.809)" fill="url(#linear-gradient-34)"/>
            <path id="Trazado_627979" data-name="Trazado 627979" d="M529.919,1006.946l3.328-.555a.239.239,0,0,1,.266.311l-.329,1a.239.239,0,0,1-.2.162l-3.2.428a.239.239,0,0,1-.264-.291l.2-.872A.239.239,0,0,1,529.919,1006.946Z" transform="translate(-518.414 -1006.388)" fill="#7d97f4"/>
            <path id="Trazado_627980" data-name="Trazado 627980" d="M516.1,1015.157l.274-1.428a.33.33,0,0,1,.291-.266l6.722-.682a.33.33,0,0,1,.354.406l-.427,1.78a.33.33,0,0,1-.3.253l-6.569.331A.33.33,0,0,1,516.1,1015.157Z" transform="translate(-507.089 -1011.781)" fill="#7d97f4"/>
            <path id="Trazado_627981" data-name="Trazado 627981" d="M463.215,1073.246a11.672,11.672,0,0,1-.382-3.562c.258-.933.758-2.132,2.424-1.866a24.373,24.373,0,0,1,3.631.969.953.953,0,0,1-1.365.823l.785.608s-.112.973-1.182.453l.73.806a.851.851,0,0,1-1.246.286C465.824,1071.25,465.447,1073.563,463.215,1073.246Z" transform="translate(-462.088 -1058.199)" fill="url(#linear-gradient-35)"/>
          </g>
          <path id="Trazado_627982" data-name="Trazado 627982" d="M445.48,937.286l-2.552,7.38a.266.266,0,0,0,.121.32,6,6,0,0,0,6.222-.419,1.252,1.252,0,0,0,.576-.894l.827-6.387Z" transform="translate(-427.839 -923.659)" fill="url(#linear-gradient-36)"/>
          <g id="Grupo_947207" data-name="Grupo 947207" transform="translate(12.797 2.957)">
            <path id="Trazado_627983" data-name="Trazado 627983" d="M459.567,893.495s2.8,5.275,2.443,7.406-3.832,1.978-6.865.247l-2.119-5.7Z" transform="translate(-449.171 -889.659)" fill="url(#linear-gradient-37)"/>
            <path id="Trazado_627984" data-name="Trazado 627984" d="M434.434,877.61a.217.217,0,0,0,.095-.318,5.676,5.676,0,0,1-.78-1.655s-.5-.323,1.282-.75,4.449-1.091,5.009-2.611c.546-1.482-.888-5.21-3.176-2.24a.217.217,0,0,1-.344,0,2.241,2.241,0,0,0-2.73-.887,2.056,2.056,0,0,0-1.408,1.987.216.216,0,0,1-.256.221,2.507,2.507,0,0,0-2.927,1.365,2.016,2.016,0,0,0,.144,2.421.217.217,0,0,1-.093.36,1.3,1.3,0,0,0-.92,1.489c.076,1.379,1.618,1.257,2.057,1.195a.218.218,0,0,1,.193.068c.376.417,2.072,2.185,3.907,2.4a.219.219,0,0,0,.23-.29l-.794-2.309a.219.219,0,0,1,.118-.271Z" transform="translate(-428.325 -868.919)" fill="url(#linear-gradient-38)"/>
            <path id="Trazado_627985" data-name="Trazado 627985" d="M457.89,923.044s-2-1.369-2.141-.216,1.8,1.67,2.759,1.24Z" transform="translate(-451.463 -914.025)" fill="url(#linear-gradient-39)"/>
          </g>
        </g>
      </g>
      <g id="Grupo_947211" data-name="Grupo 947211" transform="translate(367.901 217.34)">
        <path id="Trazado_627986" data-name="Trazado 627986" d="M573.017,505.986c-.025-.31-.341-.577-.877-.792.582-.321.9-.665.877-1-.082-1.021-3.315-1.593-7.219-1.278s-7,1.4-6.922,2.418c.025.31.341.577.877.792-.582.321-.9.665-.877,1,.025.31.341.577.877.792-.582.321-.9.665-.877,1,.025.31.341.578.877.792-.582.321-.9.665-.877,1,.036.451.69.815,1.744,1.053a9.07,9.07,0,0,0,.027,1.1c.153,1.881,2.268,3.355,5.066,3.355s5.22-2.011,5.247-3.9a9.526,9.526,0,0,0-.055-1.231c1.339-.447,2.154-.993,2.111-1.523-.025-.31-.341-.577-.877-.792.582-.321.9-.665.877-1-.025-.31-.341-.577-.877-.792C572.722,506.667,573.044,506.323,573.017,505.986Z" transform="translate(-547.276 -458.272)" fill="url(#linear-gradient-40)"/>
        <g id="Grupo_947210" data-name="Grupo 947210" transform="translate(12.642 47.015)">
          <path id="Trazado_627987" data-name="Trazado 627987" d="M574.495,557.177a16.875,16.875,0,0,1-3.1-.253.094.094,0,1,1,.035-.184,20.2,20.2,0,0,0,5.16.163,22.192,22.192,0,0,0,4.327-.746.094.094,0,1,1,.052.18,22.38,22.38,0,0,1-4.365.753C575.881,557.148,575.171,557.177,574.495,557.177Z" transform="translate(-570.422 -550.291)" fill="url(#linear-gradient-41)"/>
          <path id="Trazado_627988" data-name="Trazado 627988" d="M570.848,543.018a14.739,14.739,0,0,1-3.8-.412.094.094,0,0,1,.052-.18,21.7,21.7,0,0,0,11.5-.914.094.094,0,0,1,.079.17,18.515,18.515,0,0,1-5.732,1.25C572.225,542.99,571.521,543.018,570.848,543.018Z" transform="translate(-566.755 -537.928)" fill="url(#linear-gradient-42)"/>
          <path id="Trazado_627989" data-name="Trazado 627989" d="M569.632,531.521a13.7,13.7,0,0,1-4.009-.482.094.094,0,1,1,.059-.178,17.127,17.127,0,0,0,6.047.386,18.319,18.319,0,0,0,5.668-1.233.094.094,0,1,1,.079.17,18.5,18.5,0,0,1-5.732,1.25C571.017,531.493,570.307,531.521,569.632,531.521Z" transform="translate(-565.559 -528.224)" fill="url(#linear-gradient-43)"/>
          <path id="Trazado_627990" data-name="Trazado 627990" d="M573.081,520.095a16.173,16.173,0,0,1-3.377-.307.094.094,0,1,1,.041-.183,19.565,19.565,0,0,0,5.421.217,18.462,18.462,0,0,0,5.639-1.22.094.094,0,0,1,.078.171,18.642,18.642,0,0,1-5.7,1.236C574.463,520.066,573.756,520.095,573.081,520.095Z" transform="translate(-568.995 -518.593)" fill="url(#linear-gradient-44)"/>
        </g>
        <path id="Trazado_627991" data-name="Trazado 627991" d="M493.533,256a13.207,13.207,0,0,0-2.365-4.617,30.562,30.562,0,0,1-6.584-17.02c-.679-11.828,9.811-17.75,19.384-16.946s19.018,7.932,17.984,18.935c-.636,6.771-4.426,11.906-7.248,14.856a15.668,15.668,0,0,0-3.762,6.665c-.847,3.057-2.862,6.867-7.652,7.1C497.094,265.268,494.52,259.491,493.533,256Z" transform="translate(-484.553 -217.34)" fill="#f3c035"/>
        <path id="Trazado_627992" data-name="Trazado 627992" d="M614.727,385.883l3.35-21.785c.069-.45.291-.752.495-.675s.313.5.244.955l-.006.039L614.993,386c-.029.162-.111.265-.184.229S614.7,386.04,614.727,385.883Z" transform="translate(-594.405 -340.614)" fill="#12263f"/>
        <path id="Trazado_627993" data-name="Trazado 627993" d="M570.269,386.992l-3.349-21.785c-.069-.45-.291-.752-.495-.675s-.313.5-.244.955l.006.039L570,387.108c.029.162.111.265.184.229S570.293,387.149,570.269,386.992Z" transform="translate(-553.424 -341.55)" fill="#12263f"/>
        <path id="Trazado_627994" data-name="Trazado 627994" d="M582.929,341.579a.351.351,0,0,0-.44-.114l-1.865.871-.647-1.845a.4.4,0,0,0-.227-.228.461.461,0,0,0-.573.177l0,.006-1.534,2.8-1.423-3.981,0-.007a.454.454,0,0,0-.216-.243.558.558,0,0,0-.7.139L573.15,342.1a.259.259,0,0,0,.076.373.359.359,0,0,0,.456-.049l1.888-2.106,1.7,3.787v0a.3.3,0,0,0,.15.147.355.355,0,0,0,.445-.115l1.641-2.632.617,1.331.005.012a.259.259,0,0,0,.016.028.351.351,0,0,0,.439.114l2.214-1.034A.263.263,0,0,0,582.929,341.579Z" transform="translate(-559.281 -319.966)" fill="#fff" opacity="0.83"/>
        <path id="Trazado_627995" data-name="Trazado 627995" d="M676.925,399.562a.237.237,0,0,1-.143-.047.24.24,0,0,1-.05-.336A24.92,24.92,0,0,0,678.3,396.8a.24.24,0,1,1,.416.24,25.365,25.365,0,0,1-1.6,2.424A.239.239,0,0,1,676.925,399.562Z" transform="translate(-646.7 -368.692)" fill="#fff" opacity="0.83"/>
        <path id="Trazado_627996" data-name="Trazado 627996" d="M694.58,298.929a.24.24,0,0,1-.22-.336,20.047,20.047,0,0,0,.454-15.212.24.24,0,0,1,.436-.2,20.571,20.571,0,0,1-.45,15.6A.24.24,0,0,1,694.58,298.929Z" transform="translate(-661.6 -272.788)" fill="#fff" opacity="0.83"/>
      </g>
    </g>
  </g>
</svg>
