<svg xmlns="http://www.w3.org/2000/svg" xmlns:xlink="http://www.w3.org/1999/xlink" width="508.678" height="581.831" viewBox="0 0 508.678 581.831">
  <defs>
    <clipPath id="clip-path">
      <rect id="Rectángulo_297811" data-name="Rectángulo 297811" width="321.943" height="151.655" fill="#e5fdf3"/>
    </clipPath>
    <clipPath id="clip-path-2">
      <rect id="Rectángulo_297811-2" data-name="Rectángulo 297811" width="149.235" height="75.411" fill="#fff4d6"/>
    </clipPath>
    <linearGradient id="linear-gradient" x1="0.5" x2="0.5" y2="1" gradientUnits="objectBoundingBox">
      <stop offset="0" stop-color="#fff"/>
      <stop offset="1" stop-color="#dedede"/>
    </linearGradient>
    <linearGradient id="linear-gradient-2" x1="1.625" y1="1.477" x2="0.414" y2="0.411" gradientUnits="objectBoundingBox">
      <stop offset="0" stop-color="#ffc444"/>
      <stop offset="0.996" stop-color="#f36f56"/>
    </linearGradient>
    <linearGradient id="linear-gradient-3" x1="0.291" y1="0.182" x2="1.221" y2="1.597" xlink:href="#linear-gradient-2"/>
    <linearGradient id="linear-gradient-6" x1="0.5" x2="0.5" y2="1" gradientUnits="objectBoundingBox">
      <stop offset="0" stop-color="#dedede"/>
      <stop offset="0.517" stop-color="#fff"/>
      <stop offset="1" stop-color="#dedede"/>
    </linearGradient>
    <linearGradient id="linear-gradient-7" x1="0.531" y1="0.127" x2="0.328" y2="1.542" gradientUnits="objectBoundingBox">
      <stop offset="0" stop-color="#2b3582"/>
      <stop offset="1" stop-color="#150e42"/>
    </linearGradient>
    <linearGradient id="linear-gradient-8" x1="0.457" y1="1.875" x2="-0.174" y2="23.66" gradientUnits="objectBoundingBox">
      <stop offset="0" stop-color="#53d8ff"/>
      <stop offset="1" stop-color="#3840f7"/>
    </linearGradient>
    <linearGradient id="linear-gradient-9" x1="0.416" y1="2.737" x2="-0.105" y2="17.472" xlink:href="#linear-gradient-8"/>
    <linearGradient id="linear-gradient-10" x1="0.379" y1="3.815" x2="-0.133" y2="18.536" xlink:href="#linear-gradient-8"/>
    <linearGradient id="linear-gradient-11" x1="0.332" y1="5.008" x2="-0.21" y2="19.869" xlink:href="#linear-gradient-8"/>
  </defs>
  <g id="Grupo_947542" data-name="Grupo 947542" transform="translate(-915 -6423.859)">
    <g id="Grupo_946998" data-name="Grupo 946998" transform="translate(1420 6674.747) rotate(90)">
      <g id="Grupo_877996" data-name="Grupo 877996" transform="translate(0 0)" clip-path="url(#clip-path)">
        <path id="Trazado_599836" data-name="Trazado 599836" d="M160.972,151.655C72.069,151.655,0,84.472,0,1.6,0,1.063.016.533.022,0h321.9c.006.533.022,1.063.022,1.6,0,82.875-72.069,150.059-160.972,150.059" transform="translate(0 0)" fill="#e5fdf3"/>
      </g>
    </g>
    <g id="Grupo_946997" data-name="Grupo 946997" transform="translate(990.411 6423.859) rotate(90)">
      <g id="Grupo_877996-2" data-name="Grupo 877996" clip-path="url(#clip-path-2)">
        <path id="Trazado_599836-2" data-name="Trazado 599836" d="M74.618,0A74.617,74.617,0,0,0,0,74.618c0,.265.007.529.01.794H149.225c0-.265.01-.529.01-.794A74.617,74.617,0,0,0,74.618,0" fill="#fff4d6"/>
      </g>
    </g>
    <g id="Grupo_947348" data-name="Grupo 947348" transform="translate(702.854 6431.379)">
      <g id="Grupo_947313" data-name="Grupo 947313" transform="translate(309.691 48.944)">
        <g id="Grupo_947310" data-name="Grupo 947310" transform="translate(0)">
          <path id="Trazado_628522" data-name="Trazado 628522" d="M19.532,0H176.781a19.532,19.532,0,0,1,19.532,19.532V363.658a19.532,19.532,0,0,1-19.532,19.532H19.532A19.532,19.532,0,0,1,0,363.658V19.532A19.532,19.532,0,0,1,19.532,0Z" fill="#12263f"/>
          <path id="Trazado_628439" data-name="Trazado 628439" d="M465.445,48.392H427.4a8.538,8.538,0,0,0-5.473,1.985l-5.914,4.944a8.535,8.535,0,0,1-5.471,1.985H370.972a8.535,8.535,0,0,1-5.471-1.985l-5.915-4.944a8.532,8.532,0,0,0-5.471-1.985H316.07a19.2,19.2,0,0,0-19.2,19.2V403.845a19.2,19.2,0,0,0,19.2,19.2H465.445a19.2,19.2,0,0,0,19.2-19.2V67.589A19.2,19.2,0,0,0,465.445,48.392Z" transform="translate(-292.602 -44.121)" fill="url(#linear-gradient)"/>
          <g id="Grupo_947309" data-name="Grupo 947309" transform="translate(83.512 5.238)">
            <g id="Grupo_947307" data-name="Grupo 947307" transform="translate(0 0.008)">
              <path id="Trazado_628440" data-name="Trazado 628440" d="M383.69,52.772H364.6a1.784,1.784,0,0,1,0-3.568H383.69a1.784,1.784,0,1,1,0,3.568Z" transform="translate(-362.814 -49.204)" fill="#c7e2ff"/>
            </g>
            <g id="Grupo_947308" data-name="Grupo 947308" transform="translate(25.72)">
              <path id="Trazado_628441" data-name="Trazado 628441" d="M386,52.768a1.805,1.805,0,0,1-1.66-2.462,1.814,1.814,0,0,1,.393-.571,1.729,1.729,0,0,1,1.605-.5,1.076,1.076,0,0,1,.339.108.962.962,0,0,1,.3.161,1.142,1.142,0,0,1,.266.232,1.534,1.534,0,0,1,.394.571,1.734,1.734,0,0,1-.394,1.944A1.7,1.7,0,0,1,386,52.768Z" transform="translate(-384.217 -49.197)" fill="#c7e2ff"/>
            </g>
          </g>
        </g>
        <g id="Grupo_947311" data-name="Grupo 947311" transform="translate(24.024 170.936)">
          <path id="Trazado_628442" data-name="Trazado 628442" d="M390.606,197.912H347.281a5.414,5.414,0,0,1,0-10.828h43.326a5.414,5.414,0,0,1,0,10.828ZM421.5,192.5a5.413,5.413,0,0,0-5.414-5.415H406.1a5.414,5.414,0,1,0,0,10.828h9.981A5.413,5.413,0,0,0,421.5,192.5Z" transform="translate(-307.552 -187.084)" fill="#dee4f0"/>
          <path id="Trazado_628443" data-name="Trazado 628443" d="M452.275,224.736H322.608a9.3,9.3,0,0,1-9.3-9.3h0a9.3,9.3,0,0,1,9.3-9.3H452.275a9.3,9.3,0,0,1,9.3,9.3h0A9.3,9.3,0,0,1,452.275,224.736Z" transform="translate(-313.311 -183.24)" fill="#fff"/>
          <path id="Trazado_628444" data-name="Trazado 628444" d="M452.275,250.527H322.608a9.3,9.3,0,0,1-9.3-9.3h0a9.3,9.3,0,0,1,9.3-9.3H452.275a9.3,9.3,0,0,1,9.3,9.3h0A9.3,9.3,0,0,1,452.275,250.527Z" transform="translate(-313.311 -178.039)" fill="#fff"/>
          <path id="Trazado_628445" data-name="Trazado 628445" d="M355.454,217.068v-.091a2.4,2.4,0,0,1-1.663.734,2.313,2.313,0,0,1-1.83-.857,3.368,3.368,0,0,1-.7-2.156v-2.482a.646.646,0,0,1,1.292,0v2.494a1.907,1.907,0,0,0,.376,1.24,1.243,1.243,0,0,0,1.013.475,1.408,1.408,0,0,0,1.084-.481,1.733,1.733,0,0,0,.429-1.2v-2.507a.633.633,0,0,1,.643-.643.661.661,0,0,1,.46.183.628.628,0,0,1,.189.46v4.831a.6.6,0,0,1-.195.454.658.658,0,0,1-.467.195A.627.627,0,0,1,355.454,217.068Zm3.893.448a1.9,1.9,0,0,1-.961-.838.727.727,0,0,1-.1-.358.51.51,0,0,1,.078-.285.576.576,0,0,1,.519-.286.73.73,0,0,1,.578.305,1.36,1.36,0,0,0,1.786.409.527.527,0,0,0,.286-.473.47.47,0,0,0-.1-.318,1.159,1.159,0,0,0-.6-.363l-.351-.111a5.122,5.122,0,0,1-1.408-.669,1.386,1.386,0,0,1-.636-1.168,1.636,1.636,0,0,1,.655-1.305,2.427,2.427,0,0,1,1.48-.482,2.862,2.862,0,0,1,1.1.215,1.471,1.471,0,0,1,.786.656.649.649,0,0,1,.071.285.5.5,0,0,1-.143.351.547.547,0,0,1-.422.195.462.462,0,0,1-.215-.046l-.26-.195c-.124-.084-.208-.142-.246-.162a1.148,1.148,0,0,0-.584-.162c-.553,0-.929.215-.929.61a.566.566,0,0,0,.318.481,3.305,3.305,0,0,0,.786.311,4.2,4.2,0,0,1,1.363.618,1.456,1.456,0,0,1,.585,1.208,1.69,1.69,0,0,1-.624,1.305,2.39,2.39,0,0,1-1.559.532A3,3,0,0,1,359.347,217.516Zm5.613-.643a3.081,3.081,0,0,1,0-4.384,3.115,3.115,0,0,1,4.377-.006,3.07,3.07,0,0,1,.929,2.169.6.6,0,0,1-.637.616H365.48a1.776,1.776,0,0,0,.616.91,1.7,1.7,0,0,0,1.059.357,1.494,1.494,0,0,0,1.163-.461.665.665,0,0,1,.428-.162.589.589,0,0,1,.525.311.662.662,0,0,1,.112.364.622.622,0,0,1-.248.487,2.5,2.5,0,0,1-.766.494,3.317,3.317,0,0,1-1.215.208A3.11,3.11,0,0,1,364.96,216.873Zm3.974-2.682a1.773,1.773,0,0,0-.616-.979,1.823,1.823,0,0,0-1.143-.391,1.728,1.728,0,0,0-1.131.391,1.751,1.751,0,0,0-.6.979Zm3.114,3.325a.628.628,0,0,1-.195-.455V212.23a.643.643,0,0,1,.195-.461.635.635,0,0,1,.461-.187.6.6,0,0,1,.454.187.651.651,0,0,1,.183.461,3.222,3.222,0,0,1,1.935-.642h.026a.612.612,0,0,1,.668.642.649.649,0,0,1-.668.643h-.026a1.9,1.9,0,0,0-1.363.572,1.94,1.94,0,0,0-.572,1.389v2.227a.644.644,0,0,1-1.1.455Zm9.359-.435v-2.493a2,2,0,0,0-.37-1.247,1.243,1.243,0,0,0-1.019-.467,1.4,1.4,0,0,0-1.085.481,1.849,1.849,0,0,0-.428,1.2v2.506a.632.632,0,0,1-.643.643.625.625,0,0,1-.454-.187.619.619,0,0,1-.195-.455V212.23a.6.6,0,0,1,.195-.461.665.665,0,0,1,.46-.187.6.6,0,0,1,.455.187.65.65,0,0,1,.181.461v.091a2.4,2.4,0,0,1,1.656-.733,2.306,2.306,0,0,1,1.831.85,3.346,3.346,0,0,1,.7,2.15v2.493a.643.643,0,0,1-1.286,0Zm3.719-.208a3.095,3.095,0,1,1,5.279-2.215v2.383a.683.683,0,0,1-.189.469.65.65,0,0,1-.473.193.632.632,0,0,1-.631-.591,2.779,2.779,0,0,1-1.8.669A3.091,3.091,0,0,1,385.126,216.873Zm3.467-.923a1.811,1.811,0,0,0,0-2.538,1.8,1.8,0,1,0,0,2.538Zm3.952,1.566a.619.619,0,0,1-.195-.455V212.23a.6.6,0,0,1,.195-.461.665.665,0,0,1,.46-.187.629.629,0,0,1,.624.54,1.86,1.86,0,0,1,1.279-.54,2.069,2.069,0,0,1,1.65.759,2.766,2.766,0,0,1,1.857-.759,2.065,2.065,0,0,1,1.585.689,2.5,2.5,0,0,1,.6,1.668v3.13a.625.625,0,0,1-.636.636.66.66,0,0,1-.461-.187.6.6,0,0,1-.195-.448v-3.15a1.127,1.127,0,0,0-.279-.746.984.984,0,0,0-.721-.292,1.321,1.321,0,0,0-.8.3,1.007,1.007,0,0,0-.389.714v3.176a.625.625,0,0,1-.636.636.662.662,0,0,1-.461-.187.6.6,0,0,1-.2-.448v-3.176a1.043,1.043,0,0,0-.285-.726.94.94,0,0,0-.708-.286,1.3,1.3,0,0,0-.8.292.972.972,0,0,0-.389.714v.04c-.006.006-.006.012,0,.025a.078.078,0,0,1,0,.053v3.057a.632.632,0,0,1-.643.643A.625.625,0,0,1,392.545,217.516Zm10.466-.643a3.081,3.081,0,0,1,0-4.384,3.115,3.115,0,0,1,4.377-.006,3.065,3.065,0,0,1,.929,2.169.6.6,0,0,1-.637.616H403.53a1.776,1.776,0,0,0,.616.91,1.7,1.7,0,0,0,1.059.357,1.494,1.494,0,0,0,1.163-.461.665.665,0,0,1,.428-.162.61.61,0,0,1,.214.038.631.631,0,0,1,.312.273.671.671,0,0,1,.111.364.619.619,0,0,1-.248.487,2.5,2.5,0,0,1-.765.494,3.318,3.318,0,0,1-1.215.208A3.112,3.112,0,0,1,403.011,216.873Zm3.974-2.682a1.773,1.773,0,0,0-.616-.979,1.823,1.823,0,0,0-1.143-.391,1.727,1.727,0,0,0-1.131.391,1.751,1.751,0,0,0-.6.979Z" transform="translate(-305.657 -182.145)" fill="#d6e9ed"/>
          <path id="Trazado_628446" data-name="Trazado 628446" d="M360.624,241.573a.607.607,0,0,1-.195-.461v-.258l-.189.109a.61.61,0,0,1-.388.124.62.62,0,0,1-.52-.266.641.641,0,0,1-.123-.4.634.634,0,0,1,.273-.519l.324-.195-.312-.189a.584.584,0,0,1-.285-.506.641.641,0,0,1,.123-.4.681.681,0,0,1,.429-.266.469.469,0,0,1,.109-.007.611.611,0,0,1,.377.123l.181.112v-.254a.658.658,0,0,1,.669-.656.633.633,0,0,1,.636.656v.246l.162-.1a.558.558,0,0,1,.377-.123.712.712,0,0,1,.538.266.615.615,0,0,1,.123.389.473.473,0,0,1-.006.1.6.6,0,0,1-.279.415l-.311.189.324.189a.652.652,0,0,1-.37,1.181.615.615,0,0,1-.389-.13l-.169-.1v.252a.656.656,0,0,1-.649.657A.658.658,0,0,1,360.624,241.573Zm5.7,0a.607.607,0,0,1-.195-.461v-.258l-.187.109a.655.655,0,0,1-.91-.142.641.641,0,0,1-.123-.4.634.634,0,0,1,.273-.519l.324-.195-.312-.189a.584.584,0,0,1-.285-.506.64.64,0,0,1,.123-.4.681.681,0,0,1,.429-.266.474.474,0,0,1,.111-.007.61.61,0,0,1,.376.123l.181.112v-.254a.658.658,0,0,1,.669-.656.633.633,0,0,1,.636.656v.246l.163-.1a.554.554,0,0,1,.376-.123.716.716,0,0,1,.54.266.622.622,0,0,1,.123.389.4.4,0,0,1-.007.1.6.6,0,0,1-.279.415l-.311.189.326.189a.632.632,0,0,1,.264.526.639.639,0,0,1-.634.655.619.619,0,0,1-.391-.13l-.169-.1v.252a.656.656,0,0,1-.649.657A.66.66,0,0,1,366.328,241.573Zm5.7,0a.607.607,0,0,1-.195-.461v-.258l-.187.109a.655.655,0,0,1-.91-.142.648.648,0,0,1-.123-.4.634.634,0,0,1,.273-.519l.324-.195-.311-.189a.583.583,0,0,1-.286-.506.648.648,0,0,1,.123-.4.684.684,0,0,1,.429-.266.475.475,0,0,1,.111-.007.608.608,0,0,1,.376.123l.181.112v-.254a.658.658,0,0,1,.669-.656.633.633,0,0,1,.636.656v.246l.163-.1a.554.554,0,0,1,.376-.123.715.715,0,0,1,.54.266.622.622,0,0,1,.123.389.471.471,0,0,1-.006.1.6.6,0,0,1-.28.415l-.31.189.324.189a.634.634,0,0,1,.266.526.642.642,0,0,1-.636.655.621.621,0,0,1-.391-.13l-.169-.1v.252a.628.628,0,0,1-.187.461.636.636,0,0,1-.461.2A.66.66,0,0,1,372.032,241.573Zm5.7,0a.6.6,0,0,1-.195-.461v-.258l-.189.109a.613.613,0,0,1-.389.124.621.621,0,0,1-.52-.266.648.648,0,0,1-.123-.4.634.634,0,0,1,.273-.519l.326-.195-.312-.189a.585.585,0,0,1-.286-.506.648.648,0,0,1,.123-.4.687.687,0,0,1,.43-.266.464.464,0,0,1,.109-.007.606.606,0,0,1,.376.123l.183.112v-.254a.658.658,0,0,1,.669-.656.634.634,0,0,1,.636.656v.246l.162-.1a.554.554,0,0,1,.376-.123.713.713,0,0,1,.54.266.615.615,0,0,1,.123.389.473.473,0,0,1-.006.1.6.6,0,0,1-.279.415l-.311.189.324.189a.634.634,0,0,1,.266.526.642.642,0,0,1-.636.655.621.621,0,0,1-.391-.13l-.168-.1v.252a.656.656,0,0,1-.65.657A.655.655,0,0,1,377.736,241.573Zm5.7,0a.607.607,0,0,1-.195-.461v-.258l-.189.109a.61.61,0,0,1-.388.124.62.62,0,0,1-.52-.266.641.641,0,0,1-.123-.4.634.634,0,0,1,.273-.519l.324-.195-.312-.189a.584.584,0,0,1-.285-.506.64.64,0,0,1,.123-.4.681.681,0,0,1,.429-.266.469.469,0,0,1,.109-.007.611.611,0,0,1,.377.123l.181.112v-.254a.658.658,0,0,1,.669-.656.633.633,0,0,1,.636.656v.246l.162-.1a.558.558,0,0,1,.377-.123.712.712,0,0,1,.538.266.615.615,0,0,1,.124.389.393.393,0,0,1-.007.1.6.6,0,0,1-.279.415l-.311.189.325.189a.652.652,0,0,1-.37,1.181.615.615,0,0,1-.389-.13l-.169-.1v.252a.656.656,0,0,1-.649.657A.66.66,0,0,1,383.44,241.573Zm5.7,0a.607.607,0,0,1-.195-.461v-.258l-.187.109a.655.655,0,0,1-.91-.142.648.648,0,0,1-.123-.4A.634.634,0,0,1,388,239.9l.324-.195-.311-.189a.583.583,0,0,1-.286-.506.648.648,0,0,1,.123-.4.681.681,0,0,1,.429-.266.475.475,0,0,1,.111-.007.608.608,0,0,1,.376.123l.181.112v-.254a.658.658,0,0,1,.669-.656.633.633,0,0,1,.636.656v.246l.163-.1a.555.555,0,0,1,.376-.123.715.715,0,0,1,.54.266.622.622,0,0,1,.123.389.471.471,0,0,1-.006.1.6.6,0,0,1-.28.415l-.31.189.324.189a.633.633,0,0,1,.266.526.642.642,0,0,1-.636.655.621.621,0,0,1-.391-.13l-.169-.1v.252a.628.628,0,0,1-.187.461.636.636,0,0,1-.461.2A.66.66,0,0,1,389.143,241.573Zm5.7,0a.606.606,0,0,1-.193-.461v-.258l-.189.109a.655.655,0,0,1-.91-.142.648.648,0,0,1-.123-.4.634.634,0,0,1,.273-.519l.324-.195-.311-.189a.583.583,0,0,1-.286-.506.648.648,0,0,1,.123-.4.684.684,0,0,1,.429-.266.479.479,0,0,1,.111-.007.608.608,0,0,1,.376.123l.183.112v-.254a.658.658,0,0,1,.669-.656.633.633,0,0,1,.634.656v.246l.163-.1a.554.554,0,0,1,.376-.123.715.715,0,0,1,.54.266.622.622,0,0,1,.123.389.473.473,0,0,1-.006.1.608.608,0,0,1-.28.415l-.31.189.324.189a.633.633,0,0,1,.266.526.642.642,0,0,1-.636.655.621.621,0,0,1-.391-.13l-.169-.1v.252a.628.628,0,0,1-.187.461.636.636,0,0,1-.461.2A.66.66,0,0,1,394.847,241.573Z" transform="translate(-304.054 -176.881)" fill="#d6e9ed"/>
          <path id="Trazado_628447" data-name="Trazado 628447" d="M409.905,275.135H352.489a8.218,8.218,0,0,1-8.218-8.218h0a8.218,8.218,0,0,1,8.218-8.218h57.416a8.218,8.218,0,0,1,8.218,8.218h0A8.218,8.218,0,0,1,409.905,275.135Z" transform="translate(-307.067 -172.64)" fill="#f3c035"/>
        </g>
        <g id="Grupo_947312" data-name="Grupo 947312" transform="translate(48.452 48.837)">
          <circle id="Elipse_8231" data-name="Elipse 8231" cx="37.362" cy="37.362" r="37.362" transform="translate(0 31.775) rotate(-25.165)" fill="#12263f"/>
          <path id="Trazado_628448" data-name="Trazado 628448" d="M392.259,114.95a12.516,12.516,0,1,1-12.516-12.517A12.516,12.516,0,0,1,392.259,114.95Zm-12.516,16.812a42.272,42.272,0,0,0-28.261,10.826,30.25,30.25,0,0,0,56.523,0A42.274,42.274,0,0,0,379.743,131.762Z" transform="translate(-330.04 -82.058)" fill="#fff"/>
        </g>
      </g>
      <g id="Grupo_947314" data-name="Grupo 947314" transform="translate(242.261 341.909)">
        <path id="Trazado_628449" data-name="Trazado 628449" d="M377.419,291.571h-84.1v63.258h84.1a7.21,7.21,0,0,0,7.209-7.21V298.78A7.209,7.209,0,0,0,377.419,291.571Z" transform="translate(-225.888 -288.039)" fill="#001a2d"/>
        <path id="Rectángulo_341868" data-name="Rectángulo 341868" d="M6,0H156.272a6,6,0,0,1,6,6V57.258a6,6,0,0,1-6,6H6a6,6,0,0,1-6-6V6A6,6,0,0,1,6,0Z" fill="#04467a"/>
        <path id="Rectángulo_341869" data-name="Rectángulo 341869" d="M1.121,0H42.952a1.121,1.121,0,0,1,1.121,1.121v.662a1.121,1.121,0,0,1-1.121,1.121H1.122A1.122,1.122,0,0,1,0,1.784V1.121A1.121,1.121,0,0,1,1.121,0Z" transform="translate(87.581 22.425)" fill="#2a628f"/>
        <path id="Rectángulo_341870" data-name="Rectángulo 341870" d="M1.121,0H42.952a1.121,1.121,0,0,1,1.121,1.121v.663a1.121,1.121,0,0,1-1.121,1.121H1.122A1.122,1.122,0,0,1,0,1.784V1.121A1.121,1.121,0,0,1,1.121,0Z" transform="translate(87.581 44.448)" fill="#2a628f"/>
        <rect id="Rectángulo_341871" data-name="Rectángulo 341871" width="43.337" height="36.633" transform="translate(13.38 13.391)" fill="#fff"/>
        <path id="Trazado_628450" data-name="Trazado 628450" d="M301.341,330.79a6.292,6.292,0,1,1,6.292-6.292A6.292,6.292,0,0,1,301.341,330.79Z" transform="translate(-225.54 -282.667)" fill="#6ca8f7"/>
        <path id="Trazado_628451" data-name="Trazado 628451" d="M301.341,312.463a6.292,6.292,0,1,1,6.292-6.292A6.293,6.293,0,0,1,301.341,312.463Z" transform="translate(-225.54 -286.363)" fill="#6ca8f7"/>
        <path id="Trazado_628452" data-name="Trazado 628452" d="M349.208,327.073a1.452,1.452,0,0,1,1.453-1.453h4.147a1.452,1.452,0,1,1,0,2.9h-4.147A1.452,1.452,0,0,1,349.208,327.073Z" transform="translate(-214.617 -281.171)" fill="#6ca8f7"/>
        <path id="Rectángulo_341872" data-name="Rectángulo 341872" d="M1.122,0H62.5a1.122,1.122,0,0,1,1.122,1.122v.662A1.121,1.121,0,0,1,62.5,2.905H1.121A1.121,1.121,0,0,1,0,1.784V1.122A1.122,1.122,0,0,1,1.122,0Z" transform="translate(87.581 37.198)" fill="#2a628f"/>
        <path id="Trazado_628453" data-name="Trazado 628453" d="M349.208,308.745a1.452,1.452,0,0,1,1.453-1.452h4.147a1.452,1.452,0,1,1,0,2.9h-4.147A1.452,1.452,0,0,1,349.208,308.745Z" transform="translate(-214.617 -284.868)" fill="#6ca8f7"/>
        <path id="Rectángulo_341873" data-name="Rectángulo 341873" d="M1.122,0H62.5a1.122,1.122,0,0,1,1.122,1.122v.662A1.121,1.121,0,0,1,62.5,2.905H1.121A1.121,1.121,0,0,1,0,1.784V1.122A1.122,1.122,0,0,1,1.122,0Z" transform="translate(87.581 15.174)" fill="#2a628f"/>
      </g>
      <g id="Grupo_947315" data-name="Grupo 947315" transform="translate(473.611 24.479)">
        <path id="Trazado_628454" data-name="Trazado 628454" d="M462.119,68.309v3.5H435.136a5.413,5.413,0,0,1-5.409-5.421V44.838h8.92A23.476,23.476,0,0,1,462.119,68.309Z" transform="translate(-429.727 -20.373)" fill="#001a2d"/>
        <rect id="Rectángulo_341874" data-name="Rectángulo 341874" width="65.726" height="41.799" rx="4.279" transform="translate(2.643 7.139)" fill="#636363"/>
        <circle id="Elipse_8232" data-name="Elipse 8232" cx="7.931" cy="7.931" r="7.931" transform="translate(60.438)" fill="#f3c035"/>
        <path id="Trazado_628455" data-name="Trazado 628455" d="M486.172,37.68l-23.033,14.5-23.033-14.5" transform="translate(-427.634 -21.817)" fill="none" stroke="#12263f" stroke-linecap="round" stroke-linejoin="round" stroke-width="2.037"/>
        <line id="Línea_438" data-name="Línea 438" x2="7.845" y2="6.024" transform="translate(50.693 32.806)" fill="none" stroke="#12263f" stroke-linecap="round" stroke-linejoin="round" stroke-width="2.037"/>
        <line id="Línea_439" data-name="Línea 439" y1="6.024" x2="7.845" transform="translate(12.473 32.806)" fill="none" stroke="#12263f" stroke-linecap="round" stroke-linejoin="round" stroke-width="2.037"/>
      </g>
      <g id="Grupo_947317" data-name="Grupo 947317" transform="translate(469.452 111.752)">
        <rect id="Rectángulo_341875" data-name="Rectángulo 341875" width="49.808" height="33.689" rx="3.526" transform="translate(0)" fill="#294ddc"/>
        <g id="Grupo_947316" data-name="Grupo 947316" transform="translate(20.572 10.864)">
          <path id="Trazado_628456" data-name="Trazado 628456" d="M453.744,112.125l-5.179,2.99-5.179,2.99V106.145l5.179,2.99Z" transform="translate(-443.385 -106.145)" fill="#fff"/>
        </g>
      </g>
      <path id="Trazado_628460" data-name="Trazado 628460" d="M491.8,264.881a9.689,9.689,0,0,0-19.36-.18c-.007.141-.012.281-.012.424a9.5,9.5,0,0,0,1.39,4.963l-1.747,5.16,5.363-1.705a9.7,9.7,0,0,0,14.371-8.418C491.807,265.043,491.8,264.961,491.8,264.881Zm-9.683,8.327a8.133,8.133,0,0,1-4.481-1.339l-3.132,1,1.019-3a8,8,0,0,1-1.551-4.738c0-.266.014-.525.04-.783a8.149,8.149,0,0,1,16.224.151c.016.208.028.419.028.631A8.125,8.125,0,0,1,482.119,273.207Zm4.615-5.869a1.963,1.963,0,0,1-.139,1.121,2.4,2.4,0,0,1-1.6,1.12c-.435.041-.435.355-2.85-.589a9.725,9.725,0,0,1-4.057-3.557,5.42,5.42,0,0,1-.848-1.637,2.991,2.991,0,0,1-.123-.8,2.628,2.628,0,0,1,.833-1.964.872.872,0,0,1,.635-.3c.156,0,.314.02.454.02s.334-.079.532.393.675,1.632.735,1.748a.436.436,0,0,1,.018.415,2.681,2.681,0,0,1-.15.279,1.1,1.1,0,0,1-.089.114c-.117.136-.248.306-.354.411s-.244.246-.1.481a7.036,7.036,0,0,0,1.321,1.632,6.415,6.415,0,0,0,1.911,1.169c.237.119.375.1.514-.059s.594-.687.752-.922.316-.2.535-.119,1.384.648,1.623.767S486.671,267.241,486.734,267.338Z" transform="translate(52.425 46.597)" fill="#4873e6" opacity="0.2" style="mix-blend-mode: multiply;isolation: isolate"/>
      <g id="Grupo_947319" data-name="Grupo 947319" transform="translate(218.38 47.858)" opacity="0.2" style="mix-blend-mode: multiply;isolation: isolate">
        <path id="Trazado_628461" data-name="Trazado 628461" d="M251.062,74.761,240.824,64.524l.5-.5-1.241-1.24a12.315,12.315,0,1,0-3.9,3.9l1.24,1.24.5-.5,10.237,10.237a2.051,2.051,0,0,0,2.9-2.9ZM223,62.905a9.411,9.411,0,1,1,13.309,0A9.409,9.409,0,0,1,223,62.905Z" transform="translate(-217.333 -43.934)" fill="#4873e6"/>
        <path id="Trazado_628462" data-name="Trazado 628462" d="M228.477,48.188a7.158,7.158,0,0,0-5.094,2.11.789.789,0,1,0,1.116,1.116,5.625,5.625,0,0,1,7.955,0,.789.789,0,0,0,1.116-1.116A7.156,7.156,0,0,0,228.477,48.188Z" transform="translate(-216.16 -43.076)" fill="#4873e6"/>
      </g>
      <g id="Grupo_947326" data-name="Grupo 947326" transform="translate(284.695 33.784)">
        <path id="Trazado_628463" data-name="Trazado 628463" d="M316.786,44.842a23.463,23.463,0,0,0-23.464,23.463v16.47h34.3a2.448,2.448,0,0,0,2.447-2.448V44.842Z" transform="translate(-268.323 -29.677)" fill="#001a2d"/>
        <rect id="Rectángulo_341876" data-name="Rectángulo 341876" width="65.282" height="51.566" rx="2.037" fill="#12263f"/>
        <g id="Grupo_947325" data-name="Grupo 947325" transform="translate(9.777 10.382)">
          <g id="Grupo_947320" data-name="Grupo 947320">
            <path id="Trazado_628464" data-name="Trazado 628464" d="M295.608,45.192H282.82a2.165,2.165,0,1,1,0-4.331h12.787a2.165,2.165,0,0,1,0,4.331Z" transform="translate(-280.655 -40.861)" fill="#294ddc"/>
          </g>
          <g id="Grupo_947321" data-name="Grupo 947321" transform="translate(18.144 27.635)">
            <path id="Trazado_628465" data-name="Trazado 628465" d="M321.245,68.188H297.919a2.165,2.165,0,1,1,0-4.33h23.326a2.165,2.165,0,1,1,0,4.33Z" transform="translate(-295.754 -63.858)" fill="#f38e1e"/>
          </g>
          <g id="Grupo_947322" data-name="Grupo 947322" transform="translate(0 7.351)">
            <path id="Trazado_628466" data-name="Trazado 628466" d="M324.291,51.309H282.82a2.165,2.165,0,1,1,0-4.331h41.47a2.165,2.165,0,1,1,0,4.331Z" transform="translate(-280.655 -46.978)" fill="#fff"/>
          </g>
          <g id="Grupo_947323" data-name="Grupo 947323" transform="translate(0 14.703)">
            <path id="Trazado_628467" data-name="Trazado 628467" d="M293.138,57.426H282.82a2.165,2.165,0,1,1,0-4.33h10.318a2.165,2.165,0,1,1,0,4.33Z" transform="translate(-280.655 -53.096)" fill="#fff"/>
          </g>
          <g id="Grupo_947324" data-name="Grupo 947324" transform="translate(16.401 14.703)">
            <path id="Trazado_628468" data-name="Trazado 628468" d="M297.518,57.426h-1.05a2.165,2.165,0,0,1,0-4.33h1.05a2.165,2.165,0,1,1,0,4.33Z" transform="translate(-294.303 -53.096)" fill="#ffd852"/>
          </g>
        </g>
      </g>
      <path id="Trazado_628469" data-name="Trazado 628469" d="M222.732,332.883a10.587,10.587,0,1,0,10.587,10.587A10.6,10.6,0,0,0,222.732,332.883Zm8.236,9.455h-3.579a18.857,18.857,0,0,0-1.316-6.484A8.335,8.335,0,0,1,230.968,342.338Zm-8.236,9.455c-.671,0-2.159-2.463-2.376-7.191h4.753C224.892,349.329,223.4,351.793,222.732,351.793Zm-2.376-9.455c.216-4.727,1.705-7.191,2.376-7.191s2.161,2.463,2.377,7.191Zm-.965-6.484a18.857,18.857,0,0,0-1.316,6.484H214.5A8.339,8.339,0,0,1,219.391,335.854Zm-4.9,8.748h3.58a18.857,18.857,0,0,0,1.316,6.484A8.339,8.339,0,0,1,214.5,344.6Zm11.578,6.484a18.857,18.857,0,0,0,1.316-6.484h3.579A8.335,8.335,0,0,1,226.074,351.086Z" transform="translate(0 62.203)" fill="#4873e6" opacity="0.2" style="mix-blend-mode: multiply;isolation: isolate"/>
      <g id="Grupo_947329" data-name="Grupo 947329" transform="translate(529.203 156.268)">
        <path id="Trazado_628470" data-name="Trazado 628470" d="M475.988,178.77a44.637,44.637,0,1,1,34.41,43.435L498.55,234.053v-16.5A44.6,44.6,0,0,1,475.988,178.77Z" transform="translate(-475.988 -134.149)" fill="#fff"/>
        <g id="Grupo_947328" data-name="Grupo 947328" transform="translate(26.414 13.982)">
          <path id="Trazado_628471" data-name="Trazado 628471" d="M526.849,196.881h0a30.846,30.846,0,0,1-21.341,0h0a11.521,11.521,0,0,1-7.537-10.812v-23.09h36.417v23.09A11.523,11.523,0,0,1,526.849,196.881Z" transform="translate(-497.969 -142.316)" fill="#12263f"/>
          <path id="Trazado_628472" data-name="Trazado 628472" d="M523.465,183.665l-4.176,4.176-4.681-4.681-4.681,4.681-4.176-4.176,4.682-4.681-4.682-4.681,4.176-4.176,4.681,4.681,4.681-4.681,4.176,4.176-4.681,4.681Z" transform="translate(-496.4 -140.874)" fill="#707070"/>
          <g id="Grupo_947327" data-name="Grupo 947327" transform="translate(5.384)">
            <path id="Trazado_628473" data-name="Trazado 628473" d="M528.509,166.447h-5.882V154.608a2.945,2.945,0,0,0-2.942-2.942h-8.412a2.945,2.945,0,0,0-2.941,2.942V160.8h-5.883v-6.189a8.834,8.834,0,0,1,8.824-8.824h8.412a8.834,8.834,0,0,1,8.824,8.824Z" transform="translate(-502.449 -145.784)" fill="#707070"/>
          </g>
        </g>
      </g>
      <g id="Grupo_947330" data-name="Grupo 947330" transform="translate(481.84 351.443)">
        <path id="Trazado_628474" data-name="Trazado 628474" d="M460.205,340.177V303.5a18.525,18.525,0,1,0,0,36.68Z" transform="translate(-436.042 -295.205)" fill="#001a2d"/>
        <circle id="Elipse_8233" data-name="Elipse 8233" cx="18.524" cy="18.524" r="18.524" transform="matrix(0.925, -0.379, 0.379, 0.925, 0, 14.045)" fill="#6aceae"/>
        <path id="Trazado_628475" data-name="Trazado 628475" d="M461.677,318.171l4.7-4.7a2.473,2.473,0,1,0-3.5-3.5l-4.7,4.7-4.7-4.7a2.473,2.473,0,1,0-3.5,3.5l4.7,4.7-4.7,4.7a2.473,2.473,0,1,0,3.5,3.5l4.7-4.7,4.7,4.7a2.473,2.473,0,1,0,3.5-3.5Z" transform="translate(-434.017 -294.008)" fill="#fff"/>
      </g>
      <g id="Grupo_947331" data-name="Grupo 947331" transform="matrix(0.438, 0.899, -0.899, 0.438, 641.73, 11.588)">
        <path id="Trazado_628476" data-name="Trazado 628476" d="M272.221,141.468v-5.5l-5.122-.842a15.123,15.123,0,0,0-1.815-4.374l3.03-4.22-3.889-3.889-4.218,3.03a15.154,15.154,0,0,0-4.376-1.815l-.842-5.122h-5.5l-.842,5.122a15.122,15.122,0,0,0-4.374,1.815l-4.22-3.03-3.887,3.889,3.028,4.22a15.226,15.226,0,0,0-1.815,4.374l-5.122.842v5.5l5.122.842a15.226,15.226,0,0,0,1.815,4.374l-3.028,4.22,3.887,3.887,4.22-3.028a15.124,15.124,0,0,0,4.374,1.815l.842,5.122h5.5l.842-5.122a15.156,15.156,0,0,0,4.376-1.815l4.218,3.028,3.889-3.887-3.03-4.22a15.123,15.123,0,0,0,1.815-4.374Zm-19.98,3.659a6.407,6.407,0,1,1,6.408-6.407A6.407,6.407,0,0,1,252.241,145.126Z" transform="translate(-232.261 -72.938)" fill="#727997"/>
        <path id="Trazado_628477" data-name="Trazado 628477" d="M293.6,123.106v-7.082L287,114.94a19.516,19.516,0,0,0-2.337-5.637l3.9-5.433-5.008-5.008-5.433,3.9a19.539,19.539,0,0,0-5.637-2.337l-1.083-6.6h-7.082l-1.083,6.6a19.517,19.517,0,0,0-5.637,2.337l-5.433-3.9-5.008,5.008,3.9,5.433a19.519,19.519,0,0,0-2.337,5.637l-6.6,1.083v7.082l6.6,1.083a19.54,19.54,0,0,0,2.337,5.637l-3.9,5.433,5.008,5.008,5.433-3.9a19.518,19.518,0,0,0,5.637,2.337l1.083,6.6h7.082l1.083-6.6a19.539,19.539,0,0,0,5.637-2.337l5.433,3.9,5.008-5.008-3.9-5.433A19.537,19.537,0,0,0,287,124.189Zm-25.737,4.712a8.254,8.254,0,1,1,8.253-8.253A8.254,8.254,0,0,1,267.865,127.818Z" transform="translate(-223.987 -93.828)" fill="#727997"/>
      </g>
      <path id="Trazado_628478" data-name="Trazado 628478" d="M580.208,229.853v.007H545.823a8.417,8.417,0,1,1,1.491-16.7,16.188,16.188,0,0,1,31.192-5.553,11.169,11.169,0,1,1,1.7,22.246Zm-8.924,13.562-7.042-7.042-7.042,7.042h3.011v9.807H568.2v-9.807Z" transform="translate(65.602 34.892)" fill="#727997" opacity="0.2" style="mix-blend-mode: multiply;isolation: isolate"/>
      <g id="Grupo_947332" data-name="Grupo 947332" transform="translate(222.199 234.042)">
        <path id="Trazado_628479" data-name="Trazado 628479" d="M303.327,213.166h-45.16a19.151,19.151,0,1,0,0,9.708H279.96v5.653a2.32,2.32,0,0,0,2.32,2.319h7.568a2.319,2.319,0,0,0,2.32-2.319V228h4.652v.528a2.32,2.32,0,0,0,2.32,2.319h0a2.32,2.32,0,0,0,2.32-2.319v-5.653h1.86a1.941,1.941,0,0,0,1.942-1.942v-5.825A1.942,1.942,0,0,0,303.327,213.166Zm-63.663,14.3a9.442,9.442,0,1,1,9.443-9.442A9.452,9.452,0,0,1,239.663,227.462Z" transform="translate(-220.512 -198.869)" fill="#fff"/>
      </g>
      <g id="Grupo_947339" data-name="Grupo 947339" transform="translate(496.538 255.486)">
        <path id="Trazado_628480" data-name="Trazado 628480" d="M568.18,248.879c25.165,3.784,42.655,26.834,47.86,50.517a47.812,47.812,0,0,1-10.825,42.482C596.4,351.926,581.1,356.36,568.85,351.01c-6.463-2.822-11.643-7.953-16.034-13.47A94.043,94.043,0,0,1,534.6,298.516a95.32,95.32,0,0,1-2.051-21.581,91.548,91.548,0,0,1,.854-10.819c.627-4.5,4.932-4.969,8.241-8.2,5.691-5.549,14.377-9.711,22.467-9.422A35.69,35.69,0,0,1,568.18,248.879Z" transform="translate(-431.919 -210.306)" fill="#ffd852"/>
        <g id="Grupo_947335" data-name="Grupo 947335" transform="translate(47.825 289.465)">
          <g id="Grupo_947334" data-name="Grupo 947334">
            <g id="Grupo_947333" data-name="Grupo 947333">
              <path id="Trazado_628481" data-name="Trazado 628481" d="M574.253,457.6l8.929,12.2s-13.079,14.78-14.329,14.354,2.725-13.265,2.725-13.265l-6.937-8.337Z" transform="translate(-473.267 -457.595)" fill="#001a2d"/>
              <path id="Trazado_628482" data-name="Trazado 628482" d="M506.113,464.736l2,14.986s-18.558,6.717-19.452,5.746,8.742-10.344,8.742-10.344l-2.1-10.64Z" transform="translate(-488.603 -456.205)" fill="#001a2d"/>
            </g>
          </g>
        </g>
        <path id="Trazado_628483" data-name="Trazado 628483" d="M528.637,258.583c8.057-2.992,22.728-2.811,30.91-.555l8.425,29.183,18.911,52.615-53.79,23.556s-4.974,1.389-6.981-5.87c-4.258-15.395-16.264-58.995-16.264-58.995l-9-17.354A56.741,56.741,0,0,1,528.637,258.583Z" transform="translate(-438.308 -208.723)" fill="#001a2d"/>
        <g id="Grupo_947338" data-name="Grupo 947338" transform="translate(54.581 6.414)">
          <path id="Trazado_628484" data-name="Trazado 628484" d="M502.99,224.74s-7.947.657-8.712,8.186,7.155,14.893,7.155,14.893Z" transform="translate(-494.226 -221.509)" fill="#fcb247"/>
          <g id="Grupo_947336" data-name="Grupo 947336" transform="translate(6.115)">
            <path id="Trazado_628485" data-name="Trazado 628485" d="M533.925,267.565,531.35,246.9s8.5.251,7.151-6.208c-1.2-5.755-7.413-4.29-9.52-.755,0,0-.811-21.149-18.18-17.447s-10.338,26.879-8.663,32.5c2.953,9.894,11.5,12.424,16.765,11.324l1.486,6.167s1.24,5.417,6.273,4.07C533.369,274.749,533.925,267.565,533.925,267.565Z" transform="translate(-499.314 -222.051)" fill="#fcb247"/>
          </g>
          <path id="Trazado_628486" data-name="Trazado 628486" d="M529.054,237.761s-11.039,5.45-12.929,5.885-5.328-1.574-6.022-1.173-2.552,3.526-3.856,3.606-5.768.109-5.768.109l-1.526-5.845,30.484-7.524Z" transform="translate(-493.272 -219.879)" fill="#fcb247"/>
          <path id="Trazado_628487" data-name="Trazado 628487" d="M506.7,240.368a1.807,1.807,0,1,1-2.381-.93A1.808,1.808,0,0,1,506.7,240.368Z" transform="translate(-492.408 -218.575)" fill="#fcb247"/>
          <path id="Trazado_628488" data-name="Trazado 628488" d="M513.714,238.4a1.807,1.807,0,1,1-2.381-.93A1.808,1.808,0,0,1,513.714,238.4Z" transform="translate(-490.993 -218.972)" fill="#fcb247"/>
          <g id="Grupo_947337" data-name="Grupo 947337" transform="translate(0.985 26.2)">
            <path id="Trazado_628489" data-name="Trazado 628489" d="M502.777,244.26s-8.48-2.424-7.678,4.564c.883,7.684,10.169,2.435,10.169,2.435Z" transform="translate(-495.045 -243.854)" fill="#fcb247"/>
          </g>
          <path id="Trazado_628490" data-name="Trazado 628490" d="M515.615,259.819c3.532-.488,9.1-5.6,9.1-5.6s-2.526,6.058-8.345,8.746Z" transform="translate(-489.912 -215.563)" fill="#fcb247"/>
        </g>
        <path id="Trazado_628491" data-name="Trazado 628491" d="M516.434,242.792a8.385,8.385,0,0,1-4.935,6.921" transform="translate(-436.161 -211.454)" fill="none" stroke="#001a2d" stroke-linecap="round" stroke-miterlimit="10" stroke-width="0.672"/>
        <path id="Trazado_628492" data-name="Trazado 628492" d="M508.1,239.913a17.412,17.412,0,0,0,.38,3.817,3.765,3.765,0,0,0,.654,1.619,1.5,1.5,0,0,0,1.556.564" transform="translate(-436.847 -212.035)" fill="none" stroke="#001a2d" stroke-linecap="round" stroke-miterlimit="10" stroke-width="0.672"/>
        <path id="Trazado_628493" data-name="Trazado 628493" d="M501.648,249.563q-.694-2.006-1.387-4.015" transform="translate(-438.427 -210.898)" fill="none" stroke="#001a2d" stroke-linecap="round" stroke-miterlimit="10" stroke-width="0.672"/>
        <path id="Trazado_628494" data-name="Trazado 628494" d="M500.815,247.211h-1.126" transform="translate(-438.543 -210.563)" fill="none" stroke="#001a2d" stroke-linecap="round" stroke-miterlimit="10" stroke-width="0.672"/>
        <path id="Trazado_628495" data-name="Trazado 628495" d="M529.507,236.536a5.03,5.03,0,0,0-3.061,4.14" transform="translate(-433.146 -212.716)" fill="none" stroke="#001a2d" stroke-linecap="round" stroke-miterlimit="10" stroke-width="0.672"/>
        <path id="Trazado_628496" data-name="Trazado 628496" d="M529.52,238.711l-2.248-.5" transform="translate(-432.979 -212.377)" fill="none" stroke="#001a2d" stroke-linecap="round" stroke-miterlimit="10" stroke-width="0.672"/>
        <path id="Trazado_628497" data-name="Trazado 628497" d="M514.241,232.714l-4.557,3.5" transform="translate(-436.527 -213.487)" fill="none" stroke="#001a2d" stroke-linecap="round" stroke-miterlimit="10" stroke-width="0.672"/>
        <path id="Trazado_628498" data-name="Trazado 628498" d="M506.657,236.354l-5.227-.255" transform="translate(-438.191 -212.804)" fill="none" stroke="#001a2d" stroke-linecap="round" stroke-miterlimit="10" stroke-width="0.672"/>
        <path id="Trazado_628499" data-name="Trazado 628499" d="M534,339.619s-52.2,41.915-54.441,53S493.2,496.643,493.2,496.643l22.749-2.164-8.71-92,33.269-22.251s-9.144,29.03-8.235,38.3c.542,5.527,47.345,75.951,47.345,75.951l18.651-11.668-35.689-68s15.712-30.382,24.6-51.887c7.625-18.442,9.116-27.555,4.041-37.113Z" transform="translate(-442.647 -194.709)" fill="#001a2d"/>
        <path id="Trazado_628500" data-name="Trazado 628500" d="M554.479,257.744c27.23,8.765,13.788,69.824,6.3,86.421-6.554,14.533-34.8-48.849-34.8-48.849Z" transform="translate(-433.24 -208.438)" fill="#001a2d"/>
        <path id="Trazado_628501" data-name="Trazado 628501" d="M523.655,219.092c-7.02-2.663-15.491-3.338-22.646-.74a11.516,11.516,0,0,0-6.353,5.051c-3.039,5.646,2.037,11.185,7.613,11.906,7.7,1,16.183.542,22.5-3.98,1.483,5.3,2.433,10.523,3.918,15.824,1.309-2.476,2.489-5.947,3.8-8.421,0,0,3.8-15.806-.363-19.543C528.563,216,523.655,219.092,523.655,219.092Z" transform="translate(-439.742 -216.714)" fill="#001a2d"/>
        <path id="Trazado_628502" data-name="Trazado 628502" d="M544.855,256.335c-8.188,5.56-14.031,30.446-14.031,30.446s-14.2,7.667-14.2,9.331,6.1.693,6.1.693-3.419,4.791-.6,5.516,18.733-23.553,18.733-23.553,15.11-19.763,24.631-14.316,7.181-1.625,7.181-1.625l-13.749-6.493Z" transform="translate(-435.127 -208.723)" fill="#ffd852"/>
        <path id="Trazado_628503" data-name="Trazado 628503" d="M537.733,282.232s4.135-5.712,2.99-6.742-9.006-3.436-10.117-2.8.929,2.935.929,2.935a9.722,9.722,0,0,0-3.458.691c-1.419.675.217,4.014.217,4.014s-2.89-.866-4-.04,1.443,3.211,1.443,3.211-7.8-.018-8.425,1.214,9.249,2.222,9.249,2.222-3.152,5.116,5.187,7.482Z" transform="translate(-434.993 -205.445)" fill="#6ca8f7"/>
        <path id="Trazado_628504" data-name="Trazado 628504" d="M530.033,294.191s20.051,38.645,25.984,37.266,12.736-29.181,12.736-29.181" transform="translate(-432.423 -201.087)" fill="none" stroke="#122a50" stroke-linecap="round" stroke-linejoin="round" stroke-width="0.672"/>
        <path id="Trazado_628505" data-name="Trazado 628505" d="M548.889,269.353l-1.516,34.174-7.326-10.538" transform="translate(-430.403 -206.097)" fill="none" stroke="#122a50" stroke-linecap="round" stroke-linejoin="round" stroke-width="0.672"/>
        <path id="Trazado_628506" data-name="Trazado 628506" d="M527.334,341.4l47.285-12.679" transform="translate(-432.967 -194.123)" fill="none" stroke="#122a50" stroke-linecap="round" stroke-linejoin="round" stroke-width="0.672"/>
        <path id="Trazado_628507" data-name="Trazado 628507" d="M531.352,372.443Q537.29,358.27,543.23,344.1" transform="translate(-432.157 -191.022)" fill="none" stroke="#122a50" stroke-linecap="round" stroke-linejoin="round" stroke-width="0.672"/>
        <path id="Trazado_628508" data-name="Trazado 628508" d="M533.274,348.622c1.041,3.116,2.331,6.232,3.372,9.348" transform="translate(-431.769 -190.109)" fill="none" stroke="#122a50" stroke-linecap="round" stroke-linejoin="round" stroke-width="0.672"/>
        <path id="Trazado_628509" data-name="Trazado 628509" d="M465.3,242.536s.848-10.6-1.21-12.142-7.412,0-7.412,0v16.422Z" transform="translate(-447.217 -214.093)" fill="#6ca8f7"/>
        <path id="Trazado_628510" data-name="Trazado 628510" d="M456.69,271.335c1.927,14.5,5.692,29.613,12.593,35.768,12.2,10.88,52.108-8.378,52.108-8.378l6.877-32.806-48.381,22.91L468,239.579l-11.355,3.27Z" transform="translate(-447.224 -212.102)" fill="#001a2d"/>
        <path id="Trazado_628511" data-name="Trazado 628511" d="M459.531,235.813s-9.776-2.186-10.676-.386,10.676,6.046,10.676,6.046Z" transform="translate(-448.805 -213.083)" fill="#6ca8f7"/>
      </g>
      <g id="Grupo_947341" data-name="Grupo 947341" transform="translate(649.214 329.616)">
        <path id="Trazado_628512" data-name="Trazado 628512" d="M583.148,313.843a25.284,25.284,0,0,0,10.968,20.849c.3-.312.607-.613.89-.937a47.812,47.812,0,0,0,10.825-42.482c-.185-.84-.389-1.68-.6-2.518A25.306,25.306,0,0,0,583.148,313.843Z" transform="translate(-574.386 -276.314)" fill="#001a2d"/>
        <circle id="Elipse_8234" data-name="Elipse 8234" cx="25.318" cy="25.318" r="25.318" transform="translate(0 35.805) rotate(-45)" fill="#6aceae"/>
        <g id="Grupo_947340" data-name="Grupo 947340" transform="translate(27.015 21.19)">
          <path id="Trazado_628513" data-name="Trazado 628513" d="M609.525,320.821v4.445H605.66v-4.474a15.01,15.01,0,0,1-7.323-3.11l2.063-4.155a13,13,0,0,0,7.381,3.081c1.569,0,2.557-.582,2.557-1.657,0-3.457-10.723-1.365-10.723-8.57,0-3.227,2.325-5.463,6.045-6.073v-4.272h3.865v4.242a15.041,15.041,0,0,1,6.363,2.18l-2,4.212a15.865,15.865,0,0,0-6.567-2.179c-1.279,0-2.121.465-2.121,1.4,0,3.371,10.723,1.453,10.723,8.775C615.918,318.235,613.186,320.327,609.525,320.821Z" transform="translate(-598.337 -296.035)" fill="#fff"/>
        </g>
      </g>
      <g id="Grupo_947343" data-name="Grupo 947343" transform="translate(417.063 394.839)">
        <path id="Trazado_628514" data-name="Trazado 628514" d="M414.022,336.169a6.98,6.98,0,0,1,12.09,0l15.2,26.333,15.2,26.333a6.981,6.981,0,0,1-6.046,10.472H389.661a6.981,6.981,0,0,1-6.046-10.472l15.2-26.333Z" transform="translate(-382.67 -332.678)" fill="#f38e1e"/>
        <g id="Grupo_947342" data-name="Grupo 947342" transform="translate(32.946 25.211)">
          <path id="Trazado_628515" data-name="Trazado 628515" d="M410.086,379.386a4.455,4.455,0,1,1,4.452,4.629A4.449,4.449,0,0,1,410.086,379.386Zm.888-19.142-.268-6.587h7.66l-.268,6.587-1.07,12.375h-4.985Z" transform="translate(-410.086 -353.658)" fill="#fff"/>
        </g>
      </g>
      <g id="Grupo_947345" data-name="Grupo 947345" transform="translate(415.08 385.9)">
        <path id="Trazado_628516" data-name="Trazado 628516" d="M408.085,341.81a17.825,17.825,0,0,0-.1-1.888L397.629,357.85A17.539,17.539,0,0,0,408.085,341.81Z" transform="translate(-377.67 -322.278)" fill="#001a2d"/>
        <circle id="Elipse_8235" data-name="Elipse 8235" cx="15.244" cy="15.244" r="15.244" transform="translate(0 30.189) rotate(-81.958)" fill="#ffd852"/>
        <g id="Grupo_947344" data-name="Grupo 947344" transform="translate(11.934 8.428)">
          <path id="Trazado_628517" data-name="Trazado 628517" d="M397.688,347.176v2.676H395.36v-2.693a9.039,9.039,0,0,1-4.409-1.872l1.243-2.5a7.821,7.821,0,0,0,4.444,1.857c.944,0,1.539-.351,1.539-1,0-2.081-6.455-.822-6.455-5.16,0-1.943,1.4-3.289,3.639-3.657v-2.572h2.328v2.554a9.058,9.058,0,0,1,3.831,1.312l-1.206,2.536a9.562,9.562,0,0,0-3.955-1.311c-.769,0-1.277.28-1.277.84,0,2.03,6.457.875,6.457,5.284C401.537,345.619,399.892,346.879,397.688,347.176Z" transform="translate(-390.951 -332.253)" fill="#fff"/>
        </g>
      </g>
      <g id="Grupo_947346" data-name="Grupo 947346" transform="translate(297.146 394.155)">
        <path id="Trazado_628518" data-name="Trazado 628518" d="M275.166,369.057l-.175,5.155a2.522,2.522,0,0,0,2.709,2.614l2.812-.125a31.559,31.559,0,0,0,1.589,7.032l-2.375,1.425a2.841,2.841,0,0,0-1.151,3.784l2.48,4.331c.727,1.27,4.238,2.025,5.6,1.205l.428-1.746a30.686,30.686,0,0,0,5.13,5.052l-1.3,2.149a2.566,2.566,0,0,0,.89,3.672l4.438,2.328c1.3.683,5.519.788,6.328-.553l-1.267-2.706a32.766,32.766,0,0,0,7.27,1.579l-.078,2.283a2.462,2.462,0,0,0,2.661,2.567l5.17-.276a3.031,3.031,0,0,0,2.834-2.853l.077-2.277a36.71,36.71,0,0,0,7.334-2.329l1.092,1.93c.709,1.252,5.06,1.9,6.387,1.083l1.817-3.058a2.829,2.829,0,0,0,1.119-3.73l-1.13-2a38.49,38.49,0,0,0,5.354-5.5l2.1,1.124c1.267.679,5.022,1.026,5.81-.3l.6-5.37a2.554,2.554,0,0,0-.862-3.621l-2.2-1.187a35.424,35.424,0,0,0,2.006-7.072l2.707-.121a2.954,2.954,0,0,0,2.782-2.8l.172-5.048a2.453,2.453,0,0,0-2.6-2.569l-2.866.12a31.531,31.531,0,0,0-1.7-6.726l2.623-1.583a2.805,2.805,0,0,0,1.112-3.706l.5-5.016c-.7-1.257-5.225-.9-6.542-.112l-2.761,1.656a30.576,30.576,0,0,0-4.844-4.689l1.7-2.82a2.579,2.579,0,0,0-.868-3.645l-1.891-2.737c-1.275-.7-5.405.148-6.2,1.465l-1.747,2.89a32.684,32.684,0,0,0-6.711-1.53l.113-3.309a2.513,2.513,0,0,0-2.647-2.616l-5.166.169a2.965,2.965,0,0,0-2.843,2.8l-.113,3.319a36.637,36.637,0,0,0-6.894,2.009l1.026-3.5c-.719-1.275-5-.959-6.35-.162l-4.61,2.719a2.815,2.815,0,0,0-1.144,3.759l1.549,2.737a38.7,38.7,0,0,0-5.308,5.125l.118-1.753c-1.309-.705-5.884.085-6.7,1.422l-2.783,4.559a2.587,2.587,0,0,0,.9,3.7l2.615,1.4a35.566,35.566,0,0,0-2.239,7.007l-2.977.124A3.04,3.04,0,0,0,275.166,369.057Zm19.079,2.269c.386-11.343,10.043-20.891,21.5-21.325,11.393-.433,20.268,8.315,19.886,19.532s-9.88,20.76-21.276,21.316C302.891,391.407,293.858,382.669,294.245,371.326Z" transform="translate(-274.989 -330.721)" fill="url(#linear-gradient-2)"/>
        <path id="Trazado_628519" data-name="Trazado 628519" d="M278.047,369.02l-.175,5.155a2.524,2.524,0,0,0,2.71,2.615l2.811-.126a31.64,31.64,0,0,0,1.59,7.034l-2.376,1.424a2.844,2.844,0,0,0-1.151,3.785l2.481,4.331a2.7,2.7,0,0,0,3.779.814l2.247-1.355a30.6,30.6,0,0,0,5.13,5.052l-1.3,2.15a2.564,2.564,0,0,0,.89,3.671l4.438,2.329a2.956,2.956,0,0,0,3.818-1.195l1.245-2.064a32.748,32.748,0,0,0,7.27,1.578l-.078,2.284a2.462,2.462,0,0,0,2.659,2.567l5.171-.278a3.028,3.028,0,0,0,2.832-2.853l.078-2.277a36.7,36.7,0,0,0,7.333-2.328l1.092,1.929a2.608,2.608,0,0,0,3.688.793l4.517-2.767a2.83,2.83,0,0,0,1.118-3.731l-1.128-2a38.544,38.544,0,0,0,5.352-5.5l2.1,1.124a2.858,2.858,0,0,0,3.724-1.166l2.687-4.5a2.555,2.555,0,0,0-.862-3.621l-2.205-1.188a35.219,35.219,0,0,0,2.006-7.072l2.707-.12a2.954,2.954,0,0,0,2.782-2.8l.173-5.048a2.453,2.453,0,0,0-2.6-2.569l-2.867.119a31.428,31.428,0,0,0-1.7-6.726l2.624-1.581a2.8,2.8,0,0,0,1.11-3.706l-2.388-4.282a2.6,2.6,0,0,0-3.656-.847l-2.76,1.657a30.583,30.583,0,0,0-4.845-4.689l1.7-2.822a2.578,2.578,0,0,0-.866-3.645l-4.342-2.387a2.853,2.853,0,0,0-3.752,1.115l-1.748,2.89a32.678,32.678,0,0,0-6.71-1.53l.112-3.309a2.511,2.511,0,0,0-2.646-2.616l-5.167.169a2.963,2.963,0,0,0-2.842,2.8l-.113,3.319a36.557,36.557,0,0,0-6.9,2.009l-1.577-2.8a2.686,2.686,0,0,0-3.747-.869l-4.61,2.719a2.819,2.819,0,0,0-1.144,3.76l1.55,2.736a38.578,38.578,0,0,0-5.308,5.126l-2.736-1.474a2.953,2.953,0,0,0-3.847,1.143l-2.783,4.558a2.588,2.588,0,0,0,.9,3.7l2.615,1.4a35.532,35.532,0,0,0-2.238,7.007l-2.977.125A3.039,3.039,0,0,0,278.047,369.02Zm19.079,2.269c.387-11.343,10.043-20.891,21.5-21.325,11.392-.431,20.267,8.315,19.886,19.534s-9.88,20.76-21.277,21.316C305.773,391.371,296.74,382.631,297.126,371.289Z" transform="translate(-274.408 -330.729)" fill="url(#linear-gradient-3)"/>
      </g>
      <g id="Grupo_947347" data-name="Grupo 947347" transform="translate(336.221 338.804)">
        <path id="Trazado_628520" data-name="Trazado 628520" d="M307.64,313.692l-.133,3.9a1.909,1.909,0,0,0,2.051,1.979l2.129-.095a23.917,23.917,0,0,0,1.2,5.326l-1.8,1.079a2.153,2.153,0,0,0-.871,2.866l1.878,3.279c.55.961,3.21,1.533,4.24.912l.324-1.322a23.218,23.218,0,0,0,3.885,3.825l-.984,1.628a1.941,1.941,0,0,0,.674,2.78l3.361,1.764c.984.516,4.179.6,4.792-.419l-.96-2.049a24.814,24.814,0,0,0,5.506,1.2l-.059,1.729a1.863,1.863,0,0,0,2.014,1.943l3.915-.209a2.294,2.294,0,0,0,2.145-2.161l.059-1.724a27.852,27.852,0,0,0,5.553-1.763l.828,1.461c.536.948,3.832,1.435,4.837.819l1.376-2.316a2.143,2.143,0,0,0,.847-2.825l-.856-1.515a29.136,29.136,0,0,0,4.053-4.168l1.589.851c.96.513,3.8.776,4.4-.225l.454-4.067a1.933,1.933,0,0,0-.653-2.741l-1.669-.9a26.784,26.784,0,0,0,1.519-5.355l2.05-.091a2.238,2.238,0,0,0,2.107-2.122l.13-3.823a1.857,1.857,0,0,0-1.967-1.946l-2.171.09a23.789,23.789,0,0,0-1.288-5.093l1.986-1.2a2.124,2.124,0,0,0,.842-2.806l.377-3.8c-.531-.952-3.956-.682-4.955-.084l-2.091,1.255a23.148,23.148,0,0,0-3.668-3.551l1.287-2.137a1.951,1.951,0,0,0-.656-2.759l-1.432-2.073c-.966-.531-4.094.112-4.7,1.109l-1.323,2.188a24.823,24.823,0,0,0-5.082-1.158l.085-2.506a1.9,1.9,0,0,0-2-1.982l-3.913.129a2.243,2.243,0,0,0-2.152,2.123l-.085,2.513a27.807,27.807,0,0,0-5.221,1.521l.777-2.651c-.544-.965-3.787-.726-4.809-.123l-3.491,2.058a2.135,2.135,0,0,0-.865,2.848l1.173,2.072a29.3,29.3,0,0,0-4.02,3.882l.089-1.328c-.991-.534-4.455.065-5.074,1.077l-2.108,3.453a1.961,1.961,0,0,0,.679,2.8l1.98,1.06a26.95,26.95,0,0,0-1.694,5.305l-2.254.095A2.3,2.3,0,0,0,307.64,313.692Zm14.447,1.718a17.1,17.1,0,0,1,16.285-16.15,14.194,14.194,0,0,1,15.057,14.793,17.112,17.112,0,0,1-16.111,16.141A14.194,14.194,0,0,1,322.086,315.41Z" transform="translate(-307.505 -284.663)" fill="url(#linear-gradient-2)"/>
        <path id="Trazado_628521" data-name="Trazado 628521" d="M309.822,313.665l-.133,3.9a1.911,1.911,0,0,0,2.051,1.98l2.129-.095a23.9,23.9,0,0,0,1.2,5.325l-1.8,1.079a2.153,2.153,0,0,0-.872,2.866L314.28,332a2.041,2.041,0,0,0,2.862.616l1.7-1.026a23.222,23.222,0,0,0,3.885,3.826l-.984,1.627a1.943,1.943,0,0,0,.674,2.781l3.361,1.763a2.236,2.236,0,0,0,2.89-.9l.943-1.565a24.734,24.734,0,0,0,5.5,1.2l-.059,1.729a1.864,1.864,0,0,0,2.014,1.944l3.915-.21a2.294,2.294,0,0,0,2.145-2.159l.059-1.726a27.709,27.709,0,0,0,5.554-1.763l.827,1.461a1.974,1.974,0,0,0,2.792.6l3.421-2.1a2.144,2.144,0,0,0,.847-2.825l-.856-1.515a29.141,29.141,0,0,0,4.053-4.167l1.589.851a2.163,2.163,0,0,0,2.82-.882l2.034-3.408a1.934,1.934,0,0,0-.653-2.742l-1.669-.9a26.722,26.722,0,0,0,1.519-5.356l2.05-.091a2.238,2.238,0,0,0,2.107-2.121l.131-3.824a1.859,1.859,0,0,0-1.968-1.946l-2.171.091a23.8,23.8,0,0,0-1.288-5.094l1.988-1.2a2.125,2.125,0,0,0,.841-2.807l-1.809-3.242a1.967,1.967,0,0,0-2.767-.64l-2.091,1.253a23.266,23.266,0,0,0-3.669-3.551l1.287-2.135a1.952,1.952,0,0,0-.656-2.76l-3.288-1.807a2.163,2.163,0,0,0-2.842.844L350,290.315a24.653,24.653,0,0,0-5.082-1.158l.085-2.507a1.9,1.9,0,0,0-2-1.98l-3.913.127a2.245,2.245,0,0,0-2.152,2.123l-.085,2.513a27.727,27.727,0,0,0-5.221,1.522l-1.194-2.117a2.035,2.035,0,0,0-2.837-.657l-3.491,2.06a2.133,2.133,0,0,0-.865,2.847l1.173,2.073a29.234,29.234,0,0,0-4.02,3.881l-2.072-1.116a2.236,2.236,0,0,0-2.913.865l-2.108,3.451a1.961,1.961,0,0,0,.679,2.8l1.98,1.06a26.932,26.932,0,0,0-1.694,5.307l-2.254.094A2.3,2.3,0,0,0,309.822,313.665Zm14.448,1.717a17.1,17.1,0,0,1,16.284-16.148,14.192,14.192,0,0,1,15.057,14.792A17.11,17.11,0,0,1,339.5,330.166,14.192,14.192,0,0,1,324.27,315.382Z" transform="translate(-307.065 -284.668)" fill="url(#linear-gradient-3)"/>
      </g>
    </g>
    <g id="Grupo_947353" data-name="Grupo 947353" transform="translate(1107.932 6426.229)">
      <g id="Grupo_947349" data-name="Grupo 947349" transform="translate(149.601 85.141)">
        <rect id="Rectángulo_341877" data-name="Rectángulo 341877" width="123.758" height="75.54" rx="5.855" transform="translate(123.758 75.54) rotate(180)" fill="#b0c0d2"/>
        <rect id="Rectángulo_341878" data-name="Rectángulo 341878" width="123.758" height="18.833" transform="translate(0 10.86)" fill="#e8e8e8"/>
        <circle id="Elipse_8236" data-name="Elipse 8236" cx="9.566" cy="9.566" r="9.566" transform="translate(79.842 43.758)" fill="#fff"/>
        <circle id="Elipse_8237" data-name="Elipse 8237" cx="9.566" cy="9.566" r="9.566" transform="translate(94.229 43.758)" fill="#c7e2ff"/>
        <path id="Trazado_628524" data-name="Trazado 628524" d="M205,149.349h-38.27a3.162,3.162,0,0,1-3.161-3.162h0a3.162,3.162,0,0,1,3.161-3.161H205a3.162,3.162,0,0,1,3.161,3.161h0A3.162,3.162,0,0,1,205,149.349Zm-19.722,9.945h0a3.161,3.161,0,0,0-3.161-3.161H166.733a3.161,3.161,0,0,0-3.161,3.161h0a3.161,3.161,0,0,0,3.161,3.161H182.12A3.161,3.161,0,0,0,185.282,159.293Z" transform="translate(-153.01 -99.267)" fill="#0f1e52"/>
      </g>
      <g id="Grupo_947352" data-name="Grupo 947352" transform="translate(191.694 142.713)">
        <path id="Trazado_628528" data-name="Trazado 628528" d="M205.283,179.958h36.139a18.227,18.227,0,0,0-36.139,0Z" transform="translate(-205.283 -161.99)" fill="#001a2d"/>
        <circle id="Elipse_8238" data-name="Elipse 8238" cx="18.25" cy="18.25" r="18.25" transform="translate(1.958)" fill="#ffd852"/>
        <g id="Grupo_947351" data-name="Grupo 947351" transform="translate(13.589 7.531)">
          <path id="Trazado_628529" data-name="Trazado 628529" d="M236.455,184.816c0,2.7-2.045,4.174-4.7,4.553v3.33h-3.141v-3.372a12.052,12.052,0,0,1-5.354-2.213l1.644-3.331a10.094,10.094,0,0,0,5.5,2.256c.928,0,1.518-.316,1.518-.991,0-2.234-7.715-.822-7.715-6.028,0-2.382,1.687-4.026,4.406-4.512v-3.246h3.141v3.183a11.392,11.392,0,0,1,4.743,1.623l-1.623,3.372a12.277,12.277,0,0,0-4.911-1.644c-.738,0-1.223.253-1.223.8C228.74,180.769,236.455,179.483,236.455,184.816Z" transform="translate(-223.259 -171.262)" fill="#ffa810"/>
        </g>
      </g>
    </g>
    <g id="Grupo_947354" data-name="Grupo 947354" transform="translate(539.5 4201.657)">
      <path id="Trazado_196655" data-name="Trazado 196655" d="M2474.781,946.288c-1.1-.707-7.212-4.352-8.283-5.117-24.386-17.415-39.794-49.6-37.393-79.422l.592-7.35,7.284-1.147c12.78-2.011,22.17-5.869,33.4-12.2l4.6-2.593,4.6,2.593c11.288,6.365,20.652,10.074,33.482,12.214l7.205,1.2.587,7.281c2.506,31.129-14.4,64.839-40.659,81.63Z" transform="translate(-2001.86 1532.979)" fill-rule="evenodd" fill="url(#linear-gradient-6)"/>
      <path id="Trazado_196656" data-name="Trazado 196656" d="M2551.3,936.451c-12.624,7.119-22.773,11.185-36.822,13.4-2.311,28.7,13.845,59.075,36.822,73.666,22.977-14.591,39.132-44.968,36.822-73.666-14.312-2.386-24.2-6.277-36.822-13.4" transform="translate(-2078.179 1445.401)" fill="#496281" fill-rule="evenodd"/>
      <path id="Trazado_196659" data-name="Trazado 196659" d="M2767.51,1278.807a3.587,3.587,0,0,0-1.671,6.762v5.929a2.052,2.052,0,0,0,3.342,0v-5.929a3.588,3.588,0,0,0-1.671-6.762m8.518-3.777v-2.908l0-.073a8.44,8.44,0,0,0-16.848,0v.013c-.006.126-.01.253-.01.38,0,.1,0,.2.006.3v2.261a3.581,3.581,0,0,0-3.17,3.545V1291.4a3.579,3.579,0,0,0,3.569,3.568h15.879a3.578,3.578,0,0,0,3.568-3.568v-12.846A3.582,3.582,0,0,0,2776.027,1275.03Zm-13.78-.047v-2.3q-.006-.119-.006-.239c0-.08,0-.16.006-.239v-.009h0a5.365,5.365,0,0,1,10.7,0v2.788Z" transform="translate(-2294.234 1152.55)" fill="#f59d36" fill-rule="evenodd"/>
      <path id="Trazado_196660" data-name="Trazado 196660" d="M2715.118,1108.673l-4.619-7.11v7.11h-3.555v-13.31h3.538l4.637,7.179v-7.179h3.573v13.31Zm-14.717-10.339h-2.079v2.868h2.079a1.533,1.533,0,0,0,.583-.112,1.507,1.507,0,0,0,.481-.306,1.534,1.534,0,0,0,.326-.452,1.378,1.378,0,0,0,0-1.128,1.537,1.537,0,0,0-.326-.452,1.5,1.5,0,0,0-.481-.306A1.533,1.533,0,0,0,2700.4,1098.334Zm.257,6.217h-2.421v4.139h-3.573v-13.327h5.994a5.291,5.291,0,0,1,1.846.326,5.044,5.044,0,0,1,1.563.91,4.367,4.367,0,0,1,1.082,1.408,4.045,4.045,0,0,1,.4,1.8,4.305,4.305,0,0,1-.4,1.855,4.961,4.961,0,0,1-1.082,1.5,5.1,5.1,0,0,1-1.562,1.013A4.748,4.748,0,0,1,2700.659,1104.551Zm-12.691,4.139h-3.212l-4.962-13.292h3.984l2.576,6.887,2.576-6.887h3.984Z" transform="translate(-2226.125 1303.378)" fill="#fff"/>
    </g>
    <g id="Grupo_947355" data-name="Grupo 947355" transform="translate(952.706 6558.406)">
      <path id="Trazado_627986" data-name="Trazado 627986" d="M573.017,505.986c-.025-.31-.341-.577-.877-.792.582-.321.9-.665.877-1-.082-1.021-3.315-1.593-7.219-1.278s-7,1.4-6.922,2.418c.025.31.341.577.877.792-.582.321-.9.665-.877,1,.025.31.341.577.877.792-.582.321-.9.665-.877,1,.025.31.341.578.877.792-.582.321-.9.665-.877,1,.036.451.69.815,1.744,1.053a9.07,9.07,0,0,0,.027,1.1c.153,1.881,2.268,3.355,5.066,3.355s5.22-2.011,5.247-3.9a9.526,9.526,0,0,0-.055-1.231c1.339-.447,2.154-.993,2.111-1.523-.025-.31-.341-.577-.877-.792.582-.321.9-.665.877-1-.025-.31-.341-.577-.877-.792C572.722,506.667,573.044,506.323,573.017,505.986Z" transform="translate(-547.276 -458.272)" fill="url(#linear-gradient-7)"/>
      <g id="Grupo_947210" data-name="Grupo 947210" transform="translate(12.642 47.015)">
        <path id="Trazado_627987" data-name="Trazado 627987" d="M574.495,557.177a16.875,16.875,0,0,1-3.1-.253.094.094,0,1,1,.035-.184,20.2,20.2,0,0,0,5.16.163,22.192,22.192,0,0,0,4.327-.746.094.094,0,1,1,.052.18,22.38,22.38,0,0,1-4.365.753C575.881,557.148,575.171,557.177,574.495,557.177Z" transform="translate(-570.422 -550.291)" fill="url(#linear-gradient-8)"/>
        <path id="Trazado_627988" data-name="Trazado 627988" d="M570.848,543.018a14.739,14.739,0,0,1-3.8-.412.094.094,0,0,1,.052-.18,21.7,21.7,0,0,0,11.5-.914.094.094,0,0,1,.079.17,18.515,18.515,0,0,1-5.732,1.25C572.225,542.99,571.521,543.018,570.848,543.018Z" transform="translate(-566.755 -537.928)" fill="url(#linear-gradient-9)"/>
        <path id="Trazado_627989" data-name="Trazado 627989" d="M569.632,531.521a13.7,13.7,0,0,1-4.009-.482.094.094,0,1,1,.059-.178,17.127,17.127,0,0,0,6.047.386,18.319,18.319,0,0,0,5.668-1.233.094.094,0,1,1,.079.17,18.5,18.5,0,0,1-5.732,1.25C571.017,531.493,570.307,531.521,569.632,531.521Z" transform="translate(-565.559 -528.224)" fill="url(#linear-gradient-10)"/>
        <path id="Trazado_627990" data-name="Trazado 627990" d="M573.081,520.095a16.173,16.173,0,0,1-3.377-.307.094.094,0,1,1,.041-.183,19.565,19.565,0,0,0,5.421.217,18.462,18.462,0,0,0,5.639-1.22.094.094,0,0,1,.078.171,18.642,18.642,0,0,1-5.7,1.236C574.463,520.066,573.756,520.095,573.081,520.095Z" transform="translate(-568.995 -518.593)" fill="url(#linear-gradient-11)"/>
      </g>
      <path id="Trazado_627991" data-name="Trazado 627991" d="M493.533,256a13.207,13.207,0,0,0-2.365-4.617,30.562,30.562,0,0,1-6.584-17.02c-.679-11.828,9.811-17.75,19.384-16.946s19.018,7.932,17.984,18.935c-.636,6.771-4.426,11.906-7.248,14.856a15.668,15.668,0,0,0-3.762,6.665c-.847,3.057-2.862,6.867-7.652,7.1C497.094,265.268,494.52,259.491,493.533,256Z" transform="translate(-484.553 -217.34)" fill="#f3c035"/>
      <path id="Trazado_627992" data-name="Trazado 627992" d="M614.727,385.883l3.35-21.785c.069-.45.291-.752.495-.675s.313.5.244.955l-.006.039L614.993,386c-.029.162-.111.265-.184.229S614.7,386.04,614.727,385.883Z" transform="translate(-594.405 -340.614)" fill="#12263f"/>
      <path id="Trazado_627993" data-name="Trazado 627993" d="M570.269,386.992l-3.349-21.785c-.069-.45-.291-.752-.495-.675s-.313.5-.244.955l.006.039L570,387.108c.029.162.111.265.184.229S570.293,387.149,570.269,386.992Z" transform="translate(-553.424 -341.55)" fill="#12263f"/>
      <path id="Trazado_627994" data-name="Trazado 627994" d="M582.929,341.579a.351.351,0,0,0-.44-.114l-1.865.871-.647-1.845a.4.4,0,0,0-.227-.228.461.461,0,0,0-.573.177l0,.006-1.534,2.8-1.423-3.981,0-.007a.454.454,0,0,0-.216-.243.558.558,0,0,0-.7.139L573.15,342.1a.259.259,0,0,0,.076.373.359.359,0,0,0,.456-.049l1.888-2.106,1.7,3.787v0a.3.3,0,0,0,.15.147.355.355,0,0,0,.445-.115l1.641-2.632.617,1.331.005.012a.259.259,0,0,0,.016.028.351.351,0,0,0,.439.114l2.214-1.034A.263.263,0,0,0,582.929,341.579Z" transform="translate(-559.281 -319.966)" fill="#fff" opacity="0.83"/>
      <path id="Trazado_627995" data-name="Trazado 627995" d="M676.925,399.562a.237.237,0,0,1-.143-.047.24.24,0,0,1-.05-.336A24.92,24.92,0,0,0,678.3,396.8a.24.24,0,1,1,.416.24,25.365,25.365,0,0,1-1.6,2.424A.239.239,0,0,1,676.925,399.562Z" transform="translate(-646.7 -368.692)" fill="#fff" opacity="0.83"/>
      <path id="Trazado_627996" data-name="Trazado 627996" d="M694.58,298.929a.24.24,0,0,1-.22-.336,20.047,20.047,0,0,0,.454-15.212.24.24,0,0,1,.436-.2,20.571,20.571,0,0,1-.45,15.6A.24.24,0,0,1,694.58,298.929Z" transform="translate(-661.6 -272.788)" fill="#fff" opacity="0.83"/>
    </g>
  </g>
</svg>
