<svg xmlns="http://www.w3.org/2000/svg" width="115" height="97.916" viewBox="0 0 115 97.916">
  <g id="hTCY1T" transform="translate(-1529.911 2156.015)">
    <g id="Grupo_947012" data-name="Grupo 947012" transform="translate(1529.911 -2156.014)">
      <path id="Trazado_627352" data-name="Trazado 627352" d="M1582.962-2156.014q22.844,0,45.689,0c4.49,0,7.18,2.686,7.182,7.187q.007,15.717-.019,31.433c0,.9.2,1.23,1.138,1.148a10.561,10.561,0,0,1,2.563.065,6.226,6.226,0,0,1,5.377,6.238q.037,22.728,0,45.455a6.2,6.2,0,0,1-6.281,6.341q-11.743.1-23.487,0a6.168,6.168,0,0,1-6.281-6.316c-.064-3.115-.043-6.232,0-9.348.011-.813-.111-1.128-1.045-1.114-4.167.061-8.335.047-12.5.008-.764-.007-.973.2-.957.959.05,2.492.055,4.986,0,7.478-.018.81.27.951.991.936,2.024-.044,4.051-.028,6.076-.012a3.679,3.679,0,0,1,3.8,3.48,3.712,3.712,0,0,1-3.483,3.934,5.813,5.813,0,0,1-.584.016q-18.229,0-36.458,0a4.459,4.459,0,0,1-2.251-.5,3.766,3.766,0,0,1-1.792-4.09,3.706,3.706,0,0,1,3.558-2.836c2.142-.027,4.285-.033,6.426.009.675.013.843-.2.833-.852-.036-2.493-.07-4.987.014-7.478.032-.952-.318-1.043-1.119-1.041q-16.534.036-33.069.016c-4.713,0-7.365-2.656-7.366-7.374q0-33.186,0-66.372c0-4.724,2.645-7.371,7.362-7.371Zm-.014,6.839q-22.5,0-44.991-.022c-.976,0-1.239.252-1.219,1.223.063,3.193.024,6.388.024,9.582,0,8.492.014,16.984-.021,25.476,0,.909.213,1.237,1.152,1.161a21.568,21.568,0,0,1,3.153,0c.79.052,1.069-.143,1.044-.995-.065-2.219-.038-4.44-.017-6.66a3.315,3.315,0,0,1,3.48-3.566q8.647-.067,17.3,0a3.332,3.332,0,0,1,3.528,3.637c.016,2.22.029,4.441-.011,6.661-.012.677.1.988.873.926a20.951,20.951,0,0,1,2.919,0c.7.043.934-.138.916-.884-.054-2.219-.03-4.44-.016-6.661.014-2.241,1.29-3.657,3.49-3.674q8.647-.068,17.3,0a3.334,3.334,0,0,1,3.52,3.645c.016,2.259.021,4.519-.008,6.778-.008.584.119.838.761.8a18.6,18.6,0,0,1,2.569,0c.716.054.924-.16.907-.893-.051-2.258-.035-4.518-.014-6.778a3.355,3.355,0,0,1,3.38-3.555c.5-.032,1.013-.01,1.519-.01,5.22,0,10.439-.015,15.659.006,2.433.01,3.731,1.35,3.748,3.779.005.7.04,1.405-.01,2.1-.046.635.12.9.814.857a21.062,21.062,0,0,1,3.152.006c1.012.095,1.188-.28,1.184-1.222q-.055-15.192,0-30.384c0-1.037-.217-1.355-1.317-1.352Q1605.327-2149.141,1582.948-2149.175Zm-12.448,59.784q-18.576,0-37.152-.024c-.945,0-1.143.272-1.118,1.153.063,2.179.009,4.361.024,6.542a4.245,4.245,0,0,0,4.463,4.477q35.575.011,71.151.019c.732,0,.988-.148.976-.942-.048-3.348-.061-6.7,0-10.047.019-.967-.218-1.207-1.2-1.2C1595.269-2089.378,1582.885-2089.391,1570.5-2089.391Zm2.235-2.339q17.468,0,34.936.017c.868,0,1.284-.148,1.176-1.123a13.859,13.859,0,0,1-.006-2.451c.053-.774-.137-1.123-1.01-1.08-1.476.072-2.959.029-4.439.017-2.541-.02-3.809-1.283-3.819-3.8-.008-2.025.021-4.051-.011-6.076-.016-1.038.455-2.4-.2-3.026s-2-.1-3.042-.2c-.769-.073-.987.194-.973.967.047,2.764.024,5.53.017,8.3-.007,2.537-1.263,3.827-3.782,3.833q-8.354.022-16.709,0c-2.534-.006-3.809-1.287-3.817-3.8-.008-2.726-.05-5.454.024-8.178.026-.969-.3-1.2-1.18-1.123a16.25,16.25,0,0,1-2.568,0c-.774-.059-.983.207-.97.974.047,2.765.024,5.53.017,8.3-.007,2.535-1.265,3.824-3.785,3.83q-8.354.022-16.709,0c-2.532-.006-3.806-1.289-3.814-3.8-.008-2.687-.042-5.376.02-8.062.021-.926-.145-1.352-1.181-1.242a14.7,14.7,0,0,1-2.8,0c-1.027-.089-1.392.185-1.377,1.311q.1,7.593,0,15.189c-.015,1.082.322,1.249,1.3,1.246C1549.6-2091.742,1561.168-2091.729,1572.735-2091.729Zm10.241-61.944q-23.083,0-46.166,0a4.247,4.247,0,0,0-4.554,4.507q-.01,28.226-.017,56.452c0,.713.125.979.932,1.018,1.054.051,1.27-.283,1.268-1.294q-.049-27.758-.023-55.517c0-2.355.647-3.015,2.962-3.015q45.524,0,91.047,0c2.254,0,2.916.669,2.916,2.937q0,15.6-.016,31.206c0,.809.108,1.153,1.05,1.148s1.139-.293,1.136-1.183c-.03-10.441-.018-20.882-.02-31.323,0-3.337-1.6-4.939-4.933-4.939Zm28.2,66.447q0,11.1,0,22.2c0,3.068,1.518,4.564,4.612,4.566q11.041.005,22.083,0c3.135,0,4.693-1.539,4.693-4.633q0-22.142,0-44.284c0-2.983-1.558-4.549-4.526-4.551q-11.1-.006-22.2,0c-3.184,0-4.661,1.46-4.663,4.619Q1611.17-2098.268,1611.175-2087.226ZM1582.9-2074.9c-2.763,0-5.525.019-8.288-.014-.65-.008-.861.164-.851.836q.058,3.793,0,7.587c-.009.676.123.945.885.94q8.229-.051,16.459,0c.711,0,.934-.191.922-.912q-.061-3.734,0-7.47c.012-.742-.162-1-.958-.985C1588.351-2074.866,1585.626-2074.9,1582.9-2074.9Zm-.085,14.437q8.931,0,17.862,0a4.689,4.689,0,0,0,1.265-.126,1.217,1.217,0,0,0,.907-1.437,1.264,1.264,0,0,0-1.119-1.167,4.418,4.418,0,0,0-.815-.024h-36.074a6.308,6.308,0,0,0-.7.01,1.287,1.287,0,0,0-1.254,1.292,1.251,1.251,0,0,0,1.027,1.367,4.745,4.745,0,0,0,1.156.086Q1573.945-2060.457,1582.818-2060.461Zm-20.3-60.122h-16.6c2.732,3.019,5.341,5.888,7.931,8.774.452.5.652.1.9-.177q1.457-1.593,2.9-3.2C1559.237-2116.934,1560.815-2118.69,1562.52-2120.584Zm28.992,0h-16.534c.25.314.4.528.577.721q3.088,3.422,6.182,6.839c1.477,1.633,1.478,1.634,2.943.011C1586.914-2115.49,1589.147-2117.965,1591.512-2120.586Zm-45.551,21.829h16.529c-2.713-3.006-5.308-5.876-7.893-8.756-.274-.305-.459-.314-.737,0C1551.273-2104.636,1548.676-2101.766,1545.961-2098.758Zm45.523.01c-2.711-3.005-5.309-5.869-7.885-8.752-.527-.59-.716-.037-.963.235q-3.369,3.709-6.719,7.436c-.295.327-.587.655-.97,1.081Zm-27.5-19.95c-2.7,2.987-5.272,5.834-7.859,8.662-.354.387-.137.588.11.859,1.022,1.122,2.033,2.254,3.052,3.38,1.525,1.685,3.052,3.368,4.7,5.184Zm28.991-.013c-2.464,2.726-4.759,5.268-7.058,7.806-1.126,1.243-1.134,1.244,0,2.5,2.308,2.556,4.621,5.107,7.062,7.8Zm-48.5.013v18.089c2.675-2.961,5.217-5.792,7.785-8.6.366-.4.255-.619-.048-.952C1549.669-2112.946,1547.141-2115.748,1544.472-2118.7Zm28.945,18.135c2.645-2.927,5.1-5.68,7.606-8.392.495-.536.521-.848.013-1.4-2.329-2.515-4.607-5.076-6.915-7.61-.184-.2-.295-.551-.7-.517Zm28.518,0c2.282-2.524,4.4-4.847,6.494-7.2a3.994,3.994,0,0,0-.088-3.887q-2.85-3.17-5.715-6.326c-.18-.2-.284-.567-.691-.493Zm1.442-20.074c2.17,2.4,4.171,4.6,6.158,6.809.436.486.578.02.779-.207a6.426,6.426,0,0,1,5.048-2.232c.265,0,.638.048.779-.1,1.286-1.346,2.532-2.731,3.941-4.27Zm.013,21.955h4.773c.316,0,.656.014.658-.439.005-1.743,0-3.487,0-5.569Zm15.945-17.643c2.4.025,2.352.735,2.086-2.29Z" transform="translate(-1529.911 2156.015)" fill="#030304"/>
      <path id="Trazado_627353" data-name="Trazado 627353" d="M1605.256-2126.914q22.379,0,44.758-.027c1.1,0,1.321.315,1.317,1.352q-.058,15.191,0,30.384c0,.942-.172,1.317-1.184,1.222a21.031,21.031,0,0,0-3.152-.006c-.694.04-.86-.222-.814-.857.05-.7.016-1.4.01-2.1-.017-2.429-1.315-3.769-3.748-3.779-5.22-.021-10.44-.007-15.659-.006-.506,0-1.014-.022-1.519.01a3.355,3.355,0,0,0-3.38,3.555c-.022,2.259-.038,4.519.014,6.777.017.732-.192.946-.907.893a18.525,18.525,0,0,0-2.569,0c-.642.042-.769-.212-.761-.8.03-2.259.024-4.519.008-6.778a3.334,3.334,0,0,0-3.52-3.645q-8.647-.062-17.3,0c-2.2.017-3.476,1.433-3.49,3.674-.014,2.22-.038,4.442.016,6.661.018.746-.216.927-.916.884a20.914,20.914,0,0,0-2.919,0c-.774.061-.885-.249-.873-.927.04-2.219.028-4.44.011-6.661a3.332,3.332,0,0,0-3.528-3.637q-8.648-.06-17.3,0a3.315,3.315,0,0,0-3.48,3.566c-.021,2.22-.048,4.442.017,6.66.025.852-.255,1.047-1.044.995a21.534,21.534,0,0,0-3.153,0c-.939.076-1.155-.251-1.152-1.161.035-8.492.021-16.984.021-25.475,0-3.194.039-6.389-.024-9.582-.019-.971.243-1.225,1.219-1.223Q1582.76-2126.887,1605.256-2126.914Zm.075,22.141q8.062,0,16.123,0a3.851,3.851,0,0,0,4.132-3.815,3.818,3.818,0,0,0-4.065-3.754q-16.064-.024-32.129-.007a4.05,4.05,0,0,0-2.233.547,3.831,3.831,0,0,0-1.7,4.249,3.823,3.823,0,0,0,3.751,2.776C1594.582-2104.761,1599.956-2104.772,1605.331-2104.772Zm37.651-9.062a5.361,5.361,0,0,0,5.544-5.241,5.422,5.422,0,0,0-5.323-5.5,5.423,5.423,0,0,0-5.426,5.278A5.353,5.353,0,0,0,1642.982-2113.834Zm-72.446-1.86c.934,0,1.87.025,2.8-.006a3.457,3.457,0,0,0,3.5-3.35,3.4,3.4,0,0,0-3.225-3.614,51.862,51.862,0,0,0-5.954-.007,3.47,3.47,0,0,0-3.28,3.582,3.479,3.479,0,0,0,3.472,3.385C1568.743-2115.67,1569.64-2115.7,1570.535-2115.694Zm47.232-2.335v-.006c.387,0,.775,0,1.162,0a1.109,1.109,0,0,0,1.232-1.116,1.129,1.129,0,0,0-1.158-1.2c-.5-.044-1.007-.012-1.51-.016-.877-.008-1.861-.043-1.9,1.152-.041,1.233.946,1.2,1.826,1.191C1617.535-2118.03,1617.651-2118.029,1617.768-2118.029Zm7.166-.014v-.006c.426,0,.853.024,1.277-.006a1.037,1.037,0,0,0,1.048-1.032,1.044,1.044,0,0,0-.969-1.228,14.188,14.188,0,0,0-2.663,0,1.034,1.034,0,0,0-.948,1.139,1.077,1.077,0,0,0,1.095,1.124C1624.158-2118.023,1624.547-2118.043,1624.934-2118.043Zm7.05.01c.387,0,.774,0,1.161,0a1.1,1.1,0,0,0,1.232-1.11,1.119,1.119,0,0,0-1.142-1.211,10.635,10.635,0,0,0-1.276-.014c-.907.018-1.983-.208-2.141,1.141C1629.713-2118.333,1630.309-2118.03,1631.984-2118.033Z" transform="translate(-1552.218 2133.753)" fill="#eaf1fa"/>
      <path id="Trazado_627354" data-name="Trazado 627354" d="M1578.075-1871.743c12.384,0,24.768.013,37.152-.025.978,0,1.216.237,1.2,1.2-.066,3.348-.053,6.7,0,10.047.011.793-.244.942-.976.942q-35.575-.027-71.151-.019a4.245,4.245,0,0,1-4.463-4.478c-.015-2.181.039-4.363-.024-6.542-.025-.881.172-1.156,1.118-1.153Q1559.5-1871.713,1578.075-1871.743Zm12.356,2.243a3.864,3.864,0,0,0-3.834,3.887,3.872,3.872,0,0,0,3.821,3.787,3.841,3.841,0,0,0,3.877-3.832A3.832,3.832,0,0,0,1590.431-1869.5Z" transform="translate(-1537.485 1938.367)" fill="#ebf2fb"/>
      <path id="Trazado_627355" data-name="Trazado 627355" d="M1595.021-1939.912c-11.568,0-23.135-.012-34.7.022-.98,0-1.317-.164-1.3-1.246q.1-7.594,0-15.189c-.015-1.126.35-1.4,1.377-1.311a14.7,14.7,0,0,0,2.8,0c1.035-.11,1.2.316,1.181,1.242-.062,2.686-.028,5.374-.02,8.062.008,2.514,1.282,3.8,3.814,3.8q8.354.018,16.709,0c2.521-.007,3.778-1.3,3.785-3.83.008-2.766.03-5.531-.017-8.3-.013-.768.2-1.033.97-.974a16.265,16.265,0,0,0,2.568,0c.881-.074,1.207.155,1.18,1.123-.074,2.724-.032,5.452-.024,8.179.008,2.512,1.283,3.794,3.817,3.8q8.354.018,16.709,0c2.519-.007,3.775-1.3,3.782-3.834.007-2.766.03-5.531-.017-8.3-.013-.773.2-1.04.973-.967,1.038.1,2.392-.422,3.042.2s.185,1.988.2,3.026c.032,2.025,0,4.051.011,6.076.01,2.515,1.279,3.778,3.819,3.8,1.48.012,2.963.055,4.439-.017.873-.043,1.063.306,1.01,1.08a13.857,13.857,0,0,0,.006,2.451c.108.975-.308,1.125-1.176,1.123Q1612.49-1939.935,1595.021-1939.912Z" transform="translate(-1552.197 2004.197)" fill="#75d1f9"/>
      <path id="Trazado_627356" data-name="Trazado 627356" d="M1590.584-2146.024h45.582c3.329,0,4.932,1.6,4.933,4.939,0,10.441-.01,20.882.02,31.323,0,.89-.192,1.178-1.136,1.183s-1.052-.339-1.05-1.148q.037-15.6.016-31.206c0-2.268-.662-2.937-2.916-2.937q-45.524,0-91.047,0c-2.315,0-2.962.66-2.962,3.015q0,27.758.023,55.517c0,1.011-.214,1.345-1.268,1.294-.807-.039-.932-.305-.932-1.018q.025-28.226.017-56.452a4.247,4.247,0,0,1,4.554-4.507Q1567.5-2146.029,1590.584-2146.024Z" transform="translate(-1537.519 2148.365)" fill="#568de0"/>
      <path id="Trazado_627357" data-name="Trazado 627357" d="M1876.743-1949.694q0-11.042,0-22.083c0-3.16,1.478-4.618,4.663-4.619q11.1,0,22.2,0c2.969,0,4.526,1.567,4.526,4.551q0,22.142,0,44.284c0,3.094-1.559,4.632-4.694,4.633q-11.041,0-22.083,0c-3.094,0-4.61-1.5-4.612-4.566Q1876.736-1938.594,1876.743-1949.694Zm2.159.005q0,10.517,0,21.034c0,2.7.857,3.562,3.563,3.565q9.933.01,19.865,0c2.764,0,3.653-.895,3.653-3.628q0-18.4,0-36.81c0-1.909.029-3.818-.009-5.726a2.748,2.748,0,0,0-2.993-2.987c-1.6-.03-3.194-.023-4.791,0a2.975,2.975,0,0,0-2.889,1.809,2.988,2.988,0,0,1-2.91,1.954,2.961,2.961,0,0,1-2.826-1.9,3.094,3.094,0,0,0-3.093-1.869c-1.4,0-2.8,0-4.207,0-2.436.007-3.363.944-3.364,3.407Q1878.9-1960.264,1878.9-1949.689Z" transform="translate(-1795.479 2018.483)" fill="#538ada"/>
      <path id="Trazado_627358" data-name="Trazado 627358" d="M1726.215-1809.876c2.724,0,5.448.032,8.171-.02.8-.015.97.243.958.985q-.063,3.734,0,7.47c.012.721-.21.915-.922.912q-8.229-.042-16.459,0c-.762,0-.894-.264-.884-.941q.051-3.793,0-7.587c-.01-.673.2-.844.851-.836C1720.69-1809.857,1723.453-1809.876,1726.215-1809.876Z" transform="translate(-1673.223 1890.993)" fill="#c6d4e4"/>
      <path id="Trazado_627359" data-name="Trazado 627359" d="M1690.582-1757.232q-8.873,0-17.745,0a4.757,4.757,0,0,1-1.156-.087,1.251,1.251,0,0,1-1.027-1.367,1.287,1.287,0,0,1,1.254-1.292,6.308,6.308,0,0,1,.7-.01h36.074a4.408,4.408,0,0,1,.815.024,1.263,1.263,0,0,1,1.119,1.167,1.217,1.217,0,0,1-.907,1.437,4.684,4.684,0,0,1-1.265.126Q1699.513-1757.226,1690.582-1757.232Z" transform="translate(-1637.675 1852.785)" fill="#e5ecf5"/>
      <path id="Trazado_627360" data-name="Trazado 627360" d="M1614.838-2004.8c-1.7,1.894-3.282,3.649-4.864,5.4q-1.446,1.6-2.9,3.2c-.249.272-.449.68-.9.176-2.59-2.885-5.2-5.755-7.931-8.774Z" transform="translate(-1582.229 2040.227)" fill="#f4d874"/>
      <path id="Trazado_627361" data-name="Trazado 627361" d="M1738.79-2004.807c-2.365,2.621-4.6,5.1-6.832,7.571-1.465,1.623-1.466,1.622-2.943-.011q-3.092-3.419-6.182-6.839c-.175-.193-.327-.407-.577-.721Z" transform="translate(-1677.189 2040.235)" fill="#f4d874"/>
      <path id="Trazado_627362" data-name="Trazado 627362" d="M1598.414-1941.017c2.715-3.008,5.312-5.879,7.9-8.759.279-.31.463-.3.737,0,2.585,2.88,5.18,5.75,7.893,8.756Z" transform="translate(-1582.364 1998.273)" fill="#f8db75"/>
      <path id="Trazado_627363" data-name="Trazado 627363" d="M1738.665-1941.055h-16.537c.382-.426.675-.755.97-1.081q3.357-3.72,6.719-7.436c.247-.272.435-.825.963-.235C1733.356-1946.924,1735.954-1944.06,1738.665-1941.055Z" transform="translate(-1677.091 1998.322)" fill="#f8db75"/>
      <path id="Trazado_627364" data-name="Trazado 627364" d="M1649.046-1996.743v18.084c-1.646-1.816-3.172-3.5-4.7-5.184-1.018-1.126-2.029-2.258-3.052-3.38-.247-.271-.464-.471-.11-.859C1643.774-1990.909,1646.341-1993.756,1649.046-1996.743Z" transform="translate(-1614.973 2034.061)" fill="#f8db75"/>
      <path id="Trazado_627365" data-name="Trazado 627365" d="M1773.232-1996.8v18.106c-2.441-2.7-4.754-5.249-7.062-7.8-1.13-1.251-1.122-1.252,0-2.5C1768.473-1991.532,1770.768-1994.074,1773.232-1996.8Z" transform="translate(-1710.168 2034.104)" fill="#f8db75"/>
      <path id="Trazado_627366" data-name="Trazado 627366" d="M1592.06-1996.743c2.669,2.949,5.2,5.751,7.738,8.541.3.332.414.552.048.952-2.569,2.805-5.11,5.636-7.785,8.6Z" transform="translate(-1577.498 2034.061)" fill="#f8db75"/>
      <path id="Trazado_627367" data-name="Trazado 627367" d="M1715.6-1977.9v-17.915c.41-.034.521.315.7.517,2.308,2.533,4.586,5.1,6.915,7.61.508.548.482.86-.013,1.4C1720.7-1983.578,1718.243-1980.825,1715.6-1977.9Z" transform="translate(-1672.091 2033.35)" fill="#f8db75"/>
      <path id="Trazado_627368" data-name="Trazado 627368" d="M1837.312-1977.888v-17.9c.408-.074.511.3.691.493q2.872,3.149,5.715,6.326a3.994,3.994,0,0,1,.088,3.887C1841.715-1982.734,1839.594-1980.412,1837.312-1977.888Z" transform="translate(-1765.288 2033.338)" fill="#f8db75"/>
      <path id="Trazado_627369" data-name="Trazado 627369" d="M1843.467-2005.027h16.706c-1.409,1.539-2.655,2.924-3.941,4.27-.141.148-.514.1-.779.1a6.425,6.425,0,0,0-5.048,2.232c-.2.227-.343.693-.779.207C1847.638-2000.431,1845.637-2002.63,1843.467-2005.027Z" transform="translate(-1770 2040.403)" fill="#f4d874"/>
      <path id="Trazado_627370" data-name="Trazado 627370" d="M1843.523-1930.96l5.433-6.008c0,2.082,0,3.825,0,5.569,0,.454-.342.439-.658.439Z" transform="translate(-1770.043 1988.291)" fill="#f4d874"/>
      <path id="Trazado_627371" data-name="Trazado 627371" d="M1911.577-1994.106l2.086-2.29C1913.929-1993.372,1913.973-1994.081,1911.577-1994.106Z" transform="translate(-1822.152 2033.795)" fill="#f4d874"/>
      <path id="Trazado_627372" data-name="Trazado 627372" d="M1691.224-2057.1c-5.374,0-10.749.011-16.123-.006a3.822,3.822,0,0,1-3.751-2.776,3.83,3.83,0,0,1,1.7-4.249,4.051,4.051,0,0,1,2.233-.548q16.064,0,32.129.007a3.818,3.818,0,0,1,4.065,3.754,3.851,3.851,0,0,1-4.132,3.815Q1699.285-2057.093,1691.224-2057.1Zm2.491-2.341q6.77,0,13.54,0c1.169,0,1.875-.568,1.873-1.455s-.677-1.429-1.884-1.43c-9.026-.007-18.053,0-27.08-.018-.684,0-1.035.133-.916.886a2.646,2.646,0,0,1,0,.815c-.148.93.141,1.247,1.159,1.232C1684.843-2059.482,1689.279-2059.444,1693.715-2059.444Zm-16.823-1.292c.076-.923.267-1.764-1.162-1.63-1.506.141-2.161.479-2.135,1.51.025.981.672,1.327,2.1,1.442C1676.87-2059.318,1677.126-2059.8,1676.892-2060.736Z" transform="translate(-1638.111 2086.084)" fill="#060503"/>
      <path id="Trazado_627373" data-name="Trazado 627373" d="M1900.279-2106.1a5.353,5.353,0,0,1-5.2-5.461,5.423,5.423,0,0,1,5.426-5.278,5.422,5.422,0,0,1,5.323,5.5A5.361,5.361,0,0,1,1900.279-2106.1Zm.167-2.347a3.009,3.009,0,0,0,3.034-3.03,3.081,3.081,0,0,0-3.088-3.008,3.085,3.085,0,0,0-2.975,3A3.009,3.009,0,0,0,1900.447-2108.448Z" transform="translate(-1809.516 2126.019)" fill="#060503"/>
      <path id="Trazado_627374" data-name="Trazado 627374" d="M1587.958-2102.007c-.9,0-1.792.026-2.687-.007a3.479,3.479,0,0,1-3.472-3.384,3.47,3.47,0,0,1,3.28-3.582,51.862,51.862,0,0,1,5.954.007,3.4,3.4,0,0,1,3.225,3.614,3.457,3.457,0,0,1-3.5,3.35C1589.828-2101.98,1588.892-2102.006,1587.958-2102.007Zm.112-2.347c.893,0,1.786.012,2.679,0a1.048,1.048,0,0,0,1.148-1.06,1.064,1.064,0,0,0-1.105-1.231c-1.823-.05-3.65-.047-5.474,0a1.093,1.093,0,0,0-1.161,1.195,1.091,1.091,0,0,0,1.233,1.105C1586.284-2104.347,1587.177-2104.352,1588.07-2104.354Z" transform="translate(-1569.64 2120.064)" fill="#040607"/>
      <path id="Trazado_627375" data-name="Trazado 627375" d="M1802.567-2096.584c-.116,0-.233,0-.349,0-.88.01-1.867.042-1.826-1.191.039-1.195,1.023-1.16,1.9-1.152.5,0,1.01-.028,1.51.016a1.129,1.129,0,0,1,1.158,1.2,1.109,1.109,0,0,1-1.232,1.116c-.388,0-.775,0-1.162,0Z" transform="translate(-1737.017 2112.308)" fill="#040607"/>
      <path id="Trazado_627376" data-name="Trazado 627376" d="M1832.889-2096.585c-.387,0-.776.02-1.161,0a1.077,1.077,0,0,1-1.095-1.124,1.034,1.034,0,0,1,.948-1.139,14.187,14.187,0,0,1,2.663,0,1.044,1.044,0,0,1,.97,1.228,1.037,1.037,0,0,1-1.048,1.032c-.424.03-.851.006-1.277.006Z" transform="translate(-1760.173 2112.295)" fill="#040607"/>
      <path id="Trazado_627377" data-name="Trazado 627377" d="M1863.237-2096.6c-1.675,0-2.271-.3-2.166-1.195.158-1.349,1.234-1.123,2.141-1.141a10.635,10.635,0,0,1,1.276.014,1.119,1.119,0,0,1,1.142,1.211,1.1,1.1,0,0,1-1.232,1.11C1864.011-2096.595,1863.624-2096.6,1863.237-2096.6Z" transform="translate(-1783.471 2112.316)" fill="#040607"/>
      <path id="Trazado_627378" data-name="Trazado 627378" d="M1743.352-1862.088a3.831,3.831,0,0,1,3.864,3.842,3.841,3.841,0,0,1-3.877,3.832,3.872,3.872,0,0,1-3.821-3.787A3.864,3.864,0,0,1,1743.352-1862.088Zm.021,2.35a1.416,1.416,0,0,0-1.488,1.477,1.389,1.389,0,0,0,1.451,1.486,1.443,1.443,0,0,0,1.527-1.526A1.43,1.43,0,0,0,1743.373-1859.739Z" transform="translate(-1690.406 1930.955)" fill="#030304"/>
      <path id="Trazado_627379" data-name="Trazado 627379" d="M1885.961-1942.7q0-10.575,0-21.151c0-2.464.928-3.4,3.364-3.407,1.4,0,2.8,0,4.207,0a3.094,3.094,0,0,1,3.093,1.869,2.961,2.961,0,0,0,2.826,1.9,2.988,2.988,0,0,0,2.91-1.954,2.975,2.975,0,0,1,2.889-1.809c1.6-.022,3.194-.029,4.791,0a2.748,2.748,0,0,1,2.993,2.987c.038,1.908.009,3.817.009,5.726q0,18.4,0,36.81c0,2.734-.889,3.625-3.653,3.628q-9.933.01-19.865,0c-2.707,0-3.563-.869-3.563-3.565Q1885.96-1932.187,1885.961-1942.7Zm24.736,6.2c0-4.87-.03-9.74.024-14.609.011-1-.293-1.266-1.246-1.206-1.281.08-2.57.036-3.855.012a.9.9,0,0,0-1.031.659,5.1,5.1,0,0,1-4.992,3.533,5.118,5.118,0,0,1-5.1-3.549.894.894,0,0,0-1.04-.642c-1.363.016-2.731.066-4.089-.016-.9-.054-1.091.247-1.088,1.109q.047,14.785,0,29.57c0,.9.208,1.2,1.157,1.192q10.051-.062,20.1,0c.942.005,1.182-.3,1.175-1.208C1910.677-1926.6,1910.7-1931.553,1910.7-1936.5Zm-22.4-23.3c0,1.44.028,2.881-.013,4.32-.018.632.13.886.821.862,1.477-.052,2.958-.035,4.436-.006a.888.888,0,0,0,.991-.695,5.245,5.245,0,0,1,5.023-3.5,5.184,5.184,0,0,1,5.007,3.524.879.879,0,0,0,1.006.672c1.44-.023,2.88-.029,4.32,0,.581.013.827-.128.82-.772-.031-2.88-.026-5.76,0-8.64,0-.649-.218-.907-.882-.889-1.284.035-2.571.058-3.852-.006a1.707,1.707,0,0,0-1.816,1.056c-1.829,3.329-6.7,3.832-8.785.707a3.688,3.688,0,0,0-3.923-1.755,16.19,16.19,0,0,1-2.217,0c-.7-.043-.971.192-.945.922C1888.335-1962.606,1888.3-1961.2,1888.3-1959.8Zm14.28,6.313a3.087,3.087,0,0,0-3.1-3,3.094,3.094,0,0,0-2.963,3.137,3.009,3.009,0,0,0,3.041,2.906A3.009,3.009,0,0,0,1902.58-1953.49Z" transform="translate(-1802.538 2011.498)" fill="#040607"/>
      <path id="Trazado_627380" data-name="Trazado 627380" d="M1719.836-2051.811c-4.436,0-8.872-.037-13.306.028-1.019.015-1.308-.3-1.159-1.232a2.646,2.646,0,0,0,0-.815c-.119-.754.231-.887.916-.886,9.026.021,18.053.011,27.08.018,1.207,0,1.882.538,1.884,1.43s-.7,1.453-1.873,1.455Q1726.606-2051.8,1719.836-2051.811Z" transform="translate(-1664.232 2078.45)" fill="#f8db75"/>
      <path id="Trazado_627381" data-name="Trazado 627381" d="M1684.651-2053.2c.234.939-.022,1.418-1.2,1.323-1.426-.116-2.073-.461-2.1-1.442-.026-1.031.629-1.369,2.135-1.51C1684.918-2054.967,1684.727-2054.125,1684.651-2053.2Z" transform="translate(-1645.87 2078.551)" fill="#e0ac00"/>
      <path id="Trazado_627382" data-name="Trazado 627382" d="M1908.1-2100.756a3.009,3.009,0,0,1-3.03-3.034,3.085,3.085,0,0,1,2.975-3,3.081,3.081,0,0,1,3.088,3.008A3.01,3.01,0,0,1,1908.1-2100.756Z" transform="translate(-1817.173 2118.327)" fill="#f2647b"/>
      <path id="Trazado_627383" data-name="Trazado 627383" d="M1595.778-2096.583c-.893,0-1.786.006-2.679,0a1.09,1.09,0,0,1-1.233-1.1,1.092,1.092,0,0,1,1.161-1.195c1.824-.042,3.65-.046,5.474,0a1.064,1.064,0,0,1,1.105,1.231,1.048,1.048,0,0,1-1.148,1.06C1597.565-2096.572,1596.672-2096.584,1595.778-2096.583Z" transform="translate(-1577.349 2112.294)" fill="#75d1f9"/>
      <path id="Trazado_627384" data-name="Trazado 627384" d="M1751.112-1852.06a1.43,1.43,0,0,1,1.491,1.437,1.443,1.443,0,0,1-1.527,1.526,1.389,1.389,0,0,1-1.451-1.486A1.416,1.416,0,0,1,1751.112-1852.06Z" transform="translate(-1698.145 1923.277)" fill="#c6d4e4"/>
      <path id="Trazado_627385" data-name="Trazado 627385" d="M1918.279-1887.634c0,4.948-.02,9.9.018,14.843.007.9-.233,1.213-1.175,1.208q-10.051-.054-20.1,0c-.949.006-1.16-.29-1.157-1.192q.046-14.785,0-29.57c0-.861.187-1.163,1.088-1.108,1.359.082,2.726.032,4.089.016a.894.894,0,0,1,1.04.642,5.118,5.118,0,0,0,5.1,3.549,5.1,5.1,0,0,0,4.992-3.534.9.9,0,0,1,1.031-.659c1.285.023,2.575.068,3.855-.012.953-.06,1.257.206,1.246,1.206C1918.249-1897.374,1918.279-1892.5,1918.279-1887.634ZM1907-1880.141c1.869,0,3.738.016,5.606,0a3.872,3.872,0,0,0,4.076-3.769,3.813,3.813,0,0,0-3.884-3.836q-5.721-.094-11.446,0a3.734,3.734,0,0,0-3.863,3.936,3.788,3.788,0,0,0,4.02,3.668C1903.337-1880.125,1905.167-1880.141,1907-1880.141Zm.145-17.243c-1.869,0-3.738-.018-5.606,0a3.8,3.8,0,0,0-4.051,3.761,3.748,3.748,0,0,0,3.954,3.852q5.605.069,11.212,0a3.857,3.857,0,0,0,4.029-3.818,3.865,3.865,0,0,0-4.049-3.8C1910.8-1897.4,1908.972-1897.384,1907.142-1897.384Zm.007,21.523v0c.583,0,1.167.026,1.748-.007a1.026,1.026,0,0,0,1.051-1.032,1.036,1.036,0,0,0-.977-1.226,27.9,27.9,0,0,0-3.722.012,1.024,1.024,0,0,0-.934,1.254,1.036,1.036,0,0,0,1.086,1C1905.983-1875.842,1906.566-1875.862,1907.149-1875.862Z" transform="translate(-1810.119 1962.632)" fill="#75d1f9"/>
      <path id="Trazado_627386" data-name="Trazado 627386" d="M1895.9-1952.22c0-1.4.035-2.8-.014-4.2-.026-.731.246-.966.945-.922a16.188,16.188,0,0,0,2.217,0,3.688,3.688,0,0,1,3.923,1.755c2.09,3.125,6.956,2.623,8.785-.707a1.707,1.707,0,0,1,1.816-1.056c1.281.065,2.568.041,3.852.006.664-.018.887.24.882.889-.022,2.88-.027,5.76,0,8.64.007.644-.24.785-.82.772-1.439-.031-2.88-.026-4.32,0a.879.879,0,0,1-1.006-.672,5.184,5.184,0,0,0-5.007-3.524,5.245,5.245,0,0,0-5.022,3.5.888.888,0,0,1-.991.695c-1.478-.029-2.959-.046-4.436.006-.691.024-.839-.23-.821-.862C1895.924-1949.339,1895.9-1950.78,1895.9-1952.22Z" transform="translate(-1810.133 2003.915)" fill="#eaf1fa"/>
      <path id="Trazado_627387" data-name="Trazado 627387" d="M1937.075-1918.245a3.009,3.009,0,0,1-3.022,3.042,3.009,3.009,0,0,1-3.041-2.906,3.094,3.094,0,0,1,2.963-3.137A3.087,3.087,0,0,1,1937.075-1918.245Z" transform="translate(-1837.033 1976.253)" fill="#f2647b"/>
      <path id="Trazado_627388" data-name="Trazado 627388" d="M1912.3-1828.963c-1.83,0-3.66.017-5.489,0a3.788,3.788,0,0,1-4.02-3.668,3.734,3.734,0,0,1,3.863-3.936q5.722-.095,11.446,0a3.813,3.813,0,0,1,3.884,3.837,3.872,3.872,0,0,1-4.076,3.768C1916.042-1828.947,1914.173-1828.963,1912.3-1828.963Zm2.22-2.339c.973,0,1.945,0,2.918,0,1.447,0,2.22-.532,2.2-1.5s-.772-1.448-2.254-1.452c-1.673,0-3.346,0-5.019,0-2.09,0-2.048,0-2.057,2.092,0,.77.272.9.946.874C1912.344-1831.339,1913.435-1831.3,1914.525-1831.3Zm-6.507-1.524c-.18-.542.458-1.539-.916-1.452-1.263.08-1.94.508-1.963,1.468-.023.974.646,1.427,1.888,1.532C1908.448-1831.159,1907.883-1832.163,1908.017-1832.826Z" transform="translate(-1815.427 1911.454)" fill="#040607"/>
      <path id="Trazado_627389" data-name="Trazado 627389" d="M1912.447-1877.561c1.83,0,3.66-.02,5.489.005a3.865,3.865,0,0,1,4.049,3.8,3.857,3.857,0,0,1-4.029,3.818q-5.606.059-11.212,0a3.747,3.747,0,0,1-3.954-3.852,3.8,3.8,0,0,1,4.051-3.761C1908.709-1877.579,1910.578-1877.561,1912.447-1877.561Zm1.977,5.29c1.089,0,2.179.012,3.269,0,1.242-.017,1.978-.6,1.944-1.522-.032-.876-.741-1.415-1.921-1.424-1.751-.012-3.5,0-5.253,0-2.257,0-2.224,0-2.152,2.22.022.671.293.756.845.741C1912.245-1872.292,1913.335-1872.271,1914.424-1872.271Zm-6.408-1.432c-.148-.644.443-1.661-.986-1.543-1.243.1-1.914.556-1.895,1.527s.7,1.389,1.957,1.473C1908.468-1872.153,1907.842-1873.145,1908.016-1873.7Z" transform="translate(-1815.424 1942.809)" fill="#040607"/>
      <path id="Trazado_627390" data-name="Trazado 627390" d="M1934.743-1793.278c-.583,0-1.167.02-1.748-.005a1.036,1.036,0,0,1-1.086-1,1.024,1.024,0,0,1,.934-1.254,27.9,27.9,0,0,1,3.722-.012,1.036,1.036,0,0,1,.977,1.226,1.026,1.026,0,0,1-1.051,1.033c-.581.034-1.165.007-1.748.007Z" transform="translate(-1837.713 1880.049)" fill="#040607"/>
      <path id="Trazado_627391" data-name="Trazado 627391" d="M1939.093-1823.577c-1.089,0-2.181-.036-3.268.013-.674.031-.949-.1-.946-.874.009-2.091-.034-2.092,2.057-2.092,1.673,0,3.346,0,5.019,0,1.482,0,2.233.49,2.254,1.452s-.752,1.5-2.2,1.5C1941.038-1823.575,1940.065-1823.577,1939.093-1823.577Z" transform="translate(-1839.995 1903.729)" fill="#f4d874"/>
      <path id="Trazado_627392" data-name="Trazado 627392" d="M1915.679-1825.194c-.135.663.43,1.667-.991,1.547-1.241-.1-1.911-.558-1.888-1.533.023-.959.7-1.387,1.963-1.467C1916.137-1826.733,1915.5-1825.736,1915.679-1825.194Z" transform="translate(-1823.088 1903.822)" fill="#e0ac00"/>
      <path id="Trazado_627393" data-name="Trazado 627393" d="M1938.93-1864.612c-1.089,0-2.179-.021-3.268.009-.552.015-.823-.07-.845-.741-.072-2.221-.1-2.22,2.152-2.22,1.751,0,3.5-.008,5.253,0,1.18.008,1.888.547,1.921,1.424.034.917-.7,1.5-1.944,1.522C1941.109-1864.6,1940.02-1864.613,1938.93-1864.612Z" transform="translate(-1839.93 1935.151)" fill="#f4d874"/>
      <path id="Trazado_627394" data-name="Trazado 627394" d="M1915.679-1866.141c-.174.558.452,1.55-.924,1.458-1.26-.085-1.938-.513-1.957-1.473s.651-1.425,1.895-1.527C1916.122-1867.8,1915.532-1866.785,1915.679-1866.141Z" transform="translate(-1823.087 1935.247)" fill="#e0ac00"/>
    </g>
  </g>
</svg>
