<svg xmlns="http://www.w3.org/2000/svg" width="115.49" height="115.484" viewBox="0 0 115.49 115.484">
  <g id="yruXc2" transform="translate(-1545.87 -8104.44)">
    <g id="Grupo_947011" data-name="Grupo 947011" transform="translate(1545.87 8104.44)">
      <path id="Trazado_627333" data-name="Trazado 627333" d="M1586.285,8104.442q-15.154,0-30.307,0c-6,0-10.1,4.111-10.1,10.125q-.009,16.778,0,33.555c0,6.151,4.083,10.21,10.26,10.213q10.4.005,20.806-.012c.761,0,1.057.052.77.958-.747,2.362-1.451,4.745-2.011,7.156-.291,1.251-.833,1.608-2.094,1.556-2.714-.112-2.669-.033-2.735,2.676-.023.958.257,1.166,1.18,1.161,8.9-.036,17.8-.021,26.7-.021,3.062,0,3.062,0,2.944-3.079a.658.658,0,0,1,0-.12c.087-.547-.177-.679-.682-.661-.921.034-1.848-.045-2.764.028-.709.057-.96-.224-1.135-.869-.681-2.507-1.382-5.01-2.156-7.49-.311-.994-.267-1.326.946-1.314,6.855.064,13.71.034,20.566.03,6.17,0,10.244-4.066,10.247-10.228q.007-16.718,0-33.435c0-6.167-4.07-10.229-10.241-10.23Q1601.379,8104.438,1586.285,8104.442Zm31.98,100.091c5.012,0,10.024.021,15.035-.02.845-.007,1.111.146,1.167,1.074a15.445,15.445,0,0,0,14.559,14.33c2.021.074,2.709-.57,2.711-2.562,0-4.01.016-8.02-.013-12.029-.005-.7.155-.994.9-1.192a11.507,11.507,0,0,0-.178-22.381,1.171,1.171,0,0,1-1.031-1.043,11.518,11.518,0,0,0-10.671-8.864,1.392,1.392,0,0,1-1.526-1.062,13.393,13.393,0,0,0-25.028.049,1.371,1.371,0,0,1-1.437,1.042,11.424,11.424,0,0,0-9.481,5.684c-.745,1.205-.741,2.913-1.578,3.8-.865.922-2.641.894-3.89,1.641a11.545,11.545,0,0,0,5.667,21.515C1608.4,8204.572,1613.334,8204.53,1618.265,8204.533Zm-62.77-33.923c0,6.257-.005,12.142,0,18.026.006,6,4.111,10.114,10.107,10.121q9.92.012,19.84,0c2.79,0,2.747,0,2.8-2.765.017-.9-.214-1.114-1.112-1.109-7.174.041-14.349.026-21.523.021-3.841,0-6.255-2.389-6.26-6.191q-.01-8.417.009-16.834c0-.319-.19-.707.218-1.016.708.725,1.388,1.461,2.113,2.151.692.66,1.3,1.9,2.08,1.835.741-.059,1.365-1.23,2.1-1.84.607-.5.478-.814-.029-1.31-2.265-2.212-4.481-4.475-6.729-6.7-1.239-1.228-2.146-1.217-3.4.023-1.764,1.75-3.515,3.513-5.273,5.27-2.162,2.161-2.145,2.143.088,4.271.472.451.72.42,1.136-.021C1552.843,8173.292,1554.057,8172.08,1555.5,8170.61Zm92.391-9.166c-1-1.031-1.753-1.812-2.516-2.579-1.9-1.907-1.876-1.878-3.851.033-.618.6-.715.924-.034,1.576,2.231,2.131,4.38,4.348,6.568,6.524,1.337,1.331,2.2,1.319,3.567-.043,1.734-1.724,3.472-3.444,5.182-5.191.668-.682,1.9-1.3,1.831-2.082-.064-.746-1.235-1.366-1.844-2.1-.514-.622-.847-.47-1.309.049-1.123,1.261-2.29,2.482-3.44,3.72l-.3-.258v-1.185c0-8.136.015-16.273-.005-24.41a9.609,9.609,0,0,0-9.863-9.879c-2.806-.014-5.612,0-8.417,0-2.928,0-2.895,0-2.911,2.892,0,.8.222.988.995.978,3.326-.042,6.653-.02,9.98-.018,4,0,6.366,2.344,6.368,6.324q.006,12.144,0,24.289Zm-32.721,48.9c0-1.965,0-1.965-2-1.965-1.845,0-1.845,0-1.845,1.883,0,1.966,0,1.966,2,1.966C1615.166,8212.231,1615.166,8212.231,1615.166,8210.348Zm5.679,1.884c2.02,0,2.02,0,2.02-1.949,0-1.9,0-1.9-1.949-1.9-1.9,0-1.9,0-1.9,1.949C1619.015,8212.231,1619.015,8212.231,1620.845,8212.231Zm9.719-1.915c0-1.934,0-1.934-1.915-1.934-1.935,0-1.935,0-1.935,1.914,0,1.935,0,1.935,1.915,1.935C1630.564,8212.231,1630.564,8212.231,1630.564,8210.316Z" transform="translate(-1545.87 -8104.44)" fill="#fefefe"/>
      <path id="Trazado_627334" data-name="Trazado 627334" d="M1586.285,8104.442q15.094,0,30.187,0c6.172,0,10.239,4.063,10.241,10.23q.007,16.718,0,33.435c0,6.162-4.076,10.225-10.247,10.228-6.855,0-13.711.034-20.566-.03-1.213-.011-1.257.32-.946,1.314.774,2.479,1.474,4.983,2.156,7.49.175.645.426.925,1.135.869.916-.073,1.844.006,2.764-.028.5-.018.77.113.682.661a.658.658,0,0,0,0,.12c.118,3.079.118,3.079-2.944,3.079-8.9,0-17.8-.014-26.7.021-.923,0-1.2-.2-1.18-1.161.065-2.709.021-2.788,2.735-2.676,1.262.052,1.8-.3,2.094-1.556.56-2.412,1.265-4.794,2.011-7.156.286-.907-.009-.961-.77-.958q-10.4.031-20.806.012c-6.177,0-10.258-4.062-10.26-10.213q-.006-16.777,0-33.555c0-6.014,4.1-10.12,10.1-10.125Q1571.132,8104.434,1586.285,8104.442Zm-.117,38.5q17.8,0,35.6.021c.889,0,1.125-.2,1.121-1.109-.038-9.14-.018-18.281-.026-27.42,0-3.731-2.434-6.136-6.2-6.137q-30.367-.006-60.734,0c-3.818,0-6.205,2.406-6.207,6.246,0,9.06.016,18.12-.026,27.18,0,.992.223,1.247,1.233,1.244C1562.676,8142.924,1574.422,8142.938,1586.168,8142.938Zm.258,3.85H1551.2c-.281,0-.562.017-.841,0-.446-.032-.6.13-.651.6-.452,4.133,2.172,7.1,6.336,7.1q30.175,0,60.351,0c4.156,0,6.442-2.326,6.494-6.471.012-.993-.229-1.255-1.24-1.251C1609.909,8146.8,1598.167,8146.789,1586.426,8146.789Zm-.128,21.172c2.043,0,4.086-.015,6.129.009.668.008.936-.088.7-.872-.8-2.639-1.535-5.3-2.264-7.958a.943.943,0,0,0-1.088-.817q-3.484.055-6.969,0a.941.941,0,0,0-1.081.825c-.718,2.622-1.433,5.245-2.236,7.84-.282.911.044,1,.8.983C1582.292,8167.94,1584.295,8167.961,1586.3,8167.961Z" transform="translate(-1545.87 -8104.44)" fill="#171527"/>
      <path id="Trazado_627335" data-name="Trazado 627335" d="M1763.629,8386.238c-4.932,0-9.864.04-14.795-.014a11.545,11.545,0,0,1-5.667-21.514c1.249-.746,3.025-.719,3.89-1.641.837-.892.832-2.6,1.577-3.8a11.426,11.426,0,0,1,9.481-5.685,1.371,1.371,0,0,0,1.437-1.042,13.392,13.392,0,0,1,25.028-.049,1.391,1.391,0,0,0,1.526,1.061,11.518,11.518,0,0,1,10.671,8.865,1.171,1.171,0,0,0,1.031,1.043,11.507,11.507,0,0,1,.178,22.381c-.743.2-.9.494-.9,1.193.03,4.009.017,8.019.013,12.027,0,1.992-.69,2.638-2.711,2.564a15.446,15.446,0,0,1-14.559-14.331c-.055-.928-.322-1.081-1.167-1.074C1773.653,8386.26,1768.641,8386.239,1763.629,8386.238Zm20.84-3.85v-.006c3.649,0,7.3.049,10.947-.014a7.666,7.666,0,0,0,7.372-6.541,7.785,7.785,0,0,0-4.8-8.3c-.806-.324-1.1-.237-1.379.674a11.2,11.2,0,0,1-9.118,8.22c-1.938.381-1.944.351-1.944-1.607,0-1.86,0-1.86,1.8-2.279a7.692,7.692,0,0,0-2.528-15.137c-2.608.289-2.763.181-3.428-2.395a9.6,9.6,0,0,0-17.953-1.843c-.4.811-.4,1.237.533,1.731a11.389,11.389,0,0,1,6.136,8.945c.121.844.043,1.406-1.045,1.244a6.63,6.63,0,0,0-1.681,0c-.784.088-1.043-.144-1.168-.989a7.688,7.688,0,0,0-15.293.392c-.161,2.012-.512,2.359-2.555,2.529a7.742,7.742,0,0,0-7.084,7.744,7.639,7.639,0,0,0,7.1,7.586c3.04.15,6.093.032,9.14.056.626,0,.673-.207.409-.7a6,6,0,0,0-3.05-2.764c-.668-.286-1.684-.016-1.982-.73a6.369,6.369,0,0,1-.069-2.262.716.716,0,0,0,0-.12c-.181-1,.266-1.239,1.188-1.076A9.522,9.522,0,0,1,1762,8381.5c.224.682.5.944,1.232.908a29.912,29.912,0,0,1,3.846.006c1.036.084,1.479-.271,1.653-1.281a4.954,4.954,0,0,1,.778-2,2.818,2.818,0,0,0-.046-3.247,5.827,5.827,0,0,0-3.284-2.837c-.582-.218-1.447,0-1.723-.545a4.69,4.69,0,0,1-.073-1.9,3.62,3.62,0,0,0-.005-.6c-.193-1.074.372-1.184,1.232-1.037a9.514,9.514,0,0,1,7.159,4.919c.422.773.717.808,1.407.36a9.139,9.139,0,0,1,3.236-1.232c2.37-.468,2.371-.463,2.371,1.962a6.409,6.409,0,0,0,.006.842c.084.627-.189.768-.79.846a7.592,7.592,0,0,0-6.215,4.52c-.4.833-.449,1.251.745,1.229C1777.171,8382.345,1780.821,8382.389,1784.469,8382.389Zm8.781,9.481c0-1.6-.022-3.2.011-4.806.012-.6-.142-.846-.8-.838q-4.024.048-8.049,0c-.657-.008-.8.229-.776.838a11.829,11.829,0,0,0,8.785,10.4c.641.136.856.01.84-.671C1793.224,8395.154,1793.25,8393.513,1793.25,8391.87Z" transform="translate(-1691.234 -8286.146)" fill="#191728"/>
      <path id="Trazado_627336" data-name="Trazado 627336" d="M1564.832,8358.286c-1.438,1.471-2.653,2.684-3.83,3.932-.416.44-.663.471-1.136.021-2.233-2.129-2.25-2.11-.088-4.271,1.758-1.757,3.509-3.521,5.273-5.27,1.25-1.24,2.157-1.252,3.4-.023,2.248,2.229,4.464,4.492,6.729,6.7.507.5.636.806.029,1.31-.735.609-1.359,1.781-2.1,1.84-.781.062-1.389-1.175-2.08-1.835-.724-.69-1.405-1.427-2.113-2.151-.408.31-.217.7-.218,1.017q-.022,8.417-.009,16.834c0,3.8,2.418,6.188,6.26,6.19,7.174,0,14.349.02,21.523-.021.9,0,1.13.207,1.112,1.109-.053,2.764-.01,2.765-2.8,2.765q-9.92,0-19.84,0c-6-.007-10.1-4.118-10.107-10.121C1564.827,8370.429,1564.832,8364.544,1564.832,8358.286Z" transform="translate(-1555.207 -8292.117)" fill="#191728"/>
      <path id="Trazado_627337" data-name="Trazado 627337" d="M1914.318,8228.057v-1.365q0-12.145,0-24.29c0-3.979-2.364-6.32-6.369-6.323-3.327,0-6.654-.025-9.98.018-.773.01-1-.181-.995-.979.016-2.891-.017-2.891,2.911-2.891,2.806,0,5.612-.012,8.417,0a9.609,9.609,0,0,1,9.863,9.88c.02,8.136.005,16.272.005,24.409v1.185l.3.259c1.15-1.238,2.317-2.459,3.44-3.721.462-.519.795-.671,1.309-.049.609.737,1.78,1.357,1.844,2.1.068.786-1.163,1.4-1.831,2.082-1.71,1.747-3.448,3.467-5.182,5.191-1.37,1.361-2.23,1.373-3.567.043-2.188-2.177-4.337-4.394-6.568-6.524-.682-.651-.584-.979.034-1.575,1.976-1.912,1.953-1.94,3.851-.034C1912.565,8226.244,1913.313,8227.025,1914.318,8228.057Z" transform="translate(-1812.301 -8171.052)" fill="#191729"/>
      <path id="Trazado_627338" data-name="Trazado 627338" d="M1821.1,8537.414c0,1.885,0,1.885-1.845,1.885-2,0-2,0-2-1.966,0-1.884,0-1.884,1.845-1.884C1821.1,8535.449,1821.1,8535.449,1821.1,8537.414Z" transform="translate(-1751.805 -8431.508)" fill="#171527"/>
      <path id="Trazado_627339" data-name="Trazado 627339" d="M1851.006,8539.3c-1.829,0-1.829,0-1.829-1.9,0-1.949,0-1.949,1.9-1.949,1.949,0,1.949,0,1.949,1.9C1853.026,8539.3,1853.026,8539.3,1851.006,8539.3Z" transform="translate(-1776.032 -8431.508)" fill="#171527"/>
      <path id="Trazado_627340" data-name="Trazado 627340" d="M1884.952,8537.384c0,1.915,0,1.915-1.935,1.915-1.915,0-1.915,0-1.915-1.936,0-1.914,0-1.914,1.935-1.914C1884.952,8535.449,1884.952,8535.449,1884.952,8537.384Z" transform="translate(-1800.259 -8431.508)" fill="#171527"/>
      <path id="Trazado_627341" data-name="Trazado 627341" d="M1598.211,8155.054c-11.746,0-23.492-.015-35.238.025-1.01,0-1.237-.251-1.233-1.244.042-9.06.022-18.12.026-27.18,0-3.84,2.389-6.246,6.207-6.246q30.367-.006,60.734,0c3.763,0,6.193,2.4,6.2,6.136.008,9.141-.012,18.281.026,27.421,0,.909-.232,1.111-1.121,1.109Q1616.011,8155.028,1598.211,8155.054Zm23.66-30.793a5.811,5.811,0,0,0-6.026,7.078,1.169,1.169,0,0,1-.361,1.361c-2.047,1.737-4.053,3.521-6.064,5.3a.912.912,0,0,1-1.149.235,5.235,5.235,0,0,0-4.852.159.917.917,0,0,1-1.161-.12q-2.764-2.12-5.576-4.179a.931.931,0,0,1-.414-1.1,5.725,5.725,0,0,0-8.971-5.729,5.458,5.458,0,0,0-2.236,6.021,1.234,1.234,0,0,1-.483,1.433c-1.686,1.419-3.354,2.861-4.973,4.355-.911.84-1.738,1.621-3.067.783a2.26,2.26,0,0,0-1.052-.187,5.778,5.778,0,1,0,5.356,4.515,1.239,1.239,0,0,1,.388-1.459c2.021-1.705,3.993-3.468,5.973-5.221a.984.984,0,0,1,1.252-.262,5.122,5.122,0,0,0,4.739-.15,1,1,0,0,1,1.266.128q2.718,2.082,5.481,4.106a1,1,0,0,1,.447,1.2,5.608,5.608,0,0,0,2.5,5.812,5.72,5.72,0,0,0,6.442-.094,5.607,5.607,0,0,0,2.319-5.89,1.47,1.47,0,0,1,.581-1.729q2.848-2.4,5.6-4.913a1.353,1.353,0,0,1,1.669-.291,5.722,5.722,0,0,0,7.235-7.6A5.524,5.524,0,0,0,1621.872,8124.261Z" transform="translate(-1557.913 -8116.556)" fill="#d4dada"/>
      <path id="Trazado_627342" data-name="Trazado 627342" d="M1598.348,8279.964c11.741,0,23.483.015,35.224-.024,1.01,0,1.252.259,1.24,1.252-.052,4.145-2.339,6.471-6.494,6.471q-30.175,0-60.351,0c-4.163,0-6.788-2.965-6.336-7.1.052-.472.2-.635.651-.6.279.021.561,0,.841,0Z" transform="translate(-1557.792 -8237.616)" fill="#55bce8"/>
      <path id="Trazado_627343" data-name="Trazado 627343" d="M1691.764,8337.508c-2,0-4.006-.021-6.009.011-.758.013-1.083-.072-.8-.983.8-2.6,1.517-5.219,2.236-7.84a.942.942,0,0,1,1.081-.826q3.484.056,6.969,0a.944.944,0,0,1,1.088.817c.729,2.66,1.464,5.319,2.264,7.958.238.783-.031.88-.7.872C1695.85,8337.492,1693.807,8337.508,1691.764,8337.508Z" transform="translate(-1651.336 -8273.987)" fill="#407cb3"/>
      <path id="Trazado_627344" data-name="Trazado 627344" d="M1796.594,8394.456c-3.649,0-7.3-.044-10.946.024-1.193.022-1.141-.395-.745-1.229a7.591,7.591,0,0,1,6.215-4.519c.6-.078.874-.22.79-.847a6.394,6.394,0,0,1-.006-.841c0-2.425,0-2.43-2.371-1.963a9.16,9.16,0,0,0-3.236,1.233c-.69.447-.984.412-1.407-.36a9.515,9.515,0,0,0-7.159-4.92c-.86-.146-1.425-.037-1.232,1.037a3.622,3.622,0,0,1,.005.6,4.69,4.69,0,0,0,.073,1.9c.277.549,1.141.327,1.723.545a5.828,5.828,0,0,1,3.284,2.838,2.818,2.818,0,0,1,.046,3.247,4.95,4.95,0,0,0-.778,2c-.174,1.01-.617,1.365-1.653,1.282a29.911,29.911,0,0,0-3.846-.007c-.729.036-1.009-.227-1.232-.907a9.521,9.521,0,0,0-7.979-6.757c-.921-.162-1.368.079-1.188,1.076a.717.717,0,0,1,0,.12,6.368,6.368,0,0,0,.069,2.262c.3.716,1.314.445,1.982.73a6,6,0,0,1,3.05,2.764c.264.494.218.706-.409.7-3.047-.023-6.1.095-9.14-.055a7.64,7.64,0,0,1-7.1-7.587,7.741,7.741,0,0,1,7.084-7.743c2.042-.171,2.393-.518,2.555-2.53a7.688,7.688,0,0,1,15.293-.392c.125.847.384,1.077,1.168.99a6.541,6.541,0,0,1,1.681,0c1.088.161,1.166-.4,1.045-1.245a11.386,11.386,0,0,0-6.136-8.944c-.935-.5-.932-.922-.533-1.732a9.6,9.6,0,0,1,17.953,1.843c.665,2.576.82,2.684,3.428,2.4a7.692,7.692,0,0,1,2.528,15.136c-1.8.42-1.8.42-1.8,2.28,0,1.957.006,1.987,1.944,1.607a11.2,11.2,0,0,0,9.118-8.221c.279-.911.573-1,1.379-.674a7.785,7.785,0,0,1,4.8,8.3,7.666,7.666,0,0,1-7.372,6.542c-3.648.063-7.3.014-10.947.014Zm-.846-13.472a6.983,6.983,0,0,1,.959.007c.8.11,1.031-.2.946-.991a9.817,9.817,0,0,0-7.246-8.354c-2.357-.578-2.357-.578-2.357,1.8a7.946,7.946,0,0,1-.007.959c-.074.609.179.768.775.869a5.359,5.359,0,0,1,4.753,4.287c.269,1.263.782,1.634,1.936,1.422A1.309,1.309,0,0,1,1795.748,8380.984Z" transform="translate(-1703.359 -8298.215)" fill="#f8a300"/>
      <path id="Trazado_627345" data-name="Trazado 627345" d="M1938.641,8525.077c0,1.643-.026,3.284.013,4.926.016.681-.2.807-.84.671a11.829,11.829,0,0,1-8.785-10.4c-.02-.608.119-.846.776-.838q4.024.048,8.049,0c.656-.008.81.234.8.838C1938.619,8521.873,1938.641,8523.476,1938.641,8525.077Z" transform="translate(-1836.625 -8419.354)" fill="#f13342"/>
      <path id="Trazado_627346" data-name="Trazado 627346" d="M1646.178,8136.39a5.524,5.524,0,0,1,4.867,3.556,5.722,5.722,0,0,1-7.235,7.6,1.353,1.353,0,0,0-1.669.291q-2.751,2.512-5.6,4.913a1.47,1.47,0,0,0-.581,1.729,5.607,5.607,0,0,1-2.319,5.89,5.72,5.72,0,0,1-6.442.094,5.608,5.608,0,0,1-2.5-5.812,1,1,0,0,0-.447-1.2q-2.763-2.022-5.481-4.106a1,1,0,0,0-1.266-.128,5.122,5.122,0,0,1-4.739.15.984.984,0,0,0-1.252.262c-1.98,1.752-3.952,3.516-5.973,5.221a1.239,1.239,0,0,0-.388,1.459,5.764,5.764,0,0,1-4.887,6.986,5.775,5.775,0,1,1-.469-11.5,2.26,2.26,0,0,1,1.052.188c1.329.838,2.157.057,3.067-.783,1.619-1.494,3.287-2.936,4.973-4.355a1.234,1.234,0,0,0,.483-1.433,5.458,5.458,0,0,1,2.236-6.021,5.725,5.725,0,0,1,8.971,5.729.931.931,0,0,0,.414,1.1q2.81,2.06,5.576,4.179a.917.917,0,0,0,1.161.12,5.235,5.235,0,0,1,4.852-.159.912.912,0,0,0,1.149-.235c2.011-1.778,4.018-3.562,6.064-5.3a1.169,1.169,0,0,0,.361-1.361A5.811,5.811,0,0,1,1646.178,8136.39Zm-.442,3.849a1.921,1.921,0,1,0,1.925,1.886A1.924,1.924,0,0,0,1645.736,8140.239Zm-28.872,3.939a1.922,1.922,0,1,0-1.985,1.827A1.935,1.935,0,0,0,1616.864,8144.179Zm13.434,9.534a1.921,1.921,0,1,0,1.964,1.847A1.926,1.926,0,0,0,1630.3,8153.713Zm-30.809,5.767a1.922,1.922,0,1,0-1.864-1.947A1.933,1.933,0,0,0,1599.489,8159.479Z" transform="translate(-1582.22 -8128.685)" fill="#191729"/>
      <path id="Trazado_627347" data-name="Trazado 627347" d="M1904.7,8417.268a1.4,1.4,0,0,0-.24,0c-1.153.213-1.667-.158-1.936-1.421a5.361,5.361,0,0,0-4.753-4.288c-.6-.1-.849-.259-.775-.868a7.964,7.964,0,0,0,.007-.96c0-2.382,0-2.382,2.357-1.8a9.82,9.82,0,0,1,7.246,8.354c.084.8-.149,1.1-.946.991A7.141,7.141,0,0,0,1904.7,8417.268Z" transform="translate(-1812.307 -8334.498)" fill="#1a1727"/>
      <path id="Trazado_627348" data-name="Trazado 627348" d="M1803.221,8152.351a1.921,1.921,0,1,1-1.915,1.9A1.927,1.927,0,0,1,1803.221,8152.351Z" transform="translate(-1739.705 -8140.797)" fill="#e83141"/>
      <path id="Trazado_627349" data-name="Trazado 627349" d="M1677.437,8162.342a1.922,1.922,0,1,1-1.8-2.013A1.936,1.936,0,0,1,1677.437,8162.342Z" transform="translate(-1642.793 -8146.848)" fill="#e83141"/>
      <path id="Trazado_627350" data-name="Trazado 627350" d="M1739.331,8208.221a1.921,1.921,0,1,1-1.875,1.935A1.929,1.929,0,0,1,1739.331,8208.221Z" transform="translate(-1691.253 -8183.192)" fill="#e83141"/>
      <path id="Trazado_627351" data-name="Trazado 627351" d="M1611.615,8220.038a1.923,1.923,0,1,1,1.976-1.835A1.928,1.928,0,0,1,1611.615,8220.038Z" transform="translate(-1594.346 -8189.243)" fill="#e83141"/>
    </g>
  </g>
</svg>
