<svg xmlns="http://www.w3.org/2000/svg" xmlns:xlink="http://www.w3.org/1999/xlink" width="75.497" height="130.243" viewBox="0 0 75.497 130.243">
  <defs>
    <linearGradient id="linear-gradient" x1="0.5" x2="0.5" y2="1" gradientUnits="objectBoundingBox">
      <stop offset="0" stop-color="#f5f5f5"/>
      <stop offset="0.25" stop-color="#f5f5f5"/>
      <stop offset="1" stop-color="#a7b3cf"/>
    </linearGradient>
    <linearGradient id="linear-gradient-4" x1="0.5" x2="0.5" y2="1" gradientUnits="objectBoundingBox">
      <stop offset="0" stop-color="#039be5"/>
      <stop offset="1" stop-color="#027fbc"/>
    </linearGradient>
  </defs>
  <g id="Grupo_881662" data-name="Grupo 881662" transform="translate(-173.937 -213.493)">
    <g id="Grupo_881623" data-name="Grupo 881623" transform="translate(173.937 213.493)">
      <g id="Grupo_881622" data-name="Grupo 881622">
        <g id="Grupo_881621" data-name="Grupo 881621">
          <g id="Grupo_881595" data-name="Grupo 881595" transform="translate(65.389 4.199)" style="isolation: isolate">
            <g id="Grupo_881594" data-name="Grupo 881594" style="isolation: isolate">
              <g id="Grupo_881593" data-name="Grupo 881593">
                <path id="Trazado_604201" data-name="Trazado 604201" d="M228.394,220.97l-5.787-3.343a1.141,1.141,0,0,0-.487-1.041l5.787,3.341a1.142,1.142,0,0,1,.487,1.042Z" transform="translate(-222.12 -216.587)" fill="#bfbfbf"/>
              </g>
            </g>
          </g>
          <g id="Grupo_881599" data-name="Grupo 881599" transform="translate(64.245 4.086)" style="isolation: isolate">
            <g id="Grupo_881598" data-name="Grupo 881598" style="isolation: isolate">
              <g id="Grupo_881596" data-name="Grupo 881596" transform="translate(0 0.027)">
                <path id="Trazado_604202" data-name="Trazado 604202" d="M227.064,220.054l-5.787-3.341a1.61,1.61,0,0,1,.472-.189l5.787,3.341a1.673,1.673,0,0,0-.472.189Z" transform="translate(-221.277 -216.524)" fill="#00d9d0"/>
              </g>
              <g id="Grupo_881597" data-name="Grupo 881597" transform="translate(0.472)">
                <path id="Trazado_604203" data-name="Trazado 604203" d="M227.412,219.872l-5.787-3.341a.921.921,0,0,1,.672.085l5.787,3.341a.935.935,0,0,0-.672-.086Z" transform="translate(-221.625 -216.504)" fill="#00a39c"/>
              </g>
            </g>
          </g>
          <g id="Grupo_881603" data-name="Grupo 881603" transform="translate(62.706)">
            <g id="Grupo_881602" data-name="Grupo 881602">
              <g id="Grupo_881600" data-name="Grupo 881600" transform="translate(0 0.106)">
                <path id="Trazado_604204" data-name="Trazado 604204" d="M225.93,217.7l-5.787-3.343a6.782,6.782,0,0,1,1.97-.791l5.787,3.341a6.75,6.75,0,0,0-1.97.793Z" transform="translate(-220.143 -213.571)" fill="url(#linear-gradient)"/>
              </g>
              <g id="Grupo_881601" data-name="Grupo 881601" transform="translate(1.971)">
                <path id="Trazado_604205" data-name="Trazado 604205" d="M227.382,216.94,221.6,213.6a3.7,3.7,0,0,1,2.673.334l5.787,3.341a3.712,3.712,0,0,0-2.673-.334Z" transform="translate(-221.595 -213.493)" fill="url(#linear-gradient)"/>
              </g>
            </g>
          </g>
          <g id="Grupo_881606" data-name="Grupo 881606" transform="translate(0.429 122.299)">
            <g id="Grupo_881605" data-name="Grupo 881605" style="isolation: isolate">
              <g id="Grupo_881604" data-name="Grupo 881604">
                <path id="Trazado_604206" data-name="Trazado 604206" d="M181.957,311.117l-5.787-3.341c-1.174-.677-1.905-2.118-1.918-4.165l5.787,3.341c.012,2.046.744,3.488,1.918,4.165Z" transform="translate(-174.253 -303.611)" fill="url(#linear-gradient)"/>
              </g>
            </g>
          </g>
          <g id="Grupo_881608" data-name="Grupo 881608" transform="translate(35.69 103.345)">
            <g id="Grupo_881607" data-name="Grupo 881607">
              <path id="Trazado_604207" data-name="Trazado 604207" d="M208.005,290c1.411-.82,2.568-.179,2.577,1.459a5.645,5.645,0,0,1-2.543,4.435l-5.226,3.036c-1.411.82-2.569.164-2.577-1.459a5.62,5.62,0,0,1,2.545-4.435Z" transform="translate(-200.236 -289.645)" fill="#f6f7fa"/>
            </g>
          </g>
          <g id="Grupo_881610" data-name="Grupo 881610" transform="translate(5.787 3.342)">
            <g id="Grupo_881609" data-name="Grupo 881609">
              <path id="Trazado_604208" data-name="Trazado 604208" d="M240.907,216.853c3.58-2.08,6.539-.419,6.56,3.7l.444,80.092c.023,4.12-2.912,6.564-6.492,8.643l-56.241,32.673c-3.58,2.08-6.525.413-6.548-3.708l-.429-77.46a14.365,14.365,0,0,1,6.465-11.267Zm3.584,79.112-.414-74.769a1,1,0,0,0-1.631-.939L183.2,254.677a3.64,3.64,0,0,0-1.623,2.828l.414,74.769c.005,1.007.756,1.432,1.643.915L242.88,298.77a3.637,3.637,0,0,0,1.611-2.805Zm-28.585,26.244a5.643,5.643,0,0,0,2.545-4.435c-.01-1.638-1.166-2.279-2.577-1.459l-5.225,3.036a5.62,5.62,0,0,0-2.545,4.435c.008,1.623,1.166,2.279,2.577,1.459l5.225-3.036Z" transform="translate(-178.201 -215.956)" fill="#12263f"/>
            </g>
          </g>
          <g id="Grupo_881611" data-name="Grupo 881611" transform="translate(9.163 7.428)">
            <path id="Trazado_604209" data-name="Trazado 604209" d="M243.407,259.65l-.219-39.53a1,1,0,0,0-1.631-.939l-29.02,16.861L182.312,253.6a3.64,3.64,0,0,0-1.623,2.828l.217,39.25.2,35.519c.005,1.007.756,1.432,1.643.915l30-17.431L241.992,297.7a3.637,3.637,0,0,0,1.611-2.805Z" transform="translate(-180.689 -218.967)" fill="url(#linear-gradient-4)"/>
          </g>
          <g id="Grupo_881612" data-name="Grupo 881612" transform="translate(9.163 7.428)">
            <path id="Trazado_604210" data-name="Trazado 604210" d="M243.33,230.957l-.141-10.836a1,1,0,0,0-1.631-.939l-29.02,16.861L182.312,253.6a3.64,3.64,0,0,0-1.623,2.828l.14,10.557Z" transform="translate(-180.689 -218.967)" fill="url(#linear-gradient)"/>
          </g>
          <g id="Grupo_881614" data-name="Grupo 881614" transform="translate(0.001 44.838)">
            <g id="Grupo_881613" data-name="Grupo 881613">
              <path id="Trazado_604211" data-name="Trazado 604211" d="M180.153,327.335l-5.787-3.342-.429-77.46,5.787,3.342Z" transform="translate(-173.938 -246.533)" fill="url(#linear-gradient)"/>
            </g>
          </g>
          <g id="Grupo_881616" data-name="Grupo 881616" transform="translate(6.465 0.897)">
            <g id="Grupo_881615" data-name="Grupo 881615">
              <path id="Trazado_604212" data-name="Trazado 604212" d="M184.488,250.169l-5.787-3.342,56.241-32.674,5.787,3.342Z" transform="translate(-178.701 -214.154)" fill="url(#linear-gradient)"/>
            </g>
          </g>
          <g id="Grupo_881620" data-name="Grupo 881620" transform="translate(0 33.57)">
            <g id="Grupo_881619" data-name="Grupo 881619">
              <g id="Grupo_881617" data-name="Grupo 881617" transform="translate(0 2.771)">
                <path id="Trazado_604213" data-name="Trazado 604213" d="M179.724,252.11l-5.787-3.341a14.225,14.225,0,0,1,3.321-8.5l5.787,3.343a14.221,14.221,0,0,0-3.321,8.5Z" transform="translate(-173.937 -240.272)" fill="url(#linear-gradient)"/>
              </g>
              <g id="Grupo_881618" data-name="Grupo 881618" transform="translate(3.321)">
                <path id="Trazado_604214" data-name="Trazado 604214" d="M182.171,244.344,176.384,241a11.832,11.832,0,0,1,3.144-2.771l5.787,3.343a11.829,11.829,0,0,0-3.144,2.771Z" transform="translate(-176.384 -238.23)" fill="url(#linear-gradient)"/>
              </g>
            </g>
          </g>
        </g>
      </g>
    </g>
    <g id="Grupo_881631" data-name="Grupo 881631" transform="translate(186.914 256.741)">
      <g id="Grupo_881628" data-name="Grupo 881628" transform="translate(4.131 8.957)">
        <g id="Grupo_881625" data-name="Grupo 881625">
          <g id="Grupo_881624" data-name="Grupo 881624">
            <path id="Trazado_604215" data-name="Trazado 604215" d="M195.109,272.887c-4.709,2.736-8.551.531-8.566-4.914s3.8-12.1,8.513-14.837,8.551-.531,8.566,4.915S199.818,270.153,195.109,272.887Zm-.046-17.192a14.025,14.025,0,0,0-6.308,10.992c.011,4.035,2.858,5.667,6.347,3.641a14.022,14.022,0,0,0,6.306-10.993C201.4,255.3,198.551,253.668,195.063,255.7Z" transform="translate(-186.543 -251.961)" fill="#fff"/>
          </g>
        </g>
        <g id="Grupo_881627" data-name="Grupo 881627" transform="translate(7.106 6.356)">
          <g id="Grupo_881626" data-name="Grupo 881626">
            <path id="Trazado_604216" data-name="Trazado 604216" d="M194.647,263.36a3.155,3.155,0,0,1-1.422,2.478h0c-.787.457-1.428.09-1.43-.821l-.015-5.7a3.155,3.155,0,0,1,1.421-2.477h0c.788-.459,1.429-.091,1.432.821Z" transform="translate(-191.779 -256.645)" fill="#fff"/>
          </g>
        </g>
      </g>
      <g id="Grupo_881630" data-name="Grupo 881630">
        <g id="Grupo_881629" data-name="Grupo 881629">
          <path id="Trazado_604217" data-name="Trazado 604217" d="M186.075,285.376c-1.251,0-2.515-.924-2.521-3l-.054-20.241a7.625,7.625,0,0,1,3.482-6.068l17.5-10.167a3.583,3.583,0,0,1,1.782-.536c1.25,0,2.515.926,2.52,3l.056,20.241a7.621,7.621,0,0,1-3.482,6.066l-17.5,10.167A3.572,3.572,0,0,1,186.075,285.376Zm20.194-38.419a2.068,2.068,0,0,0-.985.319l-17.5,10.167a6.066,6.066,0,0,0-2.687,4.685l.054,20.241c0,.425.094,1.414.921,1.413a2.074,2.074,0,0,0,.984-.319l17.5-10.167a6.07,6.07,0,0,0,2.687-4.685l-.056-20.241C207.189,247.944,207.1,246.954,206.268,246.957Z" transform="translate(-183.499 -245.361)" fill="#fff"/>
        </g>
      </g>
    </g>
    <g id="Grupo_881635" data-name="Grupo 881635" transform="translate(216.98 239.344)">
      <g id="Grupo_881632" data-name="Grupo 881632" transform="translate(5.97 10.984)">
        <path id="Trazado_604218" data-name="Trazado 604218" d="M222.888,243.467l-4.717-2.706a1.4,1.4,0,0,0-1.443.2,3.779,3.779,0,0,0-1.437,1.472L210.6,250.6c-.738,1.288-.734,2.676.009,3.1s1.942-.27,2.68-1.557l1.2-2.083.019,7.005c0,1.445,1.021,2.027,2.269,1.3a5,5,0,0,0,2.254-3.929l-.019-7.007,1.2.691c.742.426,1.942-.271,2.68-1.558S223.631,243.893,222.888,243.467Z" transform="translate(-210.053 -240.636)" fill="#fff"/>
      </g>
      <g id="Grupo_881634" data-name="Grupo 881634">
        <g id="Grupo_881633" data-name="Grupo 881633">
          <path id="Trazado_604219" data-name="Trazado 604219" d="M208.23,272.557c-1.25,0-2.515-.924-2.52-3l-.056-20.241a7.625,7.625,0,0,1,3.482-6.068l17.5-10.167a3.583,3.583,0,0,1,1.782-.536c1.5,0,2.516,1.2,2.52,3L231,255.788a7.621,7.621,0,0,1-3.482,6.066l-17.5,10.167A3.57,3.57,0,0,1,208.23,272.557Zm20.194-38.419a2.063,2.063,0,0,0-.984.319l-17.5,10.167a6.071,6.071,0,0,0-2.688,4.685l.056,20.241c0,.426.094,1.414.921,1.413a2.075,2.075,0,0,0,.984-.319l17.5-10.167a6.072,6.072,0,0,0,2.688-4.685l-.054-20.241C229.344,235.125,229.251,234.135,228.423,234.138Z" transform="translate(-205.654 -232.542)" fill="#fff"/>
        </g>
      </g>
    </g>
    <g id="Grupo_881639" data-name="Grupo 881639" transform="translate(187 288.969)">
      <g id="Grupo_881636" data-name="Grupo 881636" transform="translate(3.376 7.911)">
        <path id="Trazado_604220" data-name="Trazado 604220" d="M204.631,280.459l-.433-2c-.035-.167-.181-.2-.323-.087l-2.318,1.331a3.605,3.605,0,0,0-1.06-1.136l.783-2.98c.079-.187.029-.358-.111-.38l-1.679-.267a.435.435,0,0,0-.395.3l-1.645,2.844a6.907,6.907,0,0,0-1.814.677l-.989-1.857c-.031-.147-.189-.156-.35-.022l-1.943,1.623a.615.615,0,0,0-.235.51l-.007,2.688a16.4,16.4,0,0,0-1.508,2.1l-2.182.353c-.124-.02-.3.137-.384.352l-1.068,2.561c-.09.213-.061.4.062.422l1.635.959a11.775,11.775,0,0,0-.32,2.288l-2.1,2.356a.583.583,0,0,0-.193.517l.433,2c.035.166.18.2.323.085l2.318-1.331a3.617,3.617,0,0,0,1.059,1.136l-.783,2.98c-.077.187-.029.357.113.38l1.679.267a.437.437,0,0,0,.395-.3l1.645-2.843a7.072,7.072,0,0,0,1.814-.677l.989,1.855c.033.147.189.156.35.022l1.942-1.623a.609.609,0,0,0,.236-.51l.007-2.687a16.65,16.65,0,0,0,1.508-2.1l2.182-.353c.123.019.3-.137.384-.35L203.72,287c.088-.214.061-.4-.062-.422l-1.635-.961a11.774,11.774,0,0,0,.32-2.288l2.1-2.355A.587.587,0,0,0,204.631,280.459Zm-8.49,10.26c-1.975,1.649-3.933,1.338-4.373-.7s.8-5.02,2.781-6.67,3.932-1.338,4.373.7S198.117,289.068,196.141,290.718Z" transform="translate(-186.051 -274.938)" fill="#fff"/>
      </g>
      <g id="Grupo_881638" data-name="Grupo 881638">
        <g id="Grupo_881637" data-name="Grupo 881637">
          <path id="Trazado_604221" data-name="Trazado 604221" d="M186.139,309.124c-1.251,0-2.515-.926-2.52-3l-.056-20.241a7.625,7.625,0,0,1,3.482-6.068l17.5-10.167a3.569,3.569,0,0,1,1.782-.536c1.25,0,2.515.924,2.52,3l.056,20.241a7.622,7.622,0,0,1-3.481,6.068l-17.5,10.167A3.569,3.569,0,0,1,186.139,309.124ZM206.332,270.7a2.053,2.053,0,0,0-.985.319l-17.5,10.166a6.074,6.074,0,0,0-2.687,4.685l.054,20.242c0,.425.094,1.414.921,1.411a2.059,2.059,0,0,0,.984-.319l17.5-10.167a6.066,6.066,0,0,0,2.687-4.685l-.054-20.241C207.253,271.692,207.16,270.7,206.332,270.7Z" transform="translate(-183.563 -269.109)" fill="#fff"/>
        </g>
      </g>
    </g>
    <g id="Grupo_881643" data-name="Grupo 881643" transform="translate(217.067 271.573)">
      <g id="Grupo_881640" data-name="Grupo 881640" transform="translate(5.685 10.592)">
        <path id="Trazado_604222" data-name="Trazado 604222" d="M210.49,279.972l4.922,2.824a1.462,1.462,0,0,0,1.505-.209,3.926,3.926,0,0,0,1.5-1.536l4.892-8.525c.769-1.342.765-2.79-.01-3.235s-2.027.282-2.8,1.626l-1.247,2.174-.019-7.312c0-1.506-1.064-2.114-2.368-1.357a5.224,5.224,0,0,0-2.352,4.1l.02,7.311-1.257-.719c-.774-.445-2.026.282-2.8,1.624S209.716,279.528,210.49,279.972Z" transform="translate(-209.907 -264.095)" fill="#fff"/>
      </g>
      <g id="Grupo_881642" data-name="Grupo 881642">
        <g id="Grupo_881641" data-name="Grupo 881641">
          <path id="Trazado_604223" data-name="Trazado 604223" d="M208.294,296.305c-1.25,0-2.515-.926-2.52-3l-.056-20.241a7.621,7.621,0,0,1,3.482-6.068l17.5-10.167a3.569,3.569,0,0,1,1.782-.536c1.25,0,2.515.924,2.52,3l.056,20.241a7.621,7.621,0,0,1-3.482,6.068l-17.5,10.167A3.569,3.569,0,0,1,208.294,296.305Zm20.194-38.419a2.044,2.044,0,0,0-.984.319L210,268.371a6.071,6.071,0,0,0-2.687,4.686l.054,20.241c0,.425.094,1.414.921,1.411a2.044,2.044,0,0,0,.984-.319l17.5-10.167a6.071,6.071,0,0,0,2.688-4.683l-.056-20.242C229.408,258.873,229.315,257.883,228.487,257.886Z" transform="translate(-205.718 -256.29)" fill="#fff"/>
        </g>
      </g>
    </g>
    <g id="Grupo_881646" data-name="Grupo 881646" transform="translate(188.282 252.374)">
      <g id="Grupo_881644" data-name="Grupo 881644">
        <path id="Trazado_604224" data-name="Trazado 604224" d="M184.548,252.682l.676.212c.048.014.122-.046.182-.142.011-.016,1.41-3.074,1.41-3.074s.027-.054.031-.065c.045-.113.042-.209-.008-.224l-.206-.065.166-.347a1.353,1.353,0,0,0,.658-.073l.008,2.653,5.1-2.96-.012-4.115-2.555-1.3-.638,1.068a.742.742,0,0,0-.087-.072l.725-1.215,2.8,1.422.613-.357-3.417-1.888-1.092,1.881c-.837-.161-1.972.7-2.593,2-.613,1.28-.5,2.52.227,2.873l-.167.346-.2-.062c-.053-.016-.137.06-.2.172l-.019.034-1.391,3.043C184.495,252.552,184.492,252.665,184.548,252.682Zm3.007-3.819a3.816,3.816,0,0,0,1.806-1.89,2.545,2.545,0,0,0,.054-2.664l.578-.968,2.455,1.246.011,3.952-4.9,2.844Zm-.972-2.756c.529-1.106,1.519-1.827,2.208-1.612s.821,1.285.29,2.391-1.519,1.828-2.209,1.612S186.053,247.212,186.583,246.107Z" transform="translate(-184.507 -242.143)" fill="#fdfffe"/>
      </g>
      <g id="Grupo_881645" data-name="Grupo 881645" transform="translate(1.939 2.56)">
        <path id="Trazado_604225" data-name="Trazado 604225" d="M186.224,245.481c.465-.973,1.335-1.608,1.942-1.418s.722,1.13.255,2.1-1.335,1.607-1.943,1.417S185.757,246.453,186.224,245.481Z" transform="translate(-185.936 -244.029)" fill="#fdfffe"/>
      </g>
    </g>
    <g id="Grupo_881661" data-name="Grupo 881661" transform="translate(200.992 245.311)">
      <g id="Grupo_881648" data-name="Grupo 881648">
        <g id="Grupo_881647" data-name="Grupo 881647">
          <path id="Trazado_604226" data-name="Trazado 604226" d="M197.715,246.325c-2.112,1.227-3.835.237-3.842-2.205a8.488,8.488,0,0,1,3.819-6.654c2.112-1.227,3.834-.238,3.841,2.2A8.491,8.491,0,0,1,197.715,246.325Zm-.023-8.657a8.1,8.1,0,0,0-3.644,6.351c.005,2.331,1.65,3.275,3.667,2.1a8.106,8.106,0,0,0,3.644-6.353C201.352,237.44,199.707,236.5,197.692,237.668Zm.022,8.087c-1.84,1.068-3.341.206-3.348-1.922a7.4,7.4,0,0,1,3.328-5.8c1.84-1.068,3.341-.208,3.347,1.92A7.4,7.4,0,0,1,197.714,245.755Zm-.02-7.517a7.01,7.01,0,0,0-3.153,5.495c.005,2.017,1.429,2.834,3.173,1.821a7.015,7.015,0,0,0,3.153-5.5C200.861,238.041,199.437,237.224,197.693,238.238Z" transform="translate(-193.873 -236.939)" fill="#fdfffe"/>
        </g>
      </g>
      <g id="Grupo_881650" data-name="Grupo 881650" transform="translate(0.525 0.68)">
        <g id="Grupo_881649" data-name="Grupo 881649">
          <path id="Trazado_604227" data-name="Trazado 604227" d="M197.575,245.538c-1.823,1.059-3.309.2-3.315-1.9a7.326,7.326,0,0,1,3.3-5.741c1.821-1.059,3.309-.2,3.314,1.9A7.322,7.322,0,0,1,197.575,245.538Zm-.02-7.442a6.939,6.939,0,0,0-3.12,5.439c.005,2,1.414,2.805,3.14,1.8a6.943,6.943,0,0,0,3.12-5.439C200.69,237.9,199.281,237.093,197.555,238.1Z" transform="translate(-194.26 -237.44)" fill="#fdfffe"/>
        </g>
      </g>
      <g id="Grupo_881652" data-name="Grupo 881652" transform="translate(3.429 1.585)">
        <g id="Grupo_881651" data-name="Grupo 881651">
          <path id="Trazado_604228" data-name="Trazado 604228" d="M196.791,238.161c.218-.126.395-.024.4.227a.87.87,0,0,1-.394.683c-.217.126-.394.026-.394-.225A.873.873,0,0,1,196.791,238.161Z" transform="translate(-196.4 -238.107)" fill="#fdfffe"/>
        </g>
      </g>
      <g id="Grupo_881654" data-name="Grupo 881654" transform="translate(0.962 5.885)">
        <g id="Grupo_881653" data-name="Grupo 881653">
          <path id="Trazado_604229" data-name="Trazado 604229" d="M194.977,242.24c-.217.126-.395.024-.395-.227a.871.871,0,0,1,.392-.684c.217-.126.394-.024.395.227A.874.874,0,0,1,194.977,242.24Z" transform="translate(-194.582 -241.275)" fill="#fdfffe"/>
        </g>
      </g>
      <g id="Grupo_881656" data-name="Grupo 881656" transform="translate(3.444 7.31)">
        <g id="Grupo_881655" data-name="Grupo 881655">
          <path id="Trazado_604230" data-name="Trazado 604230" d="M196.806,243.29c-.217.125-.394.024-.395-.227a.872.872,0,0,1,.392-.684c.217-.126.394-.024.395.227A.876.876,0,0,1,196.806,243.29Z" transform="translate(-196.411 -242.325)" fill="#fdfffe"/>
        </g>
      </g>
      <g id="Grupo_881658" data-name="Grupo 881658" transform="translate(2.25 1.574)">
        <g id="Grupo_881657" data-name="Grupo 881657">
          <path id="Trazado_604231" data-name="Trazado 604231" d="M198.736,238.428l-1.249,2.887a.574.574,0,0,1,.008.087.874.874,0,0,1-.392.684.285.285,0,0,1-.267.033l-1.018.59c-.159.092-.288.018-.288-.166a.638.638,0,0,1,.286-.5l1.018-.592a.79.79,0,0,1,.266-.277.4.4,0,0,1,.049-.023l1.211-2.8c.068-.155.214-.274.313-.254a.125.125,0,0,1,.1.11A.378.378,0,0,1,198.736,238.428Z" transform="translate(-195.531 -238.098)" fill="#fdfffe"/>
        </g>
      </g>
      <g id="Grupo_881660" data-name="Grupo 881660" transform="translate(5.912 3.009)">
        <g id="Grupo_881659" data-name="Grupo 881659">
          <path id="Trazado_604232" data-name="Trazado 604232" d="M198.624,240.121c-.217.126-.394.024-.395-.227a.874.874,0,0,1,.392-.684c.217-.126.394-.024.395.227A.874.874,0,0,1,198.624,240.121Z" transform="translate(-198.229 -239.156)" fill="#fdfffe"/>
        </g>
      </g>
    </g>
  </g>
</svg>
