<svg xmlns="http://www.w3.org/2000/svg" xmlns:xlink="http://www.w3.org/1999/xlink" width="109.651" height="101.814" viewBox="0 0 109.651 101.814">
  <defs>
    <clipPath id="clip-path">
      <path id="Trazado_604234" data-name="Trazado 604234" d="M406.84,134.121l1.083-.629c4.525-1.988,10.27-1.206,16.181,2.207l-1.083.629C417.112,132.917,411.365,132.133,406.84,134.121Z" transform="translate(-406.84 -132.416)" fill="none"/>
    </clipPath>
    <clipPath id="clip-path-2">
      <path id="Trazado_604237" data-name="Trazado 604237" d="M418.447,135.4l1.083-.629c5.832,3.367,11.51,9.123,15.985,16.212l-1.083.629C429.957,144.523,424.279,138.766,418.447,135.4Z" transform="translate(-418.447 -134.771)" fill="none"/>
    </clipPath>
    <clipPath id="clip-path-3">
      <path id="Trazado_604240" data-name="Trazado 604240" d="M410.78,142.533l1.083-.629c2.975-1.313,6.761-.8,10.661,1.453l-1.082.629C417.543,141.734,413.756,141.22,410.78,142.533Z" transform="translate(-410.78 -141.192)" fill="none"/>
    </clipPath>
    <clipPath id="clip-path-4">
      <path id="Trazado_604243" data-name="Trazado 604243" d="M418.428,143.374l1.082-.629a32.173,32.173,0,0,1,10.532,10.676l-1.082.629A32.212,32.212,0,0,0,418.428,143.374Z" transform="translate(-418.428 -142.745)" fill="none"/>
    </clipPath>
    <clipPath id="clip-path-5">
      <path id="Trazado_604246" data-name="Trazado 604246" d="M414.331,150.814l1.083-.63c1.589-.7,3.6-.421,5.682.779l-1.083.63C417.933,150.391,415.92,150.115,414.331,150.814Z" transform="translate(-414.331 -149.807)" fill="none"/>
    </clipPath>
    <clipPath id="clip-path-6">
      <path id="Trazado_604249" data-name="Trazado 604249" d="M418.407,151.266l1.083-.63a17.16,17.16,0,0,1,5.608,5.684l-1.082.629A17.171,17.171,0,0,0,418.407,151.266Z" transform="translate(-418.407 -150.636)" fill="none"/>
    </clipPath>
    <clipPath id="clip-path-7">
      <path id="Trazado_604265" data-name="Trazado 604265" d="M357.966,168.161,404.7,141c-3.524,2.684-4.595,8.365-5.174,13.574l-46.735,27.161C353.37,176.525,354.442,170.844,357.966,168.161Z" transform="translate(-352.793 -141.001)" fill="none"/>
    </clipPath>
    <clipPath id="clip-path-8">
      <path id="Trazado_604268" data-name="Trazado 604268" d="M360.822,166.481l41.036-23.849c3.156-1.833,7.527-1.574,12.349,1.21l-41.036,23.849C368.349,164.905,363.978,164.646,360.822,166.481Z" transform="translate(-360.822 -141.461)" fill="none"/>
    </clipPath>
    <clipPath id="clip-path-9">
      <path id="Trazado_604271" data-name="Trazado 604271" d="M422.951,184.26l-41.036,23.849c3.116-1.811,5.047-5.661,5.062-11.132.032-11.017-7.708-24.424-17.3-29.959l41.036-23.849c9.589,5.536,17.328,18.943,17.3,29.959C428,178.6,426.067,182.45,422.951,184.26Z" transform="translate(-369.68 -143.169)" fill="none"/>
    </clipPath>
    <linearGradient id="linear-gradient" x1="0.5" x2="0.5" y2="1" gradientUnits="objectBoundingBox">
      <stop offset="0" stop-color="#039be5"/>
      <stop offset="1" stop-color="#027fbc"/>
    </linearGradient>
    <clipPath id="clip-path-10">
      <path id="Trazado_604276" data-name="Trazado 604276" d="M356.212,167.985l46.737-27.16c4.235-1.977,9.236-1.361,14.13,1.467l-46.735,27.16C365.449,166.626,360.449,166.009,356.212,167.985Z" transform="translate(-356.212 -139.673)" fill="none"/>
    </clipPath>
    <clipPath id="clip-path-11">
      <path id="Trazado_604278" data-name="Trazado 604278" d="M366.349,168.712l46.735-27.16a33.8,33.8,0,0,1,9.768,8.968l-46.737,27.16A33.838,33.838,0,0,0,366.349,168.712Z" transform="translate(-366.349 -141.552)" fill="none"/>
    </clipPath>
    <clipPath id="clip-path-12">
      <path id="Trazado_604281" data-name="Trazado 604281" d="M373.355,175.145l46.737-27.16c5.944,8.233,9.279,17.493,9.159,25.41l-46.737,27.16C382.635,192.638,379.3,183.378,373.355,175.145Z" transform="translate(-373.355 -147.985)" fill="none"/>
    </clipPath>
  </defs>
  <g id="Grupo_881782" data-name="Grupo 881782" transform="translate(-352.036 -132.416)">
    <g id="Grupo_881705" data-name="Grupo 881705" transform="translate(428.438 132.416)">
      <g id="Grupo_881676" data-name="Grupo 881676">
        <g id="Grupo_881675" data-name="Grupo 881675" style="isolation: isolate">
          <g id="Grupo_881666" data-name="Grupo 881666" style="isolation: isolate">
            <g id="Grupo_881665" data-name="Grupo 881665" clip-path="url(#clip-path)">
              <g id="Grupo_881664" data-name="Grupo 881664" style="isolation: isolate">
                <g id="Grupo_881663" data-name="Grupo 881663">
                  <path id="Trazado_604233" data-name="Trazado 604233" d="M406.84,134.121l1.083-.629c4.525-1.988,10.27-1.206,16.181,2.207l-1.083.629c-5.909-3.411-11.656-4.195-16.181-2.207Z" transform="translate(-406.84 -132.416)" fill="#acacac"/>
                </g>
              </g>
            </g>
          </g>
          <g id="Grupo_881668" data-name="Grupo 881668" transform="translate(30.009 19.495)">
            <g id="Grupo_881667" data-name="Grupo 881667">
              <path id="Trazado_604235" data-name="Trazado 604235" d="M430.522,147.029l1.083-.629-2.156,1.594-1.083.629Z" transform="translate(-428.366 -146.4)" fill="#737373"/>
            </g>
          </g>
          <g id="Grupo_881672" data-name="Grupo 881672" transform="translate(16.181 3.283)" style="isolation: isolate">
            <g id="Grupo_881671" data-name="Grupo 881671" clip-path="url(#clip-path-2)">
              <g id="Grupo_881670" data-name="Grupo 881670" style="isolation: isolate">
                <g id="Grupo_881669" data-name="Grupo 881669">
                  <path id="Trazado_604236" data-name="Trazado 604236" d="M418.447,135.4l1.083-.629c5.832,3.367,11.51,9.123,15.985,16.212l-1.083.629c-4.475-7.089-10.153-12.845-15.985-16.212Z" transform="translate(-418.447 -134.771)" fill="#acacac"/>
                </g>
              </g>
            </g>
          </g>
          <g id="Grupo_881674" data-name="Grupo 881674" transform="translate(0 0.629)">
            <g id="Grupo_881673" data-name="Grupo 881673">
              <path id="Trazado_604238" data-name="Trazado 604238" d="M423.021,136.15c5.832,3.367,11.51,9.123,15.985,16.212l-2.157,1.595c-3.883-6.148-8.8-11.142-13.839-14.052-5.111-2.951-10.085-3.622-14.011-1.9l-2.159-4.065C411.365,131.955,417.112,132.739,423.021,136.15Z" transform="translate(-406.84 -132.867)" fill="#e2e2e2"/>
            </g>
          </g>
        </g>
      </g>
      <g id="Grupo_881690" data-name="Grupo 881690" transform="translate(5.493 12.235)">
        <g id="Grupo_881689" data-name="Grupo 881689" style="isolation: isolate">
          <g id="Grupo_881680" data-name="Grupo 881680" style="isolation: isolate">
            <g id="Grupo_881679" data-name="Grupo 881679" clip-path="url(#clip-path-3)">
              <g id="Grupo_881678" data-name="Grupo 881678" style="isolation: isolate">
                <g id="Grupo_881677" data-name="Grupo 881677">
                  <path id="Trazado_604239" data-name="Trazado 604239" d="M410.78,142.533l1.083-.629c2.975-1.313,6.761-.8,10.661,1.453l-1.082.629c-3.9-2.251-7.686-2.766-10.662-1.453Z" transform="translate(-410.78 -141.192)" fill="#acacac"/>
                </g>
              </g>
            </g>
          </g>
          <g id="Grupo_881682" data-name="Grupo 881682" transform="translate(19.037 12.84)">
            <g id="Grupo_881681" data-name="Grupo 881681">
              <path id="Trazado_604241" data-name="Trazado 604241" d="M426.592,151.032l1.083-.629L425.519,152l-1.083.629Z" transform="translate(-424.436 -150.403)" fill="#737373"/>
            </g>
          </g>
          <g id="Grupo_881686" data-name="Grupo 881686" transform="translate(10.662 2.165)" style="isolation: isolate">
            <g id="Grupo_881685" data-name="Grupo 881685" clip-path="url(#clip-path-4)">
              <g id="Grupo_881684" data-name="Grupo 881684" style="isolation: isolate">
                <g id="Grupo_881683" data-name="Grupo 881683">
                  <path id="Trazado_604242" data-name="Trazado 604242" d="M418.428,143.374l1.082-.629a32.173,32.173,0,0,1,10.532,10.676l-1.082.629a32.212,32.212,0,0,0-10.532-10.676Z" transform="translate(-418.428 -142.745)" fill="#acacac"/>
                </g>
              </g>
            </g>
          </g>
          <g id="Grupo_881688" data-name="Grupo 881688" transform="translate(0 0.629)">
            <g id="Grupo_881687" data-name="Grupo 881687">
              <path id="Trazado_604244" data-name="Trazado 604244" d="M421.442,143.808a32.213,32.213,0,0,1,10.532,10.676l-2.157,1.595a25.644,25.644,0,0,0-8.387-8.516c-3.05-1.762-6.145-2.176-8.491-1.149l-2.159-4.058C413.756,141.042,417.543,141.556,421.442,143.808Z" transform="translate(-410.78 -141.643)" fill="#e2e2e2"/>
            </g>
          </g>
        </g>
      </g>
      <g id="Grupo_881704" data-name="Grupo 881704" transform="translate(10.443 24.245)">
        <g id="Grupo_881703" data-name="Grupo 881703" style="isolation: isolate">
          <g id="Grupo_881694" data-name="Grupo 881694" style="isolation: isolate">
            <g id="Grupo_881693" data-name="Grupo 881693" clip-path="url(#clip-path-5)">
              <g id="Grupo_881692" data-name="Grupo 881692" style="isolation: isolate">
                <g id="Grupo_881691" data-name="Grupo 881691">
                  <path id="Trazado_604245" data-name="Trazado 604245" d="M414.331,150.814l1.083-.63c1.589-.7,3.6-.421,5.682.779l-1.083.63c-2.08-1.2-4.093-1.478-5.682-.779Z" transform="translate(-414.331 -149.807)" fill="#acacac"/>
                </g>
              </g>
            </g>
          </g>
          <g id="Grupo_881696" data-name="Grupo 881696" transform="translate(9.135 6.839)">
            <g id="Grupo_881695" data-name="Grupo 881695">
              <path id="Trazado_604247" data-name="Trazado 604247" d="M423.04,155.342l1.083-.629-2.156,1.595-1.083.629Z" transform="translate(-420.884 -154.713)" fill="#737373"/>
            </g>
          </g>
          <g id="Grupo_881700" data-name="Grupo 881700" transform="translate(5.682 1.156)" style="isolation: isolate">
            <g id="Grupo_881699" data-name="Grupo 881699" clip-path="url(#clip-path-6)">
              <g id="Grupo_881698" data-name="Grupo 881698" style="isolation: isolate">
                <g id="Grupo_881697" data-name="Grupo 881697">
                  <path id="Trazado_604248" data-name="Trazado 604248" d="M418.407,151.266l1.083-.63a17.16,17.16,0,0,1,5.608,5.684l-1.082.629a17.171,17.171,0,0,0-5.61-5.682Z" transform="translate(-418.407 -150.636)" fill="#acacac"/>
                </g>
              </g>
            </g>
          </g>
          <g id="Grupo_881702" data-name="Grupo 881702" transform="translate(0 0.629)">
            <g id="Grupo_881701" data-name="Grupo 881701">
              <path id="Trazado_604250" data-name="Trazado 604250" d="M420.013,151.415a17.172,17.172,0,0,1,5.61,5.682l-2.157,1.595A10.6,10.6,0,0,0,420,155.168a3.939,3.939,0,0,0-3.506-.466l-2.165-4.067C415.92,149.937,417.933,150.213,420.013,151.415Z" transform="translate(-414.331 -150.258)" fill="#e2e2e2"/>
            </g>
          </g>
        </g>
      </g>
    </g>
    <g id="Grupo_881778" data-name="Grupo 881778" transform="translate(352.036 142.533)">
      <g id="Grupo_881714" data-name="Grupo 881714" transform="translate(50.723 63.316)">
        <g id="Grupo_881713" data-name="Grupo 881713" style="isolation: isolate">
          <g id="Grupo_881706" data-name="Grupo 881706" transform="translate(1.118)">
            <path id="Trazado_604251" data-name="Trazado 604251" d="M389.222,201.391l28.148-16.04a2.415,2.415,0,0,1,2.166-.01l-28.148,16.042a2.42,2.42,0,0,0-2.166.008Z" transform="translate(-389.222 -185.091)" fill="#9f9f9f"/>
          </g>
          <g id="Grupo_881710" data-name="Grupo 881710" transform="translate(3.284 0.249)" style="isolation: isolate">
            <g id="Grupo_881709" data-name="Grupo 881709" style="isolation: isolate">
              <g id="Grupo_881707" data-name="Grupo 881707">
                <path id="Trazado_604252" data-name="Trazado 604252" d="M419.483,185.546a4.6,4.6,0,0,0-.559-.276l-28.148,16.042a4.407,4.407,0,0,1,.559.276,8.55,8.55,0,0,1,3.739,5.65l28.147-16.04A8.548,8.548,0,0,0,419.483,185.546Z" transform="translate(-390.776 -185.27)" fill="#e5e5e5"/>
              </g>
              <g id="Grupo_881708" data-name="Grupo 881708" transform="translate(3.261 5.928)">
                <path id="Trazado_604253" data-name="Trazado 604253" d="M394.152,205.562l28.147-16.04a5.854,5.854,0,0,1,.081.962,2.682,2.682,0,0,1-1.118,2.458l-28.147,16.042a2.683,2.683,0,0,0,1.117-2.458,5.872,5.872,0,0,0-.079-.963Z" transform="translate(-393.115 -189.522)" fill="#9f9f9f"/>
              </g>
            </g>
          </g>
          <g id="Grupo_881712" data-name="Grupo 881712" transform="translate(0 16.042)">
            <g id="Grupo_881711" data-name="Grupo 881711">
              <path id="Trazado_604254" data-name="Trazado 604254" d="M392.263,197.124a8.409,8.409,0,0,1,3.818,6.614c-.007,2.431-1.726,3.413-3.844,2.19a8.417,8.417,0,0,1-3.818-6.614C388.427,196.882,390.149,195.9,392.263,197.124Z" transform="translate(-388.42 -196.598)" fill="#f0910a"/>
            </g>
          </g>
        </g>
      </g>
      <g id="Grupo_881731" data-name="Grupo 881731" transform="translate(46.975 72.419)">
        <g id="Grupo_881730" data-name="Grupo 881730" style="isolation: isolate">
          <g id="Grupo_881717" data-name="Grupo 881717" transform="translate(8.72 13.535)">
            <g id="Grupo_881716" data-name="Grupo 881716" style="isolation: isolate">
              <g id="Grupo_881715" data-name="Grupo 881715">
                <path id="Trazado_604255" data-name="Trazado 604255" d="M392.394,206.08l8.176-4.751a.977.977,0,0,1-.408.9l-8.175,4.752a.981.981,0,0,0,.407-.9Z" transform="translate(-391.987 -201.329)" fill="#ebebeb"/>
              </g>
            </g>
          </g>
          <g id="Grupo_881720" data-name="Grupo 881720" transform="translate(0.429)">
            <g id="Grupo_881719" data-name="Grupo 881719" style="isolation: isolate">
              <g id="Grupo_881718" data-name="Grupo 881718">
                <path id="Trazado_604256" data-name="Trazado 604256" d="M386.04,196.466l8.176-4.751a.987.987,0,0,1,1,.1l-8.176,4.751a.987.987,0,0,0-1-.1Z" transform="translate(-386.04 -191.62)" fill="#c9c9c9"/>
              </g>
            </g>
          </g>
          <g id="Grupo_881722" data-name="Grupo 881722" transform="translate(9.128 6.261)">
            <g id="Grupo_881721" data-name="Grupo 881721">
              <path id="Trazado_604257" data-name="Trazado 604257" d="M392.3,200.863l8.176-4.751-.021,7.273-8.176,4.751Z" transform="translate(-392.279 -196.112)" fill="#f5f5f5"/>
            </g>
          </g>
          <g id="Grupo_881724" data-name="Grupo 881724" transform="translate(1.425 0.192)">
            <g id="Grupo_881723" data-name="Grupo 881723">
              <path id="Trazado_604258" data-name="Trazado 604258" d="M386.754,196.51l8.176-4.752,6.329,3.654-8.176,4.751Z" transform="translate(-386.754 -191.758)" fill="#dcdcdc"/>
            </g>
          </g>
          <g id="Grupo_881727" data-name="Grupo 881727" transform="translate(7.754 3.846)">
            <g id="Grupo_881726" data-name="Grupo 881726" style="isolation: isolate">
              <g id="Grupo_881725" data-name="Grupo 881725">
                <path id="Trazado_604259" data-name="Trazado 604259" d="M391.294,199.13l8.176-4.751a3.074,3.074,0,0,1,1.394,2.416l-8.176,4.751a3.074,3.074,0,0,0-1.394-2.416Z" transform="translate(-391.294 -194.379)" fill="#ebebeb"/>
              </g>
            </g>
          </g>
          <g id="Grupo_881729" data-name="Grupo 881729" transform="translate(0 4.751)">
            <g id="Grupo_881728" data-name="Grupo 881728">
              <path id="Trazado_604260" data-name="Trazado 604260" d="M393.486,198.874a3.074,3.074,0,0,1,1.394,2.416l-.021,7.273c0,.888-.63,1.246-1.4.8l-6.328-3.654a3.072,3.072,0,0,1-1.4-2.416l.021-7.273c0-.888.632-1.246,1.4-.8Z" transform="translate(-385.732 -195.028)" fill="#bfbfbf"/>
            </g>
          </g>
        </g>
      </g>
      <g id="Grupo_881739" data-name="Grupo 881739" transform="translate(49.428 25.858)">
        <g id="Grupo_881738" data-name="Grupo 881738" style="isolation: isolate">
          <g id="Grupo_881733" data-name="Grupo 881733" transform="translate(6.21 3.586)">
            <g id="Grupo_881732" data-name="Grupo 881732">
              <path id="Trazado_604261" data-name="Trazado 604261" d="M391.993,163.909l5.359-3.115-.047,48.458-5.359,3.114Z" transform="translate(-391.946 -160.794)" fill="#969696"/>
            </g>
          </g>
          <g id="Grupo_881735" data-name="Grupo 881735" transform="translate(0.047)">
            <g id="Grupo_881734" data-name="Grupo 881734">
              <path id="Trazado_604262" data-name="Trazado 604262" d="M387.525,161.337l5.359-3.115,6.21,3.586-5.359,3.115Z" transform="translate(-387.525 -158.222)" fill="#c1c1c1"/>
            </g>
          </g>
          <g id="Grupo_881737" data-name="Grupo 881737" transform="translate(0 3.115)">
            <g id="Grupo_881736" data-name="Grupo 881736">
              <path id="Trazado_604263" data-name="Trazado 604263" d="M393.748,164.042,393.7,212.5l-6.21-3.585.047-48.458Z" transform="translate(-387.491 -160.456)" fill="#dfdfdf"/>
            </g>
          </g>
        </g>
      </g>
      <g id="Grupo_881743" data-name="Grupo 881743" transform="translate(1.056 1.851)" style="isolation: isolate">
        <g id="Grupo_881742" data-name="Grupo 881742" clip-path="url(#clip-path-7)">
          <g id="Grupo_881741" data-name="Grupo 881741" style="isolation: isolate">
            <g id="Grupo_881740" data-name="Grupo 881740">
              <path id="Trazado_604264" data-name="Trazado 604264" d="M357.966,168.161,404.7,141c-3.524,2.684-4.595,8.365-5.174,13.574l-46.735,27.16c.577-5.21,1.649-10.891,5.173-13.574Z" transform="translate(-352.793 -141.001)" fill="#9f9f9f"/>
            </g>
          </g>
        </g>
      </g>
      <g id="Grupo_881759" data-name="Grupo 881759" transform="translate(0 2.493)">
        <g id="Grupo_881758" data-name="Grupo 881758" style="isolation: isolate">
          <g id="Grupo_881748" data-name="Grupo 881748" transform="translate(12.249)" style="isolation: isolate">
            <g id="Grupo_881747" data-name="Grupo 881747" clip-path="url(#clip-path-8)">
              <g id="Grupo_881746" data-name="Grupo 881746" transform="translate(0 0)" style="isolation: isolate">
                <g id="Grupo_881744" data-name="Grupo 881744">
                  <path id="Trazado_604266" data-name="Trazado 604266" d="M360.822,166.48l41.036-23.849a9.974,9.974,0,0,1,7.532-.792l-41.036,23.847a9.974,9.974,0,0,0-7.532.793Z" transform="translate(-360.822 -141.461)" fill="#011824"/>
                </g>
                <g id="Grupo_881745" data-name="Grupo 881745" transform="translate(7.532 0.379)">
                  <path id="Trazado_604267" data-name="Trazado 604267" d="M366.225,165.58l41.036-23.847a18.584,18.584,0,0,1,4.817,2l-41.036,23.849a18.589,18.589,0,0,0-4.817-2Z" transform="translate(-366.225 -141.733)" fill="#011d2b"/>
                </g>
              </g>
            </g>
          </g>
          <g id="Grupo_881753" data-name="Grupo 881753" transform="translate(24.598 2.381)" style="isolation: isolate">
            <g id="Grupo_881752" data-name="Grupo 881752" clip-path="url(#clip-path-9)">
              <g id="Grupo_881751" data-name="Grupo 881751" style="isolation: isolate">
                <g id="Grupo_881749" data-name="Grupo 881749">
                  <path id="Trazado_604269" data-name="Trazado 604269" d="M369.68,167.018l41.036-23.849c6.547,3.779,12.23,11.228,15.169,19.079L384.849,186.1c-2.939-7.852-8.622-15.3-15.169-19.078Z" transform="translate(-369.68 -143.169)" fill="#011d2b"/>
                </g>
                <g id="Grupo_881750" data-name="Grupo 881750" transform="translate(12.235 19.079)">
                  <path id="Trazado_604270" data-name="Trazado 604270" d="M381.391,180.7l41.036-23.847a31.266,31.266,0,0,1,2.127,10.879c-.015,5.472-1.946,9.322-5.062,11.132l-41.036,23.849c3.116-1.811,5.047-5.661,5.062-11.132a31.274,31.274,0,0,0-2.127-10.881Z" transform="translate(-378.456 -156.855)" fill="#9f9f9f"/>
                </g>
              </g>
            </g>
          </g>
          <g id="Grupo_881757" data-name="Grupo 881757" transform="translate(0 17.9)">
            <g id="Grupo_881754" data-name="Grupo 881754" transform="translate(0 0)">
              <ellipse id="Elipse_7608" data-name="Elipse 7608" cx="14.169" cy="24.462" rx="14.169" ry="24.462" transform="translate(0 14.238) rotate(-30.162)" fill="#d9d9d9"/>
            </g>
            <g id="Grupo_881755" data-name="Grupo 881755" transform="translate(8.805 7.565)">
              <path id="Trazado_604272" data-name="Trazado 604272" d="M381.819,201.135a14.377,14.377,0,0,1-6.979-2.164c-9.122-5.267-16.517-18.076-16.488-28.554.018-6.594,3.085-10.69,8-10.69a14.377,14.377,0,0,1,6.979,2.164c9.122,5.267,16.517,18.076,16.488,28.554C389.805,197.039,386.738,201.135,381.819,201.135Z" transform="translate(-358.352 -159.728)" fill="#283033"/>
            </g>
            <g id="Grupo_881756" data-name="Grupo 881756" transform="translate(9.614 8.374)">
              <path id="Trazado_604273" data-name="Trazado 604273" d="M381.59,200.1a13.559,13.559,0,0,1-6.575-2.056c-8.9-5.137-16.113-17.631-16.084-27.851.017-6.1,2.774-9.883,7.2-9.883a13.574,13.574,0,0,1,6.575,2.056c8.9,5.137,16.113,17.631,16.084,27.85C388.77,196.31,386.012,200.1,381.59,200.1Z" transform="translate(-358.932 -160.308)" fill="url(#linear-gradient)"/>
            </g>
          </g>
        </g>
      </g>
      <g id="Grupo_881777" data-name="Grupo 881777" transform="translate(0.483)">
        <g id="Grupo_881776" data-name="Grupo 881776" style="isolation: isolate">
          <g id="Grupo_881764" data-name="Grupo 881764" transform="translate(5.339)" style="isolation: isolate">
            <g id="Grupo_881763" data-name="Grupo 881763" clip-path="url(#clip-path-10)">
              <g id="Grupo_881762" data-name="Grupo 881762" transform="translate(0 0)" style="isolation: isolate">
                <g id="Grupo_881760" data-name="Grupo 881760">
                  <path id="Trazado_604274" data-name="Trazado 604274" d="M356.212,167.985l46.737-27.16a13.186,13.186,0,0,1,8.869-.7l-46.735,27.16a13.19,13.19,0,0,0-8.871.7Z" transform="translate(-356.212 -139.673)" fill="#e5e5e5"/>
                </g>
                <g id="Grupo_881761" data-name="Grupo 881761" transform="translate(8.871 0.45)">
                  <path id="Trazado_604275" data-name="Trazado 604275" d="M362.575,167.156,409.31,140a20.154,20.154,0,0,1,5.261,2.169l-46.735,27.16a20.223,20.223,0,0,0-5.261-2.169Z" transform="translate(-362.575 -139.996)" fill="#fff"/>
                </g>
              </g>
            </g>
          </g>
          <g id="Grupo_881768" data-name="Grupo 881768" transform="translate(19.471 2.619)" style="isolation: isolate">
            <g id="Grupo_881767" data-name="Grupo 881767" clip-path="url(#clip-path-11)">
              <g id="Grupo_881766" data-name="Grupo 881766" style="isolation: isolate">
                <g id="Grupo_881765" data-name="Grupo 881765">
                  <path id="Trazado_604277" data-name="Trazado 604277" d="M366.349,168.712l46.735-27.16a33.8,33.8,0,0,1,9.768,8.968l-46.737,27.16a33.838,33.838,0,0,0-9.767-8.968Z" transform="translate(-366.349 -141.552)" fill="#fff"/>
                </g>
              </g>
            </g>
          </g>
          <g id="Grupo_881773" data-name="Grupo 881773" transform="translate(29.238 11.587)" style="isolation: isolate">
            <g id="Grupo_881772" data-name="Grupo 881772" clip-path="url(#clip-path-12)">
              <g id="Grupo_881771" data-name="Grupo 881771">
                <g id="Grupo_881769" data-name="Grupo 881769">
                  <path id="Trazado_604279" data-name="Trazado 604279" d="M373.355,175.145l46.737-27.16a52.862,52.862,0,0,1,6.664,12.306L380.02,187.45a52.869,52.869,0,0,0-6.665-12.306Z" transform="translate(-373.355 -147.985)" fill="#e5e5e5"/>
                </g>
                <g id="Grupo_881770" data-name="Grupo 881770" transform="translate(6.665 12.306)">
                  <path id="Trazado_604280" data-name="Trazado 604280" d="M378.136,183.972l46.735-27.16a36.3,36.3,0,0,1,2.5,13.1l-46.737,27.16a36.332,36.332,0,0,0-2.494-13.1Z" transform="translate(-378.136 -156.812)" fill="#e5e5e5"/>
                </g>
              </g>
            </g>
          </g>
          <g id="Grupo_881775" data-name="Grupo 881775" transform="translate(0 27.16)">
            <g id="Grupo_881774" data-name="Grupo 881774">
              <path id="Trazado_604282" data-name="Trazado 604282" d="M371.853,161.774a33.839,33.839,0,0,1,9.767,8.968c5.946,8.233,9.28,17.493,9.159,25.41l-.577-.34c.12-7.7-3.123-16.707-8.9-24.709a32.721,32.721,0,0,0-9.449-8.671c-4.752-2.745-9.608-3.343-13.722-1.426-3.524,2.684-4.6,8.365-5.173,13.574l-.573-.407c.594-5.3,1.685-11.09,5.339-13.866C361.958,158.331,366.959,158.948,371.853,161.774Z" transform="translate(-352.382 -159.156)" fill="#fff"/>
            </g>
          </g>
        </g>
      </g>
    </g>
  </g>
</svg>
