<svg xmlns="http://www.w3.org/2000/svg" width="47.744" height="63.154" viewBox="0 0 47.744 63.154">
  <g id="xxcGOb" transform="translate(-256.642 607.493)">
    <g id="Grupo_947362" data-name="Grupo 947362" transform="translate(256.642 -607.493)">
      <path id="Trazado_628567" data-name="Trazado 628567" d="M263.551-518.278q0-1.355-.006-2.709c.825-.2.944-.372.944-1.386q0-19.245,0-38.49c0-.177.014-.355,0-.531-.031-.324.113-.414.423-.414q5.475.012,10.95,0c.376,0,.434.152.427.471-.017.774-.035,1.55.005,2.322.025.484-.154.581-.6.576-2.035-.022-4.07-.011-6.105-.009-1.156,0-1.417.256-1.417,1.387q0,22.729,0,45.458c0,1.127.228,1.358,1.36,1.358q16.956,0,33.911,0c1.173,0,1.388-.219,1.388-1.4q0-22.7,0-45.392c0-1.149-.259-1.413-1.392-1.414-2.057,0-4.115-.012-6.172.009-.428,0-.58-.107-.559-.55.035-.751.031-1.5,0-2.255-.016-.414.082-.569.537-.566q5.342.029,10.684,0c.467,0,.595.13.589.593-.025,1.9.008,3.8-.02,5.707-.01.707.231,1.149.945,1.283q.013,1.093.025,2.186c-.788.168-.948.361-.96,1.164,0,.2,0,.4,0,.6q0,21.492,0,42.984c0,.434.018.719-.6.719q-21.425-.03-42.851,0c-.485,0-.591-.161-.579-.607.029-1.038-.007-2.079.015-3.117.014-.68-.242-1.1-.944-1.2q0-1.242,0-2.484a.974.974,0,0,0,.942-1.118c-.014-.681-.015-1.362,0-2.043A.983.983,0,0,0,263.551-518.278Z" transform="translate(-262.627 567.892)" fill="#ea5853"/>
      <path id="Trazado_628568" data-name="Trazado 628568" d="M303.485-593.833c-.714-.134-.955-.576-.945-1.283.028-1.9-.005-3.8.02-5.707.006-.463-.122-.6-.589-.593q-5.342.028-10.684,0c-.456,0-.553.152-.537.566.029.751.034,1.505,0,2.256-.02.443.131.555.559.55,2.057-.021,4.114-.011,6.172-.009,1.133,0,1.392.265,1.392,1.414q0,22.7,0,45.392c0,1.178-.216,1.4-1.388,1.4q-16.956,0-33.911,0c-1.132,0-1.36-.231-1.36-1.358q0-22.729,0-45.458c0-1.13.261-1.386,1.417-1.387,2.035,0,4.07-.013,6.105.009.447,0,.627-.092.6-.576-.04-.772-.022-1.548-.005-2.322.007-.32-.051-.472-.427-.471q-5.475.02-10.95,0c-.31,0-.454.09-.423.414.017.175,0,.354,0,.531q0,19.245,0,38.49c0,1.014-.119,1.185-.944,1.386-.767-.228-.913-.443-.913-1.367q0-10.781,0-21.561,0-9.155,0-18.31c0-1.2.238-1.437,1.426-1.437,3.848,0,7.7-.011,11.543.013.526,0,.706-.085.7-.664a3.277,3.277,0,0,1,3.59-3.573q6.6-.007,13.2,0a3.292,3.292,0,0,1,3.611,3.623c0,.491.108.619.61.616,3.914-.024,7.828-.014,11.742-.013,1.019,0,1.307.281,1.309,1.288,0,2.278-.01,4.556.008,6.833C304.42-594.455,304.2-593.984,303.485-593.833Zm-6.473,19.943c0-7.188-.008-14.375.015-21.563,0-.613-.161-.752-.76-.751q-15.724.029-31.449,0c-.591,0-.764.128-.763.747q.029,21.53,0,43.06c0,.6.165.708.727.708q15.758-.027,31.515,0c.555,0,.733-.1.731-.7C297-559.559,297.012-566.724,297.012-573.89Zm-16.457-24.163c2.586,0,5.172-.011,7.758.01.455,0,.6-.108.595-.582-.028-1.768-.008-3.536-.013-5.3a1.483,1.483,0,0,0-1.706-1.7q-6.664-.008-13.328,0a1.471,1.471,0,0,0-1.675,1.664c-.006,1.768.018,3.537-.015,5.3-.009.5.133.624.626.619C275.383-598.066,277.969-598.053,280.555-598.053Z" transform="translate(-256.671 607.493)" fill="#040404"/>
      <path id="Trazado_628569" data-name="Trazado 628569" d="M257.567-447.854c.7.095.958.518.944,1.2-.022,1.039.014,2.079-.015,3.117-.013.446.094.608.579.607q21.425-.019,42.851,0c.617,0,.6-.285.6-.719q-.009-21.492,0-42.984c0-.2,0-.4,0-.6.013-.8.173-1,.96-1.164a.982.982,0,0,1,.9,1.111c0,.155,0,.31,0,.465q0,22.1,0,44.2c0,1.312-.223,1.533-1.548,1.533H258.168c-1.285,0-1.522-.232-1.522-1.492,0-1.349.009-2.7,0-4.048C256.636-447.283,256.868-447.736,257.567-447.854Z" transform="translate(-256.642 504.235)" fill="#050505"/>
      <path id="Trazado_628570" data-name="Trazado 628570" d="M257.579-234.583a.983.983,0,0,1,.942,1.122c-.015.681-.014,1.362,0,2.043a.974.974,0,0,1-.942,1.118,1.014,1.014,0,0,1-.922-1.152c.005-.659.006-1.317,0-1.976A1.025,1.025,0,0,1,257.579-234.583Z" transform="translate(-256.654 284.197)" fill="#070606"/>
      <path id="Trazado_628571" data-name="Trazado 628571" d="M345.1-500.324c0,7.166-.009,14.331.017,21.5,0,.608-.176.7-.731.7q-15.758-.025-31.515,0c-.563,0-.728-.107-.727-.708q.03-21.53,0-43.06c0-.62.172-.748.763-.747q15.725.028,31.449,0c.6,0,.762.138.76.751C345.091-514.7,345.1-507.512,345.1-500.324Zm-24.181-8.628c1.282,0,2.565,0,3.848,0,1.023,0,1.279-.261,1.281-1.308,0-1.968.013-3.936-.008-5.9a1.3,1.3,0,0,1,.447-1.1,18.674,18.674,0,0,0,1.406-1.406.871.871,0,0,0,0-1.3.866.866,0,0,0-1.3-.006c-.249.218-.474.464-.708.7a.529.529,0,0,1-.447.212c-2.8-.174-5.612-.043-8.418-.075-.846-.01-1.167.292-1.17,1.084q-.015,4.013,0,8.027c0,.784.306,1.077,1.093,1.082C318.265-508.945,319.592-508.952,320.918-508.952Zm.012,27.344q1.891,0,3.781,0c1.087,0,1.333-.243,1.335-1.321,0-2.012.009-4.024-.006-6.036a1.073,1.073,0,0,1,.359-.871c.5-.467.984-.954,1.455-1.451a.9.9,0,0,0,.079-1.354.938.938,0,0,0-1.406.055c-.227.21-.44.435-.657.656a.525.525,0,0,1-.451.2c-2.826-.168-5.656-.044-8.484-.071-.782-.007-1.089.315-1.091,1.095q-.014,3.98,0,7.96c0,.859.294,1.133,1.173,1.137C318.321-481.6,319.626-481.608,320.93-481.608Zm.007-13.672q1.891,0,3.781,0c1.08,0,1.326-.245,1.328-1.328,0-1.99.012-3.98-.008-5.97a1.2,1.2,0,0,1,.414-.982q.757-.694,1.453-1.454a.9.9,0,0,0-.023-1.308.873.873,0,0,0-1.256-.017c-.269.228-.508.491-.758.742a.53.53,0,0,1-.453.194c-2.827-.165-5.656-.044-8.485-.07-.778-.007-1.083.318-1.085,1.1q-.013,3.98,0,7.96c0,.854.3,1.127,1.179,1.131C318.328-495.276,319.633-495.28,320.938-495.28Zm14.08-19.691c-1.746,0-3.492,0-5.237,0-.786,0-1.185.319-1.186.924s.4.932,1.183.933q5.237,0,10.475,0c.761,0,1.171-.353,1.153-.963-.017-.583-.4-.891-1.15-.893C338.509-514.974,336.763-514.971,335.017-514.971Zm-.051,15.531q2.619,0,5.237,0c.789,0,1.19-.313,1.2-.915s-.381-.941-1.166-.942q-5.237-.005-10.475,0c-.785,0-1.176.325-1.167.941s.41.915,1.2.916Q332.38-499.435,334.966-499.439Zm-.034,13.672c1.768,0,3.536,0,5.3,0,.77,0,1.178-.339,1.169-.947-.008-.588-.394-.909-1.133-.91q-5.27-.006-10.541,0c-.741,0-1.125.319-1.135.906-.011.609.4.948,1.165.95C331.484-485.764,333.208-485.767,334.931-485.767Z" transform="translate(-304.758 533.928)" fill="#deecf3"/>
      <path id="Trazado_628572" data-name="Trazado 628572" d="M381.534-585.932c-2.586,0-5.172-.013-7.758.012-.492,0-.635-.116-.626-.619.033-1.768.009-3.536.015-5.3a1.471,1.471,0,0,1,1.675-1.664q6.664-.01,13.328,0a1.483,1.483,0,0,1,1.706,1.7c0,1.768-.016,3.537.013,5.3.007.473-.14.585-.595.582C386.706-585.943,384.12-585.932,381.534-585.932Z" transform="translate(-357.649 595.373)" fill="#459fe9"/>
      <path id="Trazado_628573" data-name="Trazado 628573" d="M345-493.551c-1.327,0-2.654.007-3.98,0-.786-.006-1.09-.3-1.093-1.082q-.015-4.013,0-8.027c0-.792.324-1.093,1.17-1.084,2.806.032,5.614-.1,8.418.075a.528.528,0,0,0,.447-.212c.235-.234.46-.479.708-.7a.866.866,0,0,1,1.3.006.871.871,0,0,1,0,1.3,18.674,18.674,0,0,1-1.406,1.407,1.3,1.3,0,0,0-.447,1.1c.021,1.968.012,3.936.008,5.9,0,1.048-.257,1.306-1.281,1.308C347.569-493.549,346.286-493.551,345-493.551Zm3.271-6c-.922.921-1.7,1.7-2.481,2.479a.9.9,0,0,1-1.3.171,13.955,13.955,0,0,1-1.592-1.587.833.833,0,0,1,.081-1.2.86.86,0,0,1,1.2-.074,4.786,4.786,0,0,1,.619.6c.148.156.265.188.436.016.865-.872,1.739-1.734,2.749-2.737-2.112,0-4.026,0-5.939,0-.3,0-.262.241-.262.434,0,1.878,0,3.757,0,5.635,0,.256.041.411.355.41,1.923-.009,3.845-.006,5.768,0,.238,0,.372-.065.37-.333C348.272-496.951,348.275-498.159,348.275-499.555Z" transform="translate(-328.844 518.527)" fill="#060604"/>
      <path id="Trazado_628574" data-name="Trazado 628574" d="M345.017-288.044c-1.3,0-2.609,0-3.914,0-.879,0-1.17-.279-1.173-1.137q-.011-3.98,0-7.96c0-.78.31-1.1,1.091-1.095,2.828.027,5.658-.1,8.484.071a.525.525,0,0,0,.451-.2c.217-.22.43-.446.657-.656a.938.938,0,0,1,1.406-.055.9.9,0,0,1-.079,1.354c-.471.5-.954.984-1.455,1.451a1.073,1.073,0,0,0-.359.871c.015,2.012.01,4.024.006,6.036,0,1.078-.249,1.319-1.335,1.321Q346.908-288.042,345.017-288.044Zm2.846-8.164-.1-.178c-1.872,0-3.745.005-5.618,0-.372,0-.364.22-.364.478,0,1.857.005,3.713,0,5.57,0,.286.042.447.39.444,1.9-.014,3.8-.007,5.7-.005.214,0,.4-.008.4-.3,0-1.227,0-2.454,0-3.848-.9.906-1.684,1.682-2.459,2.463a.923.923,0,0,1-1.355.172,13.5,13.5,0,0,1-1.541-1.546.83.83,0,0,1,.086-1.2.852.852,0,0,1,1.2-.075,4.288,4.288,0,0,1,.573.551c.165.179.291.213.486.019C346.124-294.521,347-295.361,347.863-296.207Z" transform="translate(-328.845 340.363)" fill="#060604"/>
      <path id="Trazado_628575" data-name="Trazado 628575" d="M345.024-390.76c-1.3,0-2.609,0-3.914,0-.883,0-1.177-.277-1.179-1.131q-.012-3.98,0-7.96c0-.783.307-1.108,1.085-1.1,2.828.026,5.658-.1,8.484.07a.53.53,0,0,0,.453-.194c.25-.25.489-.514.758-.742a.873.873,0,0,1,1.256.017.9.9,0,0,1,.023,1.308q-.694.757-1.453,1.454a1.2,1.2,0,0,0-.413.982c.02,1.99.011,3.98.008,5.97,0,1.082-.248,1.326-1.328,1.328Q346.915-390.758,345.024-390.76Zm3.253-5.807-.164-.092q-1.154,1.182-2.309,2.364a.919.919,0,0,1-1.357.153,14.493,14.493,0,0,1-1.5-1.494.845.845,0,0,1,.026-1.205.885.885,0,0,1,1.254-.108c.317.208.474.782.89.65.338-.107.579-.521.861-.8.5-.5,1.006-.995,1.5-1.5.123-.126.326-.217.311-.5-1.882,0-3.734.005-5.586,0-.32,0-.418.12-.417.429q.014,2.818,0,5.636c0,.3.079.43.407.428q2.851-.018,5.7,0c.286,0,.389-.1.387-.386C348.271-394.191,348.277-395.379,348.277-396.567Z" transform="translate(-328.844 429.408)" fill="#060604"/>
      <path id="Trazado_628576" data-name="Trazado 628576" d="M442.222-465.014c1.746,0,3.492,0,5.237,0,.748,0,1.133.31,1.15.893.018.61-.392.962-1.153.963q-5.237.005-10.475,0c-.779,0-1.184-.327-1.183-.933s.4-.922,1.186-.924C438.731-465.017,440.477-465.014,442.222-465.014Z" transform="translate(-411.963 483.972)" fill="#030303"/>
      <path id="Trazado_628577" data-name="Trazado 628577" d="M442.181-360.393q-2.586,0-5.171,0c-.789,0-1.19-.313-1.2-.916s.382-.94,1.167-.941q5.237-.005,10.475,0c.786,0,1.177.326,1.166.942s-.412.913-1.2.915Q444.8-360.389,442.181-360.393Z" transform="translate(-411.973 394.881)" fill="#030303"/>
      <path id="Trazado_628578" data-name="Trazado 628578" d="M442.145-257.632c-1.724,0-3.447,0-5.171,0-.77,0-1.176-.341-1.165-.95.01-.587.395-.905,1.135-.906q5.271-.006,10.541,0c.739,0,1.124.322,1.133.91.009.608-.4.945-1.169.947C445.68-257.629,443.913-257.632,442.145-257.632Z" transform="translate(-411.971 305.792)" fill="#030303"/>
      <path id="Trazado_628579" data-name="Trazado 628579" d="M360.4-480.107c0,1.4,0,2.6,0,3.813,0,.268-.132.333-.37.333-1.923,0-3.846-.007-5.768,0-.314,0-.355-.154-.355-.41.005-1.878,0-3.757,0-5.635,0-.193-.04-.433.262-.434,1.913,0,3.827,0,5.939,0-1.01,1-1.884,1.865-2.749,2.737-.171.172-.288.14-.436-.016a4.787,4.787,0,0,0-.619-.6.86.86,0,0,0-1.2.074.833.833,0,0,0-.081,1.2,13.953,13.953,0,0,0,1.592,1.587.9.9,0,0,0,1.3-.171C358.7-478.407,359.478-479.185,360.4-480.107Z" transform="translate(-340.969 499.078)" fill="#e9d500"/>
      <path id="Trazado_628580" data-name="Trazado 628580" d="M359.98-276.8c-.867.846-1.74,1.687-2.6,2.542-.194.194-.321.16-.486-.019a4.288,4.288,0,0,0-.573-.551.852.852,0,0,0-1.2.074.83.83,0,0,0-.086,1.2,13.5,13.5,0,0,0,1.541,1.546.923.923,0,0,0,1.355-.172c.775-.781,1.554-1.557,2.459-2.463,0,1.394,0,2.621,0,3.848,0,.293-.186.3-.4.3-1.9,0-3.8-.008-5.7.005-.349,0-.391-.158-.39-.444.008-1.857,0-3.713,0-5.57,0-.258-.008-.48.364-.478,1.872.01,3.745,0,5.617,0Z" transform="translate(-340.961 320.951)" fill="#e9d500"/>
      <path id="Trazado_628581" data-name="Trazado 628581" d="M360.387-377.207c0,1.188-.005,2.376,0,3.564,0,.284-.1.387-.387.386q-2.851-.012-5.7,0c-.328,0-.409-.124-.407-.428q.015-2.818,0-5.636c0-.309.1-.43.417-.429,1.852.01,3.7,0,5.586,0,.015.284-.188.375-.311.5-.493.507-1,1-1.5,1.5-.282.28-.523.694-.861.8-.416.132-.573-.442-.89-.65a.885.885,0,0,0-1.254.108.845.845,0,0,0-.026,1.205,14.49,14.49,0,0,0,1.5,1.494.919.919,0,0,0,1.357-.153q1.156-1.18,2.309-2.364Z" transform="translate(-340.955 410.048)" fill="#e9d500"/>
    </g>
  </g>
</svg>
