<svg xmlns="http://www.w3.org/2000/svg" width="143" height="143" viewBox="0 0 143 143">
  <g id="Grupo_922496" data-name="Grupo 922496" transform="translate(0.19)">
    <rect id="Rectángulo_298570" data-name="Rectángulo 298570" width="143" height="143" transform="translate(-0.19)" fill="none"/>
    <g id="Grupo_880016" data-name="Grupo 880016" transform="translate(-1119.377 -917.031)">
      <path id="Trazado_602581" data-name="Trazado 602581" d="M1170.509,1019.969c-.04,1.06-.335,1.6-1.651,1.582-5.7-.1-11.4.02-17.1-.058a11.768,11.768,0,0,1-11.812-11.964q-.051-30.284,0-60.568a11.754,11.754,0,0,1,12.05-11.911q30.185-.032,60.371,0a11.774,11.774,0,0,1,12.13,12.04c.044,9.792-.02,19.586.038,29.378.012,1.956-.793,2.63-2.656,2.56-2.277-.086-4.563-.087-6.84.012-.958.042-2.528-.824-2.511,1.374,0,.538-1.1.148-1.623.463-2.07.164-1.751-1.6-2.1-2.72-.5-1.6.129-2.411,1.814-2.482,1.337-.056,2.683.058,4.016-.03,2.1-.139,4.237.436,6.3-.322l.056-.474q.053-5.227.105-10.453c.037-4.42.254-8.841-.088-13.259a18.75,18.75,0,0,0-.035-5.551,8.133,8.133,0,0,0-7.328-7,2.879,2.879,0,0,0-.756-.217q-13.93-.025-27.859-.02c-.5,0-1.154-.128-1.086.745q0,3.6,0,7.2c.75,1.609,2.12.3,3.134.667,5.408,1.24,8.817,5.266,8.693,10.264a10.359,10.359,0,0,1-8.472,9.861c-1.123.233-2.7-.629-3.28.612-.466.992-.123,2.367-.123,3.572,0,.4.053.8.082,1.2-.029.331-.037.667-.092.994-.289,1.7.281,2.371,2.131,2.241,2.526-.178,5.074-.053,7.614-.042,2.649.011,3.071.561,2.422,3.108a6.579,6.579,0,0,0,3.811,8.1,1.513,1.513,0,0,1,1.067,2.1c-.184,1.48-.829,1.8-2.258,1.184a10.317,10.317,0,0,1-6.278-9.688c0-1.114-.185-1.544-1.377-1.485a51.56,51.56,0,0,1-5.628,0c-1.31-.079-1.556.435-1.528,1.618.075,3.216.031,6.435.023,9.653-.006,2.8-.448,3.125-3.23,2.424a6.842,6.842,0,0,0-7.937,3.595,6.573,6.573,0,0,0,2.048,8.26c1.136.791,1.282,1.466.711,2.541-.419,1.189-1,1.458-2.158.674a11.352,11.352,0,0,1-4.651-7.131c-.04-7.2,3.678-11.268,10.673-11.541,1.023-.04,1.233-.355,1.216-1.269-.045-2.477-.059-4.957.006-7.434.028-1.066-.344-1.394-1.386-1.374-2.879.054-5.761.033-8.641.013-2.335-.017-2.887-.757-2.267-2.954.891-3.162.036-5.934-2.375-7.7a6.737,6.737,0,0,0-10.356,7.618c.615,2.221.056,3.011-2.223,3.032-2.88.027-5.761.022-8.641,0-.844-.007-1.395.108-1.388,1.178.058,8.57.077,17.14.106,25.71-.543,6.236,2.972,10.155,9.163,10.178,5.276.02,10.554.062,15.829-.03C1169.891,1018.01,1170.647,1018.386,1170.509,1019.969Zm9.7-42.665c.63-.532.312-1.252.322-1.877.04-2.612,0-5.225.023-7.837.02-2.254.673-2.737,2.843-2.179,3.3.848,6.094-.089,7.806-2.613a6.811,6.811,0,0,0-.158-7.736,6.665,6.665,0,0,0-7.689-2.345c-1.394.419-2.355.212-2.9-1.209q.009-5.212.017-10.425c-.18-1.185-1.122-.69-1.721-.693-8.733-.033-17.466-.024-26.2-.018a3.179,3.179,0,0,0-1.757.235,8.167,8.167,0,0,0-7.487,8.466c-.109,8.975-.032,17.953-.014,26.929,0,.529-.288,1.293.691,1.366h7.213c.333.005.515-.138.485-.491.228-6.822,4.4-11.312,10.434-11.219,5.793.089,9.794,4.576,10.019,11.234-.029.326.125.481.448.477l7.2,0Z" transform="translate(0 0)" fill="#050403"/>
      <path id="Trazado_602582" data-name="Trazado 602582" d="M1259.312,1056.684c1.562-.2,2.859-1.092,4.271-1.674,2.526-1.04,2.919-.909,3.86,1.592,1.507,4.007,3.029,8.009,4.494,12.032a4.466,4.466,0,0,0,1.8,2.3c4.163,2.814,8.268,5.714,12.431,8.526a8.907,8.907,0,0,1,4.178,7.971c-.056,6.5-.01,13.009-.023,19.514,0,.783.383,1.826-1.144,1.713-1.17-.086-2.536.3-2.3-1.66.026-6.765.081-13.53.059-20.3a5.13,5.13,0,0,0-2.526-4.331c-2.827-1.916-5.622-3.88-8.451-5.794-.326-.221-.61-.791-1.178-.4.968,2.575,1.939,5.124,2.884,7.684a9.034,9.034,0,0,1,.741,5.3c-.575,2.24-.065,3.863,1.8,5.123,1.254.847.88,1.488-.017,2.463-1.054,1.146-1.594.792-2.488-.128-3.364-3.459-6.81-6.838-10.215-10.255-1.153-1.157-2.392-1.493-3.722-.361-1.184,1.007-1.112,2.5.2,3.862,1.531,1.6,3.086,3.171,4.7,4.687a4.618,4.618,0,0,1,1.513,3.135,8,8,0,0,0,6.581,7.165c1.5.23,1.922.811,1.871,2.117.089,1.338-.487,1.7-1.8,1.448a23.625,23.625,0,0,1-4.52-1.522,18.6,18.6,0,0,1-3.542-3.475c-1.8-2.654-1.821-2.641-4.921-1.431-.186.073-.377.136-.569.192-.963.278-.944.786-.315,1.406a4.068,4.068,0,0,0,1.194,1.038c1.262.472,1.3,1.289.869,2.334-.306,1.682-1.194,1.547-2.354.8a7.746,7.746,0,0,1-2.866-2.762c-.575-1.111-1.167-1.107-2.212-.7-4.8,1.874-9.657,3.61-14.448,5.508-1.8.713-2.746.248-3.355-1.529-.823-2.4-1.775-4.752-2.687-7.167-4.509,2.061-8.609,1.74-12.215-1.624-2.731-2.547-3.357-5.834-2.983-9.4,1.03-3.236,2.764-6.063,6.09-7.121,2.339-.744,1.908-1.741,1.056-3.2-.891-2.441-1.773-4.886-2.676-7.323-1.026-2.772-.877-3.122,1.827-4.146q4.5-1.7,9-3.409c2.881-1.089,3.274-.828,3.692,2.19a6.553,6.553,0,0,0,4.648,5.742,6.3,6.3,0,0,0,6.834-1.636,6.529,6.529,0,0,0,1.566-7.22c-.331-.943-.8-1.838-1.2-2.755a2.189,2.189,0,0,1,1.539-2.069c1.568-.676,3.111-1.412,4.665-2.122l.4-.355Zm10.308,15.6c-1.552-4.206-3.143-8.4-4.632-12.628-.417-1.184-.941-1.184-1.912-.7a34.541,34.541,0,0,1-4.41,1.937c-1.473.5-1.882,1.064-1.355,2.71a9.977,9.977,0,0,1-5.489,12.04,10.255,10.255,0,0,1-12.762-3.718c-.728-1.076-.58-3.05-1.9-3.206-1.248-.148-2.63.814-3.951,1.293-.755.274-1.492.608-2.262.827-1.11.317-1.249.879-.832,1.926,1.213,3.046,2.328,6.132,3.465,9.208.967,2.617.586,3.241-2.11,3.532a6.583,6.583,0,0,0-4.894,10.438c2.431,3.352,6.191,3.941,9.656,1.514,1.935-1.355,2.689-1.141,3.557,1.088.777,1.994,1.587,3.984,2.218,6.026.43,1.394.957,1.738,2.4,1.152,4.027-1.64,8.123-3.111,12.191-4.65,3.236-1.224,6.47-2.45,10.166-3.849-2.019-1.931-3.764-3.573-5.478-5.247a5.845,5.845,0,0,1,2.024-9.7,5.638,5.638,0,0,1,6.142,1.274c1.8,1.711,3.549,3.487,5.32,5.234l.515-.322C1274.049,1082.854,1271.615,1077.64,1269.62,1072.281Z" transform="translate(-48.903 -70.093)" fill="#060606"/>
      <path id="Trazado_602583" data-name="Trazado 602583" d="M1275.127,1010.784c-1.553.71-3.1,1.446-4.664,2.122a2.189,2.189,0,0,0-1.539,2.069l-2.9-.136a1.513,1.513,0,0,0-1.065-2.1,6.58,6.58,0,0,1-3.811-8.1c.649-2.547.227-3.1-2.422-3.108-2.539-.011-5.087-.136-7.614.042-1.85.13-2.42-.537-2.131-2.241.055-.328.063-.663.092-.994,2.016-.7,4.052-1.345,6.045-2.107,10.822-4.139,20.947-9.412,29.026-17.987.535-.568,1-1.3,1.957-1.238.341,4.418.124,8.839.087,13.259q-.044,5.226-.105,10.453c-.291.127-.415.272-.055.474-2.066.758-4.2.183-6.3.321-1.333.088-2.679-.026-4.016.03-1.685.07-2.315.884-1.813,2.482.351,1.121.032,2.884,2.1,2.72.228,1.29-.557,2.446-.494,3.715l.025-.033C1275.243,1010.374,1275.173,1010.565,1275.127,1010.784Z" transform="translate(-65.095 -23.87)" fill="#d25144"/>
      <path id="Trazado_602584" data-name="Trazado 602584" d="M1185.211,1106.895c.852,1.46,1.283,2.458-1.056,3.2-3.326,1.058-5.06,3.885-6.091,7.121l-2.486-.015c.138-1.582-.618-1.958-2.127-1.932-5.275.092-10.552.05-15.829.03-6.191-.023-9.706-3.942-9.163-10.178a65.741,65.741,0,0,0,14.006-1.858c3.852-.829,7.483-2.383,11.27-3.422a11.353,11.353,0,0,0,4.651,7.131c1.158.785,1.74.516,2.158-.674A8.041,8.041,0,0,0,1185.211,1106.895Z" transform="translate(-5.07 -97.234)" fill="#faa419"/>
      <path id="Trazado_602585" data-name="Trazado 602585" d="M1339.6,1139.055c.051-1.306-.369-1.887-1.871-2.117a8,8,0,0,1-6.582-7.165,4.614,4.614,0,0,0-1.513-3.134c-1.609-1.516-3.164-3.091-4.7-4.687-1.308-1.364-1.38-2.856-.2-3.863,1.331-1.131,2.57-.795,3.722.362,3.406,3.418,6.852,6.8,10.216,10.256.894.92,1.433,1.273,2.488.128.9-.975,1.272-1.616.017-2.463-1.867-1.26-2.377-2.883-1.8-5.123a9.033,9.033,0,0,0-.74-5.3c-.945-2.559-1.916-5.108-2.884-7.684.568-.387.853.184,1.179.4,2.829,1.914,5.624,3.878,8.451,5.794a5.132,5.132,0,0,1,2.526,4.332c.022,6.765-.033,13.531-.059,20.3Z" transform="translate(-109.883 -102.183)" fill="#fac6a1"/>
      <path id="Trazado_602586" data-name="Trazado 602586" d="M1325.387,1176.357c.433-1.045.393-1.862-.869-2.334a4.069,4.069,0,0,1-1.194-1.038c-.629-.621-.648-1.129.315-1.407.192-.056.382-.119.568-.192,3.1-1.21,3.119-1.223,4.922,1.431a18.594,18.594,0,0,0,3.542,3.475Z" transform="translate(-109.272 -139.494)" fill="#f3b98e"/>
      <path id="Trazado_602587" data-name="Trazado 602587" d="M1173.659,1050.1c-3.788,1.039-7.418,2.593-11.27,3.422a65.768,65.768,0,0,1-14.006,1.858c-.03-8.57-.048-17.141-.106-25.71-.007-1.07.544-1.184,1.388-1.178,2.88.023,5.761.028,8.641,0,2.279-.021,2.838-.811,2.223-3.032a6.737,6.737,0,0,1,10.356-7.618c2.411,1.763,3.267,4.535,2.375,7.7-.62,2.2-.067,2.938,2.267,2.954,2.88.021,5.762.042,8.641-.012,1.042-.02,1.414.308,1.386,1.374-.065,2.477-.051,4.956-.006,7.434.017.914-.192,1.229-1.216,1.269C1177.337,1038.831,1173.62,1042.9,1173.659,1050.1Z" transform="translate(-4.994 -47.489)" fill="#fab42e"/>
      <path id="Trazado_602588" data-name="Trazado 602588" d="M1148.933,982.663c-.979-.072-.69-.837-.691-1.366-.019-8.977-.1-17.954.014-26.929a8.167,8.167,0,0,1,7.487-8.466c.628.75,1.49.444,2.252.446q13.712.039,27.426.03-.008,5.212-.017,10.425a3.945,3.945,0,0,0-2.723,1.073,76.529,76.529,0,0,1-13.51,8.555,106.751,106.751,0,0,1-18.51,7.592,2.054,2.054,0,0,0-1.762,2.413C1149,978.506,1148.93,980.587,1148.933,982.663Z" transform="translate(-4.947 -5.296)" fill="#87b136"/>
      <path id="Trazado_602589" data-name="Trazado 602589" d="M1286.041,958.4c-.953-.065-1.422.67-1.956,1.238-8.079,8.575-18.2,13.848-29.026,17.987-1.992.762-4.028,1.407-6.044,2.107-.029-.4-.082-.8-.082-1.2,0-1.205-.343-2.58.123-3.572.583-1.241,2.156-.379,3.279-.613a10.359,10.359,0,0,0,8.472-9.861c.124-5-3.285-9.025-8.693-10.265-.829-1.238-2.119-.306-3.134-.667q0-3.6,0-7.2,13.721-.026,27.442-.065c.764,0,1.624.294,2.258-.444a8.133,8.133,0,0,1,7.328,7A18.762,18.762,0,0,1,1286.041,958.4Z" transform="translate(-65.035 -5.265)" fill="#e65849"/>
      <path id="Trazado_602590" data-name="Trazado 602590" d="M1149.961,998.823c0-2.077.07-4.157-.035-6.228a2.054,2.054,0,0,1,1.762-2.413,106.712,106.712,0,0,0,18.509-7.592,76.485,76.485,0,0,0,13.51-8.555,3.945,3.945,0,0,1,2.723-1.073c.545,1.42,1.506,1.627,2.9,1.209a6.666,6.666,0,0,1,7.69,2.345,6.811,6.811,0,0,1,.158,7.736c-1.711,2.525-4.509,3.462-7.805,2.613-2.17-.558-2.823-.075-2.843,2.179-.024,2.612.017,5.225-.023,7.837-.009.625.308,1.345-.322,1.877-.188-.31-.317-.2-.423.061l-7.2,0-.447-.477c-.225-6.657-4.226-11.145-10.019-11.234-6.031-.093-10.206,4.4-10.434,11.219l-.484.491Z" transform="translate(-5.975 -21.455)" fill="#7ea633"/>
      <path id="Trazado_602591" data-name="Trazado 602591" d="M1227.777,1074.8a8.038,8.038,0,0,1-4.667-.594c.572-1.076.426-1.751-.71-2.541a6.574,6.574,0,0,1-2.048-8.261,6.841,6.841,0,0,1,7.937-3.595c2.782.7,3.224.373,3.231-2.425.008-3.218.052-6.437-.023-9.653-.027-1.183.219-1.7,1.528-1.618a51.56,51.56,0,0,0,5.628,0c1.192-.059,1.381.372,1.377,1.485a10.318,10.318,0,0,0,6.278,9.689c1.429.612,2.074.3,2.258-1.184l2.9.137c.405.917.872,1.812,1.2,2.755a6.531,6.531,0,0,1-1.566,7.22,6.3,6.3,0,0,1-6.834,1.636,6.553,6.553,0,0,1-4.648-5.742c-.418-3.018-.811-3.279-3.692-2.19q-4.5,1.7-9,3.409c-2.7,1.024-2.853,1.373-1.827,4.146C1226,1069.917,1226.886,1072.362,1227.777,1074.8Z" transform="translate(-47.637 -65.142)" fill="#f2f4f4"/>
      <path id="Trazado_602592" data-name="Trazado 602592" d="M1196.608,945.908q-13.713-.009-27.426-.03c-.761,0-1.623.3-2.252-.446a3.18,3.18,0,0,1,1.757-.235c8.733-.006,17.467-.015,26.2.018C1195.485,945.218,1196.427,944.724,1196.608,945.908Z" transform="translate(-16.134 -4.826)" fill="#7ea633"/>
      <path id="Trazado_602593" data-name="Trazado 602593" d="M1278.918,945.49c-.634.738-1.494.441-2.258.444q-13.721.055-27.442.065c-.069-.873.584-.745,1.086-.745q13.929,0,27.859.02A2.876,2.876,0,0,1,1278.918,945.49Z" transform="translate(-65.276 -4.904)" fill="#bf493d"/>
      <path id="Trazado_602594" data-name="Trazado 602594" d="M1249.231,964.985c1.015.361,2.305-.572,3.134.667C1251.35,965.287,1249.981,966.594,1249.231,964.985Z" transform="translate(-65.286 -16.691)" fill="#bf493d"/>
      <path id="Trazado_602595" data-name="Trazado 602595" d="M1167.932,1036.444l.484-.491C1168.447,1036.306,1168.265,1036.449,1167.932,1036.444Z" transform="translate(-16.732 -59.077)" fill="#87b136"/>
      <path id="Trazado_602596" data-name="Trazado 602596" d="M1219.911,1035.989l.447.477C1220.036,1036.47,1219.882,1036.316,1219.911,1035.989Z" transform="translate(-47.774 -59.098)" fill="#87b136"/>
      <path id="Trazado_602597" data-name="Trazado 602597" d="M1238.908,1036.794c.106-.262.234-.371.423-.061Z" transform="translate(-59.121 -59.43)" fill="#87b136"/>
      <path id="Trazado_602598" data-name="Trazado 602598" d="M1340.736,1036.36c-.36-.2-.235-.347.055-.474Q1340.764,1036.123,1340.736,1036.36Z" transform="translate(-119.804 -59.037)" fill="#e65849"/>
      <path id="Trazado_602599" data-name="Trazado 602599" d="M1231.837,1102.248a6.583,6.583,0,0,1,4.894-10.438c2.7-.291,3.076-.915,2.109-3.532-1.136-3.077-2.251-6.162-3.464-9.208-.417-1.047-.279-1.61.832-1.926.77-.22,1.508-.553,2.262-.828,1.321-.479,2.7-1.441,3.952-1.293,1.321.156,1.173,2.13,1.9,3.206a10.254,10.254,0,0,0,12.762,3.718,9.977,9.977,0,0,0,5.489-12.04c-.527-1.646-.118-2.214,1.355-2.71a34.512,34.512,0,0,0,4.41-1.937c.971-.487,1.495-.487,1.912.7,1.489,4.229,3.08,8.422,4.632,12.628a5.767,5.767,0,0,0-2.5,2.244,25.907,25.907,0,0,1-4.418,4.626c-9.87,8.462-21.563,13.038-34.11,15.717C1233.044,1101.346,1232.274,1101.443,1231.837,1102.248Z" transform="translate(-54.164 -76.397)" fill="#4296cf"/>
      <path id="Trazado_602600" data-name="Trazado 602600" d="M1233.66,1122.461c.437-.8,1.207-.9,2.016-1.075,12.547-2.678,24.241-7.255,34.11-15.716a25.928,25.928,0,0,0,4.418-4.626,5.766,5.766,0,0,1,2.5-2.244c1.995,5.358,4.428,10.572,5.663,16.18l-.515.322c-1.771-1.747-3.515-3.523-5.319-5.234a5.639,5.639,0,0,0-6.142-1.275,5.845,5.845,0,0,0-2.024,9.7c1.714,1.674,3.459,3.316,5.478,5.247-3.695,1.4-6.93,2.625-10.166,3.849-4.068,1.539-8.164,3.011-12.191,4.65-1.439.586-1.966.242-2.4-1.151-.631-2.043-1.441-4.032-2.218-6.026-.868-2.228-1.622-2.443-3.557-1.088C1239.851,1126.4,1236.091,1125.812,1233.66,1122.461Z" transform="translate(-55.987 -96.61)" fill="#3d8dc6"/>
      <path id="Trazado_602601" data-name="Trazado 602601" d="M1314,1060.333c.046-.219.116-.41.4-.355Z" transform="translate(-103.968 -73.42)" fill="#f7f9fa"/>
    </g>
  </g>
</svg>
