<svg xmlns="http://www.w3.org/2000/svg" xmlns:xlink="http://www.w3.org/1999/xlink" width="58.478" height="58.448" viewBox="0 0 58.478 58.448">
  <defs>
    <clipPath id="clip-path">
      <rect id="Rectángulo_303193" data-name="Rectángulo 303193" width="58.478" height="58.448" fill="#12263f"/>
    </clipPath>
  </defs>
  <g id="Grupo_946600" data-name="Grupo 946600" transform="translate(0)">
    <g id="Grupo_892553" data-name="Grupo 892553" transform="translate(0)" clip-path="url(#clip-path)">
      <path id="Trazado_612112" data-name="Trazado 612112" d="M0,88.386c0-1.466,0-2.931,0-4.4a8.782,8.782,0,0,1,8.408-8.743c2.451-.121,4.9-.3,7.347-.461a.675.675,0,0,0,.439-.194c.877-1.073,1.737-2.161,2.6-3.24-1.514-1.581-1.649-2.734-.533-4.4a3.014,3.014,0,0,1,.123-4.045,16.462,16.462,0,0,1-5.556-14.729A15.985,15.985,0,0,1,18.645,37.65,16.58,16.58,0,0,1,40.109,62.924a2.989,2.989,0,0,1,.121,4c1.037,1.789.945,2.837-.394,4.284a2.8,2.8,0,0,0,.226.292c.993,1,1.983,2,2.993,2.982a1.112,1.112,0,0,0,.634.3c2.257.171,4.516.313,6.774.471a8.779,8.779,0,0,1,7.9,7.343,1.542,1.542,0,0,0,.113.308v5.482H56.537c0-1.408.005-2.816-.006-4.223a6.715,6.715,0,0,0-5.879-6.885c-2.387-.326-4.811-.38-7.221-.532a1.045,1.045,0,0,0-.6.25q-3.408,2.538-6.8,5.1c-.848.637-1.19.625-1.914-.114-.262-.267-.483-.576-.757-.908a12.251,12.251,0,0,1-.7,1.035.7.7,0,0,0-.01.961c.647,1.029,1.219,2.107,1.9,3.115a3.045,3.045,0,0,1,.527,2.206H33.123a5.5,5.5,0,0,0-.356-1.271c-.715-1.277-1.475-2.529-2.252-3.769a1.3,1.3,0,0,1,.028-1.627c.463-.64.88-1.312,1.241-1.855l-2.582-2.6-2.542,2.547c.416.626.844,1.3,1.306,1.952a1.244,1.244,0,0,1,.025,1.528c-.781,1.26-1.554,2.527-2.278,3.82a5.5,5.5,0,0,0-.356,1.271H23.415a3.054,3.054,0,0,1,.525-2.206c.7-1.04,1.313-2.135,1.941-3.221a.757.757,0,0,0,.082-.6,12.1,12.1,0,0,0-.794-1.2c-.3.31-.543.574-.8.829-.735.735-1.115.758-1.9.088-1.564-1.332-3.174-2.615-4.661-4.029a3.893,3.893,0,0,0-3.475-1.232c-2.181.289-4.4.279-6.592.5a6.611,6.611,0,0,0-5.673,5.72c-.154,1.776-.091,3.57-.125,5.356ZM33.135,62.047c1.613,0,3.152,0,4.69-.008a.71.71,0,0,0,.4-.18c4.453-3.727,6.366-8.479,5.335-14.2A14.579,14.579,0,0,0,14.841,52.67a14.711,14.711,0,0,0,4.382,8.325,2.987,2.987,0,0,0,2.715,1.066,6.705,6.705,0,0,1,1.083-.009h2.287c.017-.183.036-.294.036-.4,0-1.846.013-3.693-.013-5.539A1.007,1.007,0,0,0,25,55.452c-.961-.837-1.954-1.638-2.929-2.459a6.548,6.548,0,0,1-2.527-5.874,4.9,4.9,0,0,1,6.861-4.094,1.144,1.144,0,0,0,.826,0,4.785,4.785,0,0,1,4.03.031.884.884,0,0,0,.845-.019,4.861,4.861,0,0,1,6.824,4.05,6.539,6.539,0,0,1-2.543,5.922c-.963.806-1.936,1.6-2.89,2.417a.9.9,0,0,0-.348.535c-.025,2-.016,3.991-.016,6.085m-3.893-13.76a5.369,5.369,0,0,1-1.706,2.846.961.961,0,0,1-1.433.02,4.545,4.545,0,0,1-1.678-4.259,15.906,15.906,0,0,1,.654-2.217,2.92,2.92,0,0,0-3.6,2.754A4.5,4.5,0,0,0,23.03,51.2c1.182,1.047,2.408,2.045,3.63,3.045a1.614,1.614,0,0,1,.645,1.377c-.026,1.922-.01,3.845-.01,5.767v.619h3.89c0-2.117.026-4.189-.014-6.26a1.846,1.846,0,0,1,.769-1.608c1.186-.954,2.362-1.923,3.5-2.932a4.513,4.513,0,0,0,1.565-3.763A2.946,2.946,0,0,0,33.294,44.7c.069.137.132.273.2.4a4.781,4.781,0,0,1-.982,5.93,1.051,1.051,0,0,1-1.692-.005,5.393,5.393,0,0,1-1.582-2.742m6.012,31.921L41.3,75.673l-3.563-3.55L30.944,75.9l4.31,4.31M23.23,80.129l4.276-4.25-6.791-3.771-2.78,3.483,5.295,4.538m6.008-12.194q-4.2,0-8.394,0a2.288,2.288,0,0,0-.568.032.9.9,0,0,0-.748.887.86.86,0,0,0,.675.932,2.552,2.552,0,0,0,.674.083q8.366.007,16.732,0a2.312,2.312,0,0,0,.728-.1.893.893,0,0,0,.378-1.475,1.56,1.56,0,0,0-.969-.345c-2.836-.026-5.672-.015-8.509-.015m.031-3.892H20.932a3.957,3.957,0,0,0-.57.015.935.935,0,0,0-.081,1.847,3.447,3.447,0,0,0,.679.057q8.279,0,16.558,0a3.688,3.688,0,0,0,.679-.056.864.864,0,0,0,.756-.924.914.914,0,0,0-.836-.923,4.507,4.507,0,0,0-.57-.015H29.268m4.9,7.81H24.457c.04.06.053.1.079.114A29.982,29.982,0,0,1,27.6,73.711a2.465,2.465,0,0,0,3.287,0,33.526,33.526,0,0,1,3.277-1.855M26.784,45.974a2.578,2.578,0,0,0,.031,2.929,2.5,2.5,0,0,0-.031-2.929m4.9.023a2.423,2.423,0,0,0,.013,2.914A2.6,2.6,0,0,0,31.686,46m-2.445.6.807-1.979H28.429l.812,1.979" transform="translate(0 -29.938)" fill="#12263f"/>
      <path id="Trazado_612115" data-name="Trazado 612115" d="M221.576,424.712a5.5,5.5,0,0,1,.356-1.271c.725-1.293,1.5-2.56,2.279-3.82a1.245,1.245,0,0,0-.025-1.528c-.462-.651-.889-1.326-1.306-1.952l2.542-2.547,2.582,2.6c-.36.543-.778,1.216-1.241,1.855a1.3,1.3,0,0,0-.028,1.627c.777,1.24,1.537,2.492,2.252,3.769a5.492,5.492,0,0,1,.356,1.271Z" transform="translate(-196.22 -366.264)" fill="#12263f"/>
      <path id="Trazado_612116" data-name="Trazado 612116" d="M98.641,278.911,97.459,277.7l1.886-1.867,1.164,1.212-1.868,1.866" transform="translate(-86.306 -244.268)" fill="#12263f"/>
      <path id="Trazado_612117" data-name="Trazado 612117" d="M389.785,277.857l-1.213,1.177-1.9-1.888,1.239-1.177,1.869,1.888" transform="translate(-342.427 -244.388)" fill="#12263f"/>
      <path id="Trazado_612118" data-name="Trazado 612118" d="M98.69,57.559l-1.876-1.871L98.1,54.473l1.877,1.884-1.285,1.2" transform="translate(-85.735 -48.239)" fill="#12263f"/>
      <path id="Trazado_612119" data-name="Trazado 612119" d="M388.373,54.275,389.62,55.5l-1.9,1.881-1.266-1.218,1.923-1.889" transform="translate(-342.226 -48.064)" fill="#12263f"/>
      <rect id="Rectángulo_303190" data-name="Rectángulo 303190" width="1.924" height="1.889" transform="translate(28.277 0)" fill="#12263f"/>
      <rect id="Rectángulo_303191" data-name="Rectángulo 303191" width="1.897" height="1.894" transform="translate(7.809 19.506)" fill="#12263f"/>
      <rect id="Rectángulo_303192" data-name="Rectángulo 303192" width="1.912" height="1.89" transform="translate(48.754 19.489)" fill="#12263f"/>
      <path id="Trazado_612120" data-name="Trazado 612120" d="M146.566,77.182c0-2.094-.009-4.09.016-6.085a.9.9,0,0,1,.348-.535c.954-.816,1.926-1.612,2.89-2.417a6.539,6.539,0,0,0,2.543-5.922,4.861,4.861,0,0,0-6.824-4.05.884.884,0,0,1-.845.019,4.785,4.785,0,0,0-4.031-.031,1.144,1.144,0,0,1-.826,0,4.9,4.9,0,0,0-6.861,4.094,6.547,6.547,0,0,0,2.527,5.874c.976.821,1.968,1.622,2.929,2.459a1.006,1.006,0,0,1,.329.656c.026,1.846.015,3.693.013,5.539,0,.111-.019.221-.036.4h-2.287a6.707,6.707,0,0,0-1.083.009,2.987,2.987,0,0,1-2.715-1.066,14.625,14.625,0,0,1,6.975-24.908,14.556,14.556,0,0,1,17.364,11.572c1.031,5.721-.882,10.473-5.335,14.2a.709.709,0,0,1-.4.18c-1.538.013-3.077.008-4.69.008" transform="translate(-113.432 -45.074)" fill="#fffae7"/>
      <path id="Trazado_612121" data-name="Trazado 612121" d="M195.358,131.462a5.394,5.394,0,0,0,1.582,2.742,1.051,1.051,0,0,0,1.692.005,4.782,4.782,0,0,0,.982-5.93c-.073-.13-.135-.266-.2-.4a2.946,2.946,0,0,1,3.712,2.743,4.513,4.513,0,0,1-1.565,3.762c-1.14,1.009-2.316,1.977-3.5,2.932a1.846,1.846,0,0,0-.769,1.608c.04,2.071.014,4.144.014,6.26h-3.89v-.619c0-1.923-.016-3.845.01-5.768a1.614,1.614,0,0,0-.645-1.377c-1.222-1-2.448-2-3.63-3.045a4.5,4.5,0,0,1-1.556-3.766,2.92,2.92,0,0,1,3.6-2.754,15.918,15.918,0,0,0-.654,2.217,4.545,4.545,0,0,0,1.678,4.259.961.961,0,0,0,1.433-.02,5.369,5.369,0,0,0,1.706-2.846" transform="translate(-166.117 -113.113)" fill="#fffae7"/>
      <path id="Trazado_612122" data-name="Trazado 612122" d="M274.713,376.723l-4.31-4.31,6.792-3.774,3.563,3.549-6.045,4.535" transform="translate(-239.459 -326.453)" fill="#f6f6f6"/>
      <path id="Trazado_612123" data-name="Trazado 612123" d="M162.014,376.519l-5.295-4.538,2.78-3.483,6.791,3.771-4.276,4.25" transform="translate(-138.785 -326.329)" fill="#f6f6f6"/>
      <path id="Trazado_612124" data-name="Trazado 612124" d="M180.339,332.012c2.836,0,5.673-.011,8.509.015a1.56,1.56,0,0,1,.969.345.893.893,0,0,1-.378,1.475,2.314,2.314,0,0,1-.728.1q-8.366.008-16.732,0a2.545,2.545,0,0,1-.674-.083.86.86,0,0,1-.676-.932.9.9,0,0,1,.748-.887,2.292,2.292,0,0,1,.568-.032q4.2,0,8.395,0" transform="translate(-151.102 -294.016)" fill="#fb8c00"/>
      <path id="Trazado_612125" data-name="Trazado 612125" d="M180.342,298h8.279a4.508,4.508,0,0,1,.57.015.914.914,0,0,1,.836.923.864.864,0,0,1-.756.924,3.686,3.686,0,0,1-.679.056q-8.279,0-16.558,0a3.447,3.447,0,0,1-.679-.057.935.935,0,0,1,.081-1.847,3.953,3.953,0,0,1,.57-.015h8.336" transform="translate(-151.074 -263.897)" fill="#b2ebf2"/>
      <path id="Trazado_612126" data-name="Trazado 612126" d="M223.418,366.27a33.521,33.521,0,0,0-3.277,1.855,2.465,2.465,0,0,1-3.287,0,30,30,0,0,0-3.064-1.744c-.026-.015-.038-.054-.078-.114Z" transform="translate(-189.256 -324.356)" fill="#e8e8e8"/>
      <path id="Trazado_612127" data-name="Trazado 612127" d="M230.65,140.132a2.5,2.5,0,0,1,.031,2.929,2.578,2.578,0,0,1-.031-2.929" transform="translate(-203.867 -124.096)" fill="#fffae7"/>
      <path id="Trazado_612128" data-name="Trazado 612128" d="M273.169,140.329a2.6,2.6,0,0,1,.012,2.914,2.423,2.423,0,0,1-.012-2.914" transform="translate(-241.483 -124.27)" fill="#fffae7"/>
      <path id="Trazado_612129" data-name="Trazado 612129" d="M249.236,130.3l-.812-1.979h1.619l-.807,1.979" transform="translate(-219.995 -113.632)" fill="#12263f"/>
    </g>
  </g>
</svg>
