<svg xmlns="http://www.w3.org/2000/svg" width="65.658" height="64.541" viewBox="0 0 65.658 64.541">
  <g id="U7JnQz" transform="translate(-204.457 1434.968)">
    <g id="Grupo_947363" data-name="Grupo 947363" transform="translate(204.457 -1434.968)">
      <path id="Trazado_628582" data-name="Trazado 628582" d="M278.4-1307.08c-.674-.317-1.387-.07-2.079-.139a7.9,7.9,0,0,0-.822,0c-.058-1.116-.058-1.116-1.2-1.116q-14.6,0-29.2.015c-.627,0-.785-.149-.785-.781q.029-22.623.016-45.246c0-.231.014-.462.022-.693h42.224v4.952l-.157.086a8.627,8.627,0,0,0-.621-.735,3.4,3.4,0,0,0-2.247-.96,3.483,3.483,0,0,0-3.3,2.015,3.41,3.41,0,0,0,.7,3.91c1.637,1.671,3.282,3.336,4.972,4.953a2.1,2.1,0,0,1,.694,1.689c0,.63-.162.812-.794.782-1.089-.051-1.453.349-1.456,1.441,0,.973,0,1.946,0,2.918,0,1.152,0,1.152,1.11,1.208v2.18a5.568,5.568,0,0,0-4.577,8.714c.223.323.106.388-.177.53a3.233,3.233,0,0,0-1.907,2.852,3.322,3.322,0,0,0,2.655,3.426c.222.056.568-.05.5.444-.278,1.947-.511,3.9-.762,5.851-.028.215.023.452-.349.46A3.435,3.435,0,0,0,278.4-1307.08Zm-18.992-41.293-.26.293c-.349.4-1.068.735-1,1.153.068.448.714.8,1.079,1.214.252.289.423.311.706.017.931-.968,1.9-1.9,2.841-2.859a1.139,1.139,0,0,0,0-1.864c-.663-.68-1.341-1.345-2.013-2.017-1.193-1.193-1.178-1.178-2.376.007-.342.339-.3.526.027.808s.627.621,1.026,1.024c-3.178,0-6.188,0-9.2,0-1.088,0-1.452.366-1.453,1.46q0,4.621,0,9.242c0,1.186.342,1.531,1.523,1.531,5.212,0,10.425.008,15.638-.011.5,0,.654.1.651.633q-.039,6.011,0,12.021c0,.57-.121.721-.708.719-5.236-.026-10.471-.017-15.707-.014-1,0-1.393.385-1.4,1.377-.005,1.969,0,3.938,0,5.906,0,1.633,0,1.616,1.66,1.624.443,0,.584-.1.577-.565-.029-1.806.015-3.614-.027-5.42-.013-.578.133-.717.713-.714,5.189.025,10.379.015,15.568.014,1.186,0,1.531-.343,1.532-1.523q0-7.332,0-14.662c0-1.287-.316-1.609-1.585-1.609q-7.819,0-15.638.008c-.425,0-.594-.068-.588-.552.029-2.246.021-4.493,0-6.74,0-.376.076-.514.487-.511C254.075-1348.363,256.669-1348.373,259.408-1348.373Zm14.955-1.088a4.432,4.432,0,0,0-4.424-4.474,4.431,4.431,0,0,0-4.475,4.422,4.433,4.433,0,0,0,4.422,4.477A4.441,4.441,0,0,0,274.363-1349.46Zm6.315,16.987c-.082-.1-.134-.173-.2-.237-.309-.313-.623-.621-.93-.936-.435-.446-1.183-.873-1.216-1.348-.038-.549.769-.949,1.215-1.405,1.181-1.206,1.174-1.183-.012-2.38-.338-.34-.515-.3-.811.025-.581.628-1.217,1.206-1.8,1.828-.248.263-.4.277-.659.005-.6-.64-1.249-1.239-1.855-1.876-.251-.265-.4-.332-.709-.035-1.268,1.226-1.273,1.206-.025,2.475.432.439,1.207.825,1.175,1.354-.027.456-.742.876-1.164,1.3-1.288,1.294-1.281,1.281.061,2.519.261.24.391.208.608-.018.627-.649,1.284-1.27,1.9-1.925.248-.262.409-.286.659-.007.37.413.78.791,1.173,1.184,1.052,1.051,1.052,1.051,2.118-.02C280.364-1332.129,280.514-1332.3,280.678-1332.474Zm-18.944,3.286c-.066-.075-.138-.165-.217-.245-.31-.312-.626-.618-.932-.933-.418-.429-1.137-.845-1.164-1.3-.031-.529.744-.915,1.175-1.354,1.25-1.273,1.245-1.253-.026-2.478-.31-.3-.462-.22-.71.041-.607.636-1.253,1.236-1.855,1.875-.257.273-.412.252-.659-.009-.62-.655-1.277-1.276-1.9-1.925-.217-.224-.348-.26-.611-.021-1.347,1.233-1.354,1.221-.06,2.521.423.424,1.137.844,1.166,1.3.033.53-.742.916-1.174,1.354-1.242,1.265-1.238,1.245.027,2.473.3.3.454.234.707-.032.605-.638,1.252-1.236,1.855-1.876.256-.272.418-.263.659.007.339.379.705.735,1.078,1.082s.714,1.051,1.155,1c.417-.043.779-.661,1.155-1.036C261.523-1328.864,261.7-1328.958,261.734-1329.187Zm14.459,9.366a1.372,1.372,0,0,0-.123-.159c-.447-.435-.835-1.075-1.365-1.233-.387-.115-.745.648-1.147.985-.035.03-.065.066-.1.1-.433.412-.853,1.135-1.3,1.155-.526.024-.913-.748-1.353-1.18-1.266-1.245-1.251-1.244-2.474.042-.248.26-.268.408,0,.658.622.588,1.2,1.229,1.832,1.8.379.341.325.546-.019.861-.63.578-1.222,1.2-1.824,1.809-.133.135-.362.257-.105.5.455.427.834,1.075,1.365,1.235.389.117.745-.647,1.147-.983.035-.029.065-.066.1-.1.433-.412.851-1.135,1.3-1.156.528-.026.914.747,1.354,1.179,1.267,1.244,1.252,1.243,2.473-.042.247-.26.27-.408,0-.659-.606-.571-1.156-1.2-1.783-1.75-.441-.383-.355-.615.024-.96.6-.544,1.154-1.137,1.724-1.712C276.027-1319.545,276.176-1319.632,276.193-1319.822ZM251-1312.751c0-1.145,0-1.145-1.148-1.145-1.076,0-1.076,0-1.076,1.079,0,1.146,0,1.146,1.148,1.146C251-1311.672,251-1311.672,251-1312.751Z" transform="translate(-238.76 1366.178)" fill="#ccdbe5"/>
      <path id="Trazado_628583" data-name="Trazado 628583" d="M210.049-1410.044c-.008.231-.022.462-.022.693q0,22.623-.016,45.246c0,.633.157.782.784.781q14.6-.032,29.2-.015c1.146,0,1.146,0,1.2,1.116-.057,1.108-.057,1.108-1.2,1.108H209.552c-1.48,0-1.75-.265-1.75-1.72q0-24.353.015-48.706c0-.6-.124-.821-.744-.745a8.938,8.938,0,0,1-1.458.007,1.084,1.084,0,0,1-1.142-1.134q-.031-2.188,0-4.377a1.09,1.09,0,0,1,1.125-1.153c.208-.012.417,0,.625,0H248.89c1.147,0,1.147,0,1.2,1.11-.056,1.114-.056,1.114-1.223,1.114h-40.8c-1.381,0-1.331,0-1.4,1.354-.038.752.216.886.913.885q20.644-.031,41.287-.016c1.166,0,1.166,0,1.224,1.115-.057,1.11-.057,1.11-1.214,1.11q-18.381,0-36.762.006c-.684,0-1.652-.308-1.979.135C209.794-1411.667,210.053-1410.759,210.049-1410.044Z" transform="translate(-204.457 1421.181)"/>
      <path id="Trazado_628584" data-name="Trazado 628584" d="M539.771-1213.965q0-1.09,0-2.18a1.927,1.927,0,0,1,.415-.017c.59.1.759-.146.713-.719-.052-.644.023-1.3-.023-1.944-.038-.538.122-.7.678-.692,3.961.026,7.922.034,11.883-.005.7-.007.813.2.812.846q-.03,16.813-.012,33.628l-7.41,0a1.4,1.4,0,0,0,.742-1.444c-.035-.6,0-1.2-.009-1.806a3.3,3.3,0,0,0-2.968-3.366c-.427-.051-.52-.2-.563-.576-.215-1.861-.436-3.722-.705-5.576-.062-.43.031-.535.432-.63a3.345,3.345,0,0,0,2.674-2.841,3.322,3.322,0,0,0-1.88-3.417c-.352-.184-.367-.3-.157-.6a5.228,5.228,0,0,0,.936-2.793A5.587,5.587,0,0,0,539.771-1213.965Zm11.121-3.314c-1.106,0-1.106,0-1.107.858,0,1.366,0,1.366.875,1.366,1.349,0,1.349,0,1.349-.893C552.01-1217.279,552.01-1217.279,550.892-1217.279Z" transform="translate(-493.048 1249.542)" fill="#1f91bd"/>
      <path id="Trazado_628585" data-name="Trazado 628585" d="M519.9-1370.474q0-16.813.012-33.627c0-.643-.114-.852-.812-.846-3.961.039-7.922.031-11.883.005-.557,0-.717.154-.678.693.046.645-.029,1.3.023,1.944.046.573-.123.819-.713.719a1.951,1.951,0,0,0-.415.018c-1.11-.055-1.11-.055-1.11-1.208,0-.973,0-1.946,0-2.918,0-1.092.366-1.493,1.456-1.441.632.03.792-.152.794-.782a2.1,2.1,0,0,0-.694-1.689c-1.69-1.617-3.335-3.282-4.972-4.953a3.409,3.409,0,0,1-.7-3.909,3.483,3.483,0,0,1,3.3-2.016,3.4,3.4,0,0,1,2.247.96,8.589,8.589,0,0,1,.621.735l.157-.086v-12.744a3.423,3.423,0,0,1,2.837-3.3,3.348,3.348,0,0,1,3.509,1.828,3.531,3.531,0,0,1,.353,1.609c-.007,2.362.008,4.724-.013,7.086,0,.439.093.575.559.579a25.535,25.535,0,0,1,4.368.1,7.074,7.074,0,0,1,5.782,4.893,7.1,7.1,0,0,1-1.558,7.417c-.673.762-1.431,1.45-2.148,2.174a3.366,3.366,0,0,0-.314,1.965c.068.131.182.115.295.116.278,0,.557-.016.833.007a1.083,1.083,0,0,1,1.082,1.054,5.464,5.464,0,0,1,.008.625q0,17.126.015,34.251c0,.628-.148.853-.782.776A13.709,13.709,0,0,0,519.9-1370.474Zm-11.125-53.373c0,2.524-.005,5.049,0,7.573a1.182,1.182,0,0,1-.694,1.24,1.153,1.153,0,0,1-1.367-.381q-1.149-1.159-2.31-2.309c-.677-.668-1.4-.726-1.945-.168s-.472,1.261.208,1.944c1.52,1.526,2.986,3.114,4.588,4.548a3.747,3.747,0,0,1,1.514,3.676c-.1.525.172.585.621.581,2.247-.022,4.494-.01,6.74-.01,1.537,0,1.581,0,1.52-1.53a2.346,2.346,0,0,1,.848-2.006c.742-.662,1.438-1.38,2.115-2.109a4.947,4.947,0,0,0,1.075-5.641,4.958,4.958,0,0,0-4.794-3.167c-1.435-.031-2.872-.005-4.308-.006-1.274,0-1.592-.32-1.592-1.6,0-2.733-.005-5.465,0-8.2a1.17,1.17,0,0,0-.773-1.258c-.768-.277-1.449.3-1.452,1.248C508.77-1428.9,508.775-1426.371,508.775-1423.847Z" transform="translate(-458.711 1434.968)" fill="#010101"/>
      <path id="Trazado_628586" data-name="Trazado 628586" d="M491.518-1179.642a5.587,5.587,0,0,1,5.557,5.863,5.227,5.227,0,0,1-.936,2.793c-.21.3-.195.418.157.6a3.322,3.322,0,0,1,1.88,3.417,3.345,3.345,0,0,1-2.674,2.841c-.4.1-.494.2-.432.63.269,1.854.49,3.715.705,5.576.044.377.135.525.563.576a3.3,3.3,0,0,1,2.968,3.366c.008.6-.026,1.206.009,1.806a1.4,1.4,0,0,1-.742,1.444q-6.841.011-13.682.02a1.006,1.006,0,0,1-1.121-.92,13.76,13.76,0,0,1,.046-3.115,3.866,3.866,0,0,1,.617-1.378,3.433,3.433,0,0,1,2.464-1.243c.372-.008.321-.245.349-.46.251-1.95.484-3.9.762-5.851.071-.495-.275-.388-.5-.444a3.322,3.322,0,0,1-2.655-3.426,3.234,3.234,0,0,1,1.907-2.852c.284-.143.4-.207.177-.53A5.568,5.568,0,0,1,491.518-1179.642Zm-1.357,16.706c-.225,1.719-.442,3.44-.68,5.158-.042.3.019.411.338.408q1.7-.021,3.4,0c.319,0,.38-.1.338-.408-.238-1.718-.456-3.438-.68-5.158-.08-1.11-.08-1.11-1.188-1.11a2.512,2.512,0,0,1-.479,0c-.747-.147-1.087.161-1.054.909C490.161-1163.073,490.16-1163.005,490.161-1162.937Zm4.691-11.106a3.351,3.351,0,0,0-3.351-3.351,3.352,3.352,0,0,0-3.316,3.316,3.353,3.353,0,0,0,3.283,3.35A3.348,3.348,0,0,0,494.853-1174.043Zm-3.334,21.115c1.69,0,3.381,0,5.071-.006.174,0,.406.121.5-.206a1.452,1.452,0,0,0-1.534-2.012q-3.994,0-7.989,0c-1.3,0-1.6.334-1.615,1.658,0,.448.108.585.569.577C488.184-1152.945,489.851-1152.928,491.518-1152.928Zm.007-15.57c-1.063,0-2.126-.008-3.188,0a1.125,1.125,0,0,0-1.261,1.086c-.014.676.483,1.13,1.285,1.133q3.154.012,6.307,0c.807,0,1.3-.447,1.3-1.122s-.5-1.092-1.321-1.1C493.605-1168.5,492.565-1168.5,491.526-1168.5Z" transform="translate(-444.795 1215.219)" fill="#010101"/>
      <path id="Trazado_628587" data-name="Trazado 628587" d="M265.917-1410.961q0,2.227,0,4.453h-2.179c-.057-1.114-.057-1.114-1.224-1.114q-20.644,0-41.287.016c-.7,0-.951-.134-.913-.885.068-1.352.019-1.354,1.4-1.354h40.8c1.167,0,1.167,0,1.223-1.115Z" transform="translate(-218.101 1414.306)" fill="#1f91bd"/>
      <path id="Trazado_628588" data-name="Trazado 628588" d="M286.977-1337.769c-2.739,0-5.333.009-7.926-.01-.41,0-.489.135-.487.511.016,2.247.024,4.494,0,6.74-.006.484.163.553.588.552q7.819-.02,15.638-.009c1.268,0,1.585.321,1.585,1.609q0,7.331,0,14.662c0,1.18-.346,1.523-1.532,1.523-5.189,0-10.379.011-15.568-.014-.58,0-.726.137-.713.715.042,1.806,0,3.613.027,5.419.007.465-.133.567-.577.565-1.66-.008-1.66.009-1.66-1.624,0-1.969,0-3.937,0-5.906,0-.993.391-1.376,1.4-1.377,5.236,0,10.472-.012,15.707.014.587,0,.712-.149.708-.719q-.041-6.011,0-12.021c0-.535-.146-.635-.651-.633-5.212.02-10.425.013-15.638.012-1.181,0-1.523-.344-1.523-1.531q0-4.621,0-9.242c0-1.093.365-1.459,1.453-1.46,3.01,0,6.02,0,9.2,0-.4-.4-.691-.738-1.026-1.024s-.369-.47-.027-.808c1.2-1.185,1.183-1.2,2.376-.007.671.672,1.35,1.337,2.013,2.017a1.139,1.139,0,0,1,0,1.865c-.941.958-1.909,1.891-2.841,2.859-.283.295-.454.272-.706-.016-.365-.417-1.011-.766-1.079-1.214-.063-.418.656-.756,1-1.153Z" transform="translate(-266.329 1355.575)" fill="#010101"/>
      <path id="Trazado_628589" data-name="Trazado 628589" d="M284.079-1379h2.179v3.339H244.034c0-.714-.254-1.623.089-2.087.327-.443,1.295-.135,1.979-.135q18.381-.013,36.762-.006C284.022-1377.893,284.022-1377.893,284.079-1379Z" transform="translate(-238.442 1386.801)" fill="#abb9c2"/>
      <path id="Trazado_628590" data-name="Trazado 628590" d="M405-1342.624a4.441,4.441,0,0,1-4.478,4.424,4.433,4.433,0,0,1-4.422-4.477,4.431,4.431,0,0,1,4.475-4.421A4.432,4.432,0,0,1,405-1342.624Zm-4.462,2.2a2.234,2.234,0,0,0,2.234-2.193,2.23,2.23,0,0,0-2.244-2.249,2.228,2.228,0,0,0-2.2,2.225A2.242,2.242,0,0,0,400.533-1340.426Z" transform="translate(-369.393 1359.341)" fill="#040301"/>
      <path id="Trazado_628591" data-name="Trazado 628591" d="M456.174-1233.557c-.165.176-.314.344-.472.5-1.066,1.071-1.066,1.07-2.118.019-.393-.393-.8-.77-1.173-1.183-.25-.279-.411-.255-.659.007-.62.655-1.277,1.276-1.9,1.925-.218.225-.348.258-.609.018-1.342-1.237-1.349-1.225-.061-2.518.422-.424,1.137-.845,1.164-1.3.032-.53-.743-.915-1.175-1.354-1.247-1.269-1.243-1.249.026-2.475.307-.3.458-.23.709.035.606.637,1.252,1.236,1.855,1.876.256.272.411.257.659-.006.588-.622,1.223-1.2,1.8-1.828.3-.32.473-.365.811-.025,1.187,1.2,1.193,1.173.012,2.38-.446.456-1.253.856-1.215,1.405.033.475.781.9,1.216,1.349.307.314.621.622.93.935C456.039-1233.729,456.092-1233.655,456.174-1233.557Z" transform="translate(-414.256 1267.261)" fill="#050505"/>
      <path id="Trazado_628592" data-name="Trazado 628592" d="M320.392-1209.735c-.036.23-.211.323-.336.448-.376.375-.738.993-1.155,1.036-.441.046-.768-.646-1.155-1.005s-.739-.7-1.078-1.081c-.241-.27-.4-.279-.659-.007-.6.64-1.25,1.238-1.855,1.876-.253.266-.4.327-.707.032-1.265-1.228-1.269-1.207-.027-2.472.431-.439,1.207-.825,1.174-1.355-.028-.456-.743-.876-1.166-1.3-1.294-1.3-1.287-1.288.059-2.52.262-.24.394-.2.611.021.627.649,1.284,1.27,1.9,1.925.247.261.4.281.659.009.6-.64,1.249-1.239,1.855-1.875.248-.261.4-.34.71-.041,1.271,1.225,1.276,1.2.026,2.478-.431.44-1.206.825-1.175,1.354.027.455.746.872,1.163,1.3.307.315.623.621.932.933C320.255-1209.9,320.326-1209.81,320.392-1209.735Z" transform="translate(-297.418 1246.726)" fill="#050505"/>
      <path id="Trazado_628593" data-name="Trazado 628593" d="M423.063-1110.952c-.017.189-.166.277-.276.388-.57.575-1.125,1.168-1.724,1.712-.38.345-.465.577-.024.96.628.545,1.177,1.178,1.784,1.75.266.251.243.4,0,.659-1.221,1.284-1.206,1.285-2.473.042-.44-.432-.826-1.205-1.354-1.179-.452.022-.87.744-1.3,1.157-.033.032-.063.068-.1.1-.4.336-.757,1.1-1.147.983-.53-.16-.909-.808-1.365-1.235-.256-.24-.028-.362.105-.5.6-.609,1.193-1.23,1.824-1.809.344-.316.4-.521.019-.861-.636-.572-1.209-1.213-1.832-1.8-.265-.25-.245-.4,0-.658,1.224-1.286,1.208-1.287,2.474-.042.44.432.827,1.2,1.353,1.18.451-.02.871-.743,1.3-1.155.034-.032.063-.068.1-.1.4-.337.759-1.1,1.147-.985.53.157.918.8,1.365,1.232A1.384,1.384,0,0,1,423.063-1110.952Z" transform="translate(-385.63 1157.309)" fill="#050505"/>
      <path id="Trazado_628594" data-name="Trazado 628594" d="M278.581-1058.613c0,1.079,0,1.079-1.076,1.079-1.148,0-1.148,0-1.148-1.145,0-1.079,0-1.079,1.076-1.079C278.581-1059.758,278.581-1059.758,278.581-1058.613Z" transform="translate(-266.338 1112.04)"/>
      <path id="Trazado_628595" data-name="Trazado 628595" d="M612.746-1203.425c1.118,0,1.118,0,1.118,1.331,0,.893,0,.893-1.349.893-.876,0-.876,0-.875-1.366C611.64-1203.425,611.64-1203.425,612.746-1203.425Z" transform="translate(-554.902 1235.688)"/>
      <path id="Trazado_628596" data-name="Trazado 628596" d="M522.534-1410.068c0-2.524-.005-5.049,0-7.573,0-.946.684-1.524,1.452-1.248a1.17,1.17,0,0,1,.773,1.257c-.008,2.733,0,5.465,0,8.2,0,1.282.318,1.6,1.592,1.6,1.436,0,2.873-.026,4.308.006a4.957,4.957,0,0,1,4.794,3.166,4.947,4.947,0,0,1-1.075,5.641c-.677.729-1.373,1.447-2.115,2.108a2.346,2.346,0,0,0-.848,2.006c.061,1.528.017,1.53-1.52,1.53-2.247,0-4.494-.012-6.74.01-.449,0-.717-.056-.621-.581a3.748,3.748,0,0,0-1.514-3.676c-1.6-1.434-3.068-3.021-4.588-4.547-.68-.683-.75-1.39-.208-1.944s1.268-.5,1.945.168q1.162,1.147,2.31,2.308a1.152,1.152,0,0,0,1.367.381,1.182,1.182,0,0,0,.694-1.24C522.529-1405.02,522.534-1407.544,522.534-1410.068Z" transform="translate(-472.47 1421.189)" fill="#f2be94"/>
      <path id="Trazado_628597" data-name="Trazado 628597" d="M522.521-1160.157a3.348,3.348,0,0,1-3.385,3.315,3.353,3.353,0,0,1-3.283-3.35,3.352,3.352,0,0,1,3.316-3.316A3.351,3.351,0,0,1,522.521-1160.157Z" transform="translate(-472.464 1201.334)" fill="#e3730f"/>
      <path id="Trazado_628598" data-name="Trazado 628598" d="M505.368-1001.666c-1.667,0-3.335-.017-5,.011-.461.008-.574-.129-.569-.577.014-1.324.316-1.658,1.615-1.658q3.994,0,7.989,0a1.452,1.452,0,0,1,1.534,2.012c-.09.327-.321.2-.5.206C508.748-1001.662,507.058-1001.666,505.368-1001.666Z" transform="translate(-458.644 1063.958)" fill="#fbc100"/>
      <path id="Trazado_628599" data-name="Trazado 628599" d="M528.48-1059.754c.225,1.719.442,3.44.68,5.158.042.3-.019.411-.338.407q-1.7-.02-3.4,0c-.319,0-.38-.1-.338-.407.238-1.718.456-3.438.68-5.158Z" transform="translate(-480.394 1112.037)" fill="#fac100"/>
      <path id="Trazado_628600" data-name="Trazado 628600" d="M512.342-1099.684c1.04,0,2.079-.006,3.119,0,.817.006,1.313.426,1.321,1.1s-.49,1.119-1.3,1.122q-3.154.011-6.307,0c-.8,0-1.3-.456-1.285-1.133a1.125,1.125,0,0,1,1.261-1.086C510.216-1099.693,511.279-1099.684,512.342-1099.684Z" transform="translate(-465.611 1146.406)" fill="#fac100"/>
      <path id="Trazado_628601" data-name="Trazado 628601" d="M532.725-1066.857h-2.719c0-.068,0-.137,0-.205-.032-.748.308-1.056,1.054-.909a2.532,2.532,0,0,0,.479,0C532.645-1067.967,532.645-1067.967,532.725-1066.857Z" transform="translate(-484.639 1119.139)" fill="#f7be00"/>
      <path id="Trazado_628602" data-name="Trazado 628602" d="M414.289-1326.661a2.242,2.242,0,0,1-2.21-2.217,2.229,2.229,0,0,1,2.2-2.225,2.23,2.23,0,0,1,2.244,2.25A2.234,2.234,0,0,1,414.289-1326.661Z" transform="translate(-383.149 1345.576)" fill="#f7be00"/>
    </g>
  </g>
</svg>
