<svg xmlns="http://www.w3.org/2000/svg" xmlns:xlink="http://www.w3.org/1999/xlink" width="372.806" height="205.934" viewBox="0 0 372.806 205.934">
  <defs>
    <clipPath id="clip-path">
      <rect id="Rectángulo_341769" data-name="Rectángulo 341769" width="197.359" height="99.729" fill="#fff4d6"/>
    </clipPath>
    <clipPath id="clip-path-2">
      <rect id="Rectángulo_341771" data-name="Rectángulo 341771" width="148.855" height="75.219" fill="#fff"/>
    </clipPath>
  </defs>
  <g id="Grupo_947557" data-name="Grupo 947557" transform="translate(-1047.194 -4509.272)">
    <g id="Grupo_946900" data-name="Grupo 946900" transform="translate(1407.359 4713.918) rotate(180)" clip-path="url(#clip-path)">
      <path id="Trazado_627088" data-name="Trazado 627088" d="M98.679,99.729A98.679,98.679,0,0,1,0,1.05C0,.7.01.351.014,0H197.345c0,.351.014.7.014,1.05A98.679,98.679,0,0,1,98.679,99.729" transform="translate(0 0)" fill="#fff4d6"/>
    </g>
    <g id="Grupo_946902" data-name="Grupo 946902" transform="translate(1125 4547.463) rotate(91)" clip-path="url(#clip-path-2)">
      <path id="Trazado_627089" data-name="Trazado 627089" d="M74.428,75.219A74.427,74.427,0,0,1,0,.792C0,.527.007.264.01,0H148.845c0,.264.01.527.01.792A74.427,74.427,0,0,1,74.428,75.219" transform="translate(0 0)" fill="#fff"/>
    </g>
    <g id="Grupo_947144" data-name="Grupo 947144" transform="translate(-3217.945 3404.424)">
      <g id="Grupo_880742" data-name="Grupo 880742" transform="translate(4298.945 1100.379)">
        <g id="Grupo_879178" data-name="Grupo 879178" transform="translate(0.428 4.47)" opacity="0.8">
          <g id="Grupo_879171" data-name="Grupo 879171" transform="translate(296.163 26.151)">
            <g id="Grupo_879170" data-name="Grupo 879170" transform="translate(0)">
              <g id="Grupo_879169" data-name="Grupo 879169">
                <g id="Grupo_879168" data-name="Grupo 879168">
                  <path id="Trazado_601884" data-name="Trazado 601884" d="M139.357,94.78a3.119,3.119,0,0,0-3.489,1.953c-.886,2.4,1.434,5.093,4.558,3.886h0A3.169,3.169,0,0,0,139.357,94.78Z" transform="translate(-135.677 -94.728)" fill="#fff4d6"/>
                </g>
              </g>
            </g>
          </g>
          <g id="Grupo_879173" data-name="Grupo 879173" transform="translate(0 6.252)">
            <g id="Grupo_879172" data-name="Grupo 879172" transform="translate(0 0)">
              <ellipse id="Elipse_4706" data-name="Elipse 4706" cx="6.266" cy="6.266" rx="6.266" ry="6.266" transform="translate(2.014 14.382) rotate(-99.248)" fill="#fff4d6"/>
            </g>
          </g>
          <g id="Grupo_879175" data-name="Grupo 879175" transform="translate(279.567 15.594)">
            <g id="Grupo_879174" data-name="Grupo 879174" transform="translate(0 0)">
              <ellipse id="Elipse_4707" data-name="Elipse 4707" cx="6.33" cy="6.33" rx="6.33" ry="6.33" transform="matrix(-0.182, -0.983, 0.983, -0.182, 2.305, 14.753)" fill="#fff4d6"/>
            </g>
          </g>
          <g id="Grupo_879177" data-name="Grupo 879177" transform="translate(15.141)">
            <g id="Grupo_879176" data-name="Grupo 879176" transform="translate(0)">
              <path id="Trazado_601885" data-name="Trazado 601885" d="M610.291,54.192a3.854,3.854,0,1,0,3.855-3.855A3.855,3.855,0,0,0,610.291,54.192Z" transform="translate(-610.291 -50.337)" fill="#fff4d6"/>
            </g>
          </g>
        </g>
      </g>
      <g id="Grupo_880483" data-name="Grupo 880483" transform="translate(4298.945 1304.68)">
        <g id="Grupo_880482" data-name="Grupo 880482">
          <path id="Trazado_602942" data-name="Trazado 602942" d="M4635.924,1803.325H4300.967c-1.117,0-2.022-1.366-2.022-3.051s.905-3.052,2.022-3.052h334.957c1.117,0,2.021,1.366,2.021,3.052S4637.041,1803.325,4635.924,1803.325Z" transform="translate(-4298.945 -1797.222)" fill="#12263f"/>
        </g>
      </g>
      <g id="Grupo_880516" data-name="Grupo 880516" transform="translate(4432.156 1266.608)">
        <g id="Grupo_880486" data-name="Grupo 880486" transform="translate(1.106 1.232)">
          <g id="Grupo_880485" data-name="Grupo 880485">
            <g id="Grupo_880484" data-name="Grupo 880484">
              <path id="Trazado_602943" data-name="Trazado 602943" d="M4768.14,1703.736s11.517-14.856,0-35.2l88.149.968,5.759,5.813,1.993,15.18-4.65,10.98-8.639,2.906S4767.7,1704.382,4768.14,1703.736Z" transform="translate(-4768.138 -1668.535)" fill="#fff"/>
            </g>
          </g>
        </g>
        <g id="Grupo_880488" data-name="Grupo 880488" transform="translate(44.93 19.682)">
          <g id="Grupo_880487" data-name="Grupo 880487">
            <rect id="Rectángulo_298532" data-name="Rectángulo 298532" width="45.743" height="2.511" rx="0.357" fill="#c0e7fd"/>
          </g>
        </g>
        <g id="Grupo_880490" data-name="Grupo 880490" transform="translate(61.752 27.214)">
          <g id="Grupo_880489" data-name="Grupo 880489">
            <rect id="Rectángulo_298533" data-name="Rectángulo 298533" width="29.069" height="2.511" rx="0.324" fill="#c0e7fd"/>
          </g>
        </g>
        <g id="Grupo_880492" data-name="Grupo 880492" transform="translate(16.82 27.214)">
          <g id="Grupo_880491" data-name="Grupo 880491">
            <rect id="Rectángulo_298534" data-name="Rectángulo 298534" width="29.069" height="2.511" rx="0.324" fill="#c0e7fd"/>
          </g>
        </g>
        <g id="Grupo_880494" data-name="Grupo 880494" transform="translate(22.132 11.57)">
          <g id="Grupo_880493" data-name="Grupo 880493">
            <rect id="Rectángulo_298535" data-name="Rectángulo 298535" width="68.541" height="2.511" rx="0.357" fill="#c0e7fd"/>
          </g>
        </g>
        <g id="Grupo_880497" data-name="Grupo 880497" transform="translate(88.42 5.268)">
          <g id="Grupo_880496" data-name="Grupo 880496">
            <g id="Grupo_880495" data-name="Grupo 880495">
              <path id="Trazado_602944" data-name="Trazado 602944" d="M5075.311,1710.409s-4.874-14.7,0-27.775l9.523,7.752-3.875,13.725Z" transform="translate(-5073.145 -1682.634)" fill="#3c251d"/>
            </g>
          </g>
        </g>
        <g id="Grupo_880500" data-name="Grupo 880500" transform="translate(0)">
          <g id="Grupo_880499" data-name="Grupo 880499">
            <g id="Grupo_880498" data-name="Grupo 880498">
              <path id="Trazado_602945" data-name="Trazado 602945" d="M4925.9,1702.5H4764.276v-2.906h82.889c6.147,0,11.13-7.265,11.13-16.228s-4.982-16.229-11.13-16.229h-82.889v-2.906H4925.9c7.249,0,13.124,8.568,13.124,19.135S4933.149,1702.5,4925.9,1702.5Z" transform="translate(-4764.276 -1664.231)" fill="#294ddc"/>
            </g>
          </g>
        </g>
        <g id="Grupo_880503" data-name="Grupo 880503" transform="translate(157.639 0.082)">
          <g id="Grupo_880502" data-name="Grupo 880502">
            <g id="Grupo_880501" data-name="Grupo 880501">
              <path id="Trazado_602946" data-name="Trazado 602946" d="M5315.52,1702.786l-.581-.076c.418-.174,7.393-4.481,7.393-18.071,0-11.276-2.9-17.361-5.232-20.123h1.661a9.389,9.389,0,0,1,3.957.982c2,4.491,3.63,10.706,3.63,19.141a30.644,30.644,0,0,1-5.183,17.793,9.184,9.184,0,0,1-2.4.354Z" transform="translate(-5314.938 -1664.516)" fill="#f9edae"/>
            </g>
          </g>
        </g>
        <g id="Grupo_880506" data-name="Grupo 880506" transform="translate(96.732 0.082)">
          <g id="Grupo_880505" data-name="Grupo 880505">
            <g id="Grupo_880504" data-name="Grupo 880504">
              <path id="Trazado_602947" data-name="Trazado 602947" d="M5102.76,1702.786l-.581-.076c.418-.174,7.392-4.481,7.392-18.071,0-11.276-2.9-17.361-5.232-20.123H5106a9.389,9.389,0,0,1,3.957.982c2,4.491,3.63,10.706,3.63,19.141a30.641,30.641,0,0,1-5.183,17.793,9.181,9.181,0,0,1-2.4.354Z" transform="translate(-5102.179 -1664.516)" fill="#f9edae"/>
            </g>
          </g>
        </g>
        <g id="Grupo_880509" data-name="Grupo 880509" transform="translate(0)" opacity="0.19">
          <g id="Grupo_880508" data-name="Grupo 880508">
            <g id="Grupo_880507" data-name="Grupo 880507">
              <path id="Trazado_602948" data-name="Trazado 602948" d="M4861.506,1683.367c0,10.568-5.875,19.136-13.123,19.136h-84.107V1699.6h82.889c6.147,0,11.13-7.266,11.13-16.229s-4.982-16.229-11.13-16.229h-82.889v-2.906h84.107C4855.631,1664.231,4861.506,1672.8,4861.506,1683.367Z" transform="translate(-4764.276 -1664.231)" fill="#fff"/>
            </g>
          </g>
        </g>
        <g id="Grupo_880512" data-name="Grupo 880512" transform="translate(116.72 28.36)">
          <g id="Grupo_880511" data-name="Grupo 880511">
            <g id="Grupo_880510" data-name="Grupo 880510">
              <path id="Trazado_602949" data-name="Trazado 602949" d="M5207.63,1763.3h-34.712c-.5,0-.917.6-.917,1.336v.4c0,.734.413,1.336.917,1.336h34.712c.5,0,.915-.6.915-1.336v-.4C5208.545,1763.9,5208.135,1763.3,5207.63,1763.3Z" transform="translate(-5172.001 -1763.297)" fill="#f9edae"/>
            </g>
          </g>
        </g>
        <g id="Grupo_880515" data-name="Grupo 880515" transform="translate(126.465 21.901)">
          <g id="Grupo_880514" data-name="Grupo 880514">
            <g id="Grupo_880513" data-name="Grupo 880513">
              <path id="Trazado_602950" data-name="Trazado 602950" d="M5224.4,1740.735h-17.436c-.5,0-.917.6-.917,1.336v.4c0,.734.413,1.336.917,1.336H5224.4c.5,0,.916-.6.916-1.336v-.4C5225.313,1741.335,5224.9,1740.735,5224.4,1740.735Z" transform="translate(-5206.044 -1740.735)" fill="#f9edae"/>
            </g>
          </g>
        </g>
      </g>
      <g id="Grupo_880549" data-name="Grupo 880549" transform="translate(4456.185 1238.365)">
        <g id="Grupo_880519" data-name="Grupo 880519" transform="translate(0.825 0.92)">
          <g id="Grupo_880518" data-name="Grupo 880518">
            <g id="Grupo_880517" data-name="Grupo 880517">
              <path id="Trazado_602951" data-name="Trazado 602951" d="M4851.1,1595.055s8.6-11.087,0-26.271l65.788.722,4.3,4.338,1.488,11.329-3.472,8.195-6.446,2.169S4850.767,1595.537,4851.1,1595.055Z" transform="translate(-4851.095 -1568.784)" fill="#fff"/>
            </g>
          </g>
        </g>
        <g id="Grupo_880521" data-name="Grupo 880521" transform="translate(33.532 14.688)">
          <g id="Grupo_880520" data-name="Grupo 880520">
            <rect id="Rectángulo_298536" data-name="Rectángulo 298536" width="34.139" height="1.874" rx="0.351" fill="#c0e7fd"/>
          </g>
        </g>
        <g id="Grupo_880523" data-name="Grupo 880523" transform="translate(46.086 20.31)">
          <g id="Grupo_880522" data-name="Grupo 880522">
            <rect id="Rectángulo_298537" data-name="Rectángulo 298537" width="21.695" height="1.874" rx="0.324" fill="#c0e7fd"/>
          </g>
        </g>
        <g id="Grupo_880525" data-name="Grupo 880525" transform="translate(12.553 20.31)">
          <g id="Grupo_880524" data-name="Grupo 880524">
            <rect id="Rectángulo_298538" data-name="Rectángulo 298538" width="21.695" height="1.874" rx="0.324" fill="#c0e7fd"/>
          </g>
        </g>
        <g id="Grupo_880527" data-name="Grupo 880527" transform="translate(16.517 8.635)">
          <g id="Grupo_880526" data-name="Grupo 880526">
            <rect id="Rectángulo_298539" data-name="Rectángulo 298539" width="51.153" height="1.874" rx="0.351" fill="#c0e7fd"/>
          </g>
        </g>
        <g id="Grupo_880530" data-name="Grupo 880530" transform="translate(65.989 3.932)">
          <g id="Grupo_880529" data-name="Grupo 880529">
            <g id="Grupo_880528" data-name="Grupo 880528">
              <path id="Trazado_602952" data-name="Trazado 602952" d="M5080.342,1600.035s-3.637-10.967,0-20.729l7.107,5.785-2.892,10.243Z" transform="translate(-5078.726 -1579.306)" fill="#3c251d"/>
            </g>
          </g>
        </g>
        <g id="Grupo_880533" data-name="Grupo 880533" transform="translate(0 0)">
          <g id="Grupo_880532" data-name="Grupo 880532">
            <g id="Grupo_880531" data-name="Grupo 880531">
              <path id="Trazado_602953" data-name="Trazado 602953" d="M4968.836,1594.133H4848.213v-2.169h61.861c4.588,0,8.306-5.422,8.306-12.111s-3.718-12.112-8.306-12.112h-61.861v-2.169h120.624c5.409,0,9.793,6.394,9.793,14.281S4974.245,1594.133,4968.836,1594.133Z" transform="translate(-4848.213 -1565.572)" fill="#fc8a5e"/>
            </g>
          </g>
        </g>
        <g id="Grupo_880536" data-name="Grupo 880536" transform="translate(117.648 0.061)">
          <g id="Grupo_880535" data-name="Grupo 880535">
            <g id="Grupo_880534" data-name="Grupo 880534">
              <path id="Trazado_602954" data-name="Trazado 602954" d="M5259.613,1594.345l-.434-.057c.312-.13,5.517-3.345,5.517-13.486,0-8.416-2.161-12.957-3.9-15.018h1.239a7.01,7.01,0,0,1,2.953.733,34.737,34.737,0,0,1,2.709,14.285,22.873,22.873,0,0,1-3.867,13.279,6.854,6.854,0,0,1-1.795.264Z" transform="translate(-5259.179 -1565.784)" fill="#f9edae"/>
            </g>
          </g>
        </g>
        <g id="Grupo_880539" data-name="Grupo 880539" transform="translate(72.192 0.061)">
          <g id="Grupo_880538" data-name="Grupo 880538">
            <g id="Grupo_880537" data-name="Grupo 880537">
              <path id="Trazado_602955" data-name="Trazado 602955" d="M5100.827,1594.345l-.434-.057c.312-.13,5.516-3.345,5.516-13.486,0-8.416-2.16-12.957-3.9-15.018h1.24a7.01,7.01,0,0,1,2.953.733,34.737,34.737,0,0,1,2.709,14.285,22.873,22.873,0,0,1-3.867,13.279,6.861,6.861,0,0,1-1.8.264Z" transform="translate(-5100.394 -1565.784)" fill="#f9edae"/>
            </g>
          </g>
        </g>
        <g id="Grupo_880542" data-name="Grupo 880542" transform="translate(0 0)" opacity="0.19">
          <g id="Grupo_880541" data-name="Grupo 880541">
            <g id="Grupo_880540" data-name="Grupo 880540">
              <path id="Trazado_602956" data-name="Trazado 602956" d="M4920.777,1579.853c0,7.887-4.385,14.281-9.794,14.281h-62.771v-2.169h61.861c4.588,0,8.306-5.423,8.306-12.112s-3.718-12.112-8.306-12.112h-61.861v-2.169h62.771C4916.393,1565.572,4920.777,1571.966,4920.777,1579.853Z" transform="translate(-4848.213 -1565.572)" fill="#fff"/>
            </g>
          </g>
        </g>
        <g id="Grupo_880545" data-name="Grupo 880545" transform="translate(87.11 21.165)">
          <g id="Grupo_880544" data-name="Grupo 880544">
            <g id="Grupo_880543" data-name="Grupo 880543">
              <path id="Trazado_602957" data-name="Trazado 602957" d="M5179.094,1639.506h-25.906c-.376,0-.684.449-.684,1v.3c0,.548.308,1,.684,1h25.906c.376,0,.683-.449.683-1v-.3C5179.777,1639.955,5179.47,1639.506,5179.094,1639.506Z" transform="translate(-5152.504 -1639.506)" fill="#f9edae"/>
            </g>
          </g>
        </g>
        <g id="Grupo_880548" data-name="Grupo 880548" transform="translate(94.383 16.345)">
          <g id="Grupo_880547" data-name="Grupo 880547">
            <g id="Grupo_880546" data-name="Grupo 880546">
              <path id="Trazado_602958" data-name="Trazado 602958" d="M5191.607,1622.668h-13.013c-.375,0-.683.448-.683,1v.3c0,.548.308,1,.683,1h13.013c.377,0,.684-.449.684-1v-.3C5192.291,1623.116,5191.984,1622.668,5191.607,1622.668Z" transform="translate(-5177.911 -1622.668)" fill="#f9edae"/>
            </g>
          </g>
        </g>
      </g>
      <g id="Grupo_880711" data-name="Grupo 880711" transform="translate(4305.427 1120.626)">
        <g id="Grupo_880551" data-name="Grupo 880551" transform="translate(90.082 64.974)">
          <g id="Grupo_880550" data-name="Grupo 880550">
            <path id="Trazado_602959" data-name="Trazado 602959" d="M4684.886,1447.676a21.164,21.164,0,0,0,3.194-.244c21.2-3.21,17.913-34.059,15.993-61.847l-19.92-2.55c0,12.43.01,25.391-1.753,32.988-4.049-4.166-10.533-9.965-20.955-29.111-1.264-2.321-2.326-4.265-3.134-5.657l-22.049,12.8c.719,1.24,1.662,2.976,2.789,5.045C4653,1424.736,4667.043,1447.676,4684.886,1447.676Z" transform="translate(-4636.263 -1381.255)" fill="#f49d8b"/>
          </g>
        </g>
        <g id="Grupo_880553" data-name="Grupo 880553" transform="translate(22.313 0)">
          <g id="Grupo_880552" data-name="Grupo 880552">
            <path id="Trazado_602960" data-name="Trazado 602960" d="M4437.937,1158.074c-6.812-.638-9.71,2.551-11.739,9.217s1.449,11.3-2.608,17.39-11.594,7.536-13.043,12.173.58,6.666-.579,9.854-10.434,8.115-10.434,10.144,1.739,4.638,1.739,4.638l68.69-10.434,6.376-4.058s4.637-5.8-.58-8.984-9.564-2.319-10.435-11.883,0-20.288-4.347-26.085-16.521-6.956-19.709-4.637S4437.937,1158.074,4437.937,1158.074Z" transform="translate(-4399.533 -1154.288)" fill="#12263f"/>
          </g>
        </g>
        <g id="Grupo_880555" data-name="Grupo 880555" transform="translate(79.923 21.153)">
          <g id="Grupo_880554" data-name="Grupo 880554">
            <path id="Trazado_602961" data-name="Trazado 602961" d="M4601.06,1230.933s3.432-3.587,6.361-2.572,3.395,7.3.271,8.562-6.916-1.154-6.916-1.154Z" transform="translate(-4600.776 -1228.18)" fill="#f49d8b"/>
          </g>
        </g>
        <g id="Grupo_880557" data-name="Grupo 880557" transform="translate(82.792 23.146)">
          <g id="Grupo_880556" data-name="Grupo 880556">
            <path id="Trazado_602962" data-name="Trazado 602962" d="M4613.942,1240.5a.127.127,0,0,0,.038-.01,3.063,3.063,0,0,0,.211-5.115c-.711-.38-1.669-.311-3.308.238a.128.128,0,0,0,.082.243c1.543-.518,2.471-.594,3.1-.255a2.486,2.486,0,0,1,1.083,1.688,2.44,2.44,0,0,1-1.277,2.967.128.128,0,0,0,.066.245Z" transform="translate(-4610.797 -1235.14)" fill="none" stroke="#12263f" stroke-width="1"/>
          </g>
        </g>
        <g id="Grupo_880559" data-name="Grupo 880559" transform="translate(81.86 29.023)">
          <g id="Grupo_880558" data-name="Grupo 880558">
            <path id="Trazado_602963" data-name="Trazado 602963" d="M4611.325,1255.755c-.117-.876,4.791,5.375-.818,5.375s-1.542-4.138-1.542-4.138l.607.223s-.7,2.629.993,2.629.526-3.973.526-3.973Z" transform="translate(-4607.541 -1255.671)" fill="#edbc2c"/>
          </g>
        </g>
        <g id="Grupo_880561" data-name="Grupo 880561" transform="translate(1.662 87.82)">
          <g id="Grupo_880560" data-name="Grupo 880560">
            <path id="Trazado_602964" data-name="Trazado 602964" d="M4361.8,1475.7l-9.938-7.307,9.925,7.327-9.925-7.327-9.925-7.327c-2.458,3.33-10.923,15.5-14.541,29.479,8.656.734,17.313,2.475,25.968,2.778A52.015,52.015,0,0,1,4361.8,1475.7Z" transform="translate(-4327.393 -1461.061)" fill="#f49d8b"/>
          </g>
        </g>
        <g id="Grupo_880563" data-name="Grupo 880563" transform="translate(8.087 92.166)">
          <g id="Grupo_880562" data-name="Grupo 880562">
            <path id="Trazado_602965" data-name="Trazado 602965" d="M4364.408,1494.838c6.376,1.739-2.955-17.62-2.955-17.62l-7.453-.977c-1.2,2.019-2.977,6.745-4.163,8.583C4352.582,1487.59,4359.151,1493.4,4364.408,1494.838Z" transform="translate(-4349.837 -1476.241)" fill="#12263f"/>
          </g>
        </g>
        <g id="Grupo_880565" data-name="Grupo 880565" transform="translate(102.949 88.35)">
          <g id="Grupo_880564" data-name="Grupo 880564">
            <path id="Trazado_602966" data-name="Trazado 602966" d="M4702.379,1466.552a8.011,8.011,0,0,0,.639-1.471c-.643-.7-1.284-1.419-1.921-2.169-5.481.372-19.888,8.773-19.888,8.773s.613-1.041.619.793c1.734,2.239,3.9,7.444,6.259,9.883A45.61,45.61,0,0,0,4702.379,1466.552Z" transform="translate(-4681.209 -1462.911)" fill="#12263f"/>
          </g>
        </g>
        <g id="Grupo_880567" data-name="Grupo 880567" transform="translate(15.219 140.519)">
          <g id="Grupo_880566" data-name="Grupo 880566">
            <path id="Trazado_602967" data-name="Trazado 602967" d="M4400.545,1645.439s-14.2,10.724-25.795,43.185h112.6s-11.158-33.186-24.635-43.475Z" transform="translate(-4374.75 -1645.149)" fill="#6aceae"/>
          </g>
        </g>
        <g id="Grupo_880569" data-name="Grupo 880569" transform="translate(5.944 49.834)">
          <g id="Grupo_880568" data-name="Grupo 880568">
            <path id="Trazado_602968" data-name="Trazado 602968" d="M4393.745,1328.424c-14.295,1.939-23.859,6.867-28.786,10.924s-19.129,28.4-22.607,30.433c0,0,8.985,17.39,18.839,20.578l9.854,3.188,3.768-8.115s1.739,26.278,4.83,29.756c0,0,41.35,10.82,58.74,1.352,0,0,1.545-.193,3.478-4.251s1.932-23.09,1.932-23.09a21.883,21.883,0,0,0,4.927-11.594s13.128-4.908,19.581-14.373c0,0-4.993-9.1-11.176-14.321s-13.719-16.424-19.516-18.743-21.833-1.739-21.833-1.739Z" transform="translate(-4342.352 -1328.367)" fill="#f3c035"/>
          </g>
        </g>
        <g id="Grupo_880571" data-name="Grupo 880571" transform="translate(57.337 36.86)">
          <g id="Grupo_880570" data-name="Grupo 880570">
            <path id="Trazado_602969" data-name="Trazado 602969" d="M4526.718,1283.045s1.164,8.854-.314,10.616-4.525,2.415-4.525,2.415,7.375,13.082,20.044,11.794c11.416-1.161,5.272-11.883,5.272-11.883s-4.495-.508-5.555-1.5-1.165-9.359-1.165-9.359Z" transform="translate(-4521.878 -1283.045)" fill="#f49d8b"/>
          </g>
        </g>
        <g id="Grupo_880573" data-name="Grupo 880573" transform="translate(63.234 37.336)">
          <g id="Grupo_880572" data-name="Grupo 880572">
            <path id="Trazado_602970" data-name="Trazado 602970" d="M4542.477,1284.709l5.452.508,7.262,1.1a45.788,45.788,0,0,0,.278,5.667A15.236,15.236,0,0,1,4542.477,1284.709Z" transform="translate(-4542.477 -1284.709)" fill="#12263f"/>
          </g>
        </g>
        <g id="Grupo_880575" data-name="Grupo 880575" transform="translate(54.658 3.161)">
          <g id="Grupo_880574" data-name="Grupo 880574">
            <path id="Trazado_602971" data-name="Trazado 602971" d="M4540.812,1174.87c.938,2.362.038,5.986.894,10.916s1.225,14.848-5.771,16.8a19.143,19.143,0,0,1-13.155-1,12.851,12.851,0,0,1-6.554-7.941l-3.178-11.06a13.322,13.322,0,0,1,9.4-16.642q.252-.063.511-.119C4537.225,1162.764,4540.812,1174.87,4540.812,1174.87Z" transform="translate(-4512.521 -1165.331)" fill="#f49d8b"/>
          </g>
        </g>
        <g id="Grupo_880577" data-name="Grupo 880577" transform="translate(68.271 23.232)">
          <g id="Grupo_880576" data-name="Grupo 880576">
            <path id="Trazado_602972" data-name="Trazado 602972" d="M4560.083,1236.96c-.068-.811.143-1.491.473-1.519s.652.608.72,1.419-.143,1.492-.472,1.52S4560.152,1237.772,4560.083,1236.96Z" transform="translate(-4560.071 -1235.44)" fill="#12263f"/>
          </g>
        </g>
        <g id="Grupo_880579" data-name="Grupo 880579" transform="translate(79.063 22.057)">
          <g id="Grupo_880578" data-name="Grupo 880578">
            <path id="Trazado_602973" data-name="Trazado 602973" d="M4597.784,1232.856c-.067-.812.144-1.492.473-1.52s.652.608.72,1.419-.144,1.492-.473,1.52S4597.853,1233.668,4597.784,1232.856Z" transform="translate(-4597.771 -1231.336)" fill="#12263f"/>
          </g>
        </g>
        <g id="Grupo_880581" data-name="Grupo 880581" transform="translate(74.689 24.329)">
          <g id="Grupo_880580" data-name="Grupo 880580">
            <path id="Trazado_602974" data-name="Trazado 602974" d="M4583.644,1245.452a.166.166,0,0,1-.1-.046.171.171,0,0,1-.008-.241,4.875,4.875,0,0,0,1.146-2.413c.08-.645-.345-1-.883-1.451a3.226,3.226,0,0,1-1.308-1.822.172.172,0,0,1,.133-.2.17.17,0,0,1,.2.132,2.911,2.911,0,0,0,1.192,1.63c.544.455,1.106.926,1,1.755a5.135,5.135,0,0,1-1.235,2.6A.17.17,0,0,1,4583.644,1245.452Z" transform="translate(-4582.49 -1239.273)" fill="none" stroke="#12263f" stroke-width="1"/>
          </g>
        </g>
        <g id="Grupo_880583" data-name="Grupo 880583" transform="translate(66.278 20.615)">
          <g id="Grupo_880582" data-name="Grupo 880582">
            <path id="Trazado_602975" data-name="Trazado 602975" d="M4553.643,1228.242a.513.513,0,0,0,.338-.143,3.7,3.7,0,0,1,3.02-.723.513.513,0,0,0,.146-1.015,4.706,4.706,0,0,0-3.879,1,.513.513,0,0,0,.376.88Z" transform="translate(-4553.111 -1226.299)" fill="#12263f"/>
          </g>
        </g>
        <g id="Grupo_880585" data-name="Grupo 880585" transform="translate(77.245 19.685)">
          <g id="Grupo_880584" data-name="Grupo 880584">
            <path id="Trazado_602976" data-name="Trazado 602976" d="M4591.78,1224.3a.512.512,0,0,0,.366-.024,3.706,3.706,0,0,1,3.09.309.513.513,0,1,0,.471-.911,4.708,4.708,0,0,0-3.993-.328.513.513,0,0,0,.066.955Z" transform="translate(-4591.419 -1223.053)" fill="#12263f"/>
          </g>
        </g>
        <g id="Grupo_880587" data-name="Grupo 880587" transform="translate(52.604 2.77)">
          <g id="Grupo_880586" data-name="Grupo 880586">
            <path id="Trazado_602977" data-name="Trazado 602977" d="M4511.987,1187.636a49.323,49.323,0,0,0,7.413-14.93,40.085,40.085,0,0,0,7.963,2.437c4.045.714,6.164-.147,8.331,3.113s1.137-1.75,1.137-1.75-2.305-17.026-21.267-11.4-5.725,24.661-5.725,24.661Z" transform="translate(-4505.345 -1163.964)" fill="#12263f"/>
          </g>
        </g>
        <g id="Grupo_880595" data-name="Grupo 880595" transform="translate(69.191 31.385)">
          <g id="Grupo_880594" data-name="Grupo 880594">
            <path id="Trazado_602981" data-name="Trazado 602981" d="M4569.458,1264.857c.681.135,1.366.163,2.049.264.727.108,1.276.564,1.1,1.339-.717,3.122-5.08,2.78-7.356,1.891a3.391,3.391,0,0,1-1.421-.949,2.26,2.26,0,0,1,.176-3.126c.831-.6,2.011-.311,2.921-.089.781.19,1.544.444,2.327.626C4569.32,1264.829,4569.389,1264.844,4569.458,1264.857Z" transform="translate(-4563.288 -1263.921)" fill="none" stroke="#12263f" stroke-width="1"/>
          </g>
        </g>
        <g id="Grupo_880601" data-name="Grupo 880601" transform="translate(51.814 23.471)">
          <g id="Grupo_880600" data-name="Grupo 880600">
            <path id="Trazado_602984" data-name="Trazado 602984" d="M4511.36,1239.03s-3.432-3.586-6.361-2.572-3.394,7.3-.271,8.562,6.916-1.154,6.916-1.154Z" transform="translate(-4502.585 -1236.277)" fill="#f49d8b"/>
          </g>
        </g>
        <g id="Grupo_880603" data-name="Grupo 880603" transform="translate(53.279 25.463)">
          <g id="Grupo_880602" data-name="Grupo 880602">
            <path id="Trazado_602985" data-name="Trazado 602985" d="M4509.283,1248.6a.13.13,0,0,1-.038-.01,3.063,3.063,0,0,1-.211-5.115c.71-.38,1.669-.311,3.307.238a.128.128,0,1,1-.081.243c-1.544-.518-2.472-.594-3.105-.255a2.484,2.484,0,0,0-1.082,1.688,2.437,2.437,0,0,0,1.277,2.967.128.128,0,0,1-.066.245Z" transform="translate(-4507.705 -1243.235)" fill="none" stroke="#12263f" stroke-width="1"/>
          </g>
        </g>
        <g id="Grupo_880609" data-name="Grupo 880609" transform="translate(41.014 135.447)">
          <g id="Grupo_880608" data-name="Grupo 880608">
            <path id="Trazado_602988" data-name="Trazado 602988" d="M4527.607,1628.59a191.023,191.023,0,0,1-61.735-1.159l-1.014,5.362s44.489,9.709,62.749.435Z" transform="translate(-4464.858 -1627.431)" fill="#3c251d"/>
          </g>
        </g>
        <g id="Grupo_880611" data-name="Grupo 880611" transform="translate(105.253 80.613)">
          <g id="Grupo_880610" data-name="Grupo 880610">
            <path id="Trazado_602989" data-name="Trazado 602989" d="M4696.318,1454.546a.2.2,0,0,1-.2-.2c0-12.029-6.72-18.05-6.791-18.109a.2.2,0,0,1,.266-.3c.068.061,6.926,6.192,6.926,18.411A.2.2,0,0,1,4696.318,1454.546Z" transform="translate(-4689.26 -1435.885)" fill="none" stroke="#12263f" stroke-width="1"/>
          </g>
        </g>
        <g id="Grupo_880613" data-name="Grupo 880613" transform="translate(38.206 91.434)">
          <g id="Grupo_880612" data-name="Grupo 880612">
            <path id="Trazado_602990" data-name="Trazado 602990" d="M4455.25,1489.349a.191.191,0,0,1-.065-.012.2.2,0,0,1-.125-.254c2.484-7.266,5.961-15.2,6-15.281a.2.2,0,1,1,.365.162c-.034.079-3.5,8-5.982,15.249A.2.2,0,0,1,4455.25,1489.349Z" transform="translate(-4455.049 -1473.683)" fill="none" stroke="#12263f" stroke-width="1"/>
          </g>
        </g>
        <g id="Grupo_880615" data-name="Grupo 880615" transform="translate(41.684 94.139)">
          <g id="Grupo_880614" data-name="Grupo 880614">
            <path id="Trazado_602991" data-name="Trazado 602991" d="M4467.4,1487.013a.2.2,0,0,1-.127-.356l4.251-3.477a.2.2,0,0,1,.281.029.2.2,0,0,1-.026.282l-4.252,3.477A.211.211,0,0,1,4467.4,1487.013Z" transform="translate(-4467.2 -1483.134)" fill="none" stroke="#12263f" stroke-width="1"/>
          </g>
        </g>
        <g id="Grupo_880617" data-name="Grupo 880617" transform="translate(53.663 100.901)">
          <g id="Grupo_880616" data-name="Grupo 880616">
            <path id="Trazado_602992" data-name="Trazado 602992" d="M4521.323,1512.925a33.446,33.446,0,0,1-12.149-2.5.2.2,0,1,1,.146-.373c17.992,7.006,26.542-3.124,26.627-3.226a.2.2,0,0,1,.313.253C4536.195,1507.16,4531.344,1512.925,4521.323,1512.925Z" transform="translate(-4509.045 -1506.755)" fill="none" stroke="#12263f" stroke-width="1"/>
          </g>
        </g>
        <g id="Grupo_880619" data-name="Grupo 880619" transform="translate(64.289 56.459)">
          <g id="Grupo_880618" data-name="Grupo 880618">
            <path id="Trazado_602993" data-name="Trazado 602993" d="M4559.827,1359.935c-6.391,0-13.221-4.533-13.576-4.772a.2.2,0,1,1,.224-.331c.107.07,10.623,7.047,17.583,3.848,2.768-1.271,4.455-2.763,5.01-4.435a3.278,3.278,0,0,0-.078-2.435.2.2,0,1,1,.35-.193,3.615,3.615,0,0,1,.115,2.743c-.59,1.785-2.349,3.361-5.229,4.685A10.467,10.467,0,0,1,4559.827,1359.935Z" transform="translate(-4546.164 -1351.512)" fill="none" stroke="#12263f" stroke-width="1"/>
          </g>
        </g>
        <g id="Grupo_880621" data-name="Grupo 880621" transform="translate(77.762 136.787)">
          <g id="Grupo_880620" data-name="Grupo 880620">
            <path id="Trazado_602994" data-name="Trazado 602994" d="M4593.225,1640.77v-7.343a1.317,1.317,0,0,1,1.318-1.318h12.366a1.317,1.317,0,0,1,1.318,1.318v7.343a1.317,1.317,0,0,1-1.318,1.318h-12.366A1.317,1.317,0,0,1,4593.225,1640.77Zm12.366-6.025h-9.73v4.707h9.73Z" transform="translate(-4593.225 -1632.11)" fill="#edbc2c"/>
          </g>
        </g>
        <g id="Grupo_880623" data-name="Grupo 880623" transform="translate(61.012 137.621)">
          <g id="Grupo_880622" data-name="Grupo 880622">
            <path id="Trazado_602995" data-name="Trazado 602995" d="M4538.967,1642.367l-.193-7.149-4.058-.193v7.922Z" transform="translate(-4534.717 -1635.024)" fill="#47486c"/>
          </g>
        </g>
        <g id="Grupo_880625" data-name="Grupo 880625" transform="translate(44.588 135.785)">
          <g id="Grupo_880624" data-name="Grupo 880624">
            <path id="Trazado_602996" data-name="Trazado 602996" d="M4481.113,1635.568l.773-6.28-3.575-.676-.966,6.473Z" transform="translate(-4477.345 -1628.612)" fill="#de5a4c"/>
          </g>
        </g>
        <g id="Grupo_880627" data-name="Grupo 880627" transform="translate(0 117.299)">
          <g id="Grupo_880626" data-name="Grupo 880626">
            <path id="Trazado_602997" data-name="Trazado 602997" d="M4386.021,1565.515c-19.207,6.65-30.743,10.057-37.585,8.132-.42-2.393.061-3.811.783-6.834-8.656-.3-17.312-2.043-25.968-2.778-2.1,8.123-2.571,16.856.737,24.826,4.375,10.538,9.959,11.353,23.162,11.353,16.308,0,38.639-9.659,48.1-16.032Z" transform="translate(-4321.589 -1564.035)" fill="#f49d8b"/>
          </g>
        </g>
        <g id="Grupo_880631" data-name="Grupo 880631" transform="translate(77.291 135.948)">
          <g id="Grupo_880630" data-name="Grupo 880630">
            <path id="Trazado_602999" data-name="Trazado 602999" d="M4591.914,1630.707a.333.333,0,0,1-.07-.659l3.965-.863a.333.333,0,0,1,.141.651l-3.965.863A.333.333,0,0,1,4591.914,1630.707Z" transform="translate(-4591.581 -1629.178)" fill="#edbc2c"/>
          </g>
        </g>
        <g id="Grupo_880633" data-name="Grupo 880633" transform="translate(81.825 117.886)">
          <g id="Grupo_880632" data-name="Grupo 880632">
            <path id="Trazado_603000" data-name="Trazado 603000" d="M4607.956,1578.055a.432.432,0,0,1-.2-.047c-.454-.233-.425-1.053-.084-4.766a63.929,63.929,0,0,0,.386-6.811.335.335,0,0,1,.326-.343h.008a.334.334,0,0,1,.333.325,65.329,65.329,0,0,1-.388,6.891c-.135,1.469-.284,3.1-.25,3.831.926-1.314,2.826-5.982,2.876-8.287a.334.334,0,0,1,.333-.326h.008a.333.333,0,0,1,.325.341c-.054,2.465-2.265,8.124-3.339,9.053A.509.509,0,0,1,4607.956,1578.055Z" transform="translate(-4607.419 -1566.087)" fill="#3c251d"/>
          </g>
        </g>
        <g id="Grupo_880635" data-name="Grupo 880635" transform="translate(81.492 119.429)">
          <g id="Grupo_880634" data-name="Grupo 880634">
            <path id="Trazado_603001" data-name="Trazado 603001" d="M4612.718,1571.839h-.008l-5.886.685a.184.184,0,0,1-.177-.088l-.363-.61a.183.183,0,0,1,.313-.187l.3.509,5.765-.67a.182.182,0,0,1,.055.361Z" transform="translate(-4606.257 -1571.478)" fill="#3c251d"/>
          </g>
        </g>
        <g id="Grupo_880640" data-name="Grupo 880640" transform="translate(74.783 124.315)">
          <g id="Grupo_880637" data-name="Grupo 880637" transform="translate(0 0.18)">
            <g id="Grupo_880636" data-name="Grupo 880636">
              <path id="Trazado_603002" data-name="Trazado 603002" d="M4585.015,1590.483a.155.155,0,0,1-.022.1.151.151,0,0,1-.208.049l-1.895-1.175a.151.151,0,0,1,.159-.257l1.894,1.175A.151.151,0,0,1,4585.015,1590.483Z" transform="translate(-4582.819 -1589.172)" fill="#3c251d"/>
            </g>
          </g>
          <g id="Grupo_880639" data-name="Grupo 880639" transform="translate(0.139)">
            <g id="Grupo_880638" data-name="Grupo 880638">
              <path id="Trazado_603003" data-name="Trazado 603003" d="M4583.3,1590.245a.144.144,0,0,0,.041.089.151.151,0,0,0,.213.006l1.617-1.534a.151.151,0,0,0-.208-.22l-1.616,1.534A.15.15,0,0,0,4583.3,1590.245Z" transform="translate(-4583.304 -1588.544)" fill="#3c251d"/>
            </g>
          </g>
        </g>
        <g id="Grupo_880645" data-name="Grupo 880645" transform="translate(75.287 130.14)">
          <g id="Grupo_880642" data-name="Grupo 880642" transform="translate(0 0.18)">
            <g id="Grupo_880641" data-name="Grupo 880641">
              <path id="Trazado_603004" data-name="Trazado 603004" d="M4586.777,1610.831a.152.152,0,0,1-.23.144l-1.894-1.175a.151.151,0,0,1,.159-.257l1.894,1.175A.152.152,0,0,1,4586.777,1610.831Z" transform="translate(-4584.581 -1609.521)" fill="#3c251d"/>
            </g>
          </g>
          <g id="Grupo_880644" data-name="Grupo 880644" transform="translate(0.139)">
            <g id="Grupo_880643" data-name="Grupo 880643">
              <path id="Trazado_603005" data-name="Trazado 603005" d="M4585.065,1610.594a.153.153,0,0,0,.255.094l1.617-1.534a.151.151,0,0,0-.208-.22l-1.617,1.534A.156.156,0,0,0,4585.065,1610.594Z" transform="translate(-4585.065 -1608.893)" fill="#3c251d"/>
            </g>
          </g>
        </g>
        <g id="Grupo_880681" data-name="Grupo 880681" transform="translate(55.734 101.771)">
          <g id="Grupo_880647" data-name="Grupo 880647" transform="translate(2.741)">
            <g id="Grupo_880646" data-name="Grupo 880646">
              <path id="Trazado_603006" data-name="Trazado 603006" d="M4525.856,1529.768c3.644-3.723,5.611-5.921,6.354-7.324s7.875-7.652,10.472-10.785c2.4-2.9,6.024-2.573,5.379,2.084-.6,4.349-8.463,9.221-7.155,9.152,4.039-.213,5.515-.247,5.515-.247l.3,17.595-2.255,3.4-8.6.25Z" transform="translate(-4525.856 -1509.794)" fill="#f49d8b"/>
            </g>
          </g>
          <g id="Grupo_880649" data-name="Grupo 880649" transform="translate(13.451 30.476)">
            <g id="Grupo_880648" data-name="Grupo 880648">
              <path id="Trazado_603007" data-name="Trazado 603007" d="M4583.9,1621.552a2.726,2.726,0,0,1-1.259.3l-16.623-.08a2.758,2.758,0,1,1,.027-5.515l16.623.08a2.757,2.757,0,0,1,1.231,5.219Z" transform="translate(-4563.268 -1616.253)" fill="#f49d8b"/>
            </g>
          </g>
          <g id="Grupo_880651" data-name="Grupo 880651" transform="translate(18.707 10.738)">
            <g id="Grupo_880650" data-name="Grupo 880650">
              <path id="Trazado_603008" data-name="Trazado 603008" d="M4604.623,1554.518a3.7,3.7,0,0,1-.583.118l-16.62,1.971a3.68,3.68,0,0,1-4.087-3.219c-.239-2.02-5.292-3.933,3.219-4.088l16.619-1.971a3.679,3.679,0,0,1,1.451,7.188Z" transform="translate(-4581.628 -1547.304)" fill="#f49d8b"/>
            </g>
          </g>
          <g id="Grupo_880653" data-name="Grupo 880653" transform="translate(0 16.593)">
            <g id="Grupo_880652" data-name="Grupo 880652">
              <path id="Trazado_603009" data-name="Trazado 603009" d="M4516.28,1573.427s6.637-5.725,9.306-5.672c7.574.151,10.716,1.333,10.716,1.333s8.428,15.522,4.8,16.827c-3.414,1.228-22.6,3.227-22.6,3.227Z" transform="translate(-4516.28 -1567.755)" fill="#f49d8b"/>
            </g>
          </g>
          <g id="Grupo_880658" data-name="Grupo 880658" transform="translate(19.444 16.056)">
            <g id="Grupo_880655" data-name="Grupo 880655" transform="translate(0 0.18)">
              <g id="Grupo_880654" data-name="Grupo 880654">
                <path id="Trazado_603010" data-name="Trazado 603010" d="M4586.4,1567.821a.154.154,0,0,1-.022.095.151.151,0,0,1-.208.049l-1.894-1.175a.151.151,0,0,1,.159-.257l1.895,1.175A.154.154,0,0,1,4586.4,1567.821Z" transform="translate(-4584.2 -1566.51)" fill="none" stroke="#12263f" stroke-width="1"/>
              </g>
            </g>
            <g id="Grupo_880657" data-name="Grupo 880657" transform="translate(0.139)">
              <g id="Grupo_880656" data-name="Grupo 880656">
                <path id="Trazado_603011" data-name="Trazado 603011" d="M4584.686,1567.583a.144.144,0,0,0,.041.088.15.15,0,0,0,.213.006l1.616-1.535a.151.151,0,0,0-.207-.22l-1.617,1.535A.149.149,0,0,0,4584.686,1567.583Z" transform="translate(-4584.685 -1565.882)" fill="none" stroke="#12263f" stroke-width="1"/>
              </g>
            </g>
          </g>
          <g id="Grupo_880660" data-name="Grupo 880660" transform="translate(38.123 12.929)">
            <g id="Grupo_880659" data-name="Grupo 880659">
              <path id="Trazado_603012" data-name="Trazado 603012" d="M4653.884,1558.611a.145.145,0,0,1-.135-.028.149.149,0,0,1-.018-.208c1.044-1.252-.056-2.783-.314-3.112l-3.473.48c-.552.992.2,3.275.211,3.3a.147.147,0,0,1-.092.187l-.006,0a.147.147,0,0,1-.181-.094c-.035-.1-.837-2.536-.145-3.609a.158.158,0,0,1,.1-.067l3.624-.5a.145.145,0,0,1,.131.052c.016.018,1.679,1.981.368,3.553A.136.136,0,0,1,4653.884,1558.611Z" transform="translate(-4649.45 -1554.958)" fill="none" stroke="#12263f" stroke-width="1"/>
            </g>
          </g>
          <g id="Grupo_880662" data-name="Grupo 880662" transform="translate(18.168 17.944)">
            <g id="Grupo_880661" data-name="Grupo 880661">
              <path id="Trazado_603013" data-name="Trazado 603013" d="M4583.692,1580.625c.1,0,.193,0,.291-.01l12.436-.838a3.762,3.762,0,0,0,3.656-3.913,3.888,3.888,0,0,0-4.23-3.382l-12.436.838a3.763,3.763,0,0,0-3.656,3.913A3.842,3.842,0,0,0,4583.692,1580.625Z" transform="translate(-4579.743 -1572.474)" fill="#f49d8b"/>
            </g>
          </g>
          <g id="Grupo_880664" data-name="Grupo 880664" transform="translate(18.168 23.626)">
            <g id="Grupo_880663" data-name="Grupo 880663">
              <path id="Trazado_603014" data-name="Trazado 603014" d="M4583.692,1600.475c.1,0,.193,0,.291-.009l12.436-.838a3.762,3.762,0,0,0,3.656-3.913,3.887,3.887,0,0,0-4.23-3.382l-12.436.838a3.763,3.763,0,0,0-3.656,3.913A3.842,3.842,0,0,0,4583.692,1600.475Z" transform="translate(-4579.743 -1592.325)" fill="#f49d8b"/>
            </g>
          </g>
          <g id="Grupo_880666" data-name="Grupo 880666" transform="translate(26.533 18.4)">
            <g id="Grupo_880665" data-name="Grupo 880665">
              <path id="Trazado_603015" data-name="Trazado 603015" d="M4609.164,1575.293a.2.2,0,0,1,0-.4c.232,0,6.717-.539,10.114-.822a.222.222,0,0,1,.216.182.2.2,0,0,1-.185.216C4618.3,1574.553,4609.412,1575.293,4609.164,1575.293Z" transform="translate(-4608.963 -1574.069)" fill="none" stroke="#12263f" stroke-width="1"/>
            </g>
          </g>
          <g id="Grupo_880668" data-name="Grupo 880668" transform="translate(29.743 24.33)">
            <g id="Grupo_880667" data-name="Grupo 880667">
              <path id="Trazado_603016" data-name="Trazado 603016" d="M4620.381,1595.76a.2.2,0,0,1-.016-.4l7.166-.576a.21.21,0,0,1,.216.184.2.2,0,0,1-.185.215l-7.166.576Z" transform="translate(-4620.18 -1594.784)" fill="none" stroke="#12263f" stroke-width="1"/>
            </g>
          </g>
          <g id="Grupo_880670" data-name="Grupo 880670" transform="translate(28.92 30.835)">
            <g id="Grupo_880669" data-name="Grupo 880669">
              <path id="Trazado_603017" data-name="Trazado 603017" d="M4622.692,1617.91H4617.5a.2.2,0,0,1,0-.4h5.188a.2.2,0,1,1,0,.4Z" transform="translate(-4617.305 -1617.508)" fill="none" stroke="#12263f" stroke-width="1"/>
            </g>
          </g>
          <g id="Grupo_880675" data-name="Grupo 880675" transform="translate(19.691 21.739)">
            <g id="Grupo_880672" data-name="Grupo 880672" transform="translate(0 0.18)">
              <g id="Grupo_880671" data-name="Grupo 880671">
                <path id="Trazado_603018" data-name="Trazado 603018" d="M4587.259,1587.671a.154.154,0,0,1-.022.1.151.151,0,0,1-.208.049l-1.895-1.175a.151.151,0,0,1,.159-.257l1.894,1.175A.155.155,0,0,1,4587.259,1587.671Z" transform="translate(-4585.063 -1586.36)" fill="none" stroke="#12263f" stroke-width="1"/>
              </g>
            </g>
            <g id="Grupo_880674" data-name="Grupo 880674" transform="translate(0.139)">
              <g id="Grupo_880673" data-name="Grupo 880673">
                <path id="Trazado_603019" data-name="Trazado 603019" d="M4585.549,1587.433a.146.146,0,0,0,.041.088.152.152,0,0,0,.214.006l1.616-1.534a.151.151,0,0,0-.208-.22l-1.616,1.534A.151.151,0,0,0,4585.549,1587.433Z" transform="translate(-4585.548 -1585.732)" fill="none" stroke="#12263f" stroke-width="1"/>
              </g>
            </g>
          </g>
          <g id="Grupo_880680" data-name="Grupo 880680" transform="translate(20.102 27.01)">
            <g id="Grupo_880677" data-name="Grupo 880677" transform="translate(0 0.18)">
              <g id="Grupo_880676" data-name="Grupo 880676">
                <path id="Trazado_603020" data-name="Trazado 603020" d="M4588.7,1606.083a.147.147,0,0,1-.022.095.15.15,0,0,1-.208.049l-1.894-1.175a.151.151,0,1,1,.159-.257l1.894,1.175A.151.151,0,0,1,4588.7,1606.083Z" transform="translate(-4586.501 -1604.772)" fill="none" stroke="#12263f" stroke-width="1"/>
              </g>
            </g>
            <g id="Grupo_880679" data-name="Grupo 880679" transform="translate(0.139)">
              <g id="Grupo_880678" data-name="Grupo 880678">
                <path id="Trazado_603021" data-name="Trazado 603021" d="M4586.986,1605.845a.152.152,0,0,0,.255.094l1.617-1.534a.151.151,0,0,0-.208-.22l-1.617,1.534A.152.152,0,0,0,4586.986,1605.845Z" transform="translate(-4586.985 -1604.144)" fill="none" stroke="#12263f" stroke-width="1"/>
              </g>
            </g>
          </g>
        </g>
        <g id="Grupo_880683" data-name="Grupo 880683" transform="translate(52.531 30.893)">
          <g id="Grupo_880682" data-name="Grupo 880682">
            <path id="Trazado_603022" data-name="Trazado 603022" d="M4508.876,1262.286c-.116-.876,4.791,5.375-.818,5.375s-1.542-4.137-1.542-4.137l.607.223s-.7,2.629.993,2.629.526-3.973.526-3.973Z" transform="translate(-4505.091 -1262.202)" fill="#edbc2c"/>
          </g>
        </g>
        <g id="Grupo_880706" data-name="Grupo 880706" transform="translate(137.336 32.989)">
          <g id="Grupo_880685" data-name="Grupo 880685" transform="translate(0 12.743)">
            <g id="Grupo_880684" data-name="Grupo 880684">
              <path id="Trazado_603023" data-name="Trazado 603023" d="M4802.1,1336.255s-2.822-8.459,2.332-15.015c3.02-3.842,10.486-7.2,10.486-7.2s15.4,11.035,14.278,15.213-12.82,17.488-12.82,17.488Z" transform="translate(-4801.329 -1314.038)" fill="#f49d8b"/>
            </g>
          </g>
          <g id="Grupo_880687" data-name="Grupo 880687" transform="translate(1.39 5.323)">
            <g id="Grupo_880686" data-name="Grupo 880686">
              <path id="Trazado_603024" data-name="Trazado 603024" d="M4807.591,1312.466a2.929,2.929,0,0,1-1.38-2.881c.937-7.178,1.655-16.017,1.182-17.78a2.93,2.93,0,0,1,5.661-1.517c.989,3.694-.54,16.285-1.032,20.055a2.932,2.932,0,0,1-4.431,2.124Z" transform="translate(-4806.186 -1288.116)" fill="#f49d8b"/>
            </g>
          </g>
          <g id="Grupo_880689" data-name="Grupo 880689" transform="translate(7.82)">
            <g id="Grupo_880688" data-name="Grupo 880688">
              <path id="Trazado_603025" data-name="Trazado 603025" d="M4831.008,1296.774a2.931,2.931,0,0,1-2.036-4.217c.055-.1,5.432-10.558,7.552-15.786l2.2-5.413a2.929,2.929,0,1,1,5.429,2.2l-2.194,5.414c-2.219,5.473-7.547,15.829-7.772,16.267A2.931,2.931,0,0,1,4831.008,1296.774Z" transform="translate(-4828.646 -1269.523)" fill="#f49d8b"/>
            </g>
          </g>
          <g id="Grupo_880691" data-name="Grupo 880691" transform="translate(13.399 0.953)">
            <g id="Grupo_880690" data-name="Grupo 880690">
              <path id="Trazado_603026" data-name="Trazado 603026" d="M4850.492,1299.262a2.932,2.932,0,0,1-1.945-4.376c3.673-6.154,9.808-17,10.633-19.9a2.93,2.93,0,1,1,5.636,1.6c-1.306,4.6-10.226,19.609-11.238,21.305A2.932,2.932,0,0,1,4850.492,1299.262Z" transform="translate(-4848.132 -1272.854)" fill="#f49d8b"/>
            </g>
          </g>
          <g id="Grupo_880693" data-name="Grupo 880693" transform="translate(18.499 6.359)">
            <g id="Grupo_880692" data-name="Grupo 880692">
              <path id="Trazado_603027" data-name="Trazado 603027" d="M4868.307,1313.379a2.931,2.931,0,0,1-1.785-4.614c.081-.108,8.038-10.91,10.209-15.379a2.93,2.93,0,1,1,5.271,2.559c-2.405,4.954-10.426,15.838-10.765,16.3A2.931,2.931,0,0,1,4868.307,1313.379Z" transform="translate(-4865.949 -1291.737)" fill="#f49d8b"/>
            </g>
          </g>
          <g id="Grupo_880695" data-name="Grupo 880695" transform="translate(21.137 13.584)">
            <g id="Grupo_880694" data-name="Grupo 880694">
              <path id="Trazado_603028" data-name="Trazado 603028" d="M4877.521,1334.4a2.93,2.93,0,0,1-1.5-4.947c.081-.081,8.149-8.132,10.818-11.4a2.93,2.93,0,1,1,4.54,3.7c-2.857,3.5-10.881,11.51-11.222,11.849A2.926,2.926,0,0,1,4877.521,1334.4Z" transform="translate(-4875.166 -1316.973)" fill="#f49d8b"/>
            </g>
          </g>
          <g id="Grupo_880697" data-name="Grupo 880697" transform="translate(9.83 21.3)">
            <g id="Grupo_880696" data-name="Grupo 880696">
              <path id="Trazado_603029" data-name="Trazado 603029" d="M4835.946,1358.64a.252.252,0,0,1-.03-.021.244.244,0,0,1-.03-.344,10.061,10.061,0,0,0-.149-13.929.244.244,0,1,1,.345-.345c.067.068,6.649,6.83.179,14.588A.244.244,0,0,1,4835.946,1358.64Z" transform="translate(-4835.667 -1343.93)" fill="none" stroke="#12263f" stroke-width="1"/>
            </g>
          </g>
          <g id="Grupo_880699" data-name="Grupo 880699" transform="translate(13.892 15.98)">
            <g id="Grupo_880698" data-name="Grupo 880698">
              <path id="Trazado_603030" data-name="Trazado 603030" d="M4862.532,1335.524a.263.263,0,0,1-.062-.037c-.091-.074-9.032-7.373-12.505-9.7a.244.244,0,1,1,.272-.406c3.492,2.335,12.452,9.649,12.541,9.723a.244.244,0,0,1-.246.416Z" transform="translate(-4849.856 -1325.345)" fill="none" stroke="#12263f" stroke-width="1"/>
            </g>
          </g>
          <g id="Grupo_880701" data-name="Grupo 880701" transform="translate(23.998 17.392)">
            <g id="Grupo_880700" data-name="Grupo 880700">
              <path id="Trazado_603031" data-name="Trazado 603031" d="M4885.319,1337.071a.2.2,0,0,1-.1-.05.2.2,0,0,1-.006-.277l6.137-6.4a.194.194,0,0,1,.277-.006.2.2,0,0,1,.007.277l-6.137,6.4A.2.2,0,0,1,4885.319,1337.071Z" transform="translate(-4885.158 -1330.278)" fill="none" stroke="#12263f" stroke-width="1"/>
            </g>
          </g>
          <g id="Grupo_880703" data-name="Grupo 880703" transform="translate(20.125 13.653)">
            <g id="Grupo_880702" data-name="Grupo 880702">
              <path id="Trazado_603032" data-name="Trazado 603032" d="M4871.789,1324.252a.207.207,0,0,1-.088-.039.2.2,0,0,1-.031-.275l5.265-6.649a.2.2,0,1,1,.306.244l-5.265,6.649A.194.194,0,0,1,4871.789,1324.252Z" transform="translate(-4871.628 -1317.215)" fill="none" stroke="#12263f" stroke-width="1"/>
            </g>
          </g>
          <g id="Grupo_880705" data-name="Grupo 880705" transform="translate(16.107 12.756)">
            <g id="Grupo_880704" data-name="Grupo 880704">
              <path id="Trazado_603033" data-name="Trazado 603033" d="M4857.755,1319.075a.185.185,0,0,1-.079-.034.193.193,0,0,1-.044-.271l3.308-4.6a.194.194,0,0,1,.271-.044.192.192,0,0,1,.044.271l-3.307,4.6A.194.194,0,0,1,4857.755,1319.075Z" transform="translate(-4857.595 -1314.084)" fill="none" stroke="#12263f" stroke-width="1"/>
            </g>
          </g>
        </g>
        <g id="Grupo_880708" data-name="Grupo 880708" transform="translate(133.469 99.54)">
          <g id="Grupo_880707" data-name="Grupo 880707">
            <path id="Trazado_603034" data-name="Trazado 603034" d="M4788.021,1512.921a.273.273,0,0,1-.046-.005.2.2,0,0,1-.149-.241c.014-.055,1.291-5.478,2.55-10.521a.194.194,0,0,1,.245-.146.2.2,0,0,1,.146.242c-1.262,5.04-2.536,10.462-2.55,10.516A.2.2,0,0,1,4788.021,1512.921Z" transform="translate(-4787.82 -1502)" fill="none" stroke="#12263f" stroke-width="1"/>
          </g>
        </g>
      </g>
      <g id="Grupo_880724" data-name="Grupo 880724" transform="translate(4505.484 1210.859)">
        <g id="Grupo_880713" data-name="Grupo 880713" transform="translate(0 2.467)">
          <g id="Grupo_880712" data-name="Grupo 880712">
            <path id="Trazado_603036" data-name="Trazado 603036" d="M5028.133,1486.1l-4.828,1.888v.031l4.828,1.888v2.071l-7.706-3.015v-1.92l7.706-3.015Z" transform="translate(-5020.427 -1484.029)" fill="#12263f"/>
          </g>
        </g>
        <g id="Grupo_880715" data-name="Grupo 880715" transform="translate(9.443 0)">
          <g id="Grupo_880714" data-name="Grupo 880714">
            <path id="Trazado_603037" data-name="Trazado 603037" d="M5061.043,1478.486a2.349,2.349,0,0,0-.86-.656,2.863,2.863,0,0,0-1.181-.227,2.958,2.958,0,0,0-2.232.982,3.372,3.372,0,0,0-.654,1.1,4.2,4.2,0,0,0,0,2.78,3.47,3.47,0,0,0,.647,1.1,2.927,2.927,0,0,0,.967.723,2.8,2.8,0,0,0,1.2.259,2.687,2.687,0,0,0,1.3-.3,2.6,2.6,0,0,0,.929-.853l1.979,1.477a4.126,4.126,0,0,1-1.736,1.417,5.385,5.385,0,0,1-2.163.456,6.648,6.648,0,0,1-2.33-.395,5.322,5.322,0,0,1-1.843-1.135,5.146,5.146,0,0,1-1.211-1.79,6.553,6.553,0,0,1,0-4.691,5.146,5.146,0,0,1,1.211-1.79,5.352,5.352,0,0,1,1.843-1.135,6.648,6.648,0,0,1,2.33-.4,5.869,5.869,0,0,1,.953.083,5.168,5.168,0,0,1,.975.267,4.274,4.274,0,0,1,.921.488,3.668,3.668,0,0,1,.792.745Z" transform="translate(-5053.413 -1475.41)" fill="#12263f"/>
          </g>
        </g>
        <g id="Grupo_880717" data-name="Grupo 880717" transform="translate(19.876 0)">
          <g id="Grupo_880716" data-name="Grupo 880716">
            <path id="Trazado_603038" data-name="Trazado 603038" d="M5089.858,1481.075a6.1,6.1,0,0,1,.434-2.344,5.16,5.16,0,0,1,1.211-1.79,5.356,5.356,0,0,1,1.843-1.135,7.071,7.071,0,0,1,4.661,0,5.37,5.37,0,0,1,1.844,1.135,5.163,5.163,0,0,1,1.21,1.79,6.553,6.553,0,0,1,0,4.691,5.163,5.163,0,0,1-1.21,1.79,5.34,5.34,0,0,1-1.844,1.135,7.075,7.075,0,0,1-4.661,0,5.327,5.327,0,0,1-1.843-1.135,5.16,5.16,0,0,1-1.211-1.79A6.1,6.1,0,0,1,5089.858,1481.075Zm2.468,0a3.948,3.948,0,0,0,.236,1.394,3.187,3.187,0,0,0,.678,1.1,3.086,3.086,0,0,0,1.059.723,3.8,3.8,0,0,0,2.756,0,3.089,3.089,0,0,0,1.059-.723,3.187,3.187,0,0,0,.678-1.1,4.213,4.213,0,0,0,0-2.78,3.173,3.173,0,0,0-.678-1.1,3.082,3.082,0,0,0-1.059-.723,3.8,3.8,0,0,0-2.756,0,3.08,3.08,0,0,0-1.059.723,3.173,3.173,0,0,0-.678,1.1A3.98,3.98,0,0,0,5092.326,1481.075Z" transform="translate(-5089.858 -1475.41)" fill="#12263f"/>
          </g>
        </g>
        <g id="Grupo_880719" data-name="Grupo 880719" transform="translate(33.127 0.274)">
          <g id="Grupo_880718" data-name="Grupo 880718">
            <path id="Trazado_603039" data-name="Trazado 603039" d="M5136.146,1476.366h3.564a10.209,10.209,0,0,1,2.46.289,5.664,5.664,0,0,1,2.034.938,4.6,4.6,0,0,1,1.378,1.682,5.648,5.648,0,0,1,.51,2.514,5.138,5.138,0,0,1-.495,2.308,4.968,4.968,0,0,1-1.334,1.674,5.863,5.863,0,0,1-1.934,1.029,7.5,7.5,0,0,1-2.3.35h-3.884Zm2.376,8.59h1.233a6.581,6.581,0,0,0,1.531-.168,3.264,3.264,0,0,0,1.227-.556,2.673,2.673,0,0,0,.814-1.021,3.621,3.621,0,0,0,.3-1.546,3.011,3.011,0,0,0-.3-1.377,2.751,2.751,0,0,0-.8-.967,3.478,3.478,0,0,0-1.181-.571,5.211,5.211,0,0,0-1.423-.191h-1.4Z" transform="translate(-5136.146 -1476.366)" fill="#12263f"/>
          </g>
        </g>
        <g id="Grupo_880721" data-name="Grupo 880721" transform="translate(44.778 0.274)">
          <g id="Grupo_880720" data-name="Grupo 880720">
            <path id="Trazado_603040" data-name="Trazado 603040" d="M5176.846,1476.366h7.326v2.194h-4.95v2.009h4.676v2.193h-4.676v2.194h5.224v2.193h-7.6Z" transform="translate(-5176.846 -1476.366)" fill="#12263f"/>
          </g>
        </g>
        <g id="Grupo_880723" data-name="Grupo 880723" transform="translate(54.404 2.467)">
          <g id="Grupo_880722" data-name="Grupo 880722">
            <path id="Trazado_603041" data-name="Trazado 603041" d="M5210.472,1489.908l4.827-1.888v-.031l-4.827-1.888v-2.071l7.706,3.015v1.92l-7.706,3.015Z" transform="translate(-5210.472 -1484.029)" fill="#12263f"/>
          </g>
        </g>
      </g>
      <g id="Grupo_880729" data-name="Grupo 880729" transform="translate(4465.012 1107.65)">
        <g id="Grupo_880726" data-name="Grupo 880726" transform="translate(0)">
          <g id="Grupo_880725" data-name="Grupo 880725">
            <path id="Trazado_603042" data-name="Trazado 603042" d="M4936.947,1144.456a27.684,27.684,0,0,0-.9-8.362l6.5-5.947-3.854-7.035-8.027,2.545c-.133-.159-.247-.329-.384-.486a26.055,26.055,0,0,0-6.417-5.31l.776-8.5-7.455-2.406-4.15,7.49a24.722,24.722,0,0,0-8.629.861l-5.121-6.193-6.851,3.882,2.156,7.726c-.151.134-.311.248-.458.387a25.808,25.808,0,0,0-5.073,6.644l-8.216-.1-1.789,7.874,6.863,3.337a27.677,27.677,0,0,0,.982,9.189l-6.239,6.014,3.949,6.978,7.77-2.691c.062.072.113.15.176.222a26.035,26.035,0,0,0,6.3,5.245l-.073,9.356,7.608,1.821,3.45-7.7a24.721,24.721,0,0,0,8.752-.914l5.838,6.4,6.706-4.145-2.6-7.864c.056-.051.115-.092.17-.144a25.805,25.805,0,0,0,5.2-6.9l8.152.651,2.192-7.763Zm-25.3,13.108a14.585,14.585,0,1,1,14.584-14.585A14.585,14.585,0,0,1,4911.646,1157.564Z" transform="translate(-4879.049 -1108.958)" fill="#294ddc"/>
          </g>
        </g>
        <g id="Grupo_880728" data-name="Grupo 880728" transform="translate(11.407 12.831)">
          <g id="Grupo_880727" data-name="Grupo 880727">
            <path id="Trazado_603043" data-name="Trazado 603043" d="M4940.086,1196.158a21.189,21.189,0,1,1,21.19-21.189A21.213,21.213,0,0,1,4940.086,1196.158Zm0-40.727a19.538,19.538,0,1,0,19.539,19.538A19.561,19.561,0,0,0,4940.086,1155.431Z" transform="translate(-4918.896 -1153.78)" fill="#fff"/>
          </g>
        </g>
      </g>
      <g id="Grupo_880735" data-name="Grupo 880735" transform="translate(4421.414 1142.577)">
        <g id="Grupo_880732" data-name="Grupo 880732" transform="translate(0 0)">
          <g id="Grupo_880731" data-name="Grupo 880731">
            <g id="Grupo_880730" data-name="Grupo 880730">
              <path id="Trazado_603044" data-name="Trazado 603044" d="M4764.394,1254.044a17.989,17.989,0,0,0-.587-5.437l4.223-3.866-2.505-4.574-5.218,1.655c-.088-.1-.162-.214-.25-.316a16.945,16.945,0,0,0-4.172-3.452l.5-5.523-4.847-1.565-2.7,4.87a16.078,16.078,0,0,0-5.61.56l-3.329-4.026-4.454,2.524,1.4,5.023c-.1.087-.2.161-.3.252a16.81,16.81,0,0,0-3.3,4.32l-5.342-.067-1.163,5.119,4.462,2.17a17.976,17.976,0,0,0,.638,5.974l-4.057,3.91,2.568,4.536,5.051-1.749c.041.047.074.1.114.144a16.938,16.938,0,0,0,4.095,3.41l-.047,6.083,4.946,1.184,2.243-5a16.085,16.085,0,0,0,5.69-.594l3.8,4.16,4.358-2.695-1.693-5.113c.037-.033.076-.06.112-.094a16.786,16.786,0,0,0,3.382-4.487l5.3.423,1.425-5.047Zm-16.449,8.522a9.482,9.482,0,1,1,9.481-9.482A9.482,9.482,0,0,1,4747.944,1262.565Z" transform="translate(-4726.752 -1230.965)" fill="#6aceae"/>
            </g>
          </g>
        </g>
        <g id="Grupo_880734" data-name="Grupo 880734" transform="translate(7.416 8.342)">
          <g id="Grupo_880733" data-name="Grupo 880733">
            <path id="Trazado_603045" data-name="Trazado 603045" d="M4766.434,1287.657a13.776,13.776,0,1,1,13.776-13.776A13.791,13.791,0,0,1,4766.434,1287.657Zm0-26.478a12.7,12.7,0,1,0,12.7,12.7A12.717,12.717,0,0,0,4766.434,1261.18Z" transform="translate(-4752.658 -1260.106)" fill="#fff"/>
          </g>
        </g>
      </g>
      <g id="Grupo_880741" data-name="Grupo 880741" transform="translate(4463.455 1179.006)">
        <g id="Grupo_880738" data-name="Grupo 880738" transform="translate(0 0)">
          <g id="Grupo_880737" data-name="Grupo 880737">
            <g id="Grupo_880736" data-name="Grupo 880736">
              <path id="Trazado_603046" data-name="Trazado 603046" d="M4903.25,1376.392a14.118,14.118,0,0,0-.462-4.281l3.325-3.045-1.973-3.6-4.109,1.3c-.068-.081-.127-.169-.2-.249a13.315,13.315,0,0,0-3.285-2.719l.4-4.349-3.816-1.232-2.125,3.834a12.659,12.659,0,0,0-4.418.441l-2.621-3.171-3.508,1.987,1.1,3.956c-.077.069-.158.127-.234.2a13.22,13.22,0,0,0-2.6,3.4l-4.206-.052-.916,4.031,3.513,1.709a14.178,14.178,0,0,0,.5,4.7l-3.194,3.079,2.022,3.572,3.978-1.377c.032.037.057.077.09.114a13.325,13.325,0,0,0,3.224,2.685l-.037,4.79,3.9.932,1.766-3.94a12.657,12.657,0,0,0,4.48-.468l2.989,3.276,3.432-2.122-1.333-4.026c.028-.026.06-.047.088-.074a13.227,13.227,0,0,0,2.664-3.533l4.173.333,1.123-3.974Zm-12.952,6.71a7.467,7.467,0,1,1,7.466-7.467A7.467,7.467,0,0,1,4890.3,1383.1Z" transform="translate(-4873.61 -1358.219)" fill="#6aceae"/>
            </g>
          </g>
        </g>
        <g id="Grupo_880740" data-name="Grupo 880740" transform="translate(5.84 6.569)">
          <g id="Grupo_880739" data-name="Grupo 880739">
            <path id="Trazado_603047" data-name="Trazado 603047" d="M4904.857,1402.86a10.848,10.848,0,1,1,10.849-10.848A10.86,10.86,0,0,1,4904.857,1402.86Zm0-20.85a10,10,0,1,0,10,10A10.014,10.014,0,0,0,4904.857,1382.01Z" transform="translate(-4894.01 -1381.165)" fill="#fff"/>
          </g>
        </g>
      </g>
    </g>
  </g>
</svg>
