<svg xmlns="http://www.w3.org/2000/svg" xmlns:xlink="http://www.w3.org/1999/xlink" width="360.164" height="229.856" viewBox="0 0 360.164 229.856">
  <defs>
    <clipPath id="clip-path">
      <rect id="Rectángulo_341214" data-name="Rectángulo 341214" width="197.359" height="99.729" fill="#fff4d6"/>
    </clipPath>
    <clipPath id="clip-path-2">
      <rect id="Rectángulo_341215" data-name="Rectángulo 341215" width="148.855" height="75.219" fill="#fff"/>
    </clipPath>
    <linearGradient id="linear-gradient" y1="0.5" x2="1" y2="0.5" gradientUnits="objectBoundingBox">
      <stop offset="0" stop-color="#dae3fe"/>
      <stop offset="1" stop-color="#e9effd"/>
    </linearGradient>
    <linearGradient id="linear-gradient-2" x1="0.942" y1="-0.58" x2="0.44" y2="0.646" gradientUnits="objectBoundingBox">
      <stop offset="0" stop-color="#039be5"/>
      <stop offset="1" stop-color="#027fbc"/>
    </linearGradient>
    <linearGradient id="linear-gradient-3" x1="247.293" y1="-36.37" x2="236.06" y2="-35.979" gradientUnits="objectBoundingBox">
      <stop offset="0" stop-color="#09005d"/>
      <stop offset="1" stop-color="#1a0f91"/>
    </linearGradient>
    <linearGradient id="linear-gradient-4" x1="60.954" y1="-142.156" x2="60.566" y2="-143.098" xlink:href="#linear-gradient-3"/>
    <linearGradient id="linear-gradient-5" x1="20.882" y1="-16.133" x2="18.788" y2="-13.83" xlink:href="#linear-gradient-2"/>
    <linearGradient id="linear-gradient-6" x1="21.086" y1="-15.702" x2="18.992" y2="-13.399" xlink:href="#linear-gradient-2"/>
    <linearGradient id="linear-gradient-7" x1="21.301" y1="-15.12" x2="19.208" y2="-12.817" xlink:href="#linear-gradient-2"/>
    <linearGradient id="linear-gradient-8" x1="21.574" y1="-14.545" x2="19.48" y2="-12.242" xlink:href="#linear-gradient-2"/>
    <linearGradient id="linear-gradient-44" x1="0.515" y1="4.474" x2="0.531" y2="8.118" xlink:href="#linear-gradient-3"/>
    <linearGradient id="linear-gradient-45" x1="0.604" y1="1.164" x2="0.341" y2="-0.58" gradientUnits="objectBoundingBox">
      <stop offset="0" stop-color="#ff928e"/>
      <stop offset="1" stop-color="#feb3b1"/>
    </linearGradient>
    <linearGradient id="linear-gradient-46" x1="0.523" y1="3.704" x2="0.55" y2="7.136" xlink:href="#linear-gradient-3"/>
    <linearGradient id="linear-gradient-47" x1="0.661" y1="1.13" x2="0.376" y2="-0.791" xlink:href="#linear-gradient-45"/>
    <linearGradient id="linear-gradient-48" x1="-4.757" y1="2.369" x2="-3.376" y2="1.878" xlink:href="#linear-gradient-3"/>
    <linearGradient id="linear-gradient-49" x1="0" y1="0.5" x2="1" y2="0.5" xlink:href="#linear-gradient-45"/>
    <linearGradient id="linear-gradient-51" x1="0.544" y1="0.591" x2="-0.17" y2="1.975" xlink:href="#linear-gradient-45"/>
    <linearGradient id="linear-gradient-52" x1="1.572" y1="0.247" x2="-0.425" y2="0.689" xlink:href="#linear-gradient-45"/>
    <linearGradient id="linear-gradient-53" x1="0" y1="0.5" x2="1" y2="0.5" xlink:href="#linear-gradient-3"/>
    <linearGradient id="linear-gradient-54" x1="-2.684" y1="2.763" x2="0.578" y2="0.44" xlink:href="#linear-gradient-45"/>
    <linearGradient id="linear-gradient-55" x1="-0.281" y1="0.954" x2="1.881" y2="-0.303" gradientUnits="objectBoundingBox">
      <stop offset="0" stop-color="#4042e2"/>
      <stop offset="1" stop-color="#4f52ff"/>
    </linearGradient>
    <linearGradient id="linear-gradient-56" x1="0.509" y1="0.127" x2="0.756" y2="-20.76" xlink:href="#linear-gradient-55"/>
    <linearGradient id="linear-gradient-57" x1="0.34" y1="4.039" x2="0.537" y2="-0.315" xlink:href="#linear-gradient-55"/>
    <linearGradient id="linear-gradient-58" x1="0.759" y1="0.5" x2="1.759" y2="0.5" xlink:href="#linear-gradient-45"/>
    <linearGradient id="linear-gradient-60" x1="0.984" y1="0.116" x2="0.443" y2="0.59" xlink:href="#linear-gradient-3"/>
    <linearGradient id="linear-gradient-61" x1="0.14" y1="-0.516" x2="0.935" y2="1.83" xlink:href="#linear-gradient-45"/>
    <linearGradient id="linear-gradient-62" x1="0.106" y1="0.3" x2="1.389" y2="1.091" xlink:href="#linear-gradient-45"/>
    <linearGradient id="linear-gradient-63" x1="1.274" y1="-0.084" x2="0.205" y2="0.706" xlink:href="#linear-gradient-3"/>
    <linearGradient id="linear-gradient-64" x1="-2.145" y1="-0.898" x2="2.525" y2="1.653" xlink:href="#linear-gradient-45"/>
    <linearGradient id="linear-gradient-65" x1="0.34" y1="-2.03" x2="0.54" y2="1.275" xlink:href="#linear-gradient-45"/>
    <linearGradient id="linear-gradient-66" x1="0.487" y1="-0.411" x2="0.516" y2="1.433" gradientUnits="objectBoundingBox">
      <stop offset="0" stop-color="#fe7062"/>
      <stop offset="1" stop-color="#ff928e"/>
    </linearGradient>
    <linearGradient id="linear-gradient-67" x1="26.151" y1="2.581" x2="24.455" y2="5.064" gradientUnits="objectBoundingBox">
      <stop offset="0" stop-color="#2b3582"/>
      <stop offset="1" stop-color="#150e42"/>
    </linearGradient>
    <linearGradient id="linear-gradient-68" x1="127.618" y1="-12.219" x2="123.909" y2="10.543" xlink:href="#linear-gradient-55"/>
    <linearGradient id="linear-gradient-69" x1="90.492" y1="0.5" x2="91.492" y2="0.5" xlink:href="#linear-gradient-45"/>
    <linearGradient id="linear-gradient-70" x1="325.361" y1="-0.84" x2="324.825" y2="2.387" gradientUnits="objectBoundingBox">
      <stop offset="0" stop-color="#f9b776"/>
      <stop offset="1" stop-color="#f47960"/>
    </linearGradient>
    <linearGradient id="linear-gradient-71" x1="88.639" y1="-5.065" x2="86.116" y2="16.732" xlink:href="#linear-gradient-55"/>
    <linearGradient id="linear-gradient-72" x1="339.034" y1="-0.221" x2="338.49" y2="2.534" xlink:href="#linear-gradient-70"/>
    <linearGradient id="linear-gradient-73" x1="0.36" y1="-0.253" x2="0.704" y2="1.918" xlink:href="#linear-gradient-45"/>
    <linearGradient id="linear-gradient-74" x1="23.161" y1="34.156" x2="22.024" y2="35.437" xlink:href="#linear-gradient-45"/>
    <linearGradient id="linear-gradient-75" x1="15.892" y1="23.034" x2="16.831" y2="23.034" xlink:href="#linear-gradient-3"/>
    <linearGradient id="linear-gradient-76" x1="59.444" y1="114.691" x2="62.05" y2="112.044" xlink:href="#linear-gradient-45"/>
    <linearGradient id="linear-gradient-77" x1="222.108" y1="-0.948" x2="221.071" y2="0.859" xlink:href="#linear-gradient-67"/>
    <linearGradient id="linear-gradient-78" x1="113.862" y1="-0.467" x2="113.149" y2="0.647" xlink:href="#linear-gradient-45"/>
    <linearGradient id="linear-gradient-79" x1="131.336" y1="-0.185" x2="130.524" y2="2.415" xlink:href="#linear-gradient-45"/>
    <linearGradient id="linear-gradient-82" x1="1.198" y1="-0.453" x2="-0.051" y2="1.132" xlink:href="#linear-gradient-45"/>
    <linearGradient id="linear-gradient-83" x1="1.12" y1="0.013" x2="-2.603" y2="3.271" xlink:href="#linear-gradient-45"/>
    <linearGradient id="linear-gradient-84" x1="5.443" y1="-8.8" x2="0.578" y2="0.278" xlink:href="#linear-gradient-45"/>
    <linearGradient id="linear-gradient-86" x1="0.384" y1="-0.062" x2="0.897" y2="2.428" xlink:href="#linear-gradient-3"/>
    <linearGradient id="linear-gradient-87" x1="0.932" y1="-3.497" x2="0.359" y2="1.805" xlink:href="#linear-gradient-66"/>
    <linearGradient id="linear-gradient-88" x1="0.605" y1="-1.235" x2="0.461" y2="1.146" xlink:href="#linear-gradient-66"/>
    <linearGradient id="linear-gradient-90" x1="0.565" y1="0.437" x2="-0.084" y2="2.589" xlink:href="#linear-gradient-45"/>
    <linearGradient id="linear-gradient-91" x1="1.136" y1="-0.29" x2="0.191" y2="0.94" xlink:href="#linear-gradient-45"/>
    <linearGradient id="linear-gradient-92" x1="-97.666" y1="-45.299" x2="-97.461" y2="-44.12" xlink:href="#linear-gradient-3"/>
    <linearGradient id="linear-gradient-93" x1="3.058" y1="-4.405" x2="-0.023" y2="1.559" xlink:href="#linear-gradient-45"/>
    <linearGradient id="linear-gradient-94" x1="0.531" y1="0.127" x2="0.328" y2="1.542" xlink:href="#linear-gradient-3"/>
    <linearGradient id="linear-gradient-95" x1="0.457" y1="1.875" x2="-0.174" y2="23.66" xlink:href="#linear-gradient-55"/>
    <linearGradient id="linear-gradient-96" x1="0.416" y1="2.736" x2="-0.105" y2="17.47" xlink:href="#linear-gradient-55"/>
    <linearGradient id="linear-gradient-97" x1="0.379" y1="3.815" x2="-0.133" y2="18.537" xlink:href="#linear-gradient-55"/>
    <linearGradient id="linear-gradient-98" x1="0.332" y1="5.008" x2="-0.21" y2="19.868" xlink:href="#linear-gradient-55"/>
    <linearGradient id="linear-gradient-99" x1="0.313" y1="-7.512" x2="0.437" y2="-2.157" xlink:href="#linear-gradient-45"/>
    <linearGradient id="linear-gradient-100" x1="-0.195" y1="-12.396" x2="0.194" y2="-5.173" xlink:href="#linear-gradient-45"/>
    <linearGradient id="linear-gradient-101" x1="-0.057" y1="-1.859" x2="0.311" y2="-0.171" xlink:href="#linear-gradient-45"/>
  </defs>
  <g id="Grupo_947556" data-name="Grupo 947556" transform="translate(-1047.194 -3716)">
    <g id="Grupo_946724" data-name="Grupo 946724" transform="translate(1407.359 3941.788) rotate(180)" clip-path="url(#clip-path)">
      <path id="Trazado_626839" data-name="Trazado 626839" d="M98.679,99.729A98.679,98.679,0,0,1,0,1.05C0,.7.01.351.014,0H197.345c0,.351.014.7.014,1.05A98.679,98.679,0,0,1,98.679,99.729" transform="translate(0 0)" fill="#fff4d6"/>
    </g>
    <g id="Grupo_946725" data-name="Grupo 946725" transform="translate(1125 3730.167) rotate(91)" clip-path="url(#clip-path-2)">
      <path id="Trazado_626840" data-name="Trazado 626840" d="M74.428,75.219A74.427,74.427,0,0,1,0,.792C0,.527.007.264.01,0H148.845c0,.264.01.527.01.792A74.427,74.427,0,0,1,74.428,75.219" transform="translate(0 0)" fill="#fff"/>
    </g>
    <g id="Grupo_947087" data-name="Grupo 947087" transform="translate(843.59 3459.141)">
      <g id="Grupo_947037" data-name="Grupo 947037" transform="translate(246.12 275.709)">
        <g id="Grupo_947036" data-name="Grupo 947036" transform="translate(0 127.834)">
          <path id="Trazado_627401" data-name="Trazado 627401" d="M445.781,1156.531c1.083.627-5.755-12.3-5.877-23.451s-1.879-30.25-11.026-41.995-19.618-13.2-33.272-3.394c-11.379,8.171-18.436,12.243-22.506,12.89a1.527,1.527,0,0,0-1.112,2.184c2.4,4.872,9.287,16.117,21.612,15.833,15.72-.361,35.129-9.8,40.584-1.068s4.522,13.462,4.54,17.5S438.611,1152.379,445.781,1156.531Z" transform="translate(-371.829 -1081.205)" fill="#bdd0fb"/>
          <path id="Trazado_627402" data-name="Trazado 627402" d="M526.982,1159.874a35.268,35.268,0,0,1,5.833-4.129,29.294,29.294,0,0,1,6.63-2.831,20.538,20.538,0,0,1,3.6-.668,15.309,15.309,0,0,1,3.717.131c.307.062.619.1.922.185s.614.155.905.25l1.715.608,1.673.729,1.617.858a20.715,20.715,0,0,1,5.561,4.725,25.915,25.915,0,0,1,3.73,6.2l.362.825c.123.274.209.561.315.841.2.565.414,1.124.6,1.693.336,1.146.7,2.283.939,3.449a59.733,59.733,0,0,1,1.189,7.009.284.284,0,0,1-.56.093l0-.01c-.472-2.3-.941-4.6-1.611-6.835-.3-1.128-.7-2.222-1.07-3.323-.2-.545-.432-1.076-.645-1.614s-.461-1.06-.71-1.581a25.867,25.867,0,0,0-3.68-5.778,20.059,20.059,0,0,0-5.219-4.31l-1.509-.789-1.569-.672-1.618-.562c-.269-.088-.53-.149-.8-.226s-.539-.11-.808-.169a13.691,13.691,0,0,0-3.325-.142,19.066,19.066,0,0,0-3.347.535,32.384,32.384,0,0,0-6.454,2.425,48.048,48.048,0,0,0-6.016,3.538l-.01.007a.3.3,0,0,1-.364-.464Z" transform="translate(-499.293 -1139.558)" fill="#dce5fe"/>
        </g>
      </g>
      <g id="Grupo_947050" data-name="Grupo 947050" transform="translate(312.167 256.86)">
        <path id="Trazado_627403" data-name="Trazado 627403" d="M918.881,259.261a7.922,7.922,0,0,0-5.686-2.4l-162.266.1a7.922,7.922,0,0,0-7.913,8.167L749.448,472.4a7.842,7.842,0,0,0,7.918,7.583H907.11a7.843,7.843,0,0,0,7.918-7.6l6.089-207.42A7.817,7.817,0,0,0,918.881,259.261Z" transform="translate(-743.012 -256.86)" fill="#12263f"/>
        <path id="Trazado_627404" data-name="Trazado 627404" d="M948.4,313.836a7.241,7.241,0,0,0-5.2-2.195l-148.312.087a7.24,7.24,0,0,0-7.233,7.464l5.879,189.428a7.161,7.161,0,0,0,7.237,6.923H937.643a7.161,7.161,0,0,0,7.237-6.935l5.566-189.562A7.133,7.133,0,0,0,948.4,313.836Z" transform="translate(-779.712 -301.893)" fill="url(#linear-gradient)"/>
        <g id="Grupo_947048" data-name="Grupo 947048" transform="translate(22.426 12.101)">
          <g id="Grupo_947038" data-name="Grupo 947038" transform="translate(48.193 0)">
            <circle id="Elipse_8221" data-name="Elipse 8221" cx="16.043" cy="16.043" r="16.043" transform="translate(0 31.66) rotate(-80.65)" fill="#294ddc"/>
            <circle id="Elipse_8222" data-name="Elipse 8222" cx="14.906" cy="14.906" r="14.906" transform="translate(2.358 31.611) rotate(-83.678)" fill="url(#linear-gradient-2)"/>
          </g>
          <g id="Grupo_947039" data-name="Grupo 947039" transform="translate(48.223 158.443)">
            <circle id="Elipse_8223" data-name="Elipse 8223" cx="16.043" cy="16.043" r="16.043" transform="translate(0 31.672) rotate(-80.783)" fill="#a8b8f7"/>
            <circle id="Elipse_8224" data-name="Elipse 8224" cx="14.906" cy="14.906" r="14.906" transform="matrix(0.109, -0.994, 0.994, 0.109, 2.341, 31.597)" fill="#294ddc"/>
          </g>
          <rect id="Rectángulo_341838" data-name="Rectángulo 341838" width="26.195" height="26.195" transform="translate(48.107 73.783) rotate(-44.859)" fill="#6aceae"/>
          <rect id="Rectángulo_341839" data-name="Rectángulo 341839" width="24.051" height="24.051" transform="matrix(0.709, -0.705, 0.705, 0.709, 49.623, 73.787)" fill="#e5fdf3"/>
          <g id="Grupo_947040" data-name="Grupo 947040" transform="translate(98.913 108.7)">
            <path id="Trazado_627405" data-name="Trazado 627405" d="M1458.653,945.983a10.232,10.232,0,0,1-10.232,10.232h-13.264a10.232,10.232,0,0,1-10.232-10.232h0a10.232,10.232,0,0,1,10.232-10.232h13.264a10.232,10.232,0,0,1,10.232,10.232Z" transform="translate(-1424.924 -935.751)" fill="#f3c035"/>
            <path id="Trazado_627406" data-name="Trazado 627406" d="M1462.767,949.484a9.411,9.411,0,0,1-9.414,9.474h-12.311a9.411,9.411,0,0,1-9.414-9.474h0a9.411,9.411,0,0,1,9.414-9.474h12.311a9.412,9.412,0,0,1,9.414,9.474Z" transform="translate(-1430.435 -939.252)" fill="#fff4d6"/>
          </g>
          <g id="Grupo_947041" data-name="Grupo 947041" transform="translate(50.025 108.7)">
            <path id="Trazado_627407" data-name="Trazado 627407" d="M1183.906,945.983a10.232,10.232,0,0,1-10.232,10.232h-13.264a10.232,10.232,0,0,1-10.232-10.232h0a10.232,10.232,0,0,1,10.232-10.232h13.264a10.232,10.232,0,0,1,10.232,10.232Z" transform="translate(-1150.177 -935.751)" fill="#f3c035"/>
            <path id="Trazado_627408" data-name="Trazado 627408" d="M1188.02,949.484a9.411,9.411,0,0,1-9.414,9.474H1166.3a9.411,9.411,0,0,1-9.414-9.474h0a9.412,9.412,0,0,1,9.414-9.474h12.311a9.412,9.412,0,0,1,9.414,9.474Z" transform="translate(-1155.688 -939.252)" fill="#fff4d6"/>
          </g>
          <g id="Grupo_947042" data-name="Grupo 947042" transform="translate(0 108.7)">
            <path id="Trazado_627409" data-name="Trazado 627409" d="M902.771,945.983a10.232,10.232,0,0,1-10.232,10.232H879.274a10.232,10.232,0,0,1-10.232-10.232h0a10.232,10.232,0,0,1,10.232-10.232h13.264a10.232,10.232,0,0,1,10.232,10.232Z" transform="translate(-869.042 -935.751)" fill="#f3c035"/>
            <path id="Trazado_627410" data-name="Trazado 627410" d="M906.884,949.484a9.411,9.411,0,0,1-9.414,9.474H885.159a9.411,9.411,0,0,1-9.414-9.474h0a9.411,9.411,0,0,1,9.414-9.474H897.47a9.411,9.411,0,0,1,9.414,9.474Z" transform="translate(-874.552 -939.252)" fill="#fff4d6"/>
          </g>
          <g id="Grupo_947043" data-name="Grupo 947043" transform="translate(64.301 36.126)">
            <path id="Trazado_627411" data-name="Trazado 627411" d="M1242.328,543.428a.568.568,0,0,1-.568-.569v-14.4a.568.568,0,1,1,1.137,0v14.4A.568.568,0,0,1,1242.328,543.428Z" transform="translate(-1239.741 -527.89)" fill="url(#linear-gradient-3)"/>
            <path id="Trazado_627412" data-name="Trazado 627412" d="M1235.067,599.239l-2.328,4.032-2.328-4.032Z" transform="translate(-1230.411 -586.544)" fill="url(#linear-gradient-4)"/>
          </g>
          <g id="Grupo_947044" data-name="Grupo 947044" transform="translate(64.301 93.352)">
            <path id="Trazado_627413" data-name="Trazado 627413" d="M1242.328,861.241a.568.568,0,0,1-.568-.568V850.062a.568.568,0,1,1,1.137,0v10.611A.568.568,0,0,1,1242.328,861.241Z" transform="translate(-1239.741 -849.493)" fill="#12263f"/>
            <path id="Trazado_627414" data-name="Trazado 627414" d="M1235.067,899.544l-2.328,4.032-2.328-4.032Z" transform="translate(-1230.411 -890.638)" fill="#12263f"/>
          </g>
          <g id="Grupo_947045" data-name="Grupo 947045" transform="translate(63.719 141.103)">
            <path id="Trazado_627415" data-name="Trazado 627415" d="M1238.068,1133.009a.568.568,0,0,1-.568-.569v-14.022a.568.568,0,1,1,1.137,0v14.022A.568.568,0,0,1,1238.068,1133.009Z" transform="translate(-1235.656 -1117.85)" fill="#12263f"/>
            <path id="Trazado_627416" data-name="Trazado 627416" d="M1231.792,1187.069l-2.328,4.032-2.328-4.032Z" transform="translate(-1227.136 -1174.752)" fill="#12263f"/>
          </g>
          <g id="Grupo_947046" data-name="Grupo 947046" transform="translate(12.382 73.076)">
            <path id="Trazado_627417" data-name="Trazado 627417" d="M950.543,763.782a.568.568,0,0,1-.568-.569v-27.1a.568.568,0,0,1,.568-.568h31.266a.568.568,0,1,1,0,1.137h-30.7v26.528A.568.568,0,0,1,950.543,763.782Z" transform="translate(-947.956 -735.548)" fill="#12263f"/>
            <path id="Trazado_627418" data-name="Trazado 627418" d="M943.282,888.895l-2.328,4.032-2.328-4.032Z" transform="translate(-938.626 -861.608)" fill="#12263f"/>
          </g>
          <g id="Grupo_947047" data-name="Grupo 947047" transform="translate(87.354 73.076)">
            <path id="Trazado_627419" data-name="Trazado 627419" d="M1391.8,763.782a.568.568,0,0,1-.568-.569V736.685h-30.7a.568.568,0,0,1,0-1.137H1391.8a.568.568,0,0,1,.569.568v27.1A.568.568,0,0,1,1391.8,763.782Z" transform="translate(-1359.965 -735.548)" fill="#12263f"/>
            <path id="Trazado_627420" data-name="Trazado 627420" d="M1526.152,888.895l2.328,4.032,2.328-4.032Z" transform="translate(-1496.581 -861.608)" fill="#12263f"/>
          </g>
          <path id="Trazado_627421" data-name="Trazado 627421" d="M1052.632,1071.525H948.413a.568.568,0,0,1-.568-.568v-10.043a.568.568,0,1,1,1.137,0v9.474h103.082v-9.474a.568.568,0,1,1,1.137,0v10.043A.568.568,0,0,1,1052.632,1071.525Z" transform="translate(-933.823 -929.475)" fill="#12263f"/>
        </g>
        <g id="Grupo_947049" data-name="Grupo 947049" transform="translate(17.12 19.235)">
          <rect id="Rectángulo_341840" data-name="Rectángulo 341840" width="43.961" height="4.927" rx="2.463" fill="#636363"/>
          <rect id="Rectángulo_341841" data-name="Rectángulo 341841" width="43.961" height="4.927" rx="2.463" transform="translate(0 10.99)" fill="#636363"/>
        </g>
      </g>
      <g id="Grupo_947053" data-name="Grupo 947053" transform="translate(447.614 270.311)">
        <g id="Grupo_947051" data-name="Grupo 947051" transform="translate(18.505 10.751)">
          <path id="Trazado_627422" data-name="Trazado 627422" d="M1628.085,435.939a.894.894,0,0,1-.834-.573l-1.313-3.41a17.811,17.811,0,0,1-4.833-1.806l-3.229,1.717a.9.9,0,0,1-1.029-.135l-3.482-3.244a.894.894,0,0,1-.208-1.017l1.484-3.342a17.821,17.821,0,0,1-2.143-4.693L1609,418.367a.9.9,0,0,1-.632-.823l-.168-4.756a.894.894,0,0,1,.572-.866l3.41-1.313a17.826,17.826,0,0,1,1.806-4.833l-1.717-3.228a.894.894,0,0,1,.135-1.03l3.244-3.482a.9.9,0,0,1,1.018-.208l3.341,1.484a17.829,17.829,0,0,1,4.693-2.143l1.068-3.494a.894.894,0,0,1,.824-.632l4.755-.168a.894.894,0,0,1,.866.572l1.313,3.41a17.813,17.813,0,0,1,4.833,1.806l3.228-1.717a.9.9,0,0,1,1.03.135l3.482,3.244a.9.9,0,0,1,.208,1.017l-1.484,3.342a17.822,17.822,0,0,1,2.144,4.693l3.494,1.068a.894.894,0,0,1,.632.824l.168,4.755a.9.9,0,0,1-.573.866l-3.41,1.312a17.814,17.814,0,0,1-1.806,4.833l1.717,3.229a.894.894,0,0,1-.136,1.03l-3.243,3.482a.9.9,0,0,1-1.018.208l-3.342-1.484a17.821,17.821,0,0,1-4.693,2.143l-1.068,3.494a.9.9,0,0,1-.824.632l-4.755.168Zm-6.962-7.087.272.156a16.685,16.685,0,0,0,5.072,1.9l.308.061,1.474,3.831,4.41-.156,1.2-3.926.3-.082a16.69,16.69,0,0,0,4.925-2.249l.26-.175,3.754,1.667,3.008-3.229-1.929-3.627.156-.272a16.69,16.69,0,0,0,1.9-5.072l.061-.308,3.831-1.475-.156-4.41-3.926-1.2-.082-.3a16.691,16.691,0,0,0-2.25-4.925l-.175-.26,1.667-3.754-3.228-3.008-3.627,1.928-.272-.156a16.691,16.691,0,0,0-5.072-1.9l-.308-.061-1.475-3.831-4.41.156-1.2,3.926-.3.082a16.691,16.691,0,0,0-4.925,2.249l-.26.175-3.755-1.667-3.008,3.229,1.929,3.627-.156.272a16.687,16.687,0,0,0-1.9,5.072l-.061.308-3.832,1.475.156,4.41,3.926,1.2.082.3a16.69,16.69,0,0,0,2.25,4.925l.175.261-1.667,3.754,3.229,3.008Zm8.523-2.458a12.05,12.05,0,1,1,12.053-12.477,12.125,12.125,0,0,1-.18,2.559.568.568,0,0,1-1.119-.2,11,11,0,0,0,.163-2.319,10.908,10.908,0,1,0-4.975,9.549.568.568,0,0,1,.619.954,12.033,12.033,0,0,1-6.124,1.926Q1629.864,426.395,1629.646,426.395Z" transform="translate(-1608.204 -392.875)" fill="#91b3fa"/>
          <path id="Trazado_627423" data-name="Trazado 627423" d="M1707.06,496.53a4.794,4.794,0,1,1,4.6-6.131h0a4.8,4.8,0,0,1-4.6,6.131Zm0-8.451a3.657,3.657,0,1,0,3.513,2.637h0A3.664,3.664,0,0,0,1707.056,488.079Z" transform="translate(-1685.525 -470.203)" fill="#91b3fa"/>
        </g>
        <g id="Grupo_947052" data-name="Grupo 947052">
          <path id="Trazado_627424" data-name="Trazado 627424" d="M1516.788,353.363a.726.726,0,0,1-.572-.279l-.984-1.262a8.878,8.878,0,0,1-2.244-.142l-1.134,1.13a.725.725,0,0,1-.831.137l-2.055-1.006a.725.725,0,0,1-.4-.741l.2-1.588a8.861,8.861,0,0,1-1.488-1.686l-1.6,0a.726.726,0,0,1-.685-.49l-.742-2.165a.725.725,0,0,1,.24-.807l1.262-.983a8.855,8.855,0,0,1,.141-2.244l-1.13-1.134a.725.725,0,0,1-.138-.83l1.006-2.056a.727.727,0,0,1,.742-.4l1.588.2a8.881,8.881,0,0,1,1.686-1.488l0-1.6a.726.726,0,0,1,.491-.685l2.165-.742a.726.726,0,0,1,.807.239L1514.1,334a8.869,8.869,0,0,1,2.244.142l1.134-1.13a.727.727,0,0,1,.831-.137l2.055,1.006a.726.726,0,0,1,.4.74l-.2,1.589a8.867,8.867,0,0,1,1.488,1.686l1.6,0a.726.726,0,0,1,.684.491l.741,2.165a.725.725,0,0,1-.24.807l-1.262.983a8.865,8.865,0,0,1-.141,2.244l1.13,1.134a.725.725,0,0,1,.138.831l-1.006,2.056a.725.725,0,0,1-.74.4l-1.589-.2a8.868,8.868,0,0,1-1.686,1.488l0,1.6a.726.726,0,0,1-.491.685l-2.165.741A.718.718,0,0,1,1516.788,353.363Zm-.133-1.115h0Zm-.908-1.615,1.185,1.52,1.61-.551,0-1.927.266-.167a7.737,7.737,0,0,0,1.881-1.66l.2-.243,1.914.237.748-1.528-1.361-1.366.07-.306a7.726,7.726,0,0,0,.158-2.5l-.031-.312,1.52-1.185-.552-1.61-1.927,0-.167-.266a7.742,7.742,0,0,0-1.66-1.881l-.243-.2.237-1.913-1.528-.748-1.366,1.361-.306-.07a7.708,7.708,0,0,0-2.5-.158l-.312.031-1.185-1.52-1.61.552,0,1.927-.266.167a7.736,7.736,0,0,0-1.881,1.66l-.2.243-1.914-.237-.748,1.528,1.361,1.366-.07.306a7.726,7.726,0,0,0-.158,2.5l.031.312-1.52,1.185.552,1.61,1.927,0,.167.266a7.728,7.728,0,0,0,1.66,1.881l.243.2-.237,1.914,1.528.748,1.366-1.361.306.07a7.736,7.736,0,0,0,2.5.158Zm-4.225,1.293h0Zm-1.827-.587h0Zm14.064-4.818h0Zm-.11-7.49h0Zm-17.417-1.091h0Zm11.573-4.049h0Zm-3.181,15.091a6.087,6.087,0,1,1,6.045-6.8.568.568,0,1,1-1.129.133,4.953,4.953,0,1,0-1.137,3.775.568.568,0,1,1,.869.733,6.1,6.1,0,0,1-4.648,2.16Z" transform="translate(-1504.21 -332.455)" fill="#91b3fa"/>
        </g>
      </g>
      <g id="Grupo_947057" data-name="Grupo 947057" transform="translate(238.537 281.191)">
        <g id="Grupo_947055" data-name="Grupo 947055" transform="translate(0 0)">
          <path id="Trazado_627425" data-name="Trazado 627425" d="M351.041,461.712a4.525,4.525,0,0,1-5.966-2.315l-15.524-35.211a3.987,3.987,0,0,1,1.856-5.17l49.9-25.106A2.94,2.94,0,0,1,385.3,395.3l18.526,40.033a2.791,2.791,0,0,1-1.407,3.725Z" transform="translate(-329.212 -393.596)" fill="#12263f"/>
          <g id="Grupo_947054" data-name="Grupo 947054" transform="translate(1.439 3.004)">
            <path id="Trazado_627426" data-name="Trazado 627426" d="M353.064,474.183a1.315,1.315,0,0,1-1.8-.835c-1.468-5.1-6.741-22.52-13.818-35.728a1.216,1.216,0,0,1,.521-1.66l50.076-25.333a1.4,1.4,0,0,1,1.876.609c2.875,5.6,14.63,28.7,17.469,37.535a1.108,1.108,0,0,1-.6,1.35Z" transform="translate(-337.3 -410.476)" fill="#b0c0d2"/>
            <path id="Trazado_627427" data-name="Trazado 627427" d="M361.624,478.9a1.265,1.265,0,0,1-1.733-.8c-1.413-4.9-6.487-21.672-13.3-34.382a1.17,1.17,0,0,1,.5-1.6l48.19-24.379a1.346,1.346,0,0,1,1.806.586c2.767,5.389,14.079,27.618,16.812,36.121a1.067,1.067,0,0,1-.581,1.3Z" transform="translate(-344.825 -416.325)" fill="#f3f9ff"/>
          </g>
          <path id="Trazado_627428" data-name="Trazado 627428" d="M361.313,511.584l-.469.207a1.01,1.01,0,0,1-1.331-.517l-3.025-6.861a1.01,1.01,0,0,1,.191-1.1l.8-.847a1.01,1.01,0,0,1,1.683.354l2.691,7.5A1.01,1.01,0,0,1,361.313,511.584Z" transform="translate(-351.563 -482.833)" fill="url(#linear-gradient-5)"/>
          <path id="Trazado_627429" data-name="Trazado 627429" d="M414.157,484.837l-.469.207a1.01,1.01,0,0,1-1.331-.517l-3.025-6.861a1.01,1.01,0,0,1,.191-1.1l.8-.847a1.01,1.01,0,0,1,1.683.354l2.691,7.5A1.01,1.01,0,0,1,414.157,484.837Z" transform="translate(-395.004 -460.845)" fill="url(#linear-gradient-6)"/>
          <path id="Trazado_627430" data-name="Trazado 627430" d="M486.312,453.024l-.469.207a1.01,1.01,0,0,1-1.331-.517l-3.025-6.862a1.009,1.009,0,0,1,.191-1.1l.8-.847a1.01,1.01,0,0,1,1.683.354l2.691,7.5A1.01,1.01,0,0,1,486.312,453.024Z" transform="translate(-454.32 -434.693)" fill="url(#linear-gradient-7)"/>
          <path id="Trazado_627431" data-name="Trazado 627431" d="M556.747,417.31l-.469.207a1.01,1.01,0,0,1-1.331-.517l-3.025-6.862a1.01,1.01,0,0,1,.192-1.1l.8-.847a1.01,1.01,0,0,1,1.683.354l2.691,7.5A1.01,1.01,0,0,1,556.747,417.31Z" transform="translate(-512.223 -405.334)" fill="url(#linear-gradient-8)"/>
          <path id="Trazado_627432" data-name="Trazado 627432" d="M528.2,513.416l1.569,3.558a1.063,1.063,0,0,0,1.416.537l3.623-1.665a1.063,1.063,0,0,0,.529-1.394l-1.649-3.74a1.063,1.063,0,0,0-1.464-.514l-3.543,1.848A1.063,1.063,0,0,0,528.2,513.416Z" transform="translate(-492.721 -489.35)" fill="url(#linear-gradient)"/>
          <path id="Trazado_627433" data-name="Trazado 627433" d="M456.224,555.362l3.623-1.665a1.063,1.063,0,0,0,.529-1.395l-1.4-3.181a1.063,1.063,0,0,0-1.456-.518l-3.556,1.817a1.063,1.063,0,0,0-.489,1.375l1.336,3.03A1.063,1.063,0,0,0,456.224,555.362Z" transform="translate(-431.287 -520.925)" fill="url(#linear-gradient)"/>
          <path id="Trazado_627434" data-name="Trazado 627434" d="M509.194,666.536l-3.453,1.57a1.16,1.16,0,0,0-.581,1.524l1.433,3.251a1.16,1.16,0,0,0,1.507.6l3.5-1.457a1.16,1.16,0,0,0,.616-1.539l-1.483-3.364A1.16,1.16,0,0,0,509.194,666.536Z" transform="translate(-473.771 -617.883)" fill="url(#linear-gradient)"/>
          <path id="Trazado_627435" data-name="Trazado 627435" d="M473.952,687.6l-1.4-3.178a1.14,1.14,0,0,0-1.515-.578l-3.489,1.587a1.14,1.14,0,0,0-.571,1.5l1.351,3.064a1.14,1.14,0,0,0,1.481.593l3.54-1.472A1.14,1.14,0,0,0,473.952,687.6Z" transform="translate(-442.382 -632.113)" fill="url(#linear-gradient)"/>
          <path id="Trazado_627436" data-name="Trazado 627436" d="M439.6,609.347l-1.15-2.609a1.227,1.227,0,0,0-1.643-.616l-3.314,1.553a1.227,1.227,0,0,0-.6,1.606l1.1,2.494a1.227,1.227,0,0,0,1.6.633l3.365-1.438A1.227,1.227,0,0,0,439.6,609.347Z" transform="translate(-414.354 -568.21)" fill="url(#linear-gradient)"/>
          <path id="Trazado_627437" data-name="Trazado 627437" d="M455.5,645.815l-1.759-3.991a1.14,1.14,0,0,0-1.491-.588l-3.444,1.471a1.227,1.227,0,0,0-.641,1.623l1.775,4.025a1.14,1.14,0,0,0,1.525.573l3.474-1.62A1.14,1.14,0,0,0,455.5,645.815Z" transform="translate(-426.909 -597.096)" fill="url(#linear-gradient)"/>
          <path id="Trazado_627438" data-name="Trazado 627438" d="M493.725,536.549l3.623-1.665a1.063,1.063,0,0,0,.529-1.395l-1.528-3.465a1.063,1.063,0,0,0-1.456-.518l-3.556,1.817a1.063,1.063,0,0,0-.489,1.375l1.461,3.314A1.063,1.063,0,0,0,493.725,536.549Z" transform="translate(-462.012 -505.226)" fill="url(#linear-gradient)"/>
          <path id="Trazado_627439" data-name="Trazado 627439" d="M493.826,629.14l-1.646-3.733a1.16,1.16,0,0,0-1.517-.6l-3.488,1.49a1.16,1.16,0,0,0-.606,1.535l1.7,3.846a1.16,1.16,0,0,0,1.551.583l3.438-1.6A1.16,1.16,0,0,0,493.826,629.14Z" transform="translate(-458.488 -583.59)" fill="url(#linear-gradient)"/>
          <path id="Trazado_627440" data-name="Trazado 627440" d="M512.536,569.852l-3.943,1.848a.88.88,0,0,0-.432,1.151l1.582,3.589a.88.88,0,0,0,1.151.454l4-1.71a.88.88,0,0,0,.459-1.164l-1.643-3.727A.88.88,0,0,0,512.536,569.852Z" transform="translate(-476.258 -538.42)" fill="url(#linear-gradient)"/>
          <path id="Trazado_627441" data-name="Trazado 627441" d="M546.527,555.62l1.507,3.418a1.106,1.106,0,0,0,1.446.571l3.588-1.533a1.106,1.106,0,0,0,.577-1.463l-1.561-3.542a1.106,1.106,0,0,0-1.481-.555l-3.534,1.656A1.106,1.106,0,0,0,546.527,555.62Z" transform="translate(-507.781 -524.153)" fill="url(#linear-gradient)"/>
          <path id="Trazado_627442" data-name="Trazado 627442" d="M472.838,594.446l4-1.71a.88.88,0,0,0,.459-1.164l-1.539-3.491a.88.88,0,0,0-1.178-.442l-3.943,1.848a.88.88,0,0,0-.432,1.152l1.479,3.353A.88.88,0,0,0,472.838,594.446Z" transform="translate(-445.058 -553.043)" fill="url(#linear-gradient)"/>
          <path id="Trazado_627443" data-name="Trazado 627443" d="M529.2,608.346l-3.488,1.49a1.16,1.16,0,0,0-.606,1.534l1.6,3.623a1.16,1.16,0,0,0,1.552.583l3.438-1.6a1.16,1.16,0,0,0,.571-1.519l-1.548-3.51A1.16,1.16,0,0,0,529.2,608.346Z" transform="translate(-490.168 -570.057)" fill="url(#linear-gradient)"/>
          <path id="Trazado_627444" data-name="Trazado 627444" d="M567.66,591.642l-3.732,1.594a1.027,1.027,0,0,0-.536,1.359L565,598.243a1.027,1.027,0,0,0,1.374.517l3.679-1.716a1.027,1.027,0,0,0,.506-1.345L569,592.172A1.027,1.027,0,0,0,567.66,591.642Z" transform="translate(-521.65 -556.334)" fill="url(#linear-gradient)"/>
          <path id="Trazado_627445" data-name="Trazado 627445" d="M419.63,574.107l2.75-1.264a1.474,1.474,0,0,0,.733-1.933l-1.008-2.285a1.313,1.313,0,0,0-1.8-.64l-3,1.534a1.442,1.442,0,0,0-.664,1.866l.841,1.908A1.611,1.611,0,0,0,419.63,574.107Z" transform="translate(-400.984 -536.835)" fill="url(#linear-gradient)"/>
          <path id="Trazado_627446" data-name="Trazado 627446" d="M442.429,701.98a1.226,1.226,0,0,0-1.63-.622l-1.2.546a1.7,1.7,0,0,0-1.038,2.124l.974,2.209a1.691,1.691,0,0,0,2.249.675l1.308-.544a1.14,1.14,0,0,0,.605-1.513Z" transform="translate(-419.013 -646.504)" fill="url(#linear-gradient)"/>
          <path id="Trazado_627447" data-name="Trazado 627447" d="M660.695,599.526l-2.36,1.073a1.161,1.161,0,0,0-.582,1.525l1.825,4.139a1.161,1.161,0,0,0,1.508.6l2.385-.992a1.709,1.709,0,0,0,1.1-2.153l-1.565-3.55A1.705,1.705,0,0,0,660.695,599.526Z" transform="translate(-599.211 -562.724)" fill="url(#linear-gradient)"/>
          <path id="Trazado_627448" data-name="Trazado 627448" d="M423.217,664.7l1.166-.544a1.227,1.227,0,0,0,.6-1.607L423.2,658.49a1.227,1.227,0,0,0-1.6-.633l-1.192.509a1.705,1.705,0,0,0-1.085,2.145l1.565,3.55A1.709,1.709,0,0,0,423.217,664.7Z" transform="translate(-403.194 -610.753)" fill="url(#linear-gradient)"/>
          <path id="Trazado_627449" data-name="Trazado 627449" d="M407.5,628.571l1.491-.637a.928.928,0,0,0,.484-1.228l-1.292-2.93a.928.928,0,0,0-1.243-.466l-1.481.694a1.69,1.69,0,0,0-1.015,2.114l.787,1.786A1.7,1.7,0,0,0,407.5,628.571Z" transform="translate(-390.969 -582.363)" fill="url(#linear-gradient)"/>
          <path id="Trazado_627450" data-name="Trazado 627450" d="M605.759,474.846l-2.317,1.184a1.106,1.106,0,0,0-.509,1.431l1.8,4.088a1.106,1.106,0,0,0,1.474.559l2.432-1.118a1.693,1.693,0,0,0,1.03-2.121l-1.508-3.42A1.724,1.724,0,0,0,605.759,474.846Z" transform="translate(-554.15 -460.193)" fill="url(#linear-gradient)"/>
          <path id="Trazado_627451" data-name="Trazado 627451" d="M547.342,649.19l-3.453,1.57a1.16,1.16,0,0,0-.581,1.524l1.531,3.473a1.16,1.16,0,0,0,1.507.6l3.5-1.457a1.16,1.16,0,0,0,.616-1.539l-1.581-3.587A1.16,1.16,0,0,0,547.342,649.19Z" transform="translate(-505.13 -603.624)" fill="url(#linear-gradient)"/>
          <path id="Trazado_627452" data-name="Trazado 627452" d="M625.362,519.5l-2.386,1.118a1.106,1.106,0,0,0-.542,1.447l1.715,3.889a1.106,1.106,0,0,0,1.446.571l2.435-1.04a1.7,1.7,0,0,0,1.084-2.145l-1.413-3.205A1.71,1.71,0,0,0,625.362,519.5Z" transform="translate(-570.181 -496.93)" fill="url(#linear-gradient)"/>
          <path id="Trazado_627453" data-name="Trazado 627453" d="M643.532,561.179,641,562.26a1.027,1.027,0,0,0-.536,1.359l1.412,3.2a1.027,1.027,0,0,0,1.374.517l2.5-1.168a1.691,1.691,0,0,0,1.019-2.116l-.974-2.209A1.7,1.7,0,0,0,643.532,561.179Z" transform="translate(-585.009 -531.216)" fill="url(#linear-gradient)"/>
          <path id="Trazado_627454" data-name="Trazado 627454" d="M601.928,578.132l1.51,3.425a1.027,1.027,0,0,0,1.374.517l3.679-1.716a1.027,1.027,0,0,0,.506-1.345l-1.457-3.3a1.027,1.027,0,0,0-1.343-.53l-3.732,1.594A1.027,1.027,0,0,0,601.928,578.132Z" transform="translate(-553.329 -542.8)" fill="url(#linear-gradient)"/>
          <path id="Trazado_627455" data-name="Trazado 627455" d="M623.638,614.5l-3.451,1.569a1.161,1.161,0,0,0-.582,1.525l1.727,3.917a1.161,1.161,0,0,0,1.508.6l3.5-1.456a1.161,1.161,0,0,0,.616-1.54l-1.777-4.03A1.161,1.161,0,0,0,623.638,614.5Z" transform="translate(-567.851 -575.107)" fill="url(#linear-gradient)"/>
          <path id="Trazado_627456" data-name="Trazado 627456" d="M391.3,591.432l1.441-.663a.927.927,0,0,0,.461-1.217l-1.264-2.866a.928.928,0,0,0-1.271-.452l-1.5.765a1.675,1.675,0,0,0-.948,2.081l.754,1.709A1.707,1.707,0,0,0,391.3,591.432Z" transform="translate(-377.632 -551.873)" fill="url(#linear-gradient)"/>
          <path id="Trazado_627457" data-name="Trazado 627457" d="M585.584,631.846l-3.393,1.543a1.226,1.226,0,0,0-.614,1.61l1.6,3.636a1.161,1.161,0,0,0,1.508.6l3.5-1.456a1.161,1.161,0,0,0,.616-1.54l-1.678-3.807A1.161,1.161,0,0,0,585.584,631.846Z" transform="translate(-536.585 -589.366)" fill="url(#linear-gradient)"/>
          <path id="Trazado_627458" data-name="Trazado 627458" d="M565.558,494.35l1.677,3.8a1.106,1.106,0,0,0,1.474.559l3.545-1.63a1.106,1.106,0,0,0,.55-1.451l-1.743-3.953a1.106,1.106,0,0,0-1.515-.539l-3.48,1.778A1.106,1.106,0,0,0,565.558,494.35Z" transform="translate(-523.425 -473.684)" fill="url(#linear-gradient)"/>
          <path id="Trazado_627459" data-name="Trazado 627459" d="M584.48,537.833l1.611,3.654a1.106,1.106,0,0,0,1.446.571l3.588-1.533a1.106,1.106,0,0,0,.577-1.463l-1.665-3.777a1.106,1.106,0,0,0-1.481-.555l-3.534,1.656A1.105,1.105,0,0,0,584.48,537.833Z" transform="translate(-538.981 -509.531)" fill="url(#linear-gradient)"/>
          <path id="Trazado_627460" data-name="Trazado 627460" d="M383.5,567.937l.719,1.117a.864.864,0,0,0,1.076.323l.057-.025a.865.865,0,0,0,.443-1.14l-.544-1.233a.865.865,0,0,0-1.24-.39l-.232.141A.865.865,0,0,0,383.5,567.937Z" transform="translate(-373.724 -535.703)" fill="url(#linear-gradient)"/>
          <path id="Trazado_627461" data-name="Trazado 627461" d="M413.811,551.7l.719,1.117a.865.865,0,0,0,1.076.323l.057-.025a.865.865,0,0,0,.442-1.14l-.544-1.233a.865.865,0,0,0-1.24-.39l-.232.141A.864.864,0,0,0,413.811,551.7Z" transform="translate(-398.644 -522.352)" fill="url(#linear-gradient)"/>
          <path id="Trazado_627462" data-name="Trazado 627462" d="M452.346,534.362l.719,1.117a.865.865,0,0,0,1.076.323l.057-.025a.864.864,0,0,0,.442-1.14L454.1,533.4a.865.865,0,0,0-1.24-.39l-.232.141A.865.865,0,0,0,452.346,534.362Z" transform="translate(-430.322 -508.102)" fill="url(#linear-gradient)"/>
          <path id="Trazado_627463" data-name="Trazado 627463" d="M488.87,515.291l.719,1.117a.865.865,0,0,0,1.076.323l.057-.025a.865.865,0,0,0,.442-1.14l-.544-1.233a.865.865,0,0,0-1.24-.39l-.233.141A.865.865,0,0,0,488.87,515.291Z" transform="translate(-460.348 -492.425)" fill="url(#linear-gradient)"/>
          <path id="Trazado_627464" data-name="Trazado 627464" d="M524.913,492.546l.719,1.117a.865.865,0,0,0,1.076.323l.057-.025a.865.865,0,0,0,.442-1.14l-.544-1.233a.865.865,0,0,0-1.24-.39l-.232.141A.865.865,0,0,0,524.913,492.546Z" transform="translate(-489.977 -473.727)" fill="url(#linear-gradient)"/>
          <path id="Trazado_627465" data-name="Trazado 627465" d="M565.9,474.474l.719,1.117a.865.865,0,0,0,1.076.323l.057-.025a.865.865,0,0,0,.442-1.14l-.544-1.233a.865.865,0,0,0-1.24-.39l-.233.141A.865.865,0,0,0,565.9,474.474Z" transform="translate(-523.674 -458.87)" fill="url(#linear-gradient)"/>
          <path id="Trazado_627466" data-name="Trazado 627466" d="M599.829,457.775l.719,1.117a.865.865,0,0,0,1.076.323l.057-.025a.865.865,0,0,0,.442-1.14l-.544-1.233a.865.865,0,0,0-1.24-.39l-.232.141A.865.865,0,0,0,599.829,457.775Z" transform="translate(-551.562 -445.143)" fill="url(#linear-gradient)"/>
          <path id="Trazado_627467" data-name="Trazado 627467" d="M566.508,568.537a.32.32,0,0,0-.582.013,4.6,4.6,0,0,0-.24,2.262c.026.9.068,1.79.15,2.682a23.022,23.022,0,0,0,.424,2.8,19.5,19.5,0,0,0-2.7-2.252c-.259-.176-.6.158-.387.41,1.26,1.464,2.613,2.842,3.849,4.327a.583.583,0,0,0,.98-.6,21.17,21.17,0,0,1-1.04-5.055c-.073-.823-.111-1.649-.136-2.476A4.519,4.519,0,0,0,566.508,568.537Z" transform="translate(-521.489 -537.26)" fill="#6aceae"/>
          <path id="Trazado_627468" data-name="Trazado 627468" d="M552.89,573.656a.42.42,0,0,0,.122.831,4.846,4.846,0,0,1,4.561,6.625,16.379,16.379,0,0,1-2.371,4.161,7.91,7.91,0,0,1-3.623,3c-3.546,1.24-5.615-1.993-5.843-5.126a10.5,10.5,0,0,1,3.057-8.1c.273-.276-.105-.754-.387-.475a11.853,11.853,0,0,0-3.473,7.431c-.21,2.582.435,5.786,2.912,7.125,2.563,1.385,5.569.029,7.408-1.9,2.023-2.127,4.266-5.369,4.031-8.445C559.039,575.56,556.2,572.805,552.89,573.656Z" transform="translate(-506.518 -541.488)" fill="#6aceae"/>
          <path id="Trazado_627469" data-name="Trazado 627469" d="M443.263,583.718a6.845,6.845,0,0,0-1.4-2.242c-.221-.2-.513.059-.5.3a6.66,6.66,0,0,0,.791,2.224c.155.34.361.707.552,1.083-.926-.993-2.16-2.147-3.611-2.1-1.487.049-2.661,1.176-3.573,2.24-2.141,2.5-3.176,5.709-5.007,8.412-1.1,1.626-2.959,3.344-4.874,1.757-1.355-1.123-1.936-3.243-2.107-4.926a11.951,11.951,0,0,1,2.932-8.948c.154-.178-.132-.453-.3-.286a11.445,11.445,0,0,0-3.374,8.286c.012,2.583.84,6.754,3.837,7.43,3.266.737,5.285-3.443,6.506-5.758a32.756,32.756,0,0,1,2.814-4.791,6.312,6.312,0,0,1,2.432-2.166c1.386-.541,2.576.707,3.409,1.655a.64.64,0,0,0,1.1-.421,4.588,4.588,0,0,1,.226.6c-1.048.435-2.462.039-3.332.874a.208.208,0,0,0,.107.364c1.18.137,3.076.229,4.12-.4a.611.611,0,0,0,.34-.615A9.234,9.234,0,0,0,443.263,583.718Z" transform="translate(-406.137 -547.803)" fill="#12263f"/>
        </g>
        <g id="Grupo_947056" data-name="Grupo 947056" transform="translate(49.773 8.4)">
          <path id="Trazado_627470" data-name="Trazado 627470" d="M609.779,514.13a.844.844,0,0,0,.582-.232l11.5-10.893a5.34,5.34,0,0,1,3.687-1.469h39.141a.847.847,0,1,0,0-1.694H625.548a7.027,7.027,0,0,0-4.852,1.933l-11.5,10.893a.847.847,0,0,0,.583,1.462Z" transform="translate(-608.931 -489.337)" fill="#12263f"/>
          <path id="Trazado_627471" data-name="Trazado 627471" d="M732.177,472.016h33.131a.847.847,0,1,0,0-1.694H732.177a.847.847,0,0,0,0,1.694Z" transform="translate(-709.551 -465.069)" fill="#12263f"/>
          <path id="Trazado_627472" data-name="Trazado 627472" d="M762.472,442.5h27.741a.847.847,0,1,0,0-1.694H762.472a.847.847,0,1,0,0,1.694Z" transform="translate(-734.455 -440.802)" fill="#12263f"/>
        </g>
      </g>
      <g id="Grupo_947059" data-name="Grupo 947059" transform="translate(423.754 361.546)">
        <path id="Trazado_627473" data-name="Trazado 627473" d="M1370.713,898.009a.877.877,0,0,1,.168-1.7c4.185-.543,10.319-2.181,12.328-7.092,3.152-7.7-3.377-37.412,26.617-42.727,27.667-4.9,43.077,3.852,42.727,29.418C1452.214,900.69,1412.389,912.309,1370.713,898.009Z" transform="translate(-1370.12 -845.188)" fill="#b0c0d2"/>
        <g id="Grupo_947058" data-name="Grupo 947058" transform="translate(21.304 8.364)">
          <rect id="Rectángulo_341842" data-name="Rectángulo 341842" width="2.684" height="21" transform="translate(47.526 38.012) rotate(180)" fill="#fff"/>
          <rect id="Rectángulo_341843" data-name="Rectángulo 341843" width="2.684" height="13.782" transform="translate(43.042 38.012) rotate(180)" fill="#fff"/>
          <rect id="Rectángulo_341844" data-name="Rectángulo 341844" width="2.684" height="31.619" transform="translate(38.558 38.012) rotate(180)" fill="#fff"/>
          <rect id="Rectángulo_341845" data-name="Rectángulo 341845" width="2.684" height="7.596" transform="translate(34.073 38.012) rotate(180)" fill="#fff"/>
          <rect id="Rectángulo_341846" data-name="Rectángulo 341846" width="2.684" height="27.392" transform="translate(29.589 38.012) rotate(180)" fill="#fff"/>
          <rect id="Rectángulo_341847" data-name="Rectángulo 341847" width="2.684" height="22.649" transform="translate(25.105 38.012) rotate(180)" fill="#fff"/>
          <rect id="Rectángulo_341848" data-name="Rectángulo 341848" width="2.684" height="17.494" transform="translate(20.621 38.012) rotate(180)" fill="#fff"/>
          <rect id="Rectángulo_341849" data-name="Rectángulo 341849" width="2.684" height="38.012" transform="translate(16.136 38.012) rotate(180)" fill="#fff"/>
          <rect id="Rectángulo_341850" data-name="Rectángulo 341850" width="2.684" height="33.991" transform="translate(11.652 38.012) rotate(180)" fill="#fff"/>
          <rect id="Rectángulo_341851" data-name="Rectángulo 341851" width="2.684" height="27.908" transform="translate(7.168 38.012) rotate(180)" fill="#fff"/>
          <rect id="Rectángulo_341852" data-name="Rectángulo 341852" width="2.684" height="6.891" transform="translate(2.684 38.012) rotate(180)" fill="#fff"/>
        </g>
      </g>
      <g id="Grupo_947071" data-name="Grupo 947071" transform="translate(422.535 397.164)">
        <g id="Grupo_947063" data-name="Grupo 947063" transform="translate(0 0)">
          <g id="Grupo_947060" data-name="Grupo 947060" transform="translate(0 38.695)">
            <path id="Trazado_627474" data-name="Trazado 627474" d="M1488.637,1491.185a21.437,21.437,0,0,0-.258,2.251.969.969,0,0,0,.874,1.023,42.946,42.946,0,0,0,8.551.12.441.441,0,0,0,.242-.759,13.65,13.65,0,0,0-8.006-3.4Z" transform="translate(-1466.115 -1449.92)" fill="url(#linear-gradient-44)"/>
            <path id="Trazado_627475" data-name="Trazado 627475" d="M1484.789,1477.213l.914,2.24a.746.746,0,0,0,.766.463,4.063,4.063,0,0,0,.747-.144.981.981,0,0,0,.652-1.22l-.69-2.308Z" transform="translate(-1463.166 -1438.268)" fill="url(#linear-gradient-45)"/>
            <path id="Trazado_627476" data-name="Trazado 627476" d="M1387.448,1504.754a9.592,9.592,0,0,1,2.543,3.5.835.835,0,0,1-.793,1.109h-3.766a.888.888,0,0,1-.878-1.039C1384.794,1506.964,1385.485,1504.76,1387.448,1504.754Z" transform="translate(-1380.755 -1461.705)" fill="url(#linear-gradient-46)"/>
            <path id="Trazado_627477" data-name="Trazado 627477" d="M1384.224,1492.263s.37,1.636.654,2.718a.346.346,0,0,0,.452.236,3.152,3.152,0,0,1,1.371-.249.267.267,0,0,0,.294-.266l.035-2.718Z" transform="translate(-1380.495 -1451.207)" fill="url(#linear-gradient-47)"/>
            <path id="Trazado_627478" data-name="Trazado 627478" d="M1376.731,1267.054l11.133,33.964s-2.135,1.4-3.153,1.34l-13.223-27.3s-2.314,16.818-1.193,28.893l-3.788.289s-6.159-30.856-1.494-41.425Z" transform="translate(-1363.268 -1262.82)" fill="#12263f"/>
            <path id="Trazado_627479" data-name="Trazado 627479" d="M1409.368,1313.137h-.013a.108.108,0,0,1-.094-.12l.432-3.429a.108.108,0,1,1,.214.027l-.432,3.429A.108.108,0,0,1,1409.368,1313.137Z" transform="translate(-1401.076 -1301.187)" fill="url(#linear-gradient-48)"/>
          </g>
          <path id="Trazado_627480" data-name="Trazado 627480" d="M1381.016,1118.656s-9.02.8-7.744,7.228a87.618,87.618,0,0,0-7.317,20.436.65.65,0,0,0,.527.772l15.021,2.572a.808.808,0,0,0,.919-.594l3.589-13.871,1.4,6.449,4.444-1.158-3.741-18.95S1387.592,1118.775,1381.016,1118.656Z" transform="translate(-1365.466 -1105.613)" fill="#727997"/>
          <path id="Trazado_627481" data-name="Trazado 627481" d="M1478.649,1180.545l-.024,0a.112.112,0,0,1-.085-.133l1.252-5.749a.112.112,0,1,1,.219.048l-1.252,5.749A.112.112,0,0,1,1478.649,1180.545Z" transform="translate(-1458.026 -1151.58)" fill="#12263f"/>
          <path id="Trazado_627482" data-name="Trazado 627482" d="M1436.686,1258.582a2.144,2.144,0,0,0-1.551-.2l-1.045.26a.379.379,0,0,1-.468-.325l-1.081-9.626a8.853,8.853,0,0,1-3.947.518l2.489,11.349h8.711Z" transform="translate(-1416.97 -1212.508)" fill="url(#linear-gradient-49)"/>
          <path id="Trazado_627483" data-name="Trazado 627483" d="M1507.512,1156.7l-.263-.875a1.731,1.731,0,0,0-1.012-1.107l-4.762-1.915s-.072-.611,1.006-1.026a1.432,1.432,0,0,0,.826-1.622s-1.473.672-3.629,1.737a5.045,5.045,0,0,0-2.292,2.495l-10.79,13.154,1.267.871a3.382,3.382,0,0,0,4.9-1.2l5.845-11.209A21.788,21.788,0,0,0,1507.512,1156.7Z" transform="translate(-1464.652 -1131.511)" fill="url(#linear-gradient-49)"/>
          <g id="Grupo_947062" data-name="Grupo 947062" transform="translate(15.698)">
            <path id="Trazado_627484" data-name="Trazado 627484" d="M1454.266,1083.75l-2.774,7.764s2.457,1.921,4.249,1.271l1.4-4.451S1456.071,1082.895,1454.266,1083.75Z" transform="translate(-1451.492 -1076.843)" fill="url(#linear-gradient-51)"/>
            <g id="Grupo_947061" data-name="Grupo 947061" transform="translate(1.971)">
              <path id="Trazado_627485" data-name="Trazado 627485" d="M1481.778,1061.363c0,.12-2.672,7.565-2.672,7.565l-4.219-1.616,1.484-7.433S1481.778,1059.36,1481.778,1061.363Z" transform="translate(-1472.695 -1057.245)" fill="url(#linear-gradient-52)"/>
              <path id="Trazado_627486" data-name="Trazado 627486" d="M1468.7,1049.8l-1.088,3.852a.554.554,0,0,0-.021.15c0,.314.077,1.4,1.178,1.248a5.029,5.029,0,0,1,2.494.033.559.559,0,0,1,.288.695,24.172,24.172,0,0,1-1.52,3.43.557.557,0,0,1-.717.229,18.006,18.006,0,0,1-3.617-2.128.559.559,0,0,1-.2-.537c.185-.985.736-3.982.76-4.841.023-.806-.882-1.422-1.28-1.653a.549.549,0,0,1-.259-.348,1.449,1.449,0,0,1,1.267-1.952.56.56,0,0,0,.454-.666,1.452,1.452,0,0,1,1.092-1.87,2.048,2.048,0,0,1,2.335.932.56.56,0,0,0,.693.185.442.442,0,0,1,.5.089.551.551,0,0,0,.806-.122,1.669,1.669,0,0,1,2.058-.68c1.906.617,1.815,2.814,1.116,4.009s-2.727.409-3.687-.383a2.39,2.39,0,0,0-2.333-.035A.554.554,0,0,0,1468.7,1049.8Z" transform="translate(-1464.284 -1045.357)" fill="url(#linear-gradient-53)"/>
              <path id="Trazado_627487" data-name="Trazado 627487" d="M1464.161,1075.492s1.128-2.134.382-2.8-2.01-.561-1.976,1.108C1462.609,1075.872,1464.161,1075.492,1464.161,1075.492Z" transform="translate(-1462.566 -1067.509)" fill="url(#linear-gradient-54)"/>
            </g>
          </g>
          <path id="Trazado_627488" data-name="Trazado 627488" d="M1412.865,1180.762a10.837,10.837,0,0,1-1.1-.052l-.08-.009-3.284-15.313a.112.112,0,1,1,.218-.047l3.25,15.154c.489.043,3.1.216,4.477-.76l-2.845-13.3.594-1.119a.112.112,0,0,1,.2.1l-.556,1.047,2.858,13.365-.057.043A6.52,6.52,0,0,1,1412.865,1180.762Z" transform="translate(-1400.366 -1143.919)" fill="#12263f"/>
        </g>
        <g id="Grupo_947064" data-name="Grupo 947064" transform="translate(16.103 51.829)">
          <path id="Trazado_627489" data-name="Trazado 627489" d="M1454.411,1372.465a.6.6,0,0,1-.255-.058.732.732,0,0,1-.339-.927l13.565-34.419a.628.628,0,0,1,.85-.37.732.732,0,0,1,.339.928l-13.565,34.419A.648.648,0,0,1,1454.411,1372.465Z" transform="translate(-1453.764 -1336.634)" fill="#727997"/>
          <path id="Trazado_627490" data-name="Trazado 627490" d="M1477.62,1372.465a.647.647,0,0,1-.594-.427l-13.565-34.419a.732.732,0,0,1,.338-.927.628.628,0,0,1,.85.37l13.565,34.419a.731.731,0,0,1-.339.927A.6.6,0,0,1,1477.62,1372.465Z" transform="translate(-1461.692 -1336.634)" fill="#727997"/>
          <path id="Trazado_627491" data-name="Trazado 627491" d="M1778.913,1372.465a.6.6,0,0,1-.255-.058.732.732,0,0,1-.339-.927l13.565-34.419a.628.628,0,0,1,.85-.37.732.732,0,0,1,.339.928l-13.565,34.419A.648.648,0,0,1,1778.913,1372.465Z" transform="translate(-1720.525 -1336.634)" fill="#727997"/>
          <path id="Trazado_627492" data-name="Trazado 627492" d="M1802.122,1372.465a.648.648,0,0,1-.594-.427l-13.565-34.419a.732.732,0,0,1,.339-.927.628.628,0,0,1,.85.37l13.565,34.419a.732.732,0,0,1-.339.927A.6.6,0,0,1,1802.122,1372.465Z" transform="translate(-1728.452 -1336.634)" fill="#727997"/>
        </g>
        <g id="Grupo_947065" data-name="Grupo 947065" transform="translate(57.642 60.581)">
          <rect id="Rectángulo_341853" data-name="Rectángulo 341853" width="1.604" height="17.345" transform="translate(7.752 3.886)" fill="url(#linear-gradient-55)"/>
          <path id="Trazado_627493" data-name="Trazado 627493" d="M1709.858,1502.189H1695.81v-.075a.969.969,0,0,1,.969-.969h12.035a1.044,1.044,0,0,1,1.044,1.044Z" transform="translate(-1694.28 -1480.624)" fill="url(#linear-gradient-56)"/>
          <rect id="Rectángulo_341854" data-name="Rectángulo 341854" width="17.662" height="5.009" rx="2.505" fill="url(#linear-gradient-57)"/>
        </g>
        <g id="Grupo_947066" data-name="Grupo 947066" transform="translate(33.642 49.645)">
          <path id="Trazado_627494" data-name="Trazado 627494" d="M1642.579,1342.663a13.961,13.961,0,0,0-5.063,2.16,1.336,1.336,0,0,0-.589,1.277,56.631,56.631,0,0,0,5.99,18.8,2.022,2.022,0,0,1,.194,1.388l-.756,3.517-1.4,1.314h3.61l2.4-6.5-1.028-.325a1.945,1.945,0,0,1-1.358-1.821l-.12-6.978a7.939,7.939,0,0,0-1.906-5.254l5.765-.28Z" transform="translate(-1621.866 -1339.406)" fill="url(#linear-gradient-58)"/>
          <path id="Trazado_627495" data-name="Trazado 627495" d="M1651.594,1471.6c-.329.43,3.538,1,5.493.057,0,0,2.708-4.712,2.708-7.139,0,0-.215-.495-1.805-.383,0,0-.91,5.58-1.87,6.2a3.832,3.832,0,0,1-2.687.063A5.652,5.652,0,0,0,1651.594,1471.6Z" transform="translate(-1633.915 -1439.252)" fill="#dee4f0"/>
          <path id="Trazado_627496" data-name="Trazado 627496" d="M1585.73,1354.48c-.031-.053-6.207-.743-6.207-.743a14.276,14.276,0,0,1-.43,4.463c-.632,2.585-9.7,13.786-9.7,13.786l.951,3.015a15.3,15.3,0,0,1-8.678.522l5.893-3.536s5.515-18.795,8.894-22.148l6.191-2.142Z" transform="translate(-1560.004 -1343.544)" fill="url(#linear-gradient-49)"/>
          <path id="Trazado_627497" data-name="Trazado 627497" d="M1668.182,1324.356s3.559,5.293,3.851,7.708-.975,3.4-4.709,3.557-13.7.159-13.7.159l-8.508-7.271s6.2-2.212,7.812-2.838S1668.182,1324.356,1668.182,1324.356Z" transform="translate(-1628.604 -1324.356)" fill="#6aceae"/>
          <path id="Trazado_627498" data-name="Trazado 627498" d="M1562.311,1495.44a1.741,1.741,0,0,1,.332,2.095s-8.11,1.438-10.312.785c0,0,.457-1.043,2.937-2.231l-.183.14a.3.3,0,0,0,.2.531A22.815,22.815,0,0,0,1562.311,1495.44Z" transform="translate(-1552.331 -1464.998)" fill="#dee4f0"/>
        </g>
        <g id="Grupo_947068" data-name="Grupo 947068" transform="translate(55.153 14.771)">
          <path id="Trazado_627499" data-name="Trazado 627499" d="M1709.523,1157.2c.538.167,2.476.863,2.226,2.11a.228.228,0,0,0,.285.262,3.592,3.592,0,0,1,3.824.925,2.247,2.247,0,0,1-.36,3.115.229.229,0,0,0,.192.388c1.536-.194,4.872-.24,5.418,2.885a3.121,3.121,0,0,1-2.723,3.968.228.228,0,0,0-.076.418,2.43,2.43,0,0,1,1.015,2.72c-.44,2.434-5.212,2.235-5.77,2.2a.226.226,0,0,1-.1-.03l-7.643-4.359a.231.231,0,0,1-.113-.16l-1.543-8.911a.23.23,0,0,1,.061-.2l5.074-5.274A.228.228,0,0,1,1709.523,1157.2Z" transform="translate(-1698.648 -1152.059)" fill="url(#linear-gradient-60)"/>
          <path id="Trazado_627500" data-name="Trazado 627500" d="M1686.7,1231.774a81.235,81.235,0,0,1-6.184-6.56,5.545,5.545,0,0,1-.939-4.991,68.793,68.793,0,0,1,2.737-6.893c.231-.775,4.878-.743,4.878-.743s9.144,5.934,12.736,15.987l-4.035,1.256a47.144,47.144,0,0,0-4.746-6.552s4.082,5.392,4.226,7.6Z" transform="translate(-1678.253 -1197.602)" fill="#dee4f0"/>
          <path id="Trazado_627501" data-name="Trazado 627501" d="M1692.863,1189.521c.049.161,1.261,4.182,1.356,4.265a6.788,6.788,0,0,0,3.867-.6l-2.048-4.288Z" transform="translate(-1689.368 -1178.125)" fill="url(#linear-gradient-61)"/>
          <g id="Grupo_947067" data-name="Grupo 947067" transform="translate(1.101)">
            <path id="Trazado_627502" data-name="Trazado 627502" d="M1683.8,1144.35a8.192,8.192,0,0,0-3.678,4.089c-1.489,3.164-.377,4.625,1.019,4.825a6.537,6.537,0,0,0,5.694-1.874C1689.041,1149.346,1686.643,1143.254,1683.8,1144.35Z" transform="translate(-1679.411 -1141.399)" fill="url(#linear-gradient-62)"/>
            <path id="Trazado_627503" data-name="Trazado 627503" d="M1694.883,1136.672s1.652-4.629-2.452-4.684l-.966.675s-1.506-2.566.966-3.791,5.364-.213,6.416,3.116,1.231,5.558-.518,7.152-2.471-.213-2.471-.213.953-1.49.565-2.287-1.283.165-1.283.165Z" transform="translate(-1688.947 -1128.37)" fill="url(#linear-gradient-63)"/>
            <path id="Trazado_627504" data-name="Trazado 627504" d="M1712.522,1170.678s.835-2.384,1.949-1.435-.906,2.2-1.7,2.608Z" transform="translate(-1706.63 -1161.787)" fill="url(#linear-gradient-64)"/>
          </g>
          <path id="Trazado_627505" data-name="Trazado 627505" d="M1673.222,1305.926l3.045-2.935,4.212,1.779s4.193.65,6.592,0l2.4-.65,5.423-1.688.852,2.407a1.449,1.449,0,0,1-.53,1.665,9.572,9.572,0,0,1-1.37.853c-.714.312-17.6-.216-17.6-.216Z" transform="translate(-1673.222 -1271.461)" fill="url(#linear-gradient-65)"/>
        </g>
        <g id="Grupo_947069" data-name="Grupo 947069" transform="translate(31.919 34.584)">
          <path id="Trazado_627506" data-name="Trazado 627506" d="M1652.543,1322.45h-.041l-17.662-.019a.791.791,0,0,1,0-1.581l17.662.019a.791.791,0,0,1,.039,1.58Z" transform="translate(-1617.786 -1306.414)" fill="#12263f"/>
          <path id="Trazado_627507" data-name="Trazado 627507" d="M1543.825,1239.717h14.709a2.8,2.8,0,0,1,2.536,1.608l6.8,14.419h-18.28a1.7,1.7,0,0,1-1.584-1.078l-5.273-13.343A1.175,1.175,0,0,1,1543.825,1239.717Z" transform="translate(-1542.65 -1239.717)" fill="#707070"/>
        </g>
        <g id="Grupo_947070" data-name="Grupo 947070" transform="translate(12.122 47.857)">
          <path id="Trazado_627508" data-name="Trazado 627508" d="M1458.59,1318.383h-17.383v-1.794h17.383C1458.218,1316.589,1458.218,1318.383,1458.59,1318.383Z" transform="translate(-1439.461 -1316.183)" fill="#91b3fa"/>
          <path id="Trazado_627509" data-name="Trazado 627509" d="M1433.318,1316.508a.178.178,0,0,1-.178-.178v-1.438a.178.178,0,0,1,.178-.178h17.557a.178.178,0,0,0,.178-.178v-.05a.178.178,0,0,0-.178-.178h-18.73a.751.751,0,0,0-.751.751v1.146a.708.708,0,0,0,.708.708h18.773a.178.178,0,0,0,.178-.178v-.05a.178.178,0,0,0-.178-.178Z" transform="translate(-1431.394 -1314.309)" fill="url(#linear-gradient-66)"/>
        </g>
        <path id="Trazado_627510" data-name="Trazado 627510" d="M1501.434,1329.709a.619.619,0,0,0-.166-.565.838.838,0,0,0-.607-.249H1421.11a.946.946,0,0,0-.763.363.7.7,0,0,0-.059.754l.862,1.62a1.23,1.23,0,0,0,1.1.609h77.87a.89.89,0,0,0,.9-.643Z" transform="translate(-1410.073 -1278.443)" fill="#b0c0d2"/>
      </g>
      <g id="Grupo_947079" data-name="Grupo 947079" transform="translate(247.806 355.161)">
        <g id="Grupo_947075" data-name="Grupo 947075" transform="translate(0 0)">
          <path id="Trazado_627511" data-name="Trazado 627511" d="M440.61,1006.487a2.015,2.015,0,0,1-.227-.013,1.963,1.963,0,0,1-1.727-2.175l12.328-107.279a1.964,1.964,0,1,1,3.9.449l-12.328,107.279A1.964,1.964,0,0,1,440.61,1006.487Z" transform="translate(-428.441 -879.981)" fill="#727997"/>
          <path id="Trazado_627512" data-name="Trazado 627512" d="M710.347,1006.486a1.965,1.965,0,0,1-1.914-1.535L684.379,897.672a1.964,1.964,0,1,1,3.833-.859l24.053,107.279a1.964,1.964,0,0,1-1.487,2.346A2,2,0,0,1,710.347,1006.486Z" transform="translate(-630.412 -879.98)" fill="#727997"/>
          <path id="Trazado_627513" data-name="Trazado 627513" d="M593.18,1257.51a1.964,1.964,0,0,1-1.964-1.964V1202.6a1.964,1.964,0,0,1,3.928,0v52.944A1.964,1.964,0,0,1,593.18,1257.51Z" transform="translate(-553.865 -1131.004)" fill="#727997"/>
          <path id="Trazado_627514" data-name="Trazado 627514" d="M381.319,814.563l6.9,86.97a3.475,3.475,0,0,0,3.549,3.2l72.117-1.759a3.475,3.475,0,0,0,3.347-4.02L453.43,812.232a3.475,3.475,0,0,0-3.512-2.928l-65.216,1.51A3.475,3.475,0,0,0,381.319,814.563Z" transform="translate(-381.308 -809.303)" fill="#12263f"/>
          <path id="Trazado_627515" data-name="Trazado 627515" d="M399.61,824.776l60.476-1.4A3.475,3.475,0,0,1,463.6,826.3l13.027,81.832a3.475,3.475,0,0,1-3.347,4.021l-66.987,1.634a3.475,3.475,0,0,1-3.549-3.2l-6.516-82.065A3.475,3.475,0,0,1,399.61,824.776Z" transform="translate(-393.563 -820.871)" fill="#fff"/>
          <g id="Grupo_947073" data-name="Grupo 947073" transform="translate(10.546 10.251)">
            <path id="Trazado_627516" data-name="Trazado 627516" d="M595.875,887.3a.547.547,0,0,1-.484-.8c.054-.1,5.444-10.336,10.191-19.295a.548.548,0,0,1,.739-.228,22.381,22.381,0,0,1,11.3,14.535.547.547,0,0,1-.4.661L596,887.287A.543.543,0,0,1,595.875,887.3Zm10.415-19.1c-3.778,7.132-7.892,14.935-9.366,17.733l19.5-4.7A21.287,21.287,0,0,0,606.289,868.207Z" transform="translate(-567.791 -866.914)" fill="#b0c0d2"/>
            <path id="Trazado_627517" data-name="Trazado 627517" d="M462.945,922.213a22.361,22.361,0,1,1,10.437-42.142.548.548,0,0,1,.228.74c-3.847,7.261-8.117,15.36-9.625,18.221l20.035-4.83a.547.547,0,0,1,.66.4,22.376,22.376,0,0,1-21.735,27.607Zm-.053-43.638A21.26,21.26,0,1,0,483.738,895.4l-20.673,4.984a.547.547,0,0,1-.612-.787c.053-.1,5.25-9.967,9.931-18.8a21.482,21.482,0,0,0-9.491-2.214Z" transform="translate(-440.572 -875.6)" fill="#b0c0d2"/>
            <path id="Trazado_627518" data-name="Trazado 627518" d="M482.383,937.448a18.155,18.155,0,1,1,3.4-35.988,18.417,18.417,0,0,1,2.1.531.137.137,0,0,1-.083.261,18.089,18.089,0,0,0-2.066-.523,17.881,17.881,0,1,0,14.205,20.92,17.992,17.992,0,0,0,.315-3.844.137.137,0,1,1,.273-.007,18.174,18.174,0,0,1-18.144,18.65Z" transform="translate(-460.012 -895.044)" fill="#b0c0d2"/>
            <g id="Grupo_947072" data-name="Grupo 947072" transform="translate(6.211 8.11)">
              <path id="Trazado_627519" data-name="Trazado 627519" d="M589.279,915.874a.135.135,0,0,1-.042-.006c-.258-.082-.521-.158-.781-.226a.137.137,0,0,1,.069-.265c.265.069.533.147.8.23a.137.137,0,0,1-.041.267Z" transform="translate(-568.269 -914.861)" fill="#b0c0d2"/>
              <path id="Trazado_627520" data-name="Trazado 627520" d="M491.65,944.785c-.376,0-.756-.013-1.129-.04a.137.137,0,0,1,.019-.273,15.773,15.773,0,0,0,1.6.031h0a.137.137,0,0,1,0,.273Q491.9,944.785,491.65,944.785Zm2.106-.14a.137.137,0,0,1-.018-.272,15.9,15.9,0,0,0,1.575-.293.137.137,0,1,1,.063.266,16.173,16.173,0,0,1-1.6.3Zm-4.829-.093-.023,0q-.152-.026-.3-.055c-.432-.083-.865-.184-1.286-.3a.137.137,0,1,1,.073-.264c.414.114.84.214,1.265.295q.149.029.3.054a.137.137,0,0,1-.023.272Zm7.968-.656a.137.137,0,0,1-.045-.266,16,16,0,0,0,1.484-.6.137.137,0,1,1,.116.248,16.292,16.292,0,0,1-1.509.614A.138.138,0,0,1,496.9,943.9Zm-11.078-.2a.136.136,0,0,1-.049-.009,16.113,16.113,0,0,1-1.487-.666.137.137,0,1,1,.124-.244,15.844,15.844,0,0,0,1.461.655.137.137,0,0,1-.049.264Zm14-1.161a.137.137,0,0,1-.07-.254c.457-.272.906-.571,1.333-.887a.137.137,0,1,1,.163.22c-.435.322-.891.626-1.356.9A.136.136,0,0,1,499.82,942.531Zm-16.876-.306a.135.135,0,0,1-.074-.022,16.186,16.186,0,0,1-1.321-.952.137.137,0,0,1,.171-.214,15.922,15.922,0,0,0,1.3.936.137.137,0,0,1-.074.252Zm19.469-1.614a.137.137,0,0,1-.092-.238,15.922,15.922,0,0,0,1.129-1.135.137.137,0,0,1,.2.183,16.217,16.217,0,0,1-1.149,1.154A.136.136,0,0,1,502.413,940.612Zm-21.987-.4a.136.136,0,0,1-.1-.039,16.253,16.253,0,0,1-1.1-1.2.137.137,0,1,1,.21-.175,15.969,15.969,0,0,0,1.085,1.177.137.137,0,0,1-.1.235Zm24.143-2a.137.137,0,0,1-.11-.218,15.79,15.79,0,0,0,.878-1.338.137.137,0,0,1,.236.138,16.107,16.107,0,0,1-.893,1.361A.136.136,0,0,1,504.569,938.213Zm-26.208-.483a.136.136,0,0,1-.114-.06c-.3-.449-.587-.918-.843-1.394a.137.137,0,1,1,.241-.13c.252.468.531.929.829,1.37a.137.137,0,0,1-.113.213Zm27.838-2.3a.14.14,0,0,1-.057-.012.137.137,0,0,1-.068-.181,15.808,15.808,0,0,0,.59-1.489.137.137,0,1,1,.259.088,16.114,16.114,0,0,1-.6,1.514A.137.137,0,0,1,506.2,935.43Zm-29.367-.541a.137.137,0,0,1-.126-.085,16.22,16.22,0,0,1-.548-1.535.137.137,0,0,1,.262-.079,15.963,15.963,0,0,0,.538,1.509.137.137,0,0,1-.126.189Zm30.4-2.514a.135.135,0,0,1-.031,0,.137.137,0,0,1-.1-.164c.045-.2.087-.4.125-.595.062-.325.115-.656.157-.982a.137.137,0,0,1,.271.035c-.042.332-.1.668-.159,1-.039.2-.082.406-.128.6A.137.137,0,0,1,507.236,932.375ZM475.9,931.8a.137.137,0,0,1-.134-.111,16.1,16.1,0,0,1-.227-1.614.137.137,0,1,1,.273-.024,15.8,15.8,0,0,0,.223,1.586.137.137,0,0,1-.109.16Zm-.286-3.214h0a.137.137,0,0,1-.135-.138,16.255,16.255,0,0,1,.1-1.626.137.137,0,0,1,.272.031,15.96,15.96,0,0,0-.1,1.6A.137.137,0,0,1,475.617,928.584Zm.365-3.206a.13.13,0,0,1-.029,0,.137.137,0,0,1-.1-.163c.115-.53.257-1.059.423-1.572a.137.137,0,0,1,.26.084c-.163.5-.3,1.025-.416,1.546A.137.137,0,0,1,475.982,925.378Zm.993-3.069a.134.134,0,0,1-.055-.012.137.137,0,0,1-.07-.18,16.15,16.15,0,0,1,.731-1.456.137.137,0,0,1,.238.135,15.83,15.83,0,0,0-.718,1.431A.136.136,0,0,1,476.975,922.309Zm1.591-2.807a.137.137,0,0,1-.112-.216,16.12,16.12,0,0,1,1.009-1.278.137.137,0,0,1,.206.18,15.845,15.845,0,0,0-.992,1.257A.136.136,0,0,1,478.566,919.5Zm2.123-2.428a.137.137,0,0,1-.093-.237c.4-.369.814-.723,1.245-1.051a.137.137,0,1,1,.166.218c-.423.322-.835.67-1.224,1.033A.136.136,0,0,1,480.689,917.075Zm2.567-1.955a.137.137,0,0,1-.072-.253c.461-.283.942-.546,1.429-.782a.137.137,0,1,1,.119.246,15.965,15.965,0,0,0-1.405.769A.139.139,0,0,1,483.256,915.12Zm2.905-1.4a.137.137,0,0,1-.047-.265,16.24,16.24,0,0,1,1.557-.48.137.137,0,0,1,.067.265,15.876,15.876,0,0,0-1.531.472A.14.14,0,0,1,486.161,913.715Zm7.959-.767-.022,0c-.527-.083-1.063-.14-1.593-.17a.137.137,0,0,1-.129-.144.138.138,0,0,1,.144-.129c.539.03,1.084.089,1.62.173a.137.137,0,0,1-.021.272Zm-4.831-.026a.137.137,0,0,1-.02-.272,16.194,16.194,0,0,1,1.622-.156.137.137,0,0,1,.012.273,15.833,15.833,0,0,0-1.595.153Z" transform="translate(-475.48 -912.493)" fill="#b0c0d2"/>
              <path id="Trazado_627521" data-name="Trazado 627521" d="M655.608,1001.068h0a.137.137,0,0,1-.133-.14c.007-.27.007-.543,0-.814a.137.137,0,0,1,.133-.14.134.134,0,0,1,.14.133c.007.275.008.553,0,.828A.137.137,0,0,1,655.608,1001.068Z" transform="translate(-623.444 -984.407)" fill="#b0c0d2"/>
            </g>
            <path id="Trazado_627522" data-name="Trazado 627522" d="M534.68,978.434a6.94,6.94,0,0,1-.725-.038,6.837,6.837,0,1,1,2.228-13.468.137.137,0,0,1-.06.267,6.654,6.654,0,0,0-.772-.127,6.563,6.563,0,1,0,5.845,7.211,6.62,6.62,0,0,0,0-1.416.137.137,0,0,1,.272-.03,6.862,6.862,0,0,1,0,1.474,6.839,6.839,0,0,1-6.787,6.126Z" transform="translate(-512.303 -947.347)" fill="#b0c0d2"/>
            <path id="Trazado_627523" data-name="Trazado 627523" d="M610.2,898.727a.136.136,0,0,1-.129-.177c.068-.2,7.013-12.338,8.405-14.768a.137.137,0,0,1,.19-.049,22.486,22.486,0,0,1,6.934,7.118.137.137,0,0,1-.239.133,22.061,22.061,0,0,0-6.719-6.942c-2.864,5-8.191,14.323-8.314,14.6A.141.141,0,0,1,610.2,898.727Z" transform="translate(-579.906 -880.723)" fill="#b0c0d2"/>
          </g>
          <g id="Grupo_947074" data-name="Grupo 947074" transform="translate(15.331 61.175)">
            <path id="Trazado_627524" data-name="Trazado 627524" d="M471.511,1243.5H468.2a.736.736,0,0,1-.736-.736v-9.9a.736.736,0,0,1,.736-.736h3.311a.736.736,0,0,1,.736.736v9.9A.736.736,0,0,1,471.511,1243.5Zm-2.575-1.472h1.839V1233.6h-1.839Z" transform="translate(-467.465 -1218.064)" fill="#b0c0d2"/>
            <path id="Trazado_627525" data-name="Trazado 627525" d="M502.575,1213.723H498.05a.736.736,0,0,1-.736-.736v-16.35a.736.736,0,0,1,.736-.736h4.525a.736.736,0,0,1,.736.736v16.35A.736.736,0,0,1,502.575,1213.723Zm-3.789-1.471h3.053v-14.879h-3.053Z" transform="translate(-492.003 -1188.285)" fill="#b0c0d2"/>
            <path id="Trazado_627526" data-name="Trazado 627526" d="M542.393,1197.741h-6.282a.736.736,0,0,1-.736-.736V1177.2a.736.736,0,0,1,.736-.736h6.282a.736.736,0,0,1,.736.736v19.81A.736.736,0,0,1,542.393,1197.741Zm-5.546-1.472h4.81v-18.338h-4.81Z" transform="translate(-523.292 -1172.303)" fill="#b0c0d2"/>
            <path id="Trazado_627527" data-name="Trazado 627527" d="M600.56,1178.539h-7.522a.736.736,0,0,1-.736-.736v-23.966a.736.736,0,0,1,.736-.736h7.522a.736.736,0,0,1,.736.736V1177.8A.736.736,0,0,1,600.56,1178.539Zm-6.786-1.471h6.05v-22.495h-6.05Z" transform="translate(-570.089 -1153.101)" fill="#b0c0d2"/>
          </g>
        </g>
        <g id="Grupo_947078" data-name="Grupo 947078" transform="translate(39.629 23.673)">
          <path id="Trazado_627528" data-name="Trazado 627528" d="M636.914,974.029a.684.684,0,0,0-.026-.967l-32.364-30.635a.288.288,0,0,0-.331-.05.33.33,0,0,0-.074.524l31.944,31.141A.594.594,0,0,0,636.914,974.029Z" transform="translate(-604.021 -942.345)" fill="url(#linear-gradient-67)"/>
          <path id="Trazado_627529" data-name="Trazado 627529" d="M895.229,1521.756a.592.592,0,0,1,.014-.148c.693-2.914,4.131-4.729,4.131-4.729l1.363.113a10.6,10.6,0,0,1,.557,4.845c0,.02-.009.038-.014.057A30.5,30.5,0,0,1,895.229,1521.756Z" transform="translate(-843.412 -1414.648)" fill="#b0c0d2"/>
          <path id="Trazado_627530" data-name="Trazado 627530" d="M901.281,1544.422a.61.61,0,0,1-.432.463,17.635,17.635,0,0,1-5.207-.078.518.518,0,0,1-.411-.524A30.494,30.494,0,0,0,901.281,1544.422Z" transform="translate(-843.413 -1437.175)" fill="url(#linear-gradient-68)"/>
          <path id="Trazado_627531" data-name="Trazado 627531" d="M935.3,1254.406a12.762,12.762,0,0,0,2.953,2.29,25.075,25.075,0,0,1-5.4,5.091l-.668,1.589-2.139-2.72A12.02,12.02,0,0,0,935.3,1254.406Z" transform="translate(-872.037 -1198.878)" fill="url(#linear-gradient-69)"/>
          <path id="Trazado_627532" data-name="Trazado 627532" d="M918.545,1505.417l-.577,2.947a.467.467,0,0,1-.388.4,3.638,3.638,0,0,1-.894-.015.6.6,0,0,1-.452-.712l.4-2.617Z" transform="translate(-860.673 -1405.225)" fill="url(#linear-gradient-70)"/>
          <path id="Trazado_627533" data-name="Trazado 627533" d="M833.393,1543.019a7.71,7.71,0,0,0,2.685-.407c0,.159,0,.32,0,.488a.308.308,0,0,1-.284.321l-8.262-.056a.4.4,0,0,1-.3-.583A58.632,58.632,0,0,0,833.393,1543.019Z" transform="translate(-787.477 -1435.801)" fill="url(#linear-gradient-71)"/>
          <path id="Trazado_627534" data-name="Trazado 627534" d="M827.4,1523.72a.427.427,0,0,1,.033-.066,10.52,10.52,0,0,1,6.26-4.17l1.762-.059a9.409,9.409,0,0,1,.8,4.126,7.712,7.712,0,0,1-2.685.407A58.666,58.666,0,0,1,827.4,1523.72Z" transform="translate(-787.653 -1416.74)" fill="#b0c0d2"/>
          <path id="Trazado_627535" data-name="Trazado 627535" d="M863.957,1501.412c-.02.139-.261,2.257-.354,3.078a.4.4,0,0,1-.324.367,3.811,3.811,0,0,1-1.21-.02.549.549,0,0,1-.4-.555v-3.324Z" transform="translate(-815.828 -1401.56)" fill="url(#linear-gradient-72)"/>
          <path id="Trazado_627536" data-name="Trazado 627536" d="M863.167,1286.349a175.985,175.985,0,0,0-4.172,38.69.824.824,0,0,0,.624.813,8.664,8.664,0,0,0,1.97.242.746.746,0,0,0,.7-.646c.6-3.707,4.015-24.589,5.963-27.978,0,0,1.282,18.6.872,28.247a.45.45,0,0,0,.38.476,6.84,6.84,0,0,0,1.581,0,.593.593,0,0,0,.514-.52c.424-3.137,2.867-21.81,2.763-35.261-.006-.759-1.891-4.057-1.891-4.057Z" transform="translate(-813.624 -1225.137)" fill="#727997"/>
          <path id="Trazado_627537" data-name="Trazado 627537" d="M843.441,1133.6a17.981,17.981,0,0,1,3.261-4.995c4.73.91,12.483,1.722,15.717,2.154a4.049,4.049,0,0,1,2.6,1.48c2.638,3.239,8.427,12.106,1.613,21.041a12.765,12.765,0,0,1-2.953-2.29,11.65,11.65,0,0,0-.764-8.668c-.054.28-.121.557-.2.83a54.3,54.3,0,0,0-2.289,14.812.465.465,0,0,1-.274.433c-2.866,1.218-8.382.493-10.234.2a.656.656,0,0,1-.521-.75c.909-6.985-3.755-18.476-4.987-21.354a1.856,1.856,0,0,0-.9-.95c-.2-.1-.394-.193-.587-.292C843.072,1134.694,843.241,1134.143,843.441,1133.6Z" transform="translate(-800.415 -1095.462)" fill="#b0c0d2"/>
          <path id="Trazado_627538" data-name="Trazado 627538" d="M902.318,1102.166l.337,6.245a.382.382,0,0,1-.272.4,6.145,6.145,0,0,1-4.609-.487.638.638,0,0,1-.267-.71l1.5-5.611Z" transform="translate(-845.266 -1073.59)" fill="url(#linear-gradient-73)"/>
          <g id="Grupo_947076" data-name="Grupo 947076" transform="translate(49.153 18.788)">
            <path id="Trazado_627539" data-name="Trazado 627539" d="M889.05,1063.434c-.076.076-3.224,6.635-3.224,6.635l3.568,1.828,3.854-5.746S890.329,1062.156,889.05,1063.434Z" transform="translate(-884.835 -1060.469)" fill="url(#linear-gradient-74)"/>
            <path id="Trazado_627540" data-name="Trazado 627540" d="M887.09,1053.774a.637.637,0,0,1-.043.53l-1.78,3.147a.575.575,0,0,1-.1.129c-.212.209-.937.818-1.5-.011a5.21,5.21,0,0,0-1.406-1.612.554.554,0,0,0-.768.268,23.3,23.3,0,0,0-1.218,3.065.611.611,0,0,0,.33.737,15.093,15.093,0,0,0,3.417,1.058.555.555,0,0,0,.538-.243c.545-.792,2.082-3.006,2.606-3.561.487-.515,1.386-.321,1.792-.2a.543.543,0,0,0,.455-.063,1.367,1.367,0,0,0,.472-2.024.627.627,0,0,1,.176-.821,1.376,1.376,0,0,0,.482-1.9,1.742,1.742,0,0,0-1.922-1,.586.586,0,0,1-.62-.366.382.382,0,0,0-.294-.245.585.585,0,0,1-.447-.688,1.58,1.58,0,0,0-.814-1.772c-1.539-.9-2.888.565-3.231,1.8s1.379,2.108,2.461,2.254C886.479,1052.372,886.915,1053.293,887.09,1053.774Z" transform="translate(-880.256 -1047.933)" fill="url(#linear-gradient-75)"/>
            <path id="Trazado_627541" data-name="Trazado 627541" d="M915.376,1097.5s.685-2.125,1.561-2.047,1.566,1,.48,2.045C916.066,1098.788,915.376,1097.5,915.376,1097.5Z" transform="translate(-909.127 -1086.992)" fill="url(#linear-gradient-76)"/>
          </g>
          <path id="Trazado_627542" data-name="Trazado 627542" d="M955.495,1168.229a20.042,20.042,0,0,0,.732-7.443l-.318.039a19.648,19.648,0,0,1-.714,7.288Z" transform="translate(-892.707 -1121.917)" fill="#12263f"/>
          <path id="Trazado_627543" data-name="Trazado 627543" d="M911.133,1330.274a.162.162,0,0,0,.155-.127c.352-1.442,2.991-3.026,3.018-3.042a.175.175,0,0,0,.061-.231.155.155,0,0,0-.218-.065c-.114.068-2.785,1.672-3.171,3.253a.171.171,0,0,0,.115.207A.154.154,0,0,0,911.133,1330.274Z" transform="translate(-856.354 -1258.379)" fill="url(#linear-gradient-77)"/>
          <g id="Grupo_947077" data-name="Grupo 947077" transform="translate(25.03 26.111)">
            <path id="Trazado_627544" data-name="Trazado 627544" d="M779.42,1130.543c4.5,1.744,14.082-1.938,14.082-1.938l.659,8.308c-7.675,2.574-12.669,1.825-15.917-.336A11.95,11.95,0,0,1,779.42,1130.543Z" transform="translate(-772.244 -1121.573)" fill="#b0c0d2"/>
            <path id="Trazado_627545" data-name="Trazado 627545" d="M744.7,1089.482l1.882-.4s.513,6.354,4.706,8.7a4.505,4.505,0,0,0,.573.267,11.952,11.952,0,0,0-1.176,6.034C744.087,1099.7,744.7,1089.482,744.7,1089.482Z" transform="translate(-744.686 -1089.086)" fill="url(#linear-gradient-78)"/>
          </g>
          <path id="Trazado_627546" data-name="Trazado 627546" d="M726.636,1065.3l.1-.554a3.189,3.189,0,0,0-.646-2.684c-1.5-1.925-2.6-1.217-2.6-1.217a4.538,4.538,0,0,1,.073.777.321.321,0,0,1-.542.244l-2.45-2.388s-.686,3.793,4.568,6.4Z" transform="translate(-699.805 -1038.634)" fill="url(#linear-gradient-79)"/>
        </g>
      </g>
      <g id="Grupo_947084" data-name="Grupo 947084" transform="translate(218.91 392.009)">
        <path id="Trazado_627547" data-name="Trazado 627547" d="M328.843,1512.092s-.325,1.84-.485,3.662a1.255,1.255,0,0,0,1.2,1.36c2.426.1,7.616.3,9.478.214a.408.408,0,0,0,.359-.559.914.914,0,0,0-.468-.493l-8.572-3.94Z" transform="translate(-308.88 -1423.887)" fill="#6aceae"/>
        <path id="Trazado_627548" data-name="Trazado 627548" d="M329.607,1504.444l.261,2.2a2.732,2.732,0,0,0,2.527-.088l-.622-2.453Z" transform="translate(-309.91 -1417.32)" fill="url(#linear-gradient-49)"/>
        <path id="Trazado_627549" data-name="Trazado 627549" d="M299.258,1273.416c-.113.575-.606,28.688,2.4,41.287a.428.428,0,0,1-.251.5,7.44,7.44,0,0,1-2.447.5.736.736,0,0,1-.731-.528c-.859-2.923-4.975-17.568-5.512-31.559-.6-15.633,0-.532,0-.532l.352-9.663Z" transform="translate(-279.364 -1227.68)" fill="#12263f"/>
        <path id="Trazado_627550" data-name="Trazado 627550" d="M270.908,1517.488a13.248,13.248,0,0,0-1.019,3.4.766.766,0,0,0,.674.917c.8.079,2.034.18,3.022.173a.764.764,0,0,0,.756-.852,6.439,6.439,0,0,0-1.5-3.532Z" transform="translate(-260.806 -1428.323)" fill="#6aceae"/>
        <path id="Trazado_627551" data-name="Trazado 627551" d="M273.132,1500.978l.61,3.329a2.153,2.153,0,0,0,1.8.123l-.291-3.582Z" transform="translate(-263.484 -1414.644)" fill="url(#linear-gradient-49)"/>
        <path id="Trazado_627552" data-name="Trazado 627552" d="M259.495,1271.082c-2.458,14.833.533,36.66,1.542,40.933a.666.666,0,0,0,.538.506,4.477,4.477,0,0,0,1.922-.077.611.611,0,0,0,.439-.562c.135-3.454-.108-24.658,2.182-33.038a1.9,1.9,0,0,1,.734-1.05l4.445-3.16.341-5.108Z" transform="translate(-251.495 -1224.483)" fill="#12263f"/>
        <g id="Grupo_947080" data-name="Grupo 947080" transform="translate(7.082 7.087)">
          <path id="Trazado_627553" data-name="Trazado 627553" d="M275.287,1114.758a69.252,69.252,0,0,0-15.492,1.934c-2.2,12.811-.384,27.587-.384,27.587,5.7,1.5,12.135-.914,12.135-.914.948-5.355,5.37-20.424,5.37-20.424a24.263,24.263,0,0,0,9-2.858,15.792,15.792,0,0,1-3.121-6.529A24.707,24.707,0,0,1,275.287,1114.758Z" transform="translate(-258.708 -1103.351)" fill="#6aceae"/>
          <path id="Trazado_627554" data-name="Trazado 627554" d="M408.336,1056.772a1.409,1.409,0,0,0-1.639-.46c-1.084,4.578-6.767,8.291-12.606,10.105a15.792,15.792,0,0,0,3.121,6.529C406.9,1067.5,408.336,1056.772,408.336,1056.772Z" transform="translate(-370.001 -1056.214)" fill="url(#linear-gradient-82)"/>
        </g>
        <g id="Grupo_947081" data-name="Grupo 947081" transform="translate(43.777 0)">
          <path id="Trazado_627555" data-name="Trazado 627555" d="M466.4,1024.253c.076.241-.8.607-1.317-.377-.018-.472-.3-2.493-.023-2.877a37.631,37.631,0,0,1,4.412-4.613.693.693,0,0,1,.086.962l-1.412,1.471a6.845,6.845,0,0,1,.824,1.63,1.979,1.979,0,0,1-.2,1.456c-.248.447-.586,1.027-.906,1.481A1.954,1.954,0,0,1,466.4,1024.253Z" transform="translate(-464.935 -1016.386)" fill="url(#linear-gradient-83)"/>
          <path id="Trazado_627556" data-name="Trazado 627556" d="M471.694,1035.425l-1.287,1.091-.4,1.086,1.147,1.273a14.807,14.807,0,0,1,.672-2.622C472.109,1035.787,471.961,1035.562,471.694,1035.425Z" transform="translate(-469.101 -1032.037)" fill="url(#linear-gradient-84)"/>
        </g>
        <path id="Trazado_627557" data-name="Trazado 627557" d="M230.627,1138.321l-2.825-7.132s-6.88,4.674-8.011,10.6a16.28,16.28,0,0,1,5.981,1.6C226.28,1140.595,230.627,1138.321,230.627,1138.321Z" transform="translate(-219.634 -1110.761)" fill="#6aceae"/>
        <path id="Trazado_627558" data-name="Trazado 627558" d="M235.915,1194.01s-7.724,4.365-10.331.638a2.93,2.93,0,0,1-.537-2.277,16.279,16.279,0,0,0-5.981-1.6,8.18,8.18,0,0,0,.889,5.608c4.565,8.351,16.981-.462,16.981-.462Z" transform="translate(-218.91 -1159.739)" fill="url(#linear-gradient-49)"/>
        <g id="Grupo_947082" data-name="Grupo 947082" transform="translate(16.06 22.418)">
          <path id="Trazado_627559" data-name="Trazado 627559" d="M309.184,1166.357l4.216-14.722a.429.429,0,0,1,.363-.309c.764-.089,2.977-.339,5.532-.555a62.779,62.779,0,0,1,8.788-.292.431.431,0,0,1,.352.62c-1.215,2.457-6.211,12.453-8.713,15.728a.432.432,0,0,1-.348.171l-9.781-.091A.431.431,0,0,1,309.184,1166.357Z" transform="translate(-309.167 -1148.982)" fill="url(#linear-gradient-86)"/>
          <path id="Trazado_627560" data-name="Trazado 627560" d="M366.829,1142.888l3.056-.509a.219.219,0,0,1,.244.285l-.3.917a.219.219,0,0,1-.179.149l-2.941.393a.219.219,0,0,1-.243-.267l.187-.8A.219.219,0,0,1,366.829,1142.888Z" transform="translate(-356.264 -1142.375)" fill="url(#linear-gradient-87)"/>
          <path id="Trazado_627561" data-name="Trazado 627561" d="M355.655,1149.706l.252-1.311a.3.3,0,0,1,.267-.245l6.173-.626a.3.3,0,0,1,.325.372l-.393,1.634a.3.3,0,0,1-.28.232l-6.033.3A.3.3,0,0,1,355.655,1149.706Z" transform="translate(-347.379 -1146.606)" fill="url(#linear-gradient-88)"/>
          <path id="Trazado_627562" data-name="Trazado 627562" d="M313.107,1196.843a10.713,10.713,0,0,1-.35-3.271c.237-.857.7-1.958,2.225-1.713a22.4,22.4,0,0,1,3.334.889.876.876,0,0,1-1.254.756l.721.558s-.1.894-1.085.416l.671.74a.782.782,0,0,1-1.144.263C315.5,1195.01,315.156,1197.134,313.107,1196.843Z" transform="translate(-312.072 -1183.025)" fill="url(#linear-gradient-49)"/>
        </g>
        <path id="Trazado_627563" data-name="Trazado 627563" d="M299.061,1086.716l-2.344,6.777a.244.244,0,0,0,.111.294,5.509,5.509,0,0,0,5.714-.384,1.15,1.15,0,0,0,.53-.821l.759-5.866Z" transform="translate(-282.861 -1074.202)" fill="url(#linear-gradient-90)"/>
        <g id="Grupo_947083" data-name="Grupo 947083" transform="translate(11.752 2.716)">
          <path id="Trazado_627564" data-name="Trazado 627564" d="M310.857,1051.444s2.574,4.844,2.244,6.8-3.519,1.816-6.3.227l-1.946-5.231Z" transform="translate(-301.31 -1047.922)" fill="url(#linear-gradient-91)"/>
          <path id="Trazado_627565" data-name="Trazado 627565" d="M290.564,1039.631a.2.2,0,0,0,.087-.292,5.211,5.211,0,0,1-.716-1.52s-.463-.3,1.178-.689,4.086-1,4.6-2.4c.5-1.361-.816-4.784-2.917-2.057a.2.2,0,0,1-.316,0,2.058,2.058,0,0,0-2.507-.814,1.888,1.888,0,0,0-1.293,1.825.2.2,0,0,1-.235.2,2.3,2.3,0,0,0-2.688,1.254,1.851,1.851,0,0,0,.133,2.223.2.2,0,0,1-.085.33,1.2,1.2,0,0,0-.845,1.367c.07,1.266,1.486,1.155,1.889,1.1a.2.2,0,0,1,.177.063,6.807,6.807,0,0,0,3.588,2.2.2.2,0,0,0,.211-.266l-.729-2.12a.2.2,0,0,1,.108-.249Z" transform="translate(-284.954 -1031.649)" fill="url(#linear-gradient-92)"/>
          <path id="Trazado_627566" data-name="Trazado 627566" d="M309.01,1075.321s-1.832-1.257-1.966-.2,1.65,1.533,2.533,1.139Z" transform="translate(-303.108 -1067.038)" fill="url(#linear-gradient-93)"/>
        </g>
      </g>
      <g id="Grupo_947086" data-name="Grupo 947086" transform="translate(224.209 346.443)">
        <path id="Trazado_627567" data-name="Trazado 627567" d="M306.367,944.655c-.018-.225-.248-.42-.637-.576.423-.233.657-.483.637-.729-.06-.742-2.41-1.158-5.249-.929s-5.092,1.016-5.032,1.758c.018.225.248.42.637.576-.423.233-.657.483-.637.729.018.225.248.42.637.576-.423.233-.657.483-.637.729.018.225.248.42.637.576-.423.233-.657.483-.637.729.026.328.5.592,1.268.766a6.613,6.613,0,0,0,.02.8c.111,1.367,1.649,2.44,3.683,2.44s3.8-1.462,3.815-2.834a6.95,6.95,0,0,0-.04-.9c.973-.325,1.566-.722,1.535-1.107-.018-.225-.248-.42-.637-.576.423-.233.657-.483.637-.729-.018-.225-.248-.42-.637-.576C306.152,945.15,306.386,944.9,306.367,944.655Z" transform="translate(-287.651 -909.965)" fill="url(#linear-gradient-94)"/>
        <g id="Grupo_947085" data-name="Grupo 947085" transform="translate(9.192 34.182)">
          <path id="Trazado_627568" data-name="Trazado 627568" d="M306.329,977.108a12.255,12.255,0,0,1-2.252-.184.068.068,0,0,1,.026-.134,14.683,14.683,0,0,0,3.751.118,16.112,16.112,0,0,0,3.146-.542.068.068,0,1,1,.038.131,16.257,16.257,0,0,1-3.173.548C307.336,977.087,306.82,977.108,306.329,977.108Z" transform="translate(-303.367 -972.101)" fill="url(#linear-gradient-95)"/>
          <path id="Trazado_627569" data-name="Trazado 627569" d="M304.066,968.123a10.716,10.716,0,0,1-2.765-.3.068.068,0,0,1,.037-.131,15.775,15.775,0,0,0,8.36-.664.068.068,0,0,1,.057.124,13.451,13.451,0,0,1-4.167.909C305.067,968.1,304.555,968.123,304.066,968.123Z" transform="translate(-301.09 -964.422)" fill="url(#linear-gradient-96)"/>
          <path id="Trazado_627570" data-name="Trazado 627570" d="M303.308,960.791a9.957,9.957,0,0,1-2.915-.351.068.068,0,1,1,.043-.13,12.456,12.456,0,0,0,4.4.281,13.325,13.325,0,0,0,4.121-.9.068.068,0,0,1,.057.124,13.456,13.456,0,0,1-4.167.909C304.316,960.771,303.8,960.791,303.308,960.791Z" transform="translate(-300.347 -958.394)" fill="url(#linear-gradient-97)"/>
          <path id="Trazado_627571" data-name="Trazado 627571" d="M305.452,953.5A11.76,11.76,0,0,1,303,953.28a.068.068,0,1,1,.03-.133,14.225,14.225,0,0,0,3.941.157,13.42,13.42,0,0,0,4.1-.887.068.068,0,0,1,.056.124,13.555,13.555,0,0,1-4.146.9C306.457,953.483,305.943,953.5,305.452,953.5Z" transform="translate(-302.482 -952.411)" fill="url(#linear-gradient-98)"/>
        </g>
        <path id="Trazado_627572" data-name="Trazado 627572" d="M255.22,788.414a9.6,9.6,0,0,0-1.719-3.357,22.219,22.219,0,0,1-4.787-12.374c-.494-8.6,7.133-12.905,14.093-12.321s13.827,5.766,13.076,13.767a18.472,18.472,0,0,1-5.269,10.8,11.4,11.4,0,0,0-2.735,4.846c-.615,2.223-2.081,4.993-5.563,5.162C257.809,795.156,255.937,790.956,255.22,788.414Z" transform="translate(-248.691 -760.31)" fill="#f3c035"/>
        <path id="Trazado_627573" data-name="Trazado 627573" d="M331.7,869.794l2.435-15.839c.05-.327.211-.547.36-.491s.228.367.177.694l0,.028-2.774,15.692c-.021.118-.081.193-.134.166S331.684,869.908,331.7,869.794Z" transform="translate(-316.926 -836.881)" fill="#12263f"/>
        <path id="Trazado_627574" data-name="Trazado 627574" d="M303.717,870.5l-2.435-15.839c-.05-.327-.211-.547-.36-.491s-.228.367-.177.694c0,.009,0,.019,0,.028l2.774,15.692c.021.118.081.192.134.166S303.735,870.615,303.717,870.5Z" transform="translate(-291.47 -837.463)" fill="#12263f"/>
        <path id="Trazado_627575" data-name="Trazado 627575" d="M312.3,839.77a.255.255,0,0,0-.32-.083l-1.356.634-.471-1.341a.287.287,0,0,0-.165-.166.335.335,0,0,0-.417.128l0,0-1.115,2.033-1.035-2.894,0,0a.33.33,0,0,0-.157-.177.406.406,0,0,0-.512.1l-1.559,2.146a.188.188,0,0,0,.055.271.261.261,0,0,0,.332-.036l1.373-1.531,1.236,2.753v0a.218.218,0,0,0,.109.107.258.258,0,0,0,.323-.084l1.193-1.914.449.968,0,.009a.185.185,0,0,0,.011.021.255.255,0,0,0,.319.083l1.61-.752A.191.191,0,0,0,312.3,839.77Z" transform="translate(-295.109 -824.056)" fill="url(#linear-gradient-99)"/>
        <path id="Trazado_627576" data-name="Trazado 627576" d="M369.563,875.339a.568.568,0,0,1-.456-.907,17.732,17.732,0,0,0,1.114-1.691.568.568,0,0,1,.984.569,18.914,18.914,0,0,1-1.185,1.8A.568.568,0,0,1,369.563,875.339Z" transform="translate(-347.588 -852.501)" fill="url(#linear-gradient-100)"/>
        <path id="Trazado_627577" data-name="Trazado 627577" d="M380.822,812.33a.569.569,0,0,1-.521-.795,14.219,14.219,0,0,0,.333-10.74.568.568,0,0,1,1.034-.473,15.1,15.1,0,0,1-.324,11.665A.569.569,0,0,1,380.822,812.33Z" transform="translate(-356.844 -792.93)" fill="url(#linear-gradient-101)"/>
      </g>
    </g>
  </g>
</svg>
