<svg xmlns="http://www.w3.org/2000/svg" xmlns:xlink="http://www.w3.org/1999/xlink" width="258.415" height="146.864" viewBox="0 0 258.415 146.864">
  <defs>
    <clipPath id="clip-path">
      <rect id="Rectángulo_305296" data-name="Rectángulo 305296" width="120.709" height="60.996" fill="#b8ebd6"/>
    </clipPath>
    <clipPath id="clip-path-2">
      <rect id="Rectángulo_305297" data-name="Rectángulo 305297" width="91.043" height="46.006" fill="#fff4d6"/>
    </clipPath>
    <linearGradient id="linear-gradient" x1="0.5" x2="0.5" y2="1" gradientUnits="objectBoundingBox">
      <stop offset="0" stop-color="#fff"/>
      <stop offset="1" stop-color="#dedede"/>
    </linearGradient>
    <linearGradient id="linear-gradient-2" x1="0.5" x2="0.5" y2="1" gradientUnits="objectBoundingBox">
      <stop offset="0" stop-color="#f5f5f5"/>
      <stop offset="0.25" stop-color="#f5f5f5"/>
      <stop offset="1" stop-color="#afafaf"/>
    </linearGradient>
  </defs>
  <g id="Grupo_946916" data-name="Grupo 946916" transform="translate(-243.601 -1738.56)">
    <g id="Grupo_922881" data-name="Grupo 922881" transform="translate(502.017 1848.442) rotate(180)" clip-path="url(#clip-path)">
      <path id="Trazado_607560" data-name="Trazado 607560" d="M60.354,61A60.354,60.354,0,0,1,0,.642C0,.428.006.214.008,0H120.7c0,.214.008.428.008.642A60.354,60.354,0,0,1,60.354,61" transform="translate(0 0)" fill="#b8ebd6"/>
    </g>
    <g id="Grupo_922885" data-name="Grupo 922885" transform="translate(248.5 1802.436)" clip-path="url(#clip-path-2)">
      <path id="Trazado_607561" data-name="Trazado 607561" d="M45.521,46.006A45.521,45.521,0,0,1,0,.484C0,.322,0,.162.006,0h91.03c0,.162.006.322.006.484A45.521,45.521,0,0,1,45.521,46.006" transform="translate(0 0)" fill="#fff4d6"/>
    </g>
    <g id="Grupo_946979" data-name="Grupo 946979" transform="translate(-158.817 1422.573)">
      <g id="Grupo_946918" data-name="Grupo 946918" transform="translate(438.043 315.987)" opacity="0.8">
        <path id="Trazado_627100" data-name="Trazado 627100" d="M755.921,504.806a36.763,36.763,0,0,1-.59,6.575,36.513,36.513,0,0,1-69.3,8.2,35.885,35.885,0,0,1-1.859-5.249,36.764,36.764,0,0,1-.43-17.3c.005-.029.013-.056.018-.086a36.6,36.6,0,0,1,14.248-21.715q1.125-.817,2.316-1.548a36.307,36.307,0,0,1,19.093-5.388q1.393,0,2.759.1a36.258,36.258,0,0,1,18.079,6.426h0a36.646,36.646,0,0,1,10.013,10.455q.838,1.325,1.566,2.722a36.338,36.338,0,0,1,4.084,16.8Z" transform="translate(-682.915 -468.302)" fill="#dee4f0"/>
        <g id="Grupo_946917" data-name="Grupo 946917" transform="translate(0.828 5.046)">
          <path id="Trazado_627101" data-name="Trazado 627101" d="M713.62,531.4c-1.457,2.307.608,6.313-3.762,5.22s-7.041-1.579-7.283.849,3.278,2.429,3.278,4.978-1.579,3.392-4.006,2.181-3.126-2.971-5.949-1.879-4.461.364-5.1-1.821a3.194,3.194,0,0,0-.453-.956c.005-.029.013-.056.018-.086a36.6,36.6,0,0,1,14.248-21.715q1.125-.817,2.316-1.548a4.8,4.8,0,0,1,3.658,1.908c2.549,3.157,4.248,1.579,3.642,5.22s.364,4.128,2.427,4.006,4.492-.122,4.734,1.457S715.076,529.1,713.62,531.4Z" transform="translate(-690.346 -516.285)" fill="#f6f6f6"/>
          <path id="Trazado_627102" data-name="Trazado 627102" d="M766.581,784.951s-2.2,2.561-4.1,1.091-1.324-2.392-4.105-1.47-4-.607-5.428.552-.268,1.3-1.255,3.759-3.022,2.85-1.448,5.3,4.5,1.19,6.046,2.487,1.04,2.566,2.965,3.094,3.766-1.348,3.8.978-.705,4.6,1.689,6.76,1.946,2.651,4.408,3.705,5.4.1,5.03-1.375-3.546-1.777-3.609-3.447,1.625-1.53.948-3.678,1.212-3.306.574-4.7-4.275-1.864-3.852-3.263,3.714-.213,3.894-3.171-1.819-4.011-1.524-6.9S766.918,783.178,766.581,784.951Z" transform="translate(-743.053 -752.976)" fill="#f6f6f6"/>
          <path id="Trazado_627103" data-name="Trazado 627103" d="M1113.267,673.094a36.763,36.763,0,0,1-.59,6.575,36.3,36.3,0,0,1-5.761,14A4.166,4.166,0,0,1,1104,693.6c-4.552-1.821-1.183-6.737.637-9.2s-2.822-1.366-6.191-3.642.364-8.376-3.1-7.374-7.647,2.276-9.65-1.093,1.821-3.915.091-6.737,1-4.461,4.461-4.734,3-2.731,7.283-3.1,4.188,5.1,8.922,4.734,4.521.728,4.521.728a2.207,2.207,0,0,1,.989.208A36.575,36.575,0,0,1,1113.267,673.094Z" transform="translate(-1041.09 -641.637)" fill="#aec3ff"/>
          <path id="Trazado_627104" data-name="Trazado 627104" d="M1124.761,540.038c-3.937,1.915-5.517-3.294-8.882-1.728-3.392,1.579-2.8-1.457-5.468-3.4s-8.012,1.579-7.77-1.457,4.248-2.185,5.1-4.612,4.734-1.821,4.734-1.821a2.634,2.634,0,0,1,.707-.16s0,0,0,0a36.641,36.641,0,0,1,10.013,10.455Q1124.033,538.641,1124.761,540.038Z" transform="translate(-1056.668 -525.378)" fill="#f6f6f6"/>
          <path id="Trazado_627105" data-name="Trazado 627105" d="M927,517.756s2.064-2.977-1.214-3.856-3.217.271-5.766,0-3.551,1.7-1.639,3.856,3.459,6.289,5.189,4.085S924.969,517.969,927,517.756Z" transform="translate(-892.075 -513.564)" fill="#f6f6f6"/>
        </g>
      </g>
      <g id="Grupo_946920" data-name="Grupo 946920" transform="translate(457.761 355.651)">
        <path id="Trazado_627106" data-name="Trazado 627106" d="M1359.391,1143.525,1353.8,1210s-.586,4.03,2.412,4.037c4.928.012,24.531,0,24.531,0s-3.709-.839-3.664-2.726c.053-2.225,6.535-68.418,6.535-68.418Z" transform="translate(-1298.68 -1107.35)" fill="#727997"/>
        <path id="Trazado_627107" data-name="Trazado 627107" d="M1395.428,1203.247c-.969,0-19.947.035-24.746-.027-2.092-.026-2.458-1.86-2.476-3.047a5.967,5.967,0,0,1,.064-.99l.145-1.728.371-4.4.327-3.891.421-5,.354-4.22,3.973-47.237,24.222-.629s-2.73,27.7-4.661,47.866c-.216,2.247-.421,4.4-.61,6.412q-.092.963-.178,1.881c-.179,1.908-.343,3.66-.485,5.207-.075.815-.144,1.573-.207,2.267-.246,2.719-.391,4.456-.393,4.786a2.782,2.782,0,0,0,.047.538C1391.993,1203.151,1395.064,1203.247,1395.428,1203.247Z" transform="translate(-1311.521 -1097.736)" fill="#12263f"/>
        <path id="Trazado_627108" data-name="Trazado 627108" d="M876.7,824.069l13.619,54.7,1.865,7.492,6.343,25.479H1016.37l-23.379-87.674Z" transform="translate(-874.816 -824.069)" fill="url(#linear-gradient)"/>
        <path id="Trazado_627109" data-name="Trazado 627109" d="M861.66,824.068l-1.887.629,21.2,88.948,2.509-1.9Z" transform="translate(-859.772 -824.068)" fill="#12263f"/>
        <path id="Trazado_627110" data-name="Trazado 627110" d="M1049.966,1612.365h117.116l3.234-1.9h-117.84Z" transform="translate(-1028.761 -1522.787)" fill="#12263f"/>
        <rect id="Rectángulo_341780" data-name="Rectángulo 341780" width="25.357" height="1.205" transform="translate(87.689 106.716) rotate(180)" fill="#7b829e"/>
        <path id="Trazado_627111" data-name="Trazado 627111" d="M1397.388,1627.525l-.131.921-23.847,4.818.327-3.891.156-1.848Z" transform="translate(-1316.144 -1537.948)" fill="#2a4362"/>
        <path id="Trazado_627113" data-name="Trazado 627113" d="M876.7,824.068H992.99l18.868,70.463H894.243Z" transform="translate(-874.814 -824.068)" fill="#b0c0d2"/>
        <path id="Trazado_627114" data-name="Trazado 627114" d="M1044.759,921.558H935.877l-3.891-15.5-1.505-6-.614-2.446-4-15.929-.207-.829-2.114-8.42-.946-3.767-.807-3.214-1.891-7.533h107.312l2.077,7.533.885,3.214,1.038,3.767,6.842,24.819h0l.58,2.1.27.976,4.724,17.135Z" transform="translate(-913.2 -854.149)" fill="url(#linear-gradient-2)"/>
        <path id="Trazado_627115" data-name="Trazado 627115" d="M1029.3,865.456H921.8l-1.891-7.534H1027.22Z" transform="translate(-913.204 -854.148)" fill="#6aceae"/>
        <g id="Grupo_946919" data-name="Grupo 946919" transform="translate(11.115 6.237)">
          <path id="Trazado_627116" data-name="Trazado 627116" d="M959.5,880.956a.711.711,0,0,1,.707-.942,1.287,1.287,0,0,1,1.177.942.712.712,0,0,1-.707.942A1.286,1.286,0,0,1,959.5,880.956Z" transform="translate(-959.466 -880.014)" fill="#e9f3fe"/>
          <path id="Trazado_627117" data-name="Trazado 627117" d="M987.563,880.956a.712.712,0,0,1,.707-.942,1.287,1.287,0,0,1,1.177.942.712.712,0,0,1-.707.942A1.287,1.287,0,0,1,987.563,880.956Z" transform="translate(-984.405 -880.014)" fill="#e9f3fe"/>
          <path id="Trazado_627118" data-name="Trazado 627118" d="M1017.787,880.956a.711.711,0,0,1,.707-.942,1.286,1.286,0,0,1,1.177.942.712.712,0,0,1-.707.942A1.286,1.286,0,0,1,1017.787,880.956Z" transform="translate(-1011.259 -880.014)" fill="#e9f3fe"/>
        </g>
      </g>
      <g id="Grupo_946926" data-name="Grupo 946926" transform="translate(483.554 329.899)">
        <g id="Grupo_946921" data-name="Grupo 946921" transform="translate(0 0)">
          <path id="Trazado_627120" data-name="Trazado 627120" d="M1094.281,600.583a4.6,4.6,0,0,0-3.16,4.211v40.637a25.616,25.616,0,0,0,10.562,20.84l23.872,15.3a5.046,5.046,0,0,0,5.337,0l23.871-15.3a25.615,25.615,0,0,0,10.562-20.84V604.9a4.636,4.636,0,0,0-3.317-4.268c-29-9.928-40.623-10.193-67.727-.052Z" transform="translate(-1091.121 -593.083)" fill="#b0c0d2"/>
        </g>
        <g id="Grupo_946924" data-name="Grupo 946924" transform="translate(18.727 25.014)">
          <g id="Grupo_946922" data-name="Grupo 946922" transform="translate(6.546)">
            <path id="Trazado_627122" data-name="Trazado 627122" d="M1332.063,836.159h-5.43a8.841,8.841,0,0,1-8.83-8.831v-1.056a8.841,8.841,0,0,1,8.83-8.832h5.43a8.841,8.841,0,0,1,8.832,8.832v1.056A8.841,8.841,0,0,1,1332.063,836.159Zm-5.43-15.187a5.306,5.306,0,0,0-5.3,5.3v1.056a5.306,5.306,0,0,0,5.3,5.3h5.43a5.306,5.306,0,0,0,5.3-5.3v-1.056a5.306,5.306,0,0,0-5.3-5.3Z" transform="translate(-1317.803 -817.441)" fill="#727997"/>
          </g>
          <path id="Rectángulo_341781" data-name="Rectángulo 341781" d="M4.238,0H31.321A5.429,5.429,0,0,1,36.75,5.429v8.719a17.8,17.8,0,0,1-17.8,17.8h0A18.949,18.949,0,0,1,0,13V4.238A4.238,4.238,0,0,1,4.238,0Z" transform="translate(0 11.434)" fill="#727997"/>
          <g id="Grupo_946923" data-name="Grupo 946923" transform="translate(12.267 14.914)">
            <circle id="Elipse_8219" data-name="Elipse 8219" cx="4.792" cy="4.792" r="4.792" transform="translate(0 3.172) rotate(-19.33)" fill="#b0c0d2"/>
            <path id="Trazado_627123" data-name="Trazado 627123" d="M1415.632,1026.051h0a1.041,1.041,0,0,1,1.038,1.038v7.986a1.041,1.041,0,0,1-1.038,1.038h0a1.041,1.041,0,0,1-1.038-1.038v-7.986A1.041,1.041,0,0,1,1415.632,1026.051Z" transform="translate(-1409.524 -1017.707)" fill="#b0c0d2"/>
          </g>
        </g>
        <g id="Grupo_946925" data-name="Grupo 946925" transform="translate(20.145 11.063)">
          <path id="Trazado_627124" data-name="Trazado 627124" d="M1271.806,696.591a4.246,4.246,0,0,1,4.337-4.278,4.542,4.542,0,0,1,3.25,1.134l-1.146,1.383a3.045,3.045,0,0,0-2.162-.839,2.618,2.618,0,0,0,.13,5.223,2.9,2.9,0,0,0,1.714-.5v-1.182H1276.1v-1.572h3.592v3.592a5.368,5.368,0,0,1-3.533,1.312A4.146,4.146,0,0,1,1271.806,696.591Z" transform="translate(-1271.806 -692.313)" fill="#727997"/>
          <path id="Trazado_627125" data-name="Trazado 627125" d="M1358.19,693.584h3.226a4.144,4.144,0,1,1,0,8.272h-3.226Zm3.226,6.63a2.493,2.493,0,0,0,0-4.987h-1.406v4.987Z" transform="translate(-1348.559 -693.442)" fill="#727997"/>
          <path id="Trazado_627126" data-name="Trazado 627126" d="M1441.078,693.584h3.38a2.838,2.838,0,0,1,3.167,2.883c0,1.914-1.489,2.907-3.344,2.907H1442.9v2.482h-1.82Zm3.261,4.172a1.285,1.285,0,0,0,1.442-1.276c0-.815-.567-1.253-1.477-1.253H1442.9v2.529Z" transform="translate(-1422.206 -693.442)" fill="#727997"/>
          <path id="Trazado_627127" data-name="Trazado 627127" d="M1511.882,693.584h3.781a3.3,3.3,0,0,1,2.411.839,2.616,2.616,0,0,1,.709,1.914,2.569,2.569,0,0,1-1.772,2.564l2.021,2.954H1516.9l-1.8-2.647H1513.7v2.647h-1.82Zm3.663,4.018c.886,0,1.394-.473,1.394-1.194,0-.78-.544-1.182-1.43-1.182H1513.7V697.6Z" transform="translate(-1485.116 -693.442)" fill="#727997"/>
        </g>
      </g>
      <g id="Grupo_946929" data-name="Grupo 946929" transform="translate(402.418 321.012)">
        <g id="Grupo_946927" data-name="Grupo 946927" transform="translate(15.463 14.081)">
          <path id="Trazado_627128" data-name="Trazado 627128" d="M1905.7,425.228a1.259,1.259,0,0,0-.865,1.153V437.5a7.011,7.011,0,0,0,2.891,5.7l6.534,4.187a1.381,1.381,0,0,0,1.461,0l6.534-4.187a7.011,7.011,0,0,0,2.891-5.7V426.41a1.269,1.269,0,0,0-.908-1.168c-7.937-2.717-11.118-2.79-18.537-.014Z" transform="translate(-1904.833 -423.175)" fill="#e8e8e8"/>
          <path id="Trazado_627129" data-name="Trazado 627129" d="M2005.162,425.278c-3.863-1.323-6.6-2.017-9.247-2.062v24.423a1.36,1.36,0,0,0,.73-.209l6.534-4.187a7.011,7.011,0,0,0,2.891-5.7V426.446a1.269,1.269,0,0,0-.908-1.168Z" transform="translate(-1985.76 -423.211)" fill="#636363" opacity="0.4"/>
        </g>
        <g id="Grupo_946928" data-name="Grupo 946928" transform="translate(0 0)">
          <path id="Trazado_627130" data-name="Trazado 627130" d="M1967.528,299.179l2.565.337-1.828,1.831.472,2.544-2.306-1.173-2.273,1.235.4-2.556-1.877-1.781,2.555-.407,1.113-2.335Z" transform="translate(-1940.77 -296.875)" fill="#f3c035"/>
          <path id="Trazado_627131" data-name="Trazado 627131" d="M1967.528,695.658l2.565.337-1.828,1.831.472,2.544-2.306-1.173-2.273,1.235.4-2.556-1.877-1.781,2.555-.407,1.113-2.336Z" transform="translate(-1940.77 -649.151)" fill="#f3c035"/>
          <path id="Trazado_627132" data-name="Trazado 627132" d="M1798.092,396.539l2.565.337-1.828,1.831.472,2.544L1797,400.079l-2.273,1.235.4-2.556-1.877-1.781,2.555-.407,1.113-2.336Z" transform="translate(-1790.225 -383.38)" fill="#f3c035"/>
          <path id="Trazado_627133" data-name="Trazado 627133" d="M2139.312,396.539l2.565.337-1.828,1.831.472,2.544-2.306-1.173-2.273,1.235.4-2.556-1.877-1.781,2.555-.407,1.113-2.336Z" transform="translate(-2093.402 -383.38)" fill="#f3c035"/>
          <path id="Trazado_627134" data-name="Trazado 627134" d="M1798.092,599.471l2.565.337-1.828,1.831.472,2.544L1797,603.011l-2.273,1.235.4-2.556-1.877-1.781,2.555-.407,1.113-2.335Z" transform="translate(-1790.225 -563.688)" fill="#f3c035"/>
          <path id="Trazado_627135" data-name="Trazado 627135" d="M2139.312,599.471l2.565.337-1.828,1.831.472,2.544-2.306-1.173-2.273,1.235.4-2.556-1.877-1.781,2.555-.407,1.113-2.335Z" transform="translate(-2093.402 -563.688)" fill="#f3c035"/>
          <path id="Trazado_627136" data-name="Trazado 627136" d="M1871.546,325.377l2.565.337-1.828,1.831.472,2.544-2.306-1.173-2.273,1.235.4-2.556-1.877-1.781,2.555-.407,1.113-2.335Z" transform="translate(-1855.489 -320.151)" fill="#f3c035"/>
          <path id="Trazado_627137" data-name="Trazado 627137" d="M2068.515,325.377l2.565.337-1.828,1.831.472,2.544-2.306-1.173-2.274,1.235.4-2.556-1.877-1.781,2.555-.407,1.113-2.335Z" transform="translate(-2030.498 -320.151)" fill="#f3c035"/>
          <path id="Trazado_627138" data-name="Trazado 627138" d="M1871.546,670.178l2.565.337-1.828,1.831.472,2.544-2.306-1.173-2.273,1.235.4-2.556-1.877-1.781,2.555-.407,1.113-2.335Z" transform="translate(-1855.489 -626.511)" fill="#f3c035"/>
          <path id="Trazado_627139" data-name="Trazado 627139" d="M2068.515,670.178l2.565.337-1.828,1.831.472,2.544-2.306-1.173-2.274,1.235.4-2.556-1.877-1.781,2.555-.407,1.113-2.335Z" transform="translate(-2030.498 -626.511)" fill="#f3c035"/>
          <path id="Trazado_627140" data-name="Trazado 627140" d="M1770.983,503.284l2.565.337-1.828,1.831.472,2.544-2.306-1.173-2.273,1.235.4-2.556-1.877-1.781,2.555-.407,1.113-2.335Z" transform="translate(-1766.138 -478.224)" fill="#f3c035"/>
          <path id="Trazado_627141" data-name="Trazado 627141" d="M2172.545,503.284l2.565.337-1.828,1.831.472,2.544-2.306-1.173-2.274,1.235.4-2.556-1.877-1.781,2.555-.407,1.114-2.335Z" transform="translate(-2122.93 -478.224)" fill="#f3c035"/>
        </g>
      </g>
      <g id="Grupo_946943" data-name="Grupo 946943" transform="translate(407.317 372.294)">
        <g id="Grupo_946937" data-name="Grupo 946937" transform="translate(9.392 11.362)">
          <g id="Grupo_946936" data-name="Grupo 946936">
            <g id="Grupo_946932" data-name="Grupo 946932" transform="translate(4.746)">
              <g id="Grupo_946930" data-name="Grupo 946930" transform="translate(2.389)">
                <path id="Trazado_627142" data-name="Trazado 627142" d="M570.227,1075.327a.242.242,0,1,1-.343,0A.243.243,0,0,1,570.227,1075.327Z" transform="translate(-568.225 -1075.257)" fill="#d5e5fb"/>
                <path id="Trazado_627143" data-name="Trazado 627143" d="M563.145,1082.475a.242.242,0,1,1-.343,0A.242.242,0,0,1,563.145,1082.475Z" transform="translate(-561.932 -1081.608)" fill="#d5e5fb"/>
                <path id="Trazado_627144" data-name="Trazado 627144" d="M555.628,1089.719a.242.242,0,1,1,0,.343A.243.243,0,0,1,555.628,1089.719Z" transform="translate(-555.558 -1088.043)" fill="#d5e5fb"/>
              </g>
              <g id="Grupo_946931" data-name="Grupo 946931" transform="translate(0 2.412)">
                <path id="Trazado_627145" data-name="Trazado 627145" d="M548.8,1096.96a.242.242,0,1,1-.343,0A.242.242,0,0,1,548.8,1096.96Z" transform="translate(-546.794 -1096.889)" fill="#d5e5fb"/>
                <path id="Trazado_627146" data-name="Trazado 627146" d="M541.715,1104.107a.243.243,0,1,1-.343,0A.243.243,0,0,1,541.715,1104.107Z" transform="translate(-540.502 -1103.24)" fill="#d5e5fb"/>
                <path id="Trazado_627147" data-name="Trazado 627147" d="M534.2,1111.35a.242.242,0,1,1,0,.343A.243.243,0,0,1,534.2,1111.35Z" transform="translate(-534.127 -1109.674)" fill="#d5e5fb"/>
              </g>
            </g>
            <g id="Grupo_946935" data-name="Grupo 946935" transform="translate(0 4.791)">
              <g id="Grupo_946933" data-name="Grupo 946933" transform="translate(2.389)">
                <path id="Trazado_627148" data-name="Trazado 627148" d="M527.653,1118.3a.242.242,0,1,1-.343,0A.242.242,0,0,1,527.653,1118.3Z" transform="translate(-525.651 -1118.231)" fill="#d5e5fb"/>
                <path id="Trazado_627149" data-name="Trazado 627149" d="M520.572,1125.449a.243.243,0,1,1-.343,0A.242.242,0,0,1,520.572,1125.449Z" transform="translate(-519.359 -1124.582)" fill="#d5e5fb"/>
                <path id="Trazado_627150" data-name="Trazado 627150" d="M513.054,1132.692a.242.242,0,1,1,0,.343A.243.243,0,0,1,513.054,1132.692Z" transform="translate(-512.984 -1131.016)" fill="#d5e5fb"/>
              </g>
              <g id="Grupo_946934" data-name="Grupo 946934" transform="translate(0 2.412)">
                <path id="Trazado_627151" data-name="Trazado 627151" d="M506.223,1139.932a.242.242,0,1,1-.343,0A.242.242,0,0,1,506.223,1139.932Z" transform="translate(-504.22 -1139.862)" fill="#d5e5fb"/>
                <path id="Trazado_627152" data-name="Trazado 627152" d="M499.141,1147.081a.242.242,0,1,1-.343,0A.242.242,0,0,1,499.141,1147.081Z" transform="translate(-497.928 -1146.214)" fill="#d5e5fb"/>
                <path id="Trazado_627153" data-name="Trazado 627153" d="M491.624,1154.324a.242.242,0,1,1,0,.343A.242.242,0,0,1,491.624,1154.324Z" transform="translate(-491.554 -1152.648)" fill="#d5e5fb"/>
              </g>
            </g>
          </g>
        </g>
        <g id="Grupo_946940" data-name="Grupo 946940" transform="translate(18.15 0)">
          <g id="Grupo_946938" data-name="Grupo 946938" transform="translate(0)">
            <circle id="Elipse_8220" data-name="Elipse 8220" cx="5.286" cy="5.286" r="5.286" transform="translate(0 10.432) rotate(-80.643)" fill="#e8e8e8"/>
          </g>
          <g id="Grupo_946939" data-name="Grupo 946939" transform="translate(3.106 2.258)">
            <path id="Trazado_627154" data-name="Trazado 627154" d="M609.392,995.294a1.7,1.7,0,1,1,1.7,1.7A1.7,1.7,0,0,1,609.392,995.294Z" transform="translate(-608.119 -993.597)" fill="#ebf3fa"/>
            <path id="Trazado_627155" data-name="Trazado 627155" d="M600.946,1024.035a2.969,2.969,0,0,0-2.969,2.969h5.939A2.969,2.969,0,0,0,600.946,1024.035Z" transform="translate(-597.977 -1020.641)" fill="#ebf3fa"/>
          </g>
        </g>
        <g id="Grupo_946942" data-name="Grupo 946942" transform="translate(0 21.045)">
          <path id="Trazado_627156" data-name="Trazado 627156" d="M412.4,1163.449l-.2-.485a1.376,1.376,0,0,0-1.276-.861h-3.614v12.083h14.95v-9.79h-8.46A1.514,1.514,0,0,1,412.4,1163.449Z" transform="translate(-407.317 -1162.103)" fill="#e8e8e8"/>
          <g id="Grupo_946941" data-name="Grupo 946941" transform="translate(4.441 3.667)">
            <path id="Trazado_627157" data-name="Trazado 627157" d="M452.42,1196.847h-.5a1.424,1.424,0,0,0,.023-.25v-.171a1.43,1.43,0,0,0-1.428-1.428h-.878a1.43,1.43,0,0,0-1.428,1.428v.171a1.424,1.424,0,0,0,.022.25h-.555a.526.526,0,0,0-.525.526v2.292a2.349,2.349,0,0,0,2.349,2.349h1.387a2.207,2.207,0,0,0,2.207-2.207v-2.287A.673.673,0,0,0,452.42,1196.847Zm-2.131,2.307v1.065a.168.168,0,0,1-.336,0v-1.065a.775.775,0,1,1,.336,0Zm1.082-2.557a.85.85,0,0,1-.037.25h-2.518a.851.851,0,0,1-.038-.25v-.171a.858.858,0,0,1,.857-.857h.878a.858.858,0,0,1,.857.857Z" transform="translate(-447.15 -1194.998)" fill="#ebf3fa"/>
          </g>
        </g>
      </g>
      <g id="Grupo_946946" data-name="Grupo 946946" transform="translate(415.406 390.668)">
        <g id="Grupo_946944" data-name="Grupo 946944" transform="translate(0 0)">
          <path id="Trazado_627158" data-name="Trazado 627158" d="M758.05,1141.227a2.829,2.829,0,0,0-3.155-3.077,4.038,4.038,0,0,1,1.58.848,4.065,4.065,0,0,0-4.578.691c-2.386,1.978-.9,6.938-1.629,7.88s-3.551,1.13-3.205,4.175,8.967,6.859,8.413,9.378c0,0,3.379-4.967.963-7.233a4.476,4.476,0,0,1,1.3,2.428s.319-2.574-1.318-3.4a6.046,6.046,0,0,1-2.511-3.87C754.032,1148.573,758.05,1141.227,758.05,1141.227Z" transform="translate(-717.248 -1138.15)" fill="#2c3a64"/>
          <path id="Trazado_627159" data-name="Trazado 627159" d="M786.471,1298.232s2.568,10.624,5.089,12.748c1.515,1.277,6.02,4.206,6.02,4.206l-1.874.68s-6.249-2.11-7.648-3.755-5.229-9.887-5.229-9.887Z" transform="translate(-749.053 -1280.385)" fill="#ffb27d"/>
          <path id="Trazado_627160" data-name="Trazado 627160" d="M823.631,1452.084l-.6-1.495a4.239,4.239,0,0,0-3.931-2.651H807.965v37.222h46.052V1455h-26.06A4.665,4.665,0,0,1,823.631,1452.084Z" transform="translate(-771.386 -1413.4)" fill="#f3c035"/>
          <path id="Trazado_627161" data-name="Trazado 627161" d="M586.258,1385.607l.071.125c.562.977,1.851,3.37,3.271,5.989.672,1.242,1.375,2.536,2.042,3.753,1.149,2.1,2.2,3.971,2.805,4.96.621,1.005,1.077,1.711,1.262,1.994h0a.468.468,0,0,1,.06.291,15.232,15.232,0,0,0,.041,2.634,20.2,20.2,0,0,0,6.6,13.087l1.708.252s-2.417-8.956-3.13-14.02a9.736,9.736,0,0,1-.131-2.007,20.968,20.968,0,0,0-.551-5.48,122.744,122.744,0,0,0-3.493-12.684c-.08-.248-2.482-8.938-2.482-8.938-2.016,1.762-9.371,2.49-9.371,2.49S583.715,1381.086,586.258,1385.607Z" transform="translate(-572.974 -1349.095)" fill="#2f539b"/>
          <path id="Trazado_627162" data-name="Trazado 627162" d="M734.265,1750.178h-7.13a3.916,3.916,0,0,1,.2-1.911c.357-.791.865-.816.065-2.056a4.34,4.34,0,0,0,2.94.521,8.725,8.725,0,0,0,1.236,1.882C732.044,1748.948,734.122,1748.829,734.265,1750.178Z" transform="translate(-699.534 -1678.418)" fill="#233862"/>
          <path id="Trazado_627163" data-name="Trazado 627163" d="M599.017,1432.136l.071.125c.562.977,3.6,6.59,5.021,9.209a37.972,37.972,0,0,1-.5-13.537Z" transform="translate(-585.734 -1395.624)" fill="#233862"/>
          <path id="Trazado_627164" data-name="Trazado 627164" d="M792.813,1161.466a28.581,28.581,0,0,0-4.281,2.094c-1.932,2.143-1.381,4.939-.276,4.966.709.017.572,1.2.572,1.2l7.9-3.341S795.775,1160.836,792.813,1161.466Z" transform="translate(-752.984 -1158.823)" fill="#2c3a64"/>
          <path id="Trazado_627165" data-name="Trazado 627165" d="M780.2,1283.923a10.115,10.115,0,0,1,1.052,4.349,7.557,7.557,0,0,1-5.207,2.867S779.278,1283.921,780.2,1283.923Z" transform="translate(-743.027 -1267.671)" fill="#739af0"/>
          <path id="Trazado_627166" data-name="Trazado 627166" d="M506.248,1366.725l.024-1.333c-2.657.335-9.161-3.175-9.161-3.175s-2.78,1.849-3.16,7.128c-.186,2.577-1.361,13.475-1.491,16.729-.047,1.179-.063,2.021-.069,2.358a.007.007,0,0,1,0,0,.465.465,0,0,1-.113.275,15.222,15.222,0,0,0-1.44,2.207c-4.054,7.543-1.934,17.792-1.934,17.792l.941-.24s3.428-10.625,5.668-15.221a9.618,9.618,0,0,1,1.015-1.737,20.969,20.969,0,0,0,2.606-4.852C500.791,1382.707,506.248,1366.725,506.248,1366.725Z" transform="translate(-487.406 -1337.236)" fill="#2f539b"/>
          <path id="Trazado_627167" data-name="Trazado 627167" d="M487.043,1749.768h-7.13a3.915,3.915,0,0,1,.2-1.911c.357-.791.916-1.151.782-2.108a2.567,2.567,0,0,0,2.222.85,7.815,7.815,0,0,0,1.237,1.6C484.822,1748.538,486.9,1748.418,487.043,1749.768Z" transform="translate(-479.874 -1678.008)" fill="#233862"/>
          <path id="Trazado_627168" data-name="Trazado 627168" d="M587.5,1260.466c-.958.163.156.925-1.161,1.068a23.811,23.811,0,0,0-4.824.749,1.088,1.088,0,0,0-.694.563c-.44,1.322-3.223,3.593-3.223,3.593-12.415-.565-13.215-6.1-13.215-6.1,8.058-7.826,14.912-12.091,20.578-12.619a10.08,10.08,0,0,1,4.109.432c1.981.882,3.067,3.567,3.067,3.567S591.135,1259.845,587.5,1260.466Z" transform="translate(-554.957 -1235.467)" fill="#739af0"/>
          <path id="Trazado_627169" data-name="Trazado 627169" d="M722.549,1291.459a23.781,23.781,0,0,0-4.824.749,19.771,19.771,0,0,1,2.508-10.849S722.138,1289.116,722.549,1291.459Z" transform="translate(-691.171 -1265.393)" fill="#5a7de0"/>
          <path id="Trazado_627170" data-name="Trazado 627170" d="M730.18,1271.913s-4.715-.258-5.552,2.7,1.572,14.775,2.091,15.994c.945,2.22,5.712,8.833,5.712,8.833l1.528-.791s-3.069-9.68-3.754-10.638C729.129,1286.509,731.591,1273.2,730.18,1271.913Z" transform="translate(-697.184 -1256.995)" fill="#ffb27d"/>
          <path id="Trazado_627171" data-name="Trazado 627171" d="M795.9,1510.139a6.95,6.95,0,0,1,.711.73c.317.387.038.527.949,2.282,0,0-.047.244-.244.2s-.885-.725-1.238-.676c0,0-.252.208-.28.9a16.581,16.581,0,0,1-.14,2.333c-.112.268-.93-1.12-1.333-2.124-.353-.88-.009-3.846-.009-3.846Z" transform="translate(-759.129 -1468.483)" fill="#ffb27d"/>
          <path id="Trazado_627172" data-name="Trazado 627172" d="M717.684,1271.606c.012.069,4.462.818,7.244-.594,0,0,2.325-7.283-1-6.935s-5.29,1.395-5.373,2.985A30.612,30.612,0,0,1,717.684,1271.606Z" transform="translate(-691.171 -1250.027)" fill="#739af0"/>
          <path id="Trazado_627173" data-name="Trazado 627173" d="M784.815,1233.856a2.963,2.963,0,0,0,.895,2.074c.591.608,1.445,1.083,2.045.484a6.519,6.519,0,0,0,.928-1.121c.518-.891,1.136-1.8,1.136-1.8l-2.668-2.338-.159-.14A6.8,6.8,0,0,1,785,1233.27.62.62,0,0,0,784.815,1233.856Z" transform="translate(-750.813 -1220.661)" fill="#ffb27d"/>
          <path id="Trazado_627174" data-name="Trazado 627174" d="M808.078,1234.606s-.617.909-1.135,1.8c-1.659-1.023-1.66-3.076-1.532-4.14Z" transform="translate(-769.072 -1221.774)" fill="#ed985f"/>
          <path id="Trazado_627175" data-name="Trazado 627175" d="M807.271,1197.776s-4.027-2.241-2.593-4.727,1.88-4.45,4.512-3.125,2.58,2.56,2.3,3.506S808.355,1198.294,807.271,1197.776Z" transform="translate(-768.191 -1183.772)" fill="#ffb27d"/>
          <path id="Trazado_627176" data-name="Trazado 627176" d="M808.8,1189.3c-.184-1.1-.745-1.209-1.136-1.136a3.221,3.221,0,0,0-3.917-1.5,5.483,5.483,0,0,1-3.174,1.906s.467.87,2.393,1.408a3.288,3.288,0,0,0,1.9-.152,10.751,10.751,0,0,1-2.733,1.03c2.537.232,4.952-2.087,5.2-2.336a3.609,3.609,0,0,1,.2,1.662c-.167.748-.831,2.1-.426,2.277C807.107,1192.458,809.076,1190.952,808.8,1189.3Z" transform="translate(-764.818 -1181.089)" fill="#2c3a64"/>
          <path id="Trazado_627177" data-name="Trazado 627177" d="M917.022,1449.734s-1.124.843-.277,1.394,2.359.7,2.365.338C919.132,1450.253,918.526,1449.39,917.022,1449.734Z" transform="translate(-867.758 -1414.928)" fill="#ffb27d"/>
        </g>
        <g id="Grupo_946945" data-name="Grupo 946945" transform="translate(50.927 46.112)">
          <path id="Trazado_627178" data-name="Trazado 627178" d="M951.972,1557.124H950.52a4.156,4.156,0,0,0,.065-.726v-.5a4.153,4.153,0,0,0-4.149-4.149h-2.55a4.153,4.153,0,0,0-4.148,4.149v.5a4.15,4.15,0,0,0,.064.726H938.19a1.526,1.526,0,0,0-1.526,1.527v6.658a6.824,6.824,0,0,0,6.823,6.823h4.028a6.41,6.41,0,0,0,6.411-6.411v-6.642A1.955,1.955,0,0,0,951.972,1557.124Zm-6.189,6.7v3.093a.488.488,0,0,1-.976,0v-3.093a2.251,2.251,0,1,1,.976,0Zm3.143-7.427a2.471,2.471,0,0,1-.108.726h-7.312a2.471,2.471,0,0,1-.109-.726v-.5a2.493,2.493,0,0,1,2.49-2.49h2.55a2.493,2.493,0,0,1,2.49,2.49Z" transform="translate(-936.664 -1551.753)" fill="#fff4d6"/>
        </g>
      </g>
      <g id="Grupo_946953" data-name="Grupo 946953" transform="translate(590.762 400.797)">
        <g id="Grupo_946947" data-name="Grupo 946947" transform="translate(0 14.528)">
          <path id="Trazado_627179" data-name="Trazado 627179" d="M2114.009,1406.485h-55.9c-7.794-8.956-7.47-19.86,3.163-29.761a20.116,20.116,0,0,1,7.932-4.332,71.558,71.558,0,0,1,10.626-1.479c.016-.006,6.251-.875,8.03-3.038,5.524-6.719,6.944-7.68,6.944-7.68,5.631-1.1,10.434-1.424,14,.567a0,0,0,0,0,0,0c3.3,1.847,5.532,5.683,6.368,12.732.158,1.333.267,2.781.323,4.352.2,5.721,1.327,10.809,1.993,15.118,0,0,0,0,0,0C2118.452,1399.208,2119.135,1403.954,2114.009,1406.485Z" transform="translate(-2052.719 -1359.316)" fill="#636363"/>
        </g>
        <path id="Trazado_627180" data-name="Trazado 627180" d="M2232.885,1367.909c-3.417,1.861-3.794,7.993-9.143,9.576s-14.426,1.439-19.575,7.025c-4.968,5.389-10.447-8.321-8.088-12.178a71.919,71.919,0,0,1,10.626-1.472c.016-.006,7.627-.037,9.405-2.19,5.525-6.688,5.569-8.479,5.569-8.479,5.632-1.1,10.435-1.417,14,.565v0C2239.6,1364.81,2236.3,1366.048,2232.885,1367.909Z" transform="translate(-2179.594 -1344.789)" fill="#888787"/>
        <path id="Trazado_627181" data-name="Trazado 627181" d="M2403.5,1505.291c-7.842-9.789-23.952,3.556-28.121,3.179-3.833-.346,7.474-13.726,21.5-15.717,5.668-.8,4.311-6.662,4.308-6.843.159,1.327.267,2.768.323,4.332C2401.716,1495.937,2402.838,1501,2403.5,1505.291Z" transform="translate(-2338.739 -1457.268)" fill="#888787"/>
        <g id="Grupo_946952" data-name="Grupo 946952" transform="translate(8.093 0)">
          <g id="Grupo_946951" data-name="Grupo 946951">
            <path id="Trazado_627182" data-name="Trazado 627182" d="M2206.337,1669.273a16.263,16.263,0,0,0-.834,3.662c-.163.659-3.037,2.9-3.284,2.789-.629-.284-.028-1.379.355-2.179.016-.032.031-.064.045-.1.379-.807.053-2.608.249-3.538s-.747-3.434-.747-3.434l1.587-2.005s1.116,2.123,1.914,2.509a1.948,1.948,0,0,1,.389.248A1.552,1.552,0,0,1,2206.337,1669.273Z" transform="translate(-2193.401 -1615.921)" fill="#ffb27d"/>
            <path id="Trazado_627183" data-name="Trazado 627183" d="M2365.5,1229.023a6.717,6.717,0,0,0-4.068,1.879,8.668,8.668,0,0,0-1.96,2.688c-1.047,2.39-.687,5.171-1.285,6.7s-.958,1.792,0,2.483,1.118,1.349-.027,2.081-1.99,3.015,1.2,3.213,9.385-.961,10.181-1.551,2.97-1.469,4.012-3.049c2.083-3.159.424-5.281-1.186-5.816C2369.92,1236.833,2370.821,1228.577,2365.5,1229.023Z" transform="translate(-2331.286 -1229.006)" fill="#163560"/>
            <path id="Trazado_627184" data-name="Trazado 627184" d="M2336.271,1347.847s-3.167,7.149-3.826,7.771-3.749,1.836-3.471,2.878,2.6,2.048,3.576,1.805,3.437-4.443,3.437-4.443Z" transform="translate(-2306.251 -1334.597)" fill="#b0c0d2"/>
            <path id="Trazado_627185" data-name="Trazado 627185" d="M2331.425,1397.237s.171-1.23,3.172-1.626c1.666-.22,4.452-4.865,4.452-4.865l-2.786,7.324-2.7,1.167Z" transform="translate(-2308.445 -1372.713)" fill="#727997"/>
            <path id="Trazado_627186" data-name="Trazado 627186" d="M2196.677,1467.78s-15.63-1.094-17.771,1.387c-1.7,1.968,1.4,23.47,1.4,23.47s4.253.124,4.588-1c0,0-.794-10.439-.129-12.244a10.042,10.042,0,0,0,.245-4.3s8.322,1.246,10.961.614S2196.677,1467.78,2196.677,1467.78Z" transform="translate(-2172.478 -1440.945)" fill="#233862"/>
            <path id="Trazado_627187" data-name="Trazado 627187" d="M2132.665,1720.344a16.281,16.281,0,0,0-3,2.259c-.55.4-4.192.257-4.308.012-.309-.647.965-1.107,1.774-1.479l.036-.017,0,0c.8-.4,1.7-1.949,2.436-2.524s1.644-3.1,1.644-3.1l2.507-.508s-.516,2.342-.156,3.152a2.006,2.006,0,0,1,.086.231A1.554,1.554,0,0,1,2132.665,1720.344Z" transform="translate(-2125.31 -1660.799)" fill="#ffb27d"/>
            <path id="Trazado_627188" data-name="Trazado 627188" d="M2197.245,1476.544s-17.053,1.733-18.551,3.473-7.391,24.374-7.391,24.374a3.662,3.662,0,0,0,3.322.063s4.512-7.678,6.508-10.088,2.706-8.706,3.77-9.383c.285-.182,10.319.947,14-1.878S2197.245,1476.544,2197.245,1476.544Z" transform="translate(-2166.175 -1448.946)" fill="#12263f"/>
            <path id="Trazado_627189" data-name="Trazado 627189" d="M2346.95,1346.68a19.689,19.689,0,0,1-1.423,2.339,7.772,7.772,0,0,1-4.356,3.392c-2.326.483-10.125-4.044-9.73-6.541.214-1.359,4.549-3.8,5.247-4.788s1.119-5.929,1.492-7.947c.278-1.5,1.209-1.658,2.372-2.057a11.519,11.519,0,0,1,8.461.1C2351.274,1332.448,2350.017,1340.814,2346.95,1346.68Z" transform="translate(-2308.446 -1319.051)" fill="#b0c0d2"/>
            <path id="Trazado_627190" data-name="Trazado 627190" d="M2421.3,1241.228a21.519,21.519,0,0,0,.372-2.506c.076-.924-1.328-3.937-3.508-3.812a4.62,4.62,0,0,0-1.84.9c-.688.566-1.648,1.738-.185,4.566l.4.964Z" transform="translate(-2383.032 -1234.248)" fill="#163560"/>
            <g id="Grupo_946948" data-name="Grupo 946948" transform="translate(30.473 1.958)">
              <path id="Trazado_627191" data-name="Trazado 627191" d="M2427.535,1300.758c.071.516.531.811,1.554.745s2.508-.7,2.385-1.174a14.2,14.2,0,0,1-.757-3.9l-.188.053-3.168.89s.153,1.007.23,1.961A12.4,12.4,0,0,1,2427.535,1300.758Z" transform="translate(-2424.16 -1290.867)" fill="#ffb27d"/>
              <path id="Trazado_627192" data-name="Trazado 627192" d="M2427.362,1297.788s.153,1.007.23,1.961c1.8-.192,2.62-1.91,2.938-2.851Z" transform="translate(-2424.16 -1291.287)" fill="#f4a269"/>
              <path id="Trazado_627193" data-name="Trazado 627193" d="M2404.9,1257.5s4.145-1.042,3.456-3.614-.618-4.437-3.293-3.88-2.925,1.675-2.9,2.589S2403.806,1257.709,2404.9,1257.5Z" transform="translate(-2401.767 -1249.539)" fill="#ffb27d"/>
              <path id="Trazado_627194" data-name="Trazado 627194" d="M2411.2,1247.482s1.391,2.652,4.017,2.938a2.3,2.3,0,0,1,1.958,1.18,24.1,24.1,0,0,0-1.233-4.664S2411.67,1245.818,2411.2,1247.482Z" transform="translate(-2409.803 -1246.568)" fill="#163560"/>
              <path id="Trazado_627195" data-name="Trazado 627195" d="M2400.514,1254.462a7.226,7.226,0,0,0-1.188,1.579c-.415.967.394,3,.728,3.444,0,0-1.928-3.273-1.284-4.69A.974.974,0,0,1,2400.514,1254.462Z" transform="translate(-2398.639 -1253.197)" fill="#163560"/>
            </g>
            <path id="Trazado_627196" data-name="Trazado 627196" d="M2258.407,1466.861s-.825.874-.926.921a5.716,5.716,0,0,1-1.569.19c-.333.083-.276-.124-.03-.292s.85-.1.6-.164a6.728,6.728,0,0,0-2.084-.176,1.873,1.873,0,0,1-1.473-.119,6.537,6.537,0,0,1,2.349-.962c.533.031,2.066-.043,2.066-.043Z" transform="translate(-2238.7 -1439.771)" fill="#ffb27d"/>
            <path id="Trazado_627197" data-name="Trazado 627197" d="M2408.879,1352.217s.5,12.157-.933,13.861c-1.385,1.652-7.3.531-9.863-.024a.716.716,0,0,0-.571.165c-.2.179-.287-1.217-.287-1.217s7.721-1.13,8.24-1.276c.746-.211.227-8.582.227-8.582Z" transform="translate(-2366.909 -1338.48)" fill="#ffb27d"/>
            <path id="Trazado_627198" data-name="Trazado 627198" d="M2377.914,1470.313s-.692.7-.955,1.059-2.1,1.007-2.144.815.823-.776.9-.993a3.859,3.859,0,0,1,1.6-1.436C2377.886,1469.634,2377.914,1470.313,2377.914,1470.313Z" transform="translate(-2346.996 -1442.903)" fill="#ffb27d"/>
            <path id="Trazado_627199" data-name="Trazado 627199" d="M2361.293,1466.887s-2.837.656-3.318.853-1.5,1.642-1.1,1.859c.256.137,1.376-.454,1.944-.577s2.178.156,2.915-1.3C2361.819,1467.558,2361.293,1466.887,2361.293,1466.887Z" transform="translate(-2330.978 -1440.366)" fill="#ffb27d"/>
            <path id="Trazado_627200" data-name="Trazado 627200" d="M2132.665,1747.306a16.265,16.265,0,0,0-3,2.259c-.55.4-4.192.257-4.308.012-.309-.647.965-1.107,1.774-1.48l.036-.016,0,0,.114-.037a4.481,4.481,0,0,0,2.877,0c1.019-.437,2.529-2.057,3.526-2.716A1.554,1.554,0,0,1,2132.665,1747.306Z" transform="translate(-2125.31 -1687.761)" fill="#2a4e96"/>
            <path id="Trazado_627201" data-name="Trazado 627201" d="M2206.337,1691.247a16.261,16.261,0,0,0-.834,3.662c-.163.659-3.037,2.9-3.284,2.789-.629-.284-.028-1.379.355-2.179a1.786,1.786,0,0,0,.877-.326,6.367,6.367,0,0,0,2.045-3.351c.089-.868.033-2.113.515-2.638A1.552,1.552,0,0,1,2206.337,1691.247Z" transform="translate(-2193.401 -1637.895)" fill="#193b72"/>
            <g id="Grupo_946950" data-name="Grupo 946950" transform="translate(10.585 20.356)">
              <g id="Grupo_946949" data-name="Grupo 946949">
                <path id="Trazado_627202" data-name="Trazado 627202" d="M2236.32,1420.832h-12.356l-3.717-9.243h12.337Z" transform="translate(-2220.247 -1411.589)" fill="#727997"/>
                <path id="Trazado_627203" data-name="Trazado 627203" d="M2252.287,1491.265H2268.6v.36h-16.172Z" transform="translate(-2248.715 -1482.382)" fill="#12263f"/>
              </g>
              <path id="Trazado_627204" data-name="Trazado 627204" d="M2281.374,1448.353a.428.428,0,0,1,.419-.588.842.842,0,0,1,.757.588.428.428,0,0,1-.419.588A.842.842,0,0,1,2281.374,1448.353Z" transform="translate(-2274.538 -1443.732)" fill="#fff"/>
            </g>
            <path id="Trazado_627205" data-name="Trazado 627205" d="M2420.157,1476.82a19.659,19.659,0,0,1-1.424,2.339c-3.96-.148-4.915-1.749-4.915-1.749Z" transform="translate(-2381.652 -1449.191)" fill="#727997"/>
            <path id="Trazado_627206" data-name="Trazado 627206" d="M2415.477,1387.915s4.521-1.038,5.083-2.01,1.348-7.444,1.348-7.444l1.886,2.418-.382,5.69a20.962,20.962,0,0,1-2.291,2.051C2420.983,1388.544,2415.477,1387.915,2415.477,1387.915Z" transform="translate(-2383.126 -1361.799)" fill="#727997"/>
            <path id="Trazado_627207" data-name="Trazado 627207" d="M2420.608,1337.758a4,4,0,0,1,1.485,1.295c.786,1.436,1.625,12.564-.608,14.4s-8.716,1.472-9.478.17a3.842,3.842,0,0,1,.385-1.876s5.836-.771,6.1-1.138-.189-8.252.087-8.968S2420.608,1337.758,2420.608,1337.758Z" transform="translate(-2380.041 -1325.633)" fill="#b0c0d2"/>
          </g>
        </g>
        <path id="Trazado_627208" data-name="Trazado 627208" d="M2304.62,1477.463s-1.684,1.578-8.733,1.805c-5.512.177-11.318,2.4-14.03,6.216a10.885,10.885,0,0,0-1.479,4c-.368,2.169,13.379,5.542,13.6,5.227s9.054-7.9,9.054-7.9Z" transform="translate(-2254.989 -1449.763)" fill="#888787"/>
      </g>
      <g id="Grupo_946954" data-name="Grupo 946954" transform="translate(560.921 370.724)">
        <path id="Trazado_627209" data-name="Trazado 627209" d="M1926.182,1087.079s6.855,7.107,7.179,9.783-3.284,6.851-3.284,6.851Z" transform="translate(-1910.448 -1072.829)" fill="#e3b434"/>
        <path id="Trazado_627210" data-name="Trazado 627210" d="M1824.518,1738.054s-.242,3.77-.971,3.823c-.1.007-3.7,0-3.7,0l-4.6-.037a1.492,1.492,0,0,1,1.377-1.339c1.345-.231,3.6-1.171,4.415-2.946C1821.9,1735.686,1824.518,1738.054,1824.518,1738.054Z" transform="translate(-1811.882 -1650.145)" fill="#0e2644"/>
        <path id="Trazado_627211" data-name="Trazado 627211" d="M1916.4,1738.253s-.242,3.77-.971,3.823c-.1.007-3.7,0-3.7,0l-4.6-.037a1.492,1.492,0,0,1,1.377-1.339c1.345-.231,3.6-1.171,4.416-2.946C1913.783,1735.885,1916.4,1738.253,1916.4,1738.253Z" transform="translate(-1893.52 -1650.322)" fill="#0e2644"/>
        <path id="Trazado_627212" data-name="Trazado 627212" d="M1853.5,1338.481s1.186,7.7,5.644,21.362,5.056,19.582,5.056,19.582l4.814-.125s.074-14.925-1.979-21.8-.393-24.759-.393-24.759Z" transform="translate(-1845.872 -1291.106)" fill="#233862"/>
        <path id="Trazado_627213" data-name="Trazado 627213" d="M1832.553,1336.224a186.72,186.72,0,0,0,1.779,25.831c1.975,14.239,1.282,20.279,1.282,20.279l4.8.17s2.9-14.233,2.094-21.36,3.985-24.439,3.985-24.439Z" transform="translate(-1827.254 -1294.197)" fill="#12263f"/>
        <path id="Trazado_627214" data-name="Trazado 627214" d="M1866.644,1047.383l-2.563,1.673-3.7-.7c.052-.3.3-1.536.524-2.656.013-.066.027-.132.04-.2.193-.953.359-1.773.359-1.773l3.458-1.517,1.289-.566c0,.02-.1,1.058-.116,1.21A8.806,8.806,0,0,0,1866.644,1047.383Z" transform="translate(-1851.985 -1032.465)" fill="#ffb27d"/>
        <path id="Trazado_627215" data-name="Trazado 627215" d="M1857.094,1076.054c.072-.03,4.457-1.314,4.933-1.156s.756,1.08.756,1.08l-7.172,1.605A3.56,3.56,0,0,1,1857.094,1076.054Z" transform="translate(-1847.745 -1061.995)" fill="#e3b43c"/>
        <path id="Trazado_627216" data-name="Trazado 627216" d="M1841.8,1113.893c-.75,3.387-13.115,3.762-16.3.679-.362-.351-.376-1.983-.235-4.182.277-4.3,1.15-10.76,1.19-14.063a26.14,26.14,0,0,1,.538-4.707,38.218,38.218,0,0,1,1.58-5.631s6.043-1.939,7.172-1.6C1841.193,1086,1842.552,1110.506,1841.8,1113.893Z" transform="translate(-1820.714 -1070.401)" fill="#f3c035"/>
        <path id="Trazado_627217" data-name="Trazado 627217" d="M1825.935,1163.321c.277-4.3,1.15-10.76,1.19-14.063a26.148,26.148,0,0,1,.538-4.706l3.634-.633S1834.817,1158.434,1825.935,1163.321Z" transform="translate(-1821.378 -1123.332)" fill="#e3b434"/>
        <path id="Trazado_627218" data-name="Trazado 627218" d="M1835.413,1259.768a.855.855,0,0,1-.275.989,1.658,1.658,0,0,0-.741,1.51c.118.471,1.257,1.241,1.653,1.118s1.2-.741,1.115-.989.546-2.177-.416-2.922A.778.778,0,0,0,1835.413,1259.768Z" transform="translate(-1828.875 -1225.765)" fill="#ffb27d"/>
        <path id="Trazado_627219" data-name="Trazado 627219" d="M1795.7,1091.343a11.006,11.006,0,0,0-6.376,4.809c-2.832,4.154-4.7,7.243-4.179,8.743s5.246,6.711,6.063,6.713a2.191,2.191,0,0,0,2.214-1.927s-3.326-5.009-2.667-5.757c.282-.319,4.341-3.6,4.916-2.113C1796.622,1104.273,1795.7,1091.343,1795.7,1091.343Z" transform="translate(-1785.058 -1076.618)" fill="#f3c035"/>
        <path id="Trazado_627220" data-name="Trazado 627220" d="M1869.85,1047.412c-.761,1.284-3.591,2.389-4.771,2.795.014-.066.027-.132.04-.2.193-.953.359-1.773.359-1.773l3.458-1.517C1869.7,1046.712,1870.164,1046.883,1869.85,1047.412Z" transform="translate(-1856.157 -1036.97)" fill="#fca56b"/>
        <path id="Trazado_627221" data-name="Trazado 627221" d="M1851.472,985.469s5.562,1.748,6.6-1.732,2.451-5.6-1.057-6.862-4.6-.141-5.224.936S1850.052,984.924,1851.472,985.469Z" transform="translate(-1843.453 -974.414)" fill="#ffb27d"/>
        <path id="Trazado_627222" data-name="Trazado 627222" d="M1857.641,962.328s.346,4.053,1.185,3.879,1.6-.3,1.473.918-1.291,2.629,1.292,2.851,6.31-6.431,5.6-7.694C1865.155,958.639,1854.692,957.882,1857.641,962.328Z" transform="translate(-1849.087 -959.266)" fill="#163560"/>
      </g>
      <g id="Grupo_946977" data-name="Grupo 946977" transform="translate(594.647 351.674)">
        <g id="Grupo_946976" data-name="Grupo 946976" transform="translate(5.893 0)">
          <g id="Grupo_946962" data-name="Grupo 946962" transform="translate(13.73 11.511)">
            <g id="Grupo_946961" data-name="Grupo 946961">
              <g id="Grupo_946957" data-name="Grupo 946957">
                <g id="Grupo_946955" data-name="Grupo 946955">
                  <path id="Trazado_627223" data-name="Trazado 627223" d="M2263.655,891.715a.264.264,0,1,0,.373,0A.264.264,0,0,0,2263.655,891.715Z" transform="translate(-2263.577 -891.638)" fill="#d5e5fb"/>
                  <path id="Trazado_627224" data-name="Trazado 627224" d="M2271.364,899.5a.264.264,0,1,0,.373,0A.264.264,0,0,0,2271.364,899.5Z" transform="translate(-2270.427 -898.552)" fill="#d5e5fb"/>
                  <path id="Trazado_627225" data-name="Trazado 627225" d="M2279.548,907.383a.264.264,0,1,0,0,.373A.264.264,0,0,0,2279.548,907.383Z" transform="translate(-2277.366 -905.558)" fill="#d5e5fb"/>
                </g>
                <g id="Grupo_946956" data-name="Grupo 946956" transform="translate(2.601 2.626)">
                  <path id="Trazado_627226" data-name="Trazado 627226" d="M2286.986,915.265a.264.264,0,1,0,.373,0A.264.264,0,0,0,2286.986,915.265Z" transform="translate(-2286.907 -915.189)" fill="#d5e5fb"/>
                  <path id="Trazado_627227" data-name="Trazado 627227" d="M2294.7,923.047a.264.264,0,1,0,.373,0A.263.263,0,0,0,2294.7,923.047Z" transform="translate(-2293.758 -922.103)" fill="#d5e5fb"/>
                  <path id="Trazado_627228" data-name="Trazado 627228" d="M2302.879,930.933a.264.264,0,1,0,0,.373A.264.264,0,0,0,2302.879,930.933Z" transform="translate(-2300.698 -929.108)" fill="#d5e5fb"/>
                </g>
              </g>
              <g id="Grupo_946960" data-name="Grupo 946960" transform="translate(5.167 5.216)">
                <g id="Grupo_946958" data-name="Grupo 946958">
                  <path id="Trazado_627229" data-name="Trazado 627229" d="M2310,938.5a.264.264,0,1,0,.373,0A.264.264,0,0,0,2310,938.5Z" transform="translate(-2309.926 -938.423)" fill="#d5e5fb"/>
                  <path id="Trazado_627230" data-name="Trazado 627230" d="M2317.713,946.282a.264.264,0,1,0,.373,0A.264.264,0,0,0,2317.713,946.282Z" transform="translate(-2316.776 -945.338)" fill="#d5e5fb"/>
                  <path id="Trazado_627231" data-name="Trazado 627231" d="M2325.9,954.168a.264.264,0,1,0,0,.373A.264.264,0,0,0,2325.9,954.168Z" transform="translate(-2323.716 -952.343)" fill="#d5e5fb"/>
                </g>
                <g id="Grupo_946959" data-name="Grupo 946959" transform="translate(2.601 2.626)">
                  <path id="Trazado_627232" data-name="Trazado 627232" d="M2333.334,962.05a.264.264,0,1,0,.374,0A.264.264,0,0,0,2333.334,962.05Z" transform="translate(-2333.256 -961.974)" fill="#d5e5fb"/>
                  <path id="Trazado_627233" data-name="Trazado 627233" d="M2341.045,969.832a.264.264,0,1,0,.374,0A.264.264,0,0,0,2341.045,969.832Z" transform="translate(-2340.107 -968.888)" fill="#d5e5fb"/>
                  <path id="Trazado_627234" data-name="Trazado 627234" d="M2349.229,977.718a.264.264,0,1,0,0,.373A.264.264,0,0,0,2349.229,977.718Z" transform="translate(-2347.047 -975.893)" fill="#d5e5fb"/>
                </g>
              </g>
            </g>
          </g>
          <g id="Grupo_946970" data-name="Grupo 946970" transform="translate(0 14.259)">
            <g id="Grupo_946969" data-name="Grupo 946969">
              <g id="Grupo_946965" data-name="Grupo 946965" transform="translate(1.647)">
                <g id="Grupo_946963" data-name="Grupo 946963" transform="translate(0.829)">
                  <path id="Trazado_627235" data-name="Trazado 627235" d="M2167.908,916.292a.264.264,0,1,0,.2.316A.264.264,0,0,0,2167.908,916.292Z" transform="translate(-2167.033 -916.285)" fill="#d5e5fb"/>
                  <path id="Trazado_627236" data-name="Trazado 627236" d="M2165.45,926.967a.264.264,0,1,0,.2.316A.264.264,0,0,0,2165.45,926.967Z" transform="translate(-2164.85 -925.77)" fill="#d5e5fb"/>
                  <path id="Trazado_627237" data-name="Trazado 627237" d="M2163.159,938.1a.264.264,0,1,0-.316.2A.264.264,0,0,0,2163.159,938.1Z" transform="translate(-2162.637 -935.379)" fill="#d5e5fb"/>
                </g>
                <g id="Grupo_946964" data-name="Grupo 946964" transform="translate(0 3.602)">
                  <path id="Trazado_627238" data-name="Trazado 627238" d="M2160.471,948.6a.264.264,0,1,0,.2.316A.264.264,0,0,0,2160.471,948.6Z" transform="translate(-2159.596 -948.59)" fill="#d5e5fb"/>
                  <path id="Trazado_627239" data-name="Trazado 627239" d="M2158.014,959.273a.264.264,0,1,0,.2.316A.264.264,0,0,0,2158.014,959.273Z" transform="translate(-2157.413 -958.076)" fill="#d5e5fb"/>
                  <path id="Trazado_627240" data-name="Trazado 627240" d="M2155.722,970.4a.264.264,0,1,0-.316.2A.264.264,0,0,0,2155.722,970.4Z" transform="translate(-2155.201 -967.685)" fill="#d5e5fb"/>
                </g>
              </g>
              <g id="Grupo_946968" data-name="Grupo 946968" transform="translate(0 7.155)">
                <g id="Grupo_946966" data-name="Grupo 946966" transform="translate(0.829)">
                  <path id="Trazado_627241" data-name="Trazado 627241" d="M2153.134,980.47a.264.264,0,1,0,.2.316A.264.264,0,0,0,2153.134,980.47Z" transform="translate(-2152.259 -980.463)" fill="#d5e5fb"/>
                  <path id="Trazado_627242" data-name="Trazado 627242" d="M2150.676,991.145a.264.264,0,1,0,.2.316A.264.264,0,0,0,2150.676,991.145Z" transform="translate(-2150.076 -989.948)" fill="#d5e5fb"/>
                  <path id="Trazado_627243" data-name="Trazado 627243" d="M2148.385,1002.277a.264.264,0,1,0-.316.2A.264.264,0,0,0,2148.385,1002.277Z" transform="translate(-2147.864 -999.558)" fill="#d5e5fb"/>
                </g>
                <g id="Grupo_946967" data-name="Grupo 946967" transform="translate(0 3.602)">
                  <path id="Trazado_627244" data-name="Trazado 627244" d="M2145.7,1012.776a.264.264,0,1,0,.2.316A.264.264,0,0,0,2145.7,1012.776Z" transform="translate(-2144.823 -1012.769)" fill="#d5e5fb"/>
                  <path id="Trazado_627245" data-name="Trazado 627245" d="M2143.241,1023.451a.264.264,0,1,0,.2.316A.264.264,0,0,0,2143.241,1023.451Z" transform="translate(-2142.64 -1022.254)" fill="#d5e5fb"/>
                  <path id="Trazado_627246" data-name="Trazado 627246" d="M2140.948,1034.582a.264.264,0,1,0-.316.2A.264.264,0,0,0,2140.948,1034.582Z" transform="translate(-2140.427 -1031.863)" fill="#d5e5fb"/>
                </g>
              </g>
            </g>
          </g>
          <g id="Grupo_946973" data-name="Grupo 946973" transform="translate(1.851)">
            <g id="Grupo_946971" data-name="Grupo 946971">
              <path id="Trazado_627247" data-name="Trazado 627247" d="M2168.542,794.148a5.755,5.755,0,1,0-5.755,5.755A5.755,5.755,0,0,0,2168.542,794.148Z" transform="translate(-2157.031 -788.393)" fill="#e8e8e8"/>
            </g>
            <g id="Grupo_946972" data-name="Grupo 946972" transform="translate(2.523 1.599)">
              <path id="Trazado_627248" data-name="Trazado 627248" d="M2195.78,804.583a1.847,1.847,0,1,0-1.847,1.847A1.847,1.847,0,0,0,2195.78,804.583Z" transform="translate(-2190.699 -802.736)" fill="#ebf3fa"/>
              <path id="Trazado_627249" data-name="Trazado 627249" d="M2182.891,835.873a3.233,3.233,0,0,1,3.233,3.233h-6.466A3.233,3.233,0,0,1,2182.891,835.873Z" transform="translate(-2179.658 -832.179)" fill="#ebf3fa"/>
            </g>
          </g>
          <g id="Grupo_946975" data-name="Grupo 946975" transform="translate(16.096 22.052)">
            <path id="Trazado_627250" data-name="Trazado 627250" d="M2290.34,987.651l-.213-.528a1.5,1.5,0,0,0-1.389-.937H2284.8v13.155h16.276V988.683h-9.21A1.649,1.649,0,0,1,2290.34,987.651Z" transform="translate(-2284.803 -986.186)" fill="#e8e8e8"/>
            <g id="Grupo_946974" data-name="Grupo 946974" transform="translate(4.835 3.993)">
              <path id="Trazado_627251" data-name="Trazado 627251" d="M2333.907,1024.013h-.544a1.541,1.541,0,0,0,.025-.272v-.186a1.557,1.557,0,0,0-1.555-1.555h-.956a1.557,1.557,0,0,0-1.555,1.555v.186a1.564,1.564,0,0,0,.024.272h-.6a.572.572,0,0,0-.572.572v2.5a2.558,2.558,0,0,0,2.557,2.558h1.51a2.4,2.4,0,0,0,2.4-2.4v-2.489A.733.733,0,0,0,2333.907,1024.013Zm-2.32,2.512v1.159a.183.183,0,0,1-.366,0v-1.159a.844.844,0,1,1,.366,0Zm1.178-2.784a.929.929,0,0,1-.041.272h-2.741a.937.937,0,0,1-.041-.272v-.186a.934.934,0,0,1,.933-.933h.956a.934.934,0,0,1,.933.933Z" transform="translate(-2328.169 -1022)" fill="#ebf3fa"/>
            </g>
          </g>
        </g>
        <path id="Trazado_627252" data-name="Trazado 627252" d="M2087.566,1068.039c0,2.939,4.978,8.3,4.978,8.3s4.976-5.365,4.976-8.3a4.988,4.988,0,1,0-9.954,0Zm2.09-.539a2.888,2.888,0,1,1,2.888,2.888A2.888,2.888,0,0,1,2089.656,1067.5Z" transform="translate(-2087.566 -1032.135)" fill="#e8e8e8"/>
      </g>
      <g id="Grupo_946978" data-name="Grupo 946978" transform="translate(472.417 371.916)">
        <path id="Trazado_627253" data-name="Trazado 627253" d="M1055.947,1084.444c-.123-.508.1-.906.57-.907a1.107,1.107,0,0,1,1,.9c.123.508-.1.906-.57.907A1.1,1.1,0,0,1,1055.947,1084.444Zm1.173,0c-.077-.318-.292-.557-.525-.557s-.328.233-.249.558.289.557.524.557S1057.2,1084.764,1057.12,1084.442Z" transform="translate(-1048.701 -1070.874)" fill="#f99746"/>
        <path id="Trazado_627254" data-name="Trazado 627254" d="M991.672,970.544l-.29.076-.157-.315.472-.151h.266l.427,1.763H992Z" transform="translate(-991.224 -970.131)" fill="#2f539b"/>
        <path id="Trazado_627255" data-name="Trazado 627255" d="M1007.347,970.878c-.123-.508.1-.906.57-.907a1.107,1.107,0,0,1,1,.9c.123.508-.1.906-.57.907A1.1,1.1,0,0,1,1007.347,970.878Zm1.173,0c-.077-.318-.292-.558-.524-.557s-.328.233-.249.558.289.557.524.557S1008.6,971.2,1008.52,970.876Z" transform="translate(-1005.52 -969.969)" fill="#2f539b"/>
        <path id="Trazado_627256" data-name="Trazado 627256" d="M1081.695,1189.381c-.123-.508.1-.906.57-.907a1.107,1.107,0,0,1,1,.9c.123.508-.1.906-.57.907A1.1,1.1,0,0,1,1081.695,1189.381Zm1.173,0c-.077-.318-.292-.558-.525-.557s-.328.233-.249.558.289.557.525.557S1082.946,1189.7,1082.868,1189.379Z" transform="translate(-1071.579 -1164.111)" fill="#2f539b"/>
        <path id="Trazado_627257" data-name="Trazado 627257" d="M1009.563,1044.437l-.291.075-.157-.315.472-.151h.266l.427,1.763h-.384Z" transform="translate(-1007.12 -1035.785)" fill="#2f539b"/>
        <path id="Trazado_627258" data-name="Trazado 627258" d="M1025.239,1044.77c-.123-.508.1-.906.57-.907a1.107,1.107,0,0,1,1,.9c.123.508-.1.906-.57.907A1.1,1.1,0,0,1,1025.239,1044.77Zm1.173,0c-.077-.318-.292-.557-.525-.557s-.328.233-.249.558.289.557.525.557S1026.49,1045.09,1026.412,1044.768Z" transform="translate(-1021.417 -1035.623)" fill="#2f539b"/>
        <path id="Trazado_627259" data-name="Trazado 627259" d="M1019.869,1007.264l-.29.076-.157-.315.472-.151h.266l.427,1.763h-.384Z" transform="translate(-1016.277 -1002.757)" fill="#f99746"/>
        <path id="Trazado_627260" data-name="Trazado 627260" d="M1035.545,1007.6c-.123-.508.1-.906.569-.907a1.107,1.107,0,0,1,1,.9c.123.508-.1.906-.57.907A1.1,1.1,0,0,1,1035.545,1007.6Zm1.173,0c-.077-.318-.292-.558-.525-.557s-.328.233-.249.558.289.557.525.557S1036.8,1007.918,1036.718,1007.6Z" transform="translate(-1030.574 -1002.595)" fill="#f99746"/>
        <path id="Trazado_627261" data-name="Trazado 627261" d="M1019.178,1084.146l-.29.076-.157-.315.472-.151h.266l.427,1.763h-.384Z" transform="translate(-1015.663 -1071.067)" fill="#2f539b"/>
        <path id="Trazado_627262" data-name="Trazado 627262" d="M1034.854,1084.479c-.123-.508.1-.906.57-.907a1.107,1.107,0,0,1,1,.9c.123.508-.1.906-.57.907A1.1,1.1,0,0,1,1034.854,1084.479Zm1.173,0c-.077-.318-.292-.557-.525-.557s-.328.233-.249.558.289.558.525.557S1036.1,1084.8,1036.027,1084.477Z" transform="translate(-1029.96 -1070.905)" fill="#2f539b"/>
        <path id="Trazado_627263" data-name="Trazado 627263" d="M1067.184,970.86c-.123-.508.1-.906.57-.907a1.107,1.107,0,0,1,1,.9c.123.508-.1.906-.57.907A1.1,1.1,0,0,1,1067.184,970.86Zm1.173,0c-.077-.318-.292-.557-.524-.557s-.328.233-.25.559.289.557.525.557S1068.435,971.18,1068.357,970.858Z" transform="translate(-1058.686 -969.953)" fill="#f99746"/>
        <path id="Trazado_627264" data-name="Trazado 627264" d="M1030.416,970.562l-.29.076-.157-.315.472-.151h.266l.427,1.763h-.384Z" transform="translate(-1025.648 -970.147)" fill="#2f539b"/>
        <path id="Trazado_627265" data-name="Trazado 627265" d="M1046.091,970.9c-.123-.508.1-.906.57-.907a1.106,1.106,0,0,1,1,.9c.123.508-.1.906-.57.907A1.1,1.1,0,0,1,1046.091,970.9Zm1.173,0c-.077-.318-.292-.558-.524-.557s-.328.233-.25.558.289.557.525.557S1047.342,971.216,1047.264,970.894Z" transform="translate(-1039.944 -969.985)" fill="#2f539b"/>
        <path id="Trazado_627266" data-name="Trazado 627266" d="M1074.317,1161.149c-.123-.508.1-.906.57-.907a1.107,1.107,0,0,1,1,.9c.123.508-.1.906-.57.907A1.1,1.1,0,0,1,1074.317,1161.149Zm1.173,0c-.077-.317-.292-.557-.524-.557s-.328.233-.249.558.289.558.524.557S1075.568,1161.469,1075.49,1161.146Z" transform="translate(-1065.023 -1139.026)" fill="#f99746"/>
        <path id="Trazado_627267" data-name="Trazado 627267" d="M1027.932,1121.141l-.29.076-.157-.315.472-.151h.266l.427,1.763h-.384Z" transform="translate(-1023.442 -1103.938)" fill="#2f539b"/>
        <path id="Trazado_627268" data-name="Trazado 627268" d="M1043.609,1121.475c-.123-.508.1-.906.57-.907a1.107,1.107,0,0,1,1,.9c.123.508-.1.906-.57.907A1.1,1.1,0,0,1,1043.609,1121.475Zm1.173,0c-.077-.318-.292-.557-.525-.557s-.328.233-.249.558.289.557.525.557S1044.86,1121.8,1044.782,1121.473Z" transform="translate(-1037.739 -1103.776)" fill="#2f539b"/>
        <path id="Trazado_627269" data-name="Trazado 627269" d="M1064.7,1121.44c-.123-.508.1-.906.57-.907a1.107,1.107,0,0,1,1,.9c.123.508-.1.906-.57.907A1.1,1.1,0,0,1,1064.7,1121.44Zm1.173,0c-.077-.318-.292-.557-.524-.557s-.328.233-.249.558.289.557.525.557S1065.953,1121.76,1065.875,1121.438Z" transform="translate(-1056.48 -1103.745)" fill="#2f539b"/>
        <path id="Trazado_627270" data-name="Trazado 627270" d="M1084.113,1121.046l-.29.076-.157-.315.472-.151h.266l.427,1.763h-.384Z" transform="translate(-1073.359 -1103.853)" fill="#2f539b"/>
        <path id="Trazado_627271" data-name="Trazado 627271" d="M1037.547,1160.85l-.29.076-.157-.315.472-.151h.266l.427,1.763h-.384Z" transform="translate(-1031.985 -1139.22)" fill="#2f539b"/>
        <path id="Trazado_627272" data-name="Trazado 627272" d="M1053.224,1161.184c-.123-.508.1-.906.57-.907a1.107,1.107,0,0,1,1,.9c.123.508-.1.906-.57.907A1.1,1.1,0,0,1,1053.224,1161.184Zm1.173,0c-.077-.318-.292-.557-.525-.557s-.328.233-.249.558.289.558.524.557S1054.475,1161.5,1054.4,1161.182Z" transform="translate(-1046.282 -1139.058)" fill="#2f539b"/>
        <path id="Trazado_627273" data-name="Trazado 627273" d="M1092.968,1249.195c-.123-.508.1-.906.57-.907a1.107,1.107,0,0,1,1,.9c.123.508-.1.906-.57.907A1.1,1.1,0,0,1,1092.968,1249.195Zm1.173,0c-.077-.318-.292-.557-.525-.557s-.328.233-.249.558.289.557.525.557S1094.219,1249.515,1094.141,1249.193Z" transform="translate(-1081.595 -1217.257)" fill="#2f539b"/>
        <path id="Trazado_627274" data-name="Trazado 627274" d="M1112.378,1248.8l-.29.076-.157-.315.472-.151h.266l.427,1.763h-.384Z" transform="translate(-1098.474 -1217.366)" fill="#2f539b"/>
        <path id="Trazado_627275" data-name="Trazado 627275" d="M1056.2,1248.9l-.29.076-.157-.315.472-.151h.266l.427,1.763h-.384Z" transform="translate(-1048.558 -1217.45)" fill="#2f539b"/>
        <path id="Trazado_627276" data-name="Trazado 627276" d="M1071.875,1249.23c-.123-.508.1-.906.57-.907a1.107,1.107,0,0,1,1,.9c.123.508-.1.906-.57.907A1.1,1.1,0,0,1,1071.875,1249.23Zm1.173,0c-.077-.318-.292-.557-.524-.557s-.328.233-.249.558.289.557.524.557S1073.127,1249.55,1073.049,1249.228Z" transform="translate(-1062.854 -1217.288)" fill="#2f539b"/>
        <path id="Trazado_627277" data-name="Trazado 627277" d="M1128.055,1249.135c-.123-.508.1-.906.57-.907a1.107,1.107,0,0,1,1,.9c.123.508-.1.906-.57.907A1.1,1.1,0,0,1,1128.055,1249.135Zm1.173,0c-.077-.318-.292-.557-.524-.557s-.328.233-.249.558.289.557.524.557S1129.307,1249.455,1129.228,1249.133Z" transform="translate(-1112.77 -1217.203)" fill="#f99746"/>
        <path id="Trazado_627278" data-name="Trazado 627278" d="M1149.148,1249.1c-.123-.508.1-.906.57-.907a1.107,1.107,0,0,1,1,.9c.123.508-.1.906-.57.907A1.1,1.1,0,0,1,1149.148,1249.1Zm1.173,0c-.077-.318-.292-.557-.525-.557s-.328.233-.249.558.289.557.524.557S1150.4,1249.42,1150.321,1249.1Z" transform="translate(-1131.511 -1217.172)" fill="#f99746"/>
        <path id="Trazado_627279" data-name="Trazado 627279" d="M1066.906,1277.517c-.123-.508.1-.906.57-.907a1.107,1.107,0,0,1,1,.9c.123.508-.1.906-.57.907A1.1,1.1,0,0,1,1066.906,1277.517Zm1.173,0c-.077-.318-.292-.557-.524-.557s-.328.233-.249.558.289.558.524.557S1068.157,1277.837,1068.079,1277.515Z" transform="translate(-1058.439 -1242.421)" fill="#2f539b"/>
        <path id="Trazado_627280" data-name="Trazado 627280" d="M1086.317,1277.124l-.29.076-.157-.315.472-.151h.266l.427,1.763h-.384Z" transform="translate(-1075.317 -1242.53)" fill="#2f539b"/>
        <path id="Trazado_627281" data-name="Trazado 627281" d="M1101.994,1277.458c-.123-.508.1-.906.57-.907a1.107,1.107,0,0,1,1,.9c.123.508-.1.906-.57.907A1.1,1.1,0,0,1,1101.994,1277.458Zm1.173,0c-.077-.318-.292-.557-.525-.557s-.328.234-.249.559.289.557.524.557S1103.245,1277.778,1103.167,1277.456Z" transform="translate(-1089.614 -1242.368)" fill="#2f539b"/>
        <path id="Trazado_627282" data-name="Trazado 627282" d="M1123.086,1277.423c-.123-.508.1-.906.57-.907a1.106,1.106,0,0,1,1,.9c.123.508-.1.906-.57.907A1.1,1.1,0,0,1,1123.086,1277.423Zm1.173,0c-.077-.318-.292-.558-.525-.557s-.328.233-.249.558.289.557.524.557S1124.337,1277.743,1124.259,1277.421Z" transform="translate(-1108.355 -1242.337)" fill="#2f539b"/>
        <path id="Trazado_627283" data-name="Trazado 627283" d="M1731.083,1249.195c-.123-.508.1-.906.57-.907a1.107,1.107,0,0,1,1,.9c.123.508-.1.906-.57.907A1.1,1.1,0,0,1,1731.083,1249.195Zm1.173,0c-.077-.318-.292-.557-.524-.557s-.328.233-.249.558.289.557.525.557S1732.335,1249.515,1732.257,1249.193Z" transform="translate(-1648.567 -1217.257)" fill="#2f539b"/>
        <path id="Trazado_627284" data-name="Trazado 627284" d="M1750.495,1248.8l-.29.076-.157-.315.472-.151h.266l.427,1.763h-.385Z" transform="translate(-1665.446 -1217.366)" fill="#2f539b"/>
        <path id="Trazado_627285" data-name="Trazado 627285" d="M1694.315,1248.9l-.29.076-.157-.315.472-.151h.266l.427,1.763h-.384Z" transform="translate(-1615.53 -1217.45)" fill="#2f539b"/>
        <path id="Trazado_627286" data-name="Trazado 627286" d="M1709.99,1249.23c-.123-.508.1-.906.57-.907a1.107,1.107,0,0,1,1,.9c.123.508-.1.906-.57.907A1.1,1.1,0,0,1,1709.99,1249.23Zm1.173,0c-.077-.318-.292-.557-.525-.557s-.328.233-.249.558.289.557.525.557S1711.242,1249.55,1711.164,1249.228Z" transform="translate(-1629.826 -1217.288)" fill="#2f539b"/>
        <path id="Trazado_627287" data-name="Trazado 627287" d="M1766.171,1249.135c-.123-.508.1-.906.57-.907a1.107,1.107,0,0,1,1,.9c.123.508-.1.906-.57.907A1.1,1.1,0,0,1,1766.171,1249.135Zm1.173,0c-.077-.318-.292-.557-.524-.557s-.328.233-.249.558.289.557.524.557S1767.423,1249.455,1767.344,1249.133Z" transform="translate(-1679.743 -1217.203)" fill="#f99746"/>
        <path id="Trazado_627288" data-name="Trazado 627288" d="M1787.263,1249.1c-.123-.508.1-.906.57-.907a1.107,1.107,0,0,1,1,.9c.123.508-.1.906-.57.907A1.1,1.1,0,0,1,1787.263,1249.1Zm1.173,0c-.077-.318-.292-.557-.524-.557s-.328.233-.25.558.289.557.525.557S1788.515,1249.42,1788.436,1249.1Z" transform="translate(-1698.483 -1217.172)" fill="#f99746"/>
        <path id="Trazado_627289" data-name="Trazado 627289" d="M1646.729,1277.517c-.123-.508.1-.906.57-.907a1.107,1.107,0,0,1,1,.9c.123.508-.1.906-.57.907A1.1,1.1,0,0,1,1646.729,1277.517Zm1.173,0c-.077-.318-.292-.557-.524-.557s-.328.233-.25.558.289.558.524.557S1647.98,1277.837,1647.9,1277.515Z" transform="translate(-1573.617 -1242.421)" fill="#2f539b"/>
        <path id="Trazado_627290" data-name="Trazado 627290" d="M1666.139,1277.124l-.29.076-.157-.315.472-.151h.266l.427,1.763h-.384Z" transform="translate(-1590.495 -1242.53)" fill="#2f539b"/>
        <path id="Trazado_627291" data-name="Trazado 627291" d="M1681.816,1277.458c-.123-.508.1-.906.569-.907a1.107,1.107,0,0,1,1,.9c.123.508-.1.906-.57.907A1.1,1.1,0,0,1,1681.816,1277.458Zm1.173,0c-.077-.318-.292-.557-.524-.557s-.328.234-.249.559.289.557.524.557S1683.067,1277.778,1682.989,1277.456Z" transform="translate(-1604.792 -1242.368)" fill="#2f539b"/>
        <path id="Trazado_627292" data-name="Trazado 627292" d="M1702.908,1277.423c-.123-.508.1-.906.57-.907a1.107,1.107,0,0,1,1,.9c.123.508-.1.906-.57.907A1.1,1.1,0,0,1,1702.908,1277.423Zm1.173,0c-.077-.318-.292-.558-.525-.557s-.328.233-.249.558.289.557.524.557S1704.159,1277.743,1704.081,1277.421Z" transform="translate(-1623.532 -1242.337)" fill="#2f539b"/>
        <path id="Trazado_627293" data-name="Trazado 627293" d="M1119.757,1351.643c-.123-.508.1-.906.57-.907a1.107,1.107,0,0,1,1,.9c.123.508-.1.906-.57.907A1.1,1.1,0,0,1,1119.757,1351.643Zm1.173,0c-.077-.318-.292-.557-.525-.557s-.328.233-.249.558.289.557.524.557S1121.008,1351.964,1120.93,1351.641Z" transform="translate(-1105.397 -1308.283)" fill="#f99746"/>
        <path id="Trazado_627294" data-name="Trazado 627294" d="M1139.167,1351.25l-.29.076-.157-.315.472-.151h.265l.427,1.763h-.384Z" transform="translate(-1122.276 -1308.392)" fill="#f99746"/>
        <path id="Trazado_627295" data-name="Trazado 627295" d="M1073.373,1311.636l-.29.076-.157-.315.472-.151h.266l.427,1.763h-.384Z" transform="translate(-1063.817 -1273.195)" fill="#2f539b"/>
        <path id="Trazado_627296" data-name="Trazado 627296" d="M1089.049,1311.97c-.123-.508.1-.906.57-.907a1.107,1.107,0,0,1,1,.9c.123.508-.1.906-.57.907A1.1,1.1,0,0,1,1089.049,1311.97Zm1.173,0c-.077-.318-.292-.557-.524-.557s-.328.233-.249.558.289.557.525.557S1090.3,1312.291,1090.222,1311.969Z" transform="translate(-1078.113 -1273.033)" fill="#2f539b"/>
        <path id="Trazado_627297" data-name="Trazado 627297" d="M1110.142,1311.934c-.123-.508.1-.906.57-.907a1.107,1.107,0,0,1,1,.9c.123.508-.1.906-.57.907A1.1,1.1,0,0,1,1110.142,1311.934Zm1.173,0c-.077-.318-.292-.557-.524-.557s-.328.233-.25.558.289.557.525.557S1111.393,1312.254,1111.315,1311.932Z" transform="translate(-1096.854 -1273.001)" fill="#2f539b"/>
        <path id="Trazado_627298" data-name="Trazado 627298" d="M1129.552,1311.541l-.29.076-.157-.315.472-.151h.266l.427,1.763h-.384Z" transform="translate(-1113.733 -1273.11)" fill="#2f539b"/>
        <path id="Trazado_627299" data-name="Trazado 627299" d="M1690.821,1311.636l-.29.076-.157-.315.472-.151h.266l.427,1.763h-.384Z" transform="translate(-1612.425 -1273.195)" fill="#2f539b"/>
        <path id="Trazado_627300" data-name="Trazado 627300" d="M1706.5,1311.97c-.123-.508.1-.906.569-.907a1.107,1.107,0,0,1,1,.9c.123.508-.1.906-.57.907A1.1,1.1,0,0,1,1706.5,1311.97Zm1.173,0c-.077-.318-.292-.557-.524-.557s-.328.233-.25.558.289.557.525.557S1707.748,1312.291,1707.67,1311.969Z" transform="translate(-1626.721 -1273.033)" fill="#2f539b"/>
        <path id="Trazado_627301" data-name="Trazado 627301" d="M1727.589,1311.934c-.123-.508.1-.906.57-.907a1.107,1.107,0,0,1,1,.9c.123.508-.1.906-.57.907A1.1,1.1,0,0,1,1727.589,1311.934Zm1.173,0c-.077-.318-.292-.557-.524-.557s-.328.233-.25.558.289.557.525.557S1728.84,1312.254,1728.762,1311.932Z" transform="translate(-1645.462 -1273.001)" fill="#2f539b"/>
        <path id="Trazado_627302" data-name="Trazado 627302" d="M1747,1311.541l-.29.076-.157-.315.472-.151h.265l.427,1.763h-.384Z" transform="translate(-1662.341 -1273.11)" fill="#2f539b"/>
        <path id="Trazado_627303" data-name="Trazado 627303" d="M1082.988,1351.345l-.29.075-.157-.315.472-.151h.266l.427,1.763h-.384Z" transform="translate(-1072.36 -1308.476)" fill="#2f539b"/>
        <path id="Trazado_627304" data-name="Trazado 627304" d="M1098.664,1351.679c-.123-.508.1-.906.57-.907a1.107,1.107,0,0,1,1,.9c.123.508-.1.906-.57.907A1.1,1.1,0,0,1,1098.664,1351.679Zm1.173,0c-.077-.318-.292-.557-.524-.557s-.328.233-.249.558.289.558.524.557S1099.915,1352,1099.837,1351.677Z" transform="translate(-1086.656 -1308.315)" fill="#2f539b"/>
        <path id="Trazado_627305" data-name="Trazado 627305" d="M1154.844,1351.585c-.123-.508.1-.906.57-.907a1.107,1.107,0,0,1,1,.9c.123.508-.1.906-.57.907A1.1,1.1,0,0,1,1154.844,1351.585Zm1.173,0c-.077-.318-.292-.558-.524-.557s-.328.233-.249.559.289.557.525.557S1156.1,1351.905,1156.017,1351.583Z" transform="translate(-1136.572 -1308.231)" fill="#2f539b"/>
        <path id="Trazado_627306" data-name="Trazado 627306" d="M1175.936,1351.55c-.123-.508.1-.906.57-.907a1.107,1.107,0,0,1,1,.9c.123.508-.1.906-.57.907A1.1,1.1,0,0,1,1175.936,1351.55Zm1.173,0c-.077-.318-.292-.557-.525-.557s-.328.233-.249.558.289.557.525.557S1177.188,1351.87,1177.109,1351.548Z" transform="translate(-1155.313 -1308.2)" fill="#2f539b"/>
        <path id="Trazado_627307" data-name="Trazado 627307" d="M1127.89,1379.679c-.123-.508.1-.906.57-.907a1.107,1.107,0,0,1,1,.9c.123.508-.1.906-.57.907A1.1,1.1,0,0,1,1127.89,1379.679Zm1.173,0c-.077-.318-.292-.557-.525-.557s-.328.233-.249.558.289.557.524.557S1129.141,1380,1129.063,1379.677Z" transform="translate(-1112.623 -1333.193)" fill="#f99746"/>
        <path id="Trazado_627308" data-name="Trazado 627308" d="M1147.3,1379.287l-.29.076-.157-.315.472-.151h.266l.427,1.763h-.384Z" transform="translate(-1129.502 -1333.303)" fill="#f99746"/>
        <path id="Trazado_627309" data-name="Trazado 627309" d="M1106.8,1379.716c-.123-.508.1-.906.57-.907a1.107,1.107,0,0,1,1,.9c.123.508-.1.906-.57.907A1.1,1.1,0,0,1,1106.8,1379.716Zm1.173,0c-.077-.318-.292-.558-.524-.557s-.328.233-.25.558.289.557.525.557S1108.049,1380.036,1107.97,1379.714Z" transform="translate(-1093.882 -1333.226)" fill="#2f539b"/>
        <path id="Trazado_627310" data-name="Trazado 627310" d="M1162.977,1379.621c-.123-.508.1-.906.57-.907a1.107,1.107,0,0,1,1,.9c.123.508-.1.906-.57.907A1.1,1.1,0,0,1,1162.977,1379.621Zm1.173,0c-.077-.318-.292-.557-.524-.557s-.328.233-.249.558.289.557.525.557S1164.229,1379.941,1164.15,1379.619Z" transform="translate(-1143.799 -1333.141)" fill="#2f539b"/>
        <path id="Trazado_627311" data-name="Trazado 627311" d="M1184.069,1379.585c-.123-.508.1-.906.57-.907a1.107,1.107,0,0,1,1,.9c.123.508-.1.906-.57.907A1.1,1.1,0,0,1,1184.069,1379.585Zm1.173,0c-.077-.318-.292-.558-.524-.557s-.328.233-.249.558.289.557.524.557S1185.32,1379.905,1185.242,1379.583Z" transform="translate(-1162.539 -1333.109)" fill="#2f539b"/>
        <path id="Trazado_627312" data-name="Trazado 627312" d="M1256.645,1379.679c-.123-.508.1-.906.57-.907a1.107,1.107,0,0,1,1,.9c.123.508-.1.906-.57.907A1.1,1.1,0,0,1,1256.645,1379.679Zm1.173,0c-.077-.318-.292-.557-.525-.557s-.328.233-.249.558.289.557.524.557S1257.9,1380,1257.818,1379.677Z" transform="translate(-1227.024 -1333.193)" fill="#f99746"/>
        <path id="Trazado_627313" data-name="Trazado 627313" d="M1276.056,1379.287l-.29.076-.157-.315.472-.151h.266l.427,1.763h-.384Z" transform="translate(-1243.902 -1333.303)" fill="#f99746"/>
        <path id="Trazado_627314" data-name="Trazado 627314" d="M1235.552,1379.716c-.123-.508.1-.906.57-.907a1.106,1.106,0,0,1,1,.9c.123.508-.1.906-.57.907A1.1,1.1,0,0,1,1235.552,1379.716Zm1.173,0c-.077-.318-.292-.558-.524-.557s-.328.233-.25.558.29.557.525.557S1236.8,1380.036,1236.725,1379.714Z" transform="translate(-1208.282 -1333.226)" fill="#2f539b"/>
        <path id="Trazado_627315" data-name="Trazado 627315" d="M1291.732,1379.621c-.123-.508.1-.906.57-.907a1.106,1.106,0,0,1,1,.9c.123.508-.1.906-.57.907A1.1,1.1,0,0,1,1291.732,1379.621Zm1.173,0c-.077-.318-.292-.557-.525-.557s-.328.233-.249.558.289.557.524.557S1292.984,1379.941,1292.905,1379.619Z" transform="translate(-1258.199 -1333.141)" fill="#2f539b"/>
        <path id="Trazado_627316" data-name="Trazado 627316" d="M1312.825,1379.585c-.123-.508.1-.906.57-.907a1.107,1.107,0,0,1,1,.9c.123.508-.1.906-.57.907A1.1,1.1,0,0,1,1312.825,1379.585Zm1.173,0c-.077-.318-.292-.558-.524-.557s-.328.233-.249.558.289.557.524.557S1314.076,1379.905,1314,1379.583Z" transform="translate(-1276.94 -1333.109)" fill="#2f539b"/>
        <path id="Trazado_627317" data-name="Trazado 627317" d="M1549.778,1379.679c-.123-.508.1-.906.57-.907a1.107,1.107,0,0,1,1,.9c.123.508-.1.906-.57.907A1.1,1.1,0,0,1,1549.778,1379.679Zm1.173,0c-.077-.318-.292-.557-.524-.557s-.328.233-.249.558.289.557.524.557S1551.029,1380,1550.951,1379.677Z" transform="translate(-1487.475 -1333.193)" fill="#f99746"/>
        <path id="Trazado_627318" data-name="Trazado 627318" d="M1569.188,1379.287l-.291.076-.157-.315.472-.151h.266l.427,1.763h-.384Z" transform="translate(-1504.353 -1333.303)" fill="#f99746"/>
        <path id="Trazado_627319" data-name="Trazado 627319" d="M1528.685,1379.716c-.123-.508.1-.906.57-.907a1.107,1.107,0,0,1,1,.9c.123.508-.1.906-.57.907A1.1,1.1,0,0,1,1528.685,1379.716Zm1.173,0c-.077-.318-.292-.558-.524-.557s-.328.233-.25.558.289.557.524.557S1529.937,1380.036,1529.858,1379.714Z" transform="translate(-1468.734 -1333.226)" fill="#2f539b"/>
        <path id="Trazado_627320" data-name="Trazado 627320" d="M1584.865,1379.621c-.123-.508.1-.906.57-.907a1.106,1.106,0,0,1,1,.9c.123.508-.1.906-.57.907A1.1,1.1,0,0,1,1584.865,1379.621Zm1.173,0c-.077-.318-.292-.557-.525-.557s-.328.233-.249.558.289.557.525.557S1586.116,1379.941,1586.038,1379.619Z" transform="translate(-1518.65 -1333.141)" fill="#2f539b"/>
        <path id="Trazado_627321" data-name="Trazado 627321" d="M1605.957,1379.585c-.123-.508.1-.906.57-.907a1.107,1.107,0,0,1,1,.9c.123.508-.1.906-.57.907A1.1,1.1,0,0,1,1605.957,1379.585Zm1.173,0c-.077-.318-.292-.558-.524-.557s-.328.233-.249.558.289.557.524.557S1607.208,1379.905,1607.13,1379.583Z" transform="translate(-1537.391 -1333.109)" fill="#2f539b"/>
        <path id="Trazado_627322" data-name="Trazado 627322" d="M1678.533,1379.679c-.123-.508.1-.906.57-.907a1.107,1.107,0,0,1,1,.9c.123.508-.1.906-.57.907A1.1,1.1,0,0,1,1678.533,1379.679Zm1.173,0c-.077-.318-.292-.557-.525-.557s-.328.233-.249.558.289.557.524.557S1679.784,1380,1679.706,1379.677Z" transform="translate(-1601.875 -1333.193)" fill="#f99746"/>
        <path id="Trazado_627323" data-name="Trazado 627323" d="M1697.944,1379.287l-.29.076-.157-.315.472-.151h.266l.427,1.763h-.384Z" transform="translate(-1618.754 -1333.303)" fill="#f99746"/>
        <path id="Trazado_627324" data-name="Trazado 627324" d="M1657.44,1379.716c-.123-.508.1-.906.57-.907a1.107,1.107,0,0,1,1,.9c.123.508-.1.906-.57.907A1.1,1.1,0,0,1,1657.44,1379.716Zm1.173,0c-.077-.318-.292-.558-.525-.557s-.328.233-.249.558.289.557.525.557S1658.692,1380.036,1658.613,1379.714Z" transform="translate(-1583.134 -1333.226)" fill="#2f539b"/>
        <path id="Trazado_627325" data-name="Trazado 627325" d="M1713.62,1379.621c-.123-.508.1-.906.57-.907a1.107,1.107,0,0,1,1,.9c.123.508-.1.906-.57.907A1.1,1.1,0,0,1,1713.62,1379.621Zm1.173,0c-.077-.318-.292-.557-.525-.557s-.328.233-.249.558.289.557.524.557S1714.871,1379.941,1714.793,1379.619Z" transform="translate(-1633.05 -1333.141)" fill="#2f539b"/>
        <path id="Trazado_627326" data-name="Trazado 627326" d="M1734.713,1379.585c-.123-.508.1-.906.57-.907a1.107,1.107,0,0,1,1,.9c.123.508-.1.906-.57.907A1.1,1.1,0,0,1,1734.713,1379.585Zm1.173,0c-.077-.318-.292-.558-.524-.557s-.328.233-.25.558.289.557.525.557S1735.964,1379.905,1735.886,1379.583Z" transform="translate(-1651.792 -1333.109)" fill="#2f539b"/>
        <path id="Trazado_627327" data-name="Trazado 627327" d="M1197.029,1351.513c-.123-.508.1-.906.57-.907a1.107,1.107,0,0,1,1,.9c.123.508-.1.906-.57.907A1.1,1.1,0,0,1,1197.029,1351.513Zm1.173,0c-.077-.318-.292-.558-.524-.557s-.328.233-.249.558.289.557.525.557S1198.28,1351.833,1198.2,1351.511Z" transform="translate(-1174.054 -1308.167)" fill="#2f539b"/>
        <path id="Trazado_627328" data-name="Trazado 627328" d="M1218.122,1351.478c-.123-.508.1-.906.57-.907a1.107,1.107,0,0,1,1,.9c.123.508-.1.906-.57.907A1.1,1.1,0,0,1,1218.122,1351.478Zm1.173,0c-.077-.318-.292-.557-.525-.557s-.328.233-.25.558.289.557.525.557S1219.373,1351.8,1219.3,1351.476Z" transform="translate(-1192.795 -1308.136)" fill="#2f539b"/>
        <path id="Trazado_627329" data-name="Trazado 627329" d="M1603.7,1351.513c-.123-.508.1-.906.57-.907a1.107,1.107,0,0,1,1,.9c.123.508-.1.906-.57.907A1.1,1.1,0,0,1,1603.7,1351.513Zm1.173,0c-.077-.318-.292-.558-.525-.557s-.328.233-.249.558.289.557.525.557S1604.956,1351.833,1604.878,1351.511Z" transform="translate(-1535.389 -1308.167)" fill="#2f539b"/>
        <path id="Trazado_627330" data-name="Trazado 627330" d="M1624.8,1351.478c-.123-.508.1-.906.569-.907a1.107,1.107,0,0,1,1,.9c.123.508-.1.906-.57.907A1.1,1.1,0,0,1,1624.8,1351.478Zm1.173,0c-.077-.318-.292-.557-.524-.557s-.328.233-.249.558.289.557.524.557S1626.049,1351.8,1625.971,1351.476Z" transform="translate(-1554.131 -1308.136)" fill="#2f539b"/>
      </g>
    </g>
  </g>
</svg>
