<svg xmlns="http://www.w3.org/2000/svg" xmlns:xlink="http://www.w3.org/1999/xlink" width="358.62" height="164.5" viewBox="0 0 358.62 164.5">
  <defs>
    <clipPath id="clip-path">
      <rect id="Rectángulo_341836" data-name="Rectángulo 341836" width="197.359" height="99.729" fill="#fff4d6"/>
    </clipPath>
    <clipPath id="clip-path-2">
      <rect id="Rectángulo_341837" data-name="Rectángulo 341837" width="134.92" height="68.178" fill="#fff"/>
    </clipPath>
    <linearGradient id="linear-gradient" y1="0.5" x2="1" y2="0.5" gradientUnits="objectBoundingBox">
      <stop offset="0" stop-color="#dae3fe"/>
      <stop offset="1" stop-color="#e9effd"/>
    </linearGradient>
    <linearGradient id="linear-gradient-2" x1="22.119" y1="13.509" x2="23.122" y2="13.509" xlink:href="#linear-gradient"/>
    <linearGradient id="linear-gradient-3" x1="-89.344" y1="-0.057" x2="-89.836" y2="0.791" gradientUnits="objectBoundingBox">
      <stop offset="0" stop-color="#ff928e"/>
      <stop offset="1" stop-color="#feb3b1"/>
    </linearGradient>
    <linearGradient id="linear-gradient-9" x1="-85.62" y1="0.5" x2="-84.62" y2="0.5" xlink:href="#linear-gradient-3"/>
    <linearGradient id="linear-gradient-10" x1="-204.486" y1="-5.594" x2="-205.689" y2="0.571" gradientUnits="objectBoundingBox">
      <stop offset="0" stop-color="#4042e2"/>
      <stop offset="1" stop-color="#4f52ff"/>
    </linearGradient>
    <linearGradient id="linear-gradient-11" x1="-149.681" y1="-14.746" x2="-150.541" y2="-0.838" xlink:href="#linear-gradient-10"/>
    <linearGradient id="linear-gradient-12" x1="-150.678" y1="0.5" x2="-149.678" y2="0.5" xlink:href="#linear-gradient-3"/>
    <linearGradient id="linear-gradient-13" x1="-78.678" y1="0.5" x2="-77.678" y2="0.5" xlink:href="#linear-gradient-3"/>
    <linearGradient id="linear-gradient-14" x1="-245.87" y1="0.5" x2="-244.87" y2="0.5" gradientUnits="objectBoundingBox">
      <stop offset="0" stop-color="#f9b776"/>
      <stop offset="1" stop-color="#f47960"/>
    </linearGradient>
    <linearGradient id="linear-gradient-15" x1="-133.24" y1="0.531" x2="-129.259" y2="0.806" xlink:href="#linear-gradient-3"/>
    <linearGradient id="linear-gradient-16" x1="-67.836" y1="0.163" x2="-68.559" y2="1.097" xlink:href="#linear-gradient-10"/>
    <linearGradient id="linear-gradient-20" x1="0" y1="0.5" x2="1" y2="0.5" xlink:href="#linear-gradient"/>
    <linearGradient id="linear-gradient-21" x1="-137.914" y1="0.5" x2="-136.895" y2="0.5" gradientUnits="objectBoundingBox">
      <stop offset="0" stop-color="#09005d"/>
      <stop offset="1" stop-color="#1a0f91"/>
    </linearGradient>
    <linearGradient id="linear-gradient-22" x1="-297.71" y1="0.5" x2="-296.71" y2="0.5" xlink:href="#linear-gradient-21"/>
    <linearGradient id="linear-gradient-23" x1="-458.057" y1="0.5" x2="-457.057" y2="0.5" xlink:href="#linear-gradient-3"/>
    <linearGradient id="linear-gradient-24" x1="-537.091" y1="0.5" x2="-536.091" y2="0.5" xlink:href="#linear-gradient-3"/>
    <linearGradient id="linear-gradient-25" x1="-219.79" y1="-0.236" x2="-221.933" y2="1.254" xlink:href="#linear-gradient-3"/>
    <linearGradient id="linear-gradient-26" x1="0.454" y1="-0.018" x2="0.543" y2="1.824" xlink:href="#linear-gradient-3"/>
    <linearGradient id="linear-gradient-32" x1="-188.403" y1="0.5" x2="-187.403" y2="0.5" xlink:href="#linear-gradient-3"/>
    <linearGradient id="linear-gradient-33" x1="-184.385" y1="0.35" x2="-185.497" y2="1.106" xlink:href="#linear-gradient-3"/>
    <linearGradient id="linear-gradient-34" x1="-134.042" y1="0.154" x2="-133.313" y2="1.105" gradientUnits="objectBoundingBox">
      <stop offset="0" stop-color="#2b3582"/>
      <stop offset="1" stop-color="#150e42"/>
    </linearGradient>
    <linearGradient id="linear-gradient-35" x1="-758.17" y1="-0.685" x2="-762.721" y2="1.784" xlink:href="#linear-gradient-3"/>
    <linearGradient id="linear-gradient-36" x1="-199.456" y1="-0.23" x2="-201.398" y2="3.848" xlink:href="#linear-gradient-3"/>
    <linearGradient id="linear-gradient-37" x1="369.059" y1="0.5" x2="370.059" y2="0.5" xlink:href="#linear-gradient-10"/>
    <linearGradient id="linear-gradient-38" x1="909.921" y1="0.5" x2="910.921" y2="0.5" xlink:href="#linear-gradient-3"/>
    <linearGradient id="linear-gradient-39" x1="235.212" y1="0.5" x2="236.212" y2="0.5" xlink:href="#linear-gradient-10"/>
    <linearGradient id="linear-gradient-40" x1="914.985" y1="0.5" x2="915.985" y2="0.5" xlink:href="#linear-gradient-3"/>
    <linearGradient id="linear-gradient-41" x1="134.216" y1="0.5" x2="135.216" y2="0.5" xlink:href="#linear-gradient-21"/>
    <linearGradient id="linear-gradient-42" x1="0" y1="0.5" x2="1" y2="0.5" xlink:href="#linear-gradient-10"/>
    <linearGradient id="linear-gradient-43" x1="-1.377" y1="1.341" x2="1.288" y2="0.045" xlink:href="#linear-gradient-3"/>
    <linearGradient id="linear-gradient-44" x1="-0.622" y1="17.783" x2="3.12" y2="17.536" xlink:href="#linear-gradient-3"/>
    <linearGradient id="linear-gradient-45" x1="-1.215" y1="46.854" x2="1.799" y2="46.192" xlink:href="#linear-gradient-3"/>
    <linearGradient id="linear-gradient-46" x1="312.402" y1="0.386" x2="309.752" y2="4.343" xlink:href="#linear-gradient-3"/>
    <linearGradient id="linear-gradient-47" x1="247.332" y1="-15.852" x2="247.889" y2="-13.759" xlink:href="#linear-gradient-3"/>
    <linearGradient id="linear-gradient-48" x1="145.413" y1="25.748" x2="145.592" y2="27.064" xlink:href="#linear-gradient-34"/>
    <linearGradient id="linear-gradient-49" x1="928.143" y1="-52.203" x2="930.238" y2="-45.411" xlink:href="#linear-gradient-3"/>
    <linearGradient id="linear-gradient-50" x1="31.077" y1="0.5" x2="32.077" y2="0.5" xlink:href="#linear-gradient-10"/>
    <linearGradient id="linear-gradient-51" x1="31.978" y1="0.5" x2="32.978" y2="0.5" xlink:href="#linear-gradient-21"/>
    <linearGradient id="linear-gradient-52" x1="110.332" y1="0.5" x2="111.333" y2="0.5" xlink:href="#linear-gradient-3"/>
    <linearGradient id="linear-gradient-53" x1="81.093" y1="0.5" x2="82.093" y2="0.5" xlink:href="#linear-gradient-10"/>
    <linearGradient id="linear-gradient-54" x1="55.248" y1="0.5" x2="56.248" y2="0.5" xlink:href="#linear-gradient-21"/>
    <linearGradient id="linear-gradient-55" x1="92.313" y1="0.5" x2="93.313" y2="0.5" xlink:href="#linear-gradient-3"/>
    <linearGradient id="linear-gradient-56" x1="-0.079" y1="-0.09" x2="0.888" y2="0.979" xlink:href="#linear-gradient-10"/>
    <linearGradient id="linear-gradient-57" x1="67.457" y1="5.021" x2="67.815" y2="4.213" xlink:href="#linear-gradient-10"/>
    <linearGradient id="linear-gradient-58" x1="63.331" y1="0.1" x2="60.942" y2="1.142" xlink:href="#linear-gradient-3"/>
    <linearGradient id="linear-gradient-59" x1="-0.127" y1="0.011" x2="2.008" y2="1.871" xlink:href="#linear-gradient-10"/>
    <linearGradient id="linear-gradient-60" x1="-1.416" y1="-0.959" x2="1.444" y2="1.224" xlink:href="#linear-gradient-10"/>
    <linearGradient id="linear-gradient-61" x1="32.928" y1="0.5" x2="33.928" y2="0.5" xlink:href="#linear-gradient-3"/>
    <linearGradient id="linear-gradient-62" x1="44.922" y1="-0.004" x2="44.907" y2="1.888" xlink:href="#linear-gradient-3"/>
    <linearGradient id="linear-gradient-63" x1="6.288" y1="0.5" x2="7.288" y2="0.5" gradientUnits="objectBoundingBox">
      <stop offset="0" stop-color="#020039"/>
      <stop offset="1" stop-color="#090056"/>
    </linearGradient>
    <linearGradient id="linear-gradient-64" x1="6.851" y1="0.5" x2="7.851" y2="0.5" xlink:href="#linear-gradient"/>
    <linearGradient id="linear-gradient-65" x1="6.157" y1="0.5" x2="7.157" y2="0.5" xlink:href="#linear-gradient-63"/>
    <linearGradient id="linear-gradient-66" x1="37.049" y1="57.933" x2="35.529" y2="59.271" xlink:href="#linear-gradient-3"/>
    <linearGradient id="linear-gradient-67" x1="-0.13" y1="0.423" x2="2.84" y2="0.704" xlink:href="#linear-gradient-21"/>
    <linearGradient id="linear-gradient-68" x1="95.231" y1="166.127" x2="98.521" y2="163.771" xlink:href="#linear-gradient-3"/>
    <linearGradient id="linear-gradient-69" x1="45.02" y1="-1.222" x2="43.327" y2="3.819" xlink:href="#linear-gradient-3"/>
    <linearGradient id="linear-gradient-70" x1="91.951" y1="0.5" x2="92.951" y2="0.5" xlink:href="#linear-gradient-3"/>
  </defs>
  <g id="Grupo_947557" data-name="Grupo 947557" transform="translate(395.261 6465.407)">
    <g id="Grupo_947032" data-name="Grupo 947032" transform="translate(-36.641 -6300.907) rotate(180)" clip-path="url(#clip-path)">
      <path id="Trazado_627395" data-name="Trazado 627395" d="M98.679,99.729A98.679,98.679,0,0,1,0,1.05C0,.7.01.351.014,0H197.345c0,.351.014.7.014,1.05A98.679,98.679,0,0,1,98.679,99.729" transform="translate(0 0)" fill="#fff4d6"/>
    </g>
    <g id="Grupo_947033" data-name="Grupo 947033" transform="translate(-324.739 -6464.217) rotate(91)" clip-path="url(#clip-path-2)">
      <path id="Trazado_627396" data-name="Trazado 627396" d="M67.46,68.178A67.46,67.46,0,0,1,0,.718C0,.478.007.24.009,0h134.9c0,.24.009.478.009.718a67.46,67.46,0,0,1-67.46,67.46" transform="translate(0 0)" fill="#fff"/>
    </g>
    <g id="Grupo_947266" data-name="Grupo 947266" transform="translate(-627.6 -6797.832)">
      <g id="Grupo_947215" data-name="Grupo 947215" transform="translate(279.083 346.874)">
        <g id="Grupo_947214" data-name="Grupo 947214" transform="translate(11.045 0)">
          <path id="Trazado_627998" data-name="Trazado 627998" d="M586.113,479.015a3.9,3.9,0,0,1-3.888,3.884H371.972a3.9,3.9,0,0,1-3.888-3.884l-1.75-120.827a6.771,6.771,0,0,1,7.13-5.994l205.483-5.317A9.8,9.8,0,0,1,589,356.9Z" transform="translate(-366.334 -346.874)" fill="#12263f"/>
          <path id="Trazado_627999" data-name="Trazado 627999" d="M619.388,507.08a3.689,3.689,0,0,1-3.679,3.678H414.155a3.689,3.689,0,0,1-3.678-3.678l-1.651-109.688c.194-6.6,5.981-8.973,9.489-8.833l196.937-5.283a6.886,6.886,0,0,1,7.065,7.047Z" transform="translate(-403.447 -378.666)" fill="#727997"/>
          <g id="Grupo_947213" data-name="Grupo 947213" transform="translate(8.09 10.54)">
            <path id="Trazado_628000" data-name="Trazado 628000" d="M436.124,882.283a.3.3,0,0,1-.3-.293l-.13-8.9a.3.3,0,0,1,.293-.3.3.3,0,0,1,.3.293l.131,8.9a.3.3,0,0,1-.293.3Z" transform="translate(-435.007 -816.761)" fill="#91b3fa"/>
            <path id="Trazado_628001" data-name="Trazado 628001" d="M431.044,473.866a.3.3,0,0,1-.3-.293l-.5-34.07a7.212,7.212,0,0,1,2.084-5.408c2.5-2.392,6.4-2.272,6.568-2.266l62.891-1.688a.3.3,0,0,1,.305.289.3.3,0,0,1-.289.3L438.9,432.424c-.176-.007-3.839-.119-6.156,2.1a6.638,6.638,0,0,0-1.9,4.976l.5,34.064a.3.3,0,0,1-.293.3Z" transform="translate(-430.247 -430.142)" fill="#91b3fa"/>
          </g>
          <path id="Trazado_628002" data-name="Trazado 628002" d="M489.218,557.862c.211-9.066.132-89.346-.388-96.279s10.278-8.234,26.857-9.014,156.458-3.869,160.06-4.161c8.1-.656,9.771,11.444,8.961,37.713-.608,19.736-1.617,52.247-2.081,67.2a8.251,8.251,0,0,1-8.231,8c-33.661.093-162.673.462-171.261.718C493.251,562.327,489.134,561.457,489.218,557.862Z" transform="translate(-473.308 -435.533)" opacity="0.13" fill="url(#linear-gradient)"/>
        </g>
        <rect id="Rectángulo_341860" data-name="Rectángulo 341860" width="247.88" height="10.616" rx="5.308" transform="translate(0 131.576)" fill="#12263f"/>
      </g>
      <g id="Grupo_947216" data-name="Grupo 947216" transform="translate(342.784 405.286)" opacity="0.71">
        <path id="Trazado_628003" data-name="Trazado 628003" d="M794.028,864.359s3.77-5.921,1.83-15.752c-1.8-9.121-6.753-30.747-5.162-39.833a.377.377,0,0,0-.683-.281,46.293,46.293,0,0,0-7.692,26.468C782.638,852.1,794.028,864.359,794.028,864.359Z" transform="translate(-782.314 -808.327)" fill="#fff" opacity="0.65"/>
        <path id="Trazado_628004" data-name="Trazado 628004" d="M815.74,874.615a14.224,14.224,0,0,0-.5,1.358l-.21.693c-.068.231-.123.467-.185.7-.03.117-.062.233-.089.35l-.076.354-.152.707-.123.713c-.037.238-.09.473-.117.713a34.039,34.039,0,0,0-.362,5.762,42.844,42.844,0,0,0,.467,5.753l.1.715.052.357.068.355.273,1.418c.047.236.088.473.14.709l.157.708.313,1.415c.435,1.883.885,3.763,1.363,5.637.234.938.484,1.872.728,2.808l.74,2.806c.492,1.872,1,3.741,1.426,5.634.111.472.2.95.294,1.426.051.237.085.478.126.718s.082.479.114.72a17.053,17.053,0,0,1,.167,2.91.063.063,0,0,1-.127,0v0c-.015-.482-.015-.962-.075-1.441-.034-.48-.118-.955-.185-1.432-.039-.238-.089-.474-.133-.711s-.087-.474-.144-.708c-.108-.47-.208-.942-.331-1.409-.467-1.873-.994-3.734-1.52-5.6l-.785-2.8c-.252-.935-.508-1.869-.749-2.807-.5-1.873-.947-3.758-1.384-5.646l-.315-1.419-.157-.709c-.053-.236-.091-.477-.138-.716l-.267-1.434-.067-.359-.05-.361-.1-.723-.1-.723c-.031-.241-.072-.481-.086-.724l-.12-1.454c-.051-.484-.05-.971-.07-1.457s-.045-.972-.024-1.458a34.374,34.374,0,0,1,.508-5.8c.033-.241.091-.477.14-.715l.151-.713.181-.706.091-.352c.033-.117.069-.233.1-.349a16.05,16.05,0,0,1,1.026-2.719.008.008,0,0,1,.01,0A.008.008,0,0,1,815.74,874.615Z" transform="translate(-809.569 -866.214)" fill="#fff" opacity="0.45"/>
      </g>
      <g id="Grupo_947218" data-name="Grupo 947218" transform="translate(318.551 375.713)">
        <ellipse id="Elipse_8229" data-name="Elipse 8229" cx="50.369" cy="54.369" rx="50.369" ry="54.369" transform="translate(0 100.642) rotate(-87.486)" fill="#dee4f0"/>
        <g id="Grupo_947217" data-name="Grupo 947217" transform="translate(7.075 3.643)" opacity="0.68">
          <path id="Trazado_628005" data-name="Trazado 628005" d="M955.139,654.665a152.123,152.123,0,0,1-2.188,26.544c-.4,2.188-.856,4.365-1.4,6.521a62.79,62.79,0,0,1-1.959,6.382,30.247,30.247,0,0,1-2.923,6.015,12.012,12.012,0,0,1-2.194,2.559,6.258,6.258,0,0,1-1.436.925,4.3,4.3,0,0,1-1.677.4,4.232,4.232,0,0,1-1.695-.312,5.877,5.877,0,0,1-1.469-.875,11.4,11.4,0,0,1-2.241-2.519,29.266,29.266,0,0,1-2.966-5.994,61.414,61.414,0,0,1-1.98-6.375c-.553-2.155-1.017-4.331-1.417-6.518-.8-4.375-1.342-8.792-1.709-13.221s-.547-8.874-.57-13.319c-.011-2.222.05-4.444.129-6.664s.206-4.439.369-6.655c.329-4.431.819-8.852,1.549-13.237.366-2.192.793-4.375,1.307-6.538a62.855,62.855,0,0,1,1.855-6.407c.373-1.049.781-2.086,1.246-3.1a22.616,22.616,0,0,1,1.6-2.94,10.953,10.953,0,0,1,2.192-2.535,5.6,5.6,0,0,1,1.45-.869,4.089,4.089,0,0,1,1.667-.3,4.418,4.418,0,0,1,1.647.386,6.432,6.432,0,0,1,1.432.893,12.22,12.22,0,0,1,2.24,2.491,30,30,0,0,1,3.072,5.924,60.774,60.774,0,0,1,2.105,6.33c.593,2.143,1.095,4.311,1.529,6.491A139.274,139.274,0,0,1,955.139,654.665Zm-.658,0c.008-4.427-.16-8.854-.528-13.265a127.762,127.762,0,0,0-1.731-13.159c-.409-2.175-.885-4.337-1.451-6.475a60.434,60.434,0,0,0-2.024-6.313,29.709,29.709,0,0,0-2.976-5.9,11.974,11.974,0,0,0-2.167-2.465,6.216,6.216,0,0,0-1.373-.878,4.107,4.107,0,0,0-1.568-.382,3.85,3.85,0,0,0-1.582.3,5.384,5.384,0,0,0-1.384.85,10.724,10.724,0,0,0-2.114,2.5,22.357,22.357,0,0,0-1.543,2.92c-.45,1.008-.843,2.041-1.2,3.086a62.518,62.518,0,0,0-1.774,6.388c-.487,2.158-.889,4.336-1.229,6.522-.679,4.375-1.12,8.785-1.4,13.2s-.379,8.848-.371,13.275q-.017,6.639.465,13.268c.332,4.414.839,8.816,1.6,13.175.381,2.179.826,4.347,1.359,6.493a60.971,60.971,0,0,0,1.916,6.341,28.863,28.863,0,0,0,2.875,5.929,11.031,11.031,0,0,0,2.145,2.451,5.516,5.516,0,0,0,1.372.832,3.786,3.786,0,0,0,1.551.3,3.947,3.947,0,0,0,1.536-.376,5.889,5.889,0,0,0,1.344-.883,11.638,11.638,0,0,0,2.1-2.493,29.834,29.834,0,0,0,2.832-5.952,62.342,62.342,0,0,0,1.893-6.348c.527-2.147.967-4.316,1.344-6.5.755-4.36,1.257-8.763,1.59-13.177S954.483,659.092,954.481,654.665Z" transform="translate(-891.799 -605.359)" fill="#fff" style="mix-blend-mode: soft-light;isolation: isolate"/>
          <path id="Trazado_628006" data-name="Trazado 628006" d="M803.135,652.788a64.764,64.764,0,0,1-2.3,16.961,54.61,54.61,0,0,1-7.1,15.554,44.811,44.811,0,0,1-5.42,6.637,38.025,38.025,0,0,1-6.672,5.371,32.162,32.162,0,0,1-7.785,3.559,29.114,29.114,0,0,1-16.927.008,32.17,32.17,0,0,1-7.791-3.554,38.061,38.061,0,0,1-6.681-5.367,44.826,44.826,0,0,1-5.431-6.636,54.691,54.691,0,0,1-7.115-15.559,61.588,61.588,0,0,1-1.723-8.41,63.231,63.231,0,0,1,.005-17.129,61.565,61.565,0,0,1,1.728-8.407,54.667,54.667,0,0,1,7.124-15.549,44.812,44.812,0,0,1,5.431-6.629,37.931,37.931,0,0,1,6.679-5.358,32.3,32.3,0,0,1,7.785-3.54,28.909,28.909,0,0,1,16.9.007,32.28,32.28,0,0,1,7.779,3.547,37.906,37.906,0,0,1,6.67,5.362,44.771,44.771,0,0,1,5.421,6.63,54.588,54.588,0,0,1,7.106,15.543A64.764,64.764,0,0,1,803.135,652.788Zm-.754,0a64.037,64.037,0,0,0-2.205-16.778,54.363,54.363,0,0,0-6.871-15.447,44.316,44.316,0,0,0-5.3-6.618,37.016,37.016,0,0,0-6.553-5.373,31.663,31.663,0,0,0-7.685-3.553,28.194,28.194,0,0,0-16.732.007,31.633,31.633,0,0,0-7.679,3.559,36.984,36.984,0,0,0-6.544,5.377,44.294,44.294,0,0,0-5.287,6.619,54.285,54.285,0,0,0-6.852,15.441,62.029,62.029,0,0,0-1.647,8.31,64.63,64.63,0,0,0,.005,16.908,61.961,61.961,0,0,0,1.653,8.308,54.266,54.266,0,0,0,6.862,15.431,44.261,44.261,0,0,0,5.288,6.612,36.856,36.856,0,0,0,6.542,5.367,31.759,31.759,0,0,0,7.673,3.546,27.994,27.994,0,0,0,16.706.008,31.776,31.776,0,0,0,7.679-3.54,36.9,36.9,0,0,0,6.551-5.363,44.3,44.3,0,0,0,5.3-6.61,54.342,54.342,0,0,0,6.88-15.436A64.034,64.034,0,0,0,802.381,652.788Z" transform="translate(-717.384 -603.483)" fill="#fff" style="mix-blend-mode: soft-light;isolation: isolate"/>
          <path id="Trazado_628007" data-name="Trazado 628007" d="M677.93,837.464l11.331-.092,11.332-.052,22.663-.042,22.663.046,11.332.057,11.332.1a.033.033,0,0,1,0,.066l-11.332.1-11.332.057-22.663.046-22.663-.042-11.332-.052-11.331-.091a.05.05,0,0,1,0-.1Z" transform="translate(-673.943 -807.684)" fill="#fff" style="mix-blend-mode: soft-light;isolation: isolate"/>
          <path id="Trazado_628008" data-name="Trazado 628008" d="M781.786,687.527c2.682-.043,5.363-.061,8.045-.092l8.045-.052c2.682-.022,5.363-.02,8.045-.027l8.045-.015,16.09.046,8.045.057c2.682.034,5.363.053,8.045.1a.033.033,0,0,1,0,.067c-2.682.046-5.363.065-8.045.1l-8.045.057-16.09.046-8.045-.015c-2.682-.007-5.363,0-8.045-.027l-8.045-.052c-2.682-.031-5.363-.049-8.045-.092a.05.05,0,0,1,0-.1Z" transform="translate(-764.653 -676.727)" fill="#fff" style="mix-blend-mode: soft-light;isolation: isolate"/>
          <path id="Trazado_628009" data-name="Trazado 628009" d="M646.821,987.4l12.316-.091,12.316-.052,24.632-.042,24.632.046,12.316.057,12.316.1a.033.033,0,0,1,0,.067l-12.316.1-12.316.057-24.632.046-24.632-.042-12.316-.052-12.316-.091a.05.05,0,0,1,0-.1Z" transform="translate(-646.772 -938.641)" fill="#fff" style="mix-blend-mode: soft-light;isolation: isolate"/>
          <path id="Trazado_628010" data-name="Trazado 628010" d="M677.93,1137.336l11.331-.092,11.332-.052,22.663-.042,22.663.046,11.332.057,11.332.1a.033.033,0,0,1,0,.066l-11.332.1-11.332.057-22.663.046-22.663-.042-11.332-.052-11.331-.092a.05.05,0,0,1,0-.1Z" transform="translate(-673.943 -1069.598)" fill="#fff" style="mix-blend-mode: soft-light;isolation: isolate"/>
          <path id="Trazado_628011" data-name="Trazado 628011" d="M858.094,1287.917H793.733a.174.174,0,1,1,0-.348h64.361a.174.174,0,0,1,0,.348Z" transform="translate(-774.978 -1200.976)" fill="#fff" style="mix-blend-mode: soft-light;isolation: isolate"/>
        </g>
      </g>
      <g id="Grupo_947222" data-name="Grupo 947222" transform="translate(303.028 364.973)">
        <g id="Grupo_947221" data-name="Grupo 947221" transform="translate(0 0)">
          <g id="Grupo_947219" data-name="Grupo 947219" transform="translate(0.996 2.714)">
            <path id="Trazado_628012" data-name="Trazado 628012" d="M477.834,512.46c9.754-.144,58-.988,67.9-1.162a1.748,1.748,0,0,1,1.778,1.748v4.517a1.748,1.748,0,0,1-1.748,1.748H477.861a1.748,1.748,0,0,1-1.748-1.748v-3.355A1.747,1.747,0,0,1,477.834,512.46Z" transform="translate(-476.113 -511.298)" fill="#b0c0d2"/>
            <path id="Trazado_628013" data-name="Trazado 628013" d="M586.857,526.08h0a1.759,1.759,0,0,0,1.789,1.759l39.346-.682a1.759,1.759,0,0,0,1.678-2.178l-.179-.73a1.759,1.759,0,0,0-1.772-1.339l-39.167,1.413A1.759,1.759,0,0,0,586.857,526.08Z" transform="translate(-572.839 -521.439)" fill="#727997"/>
          </g>
          <g id="Grupo_947220" data-name="Grupo 947220">
            <path id="Trazado_628014" data-name="Trazado 628014" d="M474.47,549.9l-6.049,6.158a.621.621,0,0,0,.044.911l.045.038a.577.577,0,0,0,.816-.074l5.539-6.681Z" transform="translate(-468.243 -542.295)" fill="#fff"/>
            <path id="Trazado_628015" data-name="Trazado 628015" d="M514.047,495.592a4.005,4.005,0,1,1-5.307-1.824A3.969,3.969,0,0,1,514.047,495.592Z" transform="translate(-501.606 -492.925)" opacity="0.25" fill="url(#linear-gradient-2)"/>
            <path id="Trazado_628016" data-name="Trazado 628016" d="M505.444,490.3a4.376,4.376,0,1,0,5.906,2.03A4.416,4.416,0,0,0,505.444,490.3Zm3.492,7.317a3.733,3.733,0,1,1,1.823-5.006A3.767,3.767,0,0,1,508.936,497.616Z" transform="translate(-498.501 -489.856)" fill="#fff"/>
            <path id="Trazado_628017" data-name="Trazado 628017" d="M505.045,527.211a.063.063,0,0,1-.061-.046,4.064,4.064,0,0,1-.139-.853.063.063,0,0,1,.126-.007,3.931,3.931,0,0,0,.134.826.063.063,0,0,1-.044.078Z" transform="translate(-500.212 -521.639)" fill="#fff"/>
            <path id="Trazado_628018" data-name="Trazado 628018" d="M477.828,590.719a.064.064,0,0,1-.043-.017.063.063,0,0,1,0-.089l.093-.1a.063.063,0,1,1,.092.087l-.093.1A.063.063,0,0,1,477.828,590.719Z" transform="translate(-476.56 -577.754)" fill="#fff"/>
          </g>
        </g>
      </g>
      <g id="Grupo_947223" data-name="Grupo 947223" transform="translate(308.246 352.615)">
        <path id="Trazado_628019" data-name="Trazado 628019" d="M1412.167,505.011l34.015-65.166h-6.969a1.522,1.522,0,0,1-1.177-2.488l36.253-44.185a2.557,2.557,0,0,1,4.529,1.772l-2.548,43.208a4.318,4.318,0,0,1-4.8,4.035l-4.859-.556-33.75,73.09a5.374,5.374,0,0,1-4.879,3.121h-11.7Z" transform="translate(-1297.901 -392.23)" fill="#b0c0d2"/>
        <path id="Trazado_628020" data-name="Trazado 628020" d="M1190,858.6l24.014,53.344a8.807,8.807,0,0,0,8.03,5.191h12.38a4.52,4.52,0,0,0,3.953-2.327l.44-.794h0a3.54,3.54,0,0,1-3.153-1.931l-32-62.691Z" transform="translate(-1103.853 -791.526)" fill="#12263f"/>
        <path id="Trazado_628021" data-name="Trazado 628021" d="M877.482,812.974h0a5.252,5.252,0,0,0-7.626,1.212l-35.307,53.047a15.252,15.252,0,0,1-12.7,6.8h-4.968l-4.043-11.647s32.824-50.329,41.284-57.942c0,0,8.425-7.593,16.732-1.852a13.863,13.863,0,0,1,4.879,6.147Z" transform="translate(-774.438 -748.772)" fill="#12263f"/>
        <path id="Trazado_628022" data-name="Trazado 628022" d="M509.47,983.406a26.666,26.666,0,0,1,17.363-8.537s5.44,1.853,16.276,21.271,18.03,28.273,26.471,23.436l-.7,1.16a12.73,12.73,0,0,1-10.9,6.162h-4.668a15.971,15.971,0,0,1-12.966-6.644C531.908,1008.531,514.651,985.226,509.47,983.406Z" transform="translate(-509.47 -901.117)" fill="#afc0d4"/>
        <path id="Trazado_628023" data-name="Trazado 628023" d="M1905.084,503.261h-.022a.19.19,0,0,1-.167-.21l.239-2.11a.19.19,0,0,1,.377.043l-.239,2.11A.19.19,0,0,1,1905.084,503.261Z" transform="translate(-1728.257 -487.032)" fill="#91b3fa"/>
        <path id="Trazado_628024" data-name="Trazado 628024" d="M1666.01,457.311a.19.19,0,0,1-.15-.306l29.936-38.9a1.109,1.109,0,0,1,1.98.8l-.528,4.663a.19.19,0,0,1-.377-.043l.528-4.663a.729.729,0,0,0-1.3-.526l-29.936,38.9A.189.189,0,0,1,1666.01,457.311Z" transform="translate(-1519.446 -414.45)" fill="#727997"/>
        <path id="Trazado_628025" data-name="Trazado 628025" d="M1129.5,884.728a.19.19,0,0,1-.157-.3l15.482-22.949a2.582,2.582,0,0,1,4.474.34.19.19,0,0,1-.343.162,2.2,2.2,0,0,0-3.816-.289l-15.482,22.949A.19.19,0,0,1,1129.5,884.728Z" transform="translate(-1050.846 -801.089)" fill="#91b3fa"/>
        <path id="Trazado_628026" data-name="Trazado 628026" d="M1097.713,1087.313a.188.188,0,0,1-.106-.033.19.19,0,0,1-.051-.264l.993-1.471a.19.19,0,0,1,.315.212l-.993,1.471A.19.19,0,0,1,1097.713,1087.313Z" transform="translate(-1023.086 -997.71)" fill="#91b3fa"/>
      </g>
      <g id="Grupo_947225" data-name="Grupo 947225" transform="translate(362.626 431.533)">
        <path id="Trazado_628027" data-name="Trazado 628027" d="M878.864,1126.342a9.524,9.524,0,0,1-.662,12.134l-2.015-.188s3.88-6.229,2.151-11.195l-2.855.208-1.579-1.029Z" transform="translate(-868.57 -1111.665)" fill="url(#linear-gradient-3)"/>
        <g id="Grupo_947224" data-name="Grupo 947224" transform="translate(0.518 0)">
          <path id="Trazado_628028" data-name="Trazado 628028" d="M859.488,1012.025l-22.309-1.152a.717.717,0,0,0-.819.587l-.5,13.51a.723.723,0,0,0,.779.651c4.039.085,21.972.464,22.762.526s.839-10.807.842-13.489A.723.723,0,0,0,859.488,1012.025Z" transform="translate(-835.855 -1010.871)" fill="#6aceae"/>
          <path id="Trazado_628029" data-name="Trazado 628029" d="M863.26,1028.926c-2.943-.1-19.128-.44-22.343-.508h0a.155.155,0,0,1-.157-.151l.5-13.51a.137.137,0,0,1,.06-.107.177.177,0,0,1,.113-.032l22.309,1.152a.156.156,0,0,1,.157.146c-.006,6.635-.228,11.72-.564,12.955l-.015.057Zm-21.852-14.163-.506,13.5a.023.023,0,0,0,.013.006h0c3.194.067,19.19.4,22.285.506.325-1.317.538-6.334.546-12.851a.029.029,0,0,0-.018-.006l-22.309-1.152h0C841.414,1014.766,841.409,1014.766,841.407,1014.762Z" transform="translate(-840.135 -1014.143)" fill="url(#linear-gradient)"/>
          <path id="Trazado_628030" data-name="Trazado 628030" d="M861.045,1026.074h0c-.015.341-.141.613-.281.607l-6.2-.276c-.14-.006-.242-.288-.227-.63h0c.015-.342.141-.613.282-.607l6.2.276C860.959,1025.451,861.06,1025.733,861.045,1026.074Z" transform="translate(-851.995 -1023.358)" fill="url(#linear-gradient)"/>
          <path id="Trazado_628031" data-name="Trazado 628031" d="M860.839,1041.5h0a.286.286,0,0,1-.268.3l-6.2-.276a.286.286,0,0,1-.24-.32h0a.286.286,0,0,1,.268-.3l6.2.276A.286.286,0,0,1,860.839,1041.5Z" transform="translate(-851.817 -1037.1)" fill="url(#linear-gradient)"/>
          <path id="Trazado_628032" data-name="Trazado 628032" d="M860.839,1051.674h0a.286.286,0,0,1-.268.3l-6.2-.276a.286.286,0,0,1-.24-.321h0a.286.286,0,0,1,.268-.3l6.2.276A.286.286,0,0,1,860.839,1051.674Z" transform="translate(-851.817 -1045.988)" fill="url(#linear-gradient)"/>
          <path id="Trazado_628033" data-name="Trazado 628033" d="M915.357,1038.241c-.843-.194-1.465-.709-1.48-1.225a.662.662,0,0,1,.17-.458,1.308,1.308,0,0,1-.408-.711,1.105,1.105,0,0,1,.342-1.056,1.153,1.153,0,0,1-.267-.736,1.3,1.3,0,0,1,.523-.947,1.149,1.149,0,0,1-.3-.972c.169-1.057,1.073-1.09,1.841-1,.22.026.446.061.664.094a3.582,3.582,0,0,0,1.252.075.124.124,0,0,0,0-.014,4.112,4.112,0,0,0-.112-.587,3.326,3.326,0,0,1,.166-2.713c.484-.671.929-.626,1.151-.54a.943.943,0,0,1,.561.884,3.054,3.054,0,0,0,.579,2.179,5.246,5.246,0,0,1,.873,1.648,2.294,2.294,0,0,0,.389.786,2.1,2.1,0,0,0,.813.3.3.3,0,0,1,.263.329l-.54,4.655a.3.3,0,0,1-.294.263h-.248A50.088,50.088,0,0,1,915.357,1038.241Zm5.613-4.8a2.164,2.164,0,0,1-.617-1.071,4.713,4.713,0,0,0-.764-1.467,3.672,3.672,0,0,1-.723-2.632.376.376,0,0,0-.193-.272c-.1-.033-.274.1-.447.337a2.844,2.844,0,0,0-.07,2.23,4.27,4.27,0,0,1,.127.692.578.578,0,0,1-.187.478c-.33.3-.956.2-1.75.077-.213-.033-.433-.067-.642-.091-1.086-.126-1.139.209-1.186.505a.687.687,0,0,0,.342.638.3.3,0,0,1,.013.508c-.254.163-.558.415-.566.692a.764.764,0,0,0,.3.522.3.3,0,0,1-.034.5.562.562,0,0,0-.355.637.632.632,0,0,0,.472.508.3.3,0,0,1,.056.581c-.168.049-.28.121-.278.181,0,.155.349.508,1.019.663a50.857,50.857,0,0,0,5.784.236l.478-4.12A2.574,2.574,0,0,1,920.97,1033.444Zm-3.281-2.13Z" transform="translate(-903.772 -1025.31)" fill="url(#linear-gradient)"/>
        </g>
        <path id="Trazado_628034" data-name="Trazado 628034" d="M843.654,1348.533s-3.807,8.3-5.8,11.733c0,0-.4,2.162,0,2.842l.338.15-1.578-.047a28.283,28.283,0,0,1-.031-3.071.4.4,0,0,1,.328-.152s.676-5.36,2.636-6.5l1.9-6.54Z" transform="translate(-835.934 -1304.405)" fill="url(#linear-gradient-9)"/>
        <path id="Trazado_628035" data-name="Trazado 628035" d="M834.69,1453.559c0,.038-1.232.021-1.9.008a.534.534,0,0,1-.511-.421l-.506-2.66a.478.478,0,0,1,.363-.556l.283-.065a1.514,1.514,0,0,1,.276,1.074c-.127.521-.24,1.87.081,2.027a4.682,4.682,0,0,0,1.243.185S834.668,1453.216,834.69,1453.559Z" transform="translate(-831.761 -1394.297)" fill="url(#linear-gradient-10)"/>
        <path id="Trazado_628036" data-name="Trazado 628036" d="M893.458,1469.852a.139.139,0,0,1-.07.26c-1.122-.011-3.636-.047-3.86-.14-.288-.12.105-1.156.519-1.507l2.287.746Z" transform="translate(-882.129 -1410.541)" fill="url(#linear-gradient-11)"/>
        <path id="Trazado_628037" data-name="Trazado 628037" d="M898.434,1355.307s-2.46,11.9-3.156,14.222l1.646,1.033s-.825-.14-1.437-.185a2.1,2.1,0,0,1-1.174-.746l.2-.315s.617-11.836.467-13.18Z" transform="translate(-886.395 -1311.707)" fill="url(#linear-gradient-12)"/>
        <path id="Trazado_628038" data-name="Trazado 628038" d="M938.561,1111.791a10.631,10.631,0,0,1-5.3,9.354l1.357,3.095s5.1-3.086,4.914-11.5a.978.978,0,0,1,.24-.659l1.084-1.258a1.947,1.947,0,0,0,.414-1.744l-.143-.571a.3.3,0,0,0-.436-.184l-.113.066a1.991,1.991,0,0,0-.817.909l-.533,1.19a1.144,1.144,0,0,1-1.143.673l-.329-.028Z" transform="translate(-920.415 -1095.95)" fill="url(#linear-gradient-13)"/>
        <path id="Trazado_628039" data-name="Trazado 628039" d="M892.507,1206.175a27.071,27.071,0,0,1-6.132,1.068l1.224,6.91-.1,1.127,3.992-.018a30.974,30.974,0,0,1,2.01-3.911c.256-.376.066-.824-.08-1.255l.2-.133a.543.543,0,0,0,.215-.621l-.972-2.974A.3.3,0,0,0,892.507,1206.175Z" transform="translate(-879.462 -1181.443)" fill="#bdd0fb"/>
        <path id="Trazado_628040" data-name="Trazado 628040" d="M878.835,1272.417l-.078.683s1.128,3.379-.564,11.27a7.872,7.872,0,0,1-6.677-1.446s.85-7.448,1.082-7.795a6.215,6.215,0,0,1,1.926-2.1l.035-.746S877.779,1272.862,878.835,1272.417Z" transform="translate(-866.483 -1239.189)" fill="#f38e1e"/>
        <path id="Trazado_628041" data-name="Trazado 628041" d="M899.6,1193c.014-.019-.833-2.559-.833-2.559l-1.214.11-.474,2.882S898.979,1193.813,899.6,1193Z" transform="translate(-888.809 -1167.707)" fill="url(#linear-gradient-14)"/>
        <path id="Trazado_628042" data-name="Trazado 628042" d="M886,1157.937a3.362,3.362,0,0,1,2.054,3.7.49.49,0,0,1-.279.349,4.257,4.257,0,0,1-2.112.35c-1.317-.134-2.179-2.431-2.142-3.1S885.2,1157.438,886,1157.937Z" transform="translate(-876.972 -1139.213)" fill="url(#linear-gradient-15)"/>
        <path id="Trazado_628043" data-name="Trazado 628043" d="M852.715,1150.362c.066.009,1.452.491.765,1.5s-.945,1.6-.62,2.037c.3.4.952.173.9,1.009a.469.469,0,0,0,.2.424,2.24,2.24,0,0,1,.632,3.544.468.468,0,0,0-.053.524c.438.785,1.357,3.085-1.972,4.361-3.29,1.261-4.477-.89-4.809-1.749a.459.459,0,0,0-.454-.29c-.361.017-.874-.043-.85-.526a1.207,1.207,0,0,1,.414-.767.458.458,0,0,0-.088-.722.9.9,0,0,1-.443-.558,2.919,2.919,0,0,1,2.316-3.322.5.5,0,0,0,.387-.374v-.008a.457.457,0,0,0-.17-.45,1.188,1.188,0,0,1-.419-1.548,1.735,1.735,0,0,1,1.356-1.026.461.461,0,0,0,.378-.551C850.03,1151.158,850.161,1150.027,852.715,1150.362Z" transform="translate(-844.447 -1132.652)" fill="url(#linear-gradient-16)"/>
      </g>
      <g id="Grupo_947226" data-name="Grupo 947226" transform="translate(303.352 401.13)">
        <path id="Trazado_628044" data-name="Trazado 628044" d="M480.636,787.281H472a1.2,1.2,0,0,1-1.2-1.2v-8.657a1.2,1.2,0,0,1,1.1-1.192l9.2-.744a1.2,1.2,0,0,1,1.29,1.263l-.565,9.4A1.2,1.2,0,0,1,480.636,787.281Z" transform="translate(-470.807 -775.489)" fill="#bdd0fb"/>
        <path id="Trazado_628045" data-name="Trazado 628045" d="M483.662,802.418a.914.914,0,0,1-.915-.914v-5.55a.283.283,0,1,1,.567,0v5.55a.348.348,0,0,0,.368.347l6.577-.391a.348.348,0,0,0,.327-.347v-5.449a.348.348,0,0,0-.382-.346l-5.471.542a.347.347,0,0,0-.247.55l2.087,2.88a.344.344,0,0,0,.279.144h0a.344.344,0,0,0,.278-.139l2.3-3.062a.283.283,0,1,1,.453.34l-2.3,3.063a.888.888,0,0,1-.739.365.906.906,0,0,1-.733-.378l-2.087-2.88a.914.914,0,0,1,.65-1.446l5.471-.542a.914.914,0,0,1,1,.91v5.449a.915.915,0,0,1-.86.913l-6.577.392Z" transform="translate(-481.236 -792.311)" fill="#fff"/>
      </g>
      <g id="Grupo_947232" data-name="Grupo 947232" transform="translate(420.479 426.021)">
        <g id="Grupo_947231" data-name="Grupo 947231" transform="translate(0 0)">
          <g id="Grupo_947230" data-name="Grupo 947230">
            <g id="Grupo_947227" data-name="Grupo 947227">
              <path id="Trazado_628046" data-name="Trazado 628046" d="M1398.812,993.124h41.264c1.316,0,2.382-.5,2.382-1.119V973.3c0-.617-1.063-1.117-2.376-1.119l-41.594-.052c-1.323,0-2.4.5-2.389,1.124l.33,18.759C1396.437,992.626,1397.5,993.124,1398.812,993.124Z" transform="translate(-1396.1 -972.128)" fill="#f3c035"/>
              <path id="Trazado_628047" data-name="Trazado 628047" d="M1416.719,983.439l36.9.107c1.333,0,2.409.514,2.4,1.14l-.258,15.733c-.006.617-1.06,1.118-2.374,1.13l-35.849.307c-1.339.011-2.443-.49-2.461-1.119l-.79-16.147C1414.267,983.954,1415.364,983.435,1416.719,983.439Z" transform="translate(-1411.984 -982.007)" fill="#fff4d6"/>
              <path id="Trazado_628048" data-name="Trazado 628048" d="M1445.353,992.623v.12c0,.187.324.339.723.339H1474.5c.4,0,.723-.152.723-.339v-.12c0-.187-.324-.339-.723-.339h-28.428C1445.677,992.283,1445.353,992.435,1445.353,992.623Z" transform="translate(-1439.118 -989.732)" fill="url(#linear-gradient)"/>
              <path id="Trazado_628049" data-name="Trazado 628049" d="M1470.4,1004.363h0c.021.178.33.318.709.321l24.862.213c.4,0,.736-.15.736-.339v-.028c0-.185-.317-.337-.712-.34l-24.862-.185C1470.718,1004,1470.381,1004.166,1470.4,1004.363Z" transform="translate(-1460.997 -999.969)" fill="url(#linear-gradient)"/>
              <path id="Trazado_628050" data-name="Trazado 628050" d="M1431.2,1030.06c-1.1,0-1.947-.443-1.969-1.036l-.806-10.981s0-.006,0-.009a.722.722,0,0,1,.219-.528,2.5,2.5,0,0,1,1.716-.556l33.569-.307c1.118-.007,1.982.434,2.006,1.034l.865,11.1a.725.725,0,0,1-.219.539,2.51,2.51,0,0,1-1.729.555l-33.627.189Zm-2.27-12.048.806,10.984c.009.234.583.558,1.464.558h.021l33.627-.19a2.048,2.048,0,0,0,1.366-.4.23.23,0,0,0,.079-.16l-.865-11.1c-.01-.235-.583-.558-1.463-.558h-.033l-33.569.307a2.041,2.041,0,0,0-1.354.4A.235.235,0,0,0,1428.928,1018.012Z" transform="translate(-1424.33 -1011.009)" fill="url(#linear-gradient)"/>
              <path id="Trazado_628051" data-name="Trazado 628051" d="M1468.74,1034.08h-36.623a.253.253,0,0,1,0-.506h36.623a.253.253,0,0,1,0,.506Z" transform="translate(-1427.337 -1025.796)" fill="url(#linear-gradient-20)"/>
            </g>
            <path id="Trazado_628052" data-name="Trazado 628052" d="M1794.009,1477.615c-1.238.057-2.437.021-3.237-.02a16.248,16.248,0,0,1,3.812-2.1l.964-.058a3.931,3.931,0,0,1,.443,1.634C1795.832,1477.275,1795.365,1477.553,1794.009,1477.615Z" transform="translate(-1740.813 -1411.73)" fill="url(#linear-gradient-21)"/>
            <path id="Trazado_628053" data-name="Trazado 628053" d="M1886.277,1477.67a9.393,9.393,0,0,1,.348-1.637c.177-.337.78,0,.78,0a1.6,1.6,0,0,1,.619.527c.124.21.468.807.7,1.212a.271.271,0,0,1,.037.144l-2.416.084A.483.483,0,0,1,1886.277,1477.67Z" transform="translate(-1824.224 -1412.117)" fill="url(#linear-gradient-22)"/>
            <path id="Trazado_628054" data-name="Trazado 628054" d="M1884.859,1459.721c.021.07.333,1.583.47,2.248a.379.379,0,0,0,.39.3c.1-.005.221-.014.346-.03a.458.458,0,0,0,.4-.437,6.2,6.2,0,0,0-.181-2.132C1885.988,1459.076,1884.859,1459.721,1884.859,1459.721Z" transform="translate(-1822.99 -1397.737)" fill="url(#linear-gradient-23)"/>
            <path id="Trazado_628055" data-name="Trazado 628055" d="M1820.714,1461.9c-.134,0,.053.691-.149,1.375a.352.352,0,0,1-.322.277c-.1,0-.228,0-.353-.011a.389.389,0,0,1-.358-.35l-.165-1.773Z" transform="translate(-1765.788 -1399.486)" fill="url(#linear-gradient-24)"/>
            <path id="Trazado_628056" data-name="Trazado 628056" d="M1800.415,1310.356c.06.291,2.169,12.6,2.3,18.963a.217.217,0,0,0,.187.211,4.251,4.251,0,0,0,1.3-.009.152.152,0,0,0,.126-.14c.074-1.187.667-11.219-.059-15.941,0,0,6,12.624,6.908,16.105a.183.183,0,0,0,.187.137,4.54,4.54,0,0,0,1.215-.216.318.318,0,0,0,.2-.373c-.508-2.083-4.068-16.436-6.485-19.6Z" transform="translate(-1749.235 -1266.79)" fill="#b0c0d2"/>
            <path id="Trazado_628057" data-name="Trazado 628057" d="M1714.724,1185.767a7.613,7.613,0,0,0,3.989.01c1.755-.46,5.216-1.222,7.572-.8l.2,6.165-8.055.921-.072-1.637s-4.9-.707-7.546-3.926a13.122,13.122,0,0,0,1.48-2.005A6.332,6.332,0,0,0,1714.724,1185.767Z" transform="translate(-1670.971 -1157.614)" fill="#294ddc"/>
            <path id="Trazado_628058" data-name="Trazado 628058" d="M1697.966,1144.66l.621-.273a7.174,7.174,0,0,0,2.281,5.077,13.122,13.122,0,0,1-1.48,2.005A7.663,7.663,0,0,1,1697.966,1144.66Z" transform="translate(-1659.552 -1122.582)" fill="url(#linear-gradient-25)"/>
            <path id="Trazado_628059" data-name="Trazado 628059" d="M1786.615,1161.25s.468,2.79.53,3.667c0,0-2.258.624-2.848.289l.074-3.375Z" transform="translate(-1735.158 -1137.31)" fill="url(#linear-gradient-26)"/>
            <g id="Grupo_947228" data-name="Grupo 947228" transform="translate(43.556 32.169)">
              <path id="Trazado_628060" data-name="Trazado 628060" d="M1760.911,1226.392l-19.9-.134a.817.817,0,0,0-.822.823l.084,10.993a.816.816,0,0,0,.841.81l19.687-.592a.817.817,0,0,0,.792-.806l.132-10.268A.817.817,0,0,0,1760.911,1226.392Z" transform="translate(-1740.187 -1226.258)" fill="#91b3fa"/>
              <path id="Trazado_628061" data-name="Trazado 628061" d="M1745.765,1242.883a.14.14,0,0,1-.141-.138l-.084-10.993a.139.139,0,0,1,.14-.14l19.9.134a.139.139,0,0,1,.138.141l-.132,10.268a.139.139,0,0,1-.135.137Zm-.1-11.132.084,10.993a.012.012,0,0,0,.012.012l19.688-.592a.012.012,0,0,0,.012-.013l.132-10.267-.012-.076v.063l-19.9-.134-.076.013Z" transform="translate(-1744.863 -1230.934)" fill="url(#linear-gradient)"/>
              <path id="Trazado_628062" data-name="Trazado 628062" d="M1771.677,1238.052h0c0,.355-.206.642-.461.642h-16.927c-.255,0-.461-.287-.461-.642h0c0-.354.207-.642.461-.642h16.927C1771.47,1237.41,1771.677,1237.7,1771.677,1238.052Z" transform="translate(-1752.1 -1235.998)" fill="url(#linear-gradient)"/>
              <path id="Trazado_628063" data-name="Trazado 628063" d="M1841.857,1255.057h-7.127a.457.457,0,0,0-.457.457v5.884a.457.457,0,0,0,.469.457l6.981-.194a.457.457,0,0,0,.444-.445l.146-5.691A.457.457,0,0,0,1841.857,1255.057Z" transform="translate(-1822.363 -1251.411)" fill="url(#linear-gradient)"/>
              <path id="Trazado_628064" data-name="Trazado 628064" d="M1765.47,1256.2h-7.955a.355.355,0,0,0-.313.385h0a.355.355,0,0,0,.313.385h7.955a.355.355,0,0,0,.313-.385h0A.355.355,0,0,0,1765.47,1256.2Z" transform="translate(-1755.047 -1252.41)" fill="url(#linear-gradient)"/>
              <path id="Trazado_628065" data-name="Trazado 628065" d="M1765.783,1267.974h0a.354.354,0,0,1-.313.384h-7.957a.354.354,0,0,1-.313-.384v-.238a.352.352,0,0,1,.32-.384l7.957.237A.357.357,0,0,1,1765.783,1267.974Z" transform="translate(-1755.047 -1262.15)" fill="url(#linear-gradient)"/>
            </g>
            <path id="Trazado_628066" data-name="Trazado 628066" d="M1817.461,1191.641l1.977-3.327a18.764,18.764,0,0,1,5.383,8.466l-2.192,1.377A32.486,32.486,0,0,0,1817.461,1191.641Z" transform="translate(-1764.124 -1160.948)" fill="#294ddc"/>
            <path id="Trazado_628067" data-name="Trazado 628067" d="M1848.17,1263.876a.536.536,0,0,0,.477-.312,13.517,13.517,0,0,1,.895-1.715,1.121,1.121,0,0,0-.7-.02c-.449.1-.83-.079-.843-.328l2.1-.9c.076-.214.381-1.418-1.082-4.032l2.192-1.378a10.482,10.482,0,0,1-.176,6s-.413,2.406-1.25,2.893-2.11-.2-2.11-.2Z" transform="translate(-1790.51 -1219.36)" fill="url(#linear-gradient-32)"/>
            <g id="Grupo_947229" data-name="Grupo 947229" transform="translate(47.947 19.485)">
              <path id="Trazado_628068" data-name="Trazado 628068" d="M1776.7,1140.933a11.058,11.058,0,0,0-.8,2.63c-.05.905-.245,1.493.8,1.675a2.225,2.225,0,0,0,2.406-1.241s.748-1.389.58-1.958S1776.7,1140.933,1776.7,1140.933Z" transform="translate(-1775.732 -1139.05)" fill="url(#linear-gradient-33)"/>
              <path id="Trazado_628069" data-name="Trazado 628069" d="M1777.9,1130.353h-.132s.545-1.118.066-1.315-2.376-.583-2.786-1.257a1.252,1.252,0,0,1,.484-1.722.07.07,0,0,1,.09.033l.043.083a.071.071,0,0,0,.131-.014h0a.071.071,0,0,1,.127-.02,1.919,1.919,0,0,0,1.375.7c1.291.238,2.145.761,2.166,1.653a.071.071,0,0,0,.11.058c.1-.058.248-.085.452.086.354.3.209,1.072-.568,1.708a.071.071,0,0,0,0,.114c.141.092.351.31-.193.6a1.452,1.452,0,0,1-1.011.233.071.071,0,0,1-.054-.073l.049-.791a.071.071,0,0,0-.071-.075Z" transform="translate(-1774.876 -1126.055)" fill="url(#linear-gradient-34)"/>
              <path id="Trazado_628070" data-name="Trazado 628070" d="M1798.483,1155.475s.286-1.1.78-.793-.256,1.234-.653,1.275Z" transform="translate(-1795.495 -1151.011)" fill="url(#linear-gradient-35)"/>
            </g>
            <path id="Trazado_628071" data-name="Trazado 628071" d="M1694.145,1126.106v1.246a3.661,3.661,0,0,1-2.335,1.341s-1.163-.076-1.124-.938l1.86-.355a8.911,8.911,0,0,0,1-.349S1693.706,1126.145,1694.145,1126.106Z" transform="translate(-1653.396 -1106.615)" fill="url(#linear-gradient-36)"/>
          </g>
          <path id="Trazado_628072" data-name="Trazado 628072" d="M1790.378,1488.97l.01-.007c.8.041,2,.077,3.237.02,1.356-.062,1.823-.34,1.983-.54.005.052.011.1.015.16a.452.452,0,0,1-.415.488c-1.014.077-3.529.25-4.741.187A.169.169,0,0,1,1790.378,1488.97Z" transform="translate(-1740.406 -1423.086)" fill="#91b3fa"/>
        </g>
        <path id="Trazado_628073" data-name="Trazado 628073" d="M1889.271,1491.922a.275.275,0,0,1-.268.267l-1.721.047a.486.486,0,0,1-.427-.23Z" transform="translate(-1824.733 -1426.125)" fill="#91b3fa"/>
      </g>
      <path id="Trazado_628074" data-name="Trazado 628074" d="M1218.283,477.949c10.531-.261,62.622-1.793,73.313-2.108,1.055-.031,1.92,1.4,1.92,3.171v8.2c0,1.752-.845,3.171-1.887,3.171h-73.317c-1.042,0-1.887-1.42-1.887-3.171V481.12C1216.425,479.387,1217.252,477.974,1218.283,477.949Z" transform="translate(-818.69 -112.641)" fill="#12263f"/>
      <g id="Grupo_947233" data-name="Grupo 947233" transform="translate(460.391 364.917)">
        <path id="Trazado_628075" data-name="Trazado 628075" d="M1720.456,500.927l-2.653-1.39a.708.708,0,0,0-.659,0l-2.649,1.4a.708.708,0,0,1-1.028-.744l.5-2.953a.708.708,0,0,0-.2-.626l-2.148-2.088a.708.708,0,0,1,.391-1.208l2.964-.435a.708.708,0,0,0,.532-.388l1.322-2.688a.708.708,0,0,1,1.269,0l1.33,2.684a.707.707,0,0,0,.534.386l2.965.426a.708.708,0,0,1,.394,1.207l-2.142,2.094a.707.707,0,0,0-.2.627l.511,2.951A.708.708,0,0,1,1720.456,500.927Z" transform="translate(-1711.401 -489.41)" fill="#fff"/>
      </g>
      <g id="Grupo_947234" data-name="Grupo 947234" transform="translate(446.177 365.307)">
        <path id="Trazado_628076" data-name="Trazado 628076" d="M1608.166,504.013l-2.653-1.39a.708.708,0,0,0-.659,0l-2.649,1.4a.708.708,0,0,1-1.028-.744l.5-2.953a.708.708,0,0,0-.2-.626l-2.148-2.088a.708.708,0,0,1,.391-1.208l2.964-.435a.708.708,0,0,0,.532-.388l1.322-2.688a.708.708,0,0,1,1.269,0l1.33,2.684a.708.708,0,0,0,.534.386l2.965.426a.708.708,0,0,1,.394,1.207l-2.142,2.094a.708.708,0,0,0-.2.627l.511,2.951A.708.708,0,0,1,1608.166,504.013Z" transform="translate(-1599.11 -492.497)" fill="#fff"/>
      </g>
      <g id="Grupo_947235" data-name="Grupo 947235" transform="translate(432.366 365.384)">
        <path id="Trazado_628077" data-name="Trazado 628077" d="M1499.064,504.621l-2.653-1.39a.708.708,0,0,0-.659,0l-2.649,1.4a.708.708,0,0,1-1.028-.745l.5-2.953a.708.708,0,0,0-.2-.626l-2.148-2.088a.708.708,0,0,1,.39-1.208l2.964-.435a.708.708,0,0,0,.532-.388l1.321-2.688a.708.708,0,0,1,1.27,0l1.33,2.684a.708.708,0,0,0,.533.386l2.965.426a.708.708,0,0,1,.394,1.207l-2.142,2.094a.707.707,0,0,0-.2.627l.511,2.952A.708.708,0,0,1,1499.064,504.621Z" transform="translate(-1490.009 -493.104)" fill="#fff"/>
      </g>
      <g id="Grupo_947236" data-name="Grupo 947236" transform="translate(418.961 365.542)">
        <path id="Trazado_628078" data-name="Trazado 628078" d="M1393.161,505.863l-2.653-1.39a.708.708,0,0,0-.659,0l-2.649,1.4a.708.708,0,0,1-1.028-.744l.5-2.953a.707.707,0,0,0-.2-.626l-2.148-2.088a.708.708,0,0,1,.39-1.208l2.964-.435a.708.708,0,0,0,.532-.388l1.322-2.688a.708.708,0,0,1,1.269,0l1.33,2.684a.708.708,0,0,0,.533.386l2.965.426a.708.708,0,0,1,.394,1.207l-2.142,2.094a.707.707,0,0,0-.2.627l.511,2.951A.708.708,0,0,1,1393.161,505.863Z" transform="translate(-1384.105 -494.346)" fill="#fff"/>
      </g>
      <g id="Grupo_947240" data-name="Grupo 947240" transform="translate(391.147 366.16)">
        <g id="Grupo_947237" data-name="Grupo 947237" transform="translate(13.429)">
          <path id="Trazado_628079" data-name="Trazado 628079" d="M1282.206,515.385l-3.5-2.188a.976.976,0,0,0-.906-.067l-3.788,1.646a.976.976,0,0,1-1.336-1.131l1-4.008a.977.977,0,0,0-.216-.882l-2.736-3.094a.976.976,0,0,1,.663-1.62l4.12-.289a.976.976,0,0,0,.772-.478l2.1-3.558a.976.976,0,0,1,1.746.13l1.548,3.829a.976.976,0,0,0,.693.587l4.032.9a.976.976,0,0,1,.416,1.7l-3.163,2.656a.975.975,0,0,0-.344.841l.395,4.111A.976.976,0,0,1,1282.206,515.385Z" transform="translate(-1270.473 -499.234)" fill="#f3c035"/>
        </g>
        <g id="Grupo_947239" data-name="Grupo 947239" transform="translate(0 5.123)">
          <path id="Trazado_628080" data-name="Trazado 628080" d="M1167.585,799.024a3.689,3.689,0,0,0-.335,1.6.192.192,0,0,0,.191.2h2.094a.123.123,0,0,0,.117-.162,3.35,3.35,0,0,0-1.322-1.755Z" transform="translate(-1166.887 -766.103)" fill="url(#linear-gradient-37)"/>
          <path id="Trazado_628081" data-name="Trazado 628081" d="M1169.18,792.694l.119.993a.187.187,0,0,0,.163.164,1.661,1.661,0,0,0,.443,0,.307.307,0,0,0,.253-.3v-.959Z" transform="translate(-1168.573 -760.573)" fill="url(#linear-gradient-38)"/>
          <path id="Trazado_628082" data-name="Trazado 628082" d="M1208.125,798.915a2.924,2.924,0,0,0-.392,1.478.37.37,0,0,0,.372.362h3.253a.156.156,0,0,0,.09-.283,14.153,14.153,0,0,0-2.7-1.557Z" transform="translate(-1202.246 -766.103)" fill="url(#linear-gradient-39)"/>
          <path id="Trazado_628083" data-name="Trazado 628083" d="M1208.186,787.153l.253,1.227a.253.253,0,0,0,.3.2.92.92,0,0,0,.286-.12.291.291,0,0,0,.13-.3l-.261-1.486Z" transform="translate(-1202.641 -755.414)" fill="url(#linear-gradient-40)"/>
          <path id="Trazado_628084" data-name="Trazado 628084" d="M1165.454,655.712a3.522,3.522,0,0,0-1.044,1.706c-.165.932.469,16.077.469,16.077a2.459,2.459,0,0,0,1.331-.128s.537-9.829.945-12.1c0,0,2.141,10.181,2.734,12.021a2.784,2.784,0,0,0,1.119-.058s-.561-13.2-1.266-15.544Z" transform="translate(-1164.383 -641.027)" fill="url(#linear-gradient-41)"/>
          <path id="Trazado_628085" data-name="Trazado 628085" d="M1177.291,682.309a.1.1,0,0,1-.092-.071l-.364-1.4-.775-.5a.095.095,0,0,1,.1-.16l.806.517a.1.1,0,0,1,.041.056l.373,1.431a.1.1,0,0,1-.068.116A.09.09,0,0,1,1177.291,682.309Z" transform="translate(-1174.544 -662.39)" fill="url(#linear-gradient-42)"/>
          <path id="Trazado_628086" data-name="Trazado 628086" d="M1209.146,584.02c-3.7-.307-4.665.458-4.665.458l1.777,2.806a11.921,11.921,0,0,0,6.238-2.078,6.351,6.351,0,0,1-1.043-1.556A4.9,4.9,0,0,1,1209.146,584.02Z" transform="translate(-1199.405 -578.086)" fill="#91b3fa"/>
          <path id="Trazado_628087" data-name="Trazado 628087" d="M1261.824,549.577q-.375-.337-.723-.7a1.518,1.518,0,0,0,.472,1.156,4.349,4.349,0,0,1,.549.488c.762,1.006-1.91,2.486-2.565,2.758a6.355,6.355,0,0,0,1.043,1.556,6.607,6.607,0,0,0,1.68-1.885c.224-.383.341-.858.578-1.215.164-.247.423-.437.373-.827-.03-.233-.24-.394-.43-.533Q1262.294,550,1261.824,549.577Z" transform="translate(-1247.51 -547.714)" fill="url(#linear-gradient-43)"/>
          <path id="Trazado_628088" data-name="Trazado 628088" d="M1180.323,583.433c-1.3-1.4-3.781-2.037-5.217-2.3a1.317,1.317,0,0,0-1.472.835c-.646,1.737-2.4,6.255-2.744,7.032-.279.637-.571,1.259-.757,1.648a.467.467,0,0,0,.218.622,34.145,34.145,0,0,0,4.263,1.5.3.3,0,0,0,.387-.291.944.944,0,0,1,.135-.486l3.337-5.561c2.08,2.306,3.9,2.517,5.3,2.012a10.527,10.527,0,0,1-.463-2.185C1181.244,585.906,1180.323,583.433,1180.323,583.433Z" transform="translate(-1169.366 -575.872)" fill="#bdd0fb"/>
          <path id="Trazado_628089" data-name="Trazado 628089" d="M1277.964,615.276l-.373-.5a4.124,4.124,0,0,1-3.044.885,10.52,10.52,0,0,0,.463,2.185A6.5,6.5,0,0,0,1277.964,615.276Z" transform="translate(-1260.602 -605.275)" fill="url(#linear-gradient-44)"/>
          <path id="Trazado_628090" data-name="Trazado 628090" d="M1298.04,611.423l2.1.082,1.935-1.081a5.71,5.71,0,0,0-1.849.182s-1.642-.248-2.087-.249c-.369,0-.316.53-.288.71.006.037.01.059.01.059Z" transform="translate(-1280.941 -601.413)" fill="url(#linear-gradient-45)"/>
          <path id="Trazado_628091" data-name="Trazado 628091" d="M1217.679,560.931l-1.109,2.706a4.446,4.446,0,0,0,2.3.8l.553-2.433Z" transform="translate(-1209.964 -558.244)" fill="url(#linear-gradient-46)"/>
          <g id="Grupo_947238" data-name="Grupo 947238" transform="translate(6.027)">
            <path id="Trazado_628092" data-name="Trazado 628092" d="M1226.017,552.492a4.358,4.358,0,0,1-.337,2.294,1.579,1.579,0,0,1-2.476-.549l.308-2.255Z" transform="translate(-1221.785 -550.427)" fill="url(#linear-gradient-47)"/>
            <path id="Trazado_628093" data-name="Trazado 628093" d="M1213.952,542.612a.082.082,0,0,0,.088-.088,2.118,2.118,0,0,1,.036-.684s-.109-.2.556-.021,1.662.427,2.115.024.628-1.877-.652-1.3a.081.081,0,0,1-.114-.06.84.84,0,0,0-.744-.776.77.77,0,0,0-.816.407.081.081,0,0,1-.124.028.939.939,0,0,0-1.208-.067c-.43.328-.433.642-.38.825a.081.081,0,0,1-.094.1.489.489,0,0,0-.567.329c-.219.469.312.7.468.758a.082.082,0,0,1,.052.057,2.774,2.774,0,0,0,.865,1.483.082.082,0,0,0,.127-.055l.146-.9a.082.082,0,0,1,.087-.068Z" transform="translate(-1211.994 -539.702)" fill="url(#linear-gradient-48)"/>
            <path id="Trazado_628094" data-name="Trazado 628094" d="M1222.784,560.261s-.416-.8-.668-.45.3.869.691.9Z" transform="translate(-1220.779 -557.186)" fill="url(#linear-gradient-49)"/>
          </g>
        </g>
      </g>
      <g id="Grupo_947250" data-name="Grupo 947250" transform="translate(477.069 407.553)">
        <g id="Grupo_947241" data-name="Grupo 947241" transform="translate(14.951 12.769)">
          <path id="Trazado_628095" data-name="Trazado 628095" d="M1984.818,947.26l-21.9-1.943a1.727,1.727,0,0,1-1.574-1.711l-.081-14.763a1.727,1.727,0,0,1,1.847-1.732l23.314,1.622a1.727,1.727,0,0,1,1.6,1.876l-1.339,15.083A1.727,1.727,0,0,1,1984.818,947.26Z" transform="translate(-1961.268 -927.107)" fill="#6aceae"/>
          <path id="Trazado_628096" data-name="Trazado 628096" d="M1970.408,944.828l-.145,12.746a1.069,1.069,0,0,0,.963,1.075l20.995,2.085a1.068,1.068,0,0,0,1.17-.969l1.209-13.629a1.068,1.068,0,0,0-1.006-1.161l-22.06-1.2A1.068,1.068,0,0,0,1970.408,944.828Z" transform="translate(-1969.125 -941.663)" fill="#fff" opacity="0.87"/>
          <path id="Trazado_628097" data-name="Trazado 628097" d="M2048.455,1040.09l11.882.7a.217.217,0,0,1,.2.235l-.017.191a.216.216,0,0,1-.232.2l-11.865-.888a.216.216,0,0,1-.2-.235h0A.217.217,0,0,1,2048.455,1040.09Z" transform="translate(-2037.219 -1025.788)" fill="#6aceae"/>
          <rect id="Rectángulo_341861" data-name="Rectángulo 341861" width="0.514" height="12.33" rx="0.257" transform="translate(10.894 15.789) rotate(-84.929)" fill="#6aceae"/>
          <path id="Trazado_628098" data-name="Trazado 628098" d="M2075.179,1059.051l0,.036a.216.216,0,0,0,.2.235l8.253.733a.216.216,0,0,0,.235-.2l.015-.168a.216.216,0,0,0-.2-.235l-8.265-.6A.216.216,0,0,0,2075.179,1059.051Z" transform="translate(-2060.756 -1042.176)" fill="#6aceae"/>
        </g>
        <g id="Grupo_947242" data-name="Grupo 947242" transform="translate(7.56 5.751)">
          <path id="Trazado_628099" data-name="Trazado 628099" d="M1931.984,893.562l-25.839-.526a2.031,2.031,0,0,1-1.984-1.881l-1.277-17.311a2.031,2.031,0,0,1,2.028-2.18l27.479.036a2.031,2.031,0,0,1,2.028,2.072l-.362,17.8A2.031,2.031,0,0,1,1931.984,893.562Z" transform="translate(-1902.879 -871.664)" fill="#f38e1e"/>
          <path id="Trazado_628100" data-name="Trazado 628100" d="M1915.708,889.7l.851,14.964a1.256,1.256,0,0,0,1.215,1.184l24.795.765a1.256,1.256,0,0,0,1.294-1.23l.328-16.085a1.256,1.256,0,0,0-1.273-1.281l-25.973.356A1.256,1.256,0,0,0,1915.708,889.7Z" transform="translate(-1914.082 -885.947)" fill="#fff" opacity="0.87"/>
          <path id="Trazado_628101" data-name="Trazado 628101" d="M2013.262,997.3l13.994-.134a.254.254,0,0,1,.257.26l0,.225a.254.254,0,0,1-.256.249l-13.989-.091a.254.254,0,0,1-.253-.26h0A.254.254,0,0,1,2013.262,997.3Z" transform="translate(-1999.07 -981.279)" fill="#f38e1e"/>
          <rect id="Rectángulo_341862" data-name="Rectángulo 341862" width="0.605" height="14.497" rx="0.302" transform="translate(13.91 17.792) rotate(-88.836)" fill="#f38e1e"/>
          <path id="Trazado_628102" data-name="Trazado 628102" d="M2046.147,1018.32v.042a.254.254,0,0,0,.249.259l9.741.2a.254.254,0,0,0,.259-.249l0-.2a.254.254,0,0,0-.253-.259l-9.744-.042A.254.254,0,0,0,2046.147,1018.32Z" transform="translate(-2028.011 -999.538)" fill="#f38e1e"/>
        </g>
        <g id="Grupo_947249" data-name="Grupo 947249">
          <path id="Trazado_628103" data-name="Trazado 628103" d="M1875.885,850.483h-28.666a2.252,2.252,0,0,1-2.242-2.041l-1.807-19.168a2.253,2.253,0,0,1,2.2-2.463l30.473-.58a2.253,2.253,0,0,1,2.3,2.252v19.748A2.252,2.252,0,0,1,1875.885,850.483Z" transform="translate(-1843.159 -826.231)" fill="#12263f"/>
          <path id="Trazado_628104" data-name="Trazado 628104" d="M1857.685,846.649l1.281,16.575a1.393,1.393,0,0,0,1.374,1.286l27.513.288a1.393,1.393,0,0,0,1.408-1.393V845.561a1.393,1.393,0,0,0-1.441-1.392l-28.795.981A1.393,1.393,0,0,0,1857.685,846.649Z" transform="translate(-1855.842 -841.897)" fill="#fff" opacity="0.7"/>
          <path id="Trazado_628105" data-name="Trazado 628105" d="M1971.863,859.374l15.515-.464a.282.282,0,0,1,.291.282v.25a.282.282,0,0,1-.278.282l-15.515.214a.282.282,0,0,1-.286-.282h0A.282.282,0,0,1,1971.863,859.374Z" transform="translate(-1955.332 -854.773)" fill="#12263f"/>
          <rect id="Rectángulo_341863" data-name="Rectángulo 341863" width="16.079" height="0.671" rx="0.335" transform="translate(16.257 5.901)" fill="#12263f"/>
          <path id="Trazado_628106" data-name="Trazado 628106" d="M1940.707,954.731a.127.127,0,0,1-.126-.126v-.38a.127.127,0,0,1,.126-.127h0a.127.127,0,0,1,.127.126v.38a.127.127,0,0,1-.126.127Zm0-1.266a.127.127,0,0,1-.127-.126v-.38a.126.126,0,0,1,.126-.127h0a.127.127,0,0,1,.127.126v.38a.127.127,0,0,1-.126.127Zm0-1.266a.127.127,0,0,1-.127-.126v-.38a.126.126,0,0,1,.126-.127h0a.126.126,0,0,1,.127.126v.38a.127.127,0,0,1-.126.127Zm0-1.266a.127.127,0,0,1-.127-.126v-.38a.127.127,0,0,1,.126-.127h0a.127.127,0,0,1,.126.126v.38a.127.127,0,0,1-.126.127Z" transform="translate(-1928.239 -934.596)" fill="#12263f"/>
          <path id="Trazado_628107" data-name="Trazado 628107" d="M1991.005,943.146a.126.126,0,0,1-.126-.127v-.38a.127.127,0,1,1,.253,0v.38A.127.127,0,0,1,1991.005,943.146Zm0-1.266a.126.126,0,0,1-.126-.127v-.38a.127.127,0,1,1,.253,0v.38A.127.127,0,0,1,1991.005,941.88Zm0-1.266a.127.127,0,0,1-.126-.127v-.38a.127.127,0,0,1,.253,0v.38A.127.127,0,0,1,1991.005,940.615Zm0-1.266a.126.126,0,0,1-.126-.127v-.38a.127.127,0,1,1,.253,0v.38A.127.127,0,0,1,1991.005,939.349Zm0-1.266a.126.126,0,0,1-.126-.127v-.38a.127.127,0,1,1,.253,0v.38A.127.127,0,0,1,1991.005,938.083Z" transform="translate(-1972.18 -923.371)" fill="#12263f"/>
          <path id="Trazado_628108" data-name="Trazado 628108" d="M2027.639,935.023a.127.127,0,0,1-.126-.123l-.007-.227a.127.127,0,0,1,.123-.13.128.128,0,0,1,.13.123l.007.227a.127.127,0,0,1-.123.13Zm-.034-1.112a.126.126,0,0,1-.126-.123l-.012-.38a.127.127,0,0,1,.123-.13.124.124,0,0,1,.13.123l.012.38a.127.127,0,0,1-.123.13Zm-.039-1.265a.127.127,0,0,1-.127-.123l-.012-.38a.127.127,0,0,1,.253-.008l.012.38a.127.127,0,0,1-.123.131Zm-.039-1.265a.127.127,0,0,1-.126-.123l-.012-.38a.127.127,0,0,1,.123-.13.125.125,0,0,1,.13.123l.012.38a.127.127,0,0,1-.123.131Zm-.039-1.265a.126.126,0,0,1-.126-.122l-.012-.38a.127.127,0,1,1,.253-.008l.012.38a.127.127,0,0,1-.123.13Zm-.039-1.265a.127.127,0,0,1-.126-.123l-.012-.38a.127.127,0,1,1,.253-.008l.012.38a.127.127,0,0,1-.123.13Zm-.039-1.265a.127.127,0,0,1-.126-.123l-.012-.38a.127.127,0,0,1,.123-.13.125.125,0,0,1,.13.123l.012.38a.127.127,0,0,1-.123.131Z" transform="translate(-2003.964 -914.202)" fill="#12263f"/>
          <path id="Trazado_628109" data-name="Trazado 628109" d="M2065.726,910.877a.127.127,0,0,1-.127-.127v-.38a.127.127,0,0,1,.253,0v.38A.127.127,0,0,1,2065.726,910.877Zm0-1.266a.126.126,0,0,1-.127-.126v-.38a.127.127,0,0,1,.253,0v.38A.127.127,0,0,1,2065.726,909.611Zm0-1.266a.127.127,0,0,1-.127-.127v-.38a.127.127,0,0,1,.253,0v.38A.127.127,0,0,1,2065.726,908.345Zm0-1.266a.127.127,0,0,1-.127-.127v-.38a.127.127,0,0,1,.253,0v.38A.127.127,0,0,1,2065.726,907.079Zm0-1.266a.126.126,0,0,1-.127-.127v-.38a.127.127,0,0,1,.253,0v.38A.127.127,0,0,1,2065.726,905.813Zm0-1.266a.126.126,0,0,1-.127-.126v-.38a.127.127,0,0,1,.253,0v.38A.127.127,0,0,1,2065.726,904.547Zm0-1.266a.126.126,0,0,1-.127-.127v-.38a.127.127,0,0,1,.253,0v.38A.127.127,0,0,1,2065.726,903.282Zm0-1.266a.126.126,0,0,1-.127-.127v-.38a.127.127,0,0,1,.253,0v.38A.127.127,0,0,1,2065.726,902.016Zm0-1.266a.127.127,0,0,1-.127-.127v-.38a.127.127,0,0,1,.253,0v.38A.127.127,0,0,1,2065.726,900.75Z" transform="translate(-2037.442 -890.764)" fill="#12263f"/>
          <g id="Grupo_947244" data-name="Grupo 947244" transform="translate(3.741 5.659)">
            <path id="Trazado_628110" data-name="Trazado 628110" d="M1877.628,888.562a.19.19,0,0,1-.189-.174l-1.3-15.325a.19.19,0,1,1,.378-.032l1.3,15.325a.19.19,0,0,1-.173.205Z" transform="translate(-1875.707 -872.615)" fill="#12263f"/>
            <g id="Grupo_947243" data-name="Grupo 947243">
              <path id="Trazado_628111" data-name="Trazado 628111" d="M1872.759,872.18l.587-.7.7.588-.046-.545-.7-.587-.587.7Z" transform="translate(-1872.713 -870.94)" fill="#12263f"/>
            </g>
          </g>
          <g id="Grupo_947246" data-name="Grupo 947246" transform="translate(4.488 20.05)">
            <path id="Trazado_628112" data-name="Trazado 628112" d="M1905.506,988.594h-26.7a.19.19,0,1,1,0-.38h26.7a.19.19,0,0,1,0,.38Z" transform="translate(-1878.614 -987.76)" fill="#12263f"/>
            <g id="Grupo_947245" data-name="Grupo 947245" transform="translate(26.135)">
              <path id="Trazado_628113" data-name="Trazado 628113" d="M2085.08,985.916l.644-.644-.644-.644h.547l.644.644-.644.644Z" transform="translate(-2085.08 -984.628)" fill="#12263f"/>
            </g>
          </g>
          <g id="Grupo_947247" data-name="Grupo 947247" transform="translate(6.583 8.489)">
            <path id="Trazado_628114" data-name="Trazado 628114" d="M1895.357,901.288a.19.19,0,0,1-.025-.378c.141-.019,14.121-1.933,21.774-7.576a.19.19,0,1,1,.225.306c-7.732,5.7-21.808,7.628-21.949,7.647Z" transform="translate(-1895.168 -893.296)" fill="#12263f"/>
          </g>
          <g id="Grupo_947248" data-name="Grupo 947248" transform="translate(27.333 8.297)">
            <path id="Trazado_628115" data-name="Trazado 628115" d="M2060.445,893.166h-.015a.19.19,0,0,1-.174-.2l.059-.746-1.052-.063a.19.19,0,1,1,.023-.379l1.245.074a.19.19,0,0,1,.178.2l-.074.939A.19.19,0,0,1,2060.445,893.166Z" transform="translate(-2059.084 -891.773)" fill="#12263f"/>
          </g>
        </g>
      </g>
      <g id="Grupo_947251" data-name="Grupo 947251" transform="translate(317.516 382.984)">
        <path id="Trazado_628116" data-name="Trazado 628116" d="M600.7,632.548c5.971,1.493,12.077,6.106,11.953,12.783-.105,5.677-6.38,7.973-10.227,8.952a4.536,4.536,0,0,0-2.631,1.845c-1.491,2.191-4.781,5.921-8.981,4.072a.321.321,0,0,1,.113-.612,4.874,4.874,0,0,0,3.47-1.459,2.724,2.724,0,0,0-1.35-4.342c-3.539-1.046-10.333-4.177-10.349-12.8C582.678,629.327,600.7,632.548,600.7,632.548Z" transform="translate(-582.701 -632.14)" fill="#bdd0fb"/>
        <path id="Trazado_628117" data-name="Trazado 628117" d="M660.574,690.281s-.667-3.833-4.453-2.813c-3.586.966-1.924,5.839,3.529,8.5a2.027,2.027,0,0,0,1.863-.045c2.16-1.183,7.141-4.451,3.865-7.978C663.262,685.672,660.574,690.281,660.574,690.281Z" transform="translate(-645.168 -680.314)" fill="#fff"/>
        <path id="Trazado_628118" data-name="Trazado 628118" d="M715.169,647.779a.253.253,0,0,1-.222-.132c-2.519-4.6-7.671-6.266-11.548-6.85a.253.253,0,1,1,.076-.5c3.991.6,9.3,2.322,11.917,7.108a.253.253,0,0,1-.222.375Z" transform="translate(-687.932 -639.261)" fill="#fff"/>
        <path id="Trazado_628119" data-name="Trazado 628119" d="M805.635,723.641h-.012a.253.253,0,0,1-.242-.264,8.274,8.274,0,0,0-.17-1.721.253.253,0,0,1,.5-.1,8.583,8.583,0,0,1,.178,1.839A.253.253,0,0,1,805.635,723.641Z" transform="translate(-777.042 -710.062)" fill="#fff"/>
      </g>
      <g id="Grupo_947262" data-name="Grupo 947262" transform="translate(303.628 415.485)">
        <g id="Grupo_947260" data-name="Grupo 947260" transform="translate(13.879 0)">
          <g id="Grupo_947257" data-name="Grupo 947257" transform="translate(0 6.785)">
            <g id="Grupo_947252" data-name="Grupo 947252" transform="translate(9.263 34.33)">
              <path id="Trazado_628120" data-name="Trazado 628120" d="M660.33,1235.444c-.8.069-2.177.181-3.267.229a3.147,3.147,0,0,1-1.249-.122c0,.025,0,.048,0,.069a.225.225,0,0,0,.214.213,38.306,38.306,0,0,0,4.277,0,.16.16,0,0,0,.131-.241A1.285,1.285,0,0,0,660.33,1235.444Z" transform="translate(-655.815 -1232.691)" fill="url(#linear-gradient-50)"/>
              <path id="Trazado_628121" data-name="Trazado 628121" d="M657.062,1224.582c1.089-.048,2.471-.16,3.267-.229-.783-.96-3.267-1.607-3.267-1.607h-.7a2.943,2.943,0,0,0-.547,1.714A3.144,3.144,0,0,0,657.062,1224.582Z" transform="translate(-655.813 -1221.601)" fill="url(#linear-gradient-51)"/>
              <path id="Trazado_628122" data-name="Trazado 628122" d="M659.2,1213.7l.066,1.3a.3.3,0,0,0,.253.279,1.158,1.158,0,0,0,.527-.044.351.351,0,0,0,.236-.27l.227-1.265Z" transform="translate(-658.775 -1213.698)" fill="url(#linear-gradient-52)"/>
            </g>
            <g id="Grupo_947254" data-name="Grupo 947254" transform="translate(0 33.115)">
              <g id="Grupo_947253" data-name="Grupo 947253" transform="translate(0 1.206)">
                <path id="Trazado_628123" data-name="Trazado 628123" d="M583.216,1234.279a.63.63,0,0,1-.567-.419v.005a.449.449,0,0,0,.3.511,1.973,1.973,0,0,0,.837.131.832.832,0,0,0,.628-.29l0,0A2.11,2.11,0,0,1,583.216,1234.279Z" transform="translate(-582.636 -1231.299)" fill="url(#linear-gradient-53)"/>
                <path id="Trazado_628124" data-name="Trazado 628124" d="M584.932,1213.631h-.579c-.881-.018-1.435,1.841-1.616,2.561a.63.63,0,0,0,.567.419,2.109,2.109,0,0,0,1.2-.063,5.527,5.527,0,0,0,.826-2.08A.73.73,0,0,0,584.932,1213.631Z" transform="translate(-582.725 -1213.631)" fill="url(#linear-gradient-54)"/>
              </g>
              <path id="Trazado_628125" data-name="Trazado 628125" d="M593.8,1204.106l-.321,1.278a.347.347,0,0,0,.181.393,1.23,1.23,0,0,0,.665.161.29.29,0,0,0,.236-.193l.472-1.344Z" transform="translate(-592.099 -1204.106)" fill="url(#linear-gradient-55)"/>
            </g>
            <path id="Trazado_628126" data-name="Trazado 628126" d="M593.063,1081.666a3.9,3.9,0,0,0,1.7.4c4.683-11.24,6.6-12.837,6.6-12.837-.676,4.243-.109,13.635-.109,13.635a2.81,2.81,0,0,0,1.769,0,72.4,72.4,0,0,1,2.392-17.778,8.957,8.957,0,0,1-5.4-1.589C597.377,1067.752,593.063,1081.666,593.063,1081.666Z" transform="translate(-591.743 -1048.181)" fill="#7d97f4"/>
            <path id="Trazado_628127" data-name="Trazado 628127" d="M646.757,960.85c-.6,2.988-.384,8.337-.243,10.777a4.83,4.83,0,0,1-.826,2.285.2.2,0,0,0,.082.286,14.109,14.109,0,0,0,5.386,1.493.363.363,0,0,0,.365-.271,70.828,70.828,0,0,1,4.078-11.546C653.179,960.011,646.757,960.85,646.757,960.85Z" transform="translate(-637.681 -958.46)" fill="url(#linear-gradient-56)"/>
            <path id="Trazado_628128" data-name="Trazado 628128" d="M660.114,1093.883a.15.15,0,0,1-.128-.228,4.7,4.7,0,0,1,1.857-1.612.15.15,0,1,1,.13.27,4.487,4.487,0,0,0-1.731,1.5A.15.15,0,0,1,660.114,1093.883Z" transform="translate(-650.175 -1073.1)" fill="url(#linear-gradient-57)"/>
            <g id="Grupo_947255" data-name="Grupo 947255" transform="translate(5.241 2.391)">
              <path id="Trazado_628129" data-name="Trazado 628129" d="M624.648,1027.7a10.284,10.284,0,0,0,1.9,4.524l.432-.353a13.352,13.352,0,0,1-.215-4.323A5.175,5.175,0,0,0,624.648,1027.7Z" transform="translate(-624.571 -1019.127)" fill="url(#linear-gradient-58)"/>
              <path id="Trazado_628130" data-name="Trazado 628130" d="M628.544,965.069l-.669-3.687s-4.471,3.418-3.758,8.577a5.177,5.177,0,0,1,2.115-.152A7.235,7.235,0,0,1,628.544,965.069Z" transform="translate(-624.039 -961.382)" fill="url(#linear-gradient-59)"/>
            </g>
            <g id="Grupo_947256" data-name="Grupo 947256" transform="translate(16.192 5.415)">
              <path id="Trazado_628131" data-name="Trazado 628131" d="M712.275,985.271l-1.726,3.717a3.827,3.827,0,0,0,2.784,3.586,7.883,7.883,0,0,1,.58-2.42C712.252,988.439,712.275,985.271,712.275,985.271Z" transform="translate(-710.549 -985.271)" fill="url(#linear-gradient-60)"/>
              <path id="Trazado_628132" data-name="Trazado 628132" d="M733.125,1023.845a7.886,7.886,0,0,0-.58,2.42c3.468,1.345,4.385-1.264,4.385-1.264l-.641-.113A3.633,3.633,0,0,1,733.125,1023.845Z" transform="translate(-729.761 -1018.962)" fill="url(#linear-gradient-61)"/>
            </g>
            <path id="Trazado_628133" data-name="Trazado 628133" d="M689.191,943.322l-.833,3.063a.6.6,0,0,1-.8.4,12.075,12.075,0,0,1-1.2-.549.8.8,0,0,1-.283-1.154l1.732-2.583Z" transform="translate(-672.864 -942.496)" fill="url(#linear-gradient-62)"/>
          </g>
          <path id="Trazado_628134" data-name="Trazado 628134" d="M625.007,1016.79l-21.35,7.771a1.634,1.634,0,0,0-.929,2.213l.065.143a1.52,1.52,0,0,0,2.021.75l20.73-9.59Z" transform="translate(-600.057 -1000.6)" fill="url(#linear-gradient-63)"/>
          <ellipse id="Elipse_8230" data-name="Elipse 8230" cx="10.539" cy="10.349" rx="10.539" ry="10.349" transform="translate(24.225 1.167)" opacity="0.25" fill="url(#linear-gradient-64)"/>
          <path id="Trazado_628135" data-name="Trazado 628135" d="M776.349,888.892a11.518,11.518,0,1,0,11.727,11.516A11.623,11.623,0,0,0,776.349,888.892Zm0,21.34a9.826,9.826,0,1,1,10-9.824A9.915,9.915,0,0,1,776.349,910.232Z" transform="translate(-741.586 -888.892)" fill="url(#linear-gradient-65)"/>
          <g id="Grupo_947258" data-name="Grupo 947258" transform="translate(23.792 0.728)">
            <path id="Trazado_628136" data-name="Trazado 628136" d="M770.73,906.845a.063.063,0,0,1-.063-.055c-.035-.273-.059-.55-.073-.825a.063.063,0,0,1,.06-.066.061.061,0,0,1,.066.06c.013.271.038.545.072.815a.063.063,0,0,1-.055.071Zm.081-3.22H770.8a.063.063,0,0,1-.051-.073,10.585,10.585,0,0,1,.632-2.162,10.944,10.944,0,0,1,10.186-6.742,11.1,11.1,0,0,1,5.9,1.685.063.063,0,0,1-.067.107,10.967,10.967,0,0,0-5.831-1.666,10.818,10.818,0,0,0-10.069,6.663,10.457,10.457,0,0,0-.624,2.136A.063.063,0,0,1,770.81,903.625Z" transform="translate(-770.594 -894.647)" fill="#bdd0fb"/>
          </g>
          <g id="Grupo_947259" data-name="Grupo 947259" transform="translate(14.278 3.639)">
            <path id="Trazado_628137" data-name="Trazado 628137" d="M707.723,927.245c.008.053-.695,3.5-.695,3.5l-1.957-.443.181-3.362S707.6,926.365,707.723,927.245Z" transform="translate(-703.851 -925.6)" fill="url(#linear-gradient-66)"/>
            <path id="Trazado_628138" data-name="Trazado 628138" d="M697.478,919.725l-.234,1.762a.24.24,0,0,0,0,.068c.02.138.122.608.6.474a2.235,2.235,0,0,1,1.1-.144.248.248,0,0,1,.171.287,10.728,10.728,0,0,1-.451,1.6.248.248,0,0,1-.3.146,8,8,0,0,1-1.725-.706.248.248,0,0,1-.121-.223c.019-.445.071-1.8.027-2.176-.041-.356-.478-.569-.667-.645a.243.243,0,0,1-.136-.136.644.644,0,0,1,.433-.938.249.249,0,0,0,.157-.322.645.645,0,0,1,.362-.891.91.91,0,0,1,1.086.262.248.248,0,0,0,.316.037.2.2,0,0,1,.224.008.245.245,0,0,0,.346-.1.741.741,0,0,1,.862-.429,1.184,1.184,0,0,1,.745,1.692c-.231.57-1.173.353-1.645.066a1.063,1.063,0,0,0-1.028.133A.247.247,0,0,0,697.478,919.725Z" transform="translate(-695.636 -917.64)" fill="url(#linear-gradient-67)"/>
            <path id="Trazado_628139" data-name="Trazado 628139" d="M696.256,938.347s.361-1.01-.01-1.257-.919-.119-.8.613C695.6,938.612,696.256,938.347,696.256,938.347Z" transform="translate(-695.431 -934.527)" fill="url(#linear-gradient-68)"/>
          </g>
          <path id="Trazado_628140" data-name="Trazado 628140" d="M638.918,1060.469l2.018-.164.874.806s-.207.286-.853.122a9.256,9.256,0,0,0-1.532-.2s-.893.4-.9-.35Z" transform="translate(-631.448 -1038.607)" fill="url(#linear-gradient-69)"/>
          <path id="Trazado_628141" data-name="Trazado 628141" d="M763.716,1026.211c.174.136.773-.148,1.138-.345a.421.421,0,0,0,.2-.5c-.088-.278-.235-.636-.416-.681C764.342,1024.612,763,1025.649,763.716,1026.211Z" transform="translate(-740.612 -1007.495)" fill="url(#linear-gradient-70)"/>
          <path id="Trazado_628142" data-name="Trazado 628142" d="M607.131,1077.14a.061.061,0,0,1-.021,0c-.663-.229-1.011-.609-1.033-1.13a1.254,1.254,0,0,1,.818-1.208l2.563-1a.063.063,0,0,1,.046.118l-2.563,1A1.128,1.128,0,0,0,606.2,1076c.02.463.339.8.948,1.016a.063.063,0,0,1-.021.123Z" transform="translate(-603.109 -1050.389)" fill="#bdd0fb"/>
          <path id="Trazado_628143" data-name="Trazado 628143" d="M638.785,1070.593a.063.063,0,0,1-.023-.122l.332-.13a.063.063,0,0,1,.046.118l-.332.129A.059.059,0,0,1,638.785,1070.593Z" transform="translate(-631.622 -1047.369)" fill="#bdd0fb"/>
        </g>
        <g id="Grupo_947261" data-name="Grupo 947261" transform="translate(0 43.936)">
          <path id="Trazado_628144" data-name="Trazado 628144" d="M690.108,1270.97v-32.888a.315.315,0,0,0-.63,0v32.888Z" transform="translate(-662.074 -1237.542)" fill="#91b3fa"/>
          <path id="Trazado_628145" data-name="Trazado 628145" d="M622.7,1270.97v-32.888a.315.315,0,0,0-.63,0v32.888Z" transform="translate(-603.198 -1237.542)" fill="#91b3fa"/>
          <path id="Trazado_628146" data-name="Trazado 628146" d="M473.674,1270.97l13.929-32.764a.315.315,0,0,0-.58-.246L472.99,1270.97Z" transform="translate(-472.99 -1237.541)" fill="#91b3fa"/>
          <path id="Trazado_628147" data-name="Trazado 628147" d="M552.245,1270.97l13.929-32.764a.315.315,0,0,0-.58-.246l-14.034,33.011Z" transform="translate(-541.615 -1237.541)" fill="#91b3fa"/>
          <rect id="Rectángulo_341864" data-name="Rectángulo 341864" width="15.637" height="0.888" rx="0.444" transform="translate(13.014)" fill="#91b3fa"/>
          <path id="Trazado_628148" data-name="Trazado 628148" d="M574.5,1284.149h-9.975a.315.315,0,0,1,0-.63H574.5a.315.315,0,0,1,0,.63Z" transform="translate(-552.66 -1277.501)" fill="#91b3fa"/>
          <rect id="Rectángulo_341865" data-name="Rectángulo 341865" width="9.975" height="0.63" transform="translate(8.801 13.181)" fill="#91b3fa"/>
          <rect id="Rectángulo_341866" data-name="Rectángulo 341866" width="9.975" height="0.63" transform="translate(5.838 20.344)" fill="#91b3fa"/>
          <path id="Trazado_628149" data-name="Trazado 628149" d="M502.362,1453.914h-9.975a.315.315,0,0,1,0-.63h9.975a.315.315,0,0,1,0,.63Z" transform="translate(-489.657 -1425.777)" fill="#91b3fa"/>
        </g>
      </g>
      <g id="Grupo_947265" data-name="Grupo 947265" transform="translate(336.843 391.696)">
        <g id="Grupo_947263" data-name="Grupo 947263" transform="translate(0 10.551)">
          <path id="Trazado_628150" data-name="Trazado 628150" d="M1027.09,832.216l-.731-.51,0,0a.212.212,0,1,1,.243-.348h0l.735.517a.211.211,0,1,1-.242.344Z" transform="translate(-989.445 -825.368)" fill="#fff"/>
          <path id="Trazado_628151" data-name="Trazado 628151" d="M1007.2,819.46l-.764-.459,0,0a.217.217,0,1,1,.224-.372h0l.77.466a.216.216,0,0,1-.223.369Z" transform="translate(-972.032 -814.257)" fill="#fff"/>
          <path id="Trazado_628152" data-name="Trazado 628152" d="M986.418,808.22l-.8-.4-.005,0a.222.222,0,1,1,.2-.4h0l.806.405a.221.221,0,0,1-.2.394Z" transform="translate(-953.833 -804.478)" fill="#fff"/>
          <path id="Trazado_628153" data-name="Trazado 628153" d="M964.717,798.909l-.831-.317-.006,0a.227.227,0,0,1,.162-.425h0l.842.325a.226.226,0,1,1-.163.421Z" transform="translate(-934.829 -796.399)" fill="#fff"/>
          <path id="Trazado_628154" data-name="Trazado 628154" d="M942.2,791.8l-.858-.232-.007,0a.232.232,0,0,1,.122-.448h0l.871.239a.231.231,0,1,1-.122.445Z" transform="translate(-915.119 -790.249)" fill="#fff"/>
          <path id="Trazado_628155" data-name="Trazado 628155" d="M919.083,787.039l-.877-.141H918.2a.237.237,0,1,1,.075-.469h0l.892.146a.236.236,0,0,1-.076.465Z" transform="translate(-894.883 -786.159)" fill="#fff"/>
          <path id="Trazado_628156" data-name="Trazado 628156" d="M895.586,784.845l-.886-.041h-.009a.242.242,0,1,1,.022-.484h0l.9.044a.241.241,0,0,1-.023.481Z" transform="translate(-874.324 -784.32)" fill="#fff"/>
          <path id="Trazado_628157" data-name="Trazado 628157" d="M872,785.017l-.883.071h-.01a.247.247,0,1,1-.04-.493h0l.9-.069a.246.246,0,0,1,.038.49Z" transform="translate(-853.698 -784.499)" fill="#fff"/>
          <path id="Trazado_628158" data-name="Trazado 628158" d="M848.731,787.954l-.863.194-.011,0a.252.252,0,0,1-.111-.493h0l.886-.2a.251.251,0,0,1,.108.49Z" transform="translate(-833.351 -787.059)" fill="#fff"/>
          <path id="Trazado_628159" data-name="Trazado 628159" d="M826.31,794.249l-.822.324-.012,0a.257.257,0,1,1-.189-.479h0l.846-.331a.256.256,0,1,1,.187.477Z" transform="translate(-813.766 -792.557)" fill="#fff"/>
          <path id="Trazado_628160" data-name="Trazado 628160" d="M805.405,804.076c-.252.153-.507.3-.755.457h0a.263.263,0,0,1-.282-.443h0c.257-.162.52-.312.78-.468a.261.261,0,1,1,.269.447Z" transform="translate(-795.528 -801.146)" fill="#fff"/>
          <path id="Trazado_628161" data-name="Trazado 628161" d="M786.638,817.408l-.662.582-.01.009a.267.267,0,0,1-.353-.4h0l.685-.6a.266.266,0,0,1,.35.4Z" transform="translate(-779.175 -812.805)" fill="#fff"/>
          <path id="Trazado_628162" data-name="Trazado 628162" d="M770.637,833.9l-.555.686-.008.01a.273.273,0,0,1-.424-.343h0l.575-.7a.271.271,0,0,1,.42.343Z" transform="translate(-765.26 -827.233)" fill="#fff"/>
          <path id="Trazado_628163" data-name="Trazado 628163" d="M757.61,852.922l-.442.765-.006.011a.278.278,0,1,1-.481-.278h0l.457-.785a.276.276,0,1,1,.477.278Z" transform="translate(-753.953 -843.867)" fill="#fff"/>
          <path id="Trazado_628164" data-name="Trazado 628164" d="M747.639,873.82l-.327.821,0,.011a.283.283,0,0,1-.525-.209h0l.339-.842a.281.281,0,1,1,.522.21Z" transform="translate(-745.322 -862.145)" fill="#fff"/>
          <path id="Trazado_628165" data-name="Trazado 628165" d="M740.729,896.034l-.213.859,0,.011a.288.288,0,0,1-.559-.138h0l.221-.88a.286.286,0,0,1,.555.139Z" transform="translate(-739.369 -881.573)" fill="#fff"/>
          <path id="Trazado_628166" data-name="Trazado 628166" d="M736.872,919.077l-.1.88v.011a.293.293,0,0,1-.582-.065h0l.1-.9a.291.291,0,1,1,.579.066Z" transform="translate(-736.087 -901.726)" fill="#fff"/>
          <path id="Trazado_628167" data-name="Trazado 628167" d="M735.979,942.542l.018.884v.012a.3.3,0,1,1-.6.012h0l-.015-.908a.3.3,0,0,1,.593-.01Z" transform="translate(-735.386 -922.25)" fill="#fff"/>
          <path id="Trazado_628168" data-name="Trazado 628168" d="M737.477,965.993l.136.873,0,.012a.3.3,0,0,1-.6.093h0l-.137-.9a.3.3,0,1,1,.6-.091Z" transform="translate(-736.688 -942.763)" fill="#fff"/>
          <path id="Trazado_628169" data-name="Trazado 628169" d="M742.165,989.03c.084.282.165.565.258.845a.308.308,0,1,1-.585.193h0v0c-.094-.287-.176-.58-.262-.87a.306.306,0,1,1,.588-.173Z" transform="translate(-740.781 -962.918)" fill="#fff"/>
          <path id="Trazado_628170" data-name="Trazado 628170" d="M749.959,1011.194l.362.807,0,.01a.313.313,0,1,1-.571.256h0l-.369-.829a.311.311,0,1,1,.569-.253Z" transform="translate(-747.59 -982.305)" fill="#fff"/>
          <path id="Trazado_628171" data-name="Trazado 628171" d="M760.422,1032.236l.455.759.006.01a.318.318,0,1,1-.546.327h0l-.464-.779a.317.317,0,0,1,.544-.324Z" transform="translate(-756.735 -1000.711)" fill="#fff"/>
          <path id="Trazado_628172" data-name="Trazado 628172" d="M773.258,1051.923l.537.7.006.008a.323.323,0,0,1-.514.392h0l-.547-.723a.322.322,0,0,1,.513-.388Z" transform="translate(-767.954 -1017.931)" fill="#fff"/>
          <path id="Trazado_628173" data-name="Trazado 628173" d="M788.159,1070.1l.608.645.007.007a.328.328,0,0,1-.478.45h0l-.619-.661a.327.327,0,0,1,.477-.446Z" transform="translate(-780.98 -1033.83)" fill="#fff"/>
          <path id="Trazado_628174" data-name="Trazado 628174" d="M804.833,1086.671l.668.583.007.006a.333.333,0,0,1-.438.5h0l-.68-.6a.332.332,0,1,1,.438-.5Z" transform="translate(-795.555 -1048.322)" fill="#fff"/>
          <path id="Trazado_628175" data-name="Trazado 628175" d="M823.016,1101.572l.719.52.007.005a.338.338,0,0,1-.4.548h0l-.732-.533a.337.337,0,1,1,.4-.545Z" transform="translate(-811.451 -1061.353)" fill="#fff"/>
          <path id="Trazado_628176" data-name="Trazado 628176" d="M842.487,1114.758l.762.453.008,0a.343.343,0,0,1-.351.59h0l-.776-.465a.342.342,0,1,1,.351-.586Z" transform="translate(-828.472 -1072.884)" fill="#fff"/>
          <path id="Trazado_628177" data-name="Trazado 628177" d="M863.039,1126.177l.8.386.008,0a.348.348,0,1,1-.3.627h0l-.814-.4a.347.347,0,0,1,.3-.624Z" transform="translate(-846.439 -1082.87)" fill="#fff"/>
          <path id="Trazado_628178" data-name="Trazado 628178" d="M884.531,1135.783c.275.107.551.213.829.315a.353.353,0,0,1-.243.664h0c-.282-.1-.564-.214-.844-.324a.352.352,0,0,1,.257-.655Z" transform="translate(-865.23 -1091.271)" fill="#fff"/>
          <path id="Trazado_628179" data-name="Trazado 628179" d="M906.714,1143.547l.852.251.008,0a.358.358,0,1,1-.2.688h0l-.866-.259a.357.357,0,1,1,.2-.684Z" transform="translate(-884.62 -1098.061)" fill="#fff"/>
          <path id="Trazado_628180" data-name="Trazado 628180" d="M929.436,1149.635l.868.19h.007a.364.364,0,1,1-.155.71h0l-.882-.2a.362.362,0,1,1,.157-.707Z" transform="translate(-904.482 -1103.384)" fill="#fff"/>
          <path id="Trazado_628181" data-name="Trazado 628181" d="M952.53,1154.128l.879.132h.007a.369.369,0,1,1-.11.729h0l-.892-.137a.367.367,0,1,1,.112-.725Z" transform="translate(-924.669 -1107.312)" fill="#fff"/>
          <path id="Trazado_628182" data-name="Trazado 628182" d="M975.869,1157.132l.886.079h.006a.374.374,0,1,1-.066.744h0l-.9-.083a.372.372,0,1,1,.069-.741Z" transform="translate(-945.068 -1109.939)" fill="#fff"/>
          <path id="Trazado_628183" data-name="Trazado 628183" d="M999.349,1158.763l.888.03h.006a.379.379,0,1,1-.026.757h0l-.9-.034a.377.377,0,0,1,.028-.754Z" transform="translate(-965.59 -1111.365)" fill="#fff"/>
          <path id="Trazado_628184" data-name="Trazado 628184" d="M1022.864,1159.044l.891-.014h.005a.384.384,0,0,1,.012.767h0l-.9.011a.382.382,0,0,1-.009-.764Z" transform="translate(-986.141 -1111.598)" fill="#fff"/>
          <path id="Trazado_628185" data-name="Trazado 628185" d="M1046.4,1158.008l.891-.054h.005a.389.389,0,1,1,.047.776h0l-.9.052a.387.387,0,0,1-.045-.773Z" transform="translate(-1006.706 -1110.656)" fill="#fff"/>
          <path id="Trazado_628186" data-name="Trazado 628186" d="M1069.886,1155.972l.888-.091h0a.394.394,0,0,1,.08.783h0l-.9.089a.392.392,0,1,1-.077-.78Z" transform="translate(-1027.232 -1108.845)" fill="#fff"/>
          <path id="Trazado_628187" data-name="Trazado 628187" d="M1093.293,1153.038l.883-.123h0a.4.4,0,0,1,.11.79h0l-.892.121a.4.4,0,1,1-.107-.787Z" transform="translate(-1047.685 -1106.253)" fill="#fff"/>
          <path id="Trazado_628188" data-name="Trazado 628188" d="M1116.57,1149.268l.878-.155h0a.4.4,0,0,1,.14.8h0l-.886.153a.4.4,0,0,1-.137-.793Z" transform="translate(-1068.024 -1102.93)" fill="#fff"/>
          <path id="Trazado_628189" data-name="Trazado 628189" d="M1139.708,1144.688l.872-.185h0a.409.409,0,1,1,.17.8h0l-.881.183a.407.407,0,1,1-.166-.8Z" transform="translate(-1088.242 -1098.901)" fill="#fff"/>
          <path id="Trazado_628190" data-name="Trazado 628190" d="M1162.683,1139.331l.866-.214h0a.414.414,0,1,1,.2.8h0l-.874.212a.412.412,0,0,1-.195-.8Z" transform="translate(-1108.317 -1094.195)" fill="#fff"/>
          <path id="Trazado_628191" data-name="Trazado 628191" d="M1185.471,1133.238l.858-.241h0a.419.419,0,1,1,.226.807h0l-.867.24a.417.417,0,1,1-.223-.8Z" transform="translate(-1128.228 -1088.845)" fill="#fff"/>
          <path id="Trazado_628192" data-name="Trazado 628192" d="M1208.064,1126.441l.851-.267h0a.424.424,0,0,1,.254.809h0l-.859.266a.423.423,0,1,1-.25-.807Z" transform="translate(-1147.969 -1082.883)" fill="#fff"/>
          <path id="Trazado_628193" data-name="Trazado 628193" d="M1230.453,1118.978l.843-.292h0a.429.429,0,1,1,.281.811h0l-.851.291a.428.428,0,1,1-.277-.809Z" transform="translate(-1167.531 -1076.34)" fill="#fff"/>
          <path id="Trazado_628194" data-name="Trazado 628194" d="M1252.628,1110.885l.834-.315h0a.434.434,0,0,1,.307.812h0l-.842.315a.433.433,0,1,1-.3-.811Z" transform="translate(-1186.906 -1069.246)" fill="#fff"/>
          <path id="Trazado_628195" data-name="Trazado 628195" d="M1274.582,1102.195l.826-.337h0a.439.439,0,1,1,.332.813h0l-.833.337a.438.438,0,0,1-.328-.812Z" transform="translate(-1206.087 -1061.633)" fill="#fff"/>
          <path id="Trazado_628196" data-name="Trazado 628196" d="M1296.308,1092.945l.818-.358h0a.444.444,0,1,1,.356.814h0l-.825.358a.443.443,0,0,1-.352-.812Z" transform="translate(-1225.071 -1053.532)" fill="#fff"/>
          <path id="Trazado_628197" data-name="Trazado 628197" d="M1317.8,1083.187l.81-.375h0a.447.447,0,0,1,.377.811l-.815.38a.448.448,0,1,1-.378-.812h0Z" transform="translate(-1243.847 -1044.99)" fill="#fff"/>
          <path id="Trazado_628198" data-name="Trazado 628198" d="M1339.132,1072.985l.8-.393h0a.443.443,0,0,1,.392.8l-.806.4a.444.444,0,0,1-.393-.8h0Z" transform="translate(-1262.488 -1036.061)" fill="#fff"/>
          <path id="Trazado_628199" data-name="Trazado 628199" d="M1360.271,1062.406l.8-.407h0a.429.429,0,0,1,.395.761l-.8.419a.434.434,0,1,1-.405-.768h0Z" transform="translate(-1280.962 -1026.808)" fill="#fff"/>
          <path id="Trazado_628200" data-name="Trazado 628200" d="M1381.264,1051.421l.787-.423h0a.41.41,0,0,1,.392.719l-.786.435a.415.415,0,1,1-.4-.727h0Z" transform="translate(-1299.313 -1017.198)" fill="#fff"/>
          <path id="Trazado_628201" data-name="Trazado 628201" d="M1402.028,1040.029l.78-.439h0a.391.391,0,0,1,.387.679l-.778.45a.4.4,0,0,1-.4-.686h0Z" transform="translate(-1317.464 -1007.233)" fill="#fff"/>
          <path id="Trazado_628202" data-name="Trazado 628202" d="M1422.585,1028.255l.771-.452h0a.372.372,0,0,1,.38.639l-.769.464a.378.378,0,1,1-.39-.646l0,0Z" transform="translate(-1335.432 -996.936)" fill="#fff"/>
          <path id="Trazado_628203" data-name="Trazado 628203" d="M1442.922,1016.125l.763-.466h0a.353.353,0,0,1,.371.6l-.76.477a.359.359,0,1,1-.381-.608h0Z" transform="translate(-1353.208 -986.33)" fill="#fff"/>
          <path id="Trazado_628204" data-name="Trazado 628204" d="M1463.052,1003.661l.756-.478h0a.334.334,0,0,1,.361.563l-.753.489a.34.34,0,1,1-.37-.57h0Z" transform="translate(-1370.802 -975.432)" fill="#fff"/>
          <path id="Trazado_628205" data-name="Trazado 628205" d="M1482.98,990.885l.749-.49a.315.315,0,0,1,.35.525l-.745.5a.321.321,0,1,1-.358-.533Z" transform="translate(-1388.219 -964.264)" fill="#fff"/>
          <path id="Trazado_628206" data-name="Trazado 628206" d="M1502.714,977.818l.742-.5a.3.3,0,0,1,.336.488l-.737.511a.3.3,0,1,1-.344-.5Z" transform="translate(-1405.465 -952.842)" fill="#fff"/>
          <path id="Trazado_628207" data-name="Trazado 628207" d="M1522.26,964.479l.735-.511a.277.277,0,0,1,.32.453l-.73.521a.283.283,0,0,1-.329-.461Z" transform="translate(-1422.548 -941.184)" fill="#fff"/>
          <path id="Trazado_628208" data-name="Trazado 628208" d="M1541.626,950.888l.728-.52a.259.259,0,0,1,.3.418l-.723.531a.264.264,0,0,1-.313-.426Z" transform="translate(-1439.472 -929.306)" fill="#fff"/>
          <path id="Trazado_628209" data-name="Trazado 628209" d="M1560.82,937.06l.722-.529a.24.24,0,0,1,.286.384l-.717.539a.245.245,0,0,1-.295-.392Z" transform="translate(-1456.245 -917.223)" fill="#fff"/>
          <path id="Trazado_628210" data-name="Trazado 628210" d="M1579.849,923.012l.716-.537a.221.221,0,0,1,.268.351l-.711.547a.227.227,0,0,1-.276-.359Z" transform="translate(-1472.874 -904.948)" fill="#fff"/>
          <path id="Trazado_628211" data-name="Trazado 628211" d="M1598.721,908.761l.71-.545a.2.2,0,0,1,.248.318l-.7.555a.208.208,0,1,1-.257-.326Z" transform="translate(-1489.366 -892.496)" fill="#fff"/>
          <path id="Trazado_628212" data-name="Trazado 628212" d="M1617.445,894.32l.705-.552a.183.183,0,0,1,.228.287l-.7.561a.189.189,0,1,1-.236-.294Z" transform="translate(-1505.728 -879.88)" fill="#fff"/>
          <path id="Trazado_628213" data-name="Trazado 628213" d="M1636.029,879.706l.7-.558a.164.164,0,0,1,.207.255l-.694.568a.17.17,0,1,1-.215-.263Z" transform="translate(-1521.967 -867.112)" fill="#fff"/>
          <path id="Trazado_628214" data-name="Trazado 628214" d="M1654.482,864.93l.7-.564a.145.145,0,0,1,.185.224l-.689.573a.151.151,0,0,1-.193-.232Z" transform="translate(-1538.09 -854.205)" fill="#fff"/>
          <path id="Trazado_628215" data-name="Trazado 628215" d="M1672.811,850.007l.691-.57a.126.126,0,0,1,.162.194l-.684.579a.132.132,0,0,1-.171-.2Z" transform="translate(-1554.106 -841.169)" fill="#fff"/>
          <path id="Trazado_628216" data-name="Trazado 628216" d="M1691.026,834.95l.687-.575a.107.107,0,0,1,.139.164l-.68.584a.113.113,0,0,1-.148-.172Z" transform="translate(-1570.023 -828.017)" fill="#fff"/>
          <path id="Trazado_628217" data-name="Trazado 628217" d="M1709.136,819.772l.684-.579a.089.089,0,0,1,.116.134l-.676.588a.094.094,0,0,1-.124-.142Z" transform="translate(-1585.847 -814.76)" fill="#fff"/>
          <path id="Trazado_628218" data-name="Trazado 628218" d="M1727.151,804.485l.68-.583a.07.07,0,0,1,.092.105l-.673.592a.075.075,0,0,1-.1-.113Z" transform="translate(-1601.587 -801.408)" fill="#fff"/>
          <path id="Trazado_628219" data-name="Trazado 628219" d="M1745.08,789.1l.678-.587a.051.051,0,0,1,.067.076l-.67.6a.057.057,0,1,1-.075-.085Z" transform="translate(-1617.252 -787.969)" fill="#fff"/>
        </g>
        <g id="Grupo_947264" data-name="Grupo 947264" transform="translate(127.106 0)">
          <path id="Trazado_628220" data-name="Trazado 628220" d="M1771.67,743.437l.712,3.787,2.259-2.11Z" transform="translate(-1767.6 -738.061)" fill="#7d97f4"/>
          <path id="Trazado_628221" data-name="Trazado 628221" d="M1760.207,700.964l-8.54,10.894a.975.975,0,0,1-1.4.143l-10.615-8.986a.391.391,0,0,1,.226-.688Z" transform="translate(-1739.516 -700.964)" fill="#91b3fa"/>
          <path id="Trazado_628222" data-name="Trazado 628222" d="M1771.68,706.341l16.619-5.377-14.911,6.832.153,1.059Z" transform="translate(-1767.609 -700.964)" fill="#7d97f4"/>
          <path id="Trazado_628223" data-name="Trazado 628223" d="M1779.314,755.793l-2.017,1.476,1-2.331Z" transform="translate(-1772.514 -748.105)" fill="#7d97f4"/>
        </g>
      </g>
    </g>
    <g id="Device" transform="translate(-348.517 -6400.636)">
      <g id="Grupo_895441" data-name="Grupo 895441">
        <g id="Grupo_895423" data-name="Grupo 895423">
          <g id="Grupo_895422" data-name="Grupo 895422">
            <g id="Grupo_895421" data-name="Grupo 895421">
              <g id="Grupo_895420" data-name="Grupo 895420">
                <g id="Grupo_895419" data-name="Grupo 895419">
                  <g id="Grupo_895416" data-name="Grupo 895416">
                    <g id="Grupo_895415" data-name="Grupo 895415">
                      <g id="Grupo_895414" data-name="Grupo 895414">
                        <g id="Grupo_895413" data-name="Grupo 895413">
                          <path id="Trazado_616738" data-name="Trazado 616738" d="M654.021,344.869l-23.676-.1a5.012,5.012,0,0,1-5.133-4.882l.251-55.957a5.019,5.019,0,0,1,5.181-4.841l23.676.1a5.013,5.013,0,0,1,5.133,4.883l-.251,55.957A5.019,5.019,0,0,1,654.021,344.869Z" transform="translate(-625.212 -279.086)" fill="#263238"/>
                        </g>
                      </g>
                    </g>
                  </g>
                  <g id="Grupo_895418" data-name="Grupo 895418" transform="translate(1.572 1.932)">
                    <g id="Grupo_895417" data-name="Grupo 895417">
                      <path id="Trazado_616739" data-name="Trazado 616739" d="M657.1,284.573l-4.59-.02-13.406-.058-1.614-.007-4.018-.017a3.515,3.515,0,0,0-3.628,3.391l-.245,54.618a3.51,3.51,0,0,0,3.6,3.419l23.628.1a3.516,3.516,0,0,0,3.629-3.391l.245-54.618A3.511,3.511,0,0,0,657.1,284.573Z" transform="translate(-629.594 -284.47)" fill="#fff"/>
                    </g>
                  </g>
                </g>
              </g>
            </g>
          </g>
        </g>
        <g id="Grupo_895437" data-name="Grupo 895437" transform="translate(28.683 6.832)">
          <g id="Grupo_895436" data-name="Grupo 895436">
            <g id="Grupo_895427" data-name="Grupo 895427" transform="translate(0.008)">
              <g id="Grupo_895426" data-name="Grupo 895426">
                <g id="Grupo_895425" data-name="Grupo 895425">
                  <g id="Grupo_895424" data-name="Grupo 895424">
                    <path id="Trazado_616740" data-name="Trazado 616740" d="M705.771,298.414a.293.293,0,1,1-.292-.285A.289.289,0,0,1,705.771,298.414Z" transform="translate(-705.185 -298.129)" fill="#263238"/>
                  </g>
                </g>
              </g>
            </g>
            <g id="Grupo_895431" data-name="Grupo 895431" transform="translate(0.004 1.022)">
              <g id="Grupo_895430" data-name="Grupo 895430">
                <g id="Grupo_895429" data-name="Grupo 895429">
                  <g id="Grupo_895428" data-name="Grupo 895428">
                    <path id="Trazado_616741" data-name="Trazado 616741" d="M705.76,301.264a.293.293,0,1,1-.292-.285A.289.289,0,0,1,705.76,301.264Z" transform="translate(-705.174 -300.979)" fill="#263238"/>
                  </g>
                </g>
              </g>
            </g>
            <g id="Grupo_895435" data-name="Grupo 895435" transform="translate(0 2.045)">
              <g id="Grupo_895434" data-name="Grupo 895434">
                <g id="Grupo_895433" data-name="Grupo 895433">
                  <g id="Grupo_895432" data-name="Grupo 895432">
                    <path id="Trazado_616742" data-name="Trazado 616742" d="M705.749,304.114a.293.293,0,1,1-.292-.285A.289.289,0,0,1,705.749,304.114Z" transform="translate(-705.163 -303.829)" fill="#263238"/>
                  </g>
                </g>
              </g>
            </g>
          </g>
        </g>
        <g id="Grupo_895439" data-name="Grupo 895439" transform="translate(5.33 6.546)">
          <g id="Grupo_895438" data-name="Grupo 895438">
            <path id="Trazado_616743" data-name="Trazado 616743" d="M643.936,299.21A1.934,1.934,0,1,1,642,297.333,1.906,1.906,0,0,1,643.936,299.21Z" transform="translate(-640.069 -297.333)" fill="#636363"/>
          </g>
        </g>
        <g id="Grupo_895440" data-name="Grupo 895440" transform="translate(13.004 7.494)">
          <path id="Trazado_616744" data-name="Trazado 616744" d="M672.018,301.263H662.1a.645.645,0,0,1-.645-.645h0a.645.645,0,0,1,.645-.645h9.913a.645.645,0,0,1,.645.645h0A.644.644,0,0,1,672.018,301.263Z" transform="translate(-661.46 -299.974)" fill="#e0e0e0"/>
        </g>
        <path id="Trazado_616745" data-name="Trazado 616745" d="M656.714,357.891v-5.546a1.4,1.4,0,0,1,2.091-1.172l4.948,2.773,4.948,2.773a1.334,1.334,0,0,1,0,2.344l-4.948,2.773-4.948,2.773a1.4,1.4,0,0,1-2.091-1.172Z" transform="translate(-645.412 -325.194)" fill="#26aab7"/>
      </g>
    </g>
  </g>
</svg>
