<svg id="Grupo_947017" data-name="Grupo 947017" xmlns="http://www.w3.org/2000/svg" width="127" height="127" viewBox="0 0 127 127">
  <rect id="Rectángulo_297818" data-name="Rectángulo 297818" width="127" height="127" fill="none"/>
  <g id="Grupo_879868" data-name="Grupo 879868" transform="translate(9.08 9.047)">
    <path id="Trazado_602031" data-name="Trazado 602031" d="M879.854,21.465q-21.774,0-43.548-.01a10.586,10.586,0,0,1-10.838-8.713c-.779-4.088,1.307-7.742,5.225-8.609,1.549-.343,1.69-.983,1.686-2.307q-.063-25.4-.026-50.806c0-7.3,3.263-10.52,10.63-10.523,4.4,0,8.8-.056,13.2.03a3.056,3.056,0,0,0,3.12-1.711c4.326-7.3,8.77-14.537,13.2-21.781,3.88-6.351,10.9-6.332,14.786.035,4.422,7.246,8.854,14.487,13.2,21.776a2.884,2.884,0,0,0,2.912,1.692c4.836-.111,9.676-.057,14.515-.037,5.834.025,9.474,3.638,9.48,9.462q.027,25.843-.025,51.686c0,1.519.272,2.2,1.939,2.573a6.683,6.683,0,0,1,5.123,6.813,10.531,10.531,0,0,1-10.81,10.415c-14,.043-28.005.015-42.008.015Zm-2.318-104.8a2.783,2.783,0,0,0-1.556,1.467Q865-63.878,854.064-45.861c-1.274,2.1-.312,3.929,2.1,3.931,14.8.017,29.592-.03,44.388-.056.657.028,1.314.068,1.971.08,1.322.024,2.686.153,3.459-1.3.724-1.362-.117-2.381-.755-3.434q-3.186-5.256-6.391-10.5-7.417-12.188-14.842-24.371C882.316-84.247,880.264-84.779,877.537-83.339ZM843-8.463a25.406,25.406,0,0,1-.1,3.069c-.278,1.852.428,2.264,2.247,2.259q34.748-.1,69.5,0c1.863.006,2.256-.487,2.244-2.286-.086-12.242-.045-24.485-.045-36.729,0-1.833,0-3.666,0-5.5,0-.668.1-1.323-.945-1.306-2.529.041-5.06.013-7.934.013,2.312,3.234,2.494,6.194.021,9.056a8.474,8.474,0,0,1-5.366,1.529c-15.1-.043-30.2-.236-45.3.079-6.152.129-9.509-5.535-5.889-10.131.067-.085.008-.268.008-.45h-8.09q-.451-.106-.347.346Q843-28.486,843-8.463Zm36.643,26.4q21.769,0,43.537-.005c3.557,0,6.035-1.556,7.184-4.411,1.47-3.652-.152-6.113-4.071-6.12-8.5-.015-17.016.264-25.5-.118-4.31-.194-7.1.776-8.262,5.139-.408,1.536-1.548,2.078-3.189,2.046a128.668,128.668,0,0,0-14.283.062c-4.92.455-8.383-.668-9.715-5.826a1.728,1.728,0,0,0-1.959-1.333c-10.261.042-20.522-.005-30.783.054-2.673.015-4.121,1.98-3.651,4.6.658,3.669,3.477,5.9,7.6,5.9Q858.093,17.952,879.641,17.933Zm24.346-73.841c.836,2.312,1.774,3.791,4.553,3.514,3.121-.311,6.3-.049,9.45-.079,1.666-.016,2.384.751,2.382,2.407q-.025,23.972,0,47.946c0,1.788-.793,2.481-2.539,2.48Q879.9.33,841.961.363c-1.9,0-2.593-.806-2.59-2.657q.048-23.752,0-47.506c-.005-2.023.848-2.735,2.787-2.687,3.224.079,6.455-.081,9.675.063a3.131,3.131,0,0,0,3.28-1.891c.675-1.242.811-1.729-.911-1.692-4.176.089-8.357,0-12.535.038-3.656.029-5.765,2.089-5.77,5.722-.024,17.448.007,34.9-.048,52.344,0,1.515.523,1.788,1.89,1.786q42.116-.052,84.233.009c1.56,0,1.953-.438,1.941-1.964-.069-9.163-.034-18.327-.034-27.492,0-8.211.014-16.421-.011-24.633-.009-3.088-1.7-5.532-4.41-5.649C914.365-56.064,909.26-55.908,903.987-55.908Zm-24.256,66.8c2.858,0,5.715.014,8.573,0,1.82-.012,2.112-1.7,2.259-2.776.191-1.4-1.286-.6-1.973-.678a36.476,36.476,0,0,0-4.171-.047c-4.616,0-9.233-.019-13.848.027-.514,0-1.448-.484-1.5.644a3.226,3.226,0,0,0,2.962,2.833C874.6,10.908,877.166,10.9,879.731,10.894Z" transform="translate(-825.307 87.717)" fill="#040303"/>
    <path id="Trazado_602032" data-name="Trazado 602032" d="M865.838.549h8.09c0,.182.058.365-.008.45-3.62,4.6-.263,10.259,5.889,10.131,15.093-.315,30.2-.122,45.3-.079a8.473,8.473,0,0,0,5.366-1.529q.027,7.75.054,15.5c-3,.026-6,.154-9,.038-1.529-.059-1.6.622-1.6,1.806s.067,1.865,1.6,1.805c2.994-.115,6,.012,9,.038v3.354c-3,.026-6,.154-9,.038-1.529-.059-1.6.622-1.6,1.806s.067,1.865,1.6,1.806c2.994-.116,6,.011,9,.038V39.1c-2.953.026-5.911.155-8.858.037-1.484-.059-1.877.52-1.782,1.8h-3.353c.129-1.356-.382-2.036-1.831-1.762s-1.819-.346-1.8-1.773c.076-6.665.027-13.332.04-20,0-1.125.079-2.305-1.238-2.753-1.359-.463-1.965.615-2.6,1.508-2.289,3.2-4.571,6.4-7.125,9.983-1.287-1.436-2.362-2.733-3.538-3.93-3.084-3.136-3.1-3.118-6.135-.088-.466.466-.928.936-1.4,1.4-1.465,1.429-2.785,3.763-4.443,4.035-1.819.3-3.468-2.028-5.1-3.312-1.443-1.134-2.537-1.013-3.847.157-1.53,1.366-3.2,2.576-5.058,4.053,0-4.9-.045-9.3.026-13.69.022-1.367-.085-2.058-1.8-2.066-1.766-.008-1.775.772-1.772,2.093.017,8.715-.03,17.43-.057,26.145h-3.355q0-20.024,0-40.047Z" transform="translate(-847.797 38.312)" fill="#f0f0f0"/>
    <path id="Trazado_602033" data-name="Trazado 602033" d="M884.157,138.671q-21.549,0-43.1-.007c-4.12,0-6.939-2.234-7.6-5.9-.47-2.621.978-4.586,3.651-4.6,10.261-.059,20.522-.012,30.783-.054a1.728,1.728,0,0,1,1.959,1.333c1.333,5.158,4.8,6.281,9.716,5.826a128.664,128.664,0,0,1,14.283-.062c1.641.031,2.781-.511,3.189-2.046,1.159-4.363,3.952-5.333,8.262-5.139,8.485.383,17,.1,25.5.118,3.919.007,5.54,2.468,4.071,6.12-1.149,2.855-3.627,4.408-7.184,4.411Q905.926,138.685,884.157,138.671Z" transform="translate(-829.823 -33.021)" fill="#676767"/>
    <path id="Trazado_602034" data-name="Trazado 602034" d="M936.393-36.419c-14.8.026-29.592.074-44.388.056-2.411,0-3.372-1.827-2.1-3.931q10.917-18.03,21.917-36.011a2.782,2.782,0,0,1,1.556-1.467c2.082,2.627,4.135,5.271,4.993,8.609-4.9-1.626-8.232.778-7.874,5.922.259,3.715.87,7.41,1.439,11.1A3.78,3.78,0,0,0,915.8-48.67a3.833,3.833,0,0,0,3.734-3.635c.574-3.908,1.031-7.832,1.538-11.75,1.257-.157,1.6.913,2.057,1.667,3.852,6.293,7.605,12.647,11.5,18.911C936.011-41.265,937.484-39.194,936.393-36.419Zm-17.151-6.946a3.516,3.516,0,0,0-3.406-3.532,3.5,3.5,0,0,0-3.642,3.509,3.523,3.523,0,0,0,3.622,3.536A3.518,3.518,0,0,0,919.242-43.365Z" transform="translate(-861.149 82.151)" fill="#f3b73f"/>
    <path id="Trazado_602035" data-name="Trazado 602035" d="M917.384-15.6c5.273,0,10.378-.156,15.466.063,2.709.117,4.4,2.562,4.41,5.649.025,8.211.01,16.422.011,24.633,0,9.164-.035,18.328.034,27.492.011,1.526-.381,1.967-1.941,1.964q-42.117-.071-84.233-.009c-1.367,0-1.895-.271-1.89-1.786.055-17.448.024-34.9.048-52.344.005-3.633,2.114-5.693,5.77-5.722,4.178-.034,8.359.052,12.535-.038,1.722-.037,1.587.45.911,1.692a3.131,3.131,0,0,1-3.281,1.891c-3.219-.144-6.451.015-9.675-.063-1.939-.048-2.792.664-2.787,2.687q.063,23.753,0,47.506c0,1.851.693,2.659,2.59,2.657q37.937-.038,75.876,0c1.746,0,2.542-.692,2.539-2.48q-.035-23.973,0-47.946c0-1.655-.717-2.422-2.382-2.407-3.152.03-6.328-.232-9.45.079C919.158-11.8,918.22-13.284,917.384-15.6Z" transform="translate(-838.703 47.405)" fill="#909090"/>
    <path id="Trazado_602036" data-name="Trazado 602036" d="M930.319,24.9q-.027-7.75-.054-15.5c2.473-2.861,2.292-5.822-.021-9.056,2.874,0,5.4.028,7.934-.013,1.041-.017.946.638.945,1.306,0,1.832,0,3.665,0,5.5,0,12.243-.041,24.486.045,36.729.012,1.8-.381,2.292-2.244,2.286q-34.748-.108-69.5,0c-1.819.005-2.525-.407-2.247-2.259a25.406,25.406,0,0,0,.1-3.069h3.355c.3,1.586,1.408,1.783,2.786,1.781q21.535-.038,43.072.022c1.456.007,1.951-.457,1.831-1.8h3.353c-.12,1.344.366,1.848,1.83,1.806,4.024-.115,8.055-.081,12.081-.017,1.328.021,2.1-.018,2.092-1.777,0-1.73-.717-1.887-2.076-1.791-1.089.077-2.191-.033-3.287-.06V35.627c1.095-.027,2.2-.135,3.283-.061,1.347.092,2.079-.044,2.079-1.783S934.949,31.908,933.6,32c-1.088.074-2.188-.034-3.283-.061V28.586c1.095-.027,2.2-.135,3.283-.061,1.347.092,2.079-.044,2.079-1.783s-.732-1.875-2.079-1.783C932.514,25.034,931.414,24.926,930.319,24.9Z" transform="translate(-847.591 38.435)" fill="#dfe4f1"/>
    <path id="Trazado_602037" data-name="Trazado 602037" d="M966.951-37.408c1.091-2.775-.382-4.846-1.759-7.058-3.9-6.264-7.652-12.617-11.5-18.911-.462-.754-.8-1.824-2.057-1.667a6.14,6.14,0,0,0-2.7-5.108c-.858-3.338-2.911-5.982-4.993-8.609,2.727-1.441,4.779-.908,6.456,1.828q7.456,12.163,14.842,24.371,3.2,5.25,6.391,10.5c.638,1.053,1.479,2.071.755,3.434-.773,1.454-2.137,1.324-3.459,1.3C968.265-37.34,967.608-37.38,966.951-37.408Z" transform="translate(-891.707 83.14)" fill="#eea63a"/>
    <path id="Trazado_602038" data-name="Trazado 602038" d="M935.371,131.662c-2.565,0-5.129.012-7.693,0a3.226,3.226,0,0,1-2.963-2.833c.047-1.128.981-.639,1.5-.644,4.616-.046,9.232-.027,13.849-.027a36.469,36.469,0,0,1,4.171.047c.687.079,2.165-.727,1.973.678-.147,1.073-.439,2.764-2.259,2.776C941.086,131.674,938.229,131.66,935.371,131.662Z" transform="translate(-880.947 -33.049)" fill="#454545"/>
    <path id="Trazado_602039" data-name="Trazado 602039" d="M865.817.523l-.347.346Q865.366.418,865.817.523Z" transform="translate(-847.776 38.338)" fill="#dfe4f1"/>
    <path id="Trazado_602040" data-name="Trazado 602040" d="M920.8,56.4c.121,1.346-.374,1.81-1.831,1.8q-21.536-.094-43.072-.022c-1.378,0-2.49-.195-2.786-1.781.026-8.715.074-17.43.057-26.145,0-1.321.006-2.1,1.772-2.093,1.719.007,1.826.7,1.8,2.066-.071,4.394-.026,8.789-.026,13.69,1.859-1.477,3.528-2.687,5.058-4.053,1.31-1.17,2.4-1.291,3.848-.157,1.633,1.283,3.282,3.611,5.1,3.312,1.657-.273,2.977-2.606,4.442-4.035.472-.461.934-.931,1.4-1.4,3.033-3.031,3.051-3.048,6.135.088,1.177,1.2,2.251,2.494,3.538,3.93,2.554-3.58,4.836-6.784,7.125-9.983.639-.893,1.245-1.971,2.6-1.508,1.317.448,1.24,1.628,1.238,2.753-.013,6.666.036,13.332-.04,20-.016,1.427.359,2.046,1.8,1.773S920.924,55.04,920.8,56.4Zm-22.433-1.761c1.811,0,3.282-.068,4.743.021,1.262.077,1.871-.2,1.794-1.656-.123-2.341-.057-4.692-.021-7.039a2.391,2.391,0,0,0-.774-1.944c-1.228-1.156-2.442-2.333-3.569-3.584-.743-.824-1.226-.7-1.927.046-1.559,1.653-3.15,3.284-4.826,4.816a3.406,3.406,0,0,0-1.238,3.078c.2,2.019-.859,4.627.435,5.916C894.169,55.476,896.746,54.492,898.363,54.635Zm-15.624,0h.658c5.643,0,5.615,0,5.646-5.7a3.57,3.57,0,0,0-1.464-3.365c-3.828-2.782-3.783-2.842-7.525.213-.452.37-.914.728-1.374,1.09-1.728,1.361-2.9,5-1.855,7.028.871,1.684,2.765.4,4.164.714A8.163,8.163,0,0,0,882.739,54.632Zm30.93-17.047c-3.808,4.047-6.067,8.133-5.36,13.611.452,3.505.085,3.5,3.743,3.471,1.191-.01,1.665-.26,1.646-1.567C913.626,48.055,913.669,43.009,913.669,37.585Z" transform="translate(-852.062 22.859)" fill="#030304"/>
    <path id="Trazado_602041" data-name="Trazado 602041" d="M999.737,56.134c1.095.027,2.2.135,3.283.061,1.347-.092,2.079.044,2.079,1.783s-.733,1.875-2.079,1.783c-1.088-.074-2.188.033-3.283.061-3-.026-6-.154-9-.038-1.53.059-1.6-.621-1.6-1.805s.067-1.865,1.6-1.806C993.734,56.288,996.738,56.16,999.737,56.134Z" transform="translate(-917.01 7.2)" fill="#040404"/>
    <path id="Trazado_602042" data-name="Trazado 602042" d="M999.737,72.125c1.095.027,2.2.135,3.283.061,1.347-.092,2.079.044,2.079,1.783s-.733,1.875-2.079,1.783c-1.088-.074-2.188.034-3.283.061-3-.026-6-.154-9-.038-1.53.059-1.6-.622-1.6-1.806s.067-1.865,1.6-1.806C993.734,72.279,996.738,72.151,999.737,72.125Z" transform="translate(-917.01 -1.75)" fill="#040404"/>
    <path id="Trazado_602043" data-name="Trazado 602043" d="M999.657,88.116c1.1.027,2.2.137,3.287.06,1.358-.1,2.071.061,2.076,1.791,0,1.759-.764,1.8-2.092,1.777-4.026-.064-8.057-.1-12.081.017-1.464.042-1.95-.462-1.83-1.806-.095-1.283.3-1.862,1.782-1.8C993.746,88.271,996.7,88.142,999.657,88.116Z" transform="translate(-916.929 -10.701)" fill="#040404"/>
    <path id="Trazado_602044" data-name="Trazado 602044" d="M945.234-58.858a6.139,6.139,0,0,1,2.7,5.108c-.507,3.918-.965,7.842-1.538,11.75a3.832,3.832,0,0,1-3.734,3.635A3.78,3.78,0,0,1,938.8-41.84c-.569-3.686-1.18-7.381-1.439-11.1C937-58.08,940.335-60.484,945.234-58.858ZM942.239-42.54l.68.018c.467-3.635.961-7.267,1.386-10.907.15-1.288-.227-2.481-1.774-2.44s-1.825,1.281-1.676,2.541C941.282-49.728,941.773-46.135,942.239-42.54Z" transform="translate(-888.011 71.845)" fill="#070502"/>
    <path id="Trazado_602045" data-name="Trazado 602045" d="M948.294-4.117A3.518,3.518,0,0,1,944.868-.6a3.522,3.522,0,0,1-3.621-3.536,3.5,3.5,0,0,1,3.642-3.509A3.516,3.516,0,0,1,948.294-4.117Z" transform="translate(-890.201 42.902)" fill="#0a0703"/>
    <path id="Trazado_602046" data-name="Trazado 602046" d="M922.791,69.52c-1.617-.144-4.193.841-5.385-.346-1.293-1.289-.238-3.9-.434-5.916a3.406,3.406,0,0,1,1.239-3.078c1.677-1.532,3.267-3.163,4.826-4.816.7-.744,1.185-.87,1.928-.046,1.127,1.251,2.342,2.428,3.569,3.584a2.389,2.389,0,0,1,.774,1.944c-.036,2.346-.1,4.7.021,7.039.077,1.458-.532,1.733-1.794,1.656C926.073,69.453,924.6,69.52,922.791,69.52Z" transform="translate(-876.49 7.974)" fill="#5c85c7"/>
    <path id="Trazado_602047" data-name="Trazado 602047" d="M886.962,74.117a8.163,8.163,0,0,1-1.75-.021c-1.4-.314-3.293.97-4.165-.714-1.048-2.027.127-5.667,1.855-7.028.459-.362.921-.72,1.374-1.09,3.742-3.055,3.7-2.995,7.525-.213a3.571,3.571,0,0,1,1.464,3.365c-.03,5.7,0,5.7-5.646,5.7Z" transform="translate(-856.285 3.374)" fill="#3a5790"/>
    <path id="Trazado_602048" data-name="Trazado 602048" d="M958.258,49.569c0,5.424-.043,10.47.029,15.515.019,1.307-.456,1.556-1.646,1.566-3.659.031-3.291.035-3.743-3.471C952.191,57.7,954.45,53.616,958.258,49.569Z" transform="translate(-896.65 10.875)" fill="#759dd0"/>
    <path id="Trazado_602049" data-name="Trazado 602049" d="M946.671-38.1c-.466-3.6-.957-7.188-1.384-10.788-.15-1.26.127-2.5,1.675-2.541s1.924,1.152,1.774,2.44c-.425,3.64-.919,7.272-1.386,10.907Z" transform="translate(-892.443 67.407)" fill="#454545"/>
  </g>
</svg>
