<svg xmlns="http://www.w3.org/2000/svg" width="102.339" height="95.464" viewBox="0 0 102.339 95.464">
  <g id="ACYdJD" transform="translate(-180.637 454.325)">
    <g id="Grupo_947360" data-name="Grupo 947360" transform="translate(180.637 -454.326)">
      <path id="Trazado_628530" data-name="Trazado 628530" d="M613.4-251.518c-.153.038-.176.166-.222.292a4.6,4.6,0,0,1-4.642,3.238c-3.26.036-6.522.046-9.782,0a4.646,4.646,0,0,1-4.9-4.986c-.023-2.895-.011-5.789,0-8.684,0-1.319.29-1.688,1.538-2.073a1.741,1.741,0,0,1,1.473,2.024c-.036,2.863-.02,5.728-.009,8.592.006,1.537.58,2.125,2.106,2.132q4.646.023,9.292,0c1.606-.006,2.148-.565,2.148-2.178q0-28.623,0-57.246c0-1.676-.536-2.221-2.2-2.226-2.931-.007-5.861,0-8.792,0-2.125,0-2.554.436-2.554,2.593q0,20.581,0,41.161c0,1.529-.209,1.837-1.462,2.206-1.225-.328-1.534-.722-1.536-2.057q-.009-8.033,0-16.067,0-12.674,0-25.348c0-3.714,1.783-5.488,5.512-5.489h8.184c3.457,0,4.55.7,5.854,3.76Z" transform="translate(-511.058 343.421)" fill="#030303"/>
      <path id="Trazado_628531" data-name="Trazado 628531" d="M275.132-435.7a7.513,7.513,0,0,1-2.362-.319,1.38,1.38,0,0,0-1.592.375q-6.945,5.862-13.926,11.681a1.115,1.115,0,0,0-.51,1.078,8.836,8.836,0,0,1-4.061,8.741,8.839,8.839,0,0,1-9.724.373,8.86,8.86,0,0,1-4.579-6.429,1.375,1.375,0,0,0-.891-1.154q-5.719-2.578-11.41-5.215a1.384,1.384,0,0,0-1.461.1,8.764,8.764,0,0,1-7.389.855,1.645,1.645,0,0,0-1.714.311q-6.6,5.088-13.253,10.113a1.406,1.406,0,0,0-.652,1.4,9.314,9.314,0,0,1-7,9.376,9.327,9.327,0,0,1-10.345-4.382,9.3,9.3,0,0,1,7.771-13.966,7.756,7.756,0,0,1,3.136.479,1.264,1.264,0,0,0,1.365-.222q6.732-5.164,13.493-10.291a1.267,1.267,0,0,0,.579-1.239,9.369,9.369,0,0,1,7.974-9.68,9.229,9.229,0,0,1,10.388,7.236,2,2,0,0,0,1.306,1.634c3.7,1.642,7.376,3.343,11.05,5.047a1.376,1.376,0,0,0,1.464-.07,8.768,8.768,0,0,1,7.1-.98,1.4,1.4,0,0,0,1.449-.277q6.935-5.873,13.926-11.68a1.554,1.554,0,0,0,.6-1.537,9.363,9.363,0,0,1,7.5-9.843,9.368,9.368,0,0,1,10.876,7.246A9.344,9.344,0,0,1,275.132-435.7Zm-86.607,17.274a5.952,5.952,0,0,0-2.393,6.228,6.346,6.346,0,0,0,4.9,4.963,6.191,6.191,0,0,0,6.182-2.323,6.128,6.128,0,0,0-.284-8.132A6.081,6.081,0,0,0,188.525-418.425Zm63.87.482a5.642,5.642,0,0,0,1.32-5.01,6.1,6.1,0,0,0-4.04-4.81,5.666,5.666,0,0,0-5.972.969,5.989,5.989,0,0,0-2.4,6.043,6.326,6.326,0,0,0,4.8,5.046A6.144,6.144,0,0,0,252.4-417.943ZM216.09-439.451a5.8,5.8,0,0,0-2.33,6.244,6.03,6.03,0,0,0,4.955,4.89,5.849,5.849,0,0,0,6.2-2.46,6.186,6.186,0,0,0-.57-8.232A6.239,6.239,0,0,0,216.09-439.451Zm63.968-1.722a6.221,6.221,0,0,0-.458-8.315,6.212,6.212,0,0,0-8.309-.48,5.949,5.949,0,0,0-2.349,6.246,6.292,6.292,0,0,0,4.959,4.9A5.957,5.957,0,0,0,280.057-441.172Zm-13.1.9c-.292.223-.563.413-.816.625q-5.772,4.838-11.539,9.683c-1.041.875-1.03.877-.154,1.862a5.5,5.5,0,0,1,.788,1.025c.3.571.564.465.972.107,1.074-.943,2.179-1.851,3.275-2.77,3.007-2.521,6.019-5.035,9.013-7.572.209-.177.823-.325.359-.795a13.111,13.111,0,0,1-1.6-1.905A1.6,1.6,0,0,0,266.955-440.274ZM200.721-417.8c.113-.069.2-.114.28-.174q6.109-4.662,12.221-9.32c.349-.265.286-.455.019-.7a7.559,7.559,0,0,1-1.328-1.739c-.206-.352-.38-.458-.761-.165q-6.016,4.619-12.054,9.21c-.2.152-.513.294-.227.618a13.96,13.96,0,0,1,1.63,2.137C200.539-417.874,200.65-417.847,200.721-417.8Zm37.658-6.419a20.437,20.437,0,0,1,1.052-2.208c.4-.636.23-.866-.4-1.145-2.939-1.311-5.857-2.668-8.784-4.008-1.236-.566-1.226-.561-1.758.737a8.714,8.714,0,0,1-.6,1.143c-.2.337-.263.563.192.769C231.524-427.375,234.955-425.793,238.379-424.223Z" transform="translate(-182.546 454.326)" fill="#030303"/>
      <path id="Trazado_628532" data-name="Trazado 628532" d="M601.559-254.7c1.253-.369,1.462-.677,1.462-2.206q0-20.581,0-41.161c0-2.157.429-2.593,2.554-2.593,2.931,0,5.861-.006,8.792,0,1.667,0,2.2.549,2.2,2.226q0,28.623,0,57.246c0,1.613-.542,2.171-2.148,2.178q-4.646.018-9.292,0c-1.526-.007-2.1-.6-2.106-2.132-.011-2.864-.028-5.728.009-8.592a1.741,1.741,0,0,0-1.473-2.024Q601.56-253.232,601.559-254.7Z" transform="translate(-517.232 331.449)" fill="#f9e070"/>
      <path id="Trazado_628533" data-name="Trazado 628533" d="M326.187-233.449q0-1.467,0-2.933a1.687,1.687,0,0,0,1.445-1.941c-.028-2.53-.015-5.06-.006-7.591.005-1.546.563-2.1,2.113-2.1q4.595-.009,9.189,0c1.735,0,2.25.517,2.25,2.271q0,23.272,0,46.543c0,1.778-.525,2.289-2.35,2.292q-4.395.006-8.79,0c-1.938,0-2.415-.481-2.415-2.423q0-15.98.013-31.961C327.638-232.4,327.346-233.182,326.187-233.449Z" transform="translate(-297.027 289.349)" fill="#8dd9d2"/>
      <path id="Trazado_628534" data-name="Trazado 628534" d="M319.9-245.452c1.158.267,1.451,1.053,1.448,2.157q-.033,15.98-.013,31.961c0,1.941.477,2.421,2.415,2.422q4.395,0,8.79,0c1.824,0,2.349-.514,2.35-2.292q0-23.272,0-46.543c0-1.754-.515-2.27-2.25-2.271q-4.594,0-9.189,0c-1.55,0-2.108.555-2.113,2.1-.009,2.53-.021,5.061.006,7.591a1.687,1.687,0,0,1-1.445,1.941c-1.221-.3-1.556-.7-1.561-1.931-.011-2.63-.026-5.26,0-7.889a4.605,4.605,0,0,1,4.858-4.81q4.894-.028,9.788,0a4.625,4.625,0,0,1,4.9,4.875c.029,2.9.006,5.792.006,8.688q0,19.075,0,38.149c0,3.582-1.815,5.39-5.41,5.393q-4.444,0-8.889,0c-3.4-.008-5.257-1.856-5.258-5.238q0-16.079,0-32.157C318.338-244.729,318.592-245.069,319.9-245.452Z" transform="translate(-290.742 301.353)" fill="#030303"/>
      <path id="Trazado_628535" data-name="Trazado 628535" d="M475.672-177.773q0,8.491,0,16.981c0,3.386-1.854,5.234-5.256,5.242q-4.545.011-9.09,0c-3.331-.011-5.207-1.88-5.208-5.193q-.007-17.031,0-34.062c0-3.378,1.871-5.237,5.261-5.24q4.6-.005,9.19,0c3.194.009,5.1,1.9,5.1,5.091Q475.682-186.363,475.672-177.773Zm-16.559-.1q0,8.491,0,16.981c0,1.8.53,2.348,2.3,2.355q4.445.016,8.89,0c1.847-.005,2.363-.535,2.363-2.392q0-16.881,0-33.762c0-1.842-.52-2.349-2.4-2.35q-4.4,0-8.79,0c-1.849,0-2.366.522-2.367,2.386Q459.111-186.267,459.113-177.876Z" transform="translate(-400.925 250.991)" fill="#030303"/>
      <path id="Trazado_628536" data-name="Trazado 628536" d="M180.639-140.1q0-6.439,0-12.879c.005-3.181,1.9-5.074,5.1-5.086q4.693-.018,9.385,0c3.133.016,5.054,1.913,5.06,5.039q.023,12.979,0,25.958c0,3.145-1.883,5.05-5.013,5.079-3.195.029-6.39.035-9.585,0a4.643,4.643,0,0,1-4.947-5.031Q180.628-133.563,180.639-140.1Zm3,.007q0,6.491,0,12.981c0,1.539.557,2.117,2.1,2.126q4.693.027,9.387,0c1.467-.01,2.054-.609,2.056-2.084q.015-12.931,0-25.863c0-1.529-.6-2.123-2.116-2.129q-4.643-.019-9.287,0c-1.58.005-2.141.587-2.143,2.19Q183.635-146.487,183.639-140.1Z" transform="translate(-180.637 217.427)" fill="#030303"/>
      <path id="Trazado_628537" data-name="Trazado 628537" d="M623.535-438.044a6.212,6.212,0,0,1,8.309.48,6.221,6.221,0,0,1,.458,8.315c-.232,0-.464.009-.7,0a7.856,7.856,0,0,1-7.333-4.549A8.25,8.25,0,0,1,623.535-438.044Z" transform="translate(-534.79 442.402)" fill="#8cd9d2"/>
      <path id="Trazado_628538" data-name="Trazado 628538" d="M348.042-385.489a6.239,6.239,0,0,1,8.257.441,6.186,6.186,0,0,1,.57,8.232,4.54,4.54,0,0,1-2.04.012,7.8,7.8,0,0,1-5.751-3.806A8.415,8.415,0,0,1,348.042-385.489Z" transform="translate(-314.498 400.364)" fill="#8dd9d2"/>
      <path id="Trazado_628539" data-name="Trazado 628539" d="M485.814-322.547a5.666,5.666,0,0,1,5.972-.969,6.1,6.1,0,0,1,4.04,4.81,5.642,5.642,0,0,1-1.32,5.01c-.724-.062-1.446-.1-2.17-.218a7.69,7.69,0,0,1-5.557-3.931A7.961,7.961,0,0,1,485.814-322.547Z" transform="translate(-424.657 350.079)" fill="#8dd9d2"/>
      <path id="Trazado_628540" data-name="Trazado 628540" d="M210.4-280.547a6.081,6.081,0,0,1,8.4.736,6.128,6.128,0,0,1,.284,8.132c-.3-.011-.6-.016-.895-.033a7.95,7.95,0,0,1-6.168-3.06A8.213,8.213,0,0,1,210.4-280.547Z" transform="translate(-204.423 316.447)" fill="#8dd9d2"/>
      <path id="Trazado_628541" data-name="Trazado 628541" d="M549.473-384.187a1.6,1.6,0,0,1,.3.26,13.108,13.108,0,0,0,1.6,1.905c.464.47-.15.618-.359.795-2.993,2.537-6.006,5.051-9.013,7.572-1.1.919-2.2,1.826-3.275,2.77-.407.358-.668.464-.972-.107a5.5,5.5,0,0,0-.788-1.025c-.875-.984-.887-.986.154-1.862q5.765-4.846,11.539-9.683C548.911-383.774,549.182-383.964,549.473-384.187Z" transform="translate(-465.064 398.238)" fill="#294ddc"/>
      <path id="Trazado_628542" data-name="Trazado 628542" d="M263.51-321.015c-.071-.042-.182-.069-.222-.137a13.956,13.956,0,0,0-1.63-2.137c-.286-.325.029-.467.227-.618q6.028-4.6,12.054-9.21c.381-.293.555-.187.761.165a7.56,7.56,0,0,0,1.328,1.739c.267.249.33.44-.019.7q-6.118,4.649-12.221,9.32C263.712-321.129,263.623-321.084,263.51-321.015Z" transform="translate(-245.335 357.535)" fill="#294ddc"/>
      <path id="Trazado_628543" data-name="Trazado 628543" d="M200.449-275.128a8.213,8.213,0,0,0,1.623,5.775,7.95,7.95,0,0,0,6.168,3.06c.3.017.6.022.895.033a6.19,6.19,0,0,1-6.182,2.323,6.346,6.346,0,0,1-4.9-4.963A5.952,5.952,0,0,1,200.449-275.128Z" transform="translate(-194.47 311.028)" fill="#7dc2bc"/>
      <path id="Trazado_628544" data-name="Trazado 628544" d="M476-316.9a7.96,7.96,0,0,0,.965,4.7,7.69,7.69,0,0,0,5.557,3.931c.724.115,1.446.156,2.17.218a6.144,6.144,0,0,1-6.294,2.238,6.327,6.327,0,0,1-4.8-5.046A5.989,5.989,0,0,1,476-316.9Z" transform="translate(-414.844 344.43)" fill="#7dc2bc"/>
      <path id="Trazado_628545" data-name="Trazado 628545" d="M338.1-380.076a8.415,8.415,0,0,0,1.036,4.879,7.8,7.8,0,0,0,5.751,3.806,4.541,4.541,0,0,0,2.04-.012,5.849,5.849,0,0,1-6.2,2.46,6.03,6.03,0,0,1-4.955-4.89A5.8,5.8,0,0,1,338.1-380.076Z" transform="translate(-304.561 394.951)" fill="#7dc2bc"/>
      <path id="Trazado_628546" data-name="Trazado 628546" d="M613.73-432.571a8.249,8.249,0,0,0,.737,4.25,7.856,7.856,0,0,0,7.333,4.549c.232,0,.464,0,.7,0a5.957,5.957,0,0,1-6.158,2.351,6.292,6.292,0,0,1-4.959-4.9A5.949,5.949,0,0,1,613.73-432.571Z" transform="translate(-524.985 436.929)" fill="#7dc2bd"/>
      <path id="Trazado_628547" data-name="Trazado 628547" d="M416.866-334.882c-3.424-1.57-6.855-3.151-10.295-4.712-.454-.206-.392-.432-.192-.769a8.709,8.709,0,0,0,.6-1.143c.532-1.3.522-1.3,1.758-.737,2.926,1.34,5.845,2.7,8.784,4.008.626.279.793.509.4,1.145A20.441,20.441,0,0,0,416.866-334.882Z" transform="translate(-361.033 364.984)" fill="#294ddc"/>
      <path id="Trazado_628548" data-name="Trazado 628548" d="M471.085-165.883q0-8.39,0-16.781c0-1.864.517-2.385,2.367-2.386q4.4,0,8.79,0c1.88,0,2.4.508,2.4,2.35q0,16.881,0,33.762c0,1.858-.517,2.387-2.363,2.392q-4.445.012-8.89,0c-1.773-.007-2.3-.557-2.3-2.355Q471.083-157.393,471.085-165.883Z" transform="translate(-412.897 238.998)" fill="#294ddc"/>
      <path id="Trazado_628549" data-name="Trazado 628549" d="M195.62-128.112q0-6.391,0-12.781c0-1.6.562-2.184,2.143-2.189q4.644-.016,9.287,0c1.517.006,2.114.6,2.116,2.129q.012,12.931,0,25.863c0,1.475-.589,2.074-2.056,2.084q-4.693.032-9.387,0c-1.545-.009-2.1-.587-2.1-2.126Q195.614-121.621,195.62-128.112Z" transform="translate(-192.617 205.443)" fill="#f38e1e"/>
    </g>
  </g>
</svg>
